<?xml version="1.0" standalone="no"?>
<!DOCTYPE svg PUBLIC "-//W3C//DTD SVG 1.1//EN" "http://www.w3.org/Graphics/SVG/1.1/DTD/svg11.dtd" >
<svg xmlns="http://www.w3.org/2000/svg" xmlns:xlink="http://www.w3.org/1999/xlink" version="1.1">
<metadata>
Created by FontForge 20161003 at Fri May  4 03:59:29 2018
 By www-data
(c) Copyright 2005 by Tong Duc Thinh. All Rights Reserved
</metadata>
<defs>
<font id="SFUHelveticaCompressed" horiz-adv-x="464" >
  <font-face 
    font-family="SFUHelveticaCompressed"
    font-weight="400"
    font-stretch="normal"
    units-per-em="1000"
    panose-1="0 0 4 0 0 0 0 0 0 0"
    ascent="800"
    descent="-200"
    x-height="572"
    cap-height="712"
    bbox="-120 -244 1056 1201"
    underline-thickness="68"
    underline-position="-166"
    unicode-range="U+0020-F002"
  />
<missing-glyph horiz-adv-x="500" 
d="M63 0v858h375v-858h-375zM125 63h250v733h-250v-733z" />
    <glyph glyph-name=".notdef" horiz-adv-x="500" 
d="M63 0v858h375v-858h-375zM125 63h250v733h-250v-733z" />
    <glyph glyph-name=".null" horiz-adv-x="0" 
 />
    <glyph glyph-name="nonmarkingreturn" horiz-adv-x="232" 
 />
    <glyph glyph-name="space" unicode=" " horiz-adv-x="232" 
 />
    <glyph glyph-name="exclam" unicode="!" horiz-adv-x="259" 
d="M207 209h-155v503h155v-503zM207 0h-155v168h155v-168z" />
    <glyph glyph-name="quotedbl" unicode="&#x22;" horiz-adv-x="333" 
d="M198 441v271h120v-271h-120zM15 441v271h120v-271h-120z" />
    <glyph glyph-name="numbersign" unicode="#" 
d="M417 297l-3 -97h-73l-23 -200h-85l23 200h-78l-22 -200h-85l23 200h-73l4 97h80l14 118h-72l3 97h80l23 200h85l-23 -200h77l23 200h85l-23 -200h65l-3 -97h-73l-14 -118h65zM281 415h-77l-14 -118h78z" />
    <glyph glyph-name="dollar" unicode="$" 
d="M266 775v-49q177 -15 177 -157v-112h-166v101q0 54 -45 54q-44 0 -44 -54q0 -42 66 -99q105 -90 123 -111q66 -77 66 -170q0 -174 -177 -192v-60h-75v60q-76 5 -120 45q-49 42 -49 116v130h166v-123q0 -54 44 -54q45 0 45 54q0 64 -66 124q-61 53 -123 107
q-66 71 -66 163q0 157 169 178v49h75z" />
    <glyph glyph-name="percent" unicode="%" horiz-adv-x="630" 
d="M414 726h74l-272 -740h-75zM355 127v147q0 127 129 127t129 -127v-147q0 -127 -129 -127t-129 127zM508 106v189q0 34 -24 34t-24 -34v-189q0 -34 24 -34t24 34zM17 438v147q0 127 129 127t129 -127v-147q0 -127 -129 -127t-129 127zM170 417v189q0 34 -24 34t-24 -34
v-189q0 -34 24 -34t24 34z" />
    <glyph glyph-name="ampersand" unicode="&#x26;" horiz-adv-x="593" 
d="M331 128l-144 166v-88q0 -106 79 -106q55 0 65 28zM248 612q-28 0 -37 -22q-6 -14 -6 -49q0 -57 38 -88q43 0 43 92q0 33 -5 46q-8 21 -33 21zM397 400h166v-119q0 -99 -34 -133h61v-148h-69q-74 0 -95 28q-66 -42 -171 -42q-95 0 -157 42q-77 51 -77 153v51q0 63 14 97
q18 44 64 63q-60 57 -60 151q0 183 216 183q74 0 122 -23q75 -37 75 -123v-61q0 -47 -42.5 -84t-100.5 -46q28 -34 78 -96h10v107z" />
    <glyph glyph-name="quotesingle" unicode="'" horiz-adv-x="222" 
d="M51 441v271h120v-271h-120z" />
    <glyph glyph-name="parenleft" unicode="(" horiz-adv-x="296" 
d="M281 -62h-153q-114 174 -114 390q0 208 112 398h152q-119 -167 -119 -394q0 -103 31 -207q32 -110 91 -187z" />
    <glyph glyph-name="parenright" unicode=")" horiz-adv-x="296" 
d="M168 -62h-153q59 77 91 187q31 104 31 207q0 227 -119 394h152q112 -190 112 -398q0 -216 -114 -390z" />
    <glyph glyph-name="asterisk" unicode="*" 
d="M190 608v104h83v-104l97 38l28 -80l-103 -34l72 -88l-67 -52l-69 93l-65 -93l-69 51l69 88l-101 29l28 82z" />
    <glyph glyph-name="plus" unicode="+" horiz-adv-x="600" 
d="M232 354v186h136v-186h186v-136h-186v-186h-136v186h-186v136h186z" />
    <glyph glyph-name="comma" unicode="," horiz-adv-x="232" 
d="M120 -128h-103l38 296h159z" />
    <glyph glyph-name="hyphen" unicode="-" horiz-adv-x="259" 
d="M18 259v118h222v-118h-222z" />
    <glyph glyph-name="hyphen" unicode="&#x2010;" horiz-adv-x="259" 
d="M18 259v118h222v-118h-222z" />
    <glyph glyph-name="period" unicode="." horiz-adv-x="232" 
d="M193 0h-155v168h155v-168z" />
    <glyph glyph-name="slash" unicode="/" horiz-adv-x="259" 
d="M179 726h78l-177 -740h-78z" />
    <glyph glyph-name="zero" unicode="0" 
d="M276 148v416q0 48 -45 48q-44 0 -44 -48v-416q0 -48 44 -48q45 0 45 48zM442 518v-338q0 -194 -210 -194q-211 0 -211 194v338q0 114 72 167q55 41 141 41q208 0 208 -208z" />
    <glyph glyph-name="one" unicode="1" 
d="M44 528v104q128 0 143 80h140v-712h-166v528h-117z" />
    <glyph glyph-name="two" unicode="2" 
d="M182 104h256v-104h-422v88q0 98 66 193q1 1 124 145q66 78 66 135q0 51 -45 51t-45 -51v-103h-166v78q0 115 73 160q49 30 143 30q86 0 139 -38q67 -48 67 -150q0 -73 -43 -139q-24 -37 -94 -111q-67 -70 -93 -115t-26 -69z" />
    <glyph glyph-name="three" unicode="3" 
d="M23 274h166v-120q0 -54 42 -54q43 0 43 54v90q0 41 -23 55q-15 9 -56 9h-56v114h64q71 0 71 63v83q0 44 -43 44q-28 0 -37 -26q-5 -15 -5 -51v-79h-166v102q0 92 73 135q55 33 133 33q88 0 144 -35q67 -42 67 -124v-45q0 -128 -103 -151q-1 -1 -1 1v-6q52 -7 76 -33
q28 -31 28 -96v-79q0 -87 -62 -132q-56 -40 -149 -40q-206 0 -206 166v122z" />
    <glyph glyph-name="four" unicode="4" 
d="M3 163v114l194 435h201v-435h55v-114h-55v-163h-155v163h-240zM241 564l-128 -287h130v287h-2z" />
    <glyph glyph-name="five" unicode="5" 
d="M20 283h166v-128q0 -55 45 -55q46 0 46 55v177q0 55 -45 55q-16 0 -31 -16.5t-15 -33.5h-166v375h418v-104h-260q-1 -22 -3.5 -67t-3.5 -68h2q57 49 124 49t105 -40q41 -44 41 -128v-166q0 -107 -65 -159q-55 -43 -147 -43q-89 0 -148 42q-63 44 -63 119v136z" />
    <glyph glyph-name="six" unicode="6" 
d="M441 460h-166v89q0 63 -44 63q-43 0 -43 -63v-169q57 47 116 47q60 0 98.5 -36t38.5 -102v-119q0 -94 -65 -143q-55 -41 -134 -41q-220 0 -220 201v367q0 84 68 131q59 41 148 41q203 0 203 -177v-89zM236 297q-48 0 -48 -40v-126q0 -31 45 -31q42 0 42 33v128
q0 36 -39 36z" />
    <glyph glyph-name="seven" unicode="7" 
d="M270 608h-261v104h438v-101l-234 -611h-177z" />
    <glyph glyph-name="eight" unicode="8" 
d="M447 227v-61q0 -90 -65 -137q-59 -43 -155 -43q-98 0 -154 46.5t-56 137.5v77q0 51 32 84t79 40v4q-46 8 -76 39q-35 35 -35 88v54q0 92 76 136q58 34 144 34q91 0 145 -35q65 -43 65 -133v-63q0 -41 -33 -76t-79 -44v-4q55 -12 78 -34q34 -34 34 -110zM183 266v-128
q0 -38 51 -38q47 0 47 38v127q0 48 -50 48q-48 0 -48 -47zM183 565v-106q0 -42 48 -42q50 0 50 46v101q0 48 -49 48t-49 -47z" />
    <glyph glyph-name="nine" unicode="9" 
d="M22 252h166v-89q0 -63 44 -63q43 0 43 63v169q-57 -47 -116 -47q-60 0 -97 35q-40 37 -40 103v119q0 94 65 143q55 41 134 41q220 0 220 -201v-367q0 -84 -68 -131q-59 -41 -148 -41q-203 0 -203 177v89zM227 415q48 0 48 40v126q0 31 -45 31q-42 0 -42 -33v-128
q0 -36 39 -36z" />
    <glyph glyph-name="colon" unicode=":" horiz-adv-x="232" 
d="M193 0h-155v168h155v-168zM193 404h-155v168h155v-168z" />
    <glyph glyph-name="semicolon" unicode=";" horiz-adv-x="232" 
d="M120 -128h-103l38 296h159zM193 404h-155v168h155v-168z" />
    <glyph glyph-name="less" unicode="&#x3c;" horiz-adv-x="600" 
d="M525 156v-102l-450 190v84l450 190v-102l-312 -130z" />
    <glyph glyph-name="equal" unicode="=" horiz-adv-x="600" 
d="M554 338h-508v136h508v-136zM554 98h-508v136h508v-136z" />
    <glyph glyph-name="greater" unicode="&#x3e;" horiz-adv-x="600" 
d="M75 54v102l312 130l-312 130v102l450 -190v-84z" />
    <glyph glyph-name="question" unicode="?" 
d="M308 211h-155v90q0 67 29 106q1 3 52 52q29 27 29 65v56q0 45 -33 45q-32 0 -32 -45v-118h-155v114q0 76 60 116q51 34 133 34q185 0 185 -153v-45q0 -64 -29 -105q-27 -28 -55 -56q-29 -32 -29 -77v-79zM308 0h-155v168h155v-168z" />
    <glyph glyph-name="at" unicode="@" horiz-adv-x="800" 
d="M386 248q44 0 71.5 31t27.5 74q0 36 -21 58t-56 22q-40 0 -67.5 -31t-27.5 -71q0 -36 19.5 -59.5t53.5 -23.5zM513 485l9 48h92l-43 -238q-5 -29 -5 -37q0 -20 12 -20q35 0 60 37q30 42 30 116q0 117 -72 182q-68 61 -183 61q-119 0 -191 -78.5t-72 -203.5
q0 -129 77 -204.5t203 -75.5q106 0 184 60h95q-102 -146 -287 -146q-158 0 -268 103t-110 263q0 159 108.5 266.5t263.5 107.5q135 0 234 -82q106 -87 106 -221q0 -148 -105 -230q-75 -58 -146 -58q-49 0 -53 50q-41 -50 -93 -50q-64 0 -112.5 53.5t-48.5 125.5q0 92 53 158
q57 71 143 71q78 0 119 -58z" />
    <glyph glyph-name="A" unicode="A" 
d="M196 283h60l-29 317h-2zM132 712h228l92 -712h-165l-19 175h-90l-27 -175h-140z" />
    <glyph glyph-name="B" unicode="B" 
d="M188 321v-219q60 -5 77 28q11 20 11 89q0 72 -18 89q-13 13 -70 13zM22 0v712h168q132 0 179 -22q73 -36 73 -151q0 -148 -118 -159v-7q72 0 99 -50q19 -37 19 -120q0 -137 -60 -175q-44 -28 -192 -28h-168zM188 610v-187q23 1 45 3t32 19q11 21 11 71q0 58 -13 75
q-17 23 -75 19z" />
    <glyph glyph-name="C" unicode="C" 
d="M277 277h165v-94q0 -197 -211 -197q-209 0 -209 208v324q0 208 209 208q101 0 151 -37q60 -45 60 -153v-78h-166v98q0 56 -45 56q-43 0 -43 -56v-400q0 -56 43 -56q45 0 45 56z" />
    <glyph glyph-name="D" unicode="D" 
d="M22 0v712h171q147 0 194 -42q55 -48 55 -201v-254q0 -111 -46 -158q-56 -57 -203 -57h-171zM188 610v-508q57 0 74 24q14 19 14 75v293q0 75 -12 94q-16 22 -76 22z" />
    <glyph glyph-name="E" unicode="E" horiz-adv-x="370" 
d="M364 0h-344v712h344v-108h-178v-156h172v-108h-172v-232h178v-108z" />
    <glyph glyph-name="F" unicode="F" horiz-adv-x="370" 
d="M186 0h-166v712h344v-108h-178v-156h172v-108h-172v-340z" />
    <glyph glyph-name="G" unicode="G" 
d="M345 0l-9 36q-45 -50 -144 -50q-87 0 -126 43q-44 48 -44 165v324q0 208 210 208q214 0 211 -194l-1 -75h-166v99q0 56 -44 56t-44 -56v-400q0 -56 44 -56t44 56v95h-63v108h229v-359h-97z" />
    <glyph glyph-name="H" unicode="H" 
d="M188 0h-166v712h166v-264h88v264h166v-712h-166v340h-88v-340z" />
    <glyph glyph-name="I" unicode="I" horiz-adv-x="204" 
d="M185 0h-166v712h166v-712z" />
    <glyph glyph-name="J" unicode="J" 
d="M269 712h166v-531q0 -88 -38 -134q-51 -61 -172 -61q-75 0 -128 30q-80 44 -80 144v115h166v-103q0 -34 5 -48q9 -24 38 -24t38 24q5 14 5 48v540z" />
    <glyph glyph-name="K" unicode="K" 
d="M188 0h-166v712h166v-323h2l105 323h158l-111 -314l112 -398h-164l-100 361h-2v-361z" />
    <glyph glyph-name="L" unicode="L" horiz-adv-x="370" 
d="M366 0h-346v712h166v-604h180v-108z" />
    <glyph glyph-name="M" unicode="M" horiz-adv-x="667" 
d="M154 608v-608h-133v712h244l70 -506h2l70 506h239v-712h-150v608h-2l-96 -608h-146l-96 608h-2z" />
    <glyph glyph-name="N" unicode="N" horiz-adv-x="500" 
d="M16 0v712h230l106 -518h2v518h130v-712h-213l-123 595h-2v-595h-130z" />
    <glyph glyph-name="O" unicode="O" 
d="M188 556v-400q0 -56 44 -56t44 56v400q0 56 -44 56t-44 -56zM442 518v-324q0 -208 -210 -208t-210 208v324q0 208 210 208t210 -208z" />
    <glyph glyph-name="P" unicode="P" 
d="M188 610v-233h26q41 0 53 27q9 20 9 89t-9 90q-12 27 -53 27h-26zM188 0h-166v712h203q108 0 158 -30q59 -36 59 -123v-130q0 -75 -60 -117q-53 -37 -133 -37h-61v-275z" />
    <glyph glyph-name="Q" unicode="Q" 
d="M188 556v-400q0 -56 44 -56t44 56v400q0 56 -44 56t-44 -56zM432 -5v-123q-97 0 -129 19q-40 23 -44 96q-9 -1 -27 -1q-210 0 -210 208v324q0 208 210 208t210 -208v-324q0 -134 -90 -181v-18h80z" />
    <glyph glyph-name="R" unicode="R" 
d="M186 0h-166v712h167q134 0 185 -27q67 -35 67 -139q0 -141 -127 -162v-2q64 -2 94 -29q33 -32 33 -105v-149q0 -63 25 -99h-167q-24 35 -24 99v151q0 35 -18 55t-42 20h-27v-325zM186 610v-183q54 0 72 21q15 18 15 71q0 52 -15 70q-18 21 -72 21z" />
    <glyph glyph-name="S" unicode="S" 
d="M442 457h-166v100q0 55 -44 55t-44 -55q0 -47 66 -102q109 -90 122 -105q66 -74 66 -168q0 -196 -211 -196q-209 0 -209 159v132h166v-123q0 -54 44 -54t44 54q0 65 -66 123l-122 102q-66 71 -66 169q0 178 213 178q207 0 207 -157v-112z" />
    <glyph glyph-name="T" unicode="T" horiz-adv-x="426" 
d="M130 604h-116v108h398v-108h-116v-604h-166v604z" />
    <glyph glyph-name="U" unicode="U" 
d="M442 712v-509q0 -115 -48 -166t-163 -51q-134 0 -181 83q-28 49 -28 150v493h166v-513q0 -53 5 -71q9 -28 38 -28q30 0 39 28q6 18 6 71v513h166z" />
    <glyph glyph-name="V" unicode="V" 
d="M118 0l-110 712h178l40 -549h2l72 549h155l-119 -712h-218z" />
    <glyph glyph-name="W" unicode="W" horiz-adv-x="704" 
d="M97 0l-94 712h170l35 -507h2l64 507h180l45 -507h2l52 507h147l-93 -712h-194l-64 549h-2l-59 -549h-191z" />
    <glyph glyph-name="X" unicode="X" 
d="M221 285l-62 -285h-151l100 382l-99 330h181l57 -283h2l56 283h151l-99 -353l99 -359h-176l-57 285h-2z" />
    <glyph glyph-name="Y" unicode="Y" 
d="M149 0v262l-141 450h162l61 -283h2l61 283h162l-141 -450v-262h-166z" />
    <glyph glyph-name="Z" unicode="Z" horiz-adv-x="370" 
d="M365 0h-360v122l186 482h-186v108h360v-105l-194 -499h194v-108z" />
    <glyph glyph-name="bracketleft" unicode="[" horiz-adv-x="296" 
d="M268 -62h-240v788h239v-112h-101v-564h102v-112z" />
    <glyph glyph-name="backslash" unicode="\" horiz-adv-x="278" 
d="M-48 726h78l296 -740h-78z" />
    <glyph glyph-name="bracketright" unicode="]" horiz-adv-x="296" 
d="M268 -62h-240v112h102v564h-101v112h239v-788z" />
    <glyph glyph-name="asciicircum" unicode="^" horiz-adv-x="600" 
d="M189 347h-116l174 365h106l174 -365h-117l-110 248z" />
    <glyph glyph-name="underscore" unicode="_" horiz-adv-x="500" 
d="M500 -98h-500v68h500v-68z" />
    <glyph glyph-name="grave" unicode="`" horiz-adv-x="204" 
d="M174 639h-67l-146 141h115z" />
    <glyph glyph-name="a" unicode="a" horiz-adv-x="426" 
d="M180 209v-62q0 -30 29 -30q23 0 30 16t7 57v99q-22 -16 -45 -31q-21 -20 -21 -49zM246 0v67h-2q-34 -74 -111 -74q-52 0 -81.5 30.5t-29.5 86.5v85q0 64 58 105l108 58q58 32 58 75q0 42 -33 42t-33 -42v-63h-158v53q0 80 60 121q51 35 131 35t131 -35q60 -41 60 -121
v-423h-158z" />
    <glyph glyph-name="b" unicode="b" horiz-adv-x="426" 
d="M180 410v-248q0 -39 33 -39t33 39v248q0 39 -33 39t-33 -39zM22 0v712h158v-218h2q23 85 112 85q110 0 110 -127v-316q0 -60 -24 -97q-29 -46 -89 -46q-98 0 -109 79h-2v-72h-158z" />
    <glyph glyph-name="c" unicode="c" horiz-adv-x="426" 
d="M246 370v65q0 40 -33 40t-33 -40v-298q0 -40 33 -40t33 40v89h158v-84q0 -149 -192 -149q-190 0 -190 159v267q0 72 50.5 116t139.5 44q192 0 192 -161v-48h-158z" />
    <glyph glyph-name="d" unicode="d" horiz-adv-x="426" 
d="M180 410v-248q0 -39 33 -39t33 39v248q0 39 -33 39t-33 -39zM246 0v72h-2q-11 -79 -109 -79q-60 0 -89 46q-24 37 -24 97v316q0 127 110 127q89 0 112 -85h2v218h158v-712h-158z" />
    <glyph glyph-name="e" unicode="e" horiz-adv-x="426" 
d="M404 268h-224v-116q0 -55 33 -55t33 55v74h158v-84q0 -149 -191 -149q-82 0 -133 36q-58 41 -58 116v273q0 77 49.5 119t141.5 42q191 0 191 -161v-150zM180 363h66v78q0 34 -33 34t-33 -34v-78z" />
    <glyph glyph-name="f" unicode="f" horiz-adv-x="259" 
d="M42 468h-35v104h35v37q0 39 24 68q28 35 78 35h101v-104q-45 0 -45 -36h45v-104h-45v-468h-158v468z" />
    <glyph glyph-name="g" unicode="g" horiz-adv-x="426" 
d="M180 406v-164q0 -43 33 -43t33 43v164q0 43 -33 43t-33 -43zM404 572v-517q0 -105 -71 -151q-50 -32 -124 -32q-86 0 -139 38q-48 34 -48 83v56h158v-38q0 -35 33 -35t33 35v142h-3q-4 -37 -31 -60.5t-65 -23.5q-125 0 -125 144v234q0 65 31 100q28 32 72 32
q84 0 118 -81h2v74h159z" />
    <glyph glyph-name="h" unicode="h" horiz-adv-x="426" 
d="M180 0h-158v712h158v-211h2q25 78 112 78q110 0 110 -136v-443h-158v387q0 62 -33 62t-33 -62v-387z" />
    <glyph glyph-name="i" unicode="i" horiz-adv-x="204" 
d="M181 0h-158v572h158v-572zM181 611h-158v101h158v-101z" />
    <glyph glyph-name="j" unicode="j" horiz-adv-x="204" 
d="M181 572v-585q0 -64 -27.5 -89.5t-91.5 -25.5h-110v104h21q32 0 42 15q8 12 8 49v532h158zM23 712h158v-101h-158v101z" />
    <glyph glyph-name="k" unicode="k" horiz-adv-x="426" 
d="M180 0h-158v712h158v-401h2l81 261h153l-91 -256l99 -316h-161l-81 299h-2v-299z" />
    <glyph glyph-name="l" unicode="l" horiz-adv-x="204" 
d="M181 0h-158v712h158v-712z" />
    <glyph glyph-name="m" unicode="m" horiz-adv-x="630" 
d="M176 572v-76h2q25 83 110 83q86 0 103 -83h2q7 38 37 60.5t72 22.5q104 0 104 -121v-458h-152v397q0 52 -32 52q-31 0 -31 -52v-397h-152v397q0 52 -32 52q-31 0 -31 -52v-397h-152v572h152z" />
    <glyph glyph-name="n" unicode="n" horiz-adv-x="426" 
d="M180 572v-71h2q23 78 115 78q107 0 107 -131v-448h-158v397q0 52 -32 52q-34 0 -34 -52v-397h-158v572h158z" />
    <glyph glyph-name="o" unicode="o" horiz-adv-x="426" 
d="M180 435v-298q0 -40 33 -40t33 40v298q0 40 -33 40t-33 -40zM404 418v-273q0 -75 -58 -116q-51 -36 -133 -36t-133 36q-58 41 -58 116v273q0 77 49.5 119t141.5 42t141.5 -42t49.5 -119z" />
    <glyph glyph-name="p" unicode="p" horiz-adv-x="426" 
d="M180 410v-248q0 -39 33 -39t33 39v248q0 39 -33 39t-33 -39zM180 572v-75h2q11 82 109 82q113 0 113 -146v-316q0 -124 -110 -124q-90 0 -112 82h-2v-203h-158v700h158z" />
    <glyph glyph-name="q" unicode="q" horiz-adv-x="426" 
d="M180 410v-248q0 -39 33 -39t33 39v248q0 39 -33 39t-33 -39zM404 572v-700h-158v203h-2q-22 -82 -112 -82q-110 0 -110 124v316q0 146 113 146q98 0 109 -82h2v75h158z" />
    <glyph glyph-name="r" unicode="r" horiz-adv-x="426" 
d="M180 572v-75h3q34 82 114 82q107 0 107 -112v-204h-158v139q0 47 -33 47t-33 -47v-402h-158v572h158z" />
    <glyph glyph-name="s" unicode="s" horiz-adv-x="426" 
d="M404 370h-158v62q0 43 -33 43t-33 -43q0 -38 57 -71q93 -53 107 -65q57 -50 57 -130q0 -173 -200 -173q-179 0 -179 142v91h158v-86q0 -43 33 -43t33 43q0 55 -58 92q-54 31 -108 63q-58 46 -58 125q0 81 54 122q47 37 131 37q92 0 144 -35q53 -38 53 -108v-66z" />
    <glyph glyph-name="t" unicode="t" horiz-adv-x="296" 
d="M61 468h-53v104h53v103h158v-103h69v-104h-69v-312q0 -30 5 -39q8 -13 33 -13h31v-104h-129q-56 0 -79 31q-19 27 -19 88v349z" />
    <glyph glyph-name="u" unicode="u" horiz-adv-x="426" 
d="M246 0v71h-2q-23 -78 -115 -78q-107 0 -107 131v448h158v-397q0 -52 32 -52q34 0 34 52v397h158v-572h-158z" />
    <glyph glyph-name="v" unicode="v" horiz-adv-x="426" 
d="M120 0l-109 572h160l53 -444h2l53 444h136l-103 -572h-192z" />
    <glyph glyph-name="w" unicode="w" horiz-adv-x="667" 
d="M93 0l-88 572h158l42 -442h2l50 442h175l53 -442h2l35 442h139l-82 -572h-193l-52 456h-2l-52 -456h-187z" />
    <glyph glyph-name="x" unicode="x" horiz-adv-x="426" 
d="M199 243l-55 -243h-140l96 298l-90 274h163l49 -221h2l49 221h141l-93 -274l101 -298h-166l-55 243h-2z" />
    <glyph glyph-name="y" unicode="y" horiz-adv-x="426" 
d="M12 572h160l53 -395h2l53 395h133l-128 -603q-21 -97 -128 -97h-127v104h82q28 0 28 16q0 7 -4 25z" />
    <glyph glyph-name="z" unicode="z" horiz-adv-x="333" 
d="M330 0h-327v104l147 364h-147v104h322v-88l-153 -380h158v-104z" />
    <glyph glyph-name="braceleft" unicode="{" horiz-adv-x="333" 
d="M28 294v83q34 2 48 10q22 14 22 49v174q0 54 51 88q41 28 82 28h74v-76h-11q-58 0 -58 -55v-177q0 -40 -45 -62q-34 -16 -81 -19v-2q126 -11 126 -89v-178q0 -54 58 -54h11v-76h-74q-41 0 -82 28q-51 34 -51 88v181q0 35 -22 49q-14 8 -48 10z" />
    <glyph glyph-name="bar" unicode="|" horiz-adv-x="222" 
d="M43 0v712h136v-712h-136z" />
    <glyph glyph-name="braceright" unicode="}" horiz-adv-x="333" 
d="M305 377v-83q-34 -2 -48 -10q-22 -14 -22 -49v-181q0 -54 -51 -88q-41 -28 -82 -28h-74v76h11q58 0 58 54v178q0 78 126 89v2q-47 3 -81 19q-45 22 -45 62v177q0 55 -58 55h-11v76h74q41 0 82 -28q51 -34 51 -88v-174q0 -35 22 -49q14 -8 48 -10z" />
    <glyph glyph-name="asciitilde" unicode="~" horiz-adv-x="600" 
d="M495 346v0l36 -96q-30 -42 -50 -59q-34 -27 -75 -27q-42 0 -102 33q-63 35 -115 35q-51 0 -84 -72l-36 96q45 86 125 86q38 0 111 -32q82 -36 102 -36q41 0 88 72z" />
    <glyph glyph-name="euro" horiz-adv-x="498" 
d="M522 633l-23 -156l-48 6q0 157 -94 157q-103 0 -161 -211h172l-21 -48h-164q-6 -24 -16 -73h147l-21 -47h-134q-6 -41 -6 -74q0 -56 21 -91q26 -43 78 -43q58 0 101 68q24 38 51 119l55 -10l-54 -188q-77 -53 -159 -53q-111 0 -166 84q-47 71 -47 188h-74l21 47h56
q3 25 12 73h-66l21 48h59q41 112 108 183q83 88 187 88q94 0 165 -67z" />
    <glyph glyph-name="exclamdown" unicode="&#xa1;" horiz-adv-x="259" 
d="M52 389h155v-503h-155v503zM52 598h155v-168h-155v168z" />
    <glyph glyph-name="cent" unicode="&#xa2;" 
d="M423 226v-84q0 -149 -192 -149h-7l-27 -121h-94l32 136q-94 34 -94 144v267q0 72 50.5 116t139.5 44q11 0 15 -1l23 96h92l-26 -114q88 -34 88 -142v-48h-158v65q0 40 -33 40t-33 -40v-298q0 -40 33 -40t33 40v89h158z" />
    <glyph glyph-name="sterling" unicode="&#xa3;" 
d="M31 -13l-12 102q66 41 66 148q0 35 -10 77h-66v78h44q-23 87 -23 125q0 112 48.5 160.5t160.5 48.5q116 0 160 -56q38 -49 38 -171h-156v28q0 43 -7 61q-10 24 -36 24q-31 0 -40 -29q-5 -15 -5 -54q0 -28 8 -69l14 -68h108v-78h-98q0 -138 -60 -194v-2q43 9 62 9
q24 0 68 -9.5t62 -9.5q45 0 86 19l12 -116q-15 -10 -46 -17.5t-50 -7.5q-42 0 -108 16.5t-103 16.5q-56 0 -117 -32z" />
    <glyph glyph-name="currency" unicode="&#xa4;" 
d="M13 224l49 48q-39 46 -39 117q0 81 39 118l-49 49l53 53l48 -48q42 37 120 37q74 0 112 -35l48 48l57 -57l-47 -47q36 -38 36 -116q0 -75 -37 -120l47 -47l-51 -51l-48 49q-42 -40 -118 -40q-78 0 -121 38l-47 -47zM233 274q46 0 75.5 34t29.5 83q0 47 -29.5 81t-74.5 34
q-48 0 -78.5 -33.5t-30.5 -83.5q0 -49 30.5 -82t77.5 -33z" />
    <glyph glyph-name="yen" unicode="&#xa5;" 
d="M315 0h-166v181h-80v78h80l-23 79h-87v78h58l-89 296h162l61 -283h2l61 283h162l-89 -296h58v-78h-87l-23 -79h80v-78h-80v-181z" />
    <glyph glyph-name="brokenbar" unicode="&#xa6;" horiz-adv-x="222" 
d="M43 0v266h136v-266h-136zM43 446v266h136v-266h-136z" />
    <glyph glyph-name="section" unicode="&#xa7;" horiz-adv-x="426" 
d="M163 420q-25 -17 -25 -43q0 -24 51 -65q35 -29 71 -57q25 17 25 42q0 27 -50 66zM378 581h-118q0 51 -40 51q-44 0 -44 -39q0 -32 58 -75q93 -70 106 -83q58 -57 58 -123q0 -76 -66 -122q0 1 12 -11t19 -30q11 -27 11 -63q0 -71 -46.5 -110.5t-119.5 -39.5q-80 0 -125 40
q-49 43 -42 121h115q2 -66 54 -66q18 0 30 12.5t12 30.5q0 36 -58 79q-105 78 -108 81q-58 55 -58 118q0 48 14.5 78.5t50.5 60.5q-35 23 -35 88q0 69 49 109q45 37 116 38q66 1 112 -38q50 -42 43 -107z" />
    <glyph glyph-name="dieresis" unicode="&#xa8;" horiz-adv-x="204" 
d="M241 650h-112v123h112v-123zM75 650h-112v123h112v-123z" />
    <glyph glyph-name="copyright" unicode="&#xa9;" horiz-adv-x="800" 
d="M400 -14q-159 0 -269 97q-118 104 -118 273t118 273q110 97 269 97q158 0 269 -97q118 -104 118 -273t-118 -273q-111 -97 -269 -97zM664 356q0 122 -77 200t-187 78q-112 0 -188 -78t-76 -200t76.5 -200t187.5 -78q110 0 187 78.5t77 199.5zM499 302h95
q-11 -74 -61 -114.5t-118 -40.5q-92 0 -149 60.5t-57 151.5q0 94 55.5 154t148.5 60q70 0 117.5 -39.5t59.5 -113.5h-91q-4 65 -84 63q-42 -1 -68 -34t-26 -88q0 -52 26 -87t68 -35q80 0 84 63z" />
    <glyph glyph-name="ordfeminine" unicode="&#xaa;" horiz-adv-x="256" 
d="M106 506v-44q0 -13 19 -13q25 0 25 53v50q-23 -14 -28 -18q-13 -12 -16 -28zM150 379v40h-2q-24 -45 -72 -45q-73 0 -73 71v51q0 38 38 63q35 17 72 35.5t37 42.5q0 26 -23 26q-21 0 -21 -26v-36h-103v32q0 48 40 72q33 21 87 21q49 0 82 -21q41 -26 41 -75v-251h-103z
" />
    <glyph glyph-name="guillemotleft" unicode="&#xab;" horiz-adv-x="370" 
d="M355 99l-151 152v134l151 152v-144l-75 -75l75 -75v-144zM166 99l-151 152v134l151 152v-144l-75 -75l75 -75v-144z" />
    <glyph glyph-name="logicalnot" unicode="&#xac;" horiz-adv-x="600" 
d="M433 162v176h-387v121h508v-297h-121z" />
    <glyph glyph-name="sfthyphen" unicode="&#xad;" horiz-adv-x="338" 
d="M8 174l33 122h246l-33 -122h-246z" />
    <glyph glyph-name="registered" unicode="&#xae;" horiz-adv-x="800" 
d="M400 -14q-159 0 -269 97q-118 104 -118 272q0 169 118 274q110 97 269 97q158 0 269 -97q118 -105 118 -274q0 -168 -118 -272q-111 -97 -269 -97zM664 355q0 122 -78 202q-76 77 -186 77q-111 0 -187 -77q-77 -80 -77 -202t76 -199.5t188 -77.5q110 0 187 78t77 199z
M340 323v-167h-93v400h152q85 0 125 -25q45 -29 45 -97q0 -99 -113 -105l103 -173h-93l-92 167h-34zM340 395h78q54 0 54 44q0 43 -54 44l-78 1v-89z" />
    <glyph glyph-name="macron" unicode="&#xaf;" horiz-adv-x="204" 
d="M243 676h-281v74h281v-74z" />
    <glyph glyph-name="macron" unicode="&#x2c9;" horiz-adv-x="204" 
d="M243 676h-281v74h281v-74z" />
    <glyph glyph-name="degree" unicode="&#xb0;" horiz-adv-x="400" 
d="M200 490q75 0 75 79t-75 79t-75 -79t75 -79zM200 426q-60 0 -101.5 41.5t-41.5 101.5t41.5 101.5t101.5 41.5t101.5 -41.5t41.5 -101.5t-41.5 -101.5t-101.5 -41.5z" />
    <glyph glyph-name="plusminus" unicode="&#xb1;" horiz-adv-x="600" 
d="M232 422v118h136v-118h186v-136h-186v-103h-136v103h-186v136h186zM46 32v136h508v-136h-508z" />
    <glyph glyph-name="twosuperior" unicode="&#xb2;" horiz-adv-x="277" 
d="M109 352h167v-62h-275v53q0 58 43 115q40 44 82 89.5t42 79.5q0 30 -29 30q-30 0 -30 -30v-62h-108v47q0 114 141 114q134 0 134 -113q0 -44 -28 -84q-16 -21 -60.5 -64.5t-61.5 -70.5t-17 -42z" />
    <glyph glyph-name="threesuperior" unicode="&#xb3;" horiz-adv-x="277" 
d="M3 454h108v-72q0 -32 27 -32q28 0 28 32v54q0 24 -15 33q-10 5 -36 5h-36v69h41q46 0 46 38v50q0 26 -28 26q-27 0 -27 -46v-47h-108v61q0 55 48 81q36 20 86 20q57 0 94 -21q43 -25 43 -75v-27q0 -77 -67 -90q-1 -1 -1 0v-3q68 -10 68 -78v-47q0 -53 -40 -80
q-36 -24 -97 -24q-134 0 -134 100v73z" />
    <glyph glyph-name="acute" unicode="&#xb4;" horiz-adv-x="204" 
d="M97 639h-67l98 141h115z" />
    <glyph glyph-name="mu" unicode="&#xb5;" horiz-adv-x="426" 
d="M180 -7v-121h-158v700h158v-397q0 -52 32 -52q34 0 34 52v397h158v-572h-158v71h-2q-15 -54 -64 -78z" />
    <glyph glyph-name="mu" unicode="&#x3bc;" horiz-adv-x="426" 
d="M180 -7v-121h-158v700h158v-397q0 -52 32 -52q34 0 34 52v397h158v-572h-158v71h-2q-15 -54 -64 -78z" />
    <glyph glyph-name="paragraph" unicode="&#xb6;" horiz-adv-x="620" 
d="M558 622v-801h-126v801h-85v-801h-126v542q-106 0 -163 45t-57 126q0 100 71 143q58 35 175 35h372v-90h-61z" />
    <glyph glyph-name="ch270" unicode="&#xb7;" horiz-adv-x="249" 
d="M38 348q0 34 23 57t57 23t57.5 -23t23.5 -57t-23.5 -57.5t-57.5 -23.5t-57 23.5t-23 57.5z" />
    <glyph glyph-name="ch270" unicode="&#x2219;" horiz-adv-x="249" 
d="M38 348q0 34 23 57t57 23t57.5 -23t23.5 -57t-23.5 -57.5t-57.5 -23.5t-57 23.5t-23 57.5z" />
    <glyph glyph-name="cedilla" unicode="&#xb8;" horiz-adv-x="204" 
d="M63 -4h60l-14 -53q58 0 86 -12q42 -18 42 -67q0 -108 -168 -108q-39 0 -87 10v71q42 -13 89 -13q70 0 70 31q0 29 -57 29q-26 0 -52 -3z" />
    <glyph glyph-name="onesuperior" unicode="&#xb9;" horiz-adv-x="277" 
d="M5 606v63q32 -2 57 9q31 13 36 39h91v-427h-108v316h-76z" />
    <glyph glyph-name="ordmasculine" unicode="&#xba;" horiz-adv-x="256" 
d="M106 638v-177q0 -24 21 -24q22 0 22 24v177q0 24 -22 24q-21 0 -21 -24zM252 629v-164q0 -45 -38 -69q-33 -22 -87 -22q-53 0 -86 22q-38 24 -38 69v164q0 96 124 96q125 0 125 -96z" />
    <glyph glyph-name="guillemotright" unicode="&#xbb;" horiz-adv-x="370" 
d="M204 99v144l75 75l-75 75v144l151 -152v-134zM15 99v144l75 75l-75 75v144l151 -152v-134z" />
    <glyph glyph-name="onequarter" unicode="&#xbc;" horiz-adv-x="694" 
d="M379 97v69l126 261h131v-261h36v-69h-36v-97h-101v97h-156zM533 338l-82 -172h84v172h-2zM161 -14l297 740h73l-297 -740h-73zM22 606v63q32 -2 57 9q31 13 36 39h91v-427h-108v316h-76z" />
    <glyph glyph-name="onehalf" unicode="&#xbd;" horiz-adv-x="694" 
d="M506 62h167v-62h-275v53q0 58 43 115q40 44 82 89.5t42 79.5q0 30 -29 30q-30 0 -30 -30v-62h-108v47q0 114 141 114q134 0 134 -113q0 -44 -28 -84q-16 -21 -60.5 -64.5t-61.5 -70.5t-17 -42zM131 -14l297 740h73l-297 -740h-73zM22 606v63q32 -2 57 9q31 13 36 39h91
v-427h-108v316h-76z" />
    <glyph glyph-name="threequarters" unicode="&#xbe;" horiz-adv-x="694" 
d="M379 97v69l126 261h131v-261h36v-69h-36v-97h-101v97h-156zM533 338l-82 -172h84v172h-2zM22 454h108v-72q0 -32 27 -32q28 0 28 32v54q0 24 -15 33q-10 5 -36 5h-36v69h41q46 0 46 38v50q0 26 -28 26q-27 0 -27 -46v-47h-108v61q0 55 48 81q36 20 86 20q57 0 94 -21
q43 -25 43 -75v-27q0 -77 -67 -90q-1 -1 -1 0v-3q68 -10 68 -78v-47q0 -53 -40 -80q-36 -24 -97 -24q-134 0 -134 100v73zM186 -14l297 740h73l-297 -740h-73z" />
    <glyph glyph-name="questiondown" unicode="&#xbf;" 
d="M156 387h155v-90q0 -67 -29 -106q-1 -3 -52 -52q-29 -27 -29 -65v-56q0 -45 33 -45q32 0 32 45v118h155v-114q0 -76 -60 -116q-51 -34 -133 -34q-185 0 -185 153v45q0 64 29 105q27 28 55 56q29 32 29 77v79zM156 598h155v-168h-155v168z" />
    <glyph glyph-name="Agrave" unicode="&#xc0;" 
d="M196 283h60l-29 317zM132 712h228l92 -712h-165l-19 175h-90l-27 -175h-140zM248 760h-46l-103 99h81z" />
    <glyph glyph-name="Aacute" unicode="&#xc1;" 
d="M196 283h60l-29 317zM132 712h228l92 -712h-165l-19 175h-90l-27 -175h-140zM250 760h-47l69 99h80z" />
    <glyph glyph-name="Acircumflex" unicode="&#xc2;" 
d="M196 283h60l-29 317zM132 712h228l92 -712h-165l-19 175h-90l-27 -175h-140zM207 850h74l69 -99h-41l-65 51l-58 -51h-45z" />
    <glyph glyph-name="Atilde" unicode="&#xc3;" 
d="M196 283h60l-29 317zM132 712h228l92 -712h-165l-19 175h-90l-27 -175h-140zM176 766h-32q-3 30 14 50.5t47 21.5q12 0 40 -9l3 -1q24 -8 30 -8q26 0 34 25h36q0 -30 -20 -52t-50 -23q-12 0 -38 8q-32 10 -36 10q-19 0 -28 -22z" />
    <glyph glyph-name="Adieresis" unicode="&#xc4;" 
d="M196 283h60l-29 317h-2zM132 712h228l92 -712h-165l-19 175h-90l-27 -175h-140zM371 765h-112v123h112v-123zM205 765h-112v123h112v-123z" />
    <glyph glyph-name="Aring" unicode="&#xc5;" 
d="M196 283h60l-29 317h-2zM132 712h228l92 -712h-165l-19 175h-90l-27 -175h-140zM247 827q54 0 54 51t-55 51q-54 0 -54 -51t55 -51zM246 990q58 0 89 -31t31 -81t-30 -80q-32 -33 -90 -33t-90 33q-30 30 -30 80t31 81t89 31z" />
    <glyph glyph-name="AE" unicode="&#xc6;" horiz-adv-x="667" 
d="M220 283h86v321h-16zM185 712h468v-108h-181v-156h176v-108h-176v-232h181v-108h-347v175h-111l-39 -175h-149z" />
    <glyph glyph-name="Ccedilla" unicode="&#xc7;" 
d="M277 277h165v-94q0 -197 -211 -197q-209 0 -209 208v324q0 208 209 208q101 0 151 -37q60 -45 60 -153v-78h-166v98q0 56 -45 56q-43 0 -43 -56v-400q0 -56 43 -56q45 0 45 56zM193 -4h60l-14 -53q58 0 86 -12q42 -18 42 -67q0 -108 -168 -108q-39 0 -87 10v71
q42 -13 89 -13q70 0 70 31q0 29 -57 29q-26 0 -52 -3z" />
    <glyph glyph-name="Egrave" unicode="&#xc8;" horiz-adv-x="370" 
d="M364 0h-344v712h344v-108h-178v-156h172v-108h-172v-232h178v-108zM218 766h-46l-103 99h81z" />
    <glyph glyph-name="Eacute" unicode="&#xc9;" horiz-adv-x="370" 
d="M364 0h-344v712h344v-108h-178v-156h172v-108h-172v-232h178v-108zM214 766h-47l69 99h80z" />
    <glyph glyph-name="Ecircumflex" unicode="&#xca;" horiz-adv-x="370" 
d="M364 0h-344v712h344v-108h-178v-156h172v-108h-172v-232h178v-108zM156 859h74l69 -99h-41l-65 51l-58 -51h-45z" />
    <glyph glyph-name="Edieresis" unicode="&#xcb;" horiz-adv-x="370" 
d="M364 0h-344v712h344v-108h-178v-156h172v-108h-172v-232h178v-108zM324 765h-112v123h112v-123zM158 765h-112v123h112v-123z" />
    <glyph glyph-name="Igrave" unicode="&#xcc;" horiz-adv-x="204" 
d="M185 0h-166v712h166v-712zM127 769h-46l-103 99h81z" />
    <glyph glyph-name="Iacute" unicode="&#xcd;" horiz-adv-x="204" 
d="M185 0h-166v712h166v-712zM125 769h-47l69 99h80z" />
    <glyph glyph-name="Icircumflex" unicode="&#xce;" horiz-adv-x="204" 
d="M185 0h-166v712h166v-712zM46 895h106l99 -141h-59l-93 73l-82 -73h-65z" />
    <glyph glyph-name="Idieresis" unicode="&#xcf;" horiz-adv-x="204" 
d="M185 0h-166v712h166v-712zM241 765h-112v123h112v-123zM75 765h-112v123h112v-123z" />
    <glyph glyph-name="Eth" unicode="&#xd0;" 
d="M-14 407h36v305h171q147 0 194 -42q55 -48 55 -201v-254q0 -111 -46 -158q-56 -57 -203 -57h-171v305h-36v102zM188 407h54v-102h-54v-203q57 0 74 24q14 19 14 75v293q0 75 -12 94q-16 22 -76 22v-203z" />
    <glyph glyph-name="Ntilde" unicode="&#xd1;" horiz-adv-x="500" 
d="M16 0v712h230l106 -518h2v518h130v-712h-213l-123 595h-2v-595h-130zM150 768v0h-46q-5 40 21 71t66 31q21 0 56 -12.5t49 -12.5q22 0 31 7.5t17 28.5h51q2 -43 -27.5 -75.5t-72.5 -32.5q-22 0 -58 13t-47 13q-29 0 -40 -31z" />
    <glyph glyph-name="Ograve" unicode="&#xd2;" 
d="M188 556v-400q0 -56 44 -56t44 56v400q0 55 -44 56t-44 -56zM442 518v-324q0 -206 -210 -208t-210 208v324q0 206 210 208t210 -208zM257 769h-46l-103 99h81z" />
    <glyph glyph-name="Oacute" unicode="&#xd3;" 
d="M188 556v-400q0 -56 44 -56t44 56v400q0 55 -44 56t-44 -56zM442 518v-324q0 -206 -210 -208t-210 208v324q0 206 210 208t210 -208zM255 769h-47l69 99h80z" />
    <glyph glyph-name="Ocircumflex" unicode="&#xd4;" 
d="M188 556v-400q0 -56 44 -56t44 56v400q0 55 -44 56t-44 -56zM442 518v-324q0 -206 -210 -208t-210 208v324q0 206 210 208t210 -208zM193 859h74l69 -99h-41l-65 51l-58 -51h-45z" />
    <glyph glyph-name="Otilde" unicode="&#xd5;" 
d="M188 556v-400q0 -56 44 -56t44 56v400q0 55 -44 56t-44 -56zM442 518v-324q0 -206 -210 -208t-210 208v324q0 206 210 208t210 -208zM161 774h-32q-3 30 14 50.5t47 21.5q12 0 40 -9l3 -1q24 -8 30 -8q26 0 34 25h36q0 -30 -20 -52t-50 -23q-12 0 -38 8q-32 10 -36 10
q-19 0 -28 -22z" />
    <glyph glyph-name="Odieresis" unicode="&#xd6;" 
d="M188 556v-400q0 -56 44 -56t44 56v400q0 56 -44 56t-44 -56zM442 518v-324q0 -208 -210 -208t-210 208v324q0 208 210 208t210 -208zM371 765h-112v123h112v-123zM205 765h-112v123h112v-123z" />
    <glyph glyph-name="multiply" unicode="&#xd7;" horiz-adv-x="600" 
d="M300 354l157 157l97 -97l-158 -156l158 -156l-97 -97l-157 157l-157 -157l-97 97l158 156l-158 156l97 97z" />
    <glyph glyph-name="Oslash" unicode="&#xd8;" 
d="M190 347l85 217q-2 48 -43 48q-44 0 -44 -56v-209h2zM106 -41h-74l35 88q-45 51 -45 147v324q0 208 210 208q59 0 101 -18l21 51h76l-37 -90q49 -51 49 -151v-324q0 -208 -210 -208q-66 0 -107 20zM276 156v223h-2l-86 -223q0 -56 44 -56t44 56z" />
    <glyph glyph-name="Ugrave" unicode="&#xd9;" 
d="M442 712v-509q0 -115 -48.5 -166t-162.5 -51q-134 0 -181 82q-28 49 -28 151v493h166v-513q0 -53 2 -63q7 -35 41 -36q30 -1 39 28q6 19 6 71v513h166zM255 760h-46l-103 99h81z" />
    <glyph glyph-name="Uacute" unicode="&#xda;" 
d="M442 712v-509q0 -115 -48.5 -166t-162.5 -51q-134 0 -181 82q-28 49 -28 151v493h166v-513q0 -53 2 -63q7 -35 41 -36q30 -1 39 28q6 19 6 71v513h166zM257 758h-47l69 99h80z" />
    <glyph glyph-name="Ucircumflex" unicode="&#xdb;" 
d="M442 712v-509q0 -115 -48 -166t-163 -51q-134 0 -181 83q-28 49 -28 150v493h166v-513q0 -53 5 -71q9 -28 38 -28q30 0 39 28q6 18 6 71v513h166zM176 895h106l99 -141h-59l-93 73l-82 -73h-65z" />
    <glyph glyph-name="Udieresis" unicode="&#xdc;" 
d="M442 712v-509q0 -115 -48 -166t-163 -51q-134 0 -181 83q-28 49 -28 150v493h166v-513q0 -53 5 -71q9 -28 38 -28q30 0 39 28q6 18 6 71v513h166zM371 765h-112v123h112v-123zM205 765h-112v123h112v-123z" />
    <glyph glyph-name="Yacute" unicode="&#xdd;" 
d="M149 0v262l-141 450h162l61 -283l63 283h162l-141 -450v-262h-166zM259 758h-47l69 99h80z" />
    <glyph glyph-name="Thorn" unicode="&#xde;" 
d="M188 0h-166v712h166v-115h37q108 0 158 -30q59 -36 59 -123v-130q0 -75 -60 -117q-53 -37 -133 -37h-61v-160zM188 495v-233h26q41 0 53 27q9 21 9 90t-9 90q-12 26 -53 26h-26z" />
    <glyph glyph-name="germandbls" unicode="&#xdf;" horiz-adv-x="426" 
d="M22 0v531q0 195 189 195q182 0 182 -182q0 -107 -68 -131v-2q37 -13 58 -52t21 -89v-100q0 -73 -30 -121q-36 -56 -105 -56q-36 0 -61 8v104q6 -4 14 -4q24 0 24 61v150q0 21 -12 32.5t-27 11.5v100q28 -1 28 32v103q0 31 -27 31q-28 0 -28 -31v-591h-158z" />
    <glyph glyph-name="agrave" unicode="&#xe0;" horiz-adv-x="426" 
d="M180 209v-62q0 -25 29 -30q27 0 34 25q3 11 3 48v99q-42 -28 -45 -31q-21 -19 -21 -49zM246 0v67q-38 -73 -113 -74q-111 -2 -111 117v85q0 58 58 101q54 32 107 64q58 36 59 73q1 40 -33 42q-33 2 -33 -42v-63h-158v53q0 80 58 120q50 35 133 36t133 -35q58 -41 58 -121
v-423h-158zM236 640h-41l-93 89h73z" />
    <glyph glyph-name="aacute" unicode="&#xe1;" horiz-adv-x="426" 
d="M180 209v-62q0 -25 29 -30q27 0 34 25q3 11 3 48v99q-42 -28 -45 -31q-21 -19 -21 -49zM246 0v67q-38 -73 -113 -74q-111 -2 -111 117v85q0 58 58 101q54 32 107 64q58 36 59 73q1 40 -33 42q-33 2 -33 -42v-63h-158v53q0 80 58 120q50 35 133 36t133 -35q58 -41 58 -121
v-423h-158zM238 640h-42l62 89h72z" />
    <glyph glyph-name="acircumflex" unicode="&#xe2;" horiz-adv-x="426" 
d="M180 209v-62q0 -25 29 -30q27 0 34 25q3 11 3 48v99q-42 -28 -45 -31q-21 -19 -21 -49zM246 0v67q-38 -73 -113 -74q-111 -2 -111 117v85q0 58 58 101q54 32 107 64q58 36 59 73q1 40 -33 42q-33 2 -33 -42v-63h-158v53q0 80 58 120q50 35 133 36t133 -35q58 -41 58 -121
v-423h-158zM180 708h67l62 -89h-37l-59 46l-52 -46h-40z" />
    <glyph glyph-name="atilde" unicode="&#xe3;" horiz-adv-x="426" 
d="M180 209v-62q0 -25 29 -30q27 0 34 25q3 11 3 48v99q-42 -28 -45 -31q-21 -19 -21 -49zM246 0v67q-38 -73 -113 -74q-111 -2 -111 117v85q0 58 58 101q54 32 107 64q58 36 59 73q1 40 -33 42q-33 2 -33 -42v-63h-158v53q0 80 58 120q50 35 133 36t133 -35q58 -41 58 -121
v-423h-158zM155 640h-29q-3 26 13 45t42 20q6 0 36 -8q15 -6 29 -8q15 0 20 4t11 18h32q0 -28 -17.5 -47t-45.5 -20q-9 0 -19 2q-3 0 -18 6q-8 3 -29 8q-18 0 -25 -20z" />
    <glyph glyph-name="adieresis" unicode="&#xe4;" horiz-adv-x="426" 
d="M180 209v-62q0 -30 29 -30q23 0 30 16t7 57v99q-22 -16 -45 -31q-21 -20 -21 -49zM246 0v67h-2q-34 -74 -111 -74q-52 0 -81.5 30.5t-29.5 86.5v85q0 64 58 105l108 58q58 32 58 75q0 42 -33 42t-33 -42v-63h-158v53q0 80 60 121q51 35 131 35t131 -35q60 -41 60 -121
v-423h-158zM352 650h-112v123h112v-123zM186 650h-112v123h112v-123z" />
    <glyph glyph-name="aring" unicode="&#xe5;" horiz-adv-x="426" 
d="M180 209v-62q0 -30 29 -30q23 0 30 16t7 57v99q-22 -16 -45 -31q-21 -20 -21 -49zM246 0v67h-2q-34 -74 -111 -74q-52 0 -81.5 30.5t-29.5 86.5v85q0 64 58 105l108 58q58 32 58 75q0 42 -33 42t-33 -42v-63h-158v53q0 80 60 121q51 35 131 35t131 -35q60 -41 60 -121
v-423h-158zM228 712q54 0 54 51t-55 51q-54 0 -54 -51t55 -51zM227 875q58 0 89 -31t31 -81t-30 -80q-32 -33 -90 -33t-90 33q-30 30 -30 80t31 81t89 31z" />
    <glyph glyph-name="ae" unicode="&#xe6;" horiz-adv-x="630" 
d="M394 363h66v78q0 34 -33 34t-33 -34v-78zM15 370v59q0 71 44 110.5t126 39.5q89 0 129 -55q38 55 122 55q179 0 179 -182v-129h-221v-116q0 -55 30 -55q33 0 33 55v74h158v-72q0 -161 -164 -161q-101 0 -135 52q-33 -52 -145 -52q-62 0 -102 25q-54 33 -54 104v69
q0 64 57 104q53 29 107 58q57 33 57 79q0 43 -29 43q-34 0 -34 -43v-62h-158zM173 189v-62q0 -30 29 -30q21 0 27.5 16t6.5 57v99q-21 -16 -42 -31q-21 -20 -21 -49z" />
    <glyph glyph-name="ccedilla" unicode="&#xe7;" horiz-adv-x="426" 
d="M246 370v65q0 40 -33 40t-33 -40v-298q0 -40 33 -40t33 40v89h158v-84q0 -149 -192 -149q-190 0 -190 159v267q0 72 50.5 116t139.5 44q192 0 192 -161v-48h-158zM174 -4h60l-14 -53q58 0 86 -12q42 -18 42 -67q0 -108 -168 -108q-39 0 -87 10v71q42 -13 89 -13
q70 0 70 31q0 29 -57 29q-26 0 -52 -3z" />
    <glyph glyph-name="egrave" unicode="&#xe8;" horiz-adv-x="426" 
d="M404 268h-224v-116q0 -54 33 -55t33 55v74h158v-84q0 -147 -191 -149q-80 -1 -132 35q-59 40 -59 117v273q0 83 56 124q50 37 135 37q191 0 191 -161v-150zM180 363h66v78q0 33 -33 34t-33 -34v-78zM236 640h-41l-93 89h73z" />
    <glyph glyph-name="eacute" unicode="&#xe9;" horiz-adv-x="426" 
d="M404 268h-224v-116q0 -54 33 -55t33 55v74h158v-84q0 -147 -191 -149q-80 -1 -132 35q-59 40 -59 117v273q0 83 56 124q50 37 135 37q191 0 191 -161v-150zM180 363h66v78q0 33 -33 34t-33 -34v-78zM238 640h-42l62 89h72z" />
    <glyph glyph-name="ecircumflex" unicode="&#xea;" horiz-adv-x="426" 
d="M404 268h-224v-116q0 -54 33 -55t33 55v74h158v-84q0 -147 -191 -149q-80 -1 -132 35q-59 40 -59 117v273q0 83 56 124q50 37 135 37q191 0 191 -161v-150zM180 363h66v78q0 33 -33 34t-33 -34v-78zM180 706h67l62 -89h-37l-59 46l-52 -46h-40z" />
    <glyph glyph-name="edieresis" unicode="&#xeb;" horiz-adv-x="426" 
d="M404 268h-224v-116q0 -55 33 -55t33 55v74h158v-84q0 -149 -191 -149q-82 0 -133 36q-58 41 -58 116v273q0 77 49.5 119t141.5 42q191 0 191 -161v-150zM180 363h66v78q0 34 -33 34t-33 -34v-78zM352 650h-112v123h112v-123zM186 650h-112v123h112v-123z" />
    <glyph glyph-name="igrave" unicode="&#xec;" horiz-adv-x="204" 
d="M181 0h-158v572h158v-572zM127 640h-41l-93 89h73z" />
    <glyph glyph-name="iacute" unicode="&#xed;" horiz-adv-x="204" 
d="M181 0h-158v572h158v-572zM127 640h-42l62 89h72z" />
    <glyph glyph-name="icircumflex" unicode="&#xee;" horiz-adv-x="204" 
d="M181 0h-158v572h158v-572zM46 780h106l99 -141h-59l-93 73l-82 -73h-65z" />
    <glyph glyph-name="idieresis" unicode="&#xef;" horiz-adv-x="204" 
d="M181 0h-158v572h158v-572zM241 650h-112v123h112v-123zM75 650h-112v123h112v-123z" />
    <glyph glyph-name="eth" unicode="&#xf0;" horiz-adv-x="426" 
d="M180 435v-298q0 -40 33 -40t33 40v298q0 40 -33 40t-33 -40zM22 150v268q0 73 44.5 117t127.5 44l-30 33l-101 -24v55l50 12l-61 57h148l36 -30l102 23v-54l-45 -10q60 -63 80 -98q31 -53 31 -125v-273q0 -75 -58 -116q-52 -36 -136 -36t-133 36q-55 40 -55 121z" />
    <glyph glyph-name="ntilde" unicode="&#xf1;" horiz-adv-x="426" 
d="M180 572v-71h2q23 78 115 78q107 0 107 -131v-448h-158v397q0 52 -32 52q-34 0 -34 -52v-397h-158v572h158zM113 653v0h-46q-5 40 21 71t66 31q21 0 56 -12.5t49 -12.5q22 0 31 7.5t17 28.5h51q2 -43 -27.5 -75.5t-72.5 -32.5q-22 0 -58 13t-47 13q-29 0 -40 -31z" />
    <glyph glyph-name="ograve" unicode="&#xf2;" horiz-adv-x="426" 
d="M180 435v-298q0 -38 33 -40t33 40v298q0 40 -33 40t-33 -40zM404 418v-273q0 -78 -59 -118q-50 -34 -132 -34q-81 0 -132 35q-59 40 -59 117v273q0 83 56 124q50 37 135 37t135 -37q56 -42 56 -124zM236 640h-41l-93 89h73z" />
    <glyph glyph-name="oacute" unicode="&#xf3;" horiz-adv-x="426" 
d="M180 435v-298q0 -38 33 -40t33 40v298q0 40 -33 40t-33 -40zM404 418v-273q0 -78 -59 -118q-50 -34 -132 -34q-81 0 -132 35q-59 40 -59 117v273q0 83 56 124q50 37 135 37t135 -37q56 -42 56 -124zM238 640h-42l62 89h72z" />
    <glyph glyph-name="ocircumflex" unicode="&#xf4;" horiz-adv-x="426" 
d="M180 435v-298q0 -38 33 -40t33 40v298q0 40 -33 40t-33 -40zM404 418v-273q0 -78 -59 -118q-50 -34 -132 -34q-81 0 -132 35q-59 40 -59 117v273q0 83 56 124q50 37 135 37t135 -37q56 -42 56 -124zM180 707h67l62 -89h-37l-59 46l-52 -46h-40z" />
    <glyph glyph-name="otilde" unicode="&#xf5;" horiz-adv-x="426" 
d="M180 435v-298q0 -38 33 -40t33 40v298q0 40 -33 40t-33 -40zM404 418v-273q0 -78 -59 -118q-50 -34 -132 -34q-81 0 -132 35q-59 40 -59 117v273q0 83 56 124q50 37 135 37t135 -37q56 -42 56 -124zM155 640h-29q-3 26 13 45t42 20q6 0 36 -8q15 -6 29 -8q15 0 20 4
t11 18h32q0 -28 -17.5 -47t-45.5 -20q-9 0 -19 2q-3 0 -18 6q-8 3 -29 8q-18 0 -25 -20z" />
    <glyph glyph-name="odieresis" unicode="&#xf6;" horiz-adv-x="426" 
d="M180 435v-298q0 -40 33 -40t33 40v298q0 40 -33 40t-33 -40zM404 418v-273q0 -75 -58 -116q-51 -36 -133 -36t-133 36q-58 41 -58 116v273q0 77 49.5 119t141.5 42t141.5 -42t49.5 -119zM352 650h-112v123h112v-123zM186 650h-112v123h112v-123z" />
    <glyph glyph-name="divide" unicode="&#xf7;" horiz-adv-x="600" 
d="M554 218h-508v136h508v-136zM208 493q0 38 27.5 65.5t65.5 27.5q37 0 64.5 -28t27.5 -65q0 -35 -27.5 -63.5t-63.5 -28.5q-38 0 -66 27.5t-28 64.5zM208 79q0 38 27.5 65t65.5 27q37 0 64.5 -27.5t27.5 -64.5q0 -35 -27.5 -64t-63.5 -29q-38 0 -66 27.5t-28 65.5z" />
    <glyph glyph-name="oslash" unicode="&#xf8;" horiz-adv-x="426" 
d="M182 305l59 153q-7 17 -28 17q-33 0 -33 -40v-130h2zM38 -52l35 87q-51 40 -51 110v273q0 77 49.5 119t141.5 42q42 0 73 -9l18 46h78l-31 -77q53 -39 53 -121v-273q0 -75 -58 -116q-51 -36 -133 -36q-43 0 -77 10l-22 -55h-76zM244 277l-61 -158q6 -22 30 -22
q33 0 33 40v140h-2z" />
    <glyph glyph-name="ugrave" unicode="&#xf9;" horiz-adv-x="426" 
d="M246 0v71q-24 -77 -117 -78q-107 -1 -107 131v448h158v-397q0 -27 3 -36q7 -15 29 -16q34 -1 34 52v397h158v-572h-158zM236 629h-41l-93 89h73z" />
    <glyph glyph-name="uacute" unicode="&#xfa;" horiz-adv-x="426" 
d="M246 0v71q-24 -77 -117 -78q-107 -1 -107 131v448h158v-397q0 -27 3 -36q7 -15 29 -16q34 -1 34 52v397h158v-572h-158zM235 629h-42l62 89h72z" />
    <glyph glyph-name="ucircumflex" unicode="&#xfb;" horiz-adv-x="426" 
d="M246 0v71h-2q-23 -78 -115 -78q-107 0 -107 131v448h158v-397q0 -52 32 -52q34 0 34 52v397h158v-572h-158zM157 780h106l99 -141h-59l-93 73l-82 -73h-65z" />
    <glyph glyph-name="udieresis" unicode="&#xfc;" horiz-adv-x="426" 
d="M246 0v71h-2q-23 -78 -115 -78q-107 0 -107 131v448h158v-397q0 -52 32 -52q34 0 34 52v397h158v-572h-158zM352 650h-112v123h112v-123zM186 650h-112v123h112v-123z" />
    <glyph glyph-name="yacute" unicode="&#xfd;" horiz-adv-x="426" 
d="M12 572h160l53 -395l55 395h133l-128 -603q-21 -97 -128 -97h-127v104h82q27 0 28 16q0 6 -4 25zM247 619h-42l62 89h72z" />
    <glyph glyph-name="thorn" unicode="&#xfe;" horiz-adv-x="426" 
d="M180 410v-248q0 -39 33 -39t33 39v248q0 39 -33 39t-33 -39zM180 712v-215h2q11 82 109 82q113 0 113 -146v-316q0 -124 -110 -124q-90 0 -112 82h-2v-203h-158v840h158z" />
    <glyph glyph-name="ydieresis" unicode="&#xff;" horiz-adv-x="426" 
d="M12 572h160l53 -395h2l53 395h133l-128 -603q-21 -97 -128 -97h-127v104h82q28 0 28 16q0 7 -4 25zM352 650h-112v123h112v-123zM186 650h-112v123h112v-123z" />
    <glyph glyph-name="glyph271" unicode="&#x102;" 
d="M196 283h60l-29 317zM132 712h228l92 -712h-165l-19 175h-90l-27 -175h-140zM144 852h39q5 -36 66 -38q48 -1 59 38h41q0 -91 -106 -93q-44 -1 -71 24t-28 69z" />
    <glyph glyph-name="glyph272" unicode="&#x103;" horiz-adv-x="426" 
d="M180 209v-62q0 -25 29 -30q27 0 34 25q3 11 3 48v99q-42 -28 -45 -31q-21 -19 -21 -49zM246 0v67q-38 -73 -113 -74q-111 -2 -111 117v85q0 58 58 101q54 32 107 64q58 36 59 73q1 40 -33 42q-33 2 -33 -42v-63h-158v53q0 80 58 120q50 35 133 36t133 -35q58 -41 58 -121
v-423h-158zM128 713h35q5 -32 59 -34q47 -2 53 34h37q0 -41 -26.5 -62.5t-68.5 -21.5q-85 0 -89 84z" />
    <glyph glyph-name="Cacute" unicode="&#x106;" horiz-adv-x="711" 
d="M277 277h165v-94q0 -197 -211 -197q-209 0 -209 208v324q0 208 209 208q101 0 151 -37q60 -45 60 -153v-78h-166v98q0 56 -45 56q-43 0 -43 -56v-400q0 -56 43 -56q45 0 45 56zM274 894h-67l98 141h115z" />
    <glyph glyph-name="cacute" unicode="&#x107;" horiz-adv-x="441" 
d="M246 370v65q0 40 -33 40t-33 -40v-298q0 -40 33 -40t33 40v89h158v-84q0 -149 -192 -149q-190 0 -190 159v267q0 72 50.5 116t139.5 44q192 0 192 -161v-48h-158zM75 639h-67l98 141h115z" />
    <glyph glyph-name="Ccaron" unicode="&#x10c;" horiz-adv-x="711" 
d="M277 277h165v-94q0 -197 -211 -197q-209 0 -209 208v324q0 208 209 208q101 0 151 -37q60 -45 60 -153v-78h-166v98q0 56 -45 56q-43 0 -43 -56v-400q0 -56 43 -56q45 0 45 56zM224 894l-94 141h65l82 -73l93 73h59l-99 -141h-106z" />
    <glyph glyph-name="ccaron" unicode="&#x10d;" horiz-adv-x="441" 
d="M246 370v65q0 40 -33 40t-33 -40v-298q0 -40 33 -40t33 40v89h158v-84q0 -149 -192 -149q-190 0 -190 159v267q0 72 50.5 116t139.5 44q192 0 192 -161v-48h-158zM25 639l-94 141h65l82 -73l93 73h59l-99 -141h-106z" />
    <glyph glyph-name="Dslash" unicode="&#x110;" 
d="M-14 407h36v305h171q148 0 194 -41q55 -49 55 -202v-254q0 -124 -63 -172q-55 -43 -186 -43h-171v305h-36v102zM188 407h54v-102h-54v-203q55 0 74 24q14 18 14 75v293q0 71 -10 88q-15 26 -78 28v-203z" />
    <glyph glyph-name="dcroat" unicode="&#x111;" horiz-adv-x="426" 
d="M180 410v-248q0 -17 9 -29q8 -8 24 -10q33 0 33 39v248q0 17 -9 29q-8 8 -24 10q-33 0 -33 -39zM246 602h-96v49h96v61h158v-61h39v-49h-39v-602h-158v72q-11 -78 -111 -79q-59 -1 -88 44q-25 38 -25 99v316q0 125 110 127q86 1 112 -85z" />
    <glyph glyph-name="Gbreve" unicode="&#x11e;" horiz-adv-x="767" 
d="M345 0l-9 36q-45 -50 -144 -50q-87 0 -126 43q-44 48 -44 165v324q0 208 210 208q214 0 211 -194l-1 -75h-166v99q0 56 -44 56t-44 -56v-400q0 -56 44 -56t44 56v95h-63v108h229v-359h-97zM152 1028h56q9 -55 95 -55q73 0 84 55h58q0 -66 -44 -101q-40 -32 -108 -32
q-61 0 -101 36t-40 97z" />
    <glyph glyph-name="gbreve" unicode="&#x11f;" horiz-adv-x="492" 
d="M180 406v-164q0 -43 33 -43t33 43v164q0 43 -33 43t-33 -43zM404 572v-517q0 -105 -71 -151q-50 -32 -124 -32q-86 0 -139 38q-48 34 -48 83v56h158v-38q0 -35 33 -35t33 35v142h-3q-4 -37 -31 -60.5t-65 -23.5q-125 0 -125 144v234q0 65 31 100q28 32 72 32
q84 0 118 -81h2v74h159zM-48 773h56q9 -55 95 -55q73 0 84 55h58q0 -66 -44 -101q-40 -32 -108 -32q-61 0 -101 36t-40 97z" />
    <glyph glyph-name="glyph273" unicode="&#x128;" horiz-adv-x="204" 
d="M185 0h-166v712h166v-712zM34 774h-32q-3 30 14 50.5t47 21.5q12 0 40 -9l3 -1q24 -8 30 -8q26 0 34 25h36q0 -30 -20 -52t-50 -23q-12 0 -38 8q-32 10 -36 10q-19 0 -28 -22z" />
    <glyph glyph-name="glyph274" unicode="&#x129;" horiz-adv-x="204" 
d="M181 0h-158v572h158v-572zM40 640h-29q-3 26 13 45t42 20q6 0 36 -8q15 -6 29 -8q15 0 20 4t11 18h32q0 -28 -17.5 -47t-45.5 -20q-9 0 -19 2q-3 0 -18 6q-8 3 -29 8q-18 0 -25 -20z" />
    <glyph glyph-name="Idotaccent" unicode="&#x130;" horiz-adv-x="429" 
d="M185 0h-166v712h166v-712zM185 905h-112v123h112v-123z" />
    <glyph glyph-name="dotlessi" unicode="&#x131;" horiz-adv-x="204" 
d="M181 0h-158v572h158v-572z" />
    <glyph glyph-name="Lslash" unicode="&#x141;" horiz-adv-x="370" 
d="M366 0h-346v292l-31 -13v108l31 13v312h166v-248l69 27v-108l-69 -27v-248h180v-108z" />
    <glyph glyph-name="lslash" unicode="&#x142;" horiz-adv-x="204" 
d="M181 0h-158v294l-35 -14v108l35 14v310h158v-248l36 14v-108l-36 -14v-356z" />
    <glyph glyph-name="OE" unicode="&#x152;" horiz-adv-x="630" 
d="M188 556v-400q0 -56 45 -56t45 56v400q0 56 -45 56t-45 -56zM444 604v-156h174v-108h-174v-232h180v-108h-268q-21 0 -61 -6q-53 -8 -60 -8q-213 0 -213 208v324q0 208 213 208q23 0 65 -7t84 -7h240v-108h-180z" />
    <glyph glyph-name="oe" unicode="&#x153;" horiz-adv-x="630" 
d="M457 226h158v-55q0 -90 -48 -136q-44 -42 -121 -42q-96 0 -129 52q-36 -52 -123 -52q-93 0 -134 39q-45 43 -45 144v229q0 84 49 131q46 43 124 43q90 0 128 -54q42 54 126 54q77 0 122 -40q51 -46 51 -137v-134h-221v-116q0 -55 30 -55q33 0 33 55v74zM394 363h66v78
q0 34 -33 34t-33 -34v-78zM173 435v-298q0 -40 33 -40q30 0 30 40v298q0 40 -30 40q-33 0 -33 -40z" />
    <glyph glyph-name="Scedilla" unicode="&#x15e;" horiz-adv-x="656" 
d="M442 457h-166v100q0 55 -44 55t-44 -55q0 -47 66 -102q109 -90 122 -105q66 -74 66 -168q0 -196 -211 -196q-209 0 -209 159v132h166v-123q0 -54 44 -54t44 54q0 65 -66 123l-122 102q-66 71 -66 169q0 178 213 178q207 0 207 -157v-112zM102 -4h60l-14 -53q58 0 86 -12
q42 -18 42 -67q0 -108 -168 -108q-39 0 -87 10v71q42 -13 89 -13q70 0 70 31q0 29 -57 29q-26 0 -52 -3z" />
    <glyph glyph-name="scedilla" unicode="&#x15f;" horiz-adv-x="383" 
d="M404 370h-158v62q0 43 -33 43t-33 -43q0 -38 57 -71q93 -53 107 -65q57 -50 57 -130q0 -173 -200 -173q-179 0 -179 142v91h158v-86q0 -43 33 -43t33 43q0 55 -58 92q-54 31 -108 63q-58 46 -58 125q0 81 54 122q47 37 131 37q92 0 144 -35q53 -38 53 -108v-66zM5 -4h60
l-14 -53q58 0 86 -12q42 -18 42 -67q0 -108 -168 -108q-39 0 -87 10v71q42 -13 89 -13q70 0 70 31q0 29 -57 29q-26 0 -52 -3z" />
    <glyph glyph-name="Scaron" unicode="&#x160;" 
d="M442 457h-166v100q0 55 -44 55t-44 -55q0 -47 66 -102q109 -90 122 -105q66 -74 66 -168q0 -196 -211 -196q-209 0 -209 159v132h166v-123q0 -54 44 -54t44 54q0 65 -66 123l-122 102q-66 71 -66 169q0 178 213 178q207 0 207 -157v-112zM177 754l-94 141h65l82 -73
l93 73h59l-99 -141h-106z" />
    <glyph glyph-name="scaron" unicode="&#x161;" horiz-adv-x="426" 
d="M404 370h-158v62q0 43 -33 43t-33 -43q0 -38 57 -71q93 -53 107 -65q57 -50 57 -130q0 -173 -200 -173q-179 0 -179 142v91h158v-86q0 -43 33 -43t33 43q0 55 -58 92q-54 31 -108 63q-58 46 -58 125q0 81 54 122q47 37 131 37q92 0 144 -35q53 -38 53 -108v-66zM158 639
l-94 141h65l82 -73l93 73h59l-99 -141h-106z" />
    <glyph glyph-name="ch903" unicode="&#x168;" 
d="M442 712v-509q0 -115 -48.5 -166t-162.5 -51q-134 0 -181 82q-28 49 -28 151v493h166v-513q0 -53 2 -63q7 -35 41 -36q30 -1 39 28q6 19 6 71v513h166zM162 769h-32q-3 30 14 50.5t47 21.5q12 0 40 -9l3 -1q24 -8 30 -8q26 0 34 25h36q0 -30 -20 -52t-50 -23q-12 0 -38 8
q-32 10 -36 10q-19 0 -28 -22z" />
    <glyph glyph-name="ch904" unicode="&#x169;" horiz-adv-x="426" 
d="M246 0v71q-24 -77 -117 -78q-107 -1 -107 131v448h158v-397q0 -27 3 -36q7 -15 29 -16q34 -1 34 52v397h158v-572h-158zM155 635h-29q-3 26 13 45t42 20q6 0 36 -8q15 -6 29 -8q15 0 20 4t11 18h32q0 -28 -17.5 -47t-45.5 -20q-9 0 -19 2q-3 0 -18 6q-8 3 -29 8
q-18 0 -25 -20z" />
    <glyph glyph-name="Ydieresis" unicode="&#x178;" 
d="M149 0v262l-141 450h162l61 -283h2l61 283h162l-141 -450v-262h-166zM371 765h-112v123h112v-123zM205 765h-112v123h112v-123z" />
    <glyph glyph-name="Zcaron" unicode="&#x17d;" horiz-adv-x="370" 
d="M365 0h-360v122l186 482h-186v108h360v-105l-194 -499h194v-108zM130 754l-94 141h65l82 -73l93 73h59l-99 -141h-106z" />
    <glyph glyph-name="zcaron" unicode="&#x17e;" horiz-adv-x="333" 
d="M330 0h-327v104l147 364h-147v104h322v-88l-153 -380h158v-104zM112 639l-94 141h65l82 -73l93 73h59l-99 -141h-106z" />
    <glyph glyph-name="florin" unicode="&#x192;" 
d="M157 402h-96v104h107q11 106 44 155q43 65 140 65q42 0 102 -16l-18 -114q-32 16 -45 16q-31 0 -45 -33q-8 -19 -15 -73h98v-104h-107q-5 -34 -17 -192q-10 -119 -27 -192q-35 -146 -176 -146q-42 0 -93 21l16 113q4 -7 18.5 -13.5t23.5 -6.5q30 0 43 21q8 14 13 49
q1 9 34 346z" />
    <glyph glyph-name="glyph277" unicode="&#x1a0;" 
d="M188 556v-400q0 -56 44 -56t44 56v400q0 55 -44 56t-44 -56zM359 696q22 13 23 34q0 16 -24 20q-17 0 -32 -5v25q4 1 31 4q60 0 60 -38q0 -35 -44 -49q69 -50 69 -169v-324q0 -206 -210 -208t-210 208v324q0 206 210 208q78 1 127 -30z" />
    <glyph glyph-name="glyph278" unicode="&#x1a1;" horiz-adv-x="419" 
d="M180 435v-298q0 -38 33 -40t33 40v298q0 40 -33 40t-33 -40zM339 549q10 5 20 15q5 7 7 21q0 16 -24 20q-17 0 -32 -5v25q4 1 31 4q60 0 60 -38q0 -43 -51 -50q54 -40 54 -123v-273q0 -78 -59 -118q-50 -34 -132 -34q-81 0 -132 35q-59 40 -59 117v273q0 83 56 124
q50 37 135 37q78 0 126 -30z" />
    <glyph glyph-name="glyph279" unicode="&#x1af;" 
d="M442 694v-491q0 -115 -48.5 -166t-162.5 -51q-134 0 -181 82q-28 49 -28 151v493h166v-513q0 -53 2 -63q7 -35 41 -36q30 -1 39 28q6 19 6 71v513h152q3 5 5 18q0 16 -24 20q-17 0 -32 -5v25q4 1 31 4q60 0 60 -38q0 -28 -26 -42z" />
    <glyph glyph-name="glyph280" unicode="&#x1b0;" horiz-adv-x="426" 
d="M404 544v-544h-158v71q-24 -77 -117 -78q-107 -1 -107 131v448h158v-397q0 -27 3 -36q7 -15 29 -16q34 -1 34 52v397h158l3 13q0 16 -24 20q-17 0 -32 -5v25q4 1 31 4q60 0 60 -38q0 -33 -38 -47z" />
    <glyph glyph-name="circumflex" unicode="&#x2c6;" horiz-adv-x="204" 
d="M46 780h106l99 -141h-59l-93 73l-82 -73h-65z" />
    <glyph glyph-name="caron" unicode="&#x2c7;" horiz-adv-x="204" 
d="M47 639l-94 141h65l82 -73l93 73h59l-99 -141h-106z" />
    <glyph glyph-name="breve" unicode="&#x2d8;" horiz-adv-x="204" 
d="M-44 773h56q9 -55 95 -55q73 0 84 55h58q0 -66 -44 -101q-40 -32 -108 -32q-61 0 -101 36t-40 97z" />
    <glyph glyph-name="dotaccent" unicode="&#x2d9;" horiz-adv-x="204" 
d="M158 650h-112v123h112v-123z" />
    <glyph glyph-name="ring" unicode="&#x2da;" horiz-adv-x="204" 
d="M117 712q54 0 54 51t-55 51q-54 0 -54 -51t55 -51zM116 875q58 0 89 -31t31 -81t-30 -80q-32 -33 -90 -33t-90 33q-30 30 -30 80t31 81t89 31z" />
    <glyph glyph-name="ogonek" unicode="&#x2db;" horiz-adv-x="204" 
d="M229 -163v-70q-53 -11 -88 -11q-163 0 -163 108q0 57 45 95q40 34 98 41h74q-121 -49 -121 -120q0 -56 66 -56q47 0 89 13z" />
    <glyph glyph-name="tilde" unicode="&#x2dc;" horiz-adv-x="204" 
d="M2 653v0h-46q-5 40 21 71t66 31q21 0 56 -12.5t49 -12.5q22 0 31 7.5t17 28.5h51q2 -43 -27.5 -75.5t-72.5 -32.5q-22 0 -58 13t-47 13q-29 0 -40 -31z" />
    <glyph glyph-name="hungarumlaut" unicode="&#x2dd;" horiz-adv-x="204" 
d="M-2 639h-63l73 141h115zM145 639h-67l98 141h115z" />
    <glyph glyph-name="glyph281" unicode="&#x1ea0;" 
d="M196 283h60l-29 317zM132 712h228l92 -712h-165l-19 175h-90l-27 -175h-140zM283 -167h-109v118h109v-118z" />
    <glyph glyph-name="glyph282" unicode="&#x1ea1;" horiz-adv-x="426" 
d="M180 209v-62q0 -25 29 -30q27 0 34 25q3 11 3 48v99q-42 -28 -45 -31q-21 -19 -21 -49zM246 0v67q-38 -73 -113 -74q-111 -2 -111 117v85q0 58 58 101q54 32 107 64q58 36 59 73q1 40 -33 42q-33 2 -33 -42v-63h-158v53q0 80 58 120q50 35 133 36t133 -35q58 -41 58 -121
v-423h-158zM262 -104h-98v63h98v-63z" />
    <glyph glyph-name="glyph283" unicode="&#x1ea2;" 
d="M196 283h60l-29 317zM132 712h228l92 -712h-165l-19 175h-90l-27 -175h-140zM257 751h-62v36q0 33 30 60q14 13 14 29v22q0 18 -13 18t-13 -18v-47h-62v46q0 60 77 60q74 0 74 -61v-18q0 -30 -30 -62q-15 -16 -15 -34v-31z" />
    <glyph glyph-name="glyph284" unicode="&#x1ea3;" horiz-adv-x="426" 
d="M180 209v-62q0 -25 29 -30q27 0 34 25q3 11 3 48v99q-42 -28 -45 -31q-21 -19 -21 -49zM246 0v67q-38 -73 -113 -74q-111 -2 -111 117v85q0 58 58 101q54 32 107 64q58 36 59 73q1 40 -33 42q-33 2 -33 -42v-63h-158v53q0 80 58 120q50 35 133 36t133 -35q58 -41 58 -121
v-423h-158zM243 629h-56v32q0 31 25 54q15 14 15 26v20q0 16 -12 16t-12 -16v-42h-55v41q0 53 69 54q66 1 66 -55v-16q0 -23 -29 -60q-11 -14 -11 -26v-28z" />
    <glyph glyph-name="glyph285" unicode="&#x1ea4;" 
d="M196 283h60l-29 317zM132 712h228l92 -712h-165l-19 175h-90l-27 -175h-140zM400 800h-47l69 99h80zM207 850h74l69 -99h-41l-65 51l-58 -51h-45z" />
    <glyph glyph-name="glyph286" unicode="&#x1ea5;" horiz-adv-x="426" 
d="M180 209v-62q0 -25 29 -30q27 0 34 25q3 11 3 48v99q-42 -28 -45 -31q-21 -19 -21 -49zM246 0v67q-38 -73 -113 -74q-111 -2 -111 117v85q0 58 58 101q54 32 107 64q58 36 59 73q1 40 -33 42q-33 2 -33 -42v-63h-158v53q0 80 58 120q50 35 133 36t133 -35q58 -41 58 -121
v-423h-158zM354 663h-43l63 89h72zM180 708h67l62 -89h-37l-59 46l-52 -46h-40z" />
    <glyph glyph-name="glyph287" unicode="&#x1ea6;" 
d="M196 283h60l-29 317zM132 712h228l92 -712h-165l-19 175h-90l-27 -175h-140zM138 799h-46l-103 99h81zM207 850h74l69 -99h-41l-65 51l-58 -51h-45z" />
    <glyph glyph-name="glyph288" unicode="&#x1ea7;" horiz-adv-x="426" 
d="M180 209v-62q0 -25 29 -30q27 0 34 25q3 11 3 48v99q-42 -28 -45 -31q-21 -19 -21 -49zM246 0v67q-38 -73 -113 -74q-111 -2 -111 117v85q0 58 58 101q54 32 107 64q58 36 59 73q1 40 -33 42q-33 2 -33 -42v-63h-158v53q0 80 58 120q50 35 133 36t133 -35q58 -41 58 -121
v-423h-158zM116 662h-41l-93 89h73zM178 708h67l62 -89h-37l-58 46l-52 -46h-41z" />
    <glyph glyph-name="glyph289" unicode="&#x1ea8;" 
d="M196 283h60l-29 317zM132 712h228l92 -712h-165l-19 175h-90l-27 -175h-140zM415 791h-62v36q0 33 30 60q14 13 14 29v22q0 18 -13 18t-13 -18v-47h-62v46q0 60 77 60q74 0 74 -61v-18q0 -30 -30 -62q-15 -16 -15 -34v-31zM207 850h74l69 -99h-41l-65 51l-58 -51h-45z
" />
    <glyph glyph-name="glyph290" unicode="&#x1ea9;" horiz-adv-x="426" 
d="M180 209v-62q0 -25 29 -30q27 0 34 25q3 11 3 48v99q-42 -28 -45 -31q-21 -19 -21 -49zM246 0v67q-38 -73 -113 -74q-111 -2 -111 117v85q0 58 58 101q54 32 107 64q58 36 59 73q1 40 -33 42q-33 2 -33 -42v-63h-158v53q0 80 58 120q50 35 133 36t133 -35q58 -41 58 -121
v-423h-158zM366 655h-56v32q0 31 25 54q15 14 15 26v20q0 15 -12 16q-11 0 -11 -16v-42h-56v41q0 52 69 54q67 2 67 -55v-16q0 -27 -20.5 -49.5t-20.5 -36.5v-28zM179 708h67l62 -89h-37l-59 46l-52 -46h-40z" />
    <glyph glyph-name="glyph291" unicode="&#x1eaa;" 
d="M196 283h60l-29 317zM132 712h228l92 -712h-165l-19 175h-90l-27 -175h-140zM176 866h-32q-3 30 14 50.5t47 21.5q12 0 40 -9l3 -1q24 -8 30 -8q26 0 34 25h36q0 -30 -20 -52t-50 -23q-12 0 -38 8q-32 10 -36 10q-19 0 -28 -22zM207 850h74l69 -99h-41l-65 51l-58 -51
h-45z" />
    <glyph glyph-name="glyph292" unicode="&#x1eab;" horiz-adv-x="426" 
d="M180 209v-62q0 -25 29 -30q27 0 34 25q3 11 3 48v99q-42 -28 -45 -31q-21 -19 -21 -49zM246 0v67q-38 -73 -113 -74q-111 -2 -111 117v85q0 58 58 101q54 32 107 64q58 36 59 73q1 40 -33 42q-33 2 -33 -42v-63h-158v53q0 80 58 120q50 35 133 36t133 -35q58 -41 58 -121
v-423h-158zM152 722h-29q-3 26 13 45t42 20q6 0 36 -8q15 -6 29 -8q15 0 20 4t11 18h32q0 -28 -17.5 -47t-45.5 -20q-9 0 -19 2q-3 0 -18 6q-8 3 -29 8q-18 0 -25 -20zM180 708h66l62 -89h-37l-58 45l-52 -45h-41z" />
    <glyph glyph-name="glyph293" unicode="&#x1eac;" 
d="M196 283h60l-29 317zM132 712h228l92 -712h-165l-19 175h-90l-27 -175h-140zM207 850h74l69 -99h-41l-65 51l-58 -51h-45zM283 -167h-109v118h109v-118z" />
    <glyph glyph-name="glyph294" unicode="&#x1ead;" horiz-adv-x="426" 
d="M180 209v-62q0 -25 29 -30q27 0 34 25q3 11 3 48v99q-42 -28 -45 -31q-21 -19 -21 -49zM246 0v67q-38 -73 -113 -74q-111 -2 -111 117v85q0 58 58 101q54 32 107 64q58 36 59 73q1 40 -33 42q-33 2 -33 -42v-63h-158v53q0 80 58 120q50 35 133 36t133 -35q58 -41 58 -121
v-423h-158zM180 708h67l62 -89h-37l-59 46l-52 -46h-40zM262 -104h-98v63h98v-63z" />
    <glyph glyph-name="glyph295" unicode="&#x1eae;" 
d="M196 283h60l-29 317zM132 712h228l92 -712h-165l-19 175h-90l-27 -175h-140zM269 857h-47l69 99h80zM144 852h39q5 -36 66 -38q48 -1 59 38h41q0 -91 -106 -93q-44 -1 -71 24t-28 69z" />
    <glyph glyph-name="glyph296" unicode="&#x1eaf;" horiz-adv-x="426" 
d="M180 209v-62q0 -25 29 -30q27 0 34 25q3 11 3 48v99q-42 -28 -45 -31q-21 -19 -21 -49zM246 0v67q-38 -73 -113 -74q-111 -2 -111 117v85q0 58 58 101q54 32 107 64q58 36 59 73q1 40 -33 42q-33 2 -33 -42v-63h-158v53q0 80 58 120q50 35 133 36t133 -35q58 -41 58 -121
v-423h-158zM240 717h-42l62 89h72zM128 713h35q5 -32 59 -34q47 -2 53 34h37q0 -41 -26.5 -62.5t-68.5 -21.5q-85 0 -89 84z" />
    <glyph glyph-name="glyph297" unicode="&#x1eb0;" 
d="M196 283h60l-29 317zM132 712h228l92 -712h-165l-19 175h-90l-27 -175h-140zM270 851h-46l-103 99h81zM144 852h39q5 -36 66 -38q48 -1 59 38h41q0 -91 -106 -93q-44 -1 -71 24t-28 69z" />
    <glyph glyph-name="glyph298" unicode="&#x1eb1;" horiz-adv-x="426" 
d="M180 209v-62q0 -25 29 -30q27 0 34 25q3 11 3 48v99q-42 -28 -45 -31q-21 -19 -21 -49zM246 0v67q-38 -73 -113 -74q-111 -2 -111 117v85q0 58 58 101q54 32 107 64q58 36 59 73q1 40 -33 42q-33 2 -33 -42v-63h-158v53q0 80 58 120q50 35 133 36t133 -35q58 -41 58 -121
v-423h-158zM241 712h-41l-93 89h73zM128 713h35q6 -33 59 -35q47 -2 53 35h37q0 -41 -26.5 -62.5t-68.5 -21.5q-86 0 -89 84z" />
    <glyph glyph-name="glyph299" unicode="&#x1eb2;" 
d="M196 283h60l-29 317zM132 712h228l92 -712h-165l-19 175h-90l-27 -175h-140zM277 851h-62v36q0 33 30 60q14 13 14 29v22q0 18 -13 18t-13 -18v-47h-62v46q0 60 77 60q74 0 74 -61v-18q0 -30 -30 -62q-15 -16 -15 -34v-31zM144 852h39q5 -36 66 -38q48 -1 59 38h41
q0 -91 -106 -93q-44 -1 -71 24t-28 69z" />
    <glyph glyph-name="glyph300" unicode="&#x1eb3;" horiz-adv-x="426" 
d="M180 209v-62q0 -25 29 -30q27 0 34 25q3 11 3 48v99q-42 -28 -45 -31q-21 -19 -21 -49zM246 0v67q-38 -73 -113 -74q-111 -2 -111 117v85q0 58 58 101q54 32 107 64q58 36 59 73q1 40 -33 42q-33 2 -33 -42v-63h-158v53q0 80 58 120q50 35 133 36t133 -35q58 -41 58 -121
v-423h-158zM248 712h-56v32q0 31 25 54q15 14 15 26v20q0 16 -12 16t-12 -16v-42h-55v41q0 53 69 54q66 1 66 -55v-16q0 -23 -29 -60q-11 -14 -11 -26v-28zM128 713h35q6 -33 60 -35q45 -2 53 35h37q0 -84 -96 -84q-86 0 -89 84z" />
    <glyph glyph-name="glyph301" unicode="&#x1eb4;" 
d="M196 283h60l-29 317zM132 712h228l92 -712h-165l-19 175h-90l-27 -175h-140zM263 866h-32q-3 30 14 50.5t47 21.5q12 0 40 -9l3 -1q24 -8 30 -8q26 0 34 25h36q0 -30 -20 -52t-50 -23q-12 0 -38 8q-32 10 -36 10q-19 0 -28 -22zM144 852h39q5 -36 66 -38q48 -1 59 38h41
q0 -91 -106 -93q-44 -1 -71 24t-28 69z" />
    <glyph glyph-name="glyph302" unicode="&#x1eb5;" horiz-adv-x="426" 
d="M180 209v-62q0 -25 29 -30q27 0 34 25q3 11 3 48v99q-42 -28 -45 -31q-21 -19 -21 -49zM246 0v67q-38 -73 -113 -74q-111 -2 -111 117v85q0 58 58 101q54 32 107 64q58 36 59 73q1 40 -33 42q-33 2 -33 -42v-63h-158v53q0 80 58 120q50 35 133 36t133 -35q58 -41 58 -121
v-423h-158zM236 738h-32q-3 30 14 50.5t47 21.5q12 0 40 -9l3 -1q24 -8 30 -8q26 0 34 25h36q0 -30 -20 -52t-50 -23q-12 0 -38 8q-32 10 -36 10q-19 0 -28 -22zM117 724h39q5 -36 66 -38q48 -1 59 38h41q0 -91 -106 -93q-44 -1 -71 24t-28 69z" />
    <glyph glyph-name="glyph303" unicode="&#x1eb6;" 
d="M196 283h60l-29 317zM132 712h228l92 -712h-165l-19 175h-90l-27 -175h-140zM144 852h39q5 -36 66 -38q48 -1 59 38h41q0 -91 -106 -93q-44 -1 -71 24t-28 69zM283 -167h-109v118h109v-118z" />
    <glyph glyph-name="glyph304" unicode="&#x1eb7;" horiz-adv-x="426" 
d="M180 209v-62q0 -25 29 -30q27 0 34 25q3 11 3 48v99q-42 -28 -45 -31q-21 -19 -21 -49zM246 0v67q-38 -73 -113 -74q-111 -2 -111 117v85q0 58 58 101q54 32 107 64q58 36 59 73q1 40 -33 42q-33 2 -33 -42v-63h-158v53q0 80 58 120q50 35 133 36t133 -35q58 -41 58 -121
v-423h-158zM128 713h35q5 -32 59 -34q47 -2 53 34h37q0 -41 -26.5 -62.5t-68.5 -21.5q-85 0 -89 84zM262 -104h-98v63h98v-63z" />
    <glyph glyph-name="glyph305" unicode="&#x1eb8;" horiz-adv-x="370" 
d="M364 0h-344v712h344v-108h-178v-156h172v-108h-172v-232h178v-108zM248 -167h-109v118h109v-118z" />
    <glyph glyph-name="glyph306" unicode="&#x1eb9;" horiz-adv-x="426" 
d="M404 268h-224v-116q0 -54 33 -55t33 55v74h158v-84q0 -147 -191 -149q-80 -1 -132 35q-59 40 -59 117v273q0 83 56 124q50 37 135 37q191 0 191 -161v-150zM180 363h66v78q0 33 -33 34t-33 -34v-78zM262 -114h-98v63h98v-63z" />
    <glyph glyph-name="glyph307" unicode="&#x1eba;" horiz-adv-x="370" 
d="M364 0h-344v712h344v-108h-178v-156h172v-108h-172v-232h178v-108zM224 760h-62v36q0 33 30 60q14 13 14 29v22q0 18 -13 18t-13 -18v-47h-62v46q0 60 77 60q74 0 74 -61v-18q0 -30 -30 -62q-15 -16 -15 -34v-31z" />
    <glyph glyph-name="glyph308" unicode="&#x1ebb;" horiz-adv-x="426" 
d="M404 268h-224v-116q0 -54 33 -55t33 55v74h158v-84q0 -147 -191 -149q-80 -1 -132 35q-59 40 -59 117v273q0 83 56 124q50 37 135 37q191 0 191 -161v-150zM180 363h66v78q0 33 -33 34t-33 -34v-78zM243 629h-56v32q0 31 25 54q15 14 15 26v20q0 16 -12 16t-12 -16v-42
h-55v41q0 53 69 54q66 1 66 -55v-16q0 -23 -29 -60q-11 -14 -11 -26v-28z" />
    <glyph glyph-name="glyph309" unicode="&#x1ebc;" horiz-adv-x="370" 
d="M364 0h-344v712h344v-108h-178v-156h172v-108h-172v-232h178v-108zM125 769h-32q-3 30 14 50.5t47 21.5q12 0 40 -9l3 -1q24 -8 30 -8q26 0 34 25h36q0 -30 -20 -52t-50 -23q-12 0 -38 8q-32 10 -36 10q-19 0 -28 -22z" />
    <glyph glyph-name="glyph310" unicode="&#x1ebd;" horiz-adv-x="426" 
d="M404 268h-224v-116q0 -54 33 -55t33 55v74h158v-84q0 -147 -191 -149q-80 -1 -132 35q-59 40 -59 117v273q0 83 56 124q50 37 135 37q191 0 191 -161v-150zM180 363h66v78q0 33 -33 34t-33 -34v-78zM155 640h-29q-3 26 13 45t42 20q6 0 36 -8q15 -6 29 -8q15 0 20 4
t11 18h32q0 -28 -17.5 -47t-45.5 -20q-9 0 -19 2q-3 0 -18 6q-8 3 -29 8q-18 0 -25 -20z" />
    <glyph glyph-name="glyph311" unicode="&#x1ebe;" horiz-adv-x="370" 
d="M364 0h-344v712h344v-108h-178v-156h172v-108h-172v-232h178v-108zM349 809h-47l69 99h80zM156 859h74l69 -99h-41l-65 51l-58 -51h-45z" />
    <glyph glyph-name="glyph312" unicode="&#x1ebf;" horiz-adv-x="426" 
d="M404 268h-224v-116q0 -54 33 -55t33 55v74h158v-84q0 -147 -191 -149q-80 -1 -132 35q-59 40 -59 117v273q0 83 56 124q50 37 135 37q191 0 191 -161v-150zM180 363h66v78q0 33 -33 34t-33 -34v-78zM354 663h-43l63 89h72zM180 708h67l62 -89h-37l-59 46l-52 -46h-40z
" />
    <glyph glyph-name="glyph313" unicode="&#x1ec0;" horiz-adv-x="370" 
d="M364 0h-344v712h344v-108h-178v-156h172v-108h-172v-232h178v-108zM86 807h-46l-103 99h81zM155 858h74l69 -99h-41l-65 51l-58 -51h-45z" />
    <glyph glyph-name="glyph314" unicode="&#x1ec1;" horiz-adv-x="426" 
d="M404 268h-224v-116q0 -54 33 -55t33 55v74h158v-84q0 -147 -191 -149q-80 -1 -132 35q-59 40 -59 117v273q0 83 56 124q50 37 135 37q191 0 191 -161v-150zM180 363h66v78q0 33 -33 34t-33 -34v-78zM116 662h-41l-93 89h73zM178 708h67l62 -89h-37l-58 46l-52 -46h-41z
" />
    <glyph glyph-name="glyph315" unicode="&#x1ec2;" horiz-adv-x="370" 
d="M364 0h-344v712h344v-108h-178v-156h172v-108h-172v-232h178v-108zM364 800h-62v36q0 33 30 60q14 13 14 29v22q0 18 -13 18t-13 -18v-47h-62v46q0 60 77 60q74 0 74 -61v-18q0 -30 -30 -62q-15 -16 -15 -34v-31zM156 859h74l69 -99h-41l-65 51l-58 -51h-45z" />
    <glyph glyph-name="glyph316" unicode="&#x1ec3;" horiz-adv-x="426" 
d="M404 268h-224v-116q0 -54 33 -55t33 55v74h158v-84q0 -147 -191 -149q-80 -1 -132 35q-59 40 -59 117v273q0 83 56 124q50 37 135 37q191 0 191 -161v-150zM180 363h66v78q0 33 -33 34t-33 -34v-78zM366 655h-56v32q0 31 25 54q15 14 15 26v20q0 15 -12 16q-11 0 -11 -16
v-42h-56v41q0 52 69 54q67 2 67 -55v-16q0 -27 -20.5 -49.5t-20.5 -36.5v-28zM179 708h67l62 -89h-37l-59 46l-52 -46h-40z" />
    <glyph glyph-name="glyph317" unicode="&#x1ec4;" horiz-adv-x="370" 
d="M364 0h-344v712h344v-108h-178v-156h172v-108h-172v-232h178v-108zM125 874h-32q-3 30 14 50.5t47 21.5q12 0 40 -9l3 -1q24 -8 30 -8q26 0 34 25h36q0 -30 -20 -52t-50 -23q-12 0 -38 8q-32 10 -36 10q-19 0 -28 -22zM156 858h74l69 -99h-41l-65 51l-58 -51h-45z" />
    <glyph glyph-name="glyph318" unicode="&#x1ec5;" horiz-adv-x="426" 
d="M404 268h-224v-116q0 -54 33 -55t33 55v74h158v-84q0 -147 -191 -149q-80 -1 -132 35q-59 40 -59 117v273q0 83 56 124q50 37 135 37q191 0 191 -161v-150zM180 363h66v78q0 33 -33 34t-33 -34v-78zM152 722h-29q-3 26 13 45t42 20q6 0 36 -8q15 -6 29 -8q15 0 20 4
t11 18h32q0 -28 -17.5 -47t-45.5 -20q-9 0 -19 2q-3 0 -18 6q-8 3 -29 8q-18 0 -25 -20zM180 708h66l62 -89h-37l-58 45l-52 -45h-41z" />
    <glyph glyph-name="glyph319" unicode="&#x1ec6;" horiz-adv-x="370" 
d="M364 0h-344v712h344v-108h-178v-156h172v-108h-172v-232h178v-108zM156 859h74l69 -99h-41l-65 51l-58 -51h-45zM248 -167h-109v118h109v-118z" />
    <glyph glyph-name="glyph320" unicode="&#x1ec7;" horiz-adv-x="426" 
d="M404 268h-224v-116q0 -54 33 -55t33 55v74h158v-84q0 -147 -191 -149q-80 -1 -132 35q-59 40 -59 117v273q0 83 56 124q50 37 135 37q191 0 191 -161v-150zM180 363h66v78q0 33 -33 34t-33 -34v-78zM262 -114h-98v63h98v-63zM180 706h67l62 -89h-37l-59 46l-52 -46h-40z
" />
    <glyph glyph-name="glyph321" unicode="&#x1ec8;" horiz-adv-x="204" 
d="M185 0h-166v712h166v-712zM134 767h-62v36q0 33 30 60q14 13 14 29v22q0 18 -13 18t-13 -18v-47h-62v46q0 60 77 60q74 0 74 -61v-18q0 -30 -30 -62q-15 -16 -15 -34v-31z" />
    <glyph glyph-name="glyph322" unicode="&#x1ec9;" horiz-adv-x="204" 
d="M181 0h-158v572h158v-572zM127 631h-56v32q0 31 25 54q15 14 15 26v20q0 16 -12 16t-12 -16v-42h-55v41q0 53 69 54q66 1 66 -55v-16q0 -23 -29 -60q-11 -14 -11 -26v-28z" />
    <glyph glyph-name="glyph323" unicode="&#x1eca;" horiz-adv-x="204" 
d="M185 0h-166v712h166v-712zM159 -167h-109v118h109v-118z" />
    <glyph glyph-name="glyph324" unicode="&#x1ecb;" horiz-adv-x="204" 
d="M181 0h-158v572h158v-572zM151 630h-98v63h98v-63zM154 -114h-98v63h98v-63z" />
    <glyph glyph-name="glyph325" unicode="&#x1ecc;" 
d="M188 556v-400q0 -56 44 -56t44 56v400q0 55 -44 56t-44 -56zM442 518v-324q0 -206 -210 -208t-210 208v324q0 206 210 208t210 -208zM285 -179h-109v118h109v-118z" />
    <glyph glyph-name="glyph326" unicode="&#x1ecd;" horiz-adv-x="426" 
d="M180 435v-298q0 -38 33 -40t33 40v298q0 40 -33 40t-33 -40zM404 418v-273q0 -78 -59 -118q-50 -34 -132 -34q-81 0 -132 35q-59 40 -59 117v273q0 83 56 124q50 37 135 37t135 -37q56 -42 56 -124zM262 -114h-98v63h98v-63z" />
    <glyph glyph-name="glyph327" unicode="&#x1ece;" 
d="M188 556v-400q0 -56 44 -56t44 56v400q0 55 -44 56t-44 -56zM442 518v-324q0 -206 -210 -208t-210 208v324q0 206 210 208t210 -208zM264 769h-62v36q0 33 30 60q14 13 14 29v22q0 18 -13 18t-13 -18v-47h-62v46q0 60 77 60q74 0 74 -61v-18q0 -30 -30 -62
q-15 -16 -15 -34v-31z" />
    <glyph glyph-name="glyph328" unicode="&#x1ecf;" horiz-adv-x="426" 
d="M180 435v-298q0 -38 33 -40t33 40v298q0 40 -33 40t-33 -40zM404 418v-273q0 -78 -59 -118q-50 -34 -132 -34q-81 0 -132 35q-59 40 -59 117v273q0 83 56 124q50 37 135 37t135 -37q56 -42 56 -124zM243 629h-56v32q0 31 25 54q15 14 15 26v20q0 16 -12 16t-12 -16v-42
h-55v41q0 53 69 54q66 1 66 -55v-16q0 -23 -29 -60q-11 -14 -11 -26v-28z" />
    <glyph glyph-name="glyph329" unicode="&#x1ed0;" 
d="M188 556v-400q0 -56 44 -56t44 56v400q0 55 -44 56t-44 -56zM442 518v-324q0 -206 -210 -208t-210 208v324q0 206 210 208t210 -208zM386 809h-47l69 99h80zM193 859h74l69 -99h-41l-65 51l-58 -51h-45z" />
    <glyph glyph-name="glyph330" unicode="&#x1ed1;" horiz-adv-x="426" 
d="M180 435v-298q0 -38 33 -40t33 40v298q0 40 -33 40t-33 -40zM404 418v-273q0 -78 -59 -118q-50 -34 -132 -34q-81 0 -132 35q-59 40 -59 117v273q0 83 56 124q50 37 135 37t135 -37q56 -42 56 -124zM354 663h-43l63 89h72zM180 708h67l62 -89h-37l-59 46l-52 -46h-40z
" />
    <glyph glyph-name="glyph331" unicode="&#x1ed2;" 
d="M188 556v-400q0 -56 44 -56t44 56v400q0 55 -44 56t-44 -56zM442 518v-324q0 -206 -210 -208t-210 208v324q0 206 210 208t210 -208zM126 799h-46l-103 99h81zM195 850h74l69 -99h-41l-65 51l-58 -51h-45z" />
    <glyph glyph-name="glyph332" unicode="&#x1ed3;" horiz-adv-x="426" 
d="M180 435v-298q0 -38 33 -40t33 40v298q0 40 -33 40t-33 -40zM404 418v-273q0 -78 -59 -118q-50 -34 -132 -34q-81 0 -132 35q-59 40 -59 117v273q0 83 56 124q50 37 135 37t135 -37q56 -42 56 -124zM116 662h-41l-93 89h73zM178 708h67l62 -89h-37l-58 46l-52 -46h-41z
" />
    <glyph glyph-name="glyph333" unicode="&#x1ed4;" 
d="M188 556v-400q0 -56 44 -56t44 56v400q0 55 -44 56t-44 -56zM442 518v-324q0 -206 -210 -208t-210 208v324q0 206 210 208t210 -208zM401 800h-62v36q0 33 30 60q14 13 14 29v22q0 18 -13 18t-13 -18v-47h-62v46q0 60 77 60q74 0 74 -61v-18q0 -30 -30 -62
q-15 -16 -15 -34v-31zM193 859h74l69 -99h-41l-65 51l-58 -51h-45z" />
    <glyph glyph-name="glyph334" unicode="&#x1ed5;" horiz-adv-x="426" 
d="M180 435v-298q0 -38 33 -40t33 40v298q0 40 -33 40t-33 -40zM404 418v-273q0 -78 -59 -118q-50 -34 -132 -34q-81 0 -132 35q-59 40 -59 117v273q0 83 56 124q50 37 135 37t135 -37q56 -42 56 -124zM366 655h-56v32q0 31 25 54q15 14 15 26v20q0 15 -12 16q-11 0 -11 -16
v-42h-56v41q0 52 69 54q67 2 67 -55v-16q0 -27 -20.5 -49.5t-20.5 -36.5v-28zM179 708h67l62 -89h-37l-59 46l-52 -46h-40z" />
    <glyph glyph-name="glyph335" unicode="&#x1ed6;" 
d="M188 556v-400q0 -56 44 -56t44 56v400q0 55 -44 56t-44 -56zM442 518v-324q0 -206 -210 -208t-210 208v324q0 206 210 208t210 -208zM163 874h-32q-3 30 14 50.5t47 21.5q12 0 40 -9l3 -1q24 -8 30 -8q26 0 34 25h36q0 -30 -20 -52t-50 -23q-12 0 -38 8q-32 10 -36 10
q-19 0 -28 -22zM194 858h74l69 -99h-41l-65 51l-58 -51h-45z" />
    <glyph glyph-name="glyph336" unicode="&#x1ed7;" horiz-adv-x="426" 
d="M180 435v-298q0 -38 33 -40t33 40v298q0 40 -33 40t-33 -40zM404 418v-273q0 -78 -59 -118q-50 -34 -132 -34q-81 0 -132 35q-59 40 -59 117v273q0 83 56 124q50 37 135 37t135 -37q56 -42 56 -124zM152 722h-29q-3 26 13 45t42 20q6 0 36 -8q15 -6 29 -8q15 0 20 4
t11 18h32q0 -28 -17.5 -47t-45.5 -20q-9 0 -19 2q-3 0 -18 6q-8 3 -29 8q-18 0 -25 -20zM180 708h66l62 -89h-37l-58 45l-52 -45h-41z" />
    <glyph glyph-name="glyph337" unicode="&#x1ed8;" 
d="M188 556v-400q0 -56 44 -56t44 56v400q0 55 -44 56t-44 -56zM442 518v-324q0 -206 -210 -208t-210 208v324q0 206 210 208t210 -208zM193 859h74l69 -99h-41l-65 51l-58 -51h-45zM285 -179h-109v118h109v-118z" />
    <glyph glyph-name="glyph338" unicode="&#x1ed9;" horiz-adv-x="426" 
d="M180 435v-298q0 -38 33 -40t33 40v298q0 40 -33 40t-33 -40zM404 418v-273q0 -78 -59 -118q-50 -34 -132 -34q-81 0 -132 35q-59 40 -59 117v273q0 83 56 124q50 37 135 37t135 -37q56 -42 56 -124zM180 707h67l62 -89h-37l-59 46l-52 -46h-40zM262 -114h-98v63h98v-63z
" />
    <glyph glyph-name="glyph339" unicode="&#x1eda;" 
d="M188 556v-400q0 -56 44 -56t44 56v400q0 55 -44 56t-44 -56zM359 696q22 13 23 34q0 16 -24 20q-17 0 -32 -5v25q4 1 31 4q60 0 60 -38q0 -35 -44 -49q69 -50 69 -169v-324q0 -206 -210 -208t-210 208v324q0 206 210 208q78 1 127 -30zM255 774h-47l69 99h80z" />
    <glyph glyph-name="glyph340" unicode="&#x1edb;" horiz-adv-x="419" 
d="M180 435v-298q0 -38 33 -40t33 40v298q0 40 -33 40t-33 -40zM339 549q10 5 20 15q5 7 7 21q0 16 -24 20q-17 0 -32 -5v25q4 1 31 4q60 0 60 -38q0 -43 -51 -50q54 -40 54 -123v-273q0 -78 -59 -118q-50 -34 -132 -34q-81 0 -132 35q-59 40 -59 117v273q0 83 56 124
q50 37 135 37q78 0 126 -30zM238 645h-42l62 89h72z" />
    <glyph glyph-name="glyph341" unicode="&#x1edc;" 
d="M188 556v-400q0 -56 44 -56t44 56v400q0 55 -44 56t-44 -56zM359 696q22 13 23 34q0 16 -24 20q-17 0 -32 -5v25q4 1 31 4q60 0 60 -38q0 -35 -44 -49q69 -50 69 -169v-324q0 -206 -210 -208t-210 208v324q0 206 210 208q78 1 127 -30zM257 774h-46l-103 99h81z" />
    <glyph glyph-name="glyph342" unicode="&#x1edd;" horiz-adv-x="419" 
d="M180 435v-298q0 -38 33 -40t33 40v298q0 40 -33 40t-33 -40zM339 549q10 5 20 15q5 7 7 21q0 16 -24 20q-17 0 -32 -5v25q4 1 31 4q60 0 60 -38q0 -43 -51 -50q54 -40 54 -123v-273q0 -78 -59 -118q-50 -34 -132 -34q-81 0 -132 35q-59 40 -59 117v273q0 83 56 124
q50 37 135 37q78 0 126 -30zM236 645h-41l-93 89h73z" />
    <glyph glyph-name="glyph343" unicode="&#x1ede;" 
d="M188 556v-400q0 -56 44 -56t44 56v400q0 55 -44 56t-44 -56zM359 696q22 13 23 34q0 16 -24 20q-17 0 -32 -5v25q4 1 31 4q60 0 60 -38q0 -35 -44 -49q69 -50 69 -169v-324q0 -206 -210 -208t-210 208v324q0 206 210 208q78 1 127 -30zM264 774h-62v36q0 33 30 60
q14 13 14 29v22q0 18 -13 18t-13 -18v-47h-62v46q0 60 77 60q74 0 74 -61v-18q0 -30 -30 -62q-15 -16 -15 -34v-31z" />
    <glyph glyph-name="glyph344" unicode="&#x1edf;" horiz-adv-x="419" 
d="M180 435v-298q0 -38 33 -40t33 40v298q0 40 -33 40t-33 -40zM339 549q10 5 20 15q5 7 7 21q0 16 -24 20q-17 0 -32 -5v25q4 1 31 4q60 0 60 -38q0 -43 -51 -50q54 -40 54 -123v-273q0 -78 -59 -118q-50 -34 -132 -34q-81 0 -132 35q-59 40 -59 117v273q0 83 56 124
q50 37 135 37q78 0 126 -30zM243 634h-56v32q0 31 25 54q15 14 15 26v20q0 16 -12 16t-12 -16v-42h-55v41q0 53 69 54q66 1 66 -55v-16q0 -23 -29 -60q-11 -14 -11 -26v-28z" />
    <glyph glyph-name="glyph345" unicode="&#x1ee0;" 
d="M188 556v-400q0 -56 44 -56t44 56v400q0 55 -44 56t-44 -56zM359 696q22 13 23 34q0 16 -24 20q-17 0 -32 -5v25q4 1 31 4q60 0 60 -38q0 -35 -44 -49q69 -50 69 -169v-324q0 -206 -210 -208t-210 208v324q0 206 210 208q78 1 127 -30zM161 779h-32q-3 30 14 50.5
t47 21.5q12 0 40 -9l3 -1q24 -8 30 -8q26 0 34 25h36q0 -30 -20 -52t-50 -23q-12 0 -38 8q-32 10 -36 10q-19 0 -28 -22z" />
    <glyph glyph-name="glyph346" unicode="&#x1ee1;" horiz-adv-x="419" 
d="M180 435v-298q0 -38 33 -40t33 40v298q0 40 -33 40t-33 -40zM339 549q10 5 20 15q5 7 7 21q0 16 -24 20q-17 0 -32 -5v25q4 1 31 4q60 0 60 -38q0 -43 -51 -50q54 -40 54 -123v-273q0 -78 -59 -118q-50 -34 -132 -34q-81 0 -132 35q-59 40 -59 117v273q0 83 56 124
q50 37 135 37q78 0 126 -30zM155 645h-29q-3 26 13 45t42 20q6 0 36 -8q15 -6 29 -8q15 0 20 4t11 18h32q0 -28 -17.5 -47t-45.5 -20q-9 0 -19 2q-3 0 -18 6q-8 3 -29 8q-18 0 -25 -20z" />
    <glyph glyph-name="glyph347" unicode="&#x1ee2;" 
d="M188 556v-400q0 -56 44 -56t44 56v400q0 55 -44 56t-44 -56zM359 696q22 13 23 34q0 16 -24 20q-17 0 -32 -5v25q4 1 31 4q60 0 60 -38q0 -35 -44 -49q69 -50 69 -169v-324q0 -206 -210 -208t-210 208v324q0 206 210 208q78 1 127 -30zM285 -179h-109v118h109v-118z" />
    <glyph glyph-name="glyph348" unicode="&#x1ee3;" horiz-adv-x="419" 
d="M180 435v-298q0 -38 33 -40t33 40v298q0 40 -33 40t-33 -40zM339 549q10 5 20 15q5 7 7 21q0 16 -24 20q-17 0 -32 -5v25q4 1 31 4q60 0 60 -38q0 -43 -51 -50q54 -40 54 -123v-273q0 -78 -59 -118q-50 -34 -132 -34q-81 0 -132 35q-59 40 -59 117v273q0 83 56 124
q50 37 135 37q78 0 126 -30zM262 -114h-98v63h98v-63z" />
    <glyph glyph-name="glyph349" unicode="&#x1ee4;" 
d="M442 712v-509q0 -115 -48.5 -166t-162.5 -51q-134 0 -181 82q-28 49 -28 151v493h166v-513q0 -53 2 -63q7 -35 41 -36q30 -1 39 28q6 19 6 71v513h166zM285 -179h-109v118h109v-118z" />
    <glyph glyph-name="glyph350" unicode="&#x1ee5;" horiz-adv-x="426" 
d="M246 0v71q-24 -77 -117 -78q-107 -1 -107 131v448h158v-397q0 -27 3 -36q7 -15 29 -16q34 -1 34 52v397h158v-572h-158zM262 -114h-98v63h98v-63z" />
    <glyph glyph-name="glyph351" unicode="&#x1ee6;" 
d="M442 712v-509q0 -115 -48.5 -166t-162.5 -51q-134 0 -181 82q-28 49 -28 151v493h166v-513q0 -53 2 -63q7 -35 41 -36q30 -1 39 28q6 19 6 71v513h166zM263 760h-62v36q0 33 30 60q14 13 14 29v22q0 18 -13 18t-13 -18v-47h-62v46q0 60 77 60q74 0 74 -61v-18
q0 -30 -30 -62q-15 -16 -15 -34v-31z" />
    <glyph glyph-name="glyph352" unicode="&#x1ee7;" horiz-adv-x="426" 
d="M246 0v71q-24 -77 -117 -78q-107 -1 -107 131v448h158v-397q0 -27 3 -36q7 -15 29 -16q34 -1 34 52v397h158v-572h-158zM243 629h-56v32q0 31 25 54q15 14 15 26v20q0 16 -12 16t-12 -16v-42h-55v41q0 53 69 54q66 1 66 -55v-16q0 -23 -29 -60q-11 -14 -11 -26v-28z" />
    <glyph glyph-name="glyph353" unicode="&#x1ee8;" 
d="M442 694v-491q0 -115 -48.5 -166t-162.5 -51q-134 0 -181 82q-28 49 -28 151v493h166v-513q0 -53 2 -63q7 -35 41 -36q30 -1 39 28q6 19 6 71v513h152q3 5 5 18q0 16 -24 20q-17 0 -32 -5v25q4 1 31 4q60 0 60 -38q0 -28 -26 -42zM257 769h-47l69 99h80z" />
    <glyph glyph-name="glyph354" unicode="&#x1ee9;" horiz-adv-x="426" 
d="M404 544v-544h-158v71q-24 -77 -117 -78q-107 -1 -107 131v448h158v-397q0 -27 3 -36q7 -15 29 -16q34 -1 34 52v397h158l3 13q0 16 -24 20q-17 0 -32 -5v25q4 1 31 4q60 0 60 -38q0 -33 -38 -47zM235 634h-42l62 89h72z" />
    <glyph glyph-name="glyph355" unicode="&#x1eea;" 
d="M442 694v-491q0 -115 -48.5 -166t-162.5 -51q-134 0 -181 82q-28 49 -28 151v493h166v-513q0 -53 2 -63q7 -35 41 -36q30 -1 39 28q6 19 6 71v513h152q3 5 5 18q0 16 -24 20q-17 0 -32 -5v25q4 1 31 4q60 0 60 -38q0 -28 -26 -42zM255 769h-46l-103 99h81z" />
    <glyph glyph-name="glyph356" unicode="&#x1eeb;" horiz-adv-x="426" 
d="M404 544v-544h-158v71q-24 -77 -117 -78q-107 -1 -107 131v448h158v-397q0 -27 3 -36q7 -15 29 -16q34 -1 34 52v397h158l3 13q0 16 -24 20q-17 0 -32 -5v25q4 1 31 4q60 0 60 -38q0 -33 -38 -47zM236 634h-41l-93 89h73z" />
    <glyph glyph-name="glyph357" unicode="&#x1eec;" 
d="M442 694v-491q0 -115 -48.5 -166t-162.5 -51q-134 0 -181 82q-28 49 -28 151v493h166v-513q0 -53 2 -63q7 -35 41 -36q30 -1 39 28q6 19 6 71v513h152q3 5 5 18q0 16 -24 20q-17 0 -32 -5v25q4 1 31 4q60 0 60 -38q0 -28 -26 -42zM263 769h-62v36q0 33 30 60q14 13 14 29
v22q0 18 -13 18t-13 -18v-47h-62v46q0 60 77 60q74 0 74 -61v-18q0 -30 -30 -62q-15 -16 -15 -34v-31z" />
    <glyph glyph-name="glyph358" unicode="&#x1eed;" horiz-adv-x="426" 
d="M404 544v-544h-158v71q-24 -77 -117 -78q-107 -1 -107 131v448h158v-397q0 -27 3 -36q7 -15 29 -16q34 -1 34 52v397h158l3 13q0 16 -24 20q-17 0 -32 -5v25q4 1 31 4q60 0 60 -38q0 -33 -38 -47zM243 634h-56v32q0 31 25 54q15 14 15 26v20q0 16 -12 16t-12 -16v-42h-55
v41q0 53 69 54q66 1 66 -55v-16q0 -23 -29 -60q-11 -14 -11 -26v-28z" />
    <glyph glyph-name="glyph359" unicode="&#x1eee;" 
d="M442 694v-491q0 -115 -48.5 -166t-162.5 -51q-134 0 -181 82q-28 49 -28 151v493h166v-513q0 -53 2 -63q7 -35 41 -36q30 -1 39 28q6 19 6 71v513h152q3 5 5 18q0 16 -24 20q-17 0 -32 -5v25q4 1 31 4q60 0 60 -38q0 -28 -26 -42zM162 771h-32q-3 30 14 50.5t47 21.5
q12 0 40 -9l3 -1q24 -8 30 -8q26 0 34 25h36q0 -30 -20 -52t-50 -23q-12 0 -38 8q-32 10 -36 10q-19 0 -28 -22z" />
    <glyph glyph-name="glyph360" unicode="&#x1eef;" horiz-adv-x="426" 
d="M404 544v-544h-158v71q-24 -77 -117 -78q-107 -1 -107 131v448h158v-397q0 -27 3 -36q7 -15 29 -16q34 -1 34 52v397h158l3 13q0 16 -24 20q-17 0 -32 -5v25q4 1 31 4q60 0 60 -38q0 -33 -38 -47zM155 640h-29q-3 26 13 45t42 20q6 0 36 -8q15 -6 29 -8q15 0 20 4t11 18
h32q0 -28 -17.5 -47t-45.5 -20q-9 0 -19 2q-3 0 -18 6q-8 3 -29 8q-18 0 -25 -20z" />
    <glyph glyph-name="glyph361" unicode="&#x1ef0;" 
d="M442 694v-491q0 -115 -48.5 -166t-162.5 -51q-134 0 -181 82q-28 49 -28 151v493h166v-513q0 -53 2 -63q7 -35 41 -36q30 -1 39 28q6 19 6 71v513h152q3 5 5 18q0 16 -24 20q-17 0 -32 -5v25q4 1 31 4q60 0 60 -38q0 -28 -26 -42zM285 -179h-109v118h109v-118z" />
    <glyph glyph-name="glyph362" unicode="&#x1ef1;" horiz-adv-x="426" 
d="M404 544v-544h-158v71q-24 -77 -117 -78q-107 -1 -107 131v448h158v-397q0 -27 3 -36q7 -15 29 -16q34 -1 34 52v397h158l3 13q0 16 -24 20q-17 0 -32 -5v25q4 1 31 4q60 0 60 -38q0 -33 -38 -47zM262 -114h-98v63h98v-63z" />
    <glyph glyph-name="glyph363" unicode="&#x1ef2;" 
d="M149 0v262l-141 450h162l61 -283l63 283h162l-141 -450v-262h-166zM261 758h-46l-103 99h81z" />
    <glyph glyph-name="glyph364" unicode="&#x1ef3;" horiz-adv-x="426" 
d="M12 572h160l53 -395l55 395h133l-128 -603q-21 -97 -128 -97h-127v104h82q27 0 28 16q0 6 -4 25zM246 619h-41l-93 89h73z" />
    <glyph glyph-name="glyph365" unicode="&#x1ef4;" 
d="M149 0v262l-141 450h162l61 -283l63 283h162l-141 -450v-262h-166zM290 -167h-109v118h109v-118z" />
    <glyph glyph-name="glyph366" unicode="&#x1ef5;" horiz-adv-x="426" 
d="M12 572h160l53 -395l55 395h133l-128 -603q-21 -97 -128 -97h-127v104h82q27 0 28 16q0 6 -4 25zM416 -114h-98v63h98v-63z" />
    <glyph glyph-name="glyph367" unicode="&#x1ef6;" 
d="M149 0v262l-141 450h162l61 -283l63 283h162l-141 -450v-262h-166zM266 760h-62v36q0 33 30 60q14 13 14 29v22q0 18 -13 18t-13 -18v-47h-62v46q0 60 77 60q74 0 74 -61v-18q0 -30 -30 -62q-15 -16 -15 -34v-31z" />
    <glyph glyph-name="glyph368" unicode="&#x1ef7;" horiz-adv-x="426" 
d="M12 572h160l53 -395l55 395h133l-128 -603q-21 -97 -128 -97h-127v104h82q27 0 28 16q0 6 -4 25zM253 619h-56v32q0 31 25 54q15 14 15 26v20q0 16 -12 16t-12 -16v-42h-55v41q0 53 69 54q66 1 66 -55v-16q0 -23 -29 -60q-11 -14 -11 -26v-28z" />
    <glyph glyph-name="glyph369" unicode="&#x1ef8;" 
d="M149 0v262l-141 450h162l61 -283l63 283h162l-141 -450v-262h-166zM166 769h-32q-3 30 14 50.5t47 21.5q12 0 40 -9l3 -1q24 -8 30 -8q26 0 34 25h36q0 -30 -20 -52t-50 -23q-12 0 -38 8q-32 10 -36 10q-19 0 -28 -22z" />
    <glyph glyph-name="glyph370" unicode="&#x1ef9;" horiz-adv-x="426" 
d="M12 572h160l53 -395l55 395h133l-128 -603q-21 -97 -128 -97h-127v104h82q27 0 28 16q0 6 -4 25zM157 630h-29q-3 26 13 45t42 20q6 0 36 -8q15 -6 29 -8q15 0 20 4t11 18h32q0 -28 -17.5 -47t-45.5 -20q-9 0 -19 2q-3 0 -18 6q-8 3 -29 8q-18 0 -25 -20z" />
    <glyph glyph-name="endash" unicode="&#x2013;" horiz-adv-x="500" 
d="M0 374h500v-112h-500v112z" />
    <glyph glyph-name="emdash" unicode="&#x2014;" horiz-adv-x="1000" 
d="M1000 262h-1000v112h1000v-112z" />
    <glyph glyph-name="quoteleft" unicode="&#x2018;" horiz-adv-x="204" 
d="M12 712h147l33 -251h-101z" />
    <glyph glyph-name="quoteright" unicode="&#x2019;" horiz-adv-x="204" 
d="M45 712h147l-79 -251h-101z" />
    <glyph glyph-name="quotesinglbase" unicode="&#x201a;" horiz-adv-x="204" 
d="M45 156h147l-79 -251h-101z" />
    <glyph glyph-name="quotedblleft" unicode="&#x201c;" horiz-adv-x="426" 
d="M237 712h147l33 -251h-101zM33 712h147l33 -251h-101z" />
    <glyph glyph-name="quotedblright" unicode="&#x201d;" horiz-adv-x="426" 
d="M246 712h147l-79 -251h-101zM42 712h147l-79 -251h-101z" />
    <glyph glyph-name="quotedblbase" unicode="&#x201e;" horiz-adv-x="426" 
d="M246 156h147l-79 -251h-101zM42 156h147l-79 -251h-101z" />
    <glyph glyph-name="dagger" unicode="&#x2020;" horiz-adv-x="426" 
d="M146 395h-126v120h126v197h135v-197h125v-120h-125v-459h-135v459z" />
    <glyph glyph-name="daggerdbl" unicode="&#x2021;" horiz-adv-x="426" 
d="M146 117h-126v120h126v172h-126v120h126v183h135v-183h125v-120h-125v-172h125v-120h-125v-181h-135v181z" />
    <glyph glyph-name="bullet" unicode="&#x2022;" horiz-adv-x="500" 
d="M428 356q0 -74 -52 -126t-126 -52t-126 51.5t-52 126.5q0 74 51.5 126t126.5 52q74 0 126 -52t52 -126z" />
    <glyph glyph-name="ellipsis" unicode="&#x2026;" horiz-adv-x="1000" 
d="M244 0h-155v168h155v-168zM577 0h-155v168h155v-168zM910 0h-155v168h155v-168z" />
    <glyph glyph-name="perthousand" unicode="&#x2030;" horiz-adv-x="759" 
d="M75 -14l292 740h62l-291 -740h-63zM103 625v-167q0 -25 21 -25q22 0 22 25v167q0 25 -22 25q-21 0 -21 -25zM14 462v159q0 91 110 91q111 0 111 -91v-159q0 -91 -111 -91q-110 0 -110 91zM360 254v-167q0 -25 21 -25q22 0 22 25v167q0 25 -22 25q-21 0 -21 -25zM271 91
v159q0 91 110 91q111 0 111 -91v-159q0 -91 -111 -91q-110 0 -110 91zM613 254v-167q0 -25 21 -25q22 0 22 25v167q0 25 -22 25q-21 0 -21 -25zM524 91v159q0 91 110 91q111 0 111 -91v-159q0 -91 -111 -91q-110 0 -110 91z" />
    <glyph glyph-name="guilsinglleft" unicode="&#x2039;" horiz-adv-x="204" 
d="M189 99l-151 152v134l151 152v-144l-75 -75l75 -75v-144z" />
    <glyph glyph-name="guilsinglright" unicode="&#x203a;" horiz-adv-x="204" 
d="M15 99v144l75 75l-75 75v144l151 -152v-134z" />
    <glyph glyph-name="fraction" unicode="&#x2044;" horiz-adv-x="130" 
d="M-120 -14l297 740h73l-297 -740h-73z" />
    <glyph glyph-name="franc" unicode="&#x20a3;" horiz-adv-x="1035" 
d="M186 0h-166v712h344v-108h-178v-156h172v-108h-172v-340zM832 572v-75h3q34 82 114 82q107 0 107 -112v-204h-158v139q0 47 -33 47t-33 -47v-402h-158v572h158z" />
    <glyph glyph-name="u20AB" unicode="&#x20ab;" horiz-adv-x="393" 
d="M197 501q-48 0 -84 -88q-20 -49 -20 -90q0 -51 39 -51q41 0 74 71q28 60 28 107q0 51 -37 51zM200 267q-53 -62 -106 -62q-45 0 -68 28t-23 74q0 80 55 153q59 78 136 78q34 0 61 -24l20 75h-100l10 36h100l2 16q0 31 -48 32l7 33q67 2 128 14l15 3q6 0 6 -9l-3 -12
l-19 -77h65l-10 -36h-65l-69 -280q-5 -20 -5 -27q0 -15 12 -15q6 0 49 42l20 -18q-70 -86 -117 -86q-43 0 -53 62zM9 160h221v-56h-221v56z" />
    <glyph glyph-name="trademark" unicode="&#x2122;" horiz-adv-x="1000" 
d="M380 712v-90h-112v-322h-120v322h-112v90h344zM630 712l89 -239l89 239h156v-412h-108v270h-2l-91 -270h-88l-91 270h-2v-270h-108v412h156z" />
    <glyph glyph-name="minus" unicode="&#x2212;" horiz-adv-x="600" 
d="M554 218h-508v136h508v-136z" />
    <glyph glyph-name="SF370000" unicode="&#x255f;" horiz-adv-x="718" 
d="M196 283h60l-29 317h-2zM132 712h228l92 -712h-165l-19 175h-90l-27 -175h-140z" />
    <glyph glyph-name="SF420000" unicode="&#x2560;" horiz-adv-x="681" 
d="M364 0h-344v712h344v-108h-178v-156h172v-108h-172v-232h178v-108z" />
    <glyph glyph-name="SF190000" unicode="&#x2561;" horiz-adv-x="429" 
d="M185 0h-166v712h166v-712z" />
    <glyph glyph-name="SF200000" unicode="&#x2562;" horiz-adv-x="773" 
d="M188 556v-400q0 -56 44 -56t44 56v400q0 56 -44 56t-44 -56zM442 518v-324q0 -208 -210 -208t-210 208v324q0 208 210 208t210 -208z" />
    <glyph glyph-name="SF230000" unicode="&#x2563;" horiz-adv-x="811" 
d="M442 712v-509q0 -115 -48 -166t-163 -51q-134 0 -181 83q-28 49 -28 150v493h166v-513q0 -53 5 -71q9 -28 38 -28q30 0 39 28q6 18 6 71v513h166z" />
    <glyph glyph-name="SF470000" unicode="&#x2564;" horiz-adv-x="699" 
d="M149 0v262l-141 450h162l61 -283h2l61 283h162l-141 -450v-262h-166z" />
    <glyph glyph-name="SF480000" unicode="&#x2565;" horiz-adv-x="541" 
d="M180 209v-62q0 -30 29 -30q23 0 30 16t7 57v99q-22 -16 -45 -31q-21 -20 -21 -49zM246 0v67h-2q-34 -74 -111 -74q-52 0 -81.5 30.5t-29.5 86.5v85q0 64 58 105l108 58q58 32 58 75q0 42 -33 42t-33 -42v-63h-158v53q0 80 60 121q51 35 131 35t131 -35q60 -41 60 -121
v-423h-158z" />
    <glyph glyph-name="SF410000" unicode="&#x2566;" horiz-adv-x="431" 
d="M404 268h-224v-116q0 -55 33 -55t33 55v74h158v-84q0 -149 -191 -149q-82 0 -133 36q-58 41 -58 116v273q0 77 49.5 119t141.5 42q191 0 191 -161v-150zM180 363h66v78q0 34 -33 34t-33 -34v-78z" />
    <glyph glyph-name="SF450000" unicode="&#x2567;" horiz-adv-x="314" 
d="M181 0h-158v572h158v-572zM181 611h-158v101h158v-101z" />
    <glyph glyph-name="SF460000" unicode="&#x2568;" horiz-adv-x="314" 
d="M181 0h-158v572h158v-572z" />
    <glyph glyph-name="SF400000" unicode="&#x2569;" horiz-adv-x="498" 
d="M180 435v-298q0 -40 33 -40t33 40v298q0 40 -33 40t-33 -40zM404 418v-273q0 -75 -58 -116q-51 -36 -133 -36t-133 36q-58 41 -58 116v273q0 77 49.5 119t141.5 42t141.5 -42t49.5 -119z" />
    <glyph glyph-name="SF540000" unicode="&#x256a;" horiz-adv-x="557" 
d="M246 0v71h-2q-23 -78 -115 -78q-107 0 -107 131v448h158v-397q0 -52 32 -52q34 0 34 52v397h158v-572h-158z" />
    <glyph glyph-name="SF530000" unicode="&#x256b;" horiz-adv-x="497" 
d="M12 572h160l53 -395h2l53 395h133l-128 -603q-21 -97 -128 -97h-127v104h82q28 0 28 16q0 7 -4 25z" />
    <glyph glyph-name="circle" unicode="&#x25cb;" horiz-adv-x="718" 
d="M274 1012h106l99 -141h-59l-93 73l-82 -73h-65zM299 1059h-67l98 141h115z" />
    <glyph glyph-name="H18533" unicode="&#x25cf;" horiz-adv-x="718" 
d="M274 1012h106l99 -141h-59l-93 73l-82 -73h-65zM485 1060h-67l-146 141h115z" />
    <glyph glyph-name="invbullet" unicode="&#x25d8;" horiz-adv-x="718" 
d="M274 1012h106l99 -141h-59l-93 73l-82 -73h-65zM614 903q9 29 11 64q1 11 8 13q3 0 8 1q67 11 67 54q0 35 -28 35q-5 0 -14 -1t-14 -1q-21 0 -21 18q0 28 32 28q46 0 76 -25.5t26 -70.5q-6 -59 -87 -81q-25 -7 -31 -34h-33z" />
    <glyph glyph-name="invcircle" unicode="&#x25d9;" horiz-adv-x="718" 
d="M274 1012h106l99 -141h-59l-93 73l-82 -73h-65zM277 1073v0h-46q-5 40 21 71t66 31q21 0 56 -12.5t49 -12.5q22 0 31 7.5t17 28.5h51q2 -43 -27.5 -75.5t-72.5 -32.5q-22 0 -58 13t-47 13q-29 0 -40 -31z" />
    <glyph glyph-name="fi" unicode="&#xf001;" horiz-adv-x="463" 
d="M437 0h-158v572h158v-572zM437 611h-158v101h158v-101zM42 468h-35v104h35v37q0 39 24 68q28 35 78 35h101v-104q-45 0 -45 -36h45v-104h-45v-468h-158v468z" />
    <glyph glyph-name="fl" unicode="&#xf002;" horiz-adv-x="463" 
d="M437 0h-158v712h158v-712zM42 468h-35v104h35v37q0 39 24 68q28 35 78 35h101v-104q-45 0 -45 -36h45v-104h-45v-468h-158v468z" />
    <glyph glyph-name="periodcentered" horiz-adv-x="232" 
d="M116 370q34 0 58.5 -24.5t24.5 -59.5q0 -34 -24.5 -58t-58.5 -24q-35 0 -59 24t-24 58q0 35 24 59.5t59 24.5z" />
    <glyph glyph-name="glyph231" horiz-adv-x="278" 
 />
    <glyph glyph-name="glyph232" horiz-adv-x="278" 
 />
    <glyph glyph-name="glyph275" horiz-adv-x="249" 
 />
    <glyph glyph-name="glyph276" horiz-adv-x="249" 
 />
    <glyph glyph-name="glyph261" horiz-adv-x="500" 
d="M253 522q9 29 11 64q1 11 8 13q3 0 8 1q67 11 67 54q0 35 -28 35q-5 0 -14 -1t-14 -1q-21 0 -21 18q0 28 32 28q46 0 76 -25.5t26 -70.5q-6 -59 -87 -81q-25 -7 -31 -34h-33z" />
    <glyph glyph-name="glyph262" horiz-adv-x="541" 
d="M71 780h106l99 -141h-59l-93 73l-82 -73h-65zM95 828h-67l98 141h115z" />
    <glyph glyph-name="glyph263" horiz-adv-x="541" 
d="M71 780h106l99 -141h-59l-93 73l-82 -73h-65zM282 828h-67l-146 141h115z" />
    <glyph glyph-name="glyph264" horiz-adv-x="541" 
d="M71 780h106l99 -141h-59l-93 73l-82 -73h-65zM411 671q9 29 11 64q1 11 8 13q3 0 8 1q67 11 67 54q0 35 -28 35q-5 0 -14 -1t-14 -1q-21 0 -21 18q0 28 32 28q46 0 76 -25.5t26 -70.5q-6 -59 -87 -81q-25 -7 -31 -34h-33z" />
    <glyph glyph-name="glyph265" horiz-adv-x="541" 
d="M71 780h106l99 -141h-59l-93 73l-82 -73h-65zM74 841v0h-46q-5 40 21 71t66 31q21 0 56 -12.5t49 -12.5q22 0 31 7.5t17 28.5h51q2 -43 -27.5 -75.5t-72.5 -32.5q-22 0 -58 13t-47 13q-29 0 -40 -31z" />
    <glyph glyph-name="glyph266" horiz-adv-x="541" 
d="M-14 772h56q9 -55 95 -55q73 0 84 55h58q0 -66 -44 -101q-40 -32 -108 -32q-61 0 -101 36t-40 97zM174 828h-67l98 141h115z" />
    <glyph glyph-name="glyph267" horiz-adv-x="541" 
d="M-14 772h56q9 -55 95 -55q73 0 84 55h58q0 -66 -44 -101q-40 -32 -108 -32q-61 0 -101 36t-40 97zM229 828h-67l-146 141h115z" />
    <glyph glyph-name="glyph268" horiz-adv-x="541" 
d="M-14 772h56q9 -55 95 -55q73 0 84 55h58q0 -66 -44 -101q-40 -32 -108 -32q-61 0 -101 36t-40 97zM306 671q9 29 11 64q1 11 8 13q3 0 8 1q67 11 67 54q0 35 -28 35q-5 0 -14 -1t-14 -1q-21 0 -21 18q0 28 32 28q46 0 76 -25.5t26 -70.5q-6 -59 -87 -81q-25 -7 -31 -34
h-33z" />
    <glyph glyph-name="glyph269" horiz-adv-x="541" 
d="M-14 772h56q9 -55 95 -55q73 0 84 55h58q0 -66 -44 -101q-40 -32 -108 -32q-61 0 -101 36t-40 97zM74 841v0h-46q-5 40 21 71t66 31q21 0 56 -12.5t49 -12.5q22 0 31 7.5t17 28.5h51q2 -43 -27.5 -75.5t-72.5 -32.5q-22 0 -58 13t-47 13q-29 0 -40 -31z" />
    <glyph glyph-name="glyph270" horiz-adv-x="249" 
 />
  </font>
</defs>
</svg>
