<?xml version="1.0" standalone="no"?>
<!DOCTYPE svg PUBLIC "-//W3C//DTD SVG 1.1//EN" "http://www.w3.org/Graphics/SVG/1.1/DTD/svg11.dtd" >
<svg xmlns="http://www.w3.org/2000/svg" xmlns:xlink="http://www.w3.org/1999/xlink" version="1.1">
<metadata>
Created by FontForge 20161003 at Fri Jun  8 10:05:47 2018
 By www-data
Copyright (c) 2010 by Suomi Type Foundry, Suomi Finland. All rights reserved.
</metadata>
<defs>
<font id="UVFCiderScript" horiz-adv-x="313" >
  <font-face 
    font-family="UVFCiderScript"
    font-weight="500"
    font-stretch="normal"
    units-per-em="1000"
    panose-1="2 0 6 6 3 0 0 2 0 4"
    ascent="750"
    descent="-250"
    x-height="453"
    cap-height="647"
    bbox="-364 -247 1209 986.615"
    underline-thickness="20"
    underline-position="-160"
    unicode-range="U+0020-FB06"
  />
<missing-glyph horiz-adv-x="500" 
 />
    <glyph glyph-name="fi" unicode="fi" horiz-adv-x="412" 
d="M489 570q22 0 37.5 -13.5t15.5 -35.5t-15.5 -35.5t-37.5 -13.5t-37.5 13.5t-15.5 35.5t15.5 35.5t37.5 13.5zM324 306q10 25 21 51t21.5 47.5t20 35t15.5 13.5q31 0 48 -12.5t17 -26.5q0 -19 -12 -41q-19 -35 -39 -78t-37 -87t-29.5 -85.5t-16.5 -71.5q26 1 57.5 21.5
t50.5 56.5q4 0 8.5 -2.5t4.5 -7.5q-7 -16 -22.5 -37t-37.5 -40t-47.5 -32.5t-52.5 -13.5q-28 0 -37 14.5t-9 28.5q0 15 3.5 35.5t9.5 44.5t13.5 49.5t15.5 50.5q-16 -19 -41.5 -37t-48.5 -26q1 -16 1.5 -33t0.5 -37q0 -87 -16 -150t-40.5 -103.5t-55 -60t-59.5 -19.5
q-22 0 -36.5 8t-22.5 22t-11.5 33t-3.5 41q0 36 7 81t19.5 95.5t29.5 105.5t37 110q-11 31 -11 54q0 20 17.5 33t35.5 19q29 69 57 126t53.5 98t48.5 63.5t42 22.5q10 0 22 -3.5t22.5 -10t18 -15t7.5 -17.5q0 -44 -15 -82.5t-40.5 -73t-58.5 -66.5t-69 -63l-6 -12t-7 -13
q9 -20 17 -48.5t13 -68.5q9 3 26 10t35.5 20.5t36.5 34t29 49.5zM220 425q16 11 31.5 28t28.5 35.5t21 36t8 29.5q-5 -1 -15.5 -11.5t-23 -28t-25.5 -40.5t-25 -49zM133 218q0 -2 3 -6t7 -8t11 -9q-2 22 -6 37.5t-6 21.5zM157 145q-10 0 -19 1q-8 1 -16.5 3t-14.5 7
q-13 -39 -24.5 -78.5t-20 -76t-13.5 -68t-5 -54.5q0 -20 3.5 -33t16.5 -13q15 0 32 19t31 52.5t23.5 80t9.5 101.5q0 13 -0.5 24t-1.5 19q-1 9 -1 16z" />
    <glyph glyph-name="fl" unicode="fl" horiz-adv-x="423" 
d="M293 230q-6 -7 -16.5 -17.5t-23.5 -21.5t-27 -20.5t-26 -14.5q1 -16 1.5 -33t0.5 -37q0 -87 -16 -150t-40.5 -103.5t-55 -60t-59.5 -19.5q-22 0 -36.5 8t-22.5 22t-11.5 33t-3.5 41q0 36 7 81t19.5 95.5t29.5 105.5t37 110q-11 31 -11 54q0 20 17.5 33t35.5 19
q29 69 62.5 136.5t66.5 121.5t61.5 87t47.5 33q10 0 22 -3.5t22.5 -10t18 -15t7.5 -17.5q0 -44 -21 -93t-53.5 -96.5t-71 -90t-74.5 -73.5l-6 -12t-7 -13q9 -20 17 -48.5t13 -68.5q11 3 28 16t34.5 29.5t33 33.5t24.5 29q25 73 53.5 143.5t58.5 126t59 89.5t54 34
q10 0 23 -3.5t24.5 -10t19.5 -15t8 -17.5q0 -45 -21.5 -92.5t-52.5 -90.5t-66.5 -79t-62.5 -58q-6 -11 -14.5 -32t-17.5 -47t-18 -55t-16 -56t-11.5 -50.5t-4.5 -38.5q31 1 66 22t58 59q8 0 10 -3t2 -8q-13 -21 -31.5 -42.5t-41 -39t-48 -29t-52.5 -11.5q-19 0 -34.5 11.5
t-15.5 35.5q0 12 3.5 31t9.5 43.5t15 53t20 59.5zM220 425q16 11 37.5 38.5t41 59t33.5 59.5t14 40q-5 -1 -21 -22t-35.5 -51t-38.5 -64t-31 -60zM444 393q13 10 33.5 36.5t39.5 56.5t32.5 57t13.5 39q-5 -1 -20 -21t-33 -48.5t-36 -61t-30 -58.5zM133 218q0 -2 3 -6t7 -8
t11 -9q-2 22 -6 37.5t-6 21.5zM157 145q-10 0 -19 1q-8 1 -16.5 3t-14.5 7q-13 -39 -24.5 -78.5t-20 -76t-13.5 -68t-5 -54.5q0 -20 3.5 -33t16.5 -13q15 0 32 19t31 52.5t23.5 80t9.5 101.5q0 13 -0.5 24t-1.5 19q-1 9 -1 16z" />
    <glyph glyph-name=".notdef" horiz-adv-x="500" 
 />
    <glyph glyph-name=".null" horiz-adv-x="0" 
 />
    <glyph glyph-name="nonmarkingreturn" horiz-adv-x="220" 
 />
    <glyph glyph-name="space" unicode=" " horiz-adv-x="220" 
 />
    <glyph glyph-name="exclam" unicode="!" horiz-adv-x="195" 
d="M113 156q-8 0 -14 11.5t-6 22.5q0 29 10.5 74t27 95t37.5 100.5t43 90.5t42.5 65.5t36.5 25.5q10 0 23 -3.5t24.5 -10t19.5 -15t8 -17.5q0 -15 -24.5 -47t-59 -83t-72.5 -120.5t-65 -159.5q-6 -20 -15.5 -24.5t-15.5 -4.5zM85 100q23 0 39.5 -14.5t16.5 -37.5
t-16.5 -37.5t-39.5 -14.5t-39.5 14.5t-16.5 37.5t16.5 37.5t39.5 14.5z" />
    <glyph glyph-name="quotedbl" unicode="&#x22;" horiz-adv-x="274" 
d="M278 641q23 0 36.5 -8t13.5 -19q0 -7 -9 -27.5t-20.5 -42t-22.5 -38t-15 -16.5q-11 0 -26 5.5t-15 17.5q0 8 4.5 29t12.5 43t18.5 39t22.5 17zM376 630q23 0 36.5 -8t13.5 -19q0 -7 -9 -27.5t-20.5 -42t-22.5 -38t-15 -16.5q-11 0 -26 5.5t-15 17.5q0 8 4.5 29t12.5 43
t18.5 39t22.5 17z" />
    <glyph glyph-name="numbersign" unicode="#" horiz-adv-x="233" 
d="M80 134q-17 -47 -32 -90t-27 -76t-21.5 -52.5t-15.5 -19.5q-8 0 -15 3t-7 10q0 4 8 23t20.5 49.5t29.5 70t35 83.5q-15 0 -24 6.5t-9 13.5q0 5 10.5 8t35.5 4q7 18 14.5 35t12.5 37q-16 0 -26 6.5t-10 13.5q0 5 11 8t37 5q19 53 36.5 102t31 87t23 61t13.5 23
q14 0 23.5 -4t9.5 -12q0 -4 -10 -26t-25.5 -57t-35.5 -80t-41 -94q14 0 35 -1t41 -3q19 54 36.5 104t31.5 88.5t23.5 61.5t13.5 23q14 0 23 -4t9 -12q0 -4 -10 -27t-26 -58.5t-36.5 -81.5t-40.5 -97q25 -3 25 -9q0 -17 -5 -30t-18 -13q-3 0 -8.5 1t-13.5 3
q-5 -14 -10.5 -27.5t-10.5 -27.5q13 -2 21 -4.5t8 -5.5q0 -17 -5 -30t-18 -13q-5 0 -22 5q-16 -44 -29.5 -83.5t-25 -69.5t-20 -47.5t-14.5 -17.5q-8 0 -15 3t-7 10q0 3 7 21t19 46.5t28 65t33 78.5q-16 4 -33.5 8t-37.5 6zM118 237q-8 -17 -15.5 -38t-9.5 -31
q14 0 34.5 -0.5t40.5 -2.5q6 14 12 29t11 29q-15 5 -34 8.5t-39 5.5z" />
    <glyph glyph-name="dollar" unicode="$" horiz-adv-x="340" 
d="M279 452q5 0 9 -0.5t9 -1.5q15 45 25 71.5t15 26.5q14 0 23 -4t9 -12q0 -5 -12 -29l-31 -62q18 -9 28.5 -23.5t10.5 -32.5q0 -31 -16 -43t-34 -12q0 13 -4 27t-13 26q-15 -33 -31.5 -70.5t-31.5 -77.5q17 -23 31 -48t14 -65q0 -51 -31.5 -83.5t-94.5 -40.5
q-15 -45 -26 -72t-18 -27q-8 0 -15 3t-7 10q0 4 9.5 26.5t24.5 57.5h-3q-10 0 -15 1q-16 -42 -28 -66t-18 -24q-8 0 -15 3t-7 10q0 4 11 25.5t28 56.5q-26 8 -41 24t-15 38q0 31 16 43t34 12q0 -14 8 -31t26 -28q20 41 41 91.5t42 108.5q-17 23 -29 46t-12 52q0 15 5 30.5
t17 28.5t32 22.5t50 12.5q16 54 23.5 79t12.5 25q14 0 23 -4t9 -12q0 -5 -9.5 -25t-28.5 -63zM234 403q-29 -5 -38 -21.5t-9 -29.5q0 -30 12 -57q11 31 19.5 58t15.5 50zM208 276q8 -15 17 -28q15 41 28.5 79t25.5 72q-9 5 -20 6q-11 -26 -24 -58t-27 -71zM196 245
q-20 -53 -37.5 -102.5t-33.5 -91.5q4 0 7.5 -0.5t7.5 -0.5h5q16 37 34 79.5t35 87.5q-5 8 -9 14.5t-9 13.5zM172 54q35 9 50 33.5t15 44.5t-4 37t-11 31q-14 -38 -26.5 -75.5z" />
    <glyph glyph-name="percent" unicode="%" horiz-adv-x="573" 
d="M471 459q7 0 13.5 -7t6.5 -15q0 -4 -17 -24.5t-44 -52t-60.5 -71.5t-67.5 -83q-34 -44 -65.5 -87t-57.5 -77.5t-44 -56t-25 -21.5q-8 0 -15 3t-7 10q0 4 18 26t46.5 55t63.5 75t69 86q23 30 45 60t41 57t35 49.5t28 38.5q-11 -4 -36.5 -11t-62.5 -7q-29 0 -52 7t-35 10
v-2q11 -5 19.5 -17t8.5 -37q0 -38 -12.5 -80.5t-34.5 -79t-52.5 -60.5t-66.5 -24q-40 0 -60 23t-20 58q0 52 17 97.5t44.5 79.5t62 53t70.5 19q20 0 37 -5t34 -11t36 -11t43 -5q19 0 36 6t30 13t21 13t10 6zM328 77q0 50 17 93.5t43 76t57.5 51.5t61.5 19q11 0 22.5 -4.5
t21 -14t15.5 -24t6 -34.5q0 -38 -12 -80.5t-33.5 -79t-52 -60.5t-66.5 -24q-40 0 -60 23t-20 58zM222 403q-16 0 -36.5 -13.5t-39 -37.5t-31 -58.5t-12.5 -76.5q0 -23 7.5 -36.5t24.5 -13.5q21 0 41 16.5t36 44t25.5 63t9.5 73.5q0 21 -8 30t-17 9zM516 267q-16 0 -36 -12.5
t-37.5 -35.5t-29.5 -56t-12 -73q0 -23 7.5 -36.5t24.5 -13.5q21 0 40.5 15t34.5 40.5t24 60t9 72.5q0 21 -8 30t-17 9z" />
    <glyph glyph-name="ampersand" unicode="&#x26;" horiz-adv-x="391" 
d="M293 106q41 33 69 77q6 0 9.5 -6t3.5 -9q-29 -47 -66 -83q17 -21 33.5 -34.5t32.5 -13.5q0 -16 -15 -33t-44 -17q-20 0 -35 15t-28 38q-36 -23 -72 -33.5t-70 -10.5q-26 0 -46 4.5t-34 15.5t-21.5 29t-7.5 46q0 42 36.5 80.5t90.5 67.5q-8 9 -18.5 28t-10.5 51t16 57
t39.5 42.5t49 26.5t43.5 9q29 0 53.5 -17.5t24.5 -53.5q0 -30 -17.5 -50t-41 -34.5t-47 -24t-35.5 -18.5q27 -27 54.5 -69.5t53.5 -79.5zM177 265q41 23 58.5 45t17.5 45q0 29 -28 29q-12 0 -25 -5t-23.5 -13t-17.5 -20t-7 -25q0 -14 5.5 -28.5t19.5 -27.5zM238 69
q-19 39 -40 82.5t-53 73.5q-23 -20 -41.5 -44.5t-18.5 -58.5q0 -23 7 -37.5t17.5 -22.5t24 -11t26.5 -3q36 0 78 21z" />
    <glyph glyph-name="quotesingle" unicode="'" horiz-adv-x="174" 
d="M278 641q23 0 36.5 -8t13.5 -19q0 -7 -9 -27.5t-20.5 -42t-22.5 -38t-15 -16.5q-11 0 -26 5.5t-15 17.5q0 8 4.5 29t12.5 43t18.5 39t22.5 17z" />
    <glyph glyph-name="parenleft" unicode="(" horiz-adv-x="301" 
d="M226 -90q-36 0 -73 15t-67.5 43.5t-49.5 70.5t-19 95q0 105 44.5 190t113 144.5t149.5 92t155 32.5q13 0 22.5 -10.5t9.5 -26.5q-50 0 -113.5 -32.5t-120 -92t-95 -142.5t-38.5 -185q0 -75 30 -115.5t99 -40.5q0 -20 -13.5 -29t-33.5 -9z" />
    <glyph glyph-name="parenright" unicode=")" horiz-adv-x="361" 
d="M188 594q40 0 77.5 -15t67 -43.5t47 -70.5t17.5 -95q0 -70 -20.5 -131t-55.5 -112t-81.5 -91.5t-97.5 -68t-104.5 -42t-102.5 -14.5q-13 0 -22.5 10.5t-9.5 26.5q50 0 113.5 32.5t120 92t95 142.5t38.5 185q0 75 -30 115.5t-99 40.5q0 20 13.5 29t33.5 9z" />
    <glyph glyph-name="asterisk" unicode="*" horiz-adv-x="345" 
d="M325 508q-4 1 -1.5 21.5t9 43.5t14.5 42.5t14 19.5q17 0 25.5 -11t8.5 -24q0 -6 -9.5 -22t-21.5 -32t-23.5 -28t-15.5 -10zM316 512q-3 -3 -20.5 6t-37.5 22.5t-36 27t-16 18.5q0 14 12 21.5t23 7.5q8 0 22 -15t26.5 -33.5t21 -35t5.5 -19.5zM333 503q0 4 21 7.5
t45.5 4.5t45 -0.5t20.5 -7.5q0 -17 -4.5 -30t-19.5 -13q-8 0 -26 4.5t-36.5 10.5t-32 12.5t-13.5 11.5zM318 502q2 -4 -11.5 -17t-32 -27.5t-36.5 -25.5t-24 -11q-3 0 -5.5 4.5t-5 11.5t-3.5 13.5t-1 11.5q0 8 17.5 17t39.5 15.5t41 9t21 -1.5zM323 498q4 1 12 -15t15 -37.5
t12.5 -42.5t5.5 -29q-17 0 -32.5 2t-18.5 12q-2 7 -3 24.5t-0.5 36.5t3 33.5t6.5 15.5z" />
    <glyph glyph-name="plus" unicode="+" horiz-adv-x="277" 
d="M192 229q18 -2 36.5 -4t32.5 -4.5t23 -5.5t9 -6q0 -17 -5 -30t-18 -13q-7 0 -32 6t-57 14q-4 -19 -6.5 -37.5t-2.5 -36.5q0 -15 -6.5 -24t-13.5 -9q-6 0 -9.5 16t-3.5 55q0 17 3 44q-17 3 -34 5t-31 2q-15 0 -24 6.5t-9 13.5q0 6 16 9.5t55 3.5q6 0 14 -0.5t18 -0.5
q3 19 7 38t8 34t7.5 24t6.5 9q17 0 30 -5t13 -18q0 -7 -8.5 -30.5t-18.5 -55.5z" />
    <glyph glyph-name="comma" unicode="," horiz-adv-x="174" 
d="M-6 -97q-13 0 -13 10q0 3 15.5 8t35 13.5t37.5 22t23 33.5q-2 10 -9.5 17t-15.5 12t-14.5 8t-6.5 6q0 9 3.5 20.5t10 22t16.5 17.5t22 7q31 0 48 -15.5t17 -39.5q0 -26 -20.5 -51.5t-48 -45.5t-56 -32.5t-44.5 -12.5z" />
    <glyph glyph-name="hyphen" unicode="-" horiz-adv-x="228" 
d="M59 201q-15 0 -24 6.5t-9 13.5q0 6 16 9.5t55 3.5q14 0 35.5 -1t42 -2.5t35 -5t14.5 -7.5q0 -17 -5 -30t-18 -13q-6 0 -20 4t-33 9t-42 9t-47 4z" />
    <glyph glyph-name="period" unicode="." horiz-adv-x="174" 
d="M105 100q23 0 39.5 -14.5t16.5 -37.5t-16.5 -37.5t-39.5 -14.5t-39.5 14.5t-16.5 37.5t16.5 37.5t39.5 14.5z" />
    <glyph glyph-name="slash" unicode="/" horiz-adv-x="213" 
d="M388 613q14 0 23 -4t9 -12q0 -5 -22 -34.5t-58 -78.5t-82.5 -114.5t-96.5 -140.5q-47 -71 -89 -137t-75 -117t-55 -82t-29 -31q-8 0 -15 3t-7 10q0 4 21.5 35.5t56.5 81t79.5 113.5t91.5 135q48 73 91 140t76.5 119t55 83t25.5 31z" />
    <glyph glyph-name="zero" unicode="0" horiz-adv-x="366" 
d="M150 -4q-55 0 -81.5 32t-26.5 83q0 75 25 138t63.5 108t84.5 70.5t88 25.5q31 0 56 -25t25 -78t-17.5 -115t-48.5 -115t-74 -88.5t-94 -35.5zM351 336q0 35 -11 47.5t-27 12.5q-23 0 -54 -19.5t-59 -55.5t-47.5 -86.5t-19.5 -111.5q0 -36 10.5 -54.5t37.5 -18.5
q31 0 61.5 28.5t54.5 71.5t39 93t15 93z" />
    <glyph glyph-name="one" unicode="1" horiz-adv-x="197" 
d="M75 -4q-28 0 -37 14.5t-9 28.5q0 39 16.5 91t40.5 103.5t50 95.5t44 68h-2q-23 -21 -48.5 -38.5t-54.5 -17.5q-7 0 -13.5 6.5t-6.5 20.5q35 7 59 22.5t41.5 30.5t30.5 26.5t26 11.5q19 0 35.5 -10.5t16.5 -23.5q0 -11 -5 -19.5t-9 -15.5q-23 -38 -47 -83.5t-43.5 -93
t-32.5 -93t-13 -83.5q0 -21 -13 -31t-26 -10z" />
    <glyph glyph-name="two" unicode="2" horiz-adv-x="350" 
d="M101 368q0 15 10.5 30t30 27t48 20t64.5 8q21 0 42.5 -7.5t39 -22t28 -34.5t10.5 -45q0 -31 -19 -58.5t-48 -52.5t-64 -46.5t-67 -41t-57 -36.5t-34 -32q4 1 20 3t38.5 4t49.5 4t54 2q30 0 47 -11.5t17 -28.5q0 -22 -12.5 -40.5t-33.5 -18.5q-5 4 -18 7.5t-38 6.5
t-64 4.5t-96 1.5q-11 0 -21.5 9.5t-10.5 27.5q0 23 21.5 44.5t54 43t70 43t70 44.5t54 47t21.5 50q0 23 -18 43t-56 20q-35 0 -59 -16.5t-24 -36.5q-23 0 -36.5 10t-13.5 28z" />
    <glyph glyph-name="three" unicode="3" horiz-adv-x="330" 
d="M55 186q0 18 26.5 39.5t59.5 43t62.5 42t34.5 37.5q-2 4 -8 10.5t-22 12.5t-44.5 10.5t-74.5 4.5q0 67 66 67q88 0 132.5 -23t44.5 -57q0 -17 -21 -32t-50.5 -31.5t-60.5 -35t-51 -40.5q18 8 36 12.5t35 4.5q41 0 69 -27t28 -79q0 -65 -28.5 -117t-72.5 -88.5
t-98.5 -56.5t-106.5 -20q-43 0 -63 18.5t-20 41.5q0 26 15 37.5t31 11.5q0 -14 3 -27t10.5 -24t21 -17.5t34.5 -6.5q33 0 67 13t61.5 39.5t45 66.5t17.5 93q0 37 -20 55t-43 18q-24 0 -37.5 -5t-22 -11t-14.5 -11t-14 -5q-11 0 -19.5 9.5t-8.5 26.5z" />
    <glyph glyph-name="four" unicode="4" horiz-adv-x="387" 
d="M260 105q43 -5 73 -10.5t30 -10.5q0 -9 -3 -20t-7.5 -20t-9 -15t-8.5 -6q-7 0 -31.5 6.5t-68.5 14.5q-16 -43 -25 -79t-9 -61q0 -21 -13 -31t-26 -10q-28 0 -37 14.5t-9 28.5q0 25 11.5 64t30.5 84q-54 6 -125 6q-5 0 -9.5 5t-7.5 11.5t-5 14t-2 13.5q0 4 14 21.5
t37.5 43t54 57t63 64t65 63t59 54t45.5 38t26 14.5q19 0 35.5 -10.5t16.5 -23.5q0 -11 -4.5 -20t-9.5 -15q-18 -27 -38 -61t-39.5 -71t-38.5 -76t-35 -77zM182 114q20 42 42.5 84.5t44 80.5t40.5 68.5t32 49.5h-2q-12 -5 -36 -26t-53 -50t-60 -62t-56 -62t-41 -50.5
t-16 -27.5q21 0 48 -1t57 -4z" />
    <glyph glyph-name="five" unicode="5" horiz-adv-x="322" 
d="M82 238q6 5 16.5 11.5t23.5 12t28 9t30 3.5q25 0 49 -7t43 -22.5t30.5 -40t11.5 -59.5q0 -62 -28.5 -114t-73.5 -89.5t-101 -58t-112 -20.5q-43 0 -63 18.5t-20 41.5q0 26 15 37.5t31 11.5q0 -14 3 -27t11.5 -23t22 -16.5t34.5 -6.5q42 0 80 12t67 37.5t46.5 65.5
t17.5 96q0 23 -8 41t-20.5 30t-28.5 18.5t-32 6.5q-24 0 -40.5 -5t-27.5 -11.5t-17.5 -11.5t-10.5 -5q-11 0 -19.5 7t-8.5 20q0 6 13 30t29.5 57.5t32 72t20.5 73.5q1 7 7 15.5t17 8.5q22 0 53 -6.5t81 -6.5q11 0 24 7t13 17q11 0 23 -10.5t12 -27.5q0 -23 -19 -41t-50 -18
q-15 0 -36 3.5t-41.5 8t-37.5 9.5t-24 8q-4 -12 -13 -35.5t-19 -48t-20 -46.5t-16 -32h2z" />
    <glyph glyph-name="six" unicode="6" horiz-adv-x="346" 
d="M424 476q-67 -8 -121.5 -30.5t-95 -52.5t-65.5 -64.5t-34 -65.5h2q21 37 58 63.5t82 26.5q16 0 32.5 -5t30 -18t21.5 -34.5t8 -54.5q0 -30 -11 -72t-35 -80.5t-61.5 -65.5t-90.5 -27q-48 0 -76 31t-28 100q0 50 16.5 99.5t44 95.5t62.5 85.5t72.5 68.5t74 45.5t66.5 16.5
q23 0 35.5 -17.5t12.5 -44.5zM312 245q0 36 -14.5 52.5t-32.5 16.5q-22 0 -47 -14.5t-46.5 -40.5t-36 -63.5t-14.5 -82.5q0 -12 2.5 -24t9 -21t17.5 -14.5t28 -5.5q29 0 53.5 19.5t42.5 49t28 64t10 64.5z" />
    <glyph glyph-name="seven" unicode="7" horiz-adv-x="315" 
d="M-32 -90q0 46 22.5 90.5t56.5 85.5t75 78t78 68.5t65.5 56t37.5 40.5q-8 7 -23 18.5t-40 22.5t-60 18.5t-81 7.5q0 67 66 67q44 0 79.5 -9t61 -23.5t39 -32t13.5 -35.5q0 -16 -24 -46.5t-59.5 -70t-77 -87t-77 -97.5t-59.5 -101t-24 -98q-12 0 -24 2.5t-22 8.5t-16.5 15
t-6.5 21z" />
    <glyph glyph-name="eight" unicode="8" horiz-adv-x="366" 
d="M226 284q-18 30 -35 64.5t-17 72.5q0 23 9 44t26 37.5t40.5 26t52.5 9.5q38 0 66 -23.5t28 -61.5q0 -52 -28 -88t-67 -63q19 -35 32 -72.5t13 -75.5t-15.5 -67.5t-41.5 -49.5t-60.5 -30.5t-73.5 -10.5q-33 0 -55.5 9t-36.5 22.5t-20.5 29.5t-6.5 30q0 36 16.5 63.5
t43.5 50.5t61 43t69 40zM289 323q32 23 52.5 48.5t20.5 59.5q0 23 -11.5 36.5t-34.5 13.5q-27 0 -44 -18.5t-17 -52.5q0 -24 11 -45t23 -42zM237 264q-29 -17 -54.5 -34t-45 -36t-31 -41t-11.5 -49q0 -12 3 -25t11 -24t21.5 -18.5t34.5 -7.5q43 0 74 31t31 88q0 27 -9 57
t-24 59z" />
    <glyph glyph-name="nine" unicode="9" horiz-adv-x="366" 
d="M-1 -137q-43 0 -63 18.5t-20 41.5q0 26 15 37.5t31 11.5q0 -14 2 -27.5t8.5 -24.5t19 -18t33.5 -7q47 0 92 25t81 59.5t59.5 70.5t29.5 57h-2q-23 -36 -56.5 -49.5t-63.5 -13.5q-27 0 -47.5 10t-34.5 26.5t-21 38t-7 44.5q0 61 21.5 114t55.5 92t76.5 61.5t83.5 22.5
q17 0 33.5 -6.5t29.5 -21.5t21 -39t8 -60q0 -102 -35 -187t-90.5 -146.5t-124 -95.5t-135.5 -34zM351 298q0 49 -19 67t-42 18q-21 0 -46.5 -16.5t-47.5 -44.5t-37 -66t-15 -80q0 -80 59 -80q31 0 58.5 17t47 45.5t31 64.5t11.5 75z" />
    <glyph glyph-name="colon" unicode=":" horiz-adv-x="174" 
d="M209 416q23 0 39.5 -14.5t16.5 -37.5t-16.5 -37.5t-39.5 -14.5t-39.5 14.5t-16.5 37.5t16.5 37.5t39.5 14.5zM105 100q23 0 39.5 -14.5t16.5 -37.5t-16.5 -37.5t-39.5 -14.5t-39.5 14.5t-16.5 37.5t16.5 37.5t39.5 14.5z" />
    <glyph glyph-name="semicolon" unicode=";" horiz-adv-x="174" 
d="M209 416q23 0 39.5 -14.5t16.5 -37.5t-16.5 -37.5t-39.5 -14.5t-39.5 14.5t-16.5 37.5t16.5 37.5t39.5 14.5zM-6 -97q-13 0 -13 10q0 3 15.5 8t35 13.5t37.5 22t23 33.5q-2 10 -9.5 17t-15.5 12t-14.5 8t-6.5 6q0 9 3.5 20.5t10 22t16.5 17.5t22 7q31 0 48 -15.5
t17 -39.5q0 -26 -20.5 -51.5t-48 -45.5t-56 -32.5t-44.5 -12.5z" />
    <glyph glyph-name="less" unicode="&#x3c;" horiz-adv-x="230" 
d="M112 203q24 -32 43.5 -51.5t19.5 -25.5t-5 -12t-12 -10.5t-15.5 -7t-14.5 -2.5t-13.5 13.5t-17 32.5t-21 39t-24.5 34q11 12 31 27.5t41.5 29.5t41 23.5t29.5 9.5t18 -13t8 -26q0 -3 -12.5 -9.5t-29.5 -15l-36 -18t-31 -18.5z" />
    <glyph glyph-name="equal" unicode="=" horiz-adv-x="277" 
d="M113 253q-15 0 -24 6.5t-9 13.5q0 6 16 9.5t55 3.5q14 0 43.5 -2t59.5 -6t52.5 -8.5t22.5 -8.5q0 -17 -5 -30t-18 -13q-6 0 -28 5.5t-50.5 12t-59.5 12t-55 5.5zM65 169q-15 0 -24 6.5t-9 13.5q0 6 16 9.5t55 3.5q14 0 43.5 -2t59.5 -6t52.5 -8.5t22.5 -8.5q0 -17 -5 -30
t-18 -13q-6 0 -28 5.5t-50.5 12t-59.5 12t-55 5.5z" />
    <glyph glyph-name="greater" unicode="&#x3e;" horiz-adv-x="230" 
d="M159 199q-24 32 -43.5 51.5t-19.5 25.5t5 12t12 10.5t15.5 7t14.5 2.5t13.5 -13.5t17 -32.5t21 -39.5t24.5 -33.5q-11 -12 -31 -27.5t-41.5 -29.5t-41 -23.5t-29.5 -9.5t-18 13t-8 26q0 3 12.5 9.5t29.5 15l36 18t31 18.5z" />
    <glyph glyph-name="question" unicode="?" horiz-adv-x="350" 
d="M130 134q-14 0 -24.5 9.5t-10.5 27.5q0 25 20 45.5t50.5 40t65.5 39t65.5 43.5t50.5 53.5t20 68.5q0 12 -4.5 24t-13.5 22t-23 16.5t-33 6.5q-20 0 -36.5 -6t-28 -15.5t-18 -20.5t-6.5 -21q-23 0 -36.5 10t-13.5 28q0 15 9.5 31.5t28 30.5t46.5 23.5t64 9.5q24 0 48 -7
t42.5 -21t30 -34.5t11.5 -48.5q0 -39 -18.5 -70t-46.5 -56.5t-60.5 -47t-60.5 -41.5t-46.5 -39t-18.5 -40q0 -36 -16.5 -48.5t-36.5 -12.5zM85 100q23 0 39.5 -14.5t16.5 -37.5t-16.5 -37.5t-39.5 -14.5t-39.5 14.5t-16.5 37.5t16.5 37.5t39.5 14.5z" />
    <glyph glyph-name="at" unicode="@" horiz-adv-x="569" 
d="M528 567q-37 0 -82 -18t-92 -50.5t-91 -79.5t-78 -104.5t-55 -125t-21 -141.5q0 -96 42.5 -147.5t135.5 -51.5q0 -20 -20 -34.5t-47 -14.5q-42 0 -81.5 18.5t-71 53t-50.5 84.5t-19 114q0 74 23.5 143t62.5 128t89.5 107.5t106 83t111.5 53.5t105 19q37 0 65.5 -8t47 -21
t28 -29t9.5 -32q0 -19 -6.5 -42t-14.5 -49q-18 -53 -42 -110t-45.5 -109t-37 -93t-15.5 -63q28 1 59.5 23.5t54.5 58.5q5 0 9 -2t4 -7q-12 -21 -29.5 -43.5t-38.5 -40.5t-45 -29.5t-51 -11.5q-26 0 -38 15.5t-12 31.5q0 30 6.5 55.5t11.5 42.5h-2q-13 -26 -30 -51.5
t-37 -46.5t-43 -34t-48 -13q-10 0 -21 4.5t-20.5 13.5t-15.5 23t-6 32q0 41 13 85.5t34 87.5t49 81t57.5 67t59.5 46t56 17t36.5 -14.5t10.5 -37.5h3q19 44 30.5 79t11.5 48q0 17 -8.5 27t-17.5 12zM490 375q0 12 -5.5 16t-11.5 4q-15 0 -35.5 -15t-41.5 -39.5t-41.5 -55.5
t-36.5 -64.5t-26 -65.5t-10 -58q0 -17 8.5 -25t16.5 -8q14 0 33.5 18t40 46.5t40 64t35 70t25 64.5t9.5 48z" />
    <glyph glyph-name="A" unicode="A" horiz-adv-x="541" 
d="M561 539q-13 -23 -31 -63.5t-34 -92t-27 -109t-11 -113.5q32 16 49.5 35.5t17.5 35.5q0 13 -10.5 20.5t-28.5 7.5q0 17 12.5 28.5t28.5 11.5q11 0 22 -10t11 -30q0 -32 -25 -67t-77 -60q1 -72 18 -104.5t63 -32.5q0 -8 -4.5 -18t-12.5 -18.5t-18 -14.5t-20 -6
q-31 0 -50.5 15t-30 39t-14 54t-3.5 61q-23 -5 -47.5 -8t-53.5 -3q-15 0 -28.5 2t-25.5 5q-57 -64 -123 -105t-149 -41t-123 39t-40 98q0 25 8 43t21 30t28 17.5t30 5.5q29 0 39 -15t10 -32q-12 0 -25.5 -3.5t-25 -12t-19 -23t-7.5 -36.5q0 -15 5 -29.5t15.5 -25.5t27.5 -18
t40 -7q55 0 110.5 45t109.5 116q-11 11 -20.5 29.5t-9.5 37.5q0 20 7.5 40.5t22.5 37.5t39 28t57 11q8 0 16.5 -1.5t14.5 -3.5q41 59 85 113.5t90 96t94 66.5t98 25q31 0 50.5 -14t19.5 -34q0 -18 -11 -29t-26 -11q-13 0 -23 9t-10 24q-26 0 -49.5 -9.5t-46.5 -26.5z
M493 477q-15 -18 -31 -40.5t-31.5 -47t-30.5 -49t-30 -46.5q14 -11 25.5 -24t21.5 -27q4 29 13 62t20.5 65t23.5 60t21 47h-2zM241 258q-12 1 -24 -1t-21.5 -8.5t-16 -17.5t-6.5 -26q0 -5 3 -13.5t7 -14.5q14 20 29 40t29 41zM253 130q25 -5 54 -5q43 0 79 9q0 35 -19 58.5
t-41 36.5q-17 -24 -36 -50t-37 -49z" />
    <glyph glyph-name="B" unicode="B" horiz-adv-x="686" 
d="M341 279q-11 11 -11 32q0 19 12 31t32 17q19 53 36 92.5t32.5 69t30.5 51t30 38.5q-5 1 -10.5 1h-10.5q-62 0 -108 -13.5t-76 -33t-45 -40.5t-15 -36q0 -13 3.5 -22.5t13 -15.5t27 -9t45.5 -3q0 -22 -16 -42t-37 -20q-13 0 -27 7t-25.5 19.5t-19 30.5t-7.5 40q0 29 21 59
t63 54t104 39.5t143 15.5h5q33 32 63 42t55 10q32 0 43.5 -6t11.5 -14q0 -6 -6.5 -9t-28.5 -3q-12 0 -28.5 -5t-36.5 -26q28 -8 53 -21t44 -31t29.5 -40.5t10.5 -49.5q0 -57 -35.5 -104t-95.5 -79q28 -20 48 -54t20 -82q0 -47 -25 -85.5t-71.5 -66.5t-114 -43.5
t-152.5 -15.5q-48 0 -83.5 4t-61.5 10q-66 -28 -139 -28q-20 0 -36.5 6t-28 16t-18 22.5t-6.5 25.5q0 20 21 34t58 14q20 0 37 -4t33.5 -10t32.5 -13.5t33 -14.5q45 29 92 95t92 164zM468 359q22 -4 44.5 -9.5t43.5 -14.5q43 22 68.5 57t25.5 88q0 25 -7.5 43.5t-19 31
t-25 21.5t-24.5 15q-11 -17 -23 -36.5t-25 -46.5t-27.5 -63t-30.5 -86zM441 292q10 1 19 3.5t14 4.5q-3 2 -12 4.5t-13 3.5zM430 260q-38 -89 -86.5 -155t-120.5 -105q11 -2 23 -3t26 -1q81 0 137 13.5t90.5 36t49.5 52t15 60.5q0 42 -14.5 70.5t-35.5 42.5q-20 -5 -40.5 -7
t-43.5 -4zM95 -6q-17 5 -31.5 9t-31.5 4q-13 0 -13 -8q0 -2 6 -6t29 -4q19 0 41 5z" />
    <glyph glyph-name="C" unicode="C" horiz-adv-x="478" 
d="M17 182q0 41 8 79t22 73q-45 12 -75 40t-30 66q0 18 6.5 30t15 19t17 9.5t13.5 2.5q17 0 27 -8.5t10 -30.5q-20 0 -30.5 -8t-10.5 -28q0 -19 14.5 -37.5t52.5 -30.5q30 64 77.5 116t104 89t118.5 57.5t122 20.5q59 0 93.5 -19.5t34.5 -54.5q0 -34 -20 -64.5t-54 -56.5
t-78 -46.5t-91.5 -36t-95.5 -25.5t-89 -13q-13 -30 -24 -76t-11 -97q0 -34 6.5 -62.5t20.5 -49.5t35.5 -32.5t52.5 -11.5q35 0 64 13.5t50 35t32.5 48.5t11.5 54q0 31 -16 46.5t-31 15.5q-13 0 -22 -5t-14.5 -11.5t-8 -14t-2.5 -12.5q-20 0 -35.5 6.5t-15.5 16.5
q0 11 5.5 23t16.5 22.5t27 17t36 6.5q44 0 72 -28.5t28 -73.5q0 -42 -16.5 -78.5t-47 -63t-73 -41.5t-94.5 -15q-97 0 -153 58.5t-56 165.5zM496 595q-35 0 -79 -22t-87.5 -56.5t-81 -78t-58.5 -86.5q55 6 115 26t109.5 48t81.5 62t32 69q0 14 -7.5 26t-24.5 12z" />
    <glyph glyph-name="D" unicode="D" horiz-adv-x="781" 
d="M170 -28q-66 -28 -139 -28q-20 0 -36.5 6t-28 16t-18 22.5t-6.5 25.5q0 20 21 34t58 14q20 0 37 -4t33.5 -10t32.5 -13.5t33 -14.5q45 29 84.5 84.5t78.5 135.5q-35 25 -56.5 66.5t-21.5 97.5q0 52 20.5 95.5t58 75t89.5 49t116 17.5h5q33 32 63 42t55 10q32 0 43.5 -6
t11.5 -14q0 -6 -6.5 -9t-28.5 -3q-12 0 -28.5 -5t-36.5 -26q34 -10 70.5 -32.5t67 -57t50 -79.5t19.5 -100q0 -76 -22 -136t-59.5 -104.5t-87.5 -75.5t-105 -50.5t-112 -28t-110 -8.5q-48 0 -83.5 4t-61.5 10zM503 610q-5 1 -10.5 1h-10.5q-42 0 -78 -11.5t-63 -35
t-42 -57.5t-15 -79q0 -86 65 -127q21 48 42 102q29 74 57 124t55 83zM574 591q-22 -32 -47.5 -85.5t-55.5 -137.5q-18 -53 -39 -96q20 -4 41.5 -5.5t46.5 -1.5q0 -13 -7.5 -24t-19.5 -19.5t-27.5 -13t-30.5 -4.5q-19 0 -35 3q-40 -75 -84 -125.5t-93 -81.5q11 -2 23 -3
t26 -1q72 0 147 21t136.5 67t101 117t39.5 172q0 41 -10.5 76t-27.5 62.5t-39 48t-45 31.5zM95 -6q-17 5 -31.5 9t-31.5 4q-13 0 -13 -8q0 -2 6 -6t29 -4q19 0 41 5z" />
    <glyph glyph-name="E" unicode="E" horiz-adv-x="478" 
d="M290 376q16 2 33 3t34 1q40 0 63.5 -13t23.5 -42q0 -27 -30 -45.5t-88 -18.5q-29 0 -57.5 12t-50.5 36q-38 -29 -63 -72t-25 -101q0 -68 32.5 -109t89.5 -41q41 0 74 11.5t56 30.5t35.5 44.5t12.5 52.5q0 29 -14.5 43.5t-33.5 14.5q-20 0 -34.5 -13t-14.5 -30
q-20 0 -35.5 6.5t-15.5 16.5q0 11 5.5 23t17 21.5t28.5 16t41 6.5q39 0 68 -26.5t29 -68.5t-18.5 -76.5t-51.5 -59t-77.5 -38t-95.5 -13.5q-55 0 -95.5 14t-67.5 38.5t-40.5 58.5t-13.5 73q0 74 49.5 131.5t130.5 88.5q-12 26 -13 55q-23 5 -48 16t-45.5 25.5t-33.5 32.5
t-13 37q0 18 6.5 30t15 19t17 9.5t13.5 2.5q17 0 27 -8.5t10 -30.5q-20 0 -30.5 -8t-10.5 -28q0 -9 8 -20t20.5 -21t29 -18t34.5 -12q6 52 34.5 91t69.5 65t89 39t93 13q31 0 55.5 -8t42 -21.5t27 -30.5t9.5 -36q0 -38 -26.5 -64t-70 -43t-99.5 -25t-115 -10q0 -15 3 -27z
M463 585q-32 0 -62 -9t-54 -28.5t-40 -49t-19 -70.5q49 1 95.5 6t82.5 17t58 31t22 48q0 31 -25.5 43t-57.5 12zM301 349q23 -36 66 -36q32 0 41.5 9t9.5 14q0 22 -49 22q-34 0 -68 -9z" />
    <glyph glyph-name="F" unicode="F" horiz-adv-x="600" 
d="M393 370q16 40 33 76t37 65q-8 2 -31 13t-53 23t-61.5 22t-56.5 10q-66 0 -94 -26t-28 -64q0 -33 33 -56t90 -23q0 -22 -16 -42t-37 -20q-15 0 -33.5 7t-34.5 21.5t-27 36.5t-11 52q0 36 14.5 69t41.5 58t66 40t87 15q58 0 104.5 -16.5t86 -37t74 -37.5t67.5 -17
q14 0 29 4.5t27 12t20 18.5t8 24q0 42 -41.5 63t-113.5 21q0 27 22 46.5t49 19.5q23 0 46.5 -7.5t42 -22.5t30 -38t11.5 -54q0 -32 -16.5 -57t-46 -42.5t-69.5 -26.5t-87 -9q-19 -29 -32.5 -58.5t-28.5 -66.5q64 -14 96.5 -51t32.5 -83q0 -25 -8.5 -43.5t-22 -31
t-29.5 -18.5t-31 -6q-29 0 -39 15t-10 32q12 0 26 3t26 11t20 22t8 36q0 26 -19 48t-63 33q-18 -45 -36.5 -90.5t-41 -88t-50.5 -79.5t-65 -64t-84 -43t-107 -16q-42 0 -73 12.5t-51.5 33t-31 47.5t-10.5 56q0 25 8 43.5t21 30.5t28 18t30 6q14 0 23.5 -4.5t15 -11.5t8 -16
t2.5 -17q-12 0 -25 -3t-24.5 -11t-18.5 -22t-7 -36q0 -15 6 -31.5t18.5 -31t33 -23.5t49.5 -9q38 0 69.5 13t57 36t46 54t37.5 67q-10 -2 -18 -2q-11 0 -22 2.5t-19.5 10t-14 19.5t-5.5 32q0 27 13 52t35 46t52 36t63 21zM381 337q-20 -5 -33 -15.5t-20.5 -23t-11 -24.5
t-3.5 -21q0 -6 4 -11.5t11 -5.5q4 0 9 4.5t11 15.5t14 31t19 50z" />
    <glyph glyph-name="G" unicode="G" horiz-adv-x="599" 
d="M108 170q0 14 2.5 35t7 43.5t11 45t13.5 40.5q-44 12 -74 40t-30 66q0 18 6 30t14.5 19t17.5 9.5t14 2.5q17 0 27 -8.5t10 -30.5q-20 0 -30.5 -8t-10.5 -28q0 -19 14.5 -37.5t52.5 -30.5q30 64 79 116t107.5 89t121.5 57.5t121 20.5q57 0 90 -18t33 -54q0 -37 -20 -68.5
t-53.5 -57.5t-77.5 -47t-92 -35.5t-96.5 -23.5t-91.5 -12q-13 -30 -25.5 -76t-12.5 -101q0 -32 7 -52.5t18.5 -32t25.5 -16t28 -4.5q13 0 22.5 3t15.5 7q7 4 12 10q10 40 31.5 90t47 94t51 74t43.5 30q10 0 22 -3.5t22.5 -9.5t18 -14.5t7.5 -17.5q0 -37 -12.5 -76t-33.5 -74
t-49 -62.5t-59 -41.5q-49 -136 -138 -209t-207 -73q-42 0 -73.5 11.5t-53 31t-32.5 45.5t-11 55q0 25 8 43t21 30t28 17.5t30 5.5q29 0 39 -15t10 -32q-12 0 -25 -3t-24.5 -11t-18.5 -22t-7 -36q0 -15 6 -31t19 -28.5t33.5 -21t49.5 -8.5q54 0 96 23.5t72.5 57t49.5 71
t28 65.5q-11 -7 -24 -11q-11 -5 -25.5 -8t-30.5 -3q-38 0 -69 6.5t-52.5 25.5t-33 53t-11.5 89zM586 601q-28 0 -69 -19t-84 -52.5t-82.5 -79t-64.5 -98.5q53 5 114 22t113 44t86.5 63.5t34.5 80.5q0 17 -12.5 28t-35.5 11zM467 95q9 4 24.5 18t30 35t25.5 46t11 51
q-4 -3 -16.5 -20.5t-27.5 -41t-28.5 -48t-18.5 -40.5z" />
    <glyph glyph-name="H" unicode="H" horiz-adv-x="817" 
d="M376 183q29 9 57 18.5t54 18.5q20 75 61 150t92 135.5t106 98t104 37.5q14 0 28 -4t25.5 -12.5t18.5 -22.5t7 -35q0 -54 -28 -102t-74 -89t-105 -76.5t-121 -63.5q-11 -37 -17 -77.5t-6 -78.5q0 -60 22 -87.5t51 -27.5q28 0 50 15.5t36.5 37.5t22 45.5t7.5 38.5
q0 44 -13.5 59.5t-30.5 15.5q-24 0 -38 -16t-14 -28q-20 0 -35.5 6.5t-15.5 16.5q0 11 6 25t17 26t28 20t39 8q44 0 70 -29t26 -76q0 -35 -13.5 -71t-38.5 -65t-61 -47.5t-82 -18.5q-23 0 -47.5 9.5t-45 31.5t-34 57t-13.5 86q0 36 7 70q-31 -13 -62.5 -26t-62.5 -26
q-42 -97 -83.5 -165t-85 -111.5t-92 -63.5t-105.5 -20q-21 0 -42 3.5t-38.5 13.5t-28.5 28t-11 46q0 44 37 86.5t95 79.5t129 68t138 53q20 49 36.5 98t34 95t37 89t46.5 81q-8 2 -30.5 13t-52 23t-60.5 22t-56 10q-66 0 -94 -26t-28 -64q0 -33 33 -56t90 -23q0 -22 -16 -42
t-37 -20q-15 0 -33.5 7t-34.5 21.5t-27 36.5t-11 52q0 36 14.5 69t41.5 58t66 40t87 15q40 0 74 -8.5t60.5 -19t44.5 -20t26 -10.5q10 16 23.5 27t27.5 18t26.5 10t20.5 3q17 0 26.5 -8.5t9.5 -21.5q0 -21 -10.5 -39.5t-25.5 -33t-31.5 -24.5t-27.5 -15q-29 -44 -50 -89
t-37.5 -87.5t-29 -80t-23.5 -65.5zM611 268q34 14 82.5 40t93 61t76 77t31.5 89q0 16 -9 23t-24 7q-27 0 -61.5 -23t-69 -63.5t-66 -94.5t-53.5 -116zM243 87q-90 -40 -147.5 -73.5t-91.5 -62t-47 -53.5t-13 -49q0 -28 13 -41t42 -13q25 0 53 16t58.5 51t63.5 90.5t69 134.5
z" />
    <glyph glyph-name="I" unicode="I" horiz-adv-x="415" 
d="M477 589q20 32 44 42t40 10q17 0 27 -11.5t10 -24.5q0 -21 -8.5 -37.5t-21 -28.5t-27 -20.5t-25.5 -13.5q-26 -40 -48 -97t-46 -118.5t-54 -122t-72 -108.5t-100 -77.5t-139 -29.5q-42 0 -73 12.5t-51.5 33t-31 47.5t-10.5 56q0 25 8 43.5t21 30.5t28 18t30 6
q14 0 23.5 -4.5t15 -11.5t8 -16t2.5 -17q-12 0 -25 -3t-24.5 -11t-18.5 -22t-7 -36q0 -15 6 -31.5t18.5 -31t33 -23.5t49.5 -9q56 0 97 27.5t71 72.5t53 101.5t44.5 115.5t44 114t51.5 97q-8 2 -30.5 13t-52 23t-60.5 22t-56 10q-66 0 -94 -26t-28 -64q0 -33 33 -56t90 -23
q0 -22 -16 -42t-37 -20q-15 0 -33.5 7t-34.5 21.5t-27 36.5t-11 52q0 36 14.5 69t41.5 58t66 40t87 15q40 0 74 -8.5t60.5 -19t44.5 -20t26 -10.5z" />
    <glyph glyph-name="J" unicode="J" horiz-adv-x="415" 
d="M477 589q20 32 44 42t40 10q17 0 27 -11.5t10 -24.5q0 -21 -8.5 -37.5t-21 -28.5t-27 -20.5t-25.5 -13.5q-41 -75 -75 -158.5t-68.5 -165.5t-73 -156t-88.5 -131t-114.5 -90.5t-151.5 -33.5q-42 0 -73 12.5t-51.5 33t-31 47.5t-10.5 56q0 25 8 43.5t21 30.5t28 18t30 6
q14 0 23.5 -4.5t15 -11.5t8 -16t2.5 -17q-12 0 -25 -3t-24.5 -11t-18.5 -22t-7 -36q0 -15 6 -31.5t18.5 -31t33 -23.5t49.5 -9q56 0 103 34.5t87.5 92t76 132t69.5 153.5t67.5 156.5t69.5 141.5q-8 2 -30.5 13t-52 23t-60.5 22t-56 10q-66 0 -94 -26t-28 -64q0 -33 33 -56
t90 -23q0 -22 -16 -42t-37 -20q-15 0 -33.5 7t-34.5 21.5t-27 36.5t-11 52q0 36 14.5 69t41.5 58t66 40t87 15q40 0 74 -8.5t60.5 -19t44.5 -20t26 -10.5z" />
    <glyph glyph-name="K" unicode="K" horiz-adv-x="707" 
d="M410 260q-24 -58 -53.5 -113t-71 -98.5t-97 -70t-131.5 -26.5q-42 0 -73 12.5t-51.5 33t-31 47.5t-10.5 56q0 25 8 43.5t21 30.5t28 18t30 6q14 0 23.5 -4.5t15 -11.5t8 -16t2.5 -17q-12 0 -25 -3t-24.5 -11t-18.5 -22t-7 -36q0 -15 6 -31.5t18.5 -31t33 -23.5t49.5 -9
q52 0 90.5 23.5t67.5 62.5t51.5 89t42.5 104q-17 12 -25.5 28t-8.5 27q0 23 20 39.5t57 21.5q14 38 30 71.5t36 61.5q-8 2 -30.5 13t-52 23t-60.5 22t-56 10q-66 0 -94 -26t-28 -64q0 -33 33 -56t90 -23q0 -22 -16 -42t-37 -20q-15 0 -33.5 7t-34.5 21.5t-27 36.5t-11 52
q0 36 14.5 69t41.5 58t66 40t87 15q40 0 74 -8.5t60.5 -19t44.5 -20t26 -10.5q20 32 44 42t40 10q17 0 27 -11.5t10 -24.5q0 -21 -8.5 -37.5t-21 -28.5t-27 -20.5t-25.5 -13.5q-17 -26 -32.5 -60.5t-30.5 -72.5q8 -2 15.5 -4.5t15.5 -6.5q22 20 37.5 47t39.5 68
q63 107 125 156.5t130 49.5q14 0 28 -4t25.5 -12.5t19 -21.5t7.5 -31q0 -20 -9.5 -39t-25.5 -34t-37 -24.5t-45 -9.5q-21 0 -31.5 18.5t-10.5 41.5q52 0 86.5 18t34.5 44q0 14 -12 21t-20 7q-42 0 -76 -39t-74 -111q-16 -29 -35.5 -57.5t-39.5 -52.5t-38.5 -41.5
t-33.5 -24.5q36 -36 36 -87q0 -28 -6 -47.5t-12.5 -37t-12.5 -36t-6 -44.5q0 -35 14.5 -54.5t45.5 -19.5q27 0 49 21t22 61q0 32 -21.5 50.5t-62.5 18.5q0 4 2.5 11t7 13.5t11.5 11t17 4.5q32 0 56.5 -25t24.5 -70q0 -30 -12.5 -54.5t-33 -42t-46.5 -27t-54 -9.5
q-30 0 -52 8.5t-35.5 23t-20 32.5t-6.5 38q0 23 6 43.5t13.5 40t13.5 38t6 36.5q0 25 -13.5 35.5t-20.5 12.5l-10 -5q-5 -2 -9.5 -5t-9.5 -5z" />
    <glyph glyph-name="L" unicode="L" horiz-adv-x="440" 
d="M111 -28q-48 -14 -104 -14q-72 0 -112.5 29t-40.5 80q0 21 9.5 39t25 31t36 20t42.5 7q43 0 89 -17.5t102 -67.5q26 37 48 86.5t43.5 107t44 120t49.5 125.5q-44 17 -60 48.5t-16 66.5q0 23 8 38.5t18.5 24.5t20.5 13t15 4q20 0 35.5 -13t15.5 -35q-20 0 -35.5 -16
t-15.5 -39q0 -14 5.5 -31t24.5 -29q22 45 47 83t52.5 65.5t59 43t66.5 15.5q19 0 36 -3.5t29.5 -12.5t20 -24t7.5 -37q0 -35 -18.5 -64.5t-48 -52t-66.5 -37t-74 -19.5q-28 -78 -56.5 -150.5t-59 -135.5t-65.5 -113.5t-77 -83.5q42 -47 72 -86.5t54 -68t44.5 -44.5t44.5 -16
q17 0 26.5 10t9.5 26q0 66 -112 66q0 30 13 48t42 18q18 0 35.5 -8.5t31 -23.5t21.5 -34.5t8 -40.5q0 -33 -13 -54t-32.5 -33t-42 -17t-40.5 -5q-35 0 -62 10t-55 34.5t-62.5 65t-83.5 101.5zM487 543q34 7 63.5 20t51 30t34 38t12.5 43q0 11 -7.5 19.5t-20.5 8.5
q-39 0 -70 -43.5t-63 -115.5zM81 6q-35 36 -70.5 56t-62.5 20q-24 0 -33 -10t-9 -22q0 -21 25 -41t76 -20q40 0 74 17z" />
    <glyph glyph-name="M" unicode="M" horiz-adv-x="696" 
d="M527 92q0 46 14.5 98t37.5 104.5t50.5 102t53.5 91t47.5 72t32.5 45.5h-2q-20 -18 -50 -54t-63 -83.5t-67 -103.5t-63.5 -113.5t-52 -113.5t-31.5 -103q-7 -35 -24 -55.5t-32 -20.5q-13 0 -25 5t-21 15.5t-14.5 27.5t-5.5 42q0 47 8.5 97.5t22.5 100.5t30.5 97t32 85.5
t28.5 67t19 42.5l-2 1q-17 -11 -51.5 -55.5t-70.5 -124.5q-34 -76 -70 -148t-79.5 -128.5t-97 -90.5t-123.5 -34q-42 0 -72.5 11.5t-51 31t-30.5 45.5t-10 55q0 25 8 43t21 30t28 17.5t30 5.5q29 0 39 -15t10 -32q-12 0 -25 -3t-24.5 -11t-18.5 -22t-7 -36q0 -15 5 -31
t17 -28.5t31.5 -21t48.5 -8.5q40 0 75.5 17t67 47t59.5 70.5t54 87.5t50.5 98.5t48.5 103.5q22 47 46 88.5t49.5 72.5t51.5 49t50 18q29 0 40.5 -15.5t11.5 -29.5q0 -4 -10.5 -31.5t-27 -70t-35 -94.5t-35 -106t-27.5 -105t-11 -90l2 -1q10 38 38.5 99t67.5 130.5t84.5 140
t88.5 127.5t80 92.5t60 35.5t38.5 -12t15.5 -38q0 -14 -19 -42t-48 -68.5t-62.5 -93.5t-62.5 -115.5t-48 -135t-19 -151.5q0 -21 6.5 -43t19 -41t31.5 -31t44 -12q0 -15 -8.5 -27.5t-21.5 -21t-27 -13.5t-24 -5q-24 0 -46.5 12.5t-40 39t-28 68t-10.5 99.5z" />
    <glyph glyph-name="N" unicode="N" horiz-adv-x="597" 
d="M1003 672q-70 0 -142.5 -32.5t-138 -106.5t-120 -194.5t-87.5 -296.5q-9 -48 -18.5 -66t-28.5 -18q-39 0 -57 34t-18 90q0 72 12 143t29 132.5t34 108.5t28 72h-2q-9 -8 -23 -37.5t-33 -72t-42.5 -94t-51.5 -103.5t-61.5 -101.5t-72 -87.5t-81.5 -61t-92 -23
q-42 0 -72.5 11.5t-51 31t-30.5 45.5t-10 55q0 25 8 43t21 30t28 17.5t30 5.5q29 0 39 -15t10 -32q-12 0 -25 -3t-24.5 -11t-18.5 -22t-7 -36q0 -15 5 -31t17 -28.5t31.5 -21t48.5 -8.5q52 0 96.5 28t83 74.5t71.5 105.5t62 120.5t54.5 120.5t49.5 105.5t46.5 74.5t45.5 28
q31 0 53.5 -20.5t22.5 -45.5q0 -16 -19.5 -49.5t-43 -89t-43 -135t-19.5 -188.5h2q35 142 82.5 258.5t101.5 199t111.5 127.5t113.5 45q31 0 50 -8t29.5 -19.5t13.5 -25t3 -23.5z" />
    <glyph glyph-name="O" unicode="O" horiz-adv-x="678" 
d="M631 259q-26 -68 -69.5 -123.5t-96.5 -95t-112 -61t-114 -21.5q-56 0 -98 17.5t-69.5 48t-41 71t-13.5 87.5q0 60 18 117.5t49.5 108.5t75 94t93.5 73.5t105.5 48t111.5 17.5q52 0 93.5 -18t66.5 -58q5 1 10.5 1h10.5q59 0 92 -36.5t33 -92.5q0 -63 -39.5 -110
t-105.5 -68zM602 284q9 30 14 62.5t5 67.5q0 29 -4 51.5t-11 39.5q-23 -12 -35 -34.5t-12 -46.5q-20 0 -35.5 6.5t-15.5 16.5q0 36 18 61.5t46 39.5q-27 21 -59 21q-39 0 -69 -32t-30 -95q0 -40 12 -70t32.5 -50.5t47.5 -30.5t58 -10q20 0 38 3zM650 515q5 -21 8 -44.5
t3 -50.5q0 -68 -18 -126q42 15 68.5 47.5t26.5 81.5q0 42 -22.5 66t-65.5 26zM589 248q-14 -2 -28.5 -3.5t-29.5 -1.5q-48 0 -90.5 15.5t-74 44.5t-49.5 71.5t-18 95.5q0 23 12 52q-35 -25 -65.5 -60t-54 -80t-37 -100t-13.5 -119q0 -43 12 -71.5t31.5 -45t44.5 -23.5t50 -7
q48 0 94.5 16.5t87.5 46.5t74 73t54 96z" />
    <glyph glyph-name="P" unicode="P" horiz-adv-x="637" 
d="M426 297q-30 -66 -64 -128t-77.5 -110t-99 -77.5t-128.5 -29.5q-42 0 -73 12.5t-51.5 33t-31 47.5t-10.5 56q0 25 8 43.5t21 30.5t28 18t30 6q14 0 23.5 -4.5t15 -11.5t8 -16t2.5 -17q-12 0 -25 -3t-24.5 -11t-18.5 -22t-7 -36q0 -15 6 -31.5t18 -31t31.5 -23.5t46.5 -9
q50 0 92.5 35t80 91t71.5 126t67.5 140t67 132t70.5 103q-5 1 -10.5 1h-10.5q-62 0 -108 -13.5t-76 -33t-45 -40.5t-15 -36q0 -13 3.5 -22.5t13 -15.5t27 -9t45.5 -3q0 -22 -16 -42t-37 -20q-13 0 -27 7t-25 19.5t-18.5 30.5t-7.5 40q0 29 21 59t62.5 54t103.5 39.5
t143 15.5h5q33 32 63 42t55 10q32 0 43.5 -6t11.5 -14q0 -6 -6.5 -9t-28.5 -3q-12 0 -28.5 -5t-36.5 -26q31 -6 57.5 -21t46 -36.5t31 -48t11.5 -56.5q0 -60 -30.5 -104.5t-73 -74t-87 -44.5t-72.5 -15q-25 0 -42 19.5t-19 47.5zM437 322q45 1 87.5 13.5t75 34t52 52
t19.5 68.5q0 47 -28 73.5t-65 34.5q-41 -51 -73.5 -124.5t-67.5 -151.5z" />
    <glyph glyph-name="Q" unicode="Q" horiz-adv-x="608" 
d="M174 327q-1 -68 26.5 -103.5t84.5 -35.5q31 0 56.5 11t43.5 28.5t27.5 38.5t9.5 41q0 31 -14 44.5t-31 13.5q-12 0 -21 -5.5t-14 -13.5t-7.5 -16.5t-2.5 -14.5q-28 0 -40 10.5t-12 24.5q0 22 22 42t63 20q44 0 69.5 -23t25.5 -68q0 -36 -16 -67.5t-44 -54.5t-66 -36
t-82 -13q-54 0 -91.5 17t-61 43t-33.5 58.5t-10 62.5q0 49 25.5 104t73 100.5t115.5 75.5t153 30q63 0 108.5 -18t75.5 -47.5t44.5 -68.5t14.5 -81q0 -60 -17 -112.5t-45.5 -96.5t-65.5 -79.5t-78 -63.5t-82.5 -47.5t-78.5 -30.5q36 -46 66 -85.5t57.5 -68t54.5 -44.5
t56 -16q72 0 72 56q0 15 -8 25.5t-21.5 17t-30 9t-32.5 2.5q0 23 13.5 41t42.5 18q19 0 38 -5.5t33 -15.5t23 -25t9 -33q0 -27 -14.5 -49t-38 -37.5t-52.5 -24t-59 -8.5q-43 0 -80 10t-73.5 34t-75.5 63.5t-86 97.5q-26 -9 -60 -14t-65 -5q-24 0 -46 5.5t-39 17.5t-27.5 30
t-10.5 43q0 28 12 49t30.5 35.5t42 22t46.5 7.5q102 0 207 -126q56 18 115.5 53t109 85t81.5 114t32 141q0 44 -13.5 76t-36.5 53t-54 31t-65 10q-54 0 -104.5 -22t-88.5 -58t-61.5 -83t-23.5 -96zM175 -14q-33 42 -60.5 56t-57.5 14q-17 0 -35 -9t-18 -31q0 -23 21.5 -34.5
t56.5 -11.5q23 0 49.5 5.5t43.5 10.5z" />
    <glyph glyph-name="R" unicode="R" horiz-adv-x="720" 
d="M546 78q0 -35 14.5 -54.5t45.5 -19.5q27 0 49 21t22 61q0 32 -21.5 50.5t-62.5 18.5q0 4 2.5 11t7 13.5t11.5 11t17 4.5q32 0 56.5 -25t24.5 -70q0 -30 -12.5 -54.5t-33 -42t-46.5 -27t-54 -9.5q-30 0 -52 8.5t-35.5 23t-20 32.5t-6.5 38q0 23 6 43.5t13.5 40t13.5 38
t6 36.5q0 20 -6.5 31.5t-13.5 13.5q-8 0 -18 -1q-8 -1 -18.5 -1.5t-21.5 -1.5q-29 -62 -62 -119t-75.5 -100.5t-96 -70t-122.5 -26.5q-42 0 -73 12.5t-51.5 33t-31 47.5t-10.5 56q0 25 8 43.5t21 30.5t28 18t30 6q14 0 23.5 -4.5t15 -11.5t8 -16t2.5 -17q-12 0 -25 -3
t-24.5 -11t-18.5 -22t-7 -36q0 -15 6 -31.5t18 -31t31.5 -23.5t46.5 -9q41 0 77 24.5t68.5 65.5t62 94t57.5 111q-15 9 -19.5 20.5t-4.5 18.5t2 15.5t9.5 16t21 13.5t36.5 9q34 72 67.5 134.5t71.5 104.5q-5 1 -10.5 1h-10.5q-62 0 -108 -13.5t-76 -33t-45 -40.5t-15 -36
q0 -13 3.5 -22.5t13 -15.5t27 -9t45.5 -3q0 -22 -16 -42t-37 -20q-13 0 -27 7t-25.5 19.5t-19 30.5t-7.5 40q0 29 21 59t63 54t104 39.5t143 15.5h5q33 32 63 42t55 10q32 0 43.5 -6t11.5 -14q0 -6 -6.5 -9t-28.5 -3q-12 0 -28.5 -5t-36.5 -26q31 -6 57 -20.5t45 -34.5
t30 -45t11 -53q0 -43 -17.5 -76t-43.5 -56t-56 -38t-56 -22q9 -20 9 -42q0 -28 -6 -47.5t-12.5 -37t-12.5 -36t-6 -44.5zM458 371q27 -6 52 -20q31 5 60 17t51.5 30t36 41t13.5 51q0 24 -7 41.5t-19.5 29.5t-30 20t-37.5 14q-34 -42 -62 -100.5t-57 -123.5z" />
    <glyph glyph-name="S" unicode="S" horiz-adv-x="478" 
d="M144 405q-73 11 -115.5 41.5t-42.5 71.5q0 23 8.5 37.5t20 23t22.5 11.5t16 3q17 0 27 -8.5t10 -30.5q-20 0 -38 -12t-18 -38q0 -24 25.5 -45.5t78.5 -30.5q-1 7 -1.5 14.5t-0.5 15.5q0 37 23 70t59.5 58t81.5 40t89 15q42 0 71 -8t47 -21.5t26.5 -30.5t8.5 -36
q0 -33 -21 -58t-57 -42.5t-85 -28t-105 -14.5q17 -12 36.5 -23t39.5 -24q57 -37 90.5 -80.5t33.5 -96.5q0 -48 -18.5 -84.5t-48.5 -63.5t-67.5 -44.5t-75 -28t-72.5 -15t-59 -4.5q-73 0 -122.5 19t-79.5 47.5t-43 62.5t-13 64q0 33 15 59t38.5 44t52.5 27.5t57 9.5
q29 0 39 -15t10 -32q-31 0 -58.5 -8t-48 -23t-32.5 -36.5t-12 -48.5q0 -15 8 -38.5t28.5 -46t56 -38.5t91.5 -16q36 0 77 10t76 32.5t58 58t23 86.5q0 27 -9.5 48t-24.5 38t-34 31l-38 28q-43 31 -68 53t-36 51zM251 423q46 2 90 9.5t78 21t54.5 32.5t20.5 44q0 31 -26.5 43
t-68.5 12q-35 0 -64.5 -10t-51.5 -27t-34.5 -39.5t-12.5 -48.5q0 -19 15 -37z" />
    <glyph glyph-name="T" unicode="T" horiz-adv-x="425" 
d="M582 545q16 0 33 3.5t31 11t22.5 19t8.5 28.5q0 35 -37 57.5t-109 22.5q0 36 19 59.5t46 23.5t55 -8.5t51.5 -25t38 -41t14.5 -55.5q0 -28 -16 -53.5t-46.5 -45t-74 -31t-98.5 -11.5q-30 -46 -53.5 -104t-48 -119t-54 -119t-71 -103.5t-98.5 -73.5t-138 -28
q-42 0 -73 12.5t-51.5 33t-31 47.5t-10.5 56q0 25 8 43.5t21 30.5t28 18t30 6q14 0 23.5 -4.5t15 -11.5t8 -16t2.5 -17q-12 0 -25 -3t-24.5 -11t-18.5 -22t-7 -36q0 -15 6 -31.5t18.5 -31t33 -23.5t49.5 -9q56 0 97 27.5t71 72.5t53 101.5t44.5 115.5t44 114t51.5 97
q-8 2 -30.5 13t-52 23t-60.5 22t-56 10q-66 0 -94 -26t-28 -64q0 -33 33 -56t90 -23q0 -22 -16 -42t-37 -20q-15 0 -33.5 7t-34.5 21.5t-27 36.5t-11 52q0 36 14.5 69t41.5 58t66 40t87 15q55 0 98 -16t79 -35t67.5 -35t65.5 -16z" />
    <glyph glyph-name="U" unicode="U" horiz-adv-x="577" 
d="M296 506q0 30 -5.5 56t-18.5 46t-34.5 31.5t-52.5 11.5q-35 0 -66 -11.5t-54 -32t-36 -49t-13 -63.5q0 -22 4 -41t13.5 -33t25 -22t38.5 -8q19 0 35 10t26.5 26t16.5 36t6 39q20 0 35.5 -10.5t15.5 -29.5q0 -24 -12 -46t-32 -39t-45.5 -27t-52.5 -10q-29 0 -50.5 11.5
t-35 31t-20 45t-6.5 53.5q0 42 17.5 80t48.5 66.5t72.5 45t88.5 16.5q53 0 88 -18.5t56 -46.5t30 -61t9 -63q0 -40 -15 -76t-37.5 -70.5t-48.5 -68.5t-48.5 -68.5t-37.5 -71.5t-15 -78q0 -40 17 -58.5t43 -18.5q38 0 71 31t63.5 83t59 119t58 138t60 141.5t64.5 129.5
q3 2 14.5 5.5t27.5 3.5q17 0 32 -8.5t15 -27.5q0 -7 -1 -12.5t-3.5 -11.5t-7 -14t-10.5 -20q-50 -90 -86 -168t-59.5 -141t-35 -109.5t-11.5 -72.5q0 -7 4.5 -11.5t10.5 -4.5q29 0 56.5 24t57.5 65q5 0 8.5 -3t3.5 -8q-13 -23 -31 -44.5t-39.5 -39t-45.5 -28t-49 -10.5
q-58 0 -58 59q0 30 7 60.5t12 45.5h-2q-17 -40 -38 -77t-48.5 -65.5t-61 -45.5t-73.5 -17q-29 0 -50 11.5t-35 31t-20.5 45.5t-6.5 56q0 43 14.5 79t36.5 69t47.5 63.5t47.5 61.5t36.5 63.5t14.5 69.5z" />
    <glyph glyph-name="V" unicode="V" horiz-adv-x="745" 
d="M77 -42q-21 0 -34.5 7.5t-13.5 22.5q0 17 9.5 24.5t20.5 7.5t17.5 -7t6.5 -22q43 0 76 27t59 70.5t48 99t45 113.5t49 113t60 97q-8 2 -31 13t-53 23t-62 22t-57 10q-66 0 -94 -26t-28 -64q0 -33 35 -56t92 -23q0 -22 -16 -42t-37 -20q-15 0 -33.5 7t-34.5 21.5t-27 36.5
t-11 52q0 36 14.5 69t41.5 58t66 40t87 15q40 0 74 -8.5t60.5 -19t44.5 -20t26 -10.5q20 32 44 42t40 10q17 0 27 -11.5t10 -24.5q0 -21 -8.5 -37.5t-21 -28.5t-27 -20.5t-25.5 -13.5q-27 -37 -49 -84.5t-43 -98t-43 -101.5t-48.5 -95t-59 -78.5t-75.5 -51.5v-2
q69 9 137 31.5t129.5 55.5t114.5 74.5t92 89.5t61 100.5t22 107.5q0 29 -7.5 50.5t-20 35.5t-28.5 21t-32 7q0 13 7.5 26.5t20 24t28 17t31.5 6.5q18 0 35.5 -8.5t32 -25t23.5 -41.5t9 -58q0 -88 -38.5 -163.5t-102.5 -136.5t-145.5 -107.5t-168 -78.5t-170 -48t-151.5 -16z
" />
    <glyph glyph-name="W" unicode="W" horiz-adv-x="1092" 
d="M986 665q0 13 7.5 26.5t20 24t28 17t31.5 6.5q31 0 56 -14.5t43 -38.5t27.5 -55t9.5 -64q0 -88 -40.5 -168t-107 -147.5t-151.5 -122t-173.5 -92.5t-174.5 -58.5t-153 -20.5q-21 0 -34.5 7.5t-13.5 22.5q0 17 9.5 24.5t20.5 7.5t17.5 -7t6.5 -22q45 0 77 28.5t57 72.5
t45.5 97t42.5 103h-2q-72 -93 -140 -157t-135.5 -103t-137 -56.5t-145.5 -17.5q-21 0 -34.5 7.5t-13.5 22.5q0 17 9.5 24.5t20.5 7.5t17.5 -7t6.5 -22q43 0 76 27t59 70.5t48 99t45 113.5t49 113t60 97q-8 2 -31 13t-53 23t-62 22t-57 10q-66 0 -94 -26t-28 -64
q0 -33 35 -56t92 -23q0 -22 -16 -42t-37 -20q-15 0 -33.5 7t-34.5 21.5t-27 36.5t-11 52q0 36 14.5 69t41.5 58t66 40t87 15q40 0 74 -8.5t60.5 -19t44.5 -20t26 -10.5q20 32 44 42t40 10q17 0 27 -11.5t10 -24.5q0 -21 -8.5 -37.5t-21 -28.5t-27 -20.5t-25.5 -13.5
q-27 -37 -49 -84.5t-43 -98t-43 -101.5t-48.5 -95t-59 -78.5t-75.5 -51.5v-2q62 9 136 56.5t150 123t148.5 173t132.5 204.5q19 34 38 52.5t35.5 27t30.5 9.5t24 1q17 0 27 -11.5t10 -24.5q0 -21 -8.5 -37.5t-21 -28.5t-27 -20.5t-25.5 -13.5q-27 -37 -49 -84.5t-43 -98
t-43 -101.5t-48.5 -95t-59 -78.5t-75.5 -51.5v-2q69 10 138.5 36.5t134 66t120.5 88.5t97.5 103.5t65.5 111.5t24 112q0 39 -13.5 68t-32.5 48t-40.5 28t-37.5 9z" />
    <glyph glyph-name="X" unicode="X" horiz-adv-x="832" 
d="M504 152q0 -34 6.5 -62.5t20.5 -49.5t35.5 -32.5t52.5 -11.5q35 0 64 13.5t50 35t32.5 48.5t11.5 54q0 31 -16 46.5t-31 15.5q-13 0 -22 -5t-14.5 -11.5t-8 -14t-2.5 -12.5q-20 0 -35.5 6.5t-15.5 16.5q0 11 5.5 23t16 21.5t26 16t35.5 6.5q44 0 71 -25t27 -70
q0 -42 -16 -79t-45.5 -64.5t-71.5 -43.5t-94 -16q-73 0 -123.5 34t-71.5 97q-30 -28 -59.5 -52t-64.5 -41.5t-79 -27.5t-103 -10q-42 0 -73.5 11.5t-53 31t-32.5 45.5t-11 55q0 25 8 43t21 30t28 17.5t30 5.5q29 0 39 -15t10 -32q-12 0 -25 -3t-24.5 -11t-18.5 -22t-7 -36
q0 -15 6 -31t19 -28.5t33.5 -21t49.5 -8.5q63 0 123.5 34t108 95t76 145t28.5 184q0 34 -6.5 62.5t-20.5 49.5t-35.5 32.5t-52.5 11.5q-35 0 -64 -13.5t-50 -35t-32.5 -48.5t-11.5 -54q0 -31 16 -46.5t31 -15.5q13 0 22 4.5t14.5 11.5t8 14.5t2.5 12.5q20 0 35.5 -6.5
t15.5 -16.5q0 -11 -5.5 -23t-16 -21.5t-26 -16t-35.5 -6.5q-44 0 -71 25t-27 70q0 42 16 79t45.5 64.5t71.5 43.5t94 16q73 0 123.5 -34t71.5 -97q19 27 48.5 50.5t66 41.5t80 28.5t91.5 10.5q29 0 56 -6.5t48 -20.5t33.5 -38t12.5 -58q0 -24 -10 -42t-25 -30.5t-32 -18.5
t-30 -6q-29 0 -39 15t-10 32q12 0 26.5 2.5t27.5 10t21.5 21t8.5 35.5q0 30 -22.5 51.5t-66.5 21.5q-51 0 -106.5 -37t-101.5 -100t-76 -146t-30 -175z" />
    <glyph glyph-name="Y" unicode="Y" horiz-adv-x="597" 
d="M451 148q-23 -36 -47 -68.5t-52.5 -57.5t-62 -39.5t-73.5 -14.5q-22 0 -42 8.5t-35 24.5t-23.5 39.5t-8.5 54.5q0 40 13 76.5t33 70.5t42.5 66.5t42.5 64.5t33 65t13 68q0 30 -5.5 56t-18.5 46t-34.5 31.5t-52.5 11.5q-35 0 -66 -11.5t-54 -32t-36 -49t-13 -63.5
q0 -22 4 -41t13.5 -33t25 -22t38.5 -8q19 0 35 10t26.5 26t16.5 36t6 39q20 0 35.5 -10.5t15.5 -29.5q0 -24 -12 -46t-32 -39t-45.5 -27t-52.5 -10q-29 0 -50.5 11.5t-35 31t-20 45t-6.5 53.5q0 42 17.5 80t48.5 66.5t72.5 45t88.5 16.5q53 0 88 -18.5t56 -46.5t30 -61
t9 -63q0 -45 -13.5 -83.5t-34 -74t-44 -68.5t-44 -66t-34 -68t-13.5 -74q0 -36 17.5 -47.5t35.5 -11.5q43 0 81 28t71 71.5t62 96t53 101.5q12 23 27 60t33.5 80.5t40 88.5t44.5 85q8 13 21.5 18t21.5 5q22 0 36 -11.5t14 -28.5q0 -11 -3 -22.5t-15 -31.5
q-47 -78 -85.5 -165.5t-76.5 -174t-79.5 -165.5t-94 -139.5t-119 -96.5t-155.5 -36q-42 0 -73 12.5t-51.5 33t-31 47.5t-10.5 56q0 25 8 43.5t21 30.5t28 18t30 6q14 0 23.5 -4.5t15 -11.5t8 -16t2.5 -17q-12 0 -25 -3t-24.5 -11t-18.5 -22t-7 -36q0 -15 6 -31.5t18.5 -31
t33 -23.5t49.5 -9q63 0 110.5 26t85.5 72t70 110t62 139h-2z" />
    <glyph glyph-name="Z" unicode="Z" horiz-adv-x="488" 
d="M220 584q-30 0 -53 -7t-38.5 -18t-23 -24.5t-7.5 -26.5q0 -14 9.5 -27.5t27 -24t42 -16.5t55.5 -4q0 -17 -6 -30.5t-16 -24t-21.5 -16t-21.5 -5.5q-15 0 -33.5 7t-34.5 21.5t-27 36.5t-11 52q0 36 14.5 69t40 58t61.5 40t79 15q35 0 64.5 -11.5t55.5 -26t50.5 -26
t50.5 -11.5q24 0 42.5 7.5t32.5 17t23.5 17t14.5 7.5q7 0 16 -3t17.5 -9t14.5 -16.5t6 -25.5q0 -12 -24 -37t-63.5 -57.5t-91 -71t-106.5 -79t-109 -80t-99 -74.5t-77 -63t-43 -45q10 7 28 17.5t40 20.5t46.5 17.5t48.5 7.5q36 0 61.5 -15.5t46 -33.5t39.5 -33.5t42 -15.5
q16 0 34.5 7t36.5 20t35 31t31 40q6 0 11.5 -4t5.5 -10q-18 -27 -43.5 -56t-54.5 -53t-60 -39t-60 -15q-22 0 -39 11.5t-33.5 25t-33.5 25t-39 11.5q-23 0 -45 -9t-41.5 -20.5t-36 -20.5t-27.5 -9q-8 0 -18 4t-18.5 13.5t-14.5 25t-6 37.5q0 20 37.5 55.5t96 80t129 93.5
t136 97t117 91t72.5 74q-20 -12 -41 -21q-18 -8 -40 -14t-42 -6q-34 0 -62 13t-53.5 28t-49 28t-47.5 13z" />
    <glyph glyph-name="bracketleft" unicode="[" horiz-adv-x="243" 
d="M251 613q3 0 31 -1t61.5 -2t62 -2t32.5 -2q0 -11 -3.5 -30t-8.5 -30q-10 0 -24 1.5t-29 3t-28 3t-20 1.5q-9 -17 -25 -52q-14 -30 -35.5 -82t-53.5 -135q-30 -79 -51 -135t-33.5 -92t-17.5 -54t-5 -21q3 -2 13 -2.5t22.5 0t24.5 1t18 0.5q0 -3 -3 -12.5t-6.5 -19
t-7.5 -17t-6 -7.5q-4 0 -30 2.5t-56 6t-54.5 7.5t-24.5 7q0 4 13 36t33 80t43.5 107t45.5 117q22 59 42.5 117t36.5 103.5t27.5 74t15.5 28.5z" />
    <glyph glyph-name="backslash" unicode="\" horiz-adv-x="205" 
d="M60 613q4 0 9 -23t12 -65t17 -101t24 -132q27 -142 45 -222t18 -99q0 -8 -10 -10.5t-18 -2.5q-7 0 -12 24t-11.5 66.5t-15 102t-22.5 130.5q-15 75 -28.5 131.5t-24 95.5t-17 61t-6.5 28q0 8 13 12t27 4z" />
    <glyph glyph-name="bracketright" unicode="]" horiz-adv-x="273" 
d="M149 -95q-3 0 -31 1t-61.5 2t-62 2t-32.5 2q0 11 3.5 30t8.5 30q10 0 24 -1.5t29 -3t28 -3t20 -1.5q9 17 25 52q14 30 35.5 82t53.5 135q30 79 51 135t33.5 92t17.5 54t5 21q-3 2 -13 2.5t-22.5 0t-24.5 -1t-18 -0.5q0 3 3 12.5t6.5 19t7.5 17t6 7.5q4 0 30 -2.5t56 -6
t54.5 -7.5t24.5 -7q0 -5 -13 -37t-33 -80t-43.5 -106.5t-45.5 -116.5q-22 -59 -42.5 -117t-36.5 -103.5t-27.5 -74t-15.5 -28.5z" />
    <glyph glyph-name="asciicircum" unicode="^" horiz-adv-x="277" 
d="M265 165q0 -9 -13.5 -15.5t-28.5 -6.5q-3 0 -8.5 9t-12.5 22t-15 27.5t-17 26.5q-8 -5 -21 -15.5l-26 -21t-23 -18.5t-13 -8q-16 0 -16 13q0 11 27 36t81 71q13 -15 28 -33t28 -35t21.5 -31t8.5 -21z" />
    <glyph glyph-name="underscore" unicode="_" horiz-adv-x="139" 
d="M0 -119h139v-21h-139v21z" />
    <glyph glyph-name="grave" unicode="`" 
d="M234 606q3 -17 14 -33t23 -30.5t21.5 -26.5t9.5 -20q0 -4 -1.5 -7.5t-12.5 -3.5q-6 7 -22.5 17t-34.5 20t-32 20.5t-14 19.5q0 4 3.5 11.5t9.5 15t15 12.5t21 5z" />
    <glyph glyph-name="a" unicode="a" horiz-adv-x="356" 
d="M197 37q0 23 7.5 50t18.5 54h-2q-13 -24 -29.5 -50t-36 -47t-43 -34.5t-49.5 -13.5q-9 0 -20 2.5t-20 11t-15.5 23.5t-6.5 41q0 35 12 77t32 84t46.5 81.5t56.5 70t61 48.5t60 18q26 0 36.5 -16.5t10.5 -41.5h2q11 28 22 43t15 15q15 0 26.5 -4.5t19 -11t11.5 -14
t4 -12.5q0 -9 -5 -23t-23 -43q-13 -21 -32 -60.5t-37 -84t-30.5 -86.5t-12.5 -69q32 5 61.5 25.5t53.5 60.5q12 0 12 -9q-4 -12 -18.5 -33t-36 -41.5t-50 -36t-59.5 -15.5q-17 0 -29.5 10.5t-12.5 30.5zM115 66q14 0 33 17.5t39.5 46t40 63t35 69t25 64.5t9.5 49
q0 12 -5.5 16t-11.5 4q-16 0 -36.5 -15t-42 -40t-41.5 -56.5t-36 -64.5t-25.5 -65t-9.5 -57q0 -17 7.5 -24t18.5 -7z" />
    <glyph glyph-name="b" unicode="b" horiz-adv-x="378" 
d="M8 70q0 32 14.5 91t39.5 128.5t57 141t66.5 130t69 95.5t63.5 37q10 0 22.5 -3.5t23 -10t17.5 -15t7 -17.5q0 -33 -13 -68.5t-35 -67t-49.5 -55t-57.5 -33.5q-25 -40 -47.5 -84t-40 -86t-27.5 -80t-10 -66q0 -30 10.5 -36.5t22.5 -6.5q21 0 45 15.5t45 37.5t36.5 44.5
t20.5 37.5q-7 15 -12 30q-5 13 -8 28.5t-3 30.5q0 37 9 67t22 52t26.5 34t21.5 12q12 0 23.5 -2.5t21 -8.5t15.5 -15.5t6 -22.5q0 -14 -5 -35.5t-14.5 -48.5t-22.5 -56.5t-29 -58.5q4 -19 17 -19q14 0 37 15.5t43 44.5q12 0 13 -11q-6 -10 -18.5 -25.5t-28.5 -30t-32.5 -25
t-29.5 -10.5q-8 0 -13 2.5t-9 6.5t-7 9q-45 -74 -102.5 -120t-134.5 -46q-35 0 -50.5 21.5t-15.5 52.5zM245 453q15 6 30.5 20.5t28.5 33t21.5 38.5t8.5 37q-10 -7 -34.5 -37.5t-54.5 -91.5zM325 247q7 18 12.5 30t8.5 21.5t4.5 17.5t1.5 18q-11 -7 -19 -29.5t-8 -57.5z" />
    <glyph glyph-name="c" unicode="c" horiz-adv-x="252" 
d="M280 401q-21 0 -52.5 -24t-61 -63.5t-50 -90t-20.5 -102.5q0 -43 18.5 -58t43.5 -15q35 0 63.5 20.5t45.5 47.5q6 0 9.5 -6t3.5 -9q-32 -52 -79.5 -78.5t-90.5 -26.5q-23 0 -43 6.5t-35 20.5t-23.5 37.5t-8.5 56.5q0 61 24.5 121t63 108t84.5 77.5t89 29.5q29 0 46 -19
t17 -39q0 -24 -8 -42.5t-19.5 -30.5t-24 -18t-22.5 -6q-18 0 -25 17t-7 29q10 0 23 3t24.5 9t19.5 13.5t8 16.5q0 6 -3 10.5t-10 4.5z" />
    <glyph glyph-name="d" unicode="d" horiz-adv-x="370" 
d="M292 48q28 1 59.5 23.5t54.5 58.5q5 0 9 -2t4 -7q-12 -21 -29.5 -43.5t-38.5 -40.5t-45 -29.5t-51 -11.5q-26 0 -38 15.5t-12 31.5q0 30 6.5 55.5t11.5 42.5h-2q-13 -26 -30 -51.5t-37 -46.5t-43 -34t-48 -13q-10 0 -21 4.5t-20.5 13.5t-15.5 23t-6 32q0 41 13 85.5
t34 87.5t49 81t57.5 67t59.5 46t56 17t36.5 -14.5t10.5 -37.5h3q24 57 50.5 109.5t53 93t50.5 65t44 24.5q10 0 22.5 -3.5t23 -10t17.5 -15t7 -17.5q0 -33 -13 -68.5t-35 -67t-49.5 -55t-57.5 -33.5q-12 -21 -26.5 -52.5t-30 -68.5t-30.5 -76t-27 -73.5t-19 -62.5t-7 -42z
M444 453q15 6 30.5 20.5t28.5 33t21.5 38.5t8.5 37q-10 -7 -34.5 -37.5t-54.5 -91.5zM297 375q0 12 -5.5 16t-11.5 4q-15 0 -35.5 -15t-41.5 -39.5t-41.5 -55.5t-36.5 -64.5t-26 -65.5t-10 -58q0 -17 8.5 -25t16.5 -8q14 0 33.5 18t40 46.5t40 64t35 70t25 64.5t9.5 48z" />
    <glyph glyph-name="e" unicode="e" horiz-adv-x="287" 
d="M124 -4q-58 0 -91 28t-33 96q0 62 27 121.5t67.5 106.5t88.5 76t90 29q19 0 34.5 -7t27 -18.5t17.5 -25t6 -26.5q0 -38 -18.5 -66t-51.5 -47.5t-79 -31t-100 -15.5q-20 -46 -20 -93q0 -40 19 -56t51 -16q27 0 50.5 8t42.5 21t32.5 28.5t20.5 29.5q6 0 10.5 -9t4.5 -12
q-15 -30 -38 -52.5t-50 -37.5t-55 -23t-53 -8zM266 403q-11 0 -30 -13.5t-40.5 -36t-42 -51.5t-33.5 -60q30 6 59 20t51 33.5t35.5 42.5t13.5 47q0 9 -4.5 13.5t-8.5 4.5z" />
    <glyph glyph-name="f" unicode="f" horiz-adv-x="248" 
d="M50 249q-11 31 -11 54q0 20 17.5 33t35.5 19q29 69 59.5 130.5t59 107.5t54 73t44.5 27q10 0 22 -3.5t22.5 -10t18 -15t7.5 -17.5q0 -44 -17.5 -87t-46 -82.5t-64 -76t-71.5 -67.5l-6 -12t-7 -13q9 -20 17 -48.5t13 -68.5q22 7 54 26.5t75 60.5q4 -3 7 -5t3 -14
q-9 -11 -23.5 -26t-32.5 -29.5t-38.5 -27.5t-41.5 -21q1 -16 1.5 -33t0.5 -37q0 -87 -16 -150t-40.5 -103.5t-55 -60t-59.5 -19.5q-22 0 -36.5 8t-22.5 22t-11.5 33t-3.5 41q0 36 7 81t19.5 95.5t29.5 105.5t37 110zM220 425q16 11 34 32.5t34 45t26.5 45.5t10.5 34
q-5 -1 -18 -16t-28.5 -37.5t-31 -50t-27.5 -53.5zM133 218q0 -2 3 -6t7 -8t11 -9q-2 22 -6 37.5t-6 21.5zM157 145q-10 0 -19 1q-8 1 -16.5 3t-14.5 7q-13 -39 -24.5 -78.5t-20 -76t-13.5 -68t-5 -54.5q0 -20 3.5 -33t16.5 -13q15 0 32 19t31 52.5t23.5 80t9.5 101.5
q0 13 -0.5 24t-1.5 19q-1 9 -1 16z" />
    <glyph glyph-name="g" unicode="g" horiz-adv-x="349" 
d="M250 20q19 9 40 21t41 26t37.5 31t29.5 36q13 0 13 -15q-29 -48 -77.5 -82t-99.5 -57q-20 -47 -40 -88t-41 -72t-42.5 -49t-44.5 -18q-35 0 -51 18.5t-16 37.5q0 33 15 60.5t37.5 49t48.5 36.5t47 24l15.5 31t24 49t22.5 49.5t12 32.5h-2q-13 -24 -29.5 -50t-36 -47
t-43 -34.5t-49.5 -13.5q-9 0 -20 3.5t-20 12.5t-15.5 24t-6.5 38q0 35 12 77t32 84t46.5 81.5t56.5 70t61 48.5t60 18q26 0 37 -14.5t11 -37.5h2q11 28 19.5 40t12.5 12q15 0 26.5 -4.5t19 -11t11.5 -14t4 -12.5q0 -9 -3 -19.5t-8 -18.5q-17 -32 -41.5 -85.5t-49.5 -118.5
q-14 -36 -28.5 -74t-29.5 -75zM113 64q13 0 32 18t39 46t40 63t36 70t25.5 65t9.5 49q0 12 -5.5 16t-11.5 4q-16 0 -36.5 -15t-42 -40t-41.5 -56.5t-36 -64.5t-25.5 -65t-9.5 -57q0 -17 8.5 -25t17.5 -8zM127 -61q-33 -16 -55.5 -43.5t-22.5 -51.5q0 -7 5 -7q15 11 35 38.5
t38 63.5z" />
    <glyph glyph-name="h" unicode="h" horiz-adv-x="355" 
d="M313 693q10 0 22.5 -3.5t23 -10t17.5 -15t7 -17.5q0 -33 -13.5 -68.5t-36 -67t-50.5 -55t-58 -33.5q-16 -22 -31 -50.5t-28 -59.5t-24 -62t-19 -57h2q68 122 119 190.5t81 68.5q10 0 22 -3t22 -10t17 -18.5t7 -27.5q0 -12 -6 -27.5t-15 -34t-20 -39t-22 -40.5
q-37 -69 -52.5 -111t-15.5 -68q0 -23 20 -23q10 0 23.5 7.5t27 19t24.5 25.5t17 28q13 0 13 -7q0 -11 -11.5 -32t-32 -42.5t-48.5 -37.5t-60 -16q-24 0 -40.5 15t-16.5 45q0 38 16.5 83t37 87.5t38.5 77.5t21 53q-18 -5 -48 -35.5t-61.5 -72t-57.5 -86t-35 -77.5
q-3 -11 -4 -20.5t-1 -17.5q0 -25 -5 -38.5t-24 -13.5q-27 0 -41 12.5t-14 33.5q0 20 8.5 58.5t24 88t36 106.5t44 113t50 107.5t52.5 91t51 63t47 23.5zM237 453q15 6 31 20.5t29.5 33t22.5 38.5t9 37q-10 -7 -36 -37.5t-56 -91.5z" />
    <glyph glyph-name="i" unicode="i" horiz-adv-x="174" 
d="M231 580q22 0 37.5 -13.5t15.5 -35.5t-15.5 -35.5t-37.5 -13.5t-37.5 13.5t-15.5 35.5t15.5 35.5t37.5 13.5zM154 453q31 0 49 -12.5t18 -26.5q0 -9 -5.5 -22t-20.5 -40q-14 -27 -31.5 -66t-34 -81t-28.5 -83t-16 -71q26 1 57.5 21.5t50.5 56.5q4 0 8.5 -2.5t4.5 -7.5
q-7 -16 -22.5 -37t-37.5 -40t-47.5 -32.5t-52.5 -13.5q-28 0 -37 14.5t-9 28.5q0 28 9.5 69.5t24 87.5t32.5 92t35 82.5t31.5 59.5t21.5 23z" />
    <glyph glyph-name="j" unicode="j" horiz-adv-x="169" 
d="M227 580q22 0 37.5 -13.5t15.5 -35.5t-15.5 -35.5t-37.5 -13.5t-37.5 13.5t-15.5 35.5t15.5 35.5t37.5 13.5zM53 20q19 9 40 20.5t41 25.5t37.5 30.5t29.5 35.5q5 0 9.5 -3t4.5 -11q-13 -22 -32.5 -42t-43.5 -37.5t-50.5 -32.5t-51.5 -26q-20 -47 -40 -88t-41 -72
t-42.5 -49t-44.5 -18q-35 0 -51 18.5t-16 37.5q0 33 15.5 61t39 49.5t49.5 36.5t47 24q9 15 24.5 56.5t34.5 94t39 109.5t39 104.5t35.5 78t26.5 30.5q31 0 50 -14.5t19 -27.5q0 -9 -3 -19.5t-8 -18.5q-14 -25 -32.5 -64t-39.5 -86t-43 -99.5t-42 -103.5zM-65 -60
q-17 -8 -31.5 -19.5t-25.5 -24.5t-17.5 -26.5t-6.5 -25.5q0 -7 5 -7q15 11 36.5 39t39.5 64z" />
    <glyph glyph-name="k" unicode="k" horiz-adv-x="355" 
d="M313 693q10 0 22.5 -3.5t23 -10t17.5 -15t7 -17.5q0 -33 -13.5 -68.5t-36 -67t-50.5 -55t-58 -33.5q-17 -25 -34 -58t-31 -65.5t-24 -61t-13 -44.5h2q31 54 59 101t54.5 82t52 55.5t51.5 20.5q23 0 42.5 -13.5t19.5 -45.5q0 -24 -9.5 -48t-27 -45t-43 -37.5t-57.5 -26.5
q14 -7 21 -16.5t7 -25.5q0 -17 -5 -33.5t-11.5 -32t-11.5 -29.5t-5 -26q0 -23 20 -23q10 0 24 7.5t27.5 19.5t25 27t17.5 30q13 0 13 -7q0 -11 -11.5 -32.5t-32 -44t-49 -39t-61.5 -16.5q-24 0 -40.5 15t-16.5 45q0 12 5.5 27.5t11.5 32t11.5 33t5.5 29.5q0 15 -5.5 20.5
t-12.5 7.5q-6 2 -8.5 6t-2.5 8q0 19 18 22q48 9 74.5 37.5t26.5 77.5q-8 0 -25.5 -14t-39 -37t-45.5 -52t-44.5 -59t-36.5 -58.5t-22 -50.5q-3 -11 -4 -20.5t-1 -17.5q0 -25 -5 -38.5t-24 -13.5q-27 0 -41 12.5t-14 33.5q0 20 8.5 58.5t24 88t36 106.5t44 113t50 107.5
t52.5 91t51 63t47 23.5zM237 453q15 6 31 20.5t29.5 33t22.5 38.5t9 37q-10 -7 -36 -37.5t-56 -91.5z" />
    <glyph glyph-name="l" unicode="l" horiz-adv-x="179" 
d="M228 118q-13 -21 -32 -42.5t-42.5 -39t-50 -29t-54.5 -11.5q-19 0 -34.5 11.5t-15.5 35.5q0 41 16.5 105.5t42.5 136.5t59 145t66.5 131.5t64.5 95t53 36.5q9 0 21 -3.5t23 -10t18.5 -15t7.5 -17.5q0 -45 -20 -90.5t-50 -86.5t-65.5 -76.5t-66.5 -59.5
q-9 -17 -23.5 -53.5t-28 -79t-23.5 -84.5t-10 -70q31 1 68.5 20.5t63.5 61.5q12 0 12 -11zM201 400q16 11 36 36t38 53.5t30 54.5t12 38q-5 -1 -19.5 -20t-32 -46t-35 -58.5t-29.5 -57.5z" />
    <glyph glyph-name="m" unicode="m" horiz-adv-x="536" 
d="M291 357q-18 -5 -48 -35.5t-61.5 -72t-57.5 -86t-35 -77.5q-3 -11 -4 -20.5t-1 -17.5q0 -25 -5 -38.5t-24 -13.5q-27 0 -41 17t-14 29q0 30 10 72t26 87.5t34.5 90.5t36 81t30.5 58t18 22q15 0 26.5 -4.5t19 -11t11.5 -14t4 -12.5q0 -9 -3 -19.5t-7 -18.5
q-17 -34 -38.5 -76t-44.5 -103h2q68 122 119 190.5t81 68.5q10 0 22 -3t22 -10t17 -18.5t7 -27.5q0 -9 -9.5 -27.5t-23.5 -44t-29.5 -58t-26.5 -70.5h2q68 122 119 190.5t81 68.5q10 0 22 -3t22 -10t17 -18.5t7 -27.5q0 -12 -6 -27.5t-15 -34t-20 -39t-22 -40.5
q-37 -69 -52.5 -111t-15.5 -68q0 -23 20 -23q10 0 23.5 7.5t27 19t24.5 25.5t17 28q13 0 13 -7q0 -11 -11.5 -32t-32 -42.5t-48.5 -37.5t-60 -16q-24 0 -40.5 15t-16.5 45q0 38 16.5 83t37 87.5t38.5 77.5t21 53q-18 -5 -48 -35.5t-61.5 -72t-57.5 -86t-35 -77.5
q-3 -11 -4 -20.5t-1 -17.5q0 -25 -5 -38.5t-24 -13.5q-27 0 -41 17t-14 29q0 45 15.5 94.5t35 93.5t37.5 78.5t22 48.5z" />
    <glyph glyph-name="n" unicode="n" horiz-adv-x="355" 
d="M155 453q15 0 26.5 -4.5t19 -11t11.5 -14t4 -12.5q0 -9 -3 -19.5t-7 -18.5q-17 -34 -38.5 -76t-44.5 -103h2q68 122 119 190.5t81 68.5q10 0 22 -3t22 -10t17 -18.5t7 -27.5q0 -12 -6 -27.5t-15 -34t-20 -39t-22 -40.5q-37 -69 -52.5 -111t-15.5 -68q0 -23 20 -23
q10 0 23.5 7.5t27 19t24.5 25.5t17 28q13 0 13 -7q0 -11 -11.5 -32t-32 -42.5t-48.5 -37.5t-60 -16q-24 0 -40.5 15t-16.5 45q0 38 16.5 83t37 87.5t38.5 77.5t21 53q-18 -5 -48 -35.5t-61.5 -72t-57.5 -86t-35 -77.5q-3 -11 -4 -20.5t-1 -17.5q0 -25 -5 -38.5t-24 -13.5
q-27 0 -41 17t-14 29q0 30 10 72t26 87.5t34.5 90.5t36 81t30.5 58t18 22z" />
    <glyph glyph-name="o" unicode="o" 
d="M342 316q0 -23 -8 -55q23 13 44 29.5t35 32.5q4 -3 7 -5t3 -10q-14 -19 -40 -43t-60 -43q-14 -39 -36 -79t-51.5 -72.5t-66.5 -53.5t-79 -21q-22 0 -38.5 9.5t-28 25t-17 36t-5.5 43.5q0 70 24 132t61.5 109t81.5 74.5t85 27.5q24 0 40.5 -11t27.5 -29.5t16 -43.5t5 -53z
M222 193q-37 0 -64.5 20.5t-29.5 61.5q-7 -11 -13.5 -28.5t-12 -38.5t-9 -43.5t-3.5 -41.5q0 -36 9.5 -54.5t32.5 -18.5q18 0 38 12.5t39.5 33.5t37 48.5t29.5 57.5q-27 -9 -54 -9zM258 236q13 0 31 5q4 15 6.5 29t2.5 28q0 41 -11.5 64t-37.5 23q-8 0 -18 -5t-18.5 -15
t-14 -23.5t-5.5 -30.5q0 -44 19 -59.5t46 -15.5z" />
    <glyph glyph-name="p" unicode="p" horiz-adv-x="424" 
d="M150 453q15 0 26.5 -4.5t19 -11t11.5 -14t4 -12.5q0 -9 -3 -19.5t-8 -18.5l-38 -76t-44 -103h2q31 58 61 105.5t60 81.5t61 53t64 19q11 0 25 -4t26.5 -16t21 -34.5t8.5 -58.5q0 -55 -21 -115.5t-56.5 -111.5t-82 -84t-96.5 -33q-37 0 -53.5 17.5t-16.5 46.5
q0 19 8.5 35.5t21.5 29.5t28.5 20.5t30.5 7.5q4 0 9.5 -4.5t9 -12t3.5 -17.5t-7 -20q-31 8 -55.5 -1t-24.5 -32q0 -29 38 -29q30 0 61 27t56.5 68.5t41.5 90.5t16 94q0 21 -4 34t-9.5 20.5t-11 10.5t-8.5 3q-22 0 -53.5 -27.5t-64 -68.5t-62 -88t-48.5 -86
q-11 -30 -22.5 -68.5t-20.5 -80.5t-15 -83.5t-6 -77.5q0 -25 -5 -38.5t-24 -13.5q-27 0 -41 17t-14 29q0 68 13.5 143.5t34.5 148t45.5 138t47 115.5t39 79.5t21.5 29.5z" />
    <glyph glyph-name="q" unicode="q" horiz-adv-x="349" 
d="M219 -51q17 -3 33 -7.5t28 -12.5q0 -6 -2.5 -12t-6.5 -6q-6 3 -23 7.5t-40 6.5q-35 -76 -70.5 -124t-71.5 -48q-35 0 -51 18.5t-16 37.5q0 38 12.5 63.5t32 41.5t43 24.5t44.5 13.5q10 18 25 46.5t28.5 57.5t24 52.5t12.5 32.5h-2q-13 -24 -29.5 -50t-36 -47t-43 -34.5
t-49.5 -13.5q-9 0 -20 3.5t-20 12.5t-15.5 24t-6.5 38q0 35 12 77t32 84t46.5 81.5t56.5 70t61 48.5t60 18q26 0 37 -14.5t11 -37.5h2q11 28 19.5 40t12.5 12q15 0 26.5 -4.5t19 -11t11.5 -14t4 -12.5q0 -9 -5 -22.5t-20 -41.5q-3 -6 -11 -22.5t-18.5 -40.5t-23 -53.5
t-24.5 -61.5q-23 -58 -44.5 -114t-44.5 -106zM113 64q13 0 32 18t39 46t40 63t36 70t25.5 65t9.5 49q0 12 -5.5 16t-11.5 4q-16 0 -36.5 -15t-42 -40t-41.5 -56.5t-36 -64.5t-25.5 -65t-9.5 -57q0 -17 8.5 -25t17.5 -8zM115 -81q-7 -1 -18.5 -8.5t-22 -18t-18 -23.5
t-7.5 -25q0 -7 5 -7q7 5 16 14.5t17.5 21t15.5 23.5t12 23z" />
    <glyph glyph-name="r" unicode="r" horiz-adv-x="315" 
d="M155 453q15 0 26.5 -4.5t19 -11t11.5 -14t4 -12.5q0 -9 -3 -19.5t-7 -18.5q-17 -34 -37 -70.5t-40 -90.5h2q62 112 105 174t82 62q9 0 19.5 -7.5t19 -19.5t14.5 -27.5t6 -31.5q0 -18 -15 -28.5t-32.5 -20t-32.5 -20t-15 -28.5q0 -17 12.5 -22t27.5 -5q26 0 43 5t28 12
q4 0 6 -5.5t2 -8.5q-3 -4 -14.5 -9.5t-27.5 -10t-35.5 -8t-38.5 -3.5q-12 0 -26 1t-26 6.5t-20 16.5t-8 31q0 9 5.5 21.5t13 25.5t15 24t11.5 16h-2q-6 -3 -18.5 -18t-28 -36.5t-32.5 -48.5t-32.5 -55.5t-28.5 -56.5t-19 -51q-3 -11 -4 -20.5t-1 -17.5q0 -25 -5 -38.5
t-24 -13.5q-27 0 -41 17t-14 29q0 30 10 72t26 87.5t34.5 90.5t36 81t30.5 58t18 22z" />
    <glyph glyph-name="s" unicode="s" horiz-adv-x="282" 
d="M71 318q0 32 16 57t39.5 42.5t49 26.5t43.5 9q29 0 53.5 -17.5t24.5 -53.5q0 -30 -17.5 -50t-41 -34t-46.5 -23.5t-34 -16.5q6 -5 23.5 -10t36 -16t33 -30t14.5 -50q0 -19 -9 -35t-22.5 -28.5t-28 -21.5t-24.5 -14v-2q31 7 68 31.5t60 60.5q14 0 14 -13
q-17 -28 -41 -52.5t-54 -42.5t-65.5 -28.5t-76.5 -10.5q-32 0 -54.5 9t-36.5 21.5t-20.5 25.5t-6.5 20q0 10 5 23.5t14 25.5t22 20.5t30 8.5q10 0 15 -10.5t9.5 -24t9.5 -26t14 -17.5q15 2 33 13t34 26t27 31t11 27q0 24 -19 38t-41.5 28t-41.5 32t-19 51zM148 265
q41 23 58.5 45t17.5 45q0 29 -28 29q-12 0 -25 -5t-23.5 -13t-17.5 -20t-7 -25q0 -14 5.5 -28.5t19.5 -27.5z" />
    <glyph glyph-name="t" unicode="t" horiz-adv-x="204" 
d="M98 402q-15 0 -18.5 6.5t-3.5 13.5q0 5 15 12.5t48 9.5q16 33 30.5 61.5t26.5 49t21 32.5t14 12q31 0 48 -12.5t17 -26.5q0 -9 -4.5 -21.5t-18.5 -38.5q-7 -12 -16 -28.5t-19 -36.5q20 -5 32 -14.5t12 -23.5q0 -5 -3 -11.5t-8 -13.5t-12 -11.5t-16 -4.5q-5 0 -14.5 4.5
t-22.5 10.5q-20 -41 -40 -85.5t-37 -87.5t-29 -81t-15 -66q13 0 36 7t47 19t45 28t30 34q4 0 8.5 -2.5t4.5 -7.5q-7 -16 -30.5 -38.5t-54.5 -43.5t-64.5 -36t-60.5 -15q-28 0 -37 14.5t-9 28.5q0 27 10.5 68t27 90t38 101.5t43.5 101.5q-5 1 -10.5 1.5t-10.5 0.5z" />
    <glyph glyph-name="u" unicode="u" horiz-adv-x="362" 
d="M93 97q0 -17 8.5 -25t17.5 -8q16 0 35 20t38 52t37.5 72t35.5 79t30.5 73.5t23.5 55.5q8 17 17 27t19 10q15 0 26.5 -4.5t19 -11t11.5 -14t4 -12.5q0 -9 -4.5 -22t-18.5 -38q-14 -26 -33.5 -67t-37 -84.5t-29.5 -84t-12 -67.5q31 1 65.5 22t57.5 59q6 0 9.5 -2t3.5 -10
q-13 -20 -31.5 -41.5t-40.5 -39t-48 -29t-54 -11.5q-13 0 -27.5 10t-14.5 33t7.5 49t18.5 53h-2q-13 -24 -29.5 -50t-36 -47t-43 -34.5t-49.5 -13.5q-9 0 -20 3.5t-20 12.5t-15.5 24t-6.5 38q0 35 10.5 77t27 84t36.5 81.5t38 70t32.5 48.5t20.5 18q31 0 46 -14t15 -28
t-5 -25.5t-21 -33.5q-14 -19 -33 -47.5t-36.5 -63t-30 -71.5t-12.5 -73z" />
    <glyph glyph-name="v" unicode="v" horiz-adv-x="354" 
d="M323 205q4 -19 17 -19q14 0 37 15.5t43 44.5q10 0 10 -14q-9 -14 -21.5 -29t-26.5 -28.5t-29.5 -22t-28.5 -8.5q-8 0 -13 2.5t-9 6.5t-7 9q-20 -32 -45.5 -62t-55 -53t-61.5 -37t-64 -14q-9 0 -20 3.5t-20 12.5t-15.5 24t-6.5 38q0 35 10 77t25 84t33.5 81.5t36 70
t31 48.5t19.5 18q31 0 46 -14.5t15 -33.5q0 -17 -13 -35q-19 -26 -39 -58t-37 -68t-28 -73.5t-11 -73.5q0 -17 8.5 -25t17.5 -8q28 0 53 15.5t45.5 37.5t34 44.5t18.5 37.5q-4 14 -8 32q-3 15 -5 34.5t-2 40.5q0 28 7.5 54.5t19 47t26 33t28.5 12.5q23 0 39.5 -11.5
t16.5 -37.5q0 -14 -5 -35.5t-14.5 -48.5t-22.5 -56.5t-29 -58.5zM309 247q15 35 26 70t11 52q-5 -3 -11.5 -15t-12 -29.5t-9.5 -38t-4 -39.5z" />
    <glyph glyph-name="w" unicode="w" horiz-adv-x="550" 
d="M204 55q-32 -26 -66 -42.5t-69 -16.5q-9 0 -20 3.5t-20 12.5t-15.5 24t-6.5 38q0 35 10 77t25 84t33.5 81.5t36 70t31 48.5t19.5 18q31 0 46 -14.5t15 -33.5q0 -17 -13 -35q-19 -26 -39 -58t-37 -68t-28 -73.5t-11 -73.5q0 -17 8.5 -25t17.5 -8q23 0 44 10.5t40 27.5
q3 36 14.5 76t26.5 79t32.5 74.5t33.5 62.5t28 43t18 16q31 0 46 -14.5t15 -33.5q0 -17 -13 -35q-19 -26 -39 -58t-37 -68t-28 -73.5t-11 -73.5q0 -17 8.5 -25t17.5 -8q28 0 53 15.5t45.5 37.5t34 44.5t18.5 37.5q-4 15 -8 32q-3 14 -5 33t-2 39q0 29 7 56t18.5 48t26 33.5
t29.5 12.5q23 0 39.5 -11.5t16.5 -37.5q0 -14 -5 -35.5t-14.5 -48.5t-22.5 -56.5t-29 -58.5q4 -19 17 -19q14 0 37 15.5t43 44.5q12 0 12 -11q-10 -16 -23 -32t-27.5 -29t-29.5 -21.5t-28 -8.5q-8 0 -13 2.5t-9 6.5t-7 9q-20 -32 -45.5 -62t-55 -53t-61.5 -37t-64 -14
q-8 0 -17.5 2.5t-18.5 9.5t-15.5 18.5t-9.5 28.5zM505 247q15 35 26 70t11 52q-5 -3 -11.5 -15t-12 -29.5t-9.5 -38t-4 -39.5z" />
    <glyph glyph-name="x" unicode="x" horiz-adv-x="334" 
d="M119 204q-32 -42 -53.5 -85t-26.5 -81q-3 -25 -7.5 -33.5t-11.5 -8.5q-12 0 -16 15.5t-4 37.5q0 60 28.5 114.5t73.5 107.5q-10 40 -15.5 75.5t-5.5 61.5q0 22 13.5 33.5t27.5 11.5q16 0 27.5 -3.5t19 -13t11.5 -27.5t7 -48q44 40 86.5 66t72.5 26q7 0 16 -4.5t16 -11.5
t12 -16t5 -19q0 -9 -6 -17t-15 -8q-21 0 -44.5 -8.5t-47 -22t-46.5 -30.5t-42 -34q7 -50 16.5 -92.5t22.5 -73t29 -48t37 -17.5q25 0 45.5 13.5t33.5 40.5q4 0 8 -2.5t4 -10.5q-9 -19 -24.5 -36.5t-34.5 -30.5t-41 -21t-43 -8q-20 0 -39.5 8.5t-32.5 34.5q-7 14 -15.5 34
t-16 42.5t-14 45.5t-10.5 43z" />
    <glyph glyph-name="y" unicode="y" horiz-adv-x="366" 
d="M66 -4q-9 0 -20 3.5t-20 12.5t-15.5 24t-6.5 38q0 35 10.5 77t26.5 84t35.5 81.5t38 70t32.5 48.5t20 18q31 0 46 -14.5t15 -33.5q0 -17 -13 -35q-19 -26 -40.5 -58t-40 -68t-30.5 -73.5t-12 -73.5q0 -17 8.5 -25t17.5 -8q16 0 35 20t38 52t37.5 72t35.5 79t30.5 73.5
t23.5 55.5q8 17 17 27t19 10q15 0 26.5 -4.5t19 -11t11.5 -14t4 -12.5q0 -9 -5 -22.5t-19 -40.5q-9 -17 -21.5 -44.5t-26 -59.5t-27 -66.5t-25.5 -65.5t-21.5 -55.5t-14.5 -36.5q19 9 40 20.5t41 25.5t37.5 30.5t29.5 35.5q13 0 13 -16q-13 -22 -32.5 -41.5t-43 -37t-50 -32
t-51.5 -25.5q-20 -47 -40 -88t-41 -72t-42.5 -49t-44.5 -18q-35 0 -51 18.5t-16 37.5q0 33 15 60.5t37.5 49t48.5 36.5t47 24l15.5 31t24 49t22.5 49.5t12 32.5h-2q-13 -24 -29.5 -50t-36 -47t-43 -34.5t-49.5 -13.5zM132 -61q-33 -16 -55.5 -43.5t-22.5 -51.5q0 -7 5 -7
q15 11 35 38.5t38 63.5z" />
    <glyph glyph-name="z" unicode="z" horiz-adv-x="300" 
d="M274 366q-3 -1 -7 -2q-3 -1 -6.5 -1h-6.5q-11 0 -23 4t-24 9t-24 9t-23 4q-25 0 -31.5 -11.5t-6.5 -30.5q-32 0 -42.5 12.5t-10.5 29.5q0 32 25 51.5t67 19.5q18 0 34 -4.5t32.5 -9.5t33.5 -9.5t37 -4.5t32 -10.5t12 -27.5q0 -20 -21 -44.5t-53 -51.5t-69 -56t-69 -57.5
t-53 -56t-21 -51.5q6 5 15.5 10t20 9t20.5 6.5t16 2.5q12 0 26 -7.5t27.5 -16t26 -16t22.5 -7.5q13 0 39 13t46 45q4 0 8 -3t4 -13q-11 -17 -29.5 -36t-38 -35t-38.5 -26.5t-31 -10.5q-17 0 -33 11t-35 11q-3 0 -11.5 -2t-18.5 -4.5t-21.5 -4.5t-20.5 -2q-8 0 -18.5 5.5
t-20 17t-16 28t-6.5 38.5q0 23 20.5 49t51.5 52.5t67 52.5t67.5 49t53.5 42t25 31z" />
    <glyph glyph-name="braceleft" unicode="{" horiz-adv-x="160" 
d="M-38 -115q0 36 11.5 83t25.5 93t25.5 84t11.5 56q0 14 -5 24t-16 10q-5 0 -8 3.5t-3 8.5q0 17 16 17q13 0 31.5 8.5t26.5 28.5q34 84 61 145.5t51 101.5t47 59.5t50 19.5q58 0 58 -46q-29 0 -62.5 -48t-76.5 -162q-22 -58 -57 -90.5t-77 -40.5q15 -10 23.5 -31.5
t8.5 -42.5q0 -24 -9.5 -63.5t-20.5 -81.5t-20.5 -80.5t-9.5 -61.5q0 -73 27 -89q-21 0 -40.5 4.5t-34.5 16t-24.5 29.5t-9.5 45z" />
    <glyph glyph-name="bar" unicode="|" horiz-adv-x="163" 
d="M269 645q14 0 23 -4t9 -12q0 -5 -12 -31.5t-31 -68.5t-42 -95t-45 -110q-23 -59 -43 -117.5t-37 -105t-29.5 -76t-19.5 -29.5q-8 0 -15 3t-7 10q0 4 12 33t30.5 73t41.5 99.5t45 113.5q22 59 42 116t36 101.5t27 72t15 27.5z" />
    <glyph glyph-name="braceright" unicode="}" horiz-adv-x="221" 
d="M283 527q0 -36 -11.5 -83t-25.5 -93t-25.5 -84t-11.5 -56q0 -14 5 -24t16 -10q5 0 8 -3.5t3 -8.5q0 -17 -16 -17q-13 0 -31.5 -8.5t-26.5 -28.5q-34 -84 -61 -145.5t-51 -101.5t-47 -59.5t-50 -19.5q-58 0 -58 46q29 0 62.5 48t76.5 162q22 58 57 90.5t77 40.5
q-15 10 -23.5 31.5t-8.5 42.5q0 24 9.5 63.5t20.5 81.5t20.5 80.5t9.5 61.5q0 72 -27 89q21 0 40.5 -4.5t34.5 -16t24.5 -29.5t9.5 -45z" />
    <glyph glyph-name="asciitilde" unicode="~" horiz-adv-x="321" 
d="M63 194q-7 2 -15 8t-8 19q0 19 18 36.5t47 17.5q24 0 43 -8.5t36 -18t33 -18t33 -8.5q25 0 36.5 12.5t15.5 28.5q7 -2 15 -8t8 -19q0 -21 -16.5 -37.5t-48.5 -16.5q-24 0 -43 8.5t-36 18t-33 18t-33 8.5q-25 0 -36.5 -12.5t-15.5 -28.5z" />
    <glyph glyph-name="uni00A0" unicode="&#xa0;" horiz-adv-x="220" 
 />
    <glyph glyph-name="exclamdown" unicode="&#xa1;" horiz-adv-x="195" 
d="M241 404q-23 0 -39.5 14.5t-16.5 37.5t16.5 37.5t39.5 14.5t39.5 -14.5t16.5 -37.5t-16.5 -37.5t-39.5 -14.5zM213 348q8 0 14 -11.5t6 -22.5q0 -29 -10.5 -74t-27 -95t-37.5 -100.5t-43 -90.5t-43 -65.5t-36 -25.5q-10 0 -23 3.5t-24.5 10t-19.5 15t-8 17.5
q0 15 24.5 47t59 83t72.5 120.5t65 159.5q6 20 15.5 24.5t15.5 4.5z" />
    <glyph glyph-name="cent" unicode="&#xa2;" horiz-adv-x="252" 
d="M305 436q19 -19 19 -41q0 -24 -8 -42.5t-19.5 -30.5t-24 -18t-22.5 -6h-5q-5 -14 -11 -28.5t-12 -28.5q-19 -50 -36.5 -99.5t-32.5 -93.5h5q35 0 63.5 20.5t45.5 47.5q6 0 9.5 -6t3.5 -9q-27 -45 -67 -70.5t-78 -32.5q-14 -38 -25 -61.5t-17 -23.5q-8 0 -15 3t-7 10
q0 4 7.5 22.5t20.5 47.5q-43 3 -71 30.5t-28 90.5q0 61 24.5 121t63 108t84.5 77.5t89 29.5q9 0 13 -1q18 49 30 79.5t16 30.5q14 0 23 -4t9 -12q0 -5 -13.5 -34.5t-33.5 -75.5zM271 358q10 6 16 13t6 15q0 9 -5 12q-5 -10 -8.5 -19.5t-8.5 -20.5zM225 314q-4 8 -5.5 16
t-1.5 14q5 0 9.5 0.5t9.5 1.5q5 12 8.5 24t8.5 24q-24 -12 -51.5 -39t-51 -64t-39.5 -81t-16 -89q0 -27 7.5 -42t20.5 -23q17 42 37 90t39 99q7 17 13 34.5t12 34.5z" />
    <glyph glyph-name="sterling" unicode="&#xa3;" horiz-adv-x="334" 
d="M131 174q-2 -20 -9 -39.5t-17.5 -35.5t-23 -28t-26.5 -16v-2q39 0 63.5 -12.5t45 -27t43 -27t58.5 -12.5q43 0 55 53q11 0 21 -12t10 -27q0 -35 -24.5 -55.5t-57.5 -20.5q-38 0 -64 15t-47.5 32.5t-41 32.5t-43.5 15q-20 0 -33.5 -12.5t-16.5 -26.5q-16 0 -26.5 13
t-10.5 32q0 13 10.5 25.5t23 31t23.5 46t12 69.5h-9q-15 0 -24 6.5t-9 13.5q0 5 10 8t33 4q4 64 26 114t54 84t71 51.5t77 17.5q31 0 52 -8.5t34 -21.5t18.5 -28.5t5.5 -29.5q0 -16 -5.5 -28.5t-13.5 -21t-17 -13t-17 -4.5q0 16 -2.5 36.5t-11 38t-25 29.5t-45.5 12
q-27 0 -49 -12t-38.5 -39.5t-26 -71.5t-10.5 -108q27 -3 60 -7t62 -8.5t48.5 -9.5t19.5 -8q0 -17 -5 -30t-18 -13q-4 0 -20.5 3.5t-40.5 9t-52.5 12t-55.5 11.5z" />
    <glyph glyph-name="yen" unicode="&#xa5;" horiz-adv-x="597" 
d="M562 186q-37 -83 -78 -158.5t-92.5 -132.5t-117 -91t-151.5 -34q-42 0 -73 12.5t-51.5 33t-31 47.5t-10.5 56q0 25 8 43.5t21 30.5t28 18t30 6q14 0 23.5 -4.5t15 -11.5t8 -16t2.5 -17q-12 0 -25 -3t-24.5 -11t-18.5 -22t-7 -36q0 -15 6 -31.5t18.5 -31t33 -23.5t49.5 -9
q63 0 110.5 26t85.5 72t70 110t62 139h-2q-23 -36 -47 -68.5t-52.5 -57.5t-62 -39.5t-73.5 -14.5q-22 0 -42 8.5t-35 24.5t-23.5 39.5t-8.5 54.5q0 40 13 76.5t33 70.5t42.5 66.5t42.5 64.5t33 65t13 68q0 60 -28.5 94.5t-91.5 34.5q-35 0 -66.5 -9t-55.5 -27t-38 -44.5
t-14 -61.5q0 -44 24 -68t70 -24q19 0 35 8t27 20.5t17 29t6 33.5q20 0 35.5 -6.5t15.5 -16.5q0 -30 -12.5 -52t-32.5 -37t-45.5 -22.5t-52.5 -7.5q-59 0 -92 36.5t-33 92.5q0 42 18.5 78t50 61.5t74 40t89.5 14.5q53 0 89.5 -16t59.5 -41t33 -55.5t10 -60.5
q0 -50 -13.5 -90.5t-34 -76t-44 -67t-44 -63t-34 -65t-13.5 -72.5q0 -36 17.5 -47.5t35.5 -11.5q33 0 63.5 17t57.5 45.5t51.5 65.5t46.5 76q-24 5 -45 8.5t-37 3.5q-15 0 -24 6.5t-9 13.5q0 6 16 9.5t55 3.5q9 0 26 -1.5t38 -4.5q5 9 9.5 18t9.5 18q-17 3 -32 5t-27 2
q-15 0 -24 6.5t-9 13.5q0 6 16 9.5t55 3.5q13 0 39 -3q12 26 27 62t32 75.5t36.5 80.5t40.5 77q8 13 21.5 18t21.5 5q22 0 36 -11.5t14 -28.5q0 -11 -3 -22.5t-15 -31.5q-33 -55 -61.5 -115t-56.5 -123q34 -6 59 -11.5t25 -10.5q0 -17 -5 -30t-18 -13q-5 0 -27.5 6l-52.5 14
q-3 -8 -6.5 -15t-6.5 -15q23 -5 38.5 -9.5t15.5 -7.5q0 -17 -5 -30t-18 -13q-4 0 -18 3.5z" />
    <glyph glyph-name="brokenbar" unicode="&#xa6;" horiz-adv-x="163" 
d="M156 346q21 57 39.5 110.5t33.5 95.5t25.5 67.5t14.5 25.5q14 0 23 -4t9 -12q0 -5 -11 -30t-28.5 -64t-39.5 -88.5t-44 -103.5zM159 292q-21 -55 -39 -108t-33 -95t-26.5 -67.5t-18.5 -25.5q-8 0 -15 3t-7 10q0 4 10.5 29.5t27 64.5t37.5 89t42 104z" />
    <glyph glyph-name="section" unicode="&#xa7;" horiz-adv-x="340" 
d="M223 130q10 -17 15.5 -34.5t5.5 -43.5q0 -28 -12.5 -51.5t-35 -40.5t-52.5 -26.5t-64 -9.5q-46 0 -73.5 20.5t-27.5 46.5q0 31 18 44.5t36 13.5q0 -7 4 -19t13.5 -24t24 -20.5t35.5 -8.5q27 0 44.5 8.5t28 21t14.5 27.5t4 28q0 31 -11.5 59t-29.5 54q-20 30 -35.5 57
t-15.5 56q0 16 6.5 33t21 31t37.5 22.5t55 8.5q18 0 27 -4q-20 29 -32.5 53t-12.5 53q0 16 6.5 34t21.5 32.5t39 24t59 9.5q39 0 65 -21t26 -47q0 -31 -16.5 -43t-34.5 -12q0 10 -2.5 23.5t-9.5 25t-19.5 19.5t-32.5 8q-37 0 -50.5 -14t-13.5 -40q0 -35 14.5 -61.5t32 -52
t32 -53t14.5 -63.5q0 -50 -31 -83.5t-88 -40.5zM223 335q-37 0 -54.5 -15.5t-17.5 -37.5q0 -14 6.5 -38t29.5 -61q4 0 7.5 -0.5t8.5 -0.5q27 0 45.5 8t29.5 20t16 26.5t5 27.5q0 26 -18.5 48.5t-57.5 22.5z" />
    <glyph glyph-name="dieresis" unicode="&#xa8;" horiz-adv-x="356" 
d="M437 597q20 0 33.5 -12t13.5 -32t-13.5 -32t-33.5 -12t-34 12t-14 32t14 32t34 12zM321 597q20 0 34 -12t14 -32t-14 -32t-34 -12t-33.5 12t-13.5 32t13.5 32t33.5 12z" />
    <glyph glyph-name="copyright" unicode="&#xa9;" horiz-adv-x="474" 
d="M171 -45q-40 0 -69.5 12t-49.5 34t-30 51.5t-10 64.5q0 110 37.5 206t95 166.5t126 111t130.5 40.5q23 0 44.5 -9t38.5 -28t27.5 -48.5t10.5 -69.5q0 -53 -12 -113t-34 -119t-53 -113t-70 -95.5t-85 -66t-97 -24.5zM403 222q38 66 56 138t18 136q0 32 -5.5 53t-14.5 33
t-21.5 17t-26.5 5q-42 0 -97.5 -35t-106 -99.5t-85.5 -155t-35 -201.5q0 -66 18.5 -99t67.5 -33q27 0 55 13.5t54 37t51 55.5t46 70q-32 -29 -70.5 -48.5t-76.5 -19.5q-37 0 -62.5 22t-25.5 75q0 48 20 96.5t50.5 86.5t67.5 62t71 24q23 0 36.5 -15.5t13.5 -31.5
q0 -20 -6.5 -34t-15.5 -24t-19 -14.5t-18 -4.5q-14 0 -19.5 13.5t-5.5 22.5q8 0 18.5 2.5t19.5 7t15.5 11t6.5 13.5q0 5 -3 8.5t-8 3.5q-17 0 -42 -19.5t-48.5 -51t-40 -71.5t-16.5 -82q0 -35 15 -46.5t35 -11.5q22 0 42 8t37.5 21t31.5 29.5t23 32.5z" />
    <glyph glyph-name="ordfeminine" unicode="&#xaa;" horiz-adv-x="380" 
d="M302 309q0 18 5.5 39.5t14.5 43.5h-1q-10 -20 -23.5 -40.5t-29.5 -37t-34.5 -27.5t-39.5 -11q-7 0 -15.5 2t-16 8.5t-12.5 19t-5 32.5q0 43 20.5 95.5t52 98.5t69 77.5t72.5 31.5q21 0 29.5 -13t8.5 -33h1q9 23 18 34.5t12 11.5q25 0 37 -12.5t12 -20.5t-2 -16t-7 -15
q-16 -25 -34 -61t-33.5 -73.5t-25.5 -72t-10 -55.5q25 4 48.5 20.5t43.5 48.5q9 0 9 -7q-3 -9 -14.5 -26t-29 -33.5t-40 -29t-47.5 -12.5q-13 0 -23 8t-10 25zM145 209q-15 0 -24 6.5t-9 13.5q0 6 16 9.5t55 3.5q14 0 43.5 -2t59.5 -6t52.5 -8.5t22.5 -8.5q0 -17 -5 -30
t-18 -13q-6 0 -28 5.5t-50.5 12t-59.5 12t-55 5.5zM236 332q11 0 26.5 14t32 36.5t32 50.5t28 55.5t20 51.5t7.5 39q0 10 -4.5 13t-9.5 3q-20 0 -46 -26t-50 -63t-40.5 -78t-16.5 -71q0 -14 6 -19.5t15 -5.5z" />
    <glyph glyph-name="guillemotleft" unicode="&#xab;" horiz-adv-x="360" 
d="M112 203q24 -32 43.5 -51.5t19.5 -25.5t-5 -12t-12 -10.5t-15.5 -7t-14.5 -2.5t-13.5 13.5t-17 32.5t-21 39t-24.5 34q11 12 31 27.5t41.5 29.5t41 23.5t29.5 9.5t18 -13t8 -26q0 -3 -12.5 -9.5t-29.5 -15l-36 -18t-31 -18.5zM236 183q24 -32 43.5 -51.5t19.5 -25.5
t-5 -12t-12 -10.5t-15.5 -7t-14.5 -2.5t-13.5 13.5t-17 32.5t-21 39t-24.5 34q11 12 31 27.5t41.5 29.5t41 23.5t29.5 9.5t18 -13t8 -26q0 -3 -12.5 -9.5t-29.5 -15l-36 -18t-31 -18.5z" />
    <glyph glyph-name="logicalnot" unicode="&#xac;" horiz-adv-x="277" 
d="M231 115q0 -15 -6.5 -24t-13.5 -9q-6 0 -9.5 16t-3.5 55q0 17 3 44q-29 1 -55 2q-22 1 -42 1.5t-27 0.5q-15 0 -24 6.5t-9 13.5q0 3 24.5 5t58.5 3.5t68.5 2t55.5 0.5q-3 -9 -6.5 -25t-6.5 -33.5t-5 -33.5t-2 -25z" />
    <glyph glyph-name="registered" unicode="&#xae;" horiz-adv-x="474" 
d="M171 -45q-40 0 -69.5 12t-49.5 34t-30 51.5t-10 64.5q0 110 37.5 206t95 166.5t126 111t130.5 40.5q23 0 44.5 -9t38.5 -28t27.5 -48.5t10.5 -69.5q0 -53 -12 -113t-34 -119t-53 -113t-70 -95.5t-85 -66t-97 -24.5zM439 295q18 52 28 103t10 98q0 32 -5.5 53t-14.5 33
t-21.5 17t-26.5 5q-42 0 -97.5 -35t-106 -99.5t-85.5 -155t-35 -201.5q0 -66 18.5 -99t67.5 -33q38 0 75.5 24.5t72 65.5t64 94.5t50.5 111.5q-14 -5 -33 -9t-38 -4q-10 0 -21.5 1t-21 5t-15.5 13t-6 25q0 7 4.5 17t10.5 20.5t12 19t9 12.5h-2q-8 -4 -25.5 -27t-37.5 -55
t-38 -67.5t-26 -63.5q-2 -8 -3 -16t-1 -14q0 -20 -4 -31t-19 -11q-22 0 -33 13.5t-11 23.5q0 24 8 57.5t20.5 70t27.5 72.5t29 64.5t24.5 46.5t14.5 18q24 0 36 -12.5t12 -21.5q0 -16 -8 -30q-14 -27 -29.5 -56.5t-31.5 -72.5h1q51 91 84.5 140t65.5 49q7 0 15.5 -6
t15.5 -15.5t11.5 -22t4.5 -25.5q0 -14 -12 -22.5t-26 -16t-26 -16t-12 -22.5t10 -18t22 -4q16 0 28 2.5t20 6.5z" />
    <glyph glyph-name="macron" unicode="&#xaf;" horiz-adv-x="356" 
d="M291 541q-15 0 -24 6.5t-9 13.5q0 6 16 9.5t55 3.5q14 0 35.5 -1t42 -2.5t35 -5t14.5 -7.5q0 -17 -5 -30t-18 -13q-6 0 -20 4t-33 9t-42 9t-47 4z" />
    <glyph glyph-name="degree" unicode="&#xb0;" horiz-adv-x="250" 
d="M89 401q0 50 17 93.5t43 76t57.5 51.5t61.5 19q11 0 22.5 -5t21 -15.5t15.5 -27.5t6 -41q0 -36 -12 -76.5t-33.5 -75t-52 -57.5t-66.5 -23q-40 0 -60 23t-20 58zM277 591q-16 0 -36 -12.5t-37.5 -35.5t-29.5 -56t-12 -73q0 -23 7.5 -36.5t24.5 -13.5q21 0 40.5 15.5
t34.5 42t24 60.5t9 70q0 21 -8 30t-17 9z" />
    <glyph glyph-name="plusminus" unicode="&#xb1;" horiz-adv-x="277" 
d="M236 293q18 -2 36.5 -4t32.5 -4.5t23 -5.5t9 -6q0 -17 -5 -30t-18 -13q-7 0 -32 6t-57 14q-4 -19 -6.5 -37.5t-2.5 -36.5q0 -15 -6.5 -24t-13.5 -9q-6 0 -9.5 16t-3.5 55q0 17 3 44q-17 3 -34 5t-31 2q-15 0 -24 6.5t-9 13.5q0 6 16 9.5t55 3.5q6 0 14 -0.5t18 -0.5
q3 19 7 38t8 34t7.5 24t6.5 9q17 0 30 -5t13 -18q0 -7 -8.5 -30.5t-18.5 -55.5zM53 93q-15 0 -24 6.5t-9 13.5q0 6 16 9.5t55 3.5q14 0 43.5 -2t59.5 -6t52.5 -8.5t22.5 -8.5q0 -17 -5 -30t-18 -13q-6 0 -28 5.5t-50.5 12t-59.5 12t-55 5.5z" />
    <glyph glyph-name="twosuperior" unicode="&#xb2;" horiz-adv-x="350" 
d="M166 527q0 12 8 24t24 21.5t38.5 16t51.5 6.5q17 0 34.5 -6t31 -17.5t22 -27.5t8.5 -36q0 -25 -15 -47t-38.5 -42t-51.5 -37.5t-53.5 -33t-45.5 -29t-27 -25.5q3 1 16 2.5t31 3t40 3t43 1.5q24 0 37.5 -9t13.5 -23q0 -17 -10 -32t-27 -15q-4 3 -14.5 6t-30.5 5.5t-51 3.5
t-77 1q-9 0 -17 8t-8 22q0 18 17 35.5t43 34.5t56 34.5t56 35.5t43 37t17 40q0 19 -14 35t-45 16q-28 0 -47 -13t-19 -30q-18 0 -29 8.5t-11 22.5z" />
    <glyph glyph-name="threesuperior" unicode="&#xb3;" horiz-adv-x="330" 
d="M181 341q0 15 21.5 32t47.5 34.5t49.5 33.5t27.5 30q-2 4 -6.5 9t-17.5 9.5t-35.5 8t-59.5 3.5q0 54 53 54q71 0 106.5 -18.5t35.5 -45.5q0 -13 -17 -25t-40.5 -25t-48.5 -28t-41 -33q31 13 57 13q32 0 55 -21t23 -63q0 -52 -22.5 -93.5t-58 -71t-79 -45.5t-85.5 -16
q-35 0 -51 14.5t-16 33.5q0 21 12 30t25 9q0 -22 11 -41t44 -19q27 0 54 10.5t49 31.5t36 53t14 75q0 29 -15.5 43.5t-34.5 14.5t-30 -4t-18 -8.5t-12 -8.5t-11 -4q-9 0 -15.5 7.5t-6.5 20.5z" />
    <glyph glyph-name="acute" unicode="&#xb4;" horiz-adv-x="349" 
d="M370 606q23 0 36 -16.5t13 -33.5q0 -10 -23.5 -21t-52.5 -21t-54.5 -18t-30.5 -11q-11 0 -12.5 3.5t-1.5 7.5t15.5 17t36.5 29t42 33.5t32 30.5z" />
    <glyph glyph-name="mu" unicode="&#xb5;" horiz-adv-x="349" 
d="M154 453q31 0 46 -14.5t15 -33.5q0 -17 -13 -35q-19 -26 -39 -58t-37 -68t-28 -73.5t-11 -73.5q0 -17 8.5 -25t17.5 -8q16 0 35 20t38 52t37.5 72t35.5 79t30.5 73.5t23.5 55.5q8 17 17 27t19 10q15 0 26.5 -4.5t19 -11t11.5 -14t4 -12.5q0 -9 -3 -19.5t-8 -18.5
q-19 -35 -40.5 -80t-40 -90.5t-31 -86.5t-12.5 -68q31 1 65.5 22t57.5 59q6 0 9.5 -2t3.5 -10q-13 -20 -31.5 -41.5t-40.5 -39t-48 -29t-54 -11.5q-13 0 -27.5 10t-14.5 33t7.5 49t18.5 53h-2q-13 -24 -29.5 -50t-36 -47t-43 -34.5t-49.5 -13.5q-8 0 -18.5 3t-19.5 11
q-20 -46 -42.5 -92t-45.5 -82.5t-46.5 -59.5t-45.5 -23q-35 0 -51 18.5t-16 37.5q0 33 15.5 61t39 49.5t49.5 36.5t47 24q16 28 37 74t44 98.5t46 106t43 97t35 70.5t22 27zM-91 -60q-17 -8 -31.5 -19.5t-25.5 -24.5t-17.5 -26.5t-6.5 -25.5q0 -7 5 -7q15 11 36.5 39
t39.5 64z" />
    <glyph glyph-name="mu" unicode="&#x3bc;" horiz-adv-x="349" 
d="M154 453q31 0 46 -14.5t15 -33.5q0 -17 -13 -35q-19 -26 -39 -58t-37 -68t-28 -73.5t-11 -73.5q0 -17 8.5 -25t17.5 -8q16 0 35 20t38 52t37.5 72t35.5 79t30.5 73.5t23.5 55.5q8 17 17 27t19 10q15 0 26.5 -4.5t19 -11t11.5 -14t4 -12.5q0 -9 -3 -19.5t-8 -18.5
q-19 -35 -40.5 -80t-40 -90.5t-31 -86.5t-12.5 -68q31 1 65.5 22t57.5 59q6 0 9.5 -2t3.5 -10q-13 -20 -31.5 -41.5t-40.5 -39t-48 -29t-54 -11.5q-13 0 -27.5 10t-14.5 33t7.5 49t18.5 53h-2q-13 -24 -29.5 -50t-36 -47t-43 -34.5t-49.5 -13.5q-8 0 -18.5 3t-19.5 11
q-20 -46 -42.5 -92t-45.5 -82.5t-46.5 -59.5t-45.5 -23q-35 0 -51 18.5t-16 37.5q0 33 15.5 61t39 49.5t49.5 36.5t47 24q16 28 37 74t44 98.5t46 106t43 97t35 70.5t22 27zM-91 -60q-17 -8 -31.5 -19.5t-25.5 -24.5t-17.5 -26.5t-6.5 -25.5q0 -7 5 -7q15 11 36.5 39
t39.5 64z" />
    <glyph glyph-name="paragraph" unicode="&#xb6;" horiz-adv-x="344" 
d="M174 149q-6 0 -10.5 -0.5t-9.5 -0.5q-54 0 -80 30.5t-26 77.5q0 73 25 137t63 111t84 74t87 27q14 0 30.5 -4t31.5 -9t27 -11.5t17 -10.5q1 6 3 10t3.5 7.5t3.5 3.5q14 0 23 -4t9 -12q0 -5 -15.5 -41.5t-38.5 -90.5t-49.5 -117t-48.5 -120q-15 -39 -31.5 -86.5t-33.5 -96
t-33 -94t-29 -81t-23 -57t-15 -21.5q-8 0 -15 3t-7 10q0 3 7 22t19 49t27 69t32 81t33.5 85t31.5 82q-12 -5 -31 -9.5t-39 -8.5q-13 -37 -28 -80t-29.5 -86t-28.5 -82t-25.5 -69t-20 -48t-12.5 -18q-8 0 -15 3t-7 10q0 4 14.5 41.5t36 91.5t46.5 116.5t47 116.5zM358 541
q-15 -34 -33 -76t-37.5 -86.5t-38 -89.5t-34.5 -84q24 5 43.5 12t28.5 10q13 33 27 71.5t28 78t28 77.5t26 71q-7 2 -16.5 7t-21.5 9z" />
    <glyph glyph-name="periodcentered" unicode="&#xb7;" horiz-adv-x="224" 
d="M153 296q23 0 39.5 -14.5t16.5 -37.5t-16.5 -37.5t-39.5 -14.5t-39.5 14.5t-16.5 37.5t16.5 37.5t39.5 14.5z" />
    <glyph glyph-name="cedilla" unicode="&#xb8;" horiz-adv-x="252" 
d="M27 -105q-23 0 -36 16.5t-13 33.5q0 10 23.5 21t52.5 21t54.5 18t30.5 11q11 0 12.5 -3.5t1.5 -7.5t-16 -17t-37 -29t-42 -33.5t-31 -30.5z" />
    <glyph glyph-name="onesuperior" unicode="&#xb9;" horiz-adv-x="197" 
d="M130 180q-22 0 -29.5 12t-7.5 23q0 31 13.5 72.5t32.5 83t39.5 76.5t35.5 54h-1q-19 -17 -39.5 -31t-43.5 -14q-5 0 -10.5 5.5t-5.5 16.5q28 6 47.5 18t33.5 24.5t24 21.5t21 9q15 0 28 -8.5t13 -19.5q0 -9 -4 -15.5t-7 -12.5q-18 -30 -37.5 -66.5t-35 -74t-26 -74
t-10.5 -67.5q0 -17 -10 -25t-21 -8z" />
    <glyph glyph-name="ordmasculine" unicode="&#xba;" horiz-adv-x="380" 
d="M498 525q-13 -18 -38 -38t-46 -32q-30 -86 -74.5 -132.5t-98.5 -46.5q-40 0 -60 24.5t-20 66.5q0 56 20 105.5t50.5 87t67 59.5t69.5 22q25 0 46.5 -17.5t21.5 -55.5q0 -17 -2.5 -37t-7.5 -41q11 6 30.5 19t33.5 28q3 -2 5.5 -4t2.5 -8zM77 201q-15 0 -24 6.5t-9 13.5
q0 6 16 9.5t55 3.5q14 0 43.5 -2t59.5 -6t52.5 -8.5t22.5 -8.5q0 -17 -5 -30t-18 -13q-6 0 -28 5.5t-50.5 12t-59.5 12t-55 5.5zM368 587q-8 0 -17.5 -4.5t-17.5 -13t-13.5 -22t-5.5 -31.5q0 -26 9.5 -37t35.5 -11q7 0 14.5 1.5t15.5 3.5q9 36 9 66q0 29 -8.5 38.5
t-21.5 9.5zM378 440q-7 -2 -18 -4.5t-22 -2.5q-71 0 -76 66q-5 -8 -10.5 -22.5t-10 -31t-7 -34.5t-2.5 -34q0 -29 8.5 -43.5t29.5 -14.5q16 0 31 9.5t28.5 26t26 38.5t22.5 47z" />
    <glyph glyph-name="guillemotright" unicode="&#xbb;" horiz-adv-x="364" 
d="M159 199q-24 32 -43.5 51.5t-19.5 25.5t5 12t12 10.5t15.5 7t14.5 2.5t13.5 -13.5t17 -32.5t21 -39.5t24.5 -33.5q-11 -12 -31 -27.5t-41.5 -29.5t-41 -23.5t-29.5 -9.5t-18 13t-8 26q0 3 12.5 9.5t29.5 15l36 18t31 18.5zM295 175q-24 32 -43.5 51.5t-19.5 25.5t5 12
t12 10.5t15.5 7t14.5 2.5t13.5 -13.5t17 -32.5t21 -39.5t24.5 -33.5q-11 -12 -31 -27.5t-41.5 -29.5t-41 -23.5t-29.5 -9.5t-18 13t-8 26q0 3 12.5 9.5t29.5 15l36 18t31 18.5z" />
    <glyph glyph-name="onequarter" unicode="&#xbc;" horiz-adv-x="597" 
d="M130 180q-22 0 -29.5 12t-7.5 23q0 31 13.5 72.5t32.5 83t39.5 76.5t35.5 54h-1q-19 -17 -39.5 -31t-43.5 -14q-5 0 -10.5 5.5t-5.5 16.5q28 6 47.5 18t33.5 24.5t24 21.5t21 9q15 0 28 -8.5t13 -19.5q0 -9 -4 -15.5t-7 -12.5q-18 -30 -37.5 -66.5t-35 -74t-26 -74
t-10.5 -67.5q0 -17 -10 -25t-21 -8zM432 509q14 0 23 -4t9 -12q0 -5 -16 -26.5t-45.5 -60.5t-70.5 -96.5t-91 -132.5q-47 -71 -83.5 -130.5t-62.5 -102t-42.5 -66.5t-23.5 -24q-8 0 -15 3t-7 10q0 4 16 28.5t44 66t67 98.5t86 128q48 73 85.5 132t64.5 101t42.5 65t19.5 23z
M471 116q35 -4 59 -8.5t24 -8.5q0 -15 -8.5 -31.5t-14.5 -16.5q-5 0 -25 5t-55 11q-12 -34 -19.5 -63t-7.5 -49q0 -17 -10 -24.5t-21 -7.5q-23 0 -30 11.5t-7 22.5q0 20 9.5 51t24.5 67q-22 3 -47 4t-53 1q-8 0 -13.5 13t-5.5 22q0 4 19.5 27t49.5 54.5t66 67t68 65.5
t56.5 50t31.5 20q15 0 28 -8t13 -19q0 -9 -3.5 -16t-7.5 -12q-29 -44 -62 -105.5t-59 -122.5zM409 123q16 34 33.5 68t35 64.5t32.5 55t26 39.5h-1q-10 -4 -29 -21t-42.5 -40t-48 -49.5t-44.5 -49.5t-33 -40.5t-13 -22.5q17 0 38.5 -0.5t45.5 -3.5z" />
    <glyph glyph-name="onehalf" unicode="&#xbd;" horiz-adv-x="597" 
d="M130 180q-22 0 -29.5 12t-7.5 23q0 31 13.5 72.5t32.5 83t39.5 76.5t35.5 54h-1q-19 -17 -39.5 -31t-43.5 -14q-5 0 -10.5 5.5t-5.5 16.5q28 6 47.5 18t33.5 24.5t24 21.5t21 9q15 0 28 -8.5t13 -19.5q0 -9 -4 -15.5t-7 -12.5q-18 -30 -37.5 -66.5t-35 -74t-26 -74
t-10.5 -67.5q0 -17 -10 -25t-21 -8zM432 509q14 0 23 -4t9 -12q0 -5 -16 -26.5t-45.5 -60.5t-70.5 -96.5t-91 -132.5q-47 -71 -83.5 -130.5t-62.5 -102t-42.5 -66.5t-23.5 -24q-8 0 -15 3t-7 10q0 4 16 28.5t44 66t67 98.5t86 128q48 73 85.5 132t64.5 101t42.5 65t19.5 23z
M361 249q0 12 8 24t24 21.5t38.5 16t51.5 6.5q17 0 34.5 -6t31 -17.5t22 -27.5t8.5 -36q0 -25 -15 -47t-38.5 -42t-51.5 -37.5t-53.5 -33t-45.5 -29t-27 -25.5q3 1 16 2.5t31 3t40 3t43 1.5q24 0 37.5 -9t13.5 -23q0 -17 -10 -32t-27 -15q-4 3 -14.5 6t-30.5 5.5t-51 3.5
t-77 1q-9 0 -17 8t-8 22q0 18 17 35.5t43 34.5t56 34.5t56 35.5t43 37t17 40q0 19 -14 35t-45 16q-28 0 -47 -13t-19 -30q-18 0 -29 8.5t-11 22.5z" />
    <glyph glyph-name="threequarters" unicode="&#xbe;" horiz-adv-x="682" 
d="M517 509q14 0 23 -4t9 -12q0 -5 -16 -26.5t-45.5 -60.5t-70.5 -96.5t-91 -132.5q-47 -71 -83.5 -130.5t-62.5 -102t-42.5 -66.5t-23.5 -24q-8 0 -15 3t-7 10q0 4 16 28.5t44 66t67 98.5t86 128q48 73 85.5 132t64.5 101t42.5 65t19.5 23zM556 116q35 -4 59 -8.5t24 -8.5
q0 -15 -8.5 -31.5t-14.5 -16.5q-5 0 -25 5t-55 11q-12 -34 -19.5 -63t-7.5 -49q0 -17 -10 -24.5t-21 -7.5q-23 0 -30 11.5t-7 22.5q0 20 9.5 51t24.5 67q-22 3 -47 4t-53 1q-8 0 -13.5 13t-5.5 22q0 4 19.5 27t49.5 54.5t66 67t68 65.5t56.5 50t31.5 20q15 0 28 -8t13 -19
q0 -9 -3.5 -16t-7.5 -12q-29 -44 -62 -105.5t-59 -122.5zM494 123q16 34 33.5 68t35 64.5t32.5 55t26 39.5h-1q-10 -4 -29 -21t-42.5 -40t-48 -49.5t-44.5 -49.5t-33 -40.5t-13 -22.5q17 0 38.5 -0.5t45.5 -3.5zM134 383q0 15 21.5 32t47.5 34.5t49.5 33.5t27.5 30
q-2 4 -6.5 9t-17.5 9.5t-35.5 8t-59.5 3.5q0 54 53 54q71 0 106.5 -18.5t35.5 -45.5q0 -13 -17 -25t-40.5 -25t-48.5 -28t-41 -33q31 13 57 13q32 0 55 -21t23 -63q0 -52 -22.5 -93.5t-58 -71t-79 -45.5t-85.5 -16q-35 0 -51 14.5t-16 33.5q0 21 12 30t25 9q0 -22 11 -41
t44 -19q27 0 54 10.5t49 31.5t36 53t14 75q0 29 -15.5 43.5t-34.5 14.5t-30 -4t-18 -8.5t-12 -8.5t-11 -4q-9 0 -15.5 7.5t-6.5 20.5z" />
    <glyph glyph-name="questiondown" unicode="&#xbf;" horiz-adv-x="350" 
d="M343 363q-23 0 -39.5 14.5t-16.5 37.5t16.5 37.5t39.5 14.5t39.5 -14.5t16.5 -37.5t-16.5 -37.5t-39.5 -14.5zM298 329q14 0 24.5 -9.5t10.5 -27.5q0 -25 -20 -45.5t-50.5 -40t-65.5 -39t-65.5 -43.5t-50.5 -53.5t-20 -68.5q0 -12 4.5 -24t13.5 -22t23 -16.5t33 -6.5
q20 0 36.5 6t28 15.5t18 20.5t6.5 21q23 0 36.5 -10t13.5 -28q0 -15 -9.5 -31.5t-28 -30.5t-46.5 -23.5t-64 -9.5q-24 0 -48 7t-42.5 20.5t-30 33.5t-11.5 46q0 40 18.5 71.5t46.5 57.5t60.5 48t60.5 42t46.5 39t18.5 40q0 36 16.5 48.5t36.5 12.5z" />
    <glyph glyph-name="Agrave" unicode="&#xc0;" horiz-adv-x="541" 
d="M561 539q-13 -23 -31 -63.5t-34 -92t-27 -109t-11 -113.5q32 16 49.5 35.5t17.5 35.5q0 13 -10.5 20.5t-28.5 7.5q0 17 12.5 28.5t28.5 11.5q11 0 22 -10t11 -30q0 -32 -25 -67t-77 -60q1 -72 18 -104.5t63 -32.5q0 -8 -4.5 -18t-12.5 -18.5t-18 -14.5t-20 -6
q-31 0 -50.5 15t-30 39t-14 54t-3.5 61q-23 -5 -47.5 -8t-53.5 -3q-15 0 -28.5 2t-25.5 5q-57 -64 -123 -105t-149 -41t-123 39t-40 98q0 25 8 43t21 30t28 17.5t30 5.5q29 0 39 -15t10 -32q-12 0 -25.5 -3.5t-25 -12t-19 -23t-7.5 -36.5q0 -15 5 -29.5t15.5 -25.5t27.5 -18
t40 -7q55 0 110.5 45t109.5 116q-11 11 -20.5 29.5t-9.5 37.5q0 20 7.5 40.5t22.5 37.5t39 28t57 11q8 0 16.5 -1.5t14.5 -3.5q41 59 85 113.5t90 96t94 66.5t98 25q31 0 50.5 -14t19.5 -34q0 -18 -11 -29t-26 -11q-13 0 -23 9t-10 24q-26 0 -49.5 -9.5t-46.5 -26.5z
M493 477q-15 -18 -31 -40.5t-31.5 -47t-30.5 -49t-30 -46.5q14 -11 25.5 -24t21.5 -27q4 29 13 62t20.5 65t23.5 60t21 47h-2zM241 258q-12 1 -24 -1t-21.5 -8.5t-16 -17.5t-6.5 -26q0 -5 3 -13.5t7 -14.5q14 20 29 40t29 41zM253 130q25 -5 54 -5q43 0 79 9q0 35 -19 58.5
t-41 36.5q-17 -24 -36 -50t-37 -49zM589 791q3 -17 14 -33t23 -30.5t21.5 -26.5t9.5 -20q0 -4 -1.5 -7.5t-12.5 -3.5q-6 7 -22.5 17t-34.5 20t-32 20.5t-14 19.5q0 4 3.5 11.5t9.5 15t15 12.5t21 5z" />
    <glyph glyph-name="Aacute" unicode="&#xc1;" horiz-adv-x="541" 
d="M561 539q-13 -23 -31 -63.5t-34 -92t-27 -109t-11 -113.5q32 16 49.5 35.5t17.5 35.5q0 13 -10.5 20.5t-28.5 7.5q0 17 12.5 28.5t28.5 11.5q11 0 22 -10t11 -30q0 -32 -25 -67t-77 -60q1 -72 18 -104.5t63 -32.5q0 -8 -4.5 -18t-12.5 -18.5t-18 -14.5t-20 -6
q-31 0 -50.5 15t-30 39t-14 54t-3.5 61q-23 -5 -47.5 -8t-53.5 -3q-15 0 -28.5 2t-25.5 5q-57 -64 -123 -105t-149 -41t-123 39t-40 98q0 25 8 43t21 30t28 17.5t30 5.5q29 0 39 -15t10 -32q-12 0 -25.5 -3.5t-25 -12t-19 -23t-7.5 -36.5q0 -15 5 -29.5t15.5 -25.5t27.5 -18
t40 -7q55 0 110.5 45t109.5 116q-11 11 -20.5 29.5t-9.5 37.5q0 20 7.5 40.5t22.5 37.5t39 28t57 11q8 0 16.5 -1.5t14.5 -3.5q41 59 85 113.5t90 96t94 66.5t98 25q31 0 50.5 -14t19.5 -34q0 -18 -11 -29t-26 -11q-13 0 -23 9t-10 24q-26 0 -49.5 -9.5t-46.5 -26.5z
M493 477q-15 -18 -31 -40.5t-31.5 -47t-30.5 -49t-30 -46.5q14 -11 25.5 -24t21.5 -27q4 29 13 62t20.5 65t23.5 60t21 47h-2zM241 258q-12 1 -24 -1t-21.5 -8.5t-16 -17.5t-6.5 -26q0 -5 3 -13.5t7 -14.5q14 20 29 40t29 41zM253 130q25 -5 54 -5q43 0 79 9q0 35 -19 58.5
t-41 36.5q-17 -24 -36 -50t-37 -49zM736 792q23 0 36 -16.5t13 -33.5q0 -10 -23.5 -21t-52.5 -21t-54.5 -18t-30.5 -11q-11 0 -12.5 3.5t-1.5 7.5t15.5 17t36.5 29t42 33.5t32 30.5z" />
    <glyph glyph-name="Acircumflex" unicode="&#xc2;" horiz-adv-x="541" 
d="M561 539q-13 -23 -31 -63.5t-34 -92t-27 -109t-11 -113.5q32 16 49.5 35.5t17.5 35.5q0 13 -10.5 20.5t-28.5 7.5q0 17 12.5 28.5t28.5 11.5q11 0 22 -10t11 -30q0 -32 -25 -67t-77 -60q1 -72 18 -104.5t63 -32.5q0 -8 -4.5 -18t-12.5 -18.5t-18 -14.5t-20 -6
q-31 0 -50.5 15t-30 39t-14 54t-3.5 61q-23 -5 -47.5 -8t-53.5 -3q-15 0 -28.5 2t-25.5 5q-57 -64 -123 -105t-149 -41t-123 39t-40 98q0 25 8 43t21 30t28 17.5t30 5.5q29 0 39 -15t10 -32q-12 0 -25.5 -3.5t-25 -12t-19 -23t-7.5 -36.5q0 -15 5 -29.5t15.5 -25.5t27.5 -18
t40 -7q55 0 110.5 45t109.5 116q-11 11 -20.5 29.5t-9.5 37.5q0 20 7.5 40.5t22.5 37.5t39 28t57 11q8 0 16.5 -1.5t14.5 -3.5q41 59 85 113.5t90 96t94 66.5t98 25q31 0 50.5 -14t19.5 -34q0 -18 -11 -29t-26 -11q-13 0 -23 9t-10 24q-26 0 -49.5 -9.5t-46.5 -26.5z
M493 477q-15 -18 -31 -40.5t-31.5 -47t-30.5 -49t-30 -46.5q14 -11 25.5 -24t21.5 -27q4 29 13 62t20.5 65t23.5 60t21 47h-2zM241 258q-12 1 -24 -1t-21.5 -8.5t-16 -17.5t-6.5 -26q0 -5 3 -13.5t7 -14.5q14 20 29 40t29 41zM253 130q25 -5 54 -5q43 0 79 9q0 35 -19 58.5
t-41 36.5q-17 -24 -36 -50t-37 -49zM670 726q-14 -3 -35.5 -13.5t-42.5 -22.5t-37.5 -22.5t-19.5 -13.5q-11 0 -12.5 3.5t-1.5 7.5t18 23.5t42.5 40.5t49.5 38t39 17q15 0 31 -17t28.5 -38.5t21 -40.5t8.5 -23t-1.5 -7.5t-12.5 -3.5q-4 5 -12.5 14.5t-19 20t-22 21
t-21.5 16.5z" />
    <glyph glyph-name="Atilde" unicode="&#xc3;" horiz-adv-x="541" 
d="M561 539q-13 -23 -31 -63.5t-34 -92t-27 -109t-11 -113.5q32 16 49.5 35.5t17.5 35.5q0 13 -10.5 20.5t-28.5 7.5q0 17 12.5 28.5t28.5 11.5q11 0 22 -10t11 -30q0 -32 -25 -67t-77 -60q1 -72 18 -104.5t63 -32.5q0 -8 -4.5 -18t-12.5 -18.5t-18 -14.5t-20 -6
q-31 0 -50.5 15t-30 39t-14 54t-3.5 61q-23 -5 -47.5 -8t-53.5 -3q-15 0 -28.5 2t-25.5 5q-57 -64 -123 -105t-149 -41t-123 39t-40 98q0 25 8 43t21 30t28 17.5t30 5.5q29 0 39 -15t10 -32q-12 0 -25.5 -3.5t-25 -12t-19 -23t-7.5 -36.5q0 -15 5 -29.5t15.5 -25.5t27.5 -18
t40 -7q55 0 110.5 45t109.5 116q-11 11 -20.5 29.5t-9.5 37.5q0 20 7.5 40.5t22.5 37.5t39 28t57 11q8 0 16.5 -1.5t14.5 -3.5q41 59 85 113.5t90 96t94 66.5t98 25q31 0 50.5 -14t19.5 -34q0 -18 -11 -29t-26 -11q-13 0 -23 9t-10 24q-26 0 -49.5 -9.5t-46.5 -26.5z
M493 477q-15 -18 -31 -40.5t-31.5 -47t-30.5 -49t-30 -46.5q14 -11 25.5 -24t21.5 -27q4 29 13 62t20.5 65t23.5 60t21 47h-2zM241 258q-12 1 -24 -1t-21.5 -8.5t-16 -17.5t-6.5 -26q0 -5 3 -13.5t7 -14.5q14 20 29 40t29 41zM253 130q25 -5 54 -5q43 0 79 9q0 35 -19 58.5
t-41 36.5q-17 -24 -36 -50t-37 -49zM494 685q-8 0 -14.5 6.5t-6.5 15.5q0 21 20.5 35t46.5 14q21 0 37 -7.5t30.5 -17t28 -17t30.5 -7.5q20 0 30 11.5t10 25.5q9 0 17 -7.5t8 -18.5q0 -10 -5 -20.5t-14 -19t-21.5 -14t-27.5 -5.5q-25 0 -41.5 7.5t-30 16.5t-28 16.5
t-35.5 7.5q-31 0 -34 -22z" />
    <glyph glyph-name="Adieresis" unicode="&#xc4;" horiz-adv-x="541" 
d="M561 539q-13 -23 -31 -63.5t-34 -92t-27 -109t-11 -113.5q32 16 49.5 35.5t17.5 35.5q0 13 -10.5 20.5t-28.5 7.5q0 17 12.5 28.5t28.5 11.5q11 0 22 -10t11 -30q0 -32 -25 -67t-77 -60q1 -72 18 -104.5t63 -32.5q0 -8 -4.5 -18t-12.5 -18.5t-18 -14.5t-20 -6
q-31 0 -50.5 15t-30 39t-14 54t-3.5 61q-23 -5 -47.5 -8t-53.5 -3q-15 0 -28.5 2t-25.5 5q-57 -64 -123 -105t-149 -41t-123 39t-40 98q0 25 8 43t21 30t28 17.5t30 5.5q29 0 39 -15t10 -32q-12 0 -25.5 -3.5t-25 -12t-19 -23t-7.5 -36.5q0 -15 5 -29.5t15.5 -25.5t27.5 -18
t40 -7q55 0 110.5 45t109.5 116q-11 11 -20.5 29.5t-9.5 37.5q0 20 7.5 40.5t22.5 37.5t39 28t57 11q8 0 16.5 -1.5t14.5 -3.5q41 59 85 113.5t90 96t94 66.5t98 25q31 0 50.5 -14t19.5 -34q0 -18 -11 -29t-26 -11q-13 0 -23 9t-10 24q-26 0 -49.5 -9.5t-46.5 -26.5z
M493 477q-15 -18 -31 -40.5t-31.5 -47t-30.5 -49t-30 -46.5q14 -11 25.5 -24t21.5 -27q4 29 13 62t20.5 65t23.5 60t21 47h-2zM241 258q-12 1 -24 -1t-21.5 -8.5t-16 -17.5t-6.5 -26q0 -5 3 -13.5t7 -14.5q14 20 29 40t29 41zM253 130q25 -5 54 -5q43 0 79 9q0 35 -19 58.5
t-41 36.5q-17 -24 -36 -50t-37 -49zM724 743q20 0 33.5 -12t13.5 -32t-13.5 -32t-33.5 -12t-34 12t-14 32t14 32t34 12zM608 743q20 0 34 -12t14 -32t-14 -32t-34 -12t-33.5 12t-13.5 32t13.5 32t33.5 12z" />
    <glyph glyph-name="Aring" unicode="&#xc5;" horiz-adv-x="541" 
d="M561 539q-13 -23 -31 -63.5t-34 -92t-27 -109t-11 -113.5q32 16 49.5 35.5t17.5 35.5q0 13 -10.5 20.5t-28.5 7.5q0 17 12.5 28.5t28.5 11.5q11 0 22 -10t11 -30q0 -32 -25 -67t-77 -60q1 -72 18 -104.5t63 -32.5q0 -8 -4.5 -18t-12.5 -18.5t-18 -14.5t-20 -6
q-31 0 -50.5 15t-30 39t-14 54t-3.5 61q-23 -5 -47.5 -8t-53.5 -3q-15 0 -28.5 2t-25.5 5q-57 -64 -123 -105t-149 -41t-123 39t-40 98q0 25 8 43t21 30t28 17.5t30 5.5q29 0 39 -15t10 -32q-12 0 -25.5 -3.5t-25 -12t-19 -23t-7.5 -36.5q0 -15 5 -29.5t15.5 -25.5t27.5 -18
t40 -7q55 0 110.5 45t109.5 116q-11 11 -20.5 29.5t-9.5 37.5q0 20 7.5 40.5t22.5 37.5t39 28t57 11q8 0 16.5 -1.5t14.5 -3.5q41 59 85 113.5t90 96t94 66.5t98 25q31 0 50.5 -14t19.5 -34q0 -18 -11 -29t-26 -11q-13 0 -23 9t-10 24q-26 0 -49.5 -9.5t-46.5 -26.5z
M493 477q-15 -18 -31 -40.5t-31.5 -47t-30.5 -49t-30 -46.5q14 -11 25.5 -24t21.5 -27q4 29 13 62t20.5 65t23.5 60t21 47h-2zM241 258q-12 1 -24 -1t-21.5 -8.5t-16 -17.5t-6.5 -26q0 -5 3 -13.5t7 -14.5q14 20 29 40t29 41zM253 130q25 -5 54 -5q43 0 79 9q0 35 -19 58.5
t-41 36.5q-17 -24 -36 -50t-37 -49zM551 728q0 26 10.5 48.5t27.5 38.5t38.5 25t43.5 9q28 0 45.5 -19t17.5 -51q0 -23 -7 -44.5t-20.5 -38.5t-34.5 -27t-49 -10q-30 0 -51 20t-21 49zM679 804q-22 0 -42 -17.5t-20 -46.5q0 -18 6 -30t23 -12q27 0 43.5 18t16.5 52
q0 18 -8 27t-19 9z" />
    <glyph glyph-name="AE" unicode="&#xc6;" horiz-adv-x="827" 
d="M639 376q16 2 33 3t34 1q40 0 63.5 -13t23.5 -42q0 -27 -30 -45.5t-88 -18.5q-29 0 -57.5 12t-50.5 36l-21 -17q14 -12 14 -32q0 -29 -20 -60t-61 -56v-8q0 -68 32.5 -109t89.5 -41q41 0 74 11.5t56 30.5t35.5 44.5t12.5 52.5q0 29 -14.5 43.5t-33.5 14.5
q-20 0 -34.5 -13t-14.5 -30q-20 0 -35.5 6.5t-15.5 16.5q0 11 5.5 23t17 21.5t28.5 16t41 6.5q39 0 68 -26.5t29 -68.5t-18.5 -78t-51.5 -62.5t-77.5 -41t-95.5 -14.5q-46 0 -80.5 14.5t-58 38t-36.5 54t-16 62.5q-23 -5 -47.5 -8t-53.5 -3q-15 0 -28.5 2t-25.5 5
q-57 -64 -123 -105t-149 -41t-123 39t-40 98q0 25 8 43t21 30t28 17.5t30 5.5q29 0 39 -15t10 -32q-12 0 -25.5 -3.5t-25 -12t-19 -23t-7.5 -36.5q0 -15 5 -29.5t15.5 -25.5t27.5 -18t40 -7q55 0 110.5 45t109.5 116q-11 11 -20.5 29.5t-9.5 37.5q0 20 7.5 40.5t22.5 37.5
t39 28t57 11q8 0 16.5 -1.5t14.5 -3.5q26 38 53 74t56 68q-25 21 -38.5 44t-13.5 43q0 18 6.5 30t15 19t17 9.5t13.5 2.5q17 0 27 -8.5t10 -30.5q-20 0 -30.5 -8t-10.5 -28q0 -19 26 -48q57 60 115.5 97t120.5 37q24 0 42 -9q58 20 114 20q31 0 55.5 -8t42 -21.5t27 -30.5
t9.5 -36q0 -38 -26.5 -64t-70 -43t-99.5 -25t-115 -10q0 -15 3 -27zM812 585q-32 0 -62 -9t-54 -28.5t-40 -49t-19 -70.5q49 1 95.5 6t82.5 17t58 31t22 48q0 31 -25.5 43t-57.5 12zM253 130q25 -5 54 -5q43 0 79 9q0 35 -19 58.5t-41 36.5q-17 -24 -36 -50t-37 -49z
M417 243q5 42 21.5 91.5t33.5 90.5l-14 6q-23 -32 -45 -68.5t-43 -68.5q14 -11 25.5 -24t21.5 -27zM650 349q23 -36 66 -36q32 0 41.5 9t9.5 14q0 22 -49 22q-34 0 -68 -9zM499 414q-8 -23 -14.5 -49t-11.5 -52q14 11 30.5 21t36.5 18q-12 26 -13 55q-8 2 -14.5 3.5
t-13.5 3.5zM241 258q-12 1 -24 -1t-21.5 -8.5t-16 -17.5t-6.5 -26q0 -5 3 -13.5t7 -14.5q14 20 29 40t29 41zM525 232q0 13 -12 21q-11 -17 -19 -36.5t-12 -41.5q21 14 32 29t11 28zM574 540q-19 -12 -36 -38.5t-31 -63.5q5 -2 10 -3l10 -2q4 32 16 58.5t31 48.5zM493 477
q-5 -6 -9.5 -11.5t-9.5 -12.5l8 -4q3 8 6.5 15l6.5 13h-2z" />
    <glyph glyph-name="Ccedilla" unicode="&#xc7;" horiz-adv-x="478" 
d="M17 182q0 41 8 79t22 73q-45 12 -75 40t-30 66q0 18 6.5 30t15 19t17 9.5t13.5 2.5q17 0 27 -8.5t10 -30.5q-20 0 -30.5 -8t-10.5 -28q0 -19 14.5 -37.5t52.5 -30.5q30 64 77.5 116t104 89t118.5 57.5t122 20.5q59 0 93.5 -19.5t34.5 -54.5q0 -34 -20 -64.5t-54 -56.5
t-78 -46.5t-91.5 -36t-95.5 -25.5t-89 -13q-13 -30 -24 -76t-11 -97q0 -34 6.5 -62.5t20.5 -49.5t35.5 -32.5t52.5 -11.5q35 0 64 13.5t50 35t32.5 48.5t11.5 54q0 31 -16 46.5t-31 15.5q-13 0 -22 -5t-14.5 -11.5t-8 -14t-2.5 -12.5q-20 0 -35.5 6.5t-15.5 16.5
q0 11 5.5 23t16.5 22.5t27 17t36 6.5q44 0 72 -28.5t28 -73.5q0 -42 -16.5 -78.5t-47 -63t-73 -41.5t-94.5 -15q-97 0 -153 58.5t-56 165.5zM496 595q-35 0 -79 -22t-87.5 -56.5t-81 -78t-58.5 -86.5q55 6 115 26t109.5 48t81.5 62t32 69q0 14 -7.5 26t-24.5 12zM100 -156
q-23 0 -36 16.5t-13 33.5q0 10 23.5 21t52.5 21t54.5 18t30.5 11q11 0 12.5 -3.5t1.5 -7.5t-16 -17t-37 -29t-42 -33.5t-31 -30.5z" />
    <glyph glyph-name="Egrave" unicode="&#xc8;" horiz-adv-x="478" 
d="M290 376q16 2 33 3t34 1q40 0 63.5 -13t23.5 -42q0 -27 -30 -45.5t-88 -18.5q-29 0 -57.5 12t-50.5 36q-38 -29 -63 -72t-25 -101q0 -68 32.5 -109t89.5 -41q41 0 74 11.5t56 30.5t35.5 44.5t12.5 52.5q0 29 -14.5 43.5t-33.5 14.5q-20 0 -34.5 -13t-14.5 -30
q-20 0 -35.5 6.5t-15.5 16.5q0 11 5.5 23t17 21.5t28.5 16t41 6.5q39 0 68 -26.5t29 -68.5t-18.5 -76.5t-51.5 -59t-77.5 -38t-95.5 -13.5q-55 0 -95.5 14t-67.5 38.5t-40.5 58.5t-13.5 73q0 74 49.5 131.5t130.5 88.5q-12 26 -13 55q-23 5 -48 16t-45.5 25.5t-33.5 32.5
t-13 37q0 18 6.5 30t15 19t17 9.5t13.5 2.5q17 0 27 -8.5t10 -30.5q-20 0 -30.5 -8t-10.5 -28q0 -9 8 -20t20.5 -21t29 -18t34.5 -12q6 52 34.5 91t69.5 65t89 39t93 13q31 0 55.5 -8t42 -21.5t27 -30.5t9.5 -36q0 -38 -26.5 -64t-70 -43t-99.5 -25t-115 -10q0 -15 3 -27z
M463 585q-32 0 -62 -9t-54 -28.5t-40 -49t-19 -70.5q49 1 95.5 6t82.5 17t58 31t22 48q0 31 -25.5 43t-57.5 12zM301 349q23 -36 66 -36q32 0 41.5 9t9.5 14q0 22 -49 22q-34 0 -68 -9zM418 802q3 -17 14 -33t23 -30.5t21.5 -26.5t9.5 -20q0 -4 -1.5 -7.5t-12.5 -3.5
q-6 7 -22.5 17t-34.5 20t-32 20.5t-14 19.5q0 4 3.5 11.5t9.5 15t15 12.5t21 5z" />
    <glyph glyph-name="Eacute" unicode="&#xc9;" horiz-adv-x="478" 
d="M290 376q16 2 33 3t34 1q40 0 63.5 -13t23.5 -42q0 -27 -30 -45.5t-88 -18.5q-29 0 -57.5 12t-50.5 36q-38 -29 -63 -72t-25 -101q0 -68 32.5 -109t89.5 -41q41 0 74 11.5t56 30.5t35.5 44.5t12.5 52.5q0 29 -14.5 43.5t-33.5 14.5q-20 0 -34.5 -13t-14.5 -30
q-20 0 -35.5 6.5t-15.5 16.5q0 11 5.5 23t17 21.5t28.5 16t41 6.5q39 0 68 -26.5t29 -68.5t-18.5 -76.5t-51.5 -59t-77.5 -38t-95.5 -13.5q-55 0 -95.5 14t-67.5 38.5t-40.5 58.5t-13.5 73q0 74 49.5 131.5t130.5 88.5q-12 26 -13 55q-23 5 -48 16t-45.5 25.5t-33.5 32.5
t-13 37q0 18 6.5 30t15 19t17 9.5t13.5 2.5q17 0 27 -8.5t10 -30.5q-20 0 -30.5 -8t-10.5 -28q0 -9 8 -20t20.5 -21t29 -18t34.5 -12q6 52 34.5 91t69.5 65t89 39t93 13q31 0 55.5 -8t42 -21.5t27 -30.5t9.5 -36q0 -38 -26.5 -64t-70 -43t-99.5 -25t-115 -10q0 -15 3 -27z
M463 585q-32 0 -62 -9t-54 -28.5t-40 -49t-19 -70.5q49 1 95.5 6t82.5 17t58 31t22 48q0 31 -25.5 43t-57.5 12zM301 349q23 -36 66 -36q32 0 41.5 9t9.5 14q0 22 -49 22q-34 0 -68 -9zM534 808q23 0 36 -16.5t13 -33.5q0 -10 -23.5 -21t-52.5 -21t-54.5 -18t-30.5 -11
q-11 0 -12.5 3.5t-1.5 7.5t15.5 17t36.5 29t42 33.5t32 30.5z" />
    <glyph glyph-name="Ecircumflex" unicode="&#xca;" horiz-adv-x="478" 
d="M290 376q16 2 33 3t34 1q40 0 63.5 -13t23.5 -42q0 -27 -30 -45.5t-88 -18.5q-29 0 -57.5 12t-50.5 36q-38 -29 -63 -72t-25 -101q0 -68 32.5 -109t89.5 -41q41 0 74 11.5t56 30.5t35.5 44.5t12.5 52.5q0 29 -14.5 43.5t-33.5 14.5q-20 0 -34.5 -13t-14.5 -30
q-20 0 -35.5 6.5t-15.5 16.5q0 11 5.5 23t17 21.5t28.5 16t41 6.5q39 0 68 -26.5t29 -68.5t-18.5 -76.5t-51.5 -59t-77.5 -38t-95.5 -13.5q-55 0 -95.5 14t-67.5 38.5t-40.5 58.5t-13.5 73q0 74 49.5 131.5t130.5 88.5q-12 26 -13 55q-23 5 -48 16t-45.5 25.5t-33.5 32.5
t-13 37q0 18 6.5 30t15 19t17 9.5t13.5 2.5q17 0 27 -8.5t10 -30.5q-20 0 -30.5 -8t-10.5 -28q0 -9 8 -20t20.5 -21t29 -18t34.5 -12q6 52 34.5 91t69.5 65t89 39t93 13q31 0 55.5 -8t42 -21.5t27 -30.5t9.5 -36q0 -38 -26.5 -64t-70 -43t-99.5 -25t-115 -10q0 -15 3 -27z
M463 585q-32 0 -62 -9t-54 -28.5t-40 -49t-19 -70.5q49 1 95.5 6t82.5 17t58 31t22 48q0 31 -25.5 43t-57.5 12zM301 349q23 -36 66 -36q32 0 41.5 9t9.5 14q0 22 -49 22q-34 0 -68 -9zM503 755q-14 -3 -35.5 -13.5t-42.5 -22.5t-37.5 -22.5t-19.5 -13.5q-11 0 -12.5 3.5
t-1.5 7.5t18 23.5t42.5 40.5t49.5 38t39 17q15 0 31 -17t28.5 -38.5t21 -40.5t8.5 -23t-1.5 -7.5t-12.5 -3.5q-4 5 -12.5 14.5t-19 20t-22 21t-21.5 16.5z" />
    <glyph glyph-name="Edieresis" unicode="&#xcb;" horiz-adv-x="478" 
d="M290 376q16 2 33 3t34 1q40 0 63.5 -13t23.5 -42q0 -27 -30 -45.5t-88 -18.5q-29 0 -57.5 12t-50.5 36q-38 -29 -63 -72t-25 -101q0 -68 32.5 -109t89.5 -41q41 0 74 11.5t56 30.5t35.5 44.5t12.5 52.5q0 29 -14.5 43.5t-33.5 14.5q-20 0 -34.5 -13t-14.5 -30
q-20 0 -35.5 6.5t-15.5 16.5q0 11 5.5 23t17 21.5t28.5 16t41 6.5q39 0 68 -26.5t29 -68.5t-18.5 -76.5t-51.5 -59t-77.5 -38t-95.5 -13.5q-55 0 -95.5 14t-67.5 38.5t-40.5 58.5t-13.5 73q0 74 49.5 131.5t130.5 88.5q-12 26 -13 55q-23 5 -48 16t-45.5 25.5t-33.5 32.5
t-13 37q0 18 6.5 30t15 19t17 9.5t13.5 2.5q17 0 27 -8.5t10 -30.5q-20 0 -30.5 -8t-10.5 -28q0 -9 8 -20t20.5 -21t29 -18t34.5 -12q6 52 34.5 91t69.5 65t89 39t93 13q31 0 55.5 -8t42 -21.5t27 -30.5t9.5 -36q0 -38 -26.5 -64t-70 -43t-99.5 -25t-115 -10q0 -15 3 -27z
M463 585q-32 0 -62 -9t-54 -28.5t-40 -49t-19 -70.5q49 1 95.5 6t82.5 17t58 31t22 48q0 31 -25.5 43t-57.5 12zM301 349q23 -36 66 -36q32 0 41.5 9t9.5 14q0 22 -49 22q-34 0 -68 -9zM541 777q20 0 33.5 -12t13.5 -32t-13.5 -32t-33.5 -12t-34 12t-14 32t14 32t34 12z
M425 777q20 0 34 -12t14 -32t-14 -32t-34 -12t-33.5 12t-13.5 32t13.5 32t33.5 12z" />
    <glyph glyph-name="Igrave" unicode="&#xcc;" horiz-adv-x="415" 
d="M477 589q20 32 44 42t40 10q17 0 27 -11.5t10 -24.5q0 -21 -8.5 -37.5t-21 -28.5t-27 -20.5t-25.5 -13.5q-26 -40 -48 -97t-46 -118.5t-54 -122t-72 -108.5t-100 -77.5t-139 -29.5q-42 0 -73 12.5t-51.5 33t-31 47.5t-10.5 56q0 25 8 43.5t21 30.5t28 18t30 6
q14 0 23.5 -4.5t15 -11.5t8 -16t2.5 -17q-12 0 -25 -3t-24.5 -11t-18.5 -22t-7 -36q0 -15 6 -31.5t18.5 -31t33 -23.5t49.5 -9q56 0 97 27.5t71 72.5t53 101.5t44.5 115.5t44 114t51.5 97q-8 2 -30.5 13t-52 23t-60.5 22t-56 10q-66 0 -94 -26t-28 -64q0 -33 33 -56t90 -23
q0 -22 -16 -42t-37 -20q-15 0 -33.5 7t-34.5 21.5t-27 36.5t-11 52q0 36 14.5 69t41.5 58t66 40t87 15q40 0 74 -8.5t60.5 -19t44.5 -20t26 -10.5zM414 806q3 -17 14 -33t23 -30.5t21.5 -26.5t9.5 -20q0 -4 -1.5 -7.5t-12.5 -3.5q-6 7 -22.5 17t-34.5 20t-32 20.5t-14 19.5
q0 4 3.5 11.5t9.5 15t15 12.5t21 5z" />
    <glyph glyph-name="Iacute" unicode="&#xcd;" horiz-adv-x="415" 
d="M477 589q20 32 44 42t40 10q17 0 27 -11.5t10 -24.5q0 -21 -8.5 -37.5t-21 -28.5t-27 -20.5t-25.5 -13.5q-26 -40 -48 -97t-46 -118.5t-54 -122t-72 -108.5t-100 -77.5t-139 -29.5q-42 0 -73 12.5t-51.5 33t-31 47.5t-10.5 56q0 25 8 43.5t21 30.5t28 18t30 6
q14 0 23.5 -4.5t15 -11.5t8 -16t2.5 -17q-12 0 -25 -3t-24.5 -11t-18.5 -22t-7 -36q0 -15 6 -31.5t18.5 -31t33 -23.5t49.5 -9q56 0 97 27.5t71 72.5t53 101.5t44.5 115.5t44 114t51.5 97q-8 2 -30.5 13t-52 23t-60.5 22t-56 10q-66 0 -94 -26t-28 -64q0 -33 33 -56t90 -23
q0 -22 -16 -42t-37 -20q-15 0 -33.5 7t-34.5 21.5t-27 36.5t-11 52q0 36 14.5 69t41.5 58t66 40t87 15q40 0 74 -8.5t60.5 -19t44.5 -20t26 -10.5zM497 819q23 0 36 -16.5t13 -33.5q0 -10 -23.5 -21t-52.5 -21t-54.5 -18t-30.5 -11q-11 0 -12.5 3.5t-1.5 7.5t15.5 17
t36.5 29t42 33.5t32 30.5z" />
    <glyph glyph-name="Icircumflex" unicode="&#xce;" horiz-adv-x="415" 
d="M477 589q20 32 44 42t40 10q17 0 27 -11.5t10 -24.5q0 -21 -8.5 -37.5t-21 -28.5t-27 -20.5t-25.5 -13.5q-26 -40 -48 -97t-46 -118.5t-54 -122t-72 -108.5t-100 -77.5t-139 -29.5q-42 0 -73 12.5t-51.5 33t-31 47.5t-10.5 56q0 25 8 43.5t21 30.5t28 18t30 6
q14 0 23.5 -4.5t15 -11.5t8 -16t2.5 -17q-12 0 -25 -3t-24.5 -11t-18.5 -22t-7 -36q0 -15 6 -31.5t18.5 -31t33 -23.5t49.5 -9q56 0 97 27.5t71 72.5t53 101.5t44.5 115.5t44 114t51.5 97q-8 2 -30.5 13t-52 23t-60.5 22t-56 10q-66 0 -94 -26t-28 -64q0 -33 33 -56t90 -23
q0 -22 -16 -42t-37 -20q-15 0 -33.5 7t-34.5 21.5t-27 36.5t-11 52q0 36 14.5 69t41.5 58t66 40t87 15q40 0 74 -8.5t60.5 -19t44.5 -20t26 -10.5zM445 764q-14 -3 -35.5 -13.5t-42.5 -22.5t-37.5 -22.5t-19.5 -13.5q-11 0 -12.5 3.5t-1.5 7.5t18 23.5t42.5 40.5t49.5 38
t39 17q15 0 31 -17t28.5 -38.5t21 -40.5t8.5 -23t-1.5 -7.5t-12.5 -3.5q-4 5 -12.5 14.5t-19 20t-22 21t-21.5 16.5z" />
    <glyph glyph-name="Idieresis" unicode="&#xcf;" horiz-adv-x="415" 
d="M477 589q20 32 44 42t40 10q17 0 27 -11.5t10 -24.5q0 -21 -8.5 -37.5t-21 -28.5t-27 -20.5t-25.5 -13.5q-26 -40 -48 -97t-46 -118.5t-54 -122t-72 -108.5t-100 -77.5t-139 -29.5q-42 0 -73 12.5t-51.5 33t-31 47.5t-10.5 56q0 25 8 43.5t21 30.5t28 18t30 6
q14 0 23.5 -4.5t15 -11.5t8 -16t2.5 -17q-12 0 -25 -3t-24.5 -11t-18.5 -22t-7 -36q0 -15 6 -31.5t18.5 -31t33 -23.5t49.5 -9q56 0 97 27.5t71 72.5t53 101.5t44.5 115.5t44 114t51.5 97q-8 2 -30.5 13t-52 23t-60.5 22t-56 10q-66 0 -94 -26t-28 -64q0 -33 33 -56t90 -23
q0 -22 -16 -42t-37 -20q-15 0 -33.5 7t-34.5 21.5t-27 36.5t-11 52q0 36 14.5 69t41.5 58t66 40t87 15q40 0 74 -8.5t60.5 -19t44.5 -20t26 -10.5zM500 788q20 0 33.5 -12t13.5 -32t-13.5 -32t-33.5 -12t-34 12t-14 32t14 32t34 12zM384 788q20 0 34 -12t14 -32t-14 -32
t-34 -12t-33.5 12t-13.5 32t13.5 32t33.5 12z" />
    <glyph glyph-name="Eth" unicode="&#xd0;" horiz-adv-x="781" 
d="M273 153q-23 4 -47.5 6t-50.5 2q-15 0 -24 6.5t-9 13.5q0 6 16 9.5t55 3.5q19 0 39.5 -1.5t40.5 -3.5q13 24 27 51q-35 25 -56.5 66.5t-21.5 97.5q0 52 20.5 95.5t58 75t89.5 49t116 17.5h5q33 32 63 42t55 10q32 0 43.5 -6t11.5 -14q0 -6 -6.5 -9t-28.5 -3
q-12 0 -28.5 -5t-36.5 -26q40 -12 77 -36.5t66 -59.5t46.5 -79t17.5 -94q0 -76 -22 -136t-59.5 -104.5t-87.5 -75.5t-105 -50.5t-112 -28t-110 -8.5q-48 0 -83.5 4t-61.5 10q-66 -28 -139 -28q-20 0 -36.5 6t-28 16t-18 22.5t-6.5 25.5q0 20 21 34t58 14q20 0 37 -4
t33.5 -10t32.5 -13.5t33 -14.5q32 20 60.5 53.5t55.5 79.5zM503 610q-5 1 -10.5 1h-10.5q-42 0 -78 -11.5t-63 -35t-42 -57.5t-15 -79q0 -86 65 -127q21 48 42 102q29 74 57 124t55 83zM382 175q51 -11 86.5 -21.5t35.5 -15.5q0 -17 -5 -30t-18 -13q-7 0 -40 13t-84 27
q-31 -46 -64.5 -79t-69.5 -56q11 -2 23 -3t26 -1q48 0 98 9.5t97 29t89 49.5t73 72t49 96t18 121q0 82 -34.5 137t-87.5 81q-22 -32 -47.5 -85.5t-55.5 -137.5q-18 -53 -39 -96q20 -4 41.5 -5.5t46.5 -1.5q0 -13 -7.5 -24t-19.5 -19.5t-27.5 -13t-30.5 -4.5q-19 0 -35 3
q-5 -8 -9 -16t-9 -16zM95 -6q-17 5 -31.5 9t-31.5 4q-13 0 -13 -8q0 -2 6 -6t29 -4q19 0 41 5z" />
    <glyph glyph-name="Ntilde" unicode="&#xd1;" horiz-adv-x="597" 
d="M1003 672q-70 0 -142.5 -32.5t-138 -106.5t-120 -194.5t-87.5 -296.5q-9 -48 -18.5 -66t-28.5 -18q-39 0 -57 34t-18 90q0 72 12 143t29 132.5t34 108.5t28 72h-2q-9 -8 -23 -37.5t-33 -72t-42.5 -94t-51.5 -103.5t-61.5 -101.5t-72 -87.5t-81.5 -61t-92 -23
q-42 0 -72.5 11.5t-51 31t-30.5 45.5t-10 55q0 25 8 43t21 30t28 17.5t30 5.5q29 0 39 -15t10 -32q-12 0 -25 -3t-24.5 -11t-18.5 -22t-7 -36q0 -15 5 -31t17 -28.5t31.5 -21t48.5 -8.5q52 0 96.5 28t83 74.5t71.5 105.5t62 120.5t54.5 120.5t49.5 105.5t46.5 74.5t45.5 28
q31 0 53.5 -20.5t22.5 -45.5q0 -16 -19.5 -49.5t-43 -89t-43 -135t-19.5 -188.5h2q35 142 82.5 258.5t101.5 199t111.5 127.5t113.5 45q31 0 50 -8t29.5 -19.5t13.5 -25t3 -23.5zM581 740q-8 0 -14.5 6.5t-6.5 15.5q0 21 20.5 35t46.5 14q21 0 37 -7.5t30.5 -17t28 -17
t30.5 -7.5q20 0 30 11.5t10 25.5q9 0 17 -7.5t8 -18.5q0 -10 -5 -20.5t-14 -19t-21.5 -14t-27.5 -5.5q-25 0 -41.5 7.5t-30 16.5t-28 16.5t-35.5 7.5q-31 0 -34 -22z" />
    <glyph glyph-name="Ograve" unicode="&#xd2;" horiz-adv-x="678" 
d="M631 259q-26 -68 -69.5 -123.5t-96.5 -95t-112 -61t-114 -21.5q-56 0 -98 17.5t-69.5 48t-41 71t-13.5 87.5q0 60 18 117.5t49.5 108.5t75 94t93.5 73.5t105.5 48t111.5 17.5q52 0 93.5 -18t66.5 -58q5 1 10.5 1h10.5q59 0 92 -36.5t33 -92.5q0 -63 -39.5 -110
t-105.5 -68zM602 284q9 30 14 62.5t5 67.5q0 29 -4 51.5t-11 39.5q-23 -12 -35 -34.5t-12 -46.5q-20 0 -35.5 6.5t-15.5 16.5q0 36 18 61.5t46 39.5q-27 21 -59 21q-39 0 -69 -32t-30 -95q0 -40 12 -70t32.5 -50.5t47.5 -30.5t58 -10q20 0 38 3zM650 515q5 -21 8 -44.5
t3 -50.5q0 -68 -18 -126q42 15 68.5 47.5t26.5 81.5q0 42 -22.5 66t-65.5 26zM589 248q-14 -2 -28.5 -3.5t-29.5 -1.5q-48 0 -90.5 15.5t-74 44.5t-49.5 71.5t-18 95.5q0 23 12 52q-35 -25 -65.5 -60t-54 -80t-37 -100t-13.5 -119q0 -43 12 -71.5t31.5 -45t44.5 -23.5t50 -7
q48 0 94.5 16.5t87.5 46.5t74 73t54 96zM479 815q3 -17 14 -33t23 -30.5t21.5 -26.5t9.5 -20q0 -4 -1.5 -7.5t-12.5 -3.5q-6 7 -22.5 17t-34.5 20t-32 20.5t-14 19.5q0 4 3.5 11.5t9.5 15t15 12.5t21 5z" />
    <glyph glyph-name="Oacute" unicode="&#xd3;" horiz-adv-x="678" 
d="M631 259q-26 -68 -69.5 -123.5t-96.5 -95t-112 -61t-114 -21.5q-56 0 -98 17.5t-69.5 48t-41 71t-13.5 87.5q0 60 18 117.5t49.5 108.5t75 94t93.5 73.5t105.5 48t111.5 17.5q52 0 93.5 -18t66.5 -58q5 1 10.5 1h10.5q59 0 92 -36.5t33 -92.5q0 -63 -39.5 -110
t-105.5 -68zM602 284q9 30 14 62.5t5 67.5q0 29 -4 51.5t-11 39.5q-23 -12 -35 -34.5t-12 -46.5q-20 0 -35.5 6.5t-15.5 16.5q0 36 18 61.5t46 39.5q-27 21 -59 21q-39 0 -69 -32t-30 -95q0 -40 12 -70t32.5 -50.5t47.5 -30.5t58 -10q20 0 38 3zM650 515q5 -21 8 -44.5
t3 -50.5q0 -68 -18 -126q42 15 68.5 47.5t26.5 81.5q0 42 -22.5 66t-65.5 26zM589 248q-14 -2 -28.5 -3.5t-29.5 -1.5q-48 0 -90.5 15.5t-74 44.5t-49.5 71.5t-18 95.5q0 23 12 52q-35 -25 -65.5 -60t-54 -80t-37 -100t-13.5 -119q0 -43 12 -71.5t31.5 -45t44.5 -23.5t50 -7
q48 0 94.5 16.5t87.5 46.5t74 73t54 96zM585 818q23 0 36 -16.5t13 -33.5q0 -10 -23.5 -21t-52.5 -21t-54.5 -18t-30.5 -11q-11 0 -12.5 3.5t-1.5 7.5t15.5 17t36.5 29t42 33.5t32 30.5z" />
    <glyph glyph-name="Ocircumflex" unicode="&#xd4;" horiz-adv-x="678" 
d="M631 259q-26 -68 -69.5 -123.5t-96.5 -95t-112 -61t-114 -21.5q-56 0 -98 17.5t-69.5 48t-41 71t-13.5 87.5q0 60 18 117.5t49.5 108.5t75 94t93.5 73.5t105.5 48t111.5 17.5q52 0 93.5 -18t66.5 -58q5 1 10.5 1h10.5q59 0 92 -36.5t33 -92.5q0 -63 -39.5 -110
t-105.5 -68zM602 284q9 30 14 62.5t5 67.5q0 29 -4 51.5t-11 39.5q-23 -12 -35 -34.5t-12 -46.5q-20 0 -35.5 6.5t-15.5 16.5q0 36 18 61.5t46 39.5q-27 21 -59 21q-39 0 -69 -32t-30 -95q0 -40 12 -70t32.5 -50.5t47.5 -30.5t58 -10q20 0 38 3zM650 515q5 -21 8 -44.5
t3 -50.5q0 -68 -18 -126q42 15 68.5 47.5t26.5 81.5q0 42 -22.5 66t-65.5 26zM589 248q-14 -2 -28.5 -3.5t-29.5 -1.5q-48 0 -90.5 15.5t-74 44.5t-49.5 71.5t-18 95.5q0 23 12 52q-35 -25 -65.5 -60t-54 -80t-37 -100t-13.5 -119q0 -43 12 -71.5t31.5 -45t44.5 -23.5t50 -7
q48 0 94.5 16.5t87.5 46.5t74 73t54 96zM558 752q-14 -3 -35.5 -13.5t-42.5 -22.5t-37.5 -22.5t-19.5 -13.5q-11 0 -12.5 3.5t-1.5 7.5t18 23.5t42.5 40.5t49.5 38t39 17q15 0 31 -17t28.5 -38.5t21 -40.5t8.5 -23t-1.5 -7.5t-12.5 -3.5q-4 5 -12.5 14.5t-19 20t-22 21
t-21.5 16.5z" />
    <glyph glyph-name="Otilde" unicode="&#xd5;" horiz-adv-x="678" 
d="M631 259q-26 -68 -69.5 -123.5t-96.5 -95t-112 -61t-114 -21.5q-56 0 -98 17.5t-69.5 48t-41 71t-13.5 87.5q0 60 18 117.5t49.5 108.5t75 94t93.5 73.5t105.5 48t111.5 17.5q52 0 93.5 -18t66.5 -58q5 1 10.5 1h10.5q59 0 92 -36.5t33 -92.5q0 -63 -39.5 -110
t-105.5 -68zM602 284q9 30 14 62.5t5 67.5q0 29 -4 51.5t-11 39.5q-23 -12 -35 -34.5t-12 -46.5q-20 0 -35.5 6.5t-15.5 16.5q0 36 18 61.5t46 39.5q-27 21 -59 21q-39 0 -69 -32t-30 -95q0 -40 12 -70t32.5 -50.5t47.5 -30.5t58 -10q20 0 38 3zM650 515q5 -21 8 -44.5
t3 -50.5q0 -68 -18 -126q42 15 68.5 47.5t26.5 81.5q0 42 -22.5 66t-65.5 26zM589 248q-14 -2 -28.5 -3.5t-29.5 -1.5q-48 0 -90.5 15.5t-74 44.5t-49.5 71.5t-18 95.5q0 23 12 52q-35 -25 -65.5 -60t-54 -80t-37 -100t-13.5 -119q0 -43 12 -71.5t31.5 -45t44.5 -23.5t50 -7
q48 0 94.5 16.5t87.5 46.5t74 73t54 96zM430 695q-8 0 -14.5 6.5t-6.5 15.5q0 21 20.5 35t46.5 14q21 0 37 -7.5t30.5 -17t28 -17t30.5 -7.5q20 0 30 11.5t10 25.5q9 0 17 -7.5t8 -18.5q0 -10 -5 -20.5t-14 -19t-21.5 -14t-27.5 -5.5q-25 0 -41.5 7.5t-30 16.5t-28 16.5
t-35.5 7.5q-31 0 -34 -22z" />
    <glyph glyph-name="Odieresis" unicode="&#xd6;" horiz-adv-x="678" 
d="M631 259q-26 -68 -69.5 -123.5t-96.5 -95t-112 -61t-114 -21.5q-56 0 -98 17.5t-69.5 48t-41 71t-13.5 87.5q0 60 18 117.5t49.5 108.5t75 94t93.5 73.5t105.5 48t111.5 17.5q52 0 93.5 -18t66.5 -58q5 1 10.5 1h10.5q59 0 92 -36.5t33 -92.5q0 -63 -39.5 -110
t-105.5 -68zM602 284q9 30 14 62.5t5 67.5q0 29 -4 51.5t-11 39.5q-23 -12 -35 -34.5t-12 -46.5q-20 0 -35.5 6.5t-15.5 16.5q0 36 18 61.5t46 39.5q-27 21 -59 21q-39 0 -69 -32t-30 -95q0 -40 12 -70t32.5 -50.5t47.5 -30.5t58 -10q20 0 38 3zM650 515q5 -21 8 -44.5
t3 -50.5q0 -68 -18 -126q42 15 68.5 47.5t26.5 81.5q0 42 -22.5 66t-65.5 26zM589 248q-14 -2 -28.5 -3.5t-29.5 -1.5q-48 0 -90.5 15.5t-74 44.5t-49.5 71.5t-18 95.5q0 23 12 52q-35 -25 -65.5 -60t-54 -80t-37 -100t-13.5 -119q0 -43 12 -71.5t31.5 -45t44.5 -23.5t50 -7
q48 0 94.5 16.5t87.5 46.5t74 73t54 96zM577 777q20 0 33.5 -12t13.5 -32t-13.5 -32t-33.5 -12t-34 12t-14 32t14 32t34 12zM461 777q20 0 34 -12t14 -32t-14 -32t-34 -12t-33.5 12t-13.5 32t13.5 32t33.5 12z" />
    <glyph glyph-name="multiply" unicode="&#xd7;" horiz-adv-x="277" 
d="M202 203q12 -15 23 -29t19.5 -26t12.5 -20.5t2 -10.5q-12 -12 -25 -17.5t-22 3.5q-5 5 -18 26.5t-30 50.5q-17 -11 -31.5 -22t-27.5 -24q-11 -11 -22 -12.5t-16 3.5q-4 4 5 17.5t36 41.5q11 11 34 29q-11 14 -21 27.5t-20 23.5q-11 11 -13 22t3 16q4 5 18 -4.5t42 -36.5
q5 -5 10 -11t12 -13q16 12 32 22.5t29.5 18t22.5 11.5t11 2q11 -12 17 -25t-3 -22q-5 -5 -28 -15t-52 -26z" />
    <glyph glyph-name="Oslash" unicode="&#xd8;" horiz-adv-x="678" 
d="M69 16q-25 28 -38.5 69t-13.5 97q0 60 18 117.5t50 108.5t75.5 94t95 73.5t108 48t114.5 17.5q47 0 80 -13.5t55 -39.5q33 34 53.5 54t23.5 19q14 -2 22.5 -7.5t6.5 -13.5q-1 -3 -20.5 -22.5l-51.5 -51.5h4q59 0 92 -36.5t33 -92.5q0 -63 -39.5 -110t-105.5 -68
q-26 -68 -69.5 -123.5t-98 -95t-116 -61t-121.5 -21.5q-80 0 -131 36q-40 -43 -66 -69t-32 -25q-8 2 -14.5 6t-4.5 11q1 5 25.5 31t65.5 68zM422 384l46 50t45 48q8 23 23.5 39t35.5 27q-27 21 -59 21q-39 0 -69 -32t-30 -95q0 -29 8 -58zM650 515q5 -21 8 -44.5t3 -50.5
q0 -68 -18 -126q42 15 68.5 47.5t26.5 81.5q0 42 -22.5 66t-65.5 26zM514 437q-41 -39 -81 -81q19 -37 54 -56t77 -19q20 0 38 3q9 30 14 62.5t5 67.5q0 29 -4 51.5t-11 39.5q-23 -12 -35 -34.5t-12 -46.5q-14 0 -26 3.5t-19 9.5zM150 99q40 42 83.5 86t85.5 89
q9 10 18.5 19.5t18.5 20.5q-26 29 -41.5 68t-15.5 88q0 23 12 52q-35 -25 -65.5 -60t-54 -80.5t-37 -101t-13.5 -121.5q0 -35 9 -60zM374 297q-9 -10 -18 -19t-18 -19q-45 -48 -89.5 -96t-84.5 -93q19 -30 48 -42t58 -12q51 0 99.5 16.5t90 46.5t75 73t54.5 96
q-14 -2 -28.5 -3.5t-29.5 -1.5q-92 0 -157 54z" />
    <glyph glyph-name="Ugrave" unicode="&#xd9;" horiz-adv-x="577" 
d="M296 506q0 30 -5.5 56t-18.5 46t-34.5 31.5t-52.5 11.5q-35 0 -66 -11.5t-54 -32t-36 -49t-13 -63.5q0 -22 4 -41t13.5 -33t25 -22t38.5 -8q19 0 35 10t26.5 26t16.5 36t6 39q20 0 35.5 -10.5t15.5 -29.5q0 -24 -12 -46t-32 -39t-45.5 -27t-52.5 -10q-29 0 -50.5 11.5
t-35 31t-20 45t-6.5 53.5q0 42 17.5 80t48.5 66.5t72.5 45t88.5 16.5q53 0 88 -18.5t56 -46.5t30 -61t9 -63q0 -40 -15 -76t-37.5 -70.5t-48.5 -68.5t-48.5 -68.5t-37.5 -71.5t-15 -78q0 -40 17 -58.5t43 -18.5q38 0 71 31t63.5 83t59 119t58 138t60 141.5t64.5 129.5
q3 2 14.5 5.5t27.5 3.5q17 0 32 -8.5t15 -27.5q0 -7 -1 -12.5t-3.5 -11.5t-7 -14t-10.5 -20q-50 -90 -86 -168t-59.5 -141t-35 -109.5t-11.5 -72.5q0 -7 4.5 -11.5t10.5 -4.5q29 0 56.5 24t57.5 65q5 0 8.5 -3t3.5 -8q-13 -23 -31 -44.5t-39.5 -39t-45.5 -28t-49 -10.5
q-58 0 -58 59q0 30 7 60.5t12 45.5h-2q-17 -40 -38 -77t-48.5 -65.5t-61 -45.5t-73.5 -17q-29 0 -50 11.5t-35 31t-20.5 45.5t-6.5 56q0 43 14.5 79t36.5 69t47.5 63.5t47.5 61.5t36.5 63.5t14.5 69.5zM471 813q3 -17 14 -33t23 -30.5t21.5 -26.5t9.5 -20q0 -4 -1.5 -7.5
t-12.5 -3.5q-6 7 -22.5 17t-34.5 20t-32 20.5t-14 19.5q0 4 3.5 11.5t9.5 15t15 12.5t21 5z" />
    <glyph glyph-name="Uacute" unicode="&#xda;" horiz-adv-x="577" 
d="M296 506q0 30 -5.5 56t-18.5 46t-34.5 31.5t-52.5 11.5q-35 0 -66 -11.5t-54 -32t-36 -49t-13 -63.5q0 -22 4 -41t13.5 -33t25 -22t38.5 -8q19 0 35 10t26.5 26t16.5 36t6 39q20 0 35.5 -10.5t15.5 -29.5q0 -24 -12 -46t-32 -39t-45.5 -27t-52.5 -10q-29 0 -50.5 11.5
t-35 31t-20 45t-6.5 53.5q0 42 17.5 80t48.5 66.5t72.5 45t88.5 16.5q53 0 88 -18.5t56 -46.5t30 -61t9 -63q0 -40 -15 -76t-37.5 -70.5t-48.5 -68.5t-48.5 -68.5t-37.5 -71.5t-15 -78q0 -40 17 -58.5t43 -18.5q38 0 71 31t63.5 83t59 119t58 138t60 141.5t64.5 129.5
q3 2 14.5 5.5t27.5 3.5q17 0 32 -8.5t15 -27.5q0 -7 -1 -12.5t-3.5 -11.5t-7 -14t-10.5 -20q-50 -90 -86 -168t-59.5 -141t-35 -109.5t-11.5 -72.5q0 -7 4.5 -11.5t10.5 -4.5q29 0 56.5 24t57.5 65q5 0 8.5 -3t3.5 -8q-13 -23 -31 -44.5t-39.5 -39t-45.5 -28t-49 -10.5
q-58 0 -58 59q0 30 7 60.5t12 45.5h-2q-17 -40 -38 -77t-48.5 -65.5t-61 -45.5t-73.5 -17q-29 0 -50 11.5t-35 31t-20.5 45.5t-6.5 56q0 43 14.5 79t36.5 69t47.5 63.5t47.5 61.5t36.5 63.5t14.5 69.5zM629 813q23 0 36 -16.5t13 -33.5q0 -10 -23.5 -21t-52.5 -21t-54.5 -18
t-30.5 -11q-11 0 -12.5 3.5t-1.5 7.5t15.5 17t36.5 29t42 33.5t32 30.5z" />
    <glyph glyph-name="Ucircumflex" unicode="&#xdb;" horiz-adv-x="577" 
d="M296 506q0 30 -5.5 56t-18.5 46t-34.5 31.5t-52.5 11.5q-35 0 -66 -11.5t-54 -32t-36 -49t-13 -63.5q0 -22 4 -41t13.5 -33t25 -22t38.5 -8q19 0 35 10t26.5 26t16.5 36t6 39q20 0 35.5 -10.5t15.5 -29.5q0 -24 -12 -46t-32 -39t-45.5 -27t-52.5 -10q-29 0 -50.5 11.5
t-35 31t-20 45t-6.5 53.5q0 42 17.5 80t48.5 66.5t72.5 45t88.5 16.5q53 0 88 -18.5t56 -46.5t30 -61t9 -63q0 -40 -15 -76t-37.5 -70.5t-48.5 -68.5t-48.5 -68.5t-37.5 -71.5t-15 -78q0 -40 17 -58.5t43 -18.5q38 0 71 31t63.5 83t59 119t58 138t60 141.5t64.5 129.5
q3 2 14.5 5.5t27.5 3.5q17 0 32 -8.5t15 -27.5q0 -7 -1 -12.5t-3.5 -11.5t-7 -14t-10.5 -20q-50 -90 -86 -168t-59.5 -141t-35 -109.5t-11.5 -72.5q0 -7 4.5 -11.5t10.5 -4.5q29 0 56.5 24t57.5 65q5 0 8.5 -3t3.5 -8q-13 -23 -31 -44.5t-39.5 -39t-45.5 -28t-49 -10.5
q-58 0 -58 59q0 30 7 60.5t12 45.5h-2q-17 -40 -38 -77t-48.5 -65.5t-61 -45.5t-73.5 -17q-29 0 -50 11.5t-35 31t-20.5 45.5t-6.5 56q0 43 14.5 79t36.5 69t47.5 63.5t47.5 61.5t36.5 63.5t14.5 69.5zM578 779q-14 -3 -35.5 -13.5t-42.5 -22.5t-37.5 -22.5t-19.5 -13.5
q-11 0 -12.5 3.5t-1.5 7.5t18 23.5t42.5 40.5t49.5 38t39 17q15 0 31 -17t28.5 -38.5t21 -40.5t8.5 -23t-1.5 -7.5t-12.5 -3.5q-4 5 -12.5 14.5t-19 20t-22 21t-21.5 16.5z" />
    <glyph glyph-name="Udieresis" unicode="&#xdc;" horiz-adv-x="577" 
d="M296 506q0 30 -5.5 56t-18.5 46t-34.5 31.5t-52.5 11.5q-35 0 -66 -11.5t-54 -32t-36 -49t-13 -63.5q0 -22 4 -41t13.5 -33t25 -22t38.5 -8q19 0 35 10t26.5 26t16.5 36t6 39q20 0 35.5 -10.5t15.5 -29.5q0 -24 -12 -46t-32 -39t-45.5 -27t-52.5 -10q-29 0 -50.5 11.5
t-35 31t-20 45t-6.5 53.5q0 42 17.5 80t48.5 66.5t72.5 45t88.5 16.5q53 0 88 -18.5t56 -46.5t30 -61t9 -63q0 -40 -15 -76t-37.5 -70.5t-48.5 -68.5t-48.5 -68.5t-37.5 -71.5t-15 -78q0 -40 17 -58.5t43 -18.5q38 0 71 31t63.5 83t59 119t58 138t60 141.5t64.5 129.5
q3 2 14.5 5.5t27.5 3.5q17 0 32 -8.5t15 -27.5q0 -7 -1 -12.5t-3.5 -11.5t-7 -14t-10.5 -20q-50 -90 -86 -168t-59.5 -141t-35 -109.5t-11.5 -72.5q0 -7 4.5 -11.5t10.5 -4.5q29 0 56.5 24t57.5 65q5 0 8.5 -3t3.5 -8q-13 -23 -31 -44.5t-39.5 -39t-45.5 -28t-49 -10.5
q-58 0 -58 59q0 30 7 60.5t12 45.5h-2q-17 -40 -38 -77t-48.5 -65.5t-61 -45.5t-73.5 -17q-29 0 -50 11.5t-35 31t-20.5 45.5t-6.5 56q0 43 14.5 79t36.5 69t47.5 63.5t47.5 61.5t36.5 63.5t14.5 69.5zM579 773q20 0 33.5 -12t13.5 -32t-13.5 -32t-33.5 -12t-34 12t-14 32
t14 32t34 12zM463 773q20 0 34 -12t14 -32t-14 -32t-34 -12t-33.5 12t-13.5 32t13.5 32t33.5 12z" />
    <glyph glyph-name="Yacute" unicode="&#xdd;" horiz-adv-x="597" 
d="M451 148q-23 -36 -47 -68.5t-52.5 -57.5t-62 -39.5t-73.5 -14.5q-22 0 -42 8.5t-35 24.5t-23.5 39.5t-8.5 54.5q0 40 13 76.5t33 70.5t42.5 66.5t42.5 64.5t33 65t13 68q0 30 -5.5 56t-18.5 46t-34.5 31.5t-52.5 11.5q-35 0 -66 -11.5t-54 -32t-36 -49t-13 -63.5
q0 -22 4 -41t13.5 -33t25 -22t38.5 -8q19 0 35 10t26.5 26t16.5 36t6 39q20 0 35.5 -10.5t15.5 -29.5q0 -24 -12 -46t-32 -39t-45.5 -27t-52.5 -10q-29 0 -50.5 11.5t-35 31t-20 45t-6.5 53.5q0 42 17.5 80t48.5 66.5t72.5 45t88.5 16.5q53 0 88 -18.5t56 -46.5t30 -61
t9 -63q0 -45 -13.5 -83.5t-34 -74t-44 -68.5t-44 -66t-34 -68t-13.5 -74q0 -36 17.5 -47.5t35.5 -11.5q43 0 81 28t71 71.5t62 96t53 101.5q12 23 27 60t33.5 80.5t40 88.5t44.5 85q8 13 21.5 18t21.5 5q22 0 36 -11.5t14 -28.5q0 -11 -3 -22.5t-15 -31.5
q-47 -78 -85.5 -165.5t-76.5 -174t-79.5 -165.5t-94 -139.5t-119 -96.5t-155.5 -36q-42 0 -73 12.5t-51.5 33t-31 47.5t-10.5 56q0 25 8 43.5t21 30.5t28 18t30 6q14 0 23.5 -4.5t15 -11.5t8 -16t2.5 -17q-12 0 -25 -3t-24.5 -11t-18.5 -22t-7 -36q0 -15 6 -31.5t18.5 -31
t33 -23.5t49.5 -9q63 0 110.5 26t85.5 72t70 110t62 139h-2zM665 843q23 0 36 -16.5t13 -33.5q0 -10 -23.5 -21t-52.5 -21t-54.5 -18t-30.5 -11q-11 0 -12.5 3.5t-1.5 7.5t15.5 17t36.5 29t42 33.5t32 30.5z" />
    <glyph glyph-name="Thorn" unicode="&#xde;" horiz-adv-x="637" 
d="M386 -68q-34 0 -68.5 5t-64.5 12t-54 13.5t-37 9.5q-66 -28 -139 -28q-20 0 -36.5 6t-28 16t-18 22.5t-6.5 25.5q0 20 21 34t58 14q20 0 37 -4t33.5 -10t32.5 -13.5t33 -14.5q48 35 82.5 81.5t62 98.5t49.5 107t45.5 109t50.5 103.5t64 90.5q-5 1 -10.5 1h-10.5
q-62 0 -108 -13.5t-76 -33t-45 -40.5t-15 -36q0 -13 3.5 -22.5t13 -15.5t27 -9t45.5 -3q0 -22 -16 -42t-37 -20q-13 0 -26.5 7t-24 19.5t-17 30.5t-6.5 40q0 29 20.5 59t61 54t102 39.5t142.5 15.5h5q33 32 63 42t55 10q32 0 43.5 -6t11.5 -14q0 -6 -6.5 -9t-28.5 -3
q-12 0 -28.5 -5t-36.5 -26q36 -7 63 -22t45.5 -36t28 -46t9.5 -53q0 -43 -14 -77t-36.5 -60.5t-50.5 -45.5t-56.5 -31t-55 -18t-45.5 -6q-12 0 -23 6.5t-19.5 16t-14.5 20t-9 19.5q-30 -66 -54.5 -113.5t-48.5 -82t-49.5 -59t-58.5 -42.5q20 -4 43 -8q20 -3 45.5 -5.5
t54.5 -2.5q43 0 71.5 7t45 18t23 26t6.5 30q19 0 38.5 -9.5t19.5 -31.5q0 -17 -9.5 -33t-30.5 -29.5t-54.5 -21.5t-81.5 -8zM437 322q51 2 93.5 14t74 34t49 52t17.5 68q0 47 -25 72.5t-68 35.5q-41 -51 -73.5 -124.5t-67.5 -151.5zM87 -6q-17 5 -31.5 9t-31.5 4
q-13 0 -13 -8q0 -2 6 -6t29 -4q19 0 41 5z" />
    <glyph glyph-name="germandbls" unicode="&#xdf;" horiz-adv-x="571" 
d="M261 59q-34 -29 -77.5 -46t-97.5 -17q-32 0 -54.5 9t-36.5 21.5t-20.5 25.5t-6.5 20q0 10 5 23.5t14 25.5t22 20.5t30 8.5q10 0 15 -10.5t9.5 -24t9.5 -26t14 -17.5q15 2 33 13t34 26t27 31t11 27q0 24 -19 38t-41.5 28t-41.5 32t-19 51q0 32 16 57t39.5 42.5t49 26.5
t43.5 9q29 0 53.5 -17.5t24.5 -53.5q0 -30 -17.5 -50t-41 -34t-46.5 -23.5t-34 -16.5q6 -5 23.5 -10t36 -16t33 -30t14.5 -50q0 -19 -9 -35t-22.5 -28.5t-28 -21.5t-24.5 -14v-2q9 2 21.5 7t25 12.5t24.5 17t21 20.5q21 27 33.5 34.5t22.5 7.5t15 -10.5t9.5 -24t9.5 -26
t14 -17.5q15 2 33 13t34 26t27 31t11 27q0 24 -19 38t-41.5 28t-41.5 32t-19 51q0 32 16 57t39.5 42.5t49 26.5t43.5 9q29 0 53.5 -17.5t24.5 -53.5q0 -30 -17.5 -50t-41 -34t-46.5 -23.5t-34 -16.5q6 -5 23.5 -10t36 -16t33 -30t14.5 -50q0 -19 -9 -35t-22.5 -28.5
t-28 -21.5t-24.5 -14v-2q31 7 68 31.5t60 60.5q14 0 14 -13q-17 -28 -41 -52.5t-54 -42.5t-65.5 -28.5t-76.5 -10.5q-26 0 -46 6.5t-34 16t-22.5 20.5t-12.5 20zM438 265q41 23 58.5 45t17.5 45q0 29 -28 29q-12 0 -25 -5t-23.5 -13t-17.5 -20t-7 -25q0 -14 5.5 -28.5
t19.5 -27.5zM148 265q41 23 58.5 45t17.5 45q0 29 -28 29q-12 0 -25 -5t-23.5 -13t-17.5 -20t-7 -25q0 -14 5.5 -28.5t19.5 -27.5z" />
    <glyph glyph-name="agrave" unicode="&#xe0;" horiz-adv-x="356" 
d="M197 37q0 23 7.5 50t18.5 54h-2q-13 -24 -29.5 -50t-36 -47t-43 -34.5t-49.5 -13.5q-9 0 -20 2.5t-20 11t-15.5 23.5t-6.5 41q0 35 12 77t32 84t46.5 81.5t56.5 70t61 48.5t60 18q26 0 36.5 -16.5t10.5 -41.5h2q11 28 22 43t15 15q15 0 26.5 -4.5t19 -11t11.5 -14
t4 -12.5q0 -9 -5 -23t-23 -43q-13 -21 -32 -60.5t-37 -84t-30.5 -86.5t-12.5 -69q32 5 61.5 25.5t53.5 60.5q12 0 12 -9q-4 -12 -18.5 -33t-36 -41.5t-50 -36t-59.5 -15.5q-17 0 -29.5 10.5t-12.5 30.5zM115 66q14 0 33 17.5t39.5 46t40 63t35 69t25 64.5t9.5 49
q0 12 -5.5 16t-11.5 4q-16 0 -36.5 -15t-42 -40t-41.5 -56.5t-36 -64.5t-25.5 -65t-9.5 -57q0 -17 7.5 -24t18.5 -7zM283 602q3 -17 14 -33t23 -30.5t21.5 -26.5t9.5 -20q0 -4 -1.5 -7.5t-12.5 -3.5q-6 7 -22.5 17t-34.5 20t-32 20.5t-14 19.5q0 4 3.5 11.5t9.5 15t15 12.5
t21 5z" />
    <glyph glyph-name="aacute" unicode="&#xe1;" horiz-adv-x="356" 
d="M197 37q0 23 7.5 50t18.5 54h-2q-13 -24 -29.5 -50t-36 -47t-43 -34.5t-49.5 -13.5q-9 0 -20 2.5t-20 11t-15.5 23.5t-6.5 41q0 35 12 77t32 84t46.5 81.5t56.5 70t61 48.5t60 18q26 0 36.5 -16.5t10.5 -41.5h2q11 28 22 43t15 15q15 0 26.5 -4.5t19 -11t11.5 -14
t4 -12.5q0 -9 -5 -23t-23 -43q-13 -21 -32 -60.5t-37 -84t-30.5 -86.5t-12.5 -69q32 5 61.5 25.5t53.5 60.5q12 0 12 -9q-4 -12 -18.5 -33t-36 -41.5t-50 -36t-59.5 -15.5q-17 0 -29.5 10.5t-12.5 30.5zM115 66q14 0 33 17.5t39.5 46t40 63t35 69t25 64.5t9.5 49
q0 12 -5.5 16t-11.5 4q-16 0 -36.5 -15t-42 -40t-41.5 -56.5t-36 -64.5t-25.5 -65t-9.5 -57q0 -17 7.5 -24t18.5 -7zM419 615q23 0 36 -16.5t13 -33.5q0 -10 -23.5 -21t-52.5 -21t-54.5 -18t-30.5 -11q-11 0 -12.5 3.5t-1.5 7.5t15.5 17t36.5 29t42 33.5t32 30.5z" />
    <glyph glyph-name="acircumflex" unicode="&#xe2;" horiz-adv-x="356" 
d="M197 37q0 23 7.5 50t18.5 54h-2q-13 -24 -29.5 -50t-36 -47t-43 -34.5t-49.5 -13.5q-9 0 -20 2.5t-20 11t-15.5 23.5t-6.5 41q0 35 12 77t32 84t46.5 81.5t56.5 70t61 48.5t60 18q26 0 36.5 -16.5t10.5 -41.5h2q11 28 22 43t15 15q15 0 26.5 -4.5t19 -11t11.5 -14
t4 -12.5q0 -9 -5 -23t-23 -43q-13 -21 -32 -60.5t-37 -84t-30.5 -86.5t-12.5 -69q32 5 61.5 25.5t53.5 60.5q12 0 12 -9q-4 -12 -18.5 -33t-36 -41.5t-50 -36t-59.5 -15.5q-17 0 -29.5 10.5t-12.5 30.5zM115 66q14 0 33 17.5t39.5 46t40 63t35 69t25 64.5t9.5 49
q0 12 -5.5 16t-11.5 4q-16 0 -36.5 -15t-42 -40t-41.5 -56.5t-36 -64.5t-25.5 -65t-9.5 -57q0 -17 7.5 -24t18.5 -7zM379 557q-14 -3 -35.5 -13.5t-42.5 -22.5t-37.5 -22.5t-19.5 -13.5q-11 0 -12.5 3.5t-1.5 7.5t18 23.5t42.5 40.5t49.5 38t39 17q15 0 31 -17t28.5 -38.5
t21 -40.5t8.5 -23t-1.5 -7.5t-12.5 -3.5q-4 5 -12.5 14.5t-19 20t-22 21t-21.5 16.5z" />
    <glyph glyph-name="atilde" unicode="&#xe3;" horiz-adv-x="356" 
d="M197 37q0 23 7.5 50t18.5 54h-2q-13 -24 -29.5 -50t-36 -47t-43 -34.5t-49.5 -13.5q-9 0 -20 2.5t-20 11t-15.5 23.5t-6.5 41q0 35 12 77t32 84t46.5 81.5t56.5 70t61 48.5t60 18q26 0 36.5 -16.5t10.5 -41.5h2q11 28 22 43t15 15q15 0 26.5 -4.5t19 -11t11.5 -14
t4 -12.5q0 -9 -5 -23t-23 -43q-13 -21 -32 -60.5t-37 -84t-30.5 -86.5t-12.5 -69q32 5 61.5 25.5t53.5 60.5q12 0 12 -9q-4 -12 -18.5 -33t-36 -41.5t-50 -36t-59.5 -15.5q-17 0 -29.5 10.5t-12.5 30.5zM115 66q14 0 33 17.5t39.5 46t40 63t35 69t25 64.5t9.5 49
q0 12 -5.5 16t-11.5 4q-16 0 -36.5 -15t-42 -40t-41.5 -56.5t-36 -64.5t-25.5 -65t-9.5 -57q0 -17 7.5 -24t18.5 -7zM257 527q-8 0 -14.5 6.5t-6.5 15.5q0 21 20.5 35t46.5 14q21 0 37 -7.5t30.5 -17t28 -17t30.5 -7.5q20 0 30 11.5t10 25.5q9 0 17 -7.5t8 -18.5
q0 -10 -5 -20.5t-14 -19t-21.5 -14t-27.5 -5.5q-25 0 -41.5 7.5t-30 16.5t-28 16.5t-35.5 7.5q-31 0 -34 -22z" />
    <glyph glyph-name="adieresis" unicode="&#xe4;" horiz-adv-x="356" 
d="M197 37q0 23 7.5 50t18.5 54h-2q-13 -24 -29.5 -50t-36 -47t-43 -34.5t-49.5 -13.5q-9 0 -20 2.5t-20 11t-15.5 23.5t-6.5 41q0 35 12 77t32 84t46.5 81.5t56.5 70t61 48.5t60 18q26 0 36.5 -16.5t10.5 -41.5h2q11 28 22 43t15 15q15 0 26.5 -4.5t19 -11t11.5 -14
t4 -12.5q0 -9 -5 -23t-23 -43q-13 -21 -32 -60.5t-37 -84t-30.5 -86.5t-12.5 -69q32 5 61.5 25.5t53.5 60.5q12 0 12 -9q-4 -12 -18.5 -33t-36 -41.5t-50 -36t-59.5 -15.5q-17 0 -29.5 10.5t-12.5 30.5zM115 66q14 0 33 17.5t39.5 46t40 63t35 69t25 64.5t9.5 49
q0 12 -5.5 16t-11.5 4q-16 0 -36.5 -15t-42 -40t-41.5 -56.5t-36 -64.5t-25.5 -65t-9.5 -57q0 -17 7.5 -24t18.5 -7zM419 597q20 0 33.5 -12t13.5 -32t-13.5 -32t-33.5 -12t-34 12t-14 32t14 32t34 12zM303 597q20 0 34 -12t14 -32t-14 -32t-34 -12t-33.5 12t-13.5 32
t13.5 32t33.5 12z" />
    <glyph glyph-name="aring" unicode="&#xe5;" horiz-adv-x="356" 
d="M197 37q0 23 7.5 50t18.5 54h-2q-13 -24 -29.5 -50t-36 -47t-43 -34.5t-49.5 -13.5q-9 0 -20 2.5t-20 11t-15.5 23.5t-6.5 41q0 35 12 77t32 84t46.5 81.5t56.5 70t61 48.5t60 18q26 0 36.5 -16.5t10.5 -41.5h2q11 28 22 43t15 15q15 0 26.5 -4.5t19 -11t11.5 -14
t4 -12.5q0 -9 -5 -23t-23 -43q-13 -21 -32 -60.5t-37 -84t-30.5 -86.5t-12.5 -69q32 5 61.5 25.5t53.5 60.5q12 0 12 -9q-4 -12 -18.5 -33t-36 -41.5t-50 -36t-59.5 -15.5q-17 0 -29.5 10.5t-12.5 30.5zM115 66q14 0 33 17.5t39.5 46t40 63t35 69t25 64.5t9.5 49
q0 12 -5.5 16t-11.5 4q-16 0 -36.5 -15t-42 -40t-41.5 -56.5t-36 -64.5t-25.5 -65t-9.5 -57q0 -17 7.5 -24t18.5 -7zM292 560q0 26 10.5 48.5t27.5 38.5t38.5 25t43.5 9q28 0 45.5 -19t17.5 -51q0 -23 -7 -44.5t-20.5 -38.5t-34.5 -27t-49 -10q-30 0 -51 20t-21 49zM420 636
q-22 0 -42 -17.5t-20 -46.5q0 -18 6 -30t23 -12q27 0 43.5 18t16.5 52q0 18 -8 27t-19 9z" />
    <glyph glyph-name="ae" unicode="&#xe6;" horiz-adv-x="510" 
d="M235 166q-16 -14 -35 -42.5t-41 -57t-46 -49.5t-50 -21q-9 0 -20 2.5t-20 11t-15.5 23.5t-6.5 41q0 35 12 77t32 84t46.5 81.5t56.5 70t61 48.5t60 18q26 0 41 -26t15 -74h2q13 19 31 37t39.5 32t47 22.5t52.5 8.5q19 0 34.5 -7t27 -18.5t17.5 -25t6 -26.5
q0 -35 -26 -62.5t-64.5 -48t-81.5 -33t-77 -16.5q-20 -46 -20 -93q0 -40 19 -56t51 -16q27 0 50.5 8t42.5 21t32.5 28.5t20.5 29.5q6 0 10.5 -9t4.5 -12q-15 -30 -38.5 -52.5t-51.5 -37.5t-59 -23t-61 -8q-55 0 -79.5 33t-24.5 89q0 23 5 48zM490 403q-11 0 -30 -13.5
t-40.5 -36t-42 -51.5t-33.5 -60q19 6 46.5 20t52.5 33.5t42.5 42.5t17.5 47q0 9 -4.5 13.5t-8.5 4.5zM92 74q12 0 29 17t37.5 39.5t42 44t41.5 31.5q22 53 38.5 99.5t16.5 69.5q0 12 -5.5 16t-11.5 4q-16 0 -37.5 -17t-44.5 -44t-45 -61t-39.5 -67t-28 -62t-10.5 -47
q0 -23 17 -23z" />
    <glyph glyph-name="ccedilla" unicode="&#xe7;" horiz-adv-x="252" 
d="M280 401q-21 0 -52.5 -24t-61 -63.5t-50 -90t-20.5 -102.5q0 -43 18.5 -58t43.5 -15q35 0 63.5 20.5t45.5 47.5q6 0 9.5 -6t3.5 -9q-32 -52 -79.5 -78.5t-90.5 -26.5q-23 0 -43 6.5t-35 20.5t-23.5 37.5t-8.5 56.5q0 61 24.5 121t63 108t84.5 77.5t89 29.5q29 0 46 -19
t17 -39q0 -24 -8 -42.5t-19.5 -30.5t-24 -18t-22.5 -6q-18 0 -25 17t-7 29q10 0 23 3t24.5 9t19.5 13.5t8 16.5q0 6 -3 10.5t-10 4.5zM-11 -116q-23 0 -36 16.5t-13 33.5q0 10 23.5 21t52.5 21t54.5 18t30.5 11q11 0 12.5 -3.5t1.5 -7.5t-16 -17t-37 -29t-42 -33.5
t-31 -30.5z" />
    <glyph glyph-name="egrave" unicode="&#xe8;" horiz-adv-x="287" 
d="M124 -4q-58 0 -91 28t-33 96q0 62 27 121.5t67.5 106.5t88.5 76t90 29q19 0 34.5 -7t27 -18.5t17.5 -25t6 -26.5q0 -38 -18.5 -66t-51.5 -47.5t-79 -31t-100 -15.5q-20 -46 -20 -93q0 -40 19 -56t51 -16q27 0 50.5 8t42.5 21t32.5 28.5t20.5 29.5q6 0 10.5 -9t4.5 -12
q-15 -30 -38 -52.5t-50 -37.5t-55 -23t-53 -8zM266 403q-11 0 -30 -13.5t-40.5 -36t-42 -51.5t-33.5 -60q30 6 59 20t51 33.5t35.5 42.5t13.5 47q0 9 -4.5 13.5t-8.5 4.5zM257 606q3 -17 14 -33t23 -30.5t21.5 -26.5t9.5 -20q0 -4 -1.5 -7.5t-12.5 -3.5q-6 7 -22.5 17
t-34.5 20t-32 20.5t-14 19.5q0 4 3.5 11.5t9.5 15t15 12.5t21 5z" />
    <glyph glyph-name="eacute" unicode="&#xe9;" horiz-adv-x="287" 
d="M124 -4q-58 0 -91 28t-33 96q0 62 27 121.5t67.5 106.5t88.5 76t90 29q19 0 34.5 -7t27 -18.5t17.5 -25t6 -26.5q0 -38 -18.5 -66t-51.5 -47.5t-79 -31t-100 -15.5q-20 -46 -20 -93q0 -40 19 -56t51 -16q27 0 50.5 8t42.5 21t32.5 28.5t20.5 29.5q6 0 10.5 -9t4.5 -12
q-15 -30 -38 -52.5t-50 -37.5t-55 -23t-53 -8zM266 403q-11 0 -30 -13.5t-40.5 -36t-42 -51.5t-33.5 -60q30 6 59 20t51 33.5t35.5 42.5t13.5 47q0 9 -4.5 13.5t-8.5 4.5zM411 606q23 0 36 -16.5t13 -33.5q0 -10 -23.5 -21t-52.5 -21t-54.5 -18t-30.5 -11q-11 0 -12.5 3.5
t-1.5 7.5t15.5 17t36.5 29t42 33.5t32 30.5z" />
    <glyph glyph-name="ecircumflex" unicode="&#xea;" horiz-adv-x="287" 
d="M124 -4q-58 0 -91 28t-33 96q0 62 27 121.5t67.5 106.5t88.5 76t90 29q19 0 34.5 -7t27 -18.5t17.5 -25t6 -26.5q0 -38 -18.5 -66t-51.5 -47.5t-79 -31t-100 -15.5q-20 -46 -20 -93q0 -40 19 -56t51 -16q27 0 50.5 8t42.5 21t32.5 28.5t20.5 29.5q6 0 10.5 -9t4.5 -12
q-15 -30 -38 -52.5t-50 -37.5t-55 -23t-53 -8zM266 403q-11 0 -30 -13.5t-40.5 -36t-42 -51.5t-33.5 -60q30 6 59 20t51 33.5t35.5 42.5t13.5 47q0 9 -4.5 13.5t-8.5 4.5zM334 557q-14 -3 -35.5 -13.5t-42.5 -22.5t-37.5 -22.5t-19.5 -13.5q-11 0 -12.5 3.5t-1.5 7.5
t18 23.5t42.5 40.5t49.5 38t39 17q15 0 31 -17t28.5 -38.5t21 -40.5t8.5 -23t-1.5 -7.5t-12.5 -3.5q-4 5 -12.5 14.5t-19 20t-22 21t-21.5 16.5z" />
    <glyph glyph-name="edieresis" unicode="&#xeb;" horiz-adv-x="287" 
d="M124 -4q-58 0 -91 28t-33 96q0 62 27 121.5t67.5 106.5t88.5 76t90 29q19 0 34.5 -7t27 -18.5t17.5 -25t6 -26.5q0 -38 -18.5 -66t-51.5 -47.5t-79 -31t-100 -15.5q-20 -46 -20 -93q0 -40 19 -56t51 -16q27 0 50.5 8t42.5 21t32.5 28.5t20.5 29.5q6 0 10.5 -9t4.5 -12
q-15 -30 -38 -52.5t-50 -37.5t-55 -23t-53 -8zM266 403q-11 0 -30 -13.5t-40.5 -36t-42 -51.5t-33.5 -60q30 6 59 20t51 33.5t35.5 42.5t13.5 47q0 9 -4.5 13.5t-8.5 4.5zM383 597q20 0 33.5 -12t13.5 -32t-13.5 -32t-33.5 -12t-34 12t-14 32t14 32t34 12zM267 597
q20 0 34 -12t14 -32t-14 -32t-34 -12t-33.5 12t-13.5 32t13.5 32t33.5 12z" />
    <glyph glyph-name="igrave" unicode="&#xec;" horiz-adv-x="174" 
d="M154 453q31 0 48 -12.5t17 -26.5q0 -19 -12 -41q-19 -35 -39 -78t-37 -87t-29.5 -85.5t-16.5 -71.5q26 1 57.5 21.5t50.5 56.5q4 0 8.5 -2.5t4.5 -7.5q-7 -16 -22.5 -37t-37.5 -40t-47.5 -32.5t-52.5 -13.5q-28 0 -37 14.5t-9 28.5q0 28 9.5 69.5t24 87.5t32.5 92
t35 82.5t31.5 59.5t21.5 23zM175 606q3 -17 14 -33t23 -30.5t21.5 -26.5t9.5 -20q0 -4 -1.5 -7.5t-12.5 -3.5q-6 7 -22.5 17t-34.5 20t-32 20.5t-14 19.5q0 4 3.5 11.5t9.5 15t15 12.5t21 5z" />
    <glyph glyph-name="iacute" unicode="&#xed;" horiz-adv-x="174" 
d="M154 453q31 0 48 -12.5t17 -26.5q0 -19 -12 -41q-19 -35 -39 -78t-37 -87t-29.5 -85.5t-16.5 -71.5q26 1 57.5 21.5t50.5 56.5q4 0 8.5 -2.5t4.5 -7.5q-7 -16 -22.5 -37t-37.5 -40t-47.5 -32.5t-52.5 -13.5q-28 0 -37 14.5t-9 28.5q0 28 9.5 69.5t24 87.5t32.5 92
t35 82.5t31.5 59.5t21.5 23zM319 606q23 0 36 -16.5t13 -33.5q0 -10 -23.5 -21t-52.5 -21t-54.5 -18t-30.5 -11q-11 0 -12.5 3.5t-1.5 7.5t15.5 17t36.5 29t42 33.5t32 30.5z" />
    <glyph glyph-name="icircumflex" unicode="&#xee;" horiz-adv-x="174" 
d="M154 453q31 0 48 -12.5t17 -26.5q0 -19 -12 -41q-19 -35 -39 -78t-37 -87t-29.5 -85.5t-16.5 -71.5q26 1 57.5 21.5t50.5 56.5q4 0 8.5 -2.5t4.5 -7.5q-7 -16 -22.5 -37t-37.5 -40t-47.5 -32.5t-52.5 -13.5q-28 0 -37 14.5t-9 28.5q0 28 9.5 69.5t24 87.5t32.5 92
t35 82.5t31.5 59.5t21.5 23zM233 557q-14 -3 -35.5 -13.5t-42.5 -22.5t-37.5 -22.5t-19.5 -13.5q-11 0 -12.5 3.5t-1.5 7.5t18 23.5t42.5 40.5t49.5 38t39 17q15 0 31 -17t28.5 -38.5t21 -40.5t8.5 -23t-1.5 -7.5t-12.5 -3.5q-4 5 -12.5 14.5t-19 20t-22 21t-21.5 16.5z" />
    <glyph glyph-name="idieresis" unicode="&#xef;" horiz-adv-x="174" 
d="M154 453q31 0 48 -12.5t17 -26.5q0 -19 -12 -41q-19 -35 -39 -78t-37 -87t-29.5 -85.5t-16.5 -71.5q26 1 57.5 21.5t50.5 56.5q4 0 8.5 -2.5t4.5 -7.5q-7 -16 -22.5 -37t-37.5 -40t-47.5 -32.5t-52.5 -13.5q-28 0 -37 14.5t-9 28.5q0 28 9.5 69.5t24 87.5t32.5 92
t35 82.5t31.5 59.5t21.5 23zM286 597q20 0 33.5 -12t13.5 -32t-13.5 -32t-33.5 -12t-34 12t-14 32t14 32t34 12zM170 597q20 0 34 -12t14 -32t-14 -32t-34 -12t-33.5 12t-13.5 32t13.5 32t33.5 12z" />
    <glyph glyph-name="eth" unicode="&#xf0;" 
d="M200 497q-23 -18 -38 -31t-18 -13q-11 0 -19.5 9t-8.5 21q0 2 14 12t35 26q-14 10 -22 20t-8 21q0 4 3.5 11.5t9.5 15t15 12.5t21 5q3 -10 11.5 -21.5t19.5 -25.5q17 13 33 26t29 23t21 16t9 6q23 0 28.5 -11t5.5 -22q0 -2 -8.5 -8t-23 -15.5t-32 -21.5t-35.5 -25
q17 -20 35.5 -41t33.5 -42.5t24.5 -42.5t9.5 -40q0 -22 -3.5 -46.5t-9.5 -50.5q7 4 17 10t21.5 13.5t22.5 16.5t20 19q4 -3 7 -5t3 -10q-8 -12 -20.5 -24t-27 -24t-29.5 -22.5t-28 -17.5q-38 -108 -94 -166t-123 -58q-50 0 -75 31t-25 83q0 69 24 130.5t62 108t85 74.5
t93 30q-7 8 -25.5 19t-39.5 25zM260 385q-11 0 -22.5 -5.5t-21.5 -16.5t-16.5 -28t-6.5 -39q0 -33 12 -46.5t44 -13.5q8 0 18 2.5t19 4.5q12 43 12 82q0 35 -11 47.5t-27 12.5zM272 201q-8 -2 -22 -5t-28 -3q-89 0 -94 82q-7 -11 -13.5 -28.5t-12 -38.5t-9 -43.5t-3.5 -41.5
q0 -36 10.5 -54.5t37.5 -18.5q19 0 38 12t36 32.5t32.5 48t27.5 58.5z" />
    <glyph glyph-name="ntilde" unicode="&#xf1;" horiz-adv-x="355" 
d="M155 453q15 0 26.5 -4.5t19 -11t11.5 -14t4 -12.5q0 -9 -3 -19.5t-7 -18.5q-17 -34 -38.5 -76t-44.5 -103h2q68 122 119 190.5t81 68.5q10 0 22 -3t22 -10t17 -18.5t7 -27.5q0 -12 -6 -27.5t-15 -34t-20 -39t-22 -40.5q-37 -69 -52.5 -111t-15.5 -68q0 -23 20 -23
q10 0 23.5 7.5t27 19t24.5 25.5t17 28q13 0 13 -7q0 -11 -11.5 -32t-32 -42.5t-48.5 -37.5t-60 -16q-24 0 -40.5 15t-16.5 45q0 38 16.5 83t37 87.5t38.5 77.5t21 53q-18 -5 -48 -35.5t-61.5 -72t-57.5 -86t-35 -77.5q-3 -11 -4 -20.5t-1 -17.5q0 -25 -5 -38.5t-24 -13.5
q-27 0 -41 17t-14 29q0 30 10 72t26 87.5t34.5 90.5t36 81t30.5 58t18 22zM201 527q-8 0 -14.5 6.5t-6.5 15.5q0 21 20.5 35t46.5 14q21 0 37 -7.5t30.5 -17t28 -17t30.5 -7.5q20 0 30 11.5t10 25.5q9 0 17 -7.5t8 -18.5q0 -10 -5 -20.5t-14 -19t-21.5 -14t-27.5 -5.5
q-25 0 -41.5 7.5t-30 16.5t-28 16.5t-35.5 7.5q-31 0 -34 -22z" />
    <glyph glyph-name="ograve" unicode="&#xf2;" 
d="M342 316q0 -23 -8 -55q23 13 44 29.5t35 32.5q4 -3 7 -5t3 -10q-14 -19 -40 -43t-60 -43q-14 -39 -36 -79t-51.5 -72.5t-66.5 -53.5t-79 -21q-22 0 -38.5 9.5t-28 25t-17 36t-5.5 43.5q0 70 24 132t61.5 109t81.5 74.5t85 27.5q24 0 40.5 -11t27.5 -29.5t16 -43.5t5 -53z
M222 193q-37 0 -64.5 20.5t-29.5 61.5q-7 -11 -13.5 -28.5t-12 -38.5t-9 -43.5t-3.5 -41.5q0 -36 9.5 -54.5t32.5 -18.5q18 0 38 12.5t39.5 33.5t37 48.5t29.5 57.5q-27 -9 -54 -9zM258 236q13 0 31 5q4 15 6.5 29t2.5 28q0 41 -11.5 64t-37.5 23q-8 0 -18 -5t-18.5 -15
t-14 -23.5t-5.5 -30.5q0 -44 19 -59.5t46 -15.5zM253 606q3 -17 14 -33t23 -30.5t21.5 -26.5t9.5 -20q0 -4 -1.5 -7.5t-12.5 -3.5q-6 7 -22.5 17t-34.5 20t-32 20.5t-14 19.5q0 4 3.5 11.5t9.5 15t15 12.5t21 5z" />
    <glyph glyph-name="oacute" unicode="&#xf3;" 
d="M342 316q0 -23 -8 -55q23 13 44 29.5t35 32.5q4 -3 7 -5t3 -10q-14 -19 -40 -43t-60 -43q-14 -39 -36 -79t-51.5 -72.5t-66.5 -53.5t-79 -21q-22 0 -38.5 9.5t-28 25t-17 36t-5.5 43.5q0 70 24 132t61.5 109t81.5 74.5t85 27.5q24 0 40.5 -11t27.5 -29.5t16 -43.5t5 -53z
M222 193q-37 0 -64.5 20.5t-29.5 61.5q-7 -11 -13.5 -28.5t-12 -38.5t-9 -43.5t-3.5 -41.5q0 -36 9.5 -54.5t32.5 -18.5q18 0 38 12.5t39.5 33.5t37 48.5t29.5 57.5q-27 -9 -54 -9zM258 236q13 0 31 5q4 15 6.5 29t2.5 28q0 41 -11.5 64t-37.5 23q-8 0 -18 -5t-18.5 -15
t-14 -23.5t-5.5 -30.5q0 -44 19 -59.5t46 -15.5zM398 606q23 0 36 -16.5t13 -33.5q0 -10 -23.5 -21t-52.5 -21t-54.5 -18t-30.5 -11q-11 0 -12.5 3.5t-1.5 7.5t15.5 17t36.5 29t42 33.5t32 30.5z" />
    <glyph glyph-name="ocircumflex" unicode="&#xf4;" 
d="M342 316q0 -23 -8 -55q23 13 44 29.5t35 32.5q4 -3 7 -5t3 -10q-14 -19 -40 -43t-60 -43q-14 -39 -36 -79t-51.5 -72.5t-66.5 -53.5t-79 -21q-22 0 -38.5 9.5t-28 25t-17 36t-5.5 43.5q0 70 24 132t61.5 109t81.5 74.5t85 27.5q24 0 40.5 -11t27.5 -29.5t16 -43.5t5 -53z
M222 193q-37 0 -64.5 20.5t-29.5 61.5q-7 -11 -13.5 -28.5t-12 -38.5t-9 -43.5t-3.5 -41.5q0 -36 9.5 -54.5t32.5 -18.5q18 0 38 12.5t39.5 33.5t37 48.5t29.5 57.5q-27 -9 -54 -9zM258 236q13 0 31 5q4 15 6.5 29t2.5 28q0 41 -11.5 64t-37.5 23q-8 0 -18 -5t-18.5 -15
t-14 -23.5t-5.5 -30.5q0 -44 19 -59.5t46 -15.5zM300 557q-14 -3 -35.5 -13.5t-42.5 -22.5t-37.5 -22.5t-19.5 -13.5q-11 0 -12.5 3.5t-1.5 7.5t18 23.5t42.5 40.5t49.5 38t39 17q15 0 31 -17t28.5 -38.5t21 -40.5t8.5 -23t-1.5 -7.5t-12.5 -3.5q-4 5 -12.5 14.5t-19 20
t-22 21t-21.5 16.5z" />
    <glyph glyph-name="otilde" unicode="&#xf5;" 
d="M342 316q0 -23 -8 -55q23 13 44 29.5t35 32.5q4 -3 7 -5t3 -10q-14 -19 -40 -43t-60 -43q-14 -39 -36 -79t-51.5 -72.5t-66.5 -53.5t-79 -21q-22 0 -38.5 9.5t-28 25t-17 36t-5.5 43.5q0 70 24 132t61.5 109t81.5 74.5t85 27.5q24 0 40.5 -11t27.5 -29.5t16 -43.5t5 -53z
M222 193q-37 0 -64.5 20.5t-29.5 61.5q-7 -11 -13.5 -28.5t-12 -38.5t-9 -43.5t-3.5 -41.5q0 -36 9.5 -54.5t32.5 -18.5q18 0 38 12.5t39.5 33.5t37 48.5t29.5 57.5q-27 -9 -54 -9zM258 236q13 0 31 5q4 15 6.5 29t2.5 28q0 41 -11.5 64t-37.5 23q-8 0 -18 -5t-18.5 -15
t-14 -23.5t-5.5 -30.5q0 -44 19 -59.5t46 -15.5zM182 527q-8 0 -14.5 6.5t-6.5 15.5q0 21 20.5 35t46.5 14q21 0 37 -7.5t30.5 -17t28 -17t30.5 -7.5q20 0 30 11.5t10 25.5q9 0 17 -7.5t8 -18.5q0 -10 -5 -20.5t-14 -19t-21.5 -14t-27.5 -5.5q-25 0 -41.5 7.5t-30 16.5
t-28 16.5t-35.5 7.5q-31 0 -34 -22z" />
    <glyph glyph-name="odieresis" unicode="&#xf6;" 
d="M342 316q0 -23 -8 -55q23 13 44 29.5t35 32.5q4 -3 7 -5t3 -10q-14 -19 -40 -43t-60 -43q-14 -39 -36 -79t-51.5 -72.5t-66.5 -53.5t-79 -21q-22 0 -38.5 9.5t-28 25t-17 36t-5.5 43.5q0 70 24 132t61.5 109t81.5 74.5t85 27.5q24 0 40.5 -11t27.5 -29.5t16 -43.5t5 -53z
M222 193q-37 0 -64.5 20.5t-29.5 61.5q-7 -11 -13.5 -28.5t-12 -38.5t-9 -43.5t-3.5 -41.5q0 -36 9.5 -54.5t32.5 -18.5q18 0 38 12.5t39.5 33.5t37 48.5t29.5 57.5q-27 -9 -54 -9zM258 236q13 0 31 5q4 15 6.5 29t2.5 28q0 41 -11.5 64t-37.5 23q-8 0 -18 -5t-18.5 -15
t-14 -23.5t-5.5 -30.5q0 -44 19 -59.5t46 -15.5zM371 597q20 0 33.5 -12t13.5 -32t-13.5 -32t-33.5 -12t-34 12t-14 32t14 32t34 12zM255 597q20 0 34 -12t14 -32t-14 -32t-34 -12t-33.5 12t-13.5 32t13.5 32t33.5 12z" />
    <glyph glyph-name="divide" unicode="&#xf7;" horiz-adv-x="277" 
d="M221 408q23 0 39.5 -14.5t16.5 -37.5t-16.5 -37.5t-39.5 -14.5t-39.5 14.5t-16.5 37.5t16.5 37.5t39.5 14.5zM77 201q-15 0 -24 6.5t-9 13.5q0 6 16 9.5t55 3.5q14 0 43.5 -2t59.5 -6t52.5 -8.5t22.5 -8.5q0 -17 -5 -30t-18 -13q-6 0 -28 5.5t-50.5 12t-59.5 12t-55 5.5z
M105 136q23 0 39.5 -14.5t16.5 -37.5t-16.5 -37.5t-39.5 -14.5t-39.5 14.5t-16.5 37.5t16.5 37.5t39.5 14.5z" />
    <glyph glyph-name="oslash" unicode="&#xf8;" 
d="M36 17q-17 15 -26 39t-9 54q0 70 25 132t63 109t84 74.5t87 27.5q29 0 52 -17q35 56 55.5 86.5t25.5 30.5q14 0 23 -4t9 -12q0 -5 -24 -36.5t-67 -90.5q11 -20 11 -49q0 -22 -3.5 -46.5t-9.5 -50.5q7 4 17 10t21.5 13.5t22.5 16.5t20 19q4 -3 7 -5t3 -10
q-8 -12 -20.5 -24t-27 -24t-29.5 -22.5t-28 -17.5q-38 -108 -94 -166t-123 -58q-22 0 -38 6q-29 -49 -47.5 -76.5t-25.5 -27.5q-8 0 -15 3t-7 10q0 5 18 32t50 74zM199 259q22 34 41.5 64.5t36.5 57.5q-7 4 -17 4q-11 0 -22.5 -5.5t-21.5 -16.5t-16.5 -28t-6.5 -39
q0 -24 6 -37zM295 356q-18 -26 -38 -54t-41 -60q12 -6 33 -6q8 0 18 2.5t19 4.5q12 43 12 82q0 17 -3 31zM91 98q34 51 73 108q-33 21 -36 69q-7 -11 -13.5 -28.5t-12 -38.5t-9 -43.5t-3.5 -41.5v-13t1 -12zM186 197q-24 -36 -45 -69.5t-39 -62.5q12 -15 36 -15q19 0 38 12
t36 32.5t32.5 48t27.5 58.5q-8 -2 -22 -5t-28 -3q-21 0 -36 4z" />
    <glyph glyph-name="ugrave" unicode="&#xf9;" horiz-adv-x="362" 
d="M93 97q0 -17 8.5 -25t17.5 -8q16 0 35 20t38 52t37.5 72t35.5 79t30.5 73.5t23.5 55.5q8 17 17 27t19 10q15 0 26.5 -4.5t19 -11t11.5 -14t4 -12.5q0 -9 -4.5 -22t-18.5 -38q-14 -26 -33.5 -67t-37 -84.5t-29.5 -84t-12 -67.5q31 1 65.5 22t57.5 59q6 0 9.5 -2t3.5 -10
q-13 -20 -31.5 -41.5t-40.5 -39t-48 -29t-54 -11.5q-13 0 -27.5 10t-14.5 33t7.5 49t18.5 53h-2q-13 -24 -29.5 -50t-36 -47t-43 -34.5t-49.5 -13.5q-9 0 -20 3.5t-20 12.5t-15.5 24t-6.5 38q0 35 10.5 77t27 84t36.5 81.5t38 70t32.5 48.5t20.5 18q31 0 46 -14t15 -28
t-5 -25.5t-21 -33.5q-14 -19 -33 -47.5t-36.5 -63t-30 -71.5t-12.5 -73zM268 598q3 -17 14 -33t23 -30.5t21.5 -26.5t9.5 -20q0 -4 -1.5 -7.5t-12.5 -3.5q-6 7 -22.5 17t-34.5 20t-32 20.5t-14 19.5q0 4 3.5 11.5t9.5 15t15 12.5t21 5z" />
    <glyph glyph-name="uacute" unicode="&#xfa;" horiz-adv-x="362" 
d="M93 97q0 -17 8.5 -25t17.5 -8q16 0 35 20t38 52t37.5 72t35.5 79t30.5 73.5t23.5 55.5q8 17 17 27t19 10q15 0 26.5 -4.5t19 -11t11.5 -14t4 -12.5q0 -9 -4.5 -22t-18.5 -38q-14 -26 -33.5 -67t-37 -84.5t-29.5 -84t-12 -67.5q31 1 65.5 22t57.5 59q6 0 9.5 -2t3.5 -10
q-13 -20 -31.5 -41.5t-40.5 -39t-48 -29t-54 -11.5q-13 0 -27.5 10t-14.5 33t7.5 49t18.5 53h-2q-13 -24 -29.5 -50t-36 -47t-43 -34.5t-49.5 -13.5q-9 0 -20 3.5t-20 12.5t-15.5 24t-6.5 38q0 35 10.5 77t27 84t36.5 81.5t38 70t32.5 48.5t20.5 18q31 0 46 -14t15 -28
t-5 -25.5t-21 -33.5q-14 -19 -33 -47.5t-36.5 -63t-30 -71.5t-12.5 -73zM387 607q23 0 36 -16.5t13 -33.5q0 -10 -23.5 -21t-52.5 -21t-54.5 -18t-30.5 -11q-11 0 -12.5 3.5t-1.5 7.5t15.5 17t36.5 29t42 33.5t32 30.5z" />
    <glyph glyph-name="ucircumflex" unicode="&#xfb;" horiz-adv-x="362" 
d="M93 97q0 -17 8.5 -25t17.5 -8q16 0 35 20t38 52t37.5 72t35.5 79t30.5 73.5t23.5 55.5q8 17 17 27t19 10q15 0 26.5 -4.5t19 -11t11.5 -14t4 -12.5q0 -9 -4.5 -22t-18.5 -38q-14 -26 -33.5 -67t-37 -84.5t-29.5 -84t-12 -67.5q31 1 65.5 22t57.5 59q6 0 9.5 -2t3.5 -10
q-13 -20 -31.5 -41.5t-40.5 -39t-48 -29t-54 -11.5q-13 0 -27.5 10t-14.5 33t7.5 49t18.5 53h-2q-13 -24 -29.5 -50t-36 -47t-43 -34.5t-49.5 -13.5q-9 0 -20 3.5t-20 12.5t-15.5 24t-6.5 38q0 35 10.5 77t27 84t36.5 81.5t38 70t32.5 48.5t20.5 18q31 0 46 -14t15 -28
t-5 -25.5t-21 -33.5q-14 -19 -33 -47.5t-36.5 -63t-30 -71.5t-12.5 -73zM330 557q-14 -3 -35.5 -13.5t-42.5 -22.5t-37.5 -22.5t-19.5 -13.5q-11 0 -12.5 3.5t-1.5 7.5t18 23.5t42.5 40.5t49.5 38t39 17q15 0 31 -17t28.5 -38.5t21 -40.5t8.5 -23t-1.5 -7.5t-12.5 -3.5
q-4 5 -12.5 14.5t-19 20t-22 21t-21.5 16.5z" />
    <glyph glyph-name="udieresis" unicode="&#xfc;" horiz-adv-x="362" 
d="M93 97q0 -17 8.5 -25t17.5 -8q16 0 35 20t38 52t37.5 72t35.5 79t30.5 73.5t23.5 55.5q8 17 17 27t19 10q15 0 26.5 -4.5t19 -11t11.5 -14t4 -12.5q0 -9 -4.5 -22t-18.5 -38q-14 -26 -33.5 -67t-37 -84.5t-29.5 -84t-12 -67.5q31 1 65.5 22t57.5 59q6 0 9.5 -2t3.5 -10
q-13 -20 -31.5 -41.5t-40.5 -39t-48 -29t-54 -11.5q-13 0 -27.5 10t-14.5 33t7.5 49t18.5 53h-2q-13 -24 -29.5 -50t-36 -47t-43 -34.5t-49.5 -13.5q-9 0 -20 3.5t-20 12.5t-15.5 24t-6.5 38q0 35 10.5 77t27 84t36.5 81.5t38 70t32.5 48.5t20.5 18q31 0 46 -14t15 -28
t-5 -25.5t-21 -33.5q-14 -19 -33 -47.5t-36.5 -63t-30 -71.5t-12.5 -73zM382 597q20 0 33.5 -12t13.5 -32t-13.5 -32t-33.5 -12t-34 12t-14 32t14 32t34 12zM266 597q20 0 34 -12t14 -32t-14 -32t-34 -12t-33.5 12t-13.5 32t13.5 32t33.5 12z" />
    <glyph glyph-name="yacute" unicode="&#xfd;" horiz-adv-x="366" 
d="M66 -4q-9 0 -20 3.5t-20 12.5t-15.5 24t-6.5 38q0 35 10.5 77t26.5 84t35.5 81.5t38 70t32.5 48.5t20 18q31 0 46 -14.5t15 -33.5q0 -17 -13 -35q-19 -26 -40.5 -58t-40 -68t-30.5 -73.5t-12 -73.5q0 -17 8.5 -25t17.5 -8q16 0 35 20t38 52t37.5 72t35.5 79t30.5 73.5
t23.5 55.5q8 17 17 27t19 10q15 0 26.5 -4.5t19 -11t11.5 -14t4 -12.5q0 -9 -5 -22.5t-19 -40.5q-9 -17 -21.5 -44.5t-26 -59.5t-27 -66.5t-25.5 -65.5t-21.5 -55.5t-14.5 -36.5q19 9 40 20.5t41 25.5t37.5 30.5t29.5 35.5q13 0 13 -16q-13 -22 -32.5 -41.5t-43 -37t-50 -32
t-51.5 -25.5q-20 -47 -40 -88t-41 -72t-42.5 -49t-44.5 -18q-35 0 -51 18.5t-16 37.5q0 33 15 60.5t37.5 49t48.5 36.5t47 24l15.5 31t24 49t22.5 49.5t12 32.5h-2q-13 -24 -29.5 -50t-36 -47t-43 -34.5t-49.5 -13.5zM132 -61q-33 -16 -55.5 -43.5t-22.5 -51.5q0 -7 5 -7
q15 11 35 38.5t38 63.5zM418 615q23 0 36 -16.5t13 -33.5q0 -10 -23.5 -21t-52.5 -21t-54.5 -18t-30.5 -11q-11 0 -12.5 3.5t-1.5 7.5t15.5 17t36.5 29t42 33.5t32 30.5z" />
    <glyph glyph-name="thorn" unicode="&#xfe;" horiz-adv-x="424" 
d="M346 693q15 0 26.5 -4.5t19 -11t11.5 -14t4 -12.5q0 -9 -3 -19.5t-8 -18.5q-6 -11 -23.5 -32.5t-42 -51t-54 -66.5t-58.5 -80t-55 -90.5t-45 -98.5h2q31 58 61 105.5t60 81.5t61 53t64 19q11 0 25 -4t26.5 -16t21 -34.5t8.5 -58.5q0 -55 -21 -115.5t-56.5 -111.5t-82 -84
t-96.5 -33q-37 0 -53.5 17.5t-16.5 46.5q0 19 8.5 35.5t21.5 29.5t28.5 20.5t30.5 7.5q4 0 9.5 -4.5t9 -12t3.5 -17.5t-7 -20q-31 8 -55.5 -1t-24.5 -32q0 -29 38 -29q30 0 61 27t56.5 68.5t41.5 90.5t16 94q0 21 -4 34t-9.5 20.5t-11 10.5t-8.5 3q-22 0 -53.5 -27.5
t-64 -68.5t-62 -88t-48.5 -86q-11 -30 -22.5 -68.5t-20.5 -80.5t-15 -83.5t-6 -77.5q0 -25 -5 -38.5t-24 -13.5q-27 0 -41 17t-14 29q0 84 24.5 182.5t63 198t85.5 192t91 164t80 114.5t53 43z" />
    <glyph glyph-name="ydieresis" unicode="&#xff;" horiz-adv-x="366" 
d="M66 -4q-9 0 -20 3.5t-20 12.5t-15.5 24t-6.5 38q0 35 10.5 77t26.5 84t35.5 81.5t38 70t32.5 48.5t20 18q31 0 46 -14.5t15 -33.5q0 -17 -13 -35q-19 -26 -40.5 -58t-40 -68t-30.5 -73.5t-12 -73.5q0 -17 8.5 -25t17.5 -8q16 0 35 20t38 52t37.5 72t35.5 79t30.5 73.5
t23.5 55.5q8 17 17 27t19 10q15 0 26.5 -4.5t19 -11t11.5 -14t4 -12.5q0 -9 -5 -22.5t-19 -40.5q-9 -17 -21.5 -44.5t-26 -59.5t-27 -66.5t-25.5 -65.5t-21.5 -55.5t-14.5 -36.5q19 9 40 20.5t41 25.5t37.5 30.5t29.5 35.5q13 0 13 -16q-13 -22 -32.5 -41.5t-43 -37t-50 -32
t-51.5 -25.5q-20 -47 -40 -88t-41 -72t-42.5 -49t-44.5 -18q-35 0 -51 18.5t-16 37.5q0 33 15 60.5t37.5 49t48.5 36.5t47 24l15.5 31t24 49t22.5 49.5t12 32.5h-2q-13 -24 -29.5 -50t-36 -47t-43 -34.5t-49.5 -13.5zM132 -61q-33 -16 -55.5 -43.5t-22.5 -51.5q0 -7 5 -7
q15 11 35 38.5t38 63.5zM395 597q20 0 33.5 -12t13.5 -32t-13.5 -32t-33.5 -12t-34 12t-14 32t14 32t34 12zM279 597q20 0 34 -12t14 -32t-14 -32t-34 -12t-33.5 12t-13.5 32t13.5 32t33.5 12z" />
    <glyph glyph-name="Abreve" unicode="&#x102;" horiz-adv-x="541" 
d="M561 539q-13 -23 -31 -63.5t-34 -92t-27 -109t-11 -113.5q32 16 49.5 35.5t17.5 35.5q0 13 -10.5 20.5t-28.5 7.5q0 17 12.5 28.5t28.5 11.5q11 0 22 -10t11 -30q0 -32 -25 -67t-77 -60q1 -72 18 -104.5t63 -32.5q0 -8 -4.5 -18t-12.5 -18.5t-18 -14.5t-20 -6
q-31 0 -50.5 15t-30 39t-14 54t-3.5 61q-23 -5 -47.5 -8t-53.5 -3q-15 0 -28.5 2t-25.5 5q-57 -64 -123 -105t-149 -41t-123 39t-40 98q0 25 8 43t21 30t28 17.5t30 5.5q29 0 39 -15t10 -32q-12 0 -25.5 -3.5t-25 -12t-19 -23t-7.5 -36.5q0 -15 5 -29.5t15.5 -25.5t27.5 -18
t40 -7q55 0 110.5 45t109.5 116q-11 11 -20.5 29.5t-9.5 37.5q0 20 7.5 40.5t22.5 37.5t39 28t57 11q8 0 16.5 -1.5t14.5 -3.5q41 59 85 113.5t90 96t94 66.5t98 25q31 0 50.5 -14t19.5 -34q0 -18 -11 -29t-26 -11q-13 0 -23 9t-10 24q-26 0 -49.5 -9.5t-46.5 -26.5z
M493 477q-15 -18 -31 -40.5t-31.5 -47t-30.5 -49t-30 -46.5q14 -11 25.5 -24t21.5 -27q4 29 13 62t20.5 65t23.5 60t21 47h-2zM241 258q-12 1 -24 -1t-21.5 -8.5t-16 -17.5t-6.5 -26q0 -5 3 -13.5t7 -14.5q14 20 29 40t29 41zM253 130q25 -5 54 -5q43 0 79 9q0 35 -19 58.5
t-41 36.5q-17 -24 -36 -50t-37 -49zM726 778q0 -23 -7 -44.5t-20.5 -38.5t-34.5 -27t-49 -10q-30 0 -51 20t-21 49q0 10 9 17.5t24 7.5t24 -2.5t9 -10.5q0 -18 6 -30t23 -12q27 0 43.5 19t16.5 59q0 3 4 6.5t10 3.5q4 0 9 -1.5t5 -5.5z" />
    <glyph glyph-name="abreve" unicode="&#x103;" horiz-adv-x="356" 
d="M197 37q0 23 7.5 50t18.5 54h-2q-13 -24 -29.5 -50t-36 -47t-43 -34.5t-49.5 -13.5q-9 0 -20 2.5t-20 11t-15.5 23.5t-6.5 41q0 35 12 77t32 84t46.5 81.5t56.5 70t61 48.5t60 18q26 0 36.5 -16.5t10.5 -41.5h2q11 28 22 43t15 15q15 0 26.5 -4.5t19 -11t11.5 -14
t4 -12.5q0 -9 -5 -23t-23 -43q-13 -21 -32 -60.5t-37 -84t-30.5 -86.5t-12.5 -69q32 5 61.5 25.5t53.5 60.5q12 0 12 -9q-4 -12 -18.5 -33t-36 -41.5t-50 -36t-59.5 -15.5q-17 0 -29.5 10.5t-12.5 30.5zM115 66q14 0 33 17.5t39.5 46t40 63t35 69t25 64.5t9.5 49
q0 12 -5.5 16t-11.5 4q-16 0 -36.5 -15t-42 -40t-41.5 -56.5t-36 -64.5t-25.5 -65t-9.5 -57q0 -17 7.5 -24t18.5 -7zM419 611q0 -23 -7 -44.5t-20.5 -38.5t-34.5 -27t-49 -10q-30 0 -51 20t-21 49q0 10 9 17.5t24 7.5t24 -2.5t9 -10.5q0 -18 6 -30t23 -12q27 0 43.5 19
t16.5 59q0 3 4 6.5t10 3.5q4 0 9 -1.5t5 -5.5z" />
    <glyph glyph-name="Dcroat" unicode="&#x110;" horiz-adv-x="781" 
d="M296 267q-19 0 -30 8.5t-11 16.5t20 12t68 4h11q10 24 19.5 50.5t17.5 44.5q29 74 57 124t55 83q-5 1 -10.5 1h-10.5q-42 0 -83 -18t-68.5 -47t-34 -65t20.5 -72q13 -18 14.5 -36t-5 -32t-18.5 -20t-25 -1t-24.5 25t-16.5 59q-7 51 12.5 94.5t58.5 75t94 49.5t119 18h5
q33 32 63 42t55 10q32 0 43.5 -6t11.5 -14q0 -6 -6.5 -9t-28.5 -3q-12 0 -28.5 -5t-36.5 -26q34 -10 70.5 -32.5t67 -57t50 -79.5t19.5 -100q0 -76 -22 -136t-59.5 -104.5t-87.5 -75.5t-105 -50.5t-112 -28t-110 -8.5q-48 0 -83.5 4t-61.5 10q-66 -28 -139 -28
q-20 0 -36.5 6t-28 16t-18 22.5t-6.5 25.5q0 20 21 34t58 14q20 0 37 -4t33.5 -10t32.5 -13.5t33 -14.5q22 14 45.5 39.5t46.5 57.5t45 70t42 77q-20 3 -40 3zM471 368q-6 -17 -12 -33.5t-13 -31.5q23 -2 38.5 -6t15.5 -9q0 -20 -6 -36.5t-22 -16.5q-7 0 -20 3.5t-32 8.5
q-47 -96 -99 -157t-98 -90q11 -2 23 -3t26 -1q72 0 147 21t136.5 67t101 117t39.5 172q0 41 -10.5 76t-27.5 62.5t-39 48t-45 31.5q-22 -32 -47.5 -85.5t-55.5 -137.5z" />
    <glyph glyph-name="dcroat" unicode="&#x111;" horiz-adv-x="370" 
d="M344 508q-19 0 -30.5 6.5t-11.5 13.5q0 5 19 8t66 4q16 28 34.5 55t35.5 49t32.5 37t27.5 20q30 12 55.5 5.5t36.5 -21.5q21 -29 22.5 -52t-6.5 -36.5t-20.5 -15.5t-19.5 10q-4 6 -11 7.5t-14.5 -0.5t-15 -6.5t-11.5 -9.5q-2 -1 -6 -6.5t-9 -12.5t-10 -14.5t-9 -12.5
q23 -2 39 -4.5t16 -6.5q0 -17 -6.5 -29.5t-22.5 -12.5q-7 0 -21 2.5t-34 7.5l-10.5 -17.5t-8.5 -15t-8.5 -16.5l-10.5 -21q-12 -21 -26.5 -52.5t-30 -68.5t-30.5 -76t-27 -73.5t-19 -62.5t-7 -42q28 1 59.5 23.5t54.5 58.5q5 0 9 -2t4 -7q-12 -21 -29.5 -43.5t-38.5 -40.5
t-45 -29.5t-51 -11.5q-26 0 -38 15.5t-12 31.5q0 30 6.5 55.5t11.5 42.5h-2q-13 -26 -30 -51.5t-37 -46.5t-43 -34t-48 -13q-10 0 -21 4.5t-20.5 13.5t-15.5 23t-6 32q0 41 13 85.5t34 87.5t49 81t57.5 67t59.5 46t56 17t36.5 -14.5t10.5 -37.5h3q7 16 12.5 29.5t11 25.5
t11.5 24.5t14 26.5q-6 1 -12 1h-12zM297 375q0 12 -5.5 16t-11.5 4q-15 0 -35.5 -15t-41.5 -39.5t-41.5 -55.5t-36.5 -64.5t-26 -65.5t-10 -58q0 -17 8.5 -25t16.5 -8q14 0 33.5 18t40 46.5t40 64t35 70t25 64.5t9.5 48z" />
    <glyph glyph-name="Itilde" unicode="&#x128;" horiz-adv-x="415" 
d="M477 589q20 32 44 42t40 10q17 0 27 -11.5t10 -24.5q0 -21 -8.5 -37.5t-21 -28.5t-27 -20.5t-25.5 -13.5q-26 -40 -48 -97t-46 -118.5t-54 -122t-72 -108.5t-100 -77.5t-139 -29.5q-42 0 -73 12.5t-51.5 33t-31 47.5t-10.5 56q0 25 8 43.5t21 30.5t28 18t30 6
q14 0 23.5 -4.5t15 -11.5t8 -16t2.5 -17q-12 0 -25 -3t-24.5 -11t-18.5 -22t-7 -36q0 -15 6 -31.5t18.5 -31t33 -23.5t49.5 -9q56 0 97 27.5t71 72.5t53 101.5t44.5 115.5t44 114t51.5 97q-8 2 -30.5 13t-52 23t-60.5 22t-56 10q-66 0 -94 -26t-28 -64q0 -33 33 -56t90 -23
q0 -22 -16 -42t-37 -20q-15 0 -33.5 7t-34.5 21.5t-27 36.5t-11 52q0 36 14.5 69t41.5 58t66 40t87 15q40 0 74 -8.5t60.5 -19t44.5 -20t26 -10.5zM389 707q-8 0 -14.5 6.5t-6.5 15.5q0 21 20.5 35t46.5 14q21 0 37 -7.5t30.5 -17t28 -17t30.5 -7.5q20 0 30 11.5t10 25.5
q9 0 17 -7.5t8 -18.5q0 -10 -5 -20.5t-14 -19t-21.5 -14t-27.5 -5.5q-25 0 -41.5 7.5t-30 16.5t-28 16.5t-35.5 7.5q-31 0 -34 -22z" />
    <glyph glyph-name="itilde" unicode="&#x129;" horiz-adv-x="174" 
d="M154 453q31 0 49 -12.5t18 -26.5q0 -9 -5.5 -22t-20.5 -40q-14 -27 -31.5 -66t-34 -81t-28.5 -83t-16 -71q26 1 57.5 21.5t50.5 56.5q4 0 8.5 -2.5t4.5 -7.5q-7 -16 -22.5 -37t-37.5 -40t-47.5 -32.5t-52.5 -13.5q-28 0 -37 14.5t-9 28.5q0 28 9.5 69.5t24 87.5t32.5 92
t35 82.5t31.5 59.5t21.5 23zM110 519q-8 0 -14.5 6.5t-6.5 15.5q0 21 20.5 35t46.5 14q21 0 37 -7.5t30.5 -17t28 -17t30.5 -7.5q20 0 30 11.5t10 25.5q9 0 17 -7.5t8 -18.5q0 -10 -5 -20.5t-14 -19t-21.5 -14t-27.5 -5.5q-25 0 -41.5 7.5t-30 16.5t-28 16.5t-35.5 7.5
q-31 0 -34 -22z" />
    <glyph glyph-name="dotlessi" unicode="&#x131;" horiz-adv-x="174" 
d="M154 453q31 0 48 -12.5t17 -26.5q0 -19 -12 -41q-19 -35 -39 -78t-37 -87t-29.5 -85.5t-16.5 -71.5q26 1 57.5 21.5t50.5 56.5q4 0 8.5 -2.5t4.5 -7.5q-7 -16 -22.5 -37t-37.5 -40t-47.5 -32.5t-52.5 -13.5q-28 0 -37 14.5t-9 28.5q0 28 9.5 69.5t24 87.5t32.5 92
t35 82.5t31.5 59.5t21.5 23z" />
    <glyph glyph-name="Lslash" unicode="&#x141;" horiz-adv-x="446" 
d="M235 241q-60 -23 -99.5 -39t-49.5 -16q-6 0 -8.5 10t-2.5 17q0 3 13 8t36 12.5t54.5 17.5t68.5 22q17 45 33.5 90.5t35.5 90.5q-44 17 -60 48.5t-16 66.5q0 23 8 38.5t18.5 24.5t20.5 13t15 4q20 0 35.5 -13t15.5 -35q-20 0 -35.5 -16t-15.5 -39q0 -14 5.5 -31t24.5 -29
q23 43 48 81t52.5 66t58.5 44t66 16q18 0 35 -3.5t29.5 -12t20.5 -23.5t8 -38q0 -35 -18.5 -64.5t-48 -52t-66.5 -37t-74 -19.5q-11 -31 -22 -59.5t-22 -55.5q35 14 65 27t53.5 23.5t38 17t17.5 6.5q8 0 13 -12t5 -20q0 -4 -16.5 -11t-45 -17t-65.5 -22t-79 -25
q-40 -96 -81 -163t-92 -108q42 -47 73.5 -87t56.5 -69t46.5 -45.5t44.5 -16.5q17 0 26.5 10t9.5 26q0 66 -112 66q0 30 13 48t42 18q18 0 35.5 -8.5t31 -23.5t21.5 -34.5t8 -40.5q0 -33 -13 -54t-32.5 -33t-42 -17t-40.5 -5q-34 0 -61.5 10.5t-57 35.5t-65.5 66t-85 102
q-48 -14 -104 -14q-72 0 -112.5 29t-40.5 80q0 21 9.5 39t25 31t36 20t42.5 7q43 0 89 -17.5t102 -67.5q23 33 41.5 74.5t35.5 87.5zM460 479q34 7 63.5 20t51 30t34 38t12.5 43q0 14 -9 21t-24 7q-35 0 -65.5 -45t-62.5 -114zM81 6q-35 36 -70.5 56t-62.5 20q-24 0 -33 -10
t-9 -22q0 -21 25 -41t76 -20q40 0 74 17z" />
    <glyph glyph-name="lslash" unicode="&#x142;" horiz-adv-x="173" 
d="M16 138q-38 -34 -62.5 -55t-29.5 -21t-12.5 6.5t-7.5 14.5q0 5 35.5 32.5t89.5 69.5q15 50 35 107t43.5 113.5t49 108.5t50 91.5t47.5 63.5t42 24q10 0 23 -3.5t24.5 -10t19.5 -15t8 -17.5q0 -45 -18.5 -88.5t-47 -82.5t-63 -72.5t-65.5 -57.5q-5 -9 -11.5 -25t-14.5 -36
q31 28 58.5 54t48 46.5t34 33t16.5 12.5q9 0 18.5 -8.5t9.5 -15.5q0 -4 -17 -19t-45 -37.5t-64.5 -51.5t-75.5 -60q-9 -27 -17.5 -55t-15.5 -53.5t-11 -47.5t-4 -35q31 1 66 22t58 59q8 0 10 -3t2 -8q-13 -21 -31.5 -42.5t-41 -39t-48 -29t-52.5 -11.5q-19 0 -34.5 11.5
t-15.5 35.5q0 32 17 95zM207 412q16 11 35 34.5t35.5 49.5t28 50t11.5 36q-5 -1 -18.5 -18t-30 -42t-33 -54.5t-28.5 -55.5z" />
    <glyph glyph-name="OE" unicode="&#x152;" horiz-adv-x="759" 
d="M631 259q-4 -9 -7 -17.5t-8 -17.5q16 6 39 6q39 0 68 -26.5t29 -68.5t-18.5 -76.5t-51.5 -59t-77.5 -38t-95.5 -13.5q-47 0 -83 10t-62 28q-70 -28 -137 -28q-99 0 -154.5 55t-55.5 169q0 60 18 117.5t49.5 108.5t75 94t93.5 73.5t105.5 48t111.5 17.5q36 0 67 -8.5
t56 -27.5q36 18 75.5 27t76.5 9q31 0 55.5 -8t42 -21.5t27 -30.5t9.5 -36q0 -40 -28.5 -66.5t-74.5 -43.5q-1 -36 -14.5 -66.5t-38.5 -55.5q-5 -18 -24.5 -31.5t-54.5 -18.5zM279 16q12 0 24.5 1t24.5 3q-36 46 -36 112q0 48 22 90t61 74q-35 29 -55.5 73t-20.5 101
q0 23 12 52q-35 -25 -65.5 -60t-54 -80t-37 -100t-13.5 -119q0 -43 12 -71.5t31.5 -45t44.5 -23.5t50 -7zM572 150q-26 -38 -59 -68.5t-69 -54.5q33 -41 89 -41q41 0 74 11.5t56 30.5t35.5 44.5t12.5 52.5q0 29 -14.5 43.5t-33.5 14.5q-20 0 -34.5 -13t-14.5 -30
q-25 0 -42 10zM589 248q-14 -2 -28.5 -3.5t-29.5 -1.5q-46 0 -84 13q-17 -25 -26.5 -55t-9.5 -65q0 -46 15 -80q53 30 95 79t68 113zM744 585q-49 0 -88 -19q50 -2 80.5 -31t37.5 -74q24 12 38.5 29t14.5 40q0 31 -25.5 43t-57.5 12zM513 569q-38 0 -67.5 -30.5t-31.5 -88.5
q20 -12 45 -17q5 42 25 75t49 59q-5 1 -10 1.5t-10 0.5zM650 515q5 -19 7.5 -39t3.5 -43q20 2 39 5.5t36 8.5q-6 31 -28 48.5t-58 19.5zM718 351q9 15 14.5 33t5.5 39v1q-18 -5 -37.5 -8.5t-39.5 -5.5q0 -8 -0.5 -15.5t-1.5 -15.5q44 -5 59 -28zM606 505q-14 -8 -23 -18
q-5 -14 -8.5 -28t-5.5 -31q13 0 26 0.5t26 1.5q-2 23 -6 41.5t-9 33.5zM415 421q5 -50 28 -82q7 4 14 7t15 6q-12 26 -13 55q-23 5 -44 14zM657 358q-2 -12 -4.5 -23t-4.5 -22q32 0 41.5 9t9.5 14q0 20 -42 22zM571 376q11 2 23.5 2.5t24.5 1.5q1 6 1.5 12.5t0.5 13.5
q-27 -3 -53 -3q0 -15 3 -27zM582 349q13 -20 29 -28q5 18 6 35q-8 -2 -17 -3.5t-18 -3.5zM487 300q10 -5 20 -9.5t21 -6.5q-18 12 -29 25z" />
    <glyph glyph-name="oe" unicode="&#x153;" horiz-adv-x="542" 
d="M266 109q-35 -55 -76 -84t-89 -29q-50 0 -75 31t-25 83q0 70 25 132t63 109t84 74.5t87 27.5q15 0 30.5 -5.5t27.5 -17t19.5 -28.5t7.5 -41q0 -7 -0.5 -14.5t-1.5 -15.5q42 56 94 89t98 33q19 0 34.5 -7t27 -18.5t17.5 -25t6 -26.5q0 -38 -18.5 -66t-51.5 -47.5t-79 -31
t-100 -15.5q-20 -46 -20 -93q0 -40 19 -56t51 -16q27 0 50.5 8t42.5 21t32.5 28.5t20.5 29.5q6 0 10.5 -9t4.5 -12q-15 -30 -38.5 -52.5t-51.5 -37.5t-59 -23t-61 -8q-47 0 -76 28.5t-30 84.5zM528 403q-11 0 -30 -13.5t-40.5 -36t-42 -51.5t-33.5 -60q30 6 59 20t51 33.5
t35.5 42.5t13.5 47q0 9 -4.5 13.5t-8.5 4.5zM260 385q-11 0 -22.5 -5.5t-21.5 -16.5t-16.5 -28t-6.5 -39q0 -32 12.5 -47.5t44.5 -15.5h10.5t12.5 1q7 1 15 2q6 22 8 46t2 43q0 35 -11 47.5t-27 12.5zM279 208q-7 -1 -15 -2q-7 -1 -14.5 -1.5t-14.5 -0.5q-44 0 -74.5 18
t-32.5 53q-7 -11 -13.5 -28.5t-12 -38.5t-9 -43.5t-3.5 -41.5q0 -36 10.5 -54.5t37.5 -18.5q19 0 39 13t38.5 35t35 50.5t28.5 59.5z" />
    <glyph glyph-name="Scaron" unicode="&#x160;" horiz-adv-x="478" 
d="M144 405q-73 11 -115.5 41.5t-42.5 71.5q0 23 8.5 37.5t20 23t22.5 11.5t16 3q17 0 27 -8.5t10 -30.5q-20 0 -38 -12t-18 -38q0 -24 25.5 -45.5t78.5 -30.5q-1 7 -1.5 14.5t-0.5 15.5q0 37 23 70t59.5 58t81.5 40t89 15q42 0 71 -8t47 -21.5t26.5 -30.5t8.5 -36
q0 -33 -21 -58t-57 -42.5t-85 -28t-105 -14.5q17 -12 36.5 -23t39.5 -24q57 -37 90.5 -80.5t33.5 -96.5q0 -48 -18.5 -84.5t-48.5 -63.5t-67.5 -44.5t-75 -28t-72.5 -15t-59 -4.5q-73 0 -122.5 19t-79.5 47.5t-43 62.5t-13 64q0 33 15 59t38.5 44t52.5 27.5t57 9.5
q29 0 39 -15t10 -32q-31 0 -58.5 -8t-48 -23t-32.5 -36.5t-12 -48.5q0 -15 8 -38.5t28.5 -46t56 -38.5t91.5 -16q36 0 77 10t76 32.5t58 58t23 86.5q0 27 -9.5 48t-24.5 38t-34 31l-38 28q-43 31 -68 53t-36 51zM251 423q46 2 90 9.5t78 21t54.5 32.5t20.5 44q0 31 -26.5 43
t-68.5 12q-35 0 -64.5 -10t-51.5 -27t-34.5 -39.5t-12.5 -48.5q0 -19 15 -37zM410 736q17 3 39 13.5t42 22.5t35.5 22.5t18.5 13.5q11 0 12.5 -3.5t1.5 -7.5q0 -5 -18 -24t-42.5 -40t-49.5 -38t-39 -17q-15 0 -31 17t-28.5 38.5t-21 40.5t-8.5 23t1.5 7.5t12.5 3.5
q4 -5 12.5 -14.5t19 -20t22 -21t21.5 -16.5z" />
    <glyph glyph-name="scaron" unicode="&#x161;" horiz-adv-x="282" 
d="M71 318q0 32 16 57t39.5 42.5t49 26.5t43.5 9q29 0 53.5 -17.5t24.5 -53.5q0 -30 -17.5 -50t-41 -34t-46.5 -23.5t-34 -16.5q6 -5 23.5 -10t36 -16t33 -30t14.5 -50q0 -19 -9 -35t-22.5 -28.5t-28 -21.5t-24.5 -14v-2q31 7 68 31.5t60 60.5q14 0 14 -13
q-17 -28 -41 -52.5t-54 -42.5t-65.5 -28.5t-76.5 -10.5q-32 0 -54.5 9t-36.5 21.5t-20.5 25.5t-6.5 20q0 10 5 23.5t14 25.5t22 20.5t30 8.5q10 0 15 -10.5t9.5 -24t9.5 -26t14 -17.5q15 2 33 13t34 26t27 31t11 27q0 24 -19 38t-41.5 28t-41.5 32t-19 51zM148 265
q41 23 58.5 45t17.5 45q0 29 -28 29q-12 0 -25 -5t-23.5 -13t-17.5 -20t-7 -25q0 -14 5.5 -28.5t19.5 -27.5zM253 543q17 3 39 13.5t42 22.5t35.5 22.5t18.5 13.5q11 0 12.5 -3.5t1.5 -7.5q0 -5 -18 -24t-42.5 -40t-49.5 -38t-39 -17q-15 0 -31 17t-28.5 38.5t-21 40.5
t-8.5 23t1.5 7.5t12.5 3.5q4 -5 12.5 -14.5t19 -20t22 -21t21.5 -16.5z" />
    <glyph glyph-name="Utilde" unicode="&#x168;" horiz-adv-x="577" 
d="M296 506q0 30 -5.5 56t-18.5 46t-34.5 31.5t-52.5 11.5q-35 0 -66 -11.5t-54 -32t-36 -49t-13 -63.5q0 -22 4 -41t13.5 -33t25 -22t38.5 -8q19 0 35 10t26.5 26t16.5 36t6 39q20 0 35.5 -10.5t15.5 -29.5q0 -24 -12 -46t-32 -39t-45.5 -27t-52.5 -10q-29 0 -50.5 11.5
t-35 31t-20 45t-6.5 53.5q0 42 17.5 80t48.5 66.5t72.5 45t88.5 16.5q53 0 88 -18.5t56 -46.5t30 -61t9 -63q0 -40 -15 -76t-37.5 -70.5t-48.5 -68.5t-48.5 -68.5t-37.5 -71.5t-15 -78q0 -40 17 -58.5t43 -18.5q38 0 71 31t63.5 83t59 119t58 138t60 141.5t64.5 129.5
q3 2 14.5 5.5t27.5 3.5q17 0 32 -8.5t15 -27.5q0 -7 -1 -12.5t-3.5 -11.5t-7 -14t-10.5 -20q-50 -90 -86 -168t-59.5 -141t-35 -109.5t-11.5 -72.5q0 -7 4.5 -11.5t10.5 -4.5q29 0 56.5 24t57.5 65q5 0 8.5 -3t3.5 -8q-13 -23 -31 -44.5t-39.5 -39t-45.5 -28t-49 -10.5
q-58 0 -58 59q0 30 7 60.5t12 45.5h-2q-17 -40 -38 -77t-48.5 -65.5t-61 -45.5t-73.5 -17q-29 0 -50 11.5t-35 31t-20.5 45.5t-6.5 56q0 43 14.5 79t36.5 69t47.5 63.5t47.5 61.5t36.5 63.5t14.5 69.5zM426 729q-8 0 -14.5 6.5t-6.5 15.5q0 21 20.5 35t46.5 14q21 0 37 -7.5
t30.5 -17t28 -17t30.5 -7.5q20 0 30 11.5t10 25.5q9 0 17 -7.5t8 -18.5q0 -10 -5 -20.5t-14 -19t-21.5 -14t-27.5 -5.5q-25 0 -41.5 7.5t-30 16.5t-28 16.5t-35.5 7.5q-31 0 -34 -22z" />
    <glyph glyph-name="utilde" unicode="&#x169;" horiz-adv-x="362" 
d="M93 97q0 -17 8.5 -25t17.5 -8q16 0 35 20t38 52t37.5 72t35.5 79t30.5 73.5t23.5 55.5q8 17 17 27t19 10q15 0 26.5 -4.5t19 -11t11.5 -14t4 -12.5q0 -9 -4.5 -22t-18.5 -38q-14 -26 -33.5 -67t-37 -84.5t-29.5 -84t-12 -67.5q31 1 65.5 22t57.5 59q6 0 9.5 -2t3.5 -10
q-13 -20 -31.5 -41.5t-40.5 -39t-48 -29t-54 -11.5q-13 0 -27.5 10t-14.5 33t7.5 49t18.5 53h-2q-13 -24 -29.5 -50t-36 -47t-43 -34.5t-49.5 -13.5q-9 0 -20 3.5t-20 12.5t-15.5 24t-6.5 38q0 35 10.5 77t27 84t36.5 81.5t38 70t32.5 48.5t20.5 18q31 0 46 -14t15 -28
t-5 -25.5t-21 -33.5q-14 -19 -33 -47.5t-36.5 -63t-30 -71.5t-12.5 -73zM188 527q-8 0 -14.5 6.5t-6.5 15.5q0 21 20.5 35t46.5 14q21 0 37 -7.5t30.5 -17t28 -17t30.5 -7.5q20 0 30 11.5t10 25.5q9 0 17 -7.5t8 -18.5q0 -10 -5 -20.5t-14 -19t-21.5 -14t-27.5 -5.5
q-25 0 -41.5 7.5t-30 16.5t-28 16.5t-35.5 7.5q-31 0 -34 -22z" />
    <glyph glyph-name="Ydieresis" unicode="&#x178;" horiz-adv-x="597" 
d="M451 148q-23 -36 -47 -68.5t-52.5 -57.5t-62 -39.5t-73.5 -14.5q-22 0 -42 8.5t-35 24.5t-23.5 39.5t-8.5 54.5q0 40 13 76.5t33 70.5t42.5 66.5t42.5 64.5t33 65t13 68q0 30 -5.5 56t-18.5 46t-34.5 31.5t-52.5 11.5q-35 0 -66 -11.5t-54 -32t-36 -49t-13 -63.5
q0 -22 4 -41t13.5 -33t25 -22t38.5 -8q19 0 35 10t26.5 26t16.5 36t6 39q20 0 35.5 -10.5t15.5 -29.5q0 -24 -12 -46t-32 -39t-45.5 -27t-52.5 -10q-29 0 -50.5 11.5t-35 31t-20 45t-6.5 53.5q0 42 17.5 80t48.5 66.5t72.5 45t88.5 16.5q53 0 88 -18.5t56 -46.5t30 -61
t9 -63q0 -45 -13.5 -83.5t-34 -74t-44 -68.5t-44 -66t-34 -68t-13.5 -74q0 -36 17.5 -47.5t35.5 -11.5q43 0 81 28t71 71.5t62 96t53 101.5q12 23 27 60t33.5 80.5t40 88.5t44.5 85q8 13 21.5 18t21.5 5q22 0 36 -11.5t14 -28.5q0 -11 -3 -22.5t-15 -31.5
q-47 -78 -85.5 -165.5t-76.5 -174t-79.5 -165.5t-94 -139.5t-119 -96.5t-155.5 -36q-42 0 -73 12.5t-51.5 33t-31 47.5t-10.5 56q0 25 8 43.5t21 30.5t28 18t30 6q14 0 23.5 -4.5t15 -11.5t8 -16t2.5 -17q-12 0 -25 -3t-24.5 -11t-18.5 -22t-7 -36q0 -15 6 -31.5t18.5 -31
t33 -23.5t49.5 -9q63 0 110.5 26t85.5 72t70 110t62 139h-2zM588 793q20 0 33.5 -12t13.5 -32t-13.5 -32t-33.5 -12t-34 12t-14 32t14 32t34 12zM472 793q20 0 34 -12t14 -32t-14 -32t-34 -12t-33.5 12t-13.5 32t13.5 32t33.5 12z" />
    <glyph glyph-name="Zcaron" unicode="&#x17d;" horiz-adv-x="488" 
d="M220 584q-30 0 -53 -7t-38.5 -18t-23 -24.5t-7.5 -26.5q0 -14 9.5 -27.5t27 -24t42 -16.5t55.5 -4q0 -17 -6 -30.5t-16 -24t-21.5 -16t-21.5 -5.5q-15 0 -33.5 7t-34.5 21.5t-27 36.5t-11 52q0 36 14.5 69t40 58t61.5 40t79 15q35 0 64.5 -11.5t55.5 -26t50.5 -26
t50.5 -11.5q24 0 42.5 7.5t32.5 17t23.5 17t14.5 7.5q7 0 16 -3t17.5 -9t14.5 -16.5t6 -25.5q0 -12 -24 -37t-63.5 -57.5t-91 -71t-106.5 -79t-109 -80t-99 -74.5t-77 -63t-43 -45q10 7 28 17.5t40 20.5t46.5 17.5t48.5 7.5q36 0 61.5 -15.5t46 -33.5t39.5 -33.5t42 -15.5
q16 0 34.5 7t36.5 20t35 31t31 40q6 0 11.5 -4t5.5 -10q-18 -27 -43.5 -56t-54.5 -53t-60 -39t-60 -15q-22 0 -39 11.5t-33.5 25t-33.5 25t-39 11.5q-23 0 -45 -9t-41.5 -20.5t-36 -20.5t-27.5 -9q-8 0 -18 4t-18.5 13.5t-14.5 25t-6 37.5q0 20 37.5 55.5t96 80t129 93.5
t136 97t117 91t72.5 74q-20 -12 -41 -21q-18 -8 -40 -14t-42 -6q-34 0 -62 13t-53.5 28t-49 28t-47.5 13zM455 773q17 3 39 13.5t42 22.5t35.5 22.5t18.5 13.5q11 0 12.5 -3.5t1.5 -7.5q0 -5 -18 -24t-42.5 -40t-49.5 -38t-39 -17q-15 0 -31 17t-28.5 38.5t-21 40.5t-8.5 23
t1.5 7.5t12.5 3.5q4 -5 12.5 -14.5t19 -20t22 -21t21.5 -16.5z" />
    <glyph glyph-name="zcaron" unicode="&#x17e;" horiz-adv-x="300" 
d="M274 366q-3 -1 -7 -2q-3 -1 -6.5 -1h-6.5q-11 0 -23 4t-24 9t-24 9t-23 4q-25 0 -31.5 -11.5t-6.5 -30.5q-32 0 -42.5 12.5t-10.5 29.5q0 32 25 51.5t67 19.5q18 0 34 -4.5t32.5 -9.5t33.5 -9.5t37 -4.5t32 -10.5t12 -27.5q0 -20 -21 -44.5t-53 -51.5t-69 -56t-69 -57.5
t-53 -56t-21 -51.5q6 5 15.5 10t20 9t20.5 6.5t16 2.5q12 0 26 -7.5t27.5 -16t26 -16t22.5 -7.5q13 0 39 13t46 45q4 0 8 -3t4 -13q-11 -17 -29.5 -36t-38 -35t-38.5 -26.5t-31 -10.5q-17 0 -33 11t-35 11q-3 0 -11.5 -2t-18.5 -4.5t-21.5 -4.5t-20.5 -2q-8 0 -18.5 5.5
t-20 17t-16 28t-6.5 38.5q0 23 20.5 49t51.5 52.5t67 52.5t67.5 49t53.5 42t25 31zM276 551q17 3 39 13.5t42 22.5t35.5 22.5t18.5 13.5q11 0 12.5 -3.5t1.5 -7.5q0 -5 -18 -24t-42.5 -40t-49.5 -38t-39 -17q-15 0 -31 17t-28.5 38.5t-21 40.5t-8.5 23t1.5 7.5t12.5 3.5
q4 -5 12.5 -14.5t19 -20t22 -21t21.5 -16.5z" />
    <glyph glyph-name="florin" unicode="&#x192;" horiz-adv-x="539" 
d="M239 218q27 -5 53 -9.5t45.5 -9t31.5 -8t12 -6.5q0 -17 -5 -30t-18 -13q-7 0 -46.5 11t-92.5 23q-41 -86 -77.5 -160.5t-81.5 -129t-106 -85.5t-152 -31q-42 0 -73 12.5t-51.5 33t-31 47.5t-10.5 56q0 25 8 43.5t21 30.5t28 18t30 6q14 0 23.5 -4.5t15 -11.5t8 -16
t2.5 -17q-12 0 -25 -3t-24.5 -11t-18.5 -22t-7 -36q0 -15 6 -31.5t18.5 -31t33 -23.5t49.5 -9q63 0 108 32t80.5 86t65.5 125.5t65 150.5q-35 6 -67 6q-15 0 -24 6.5t-9 13.5q0 6 16 9.5t55 3.5q18 0 45 -3q12 26 24.5 51.5t26.5 51.5q-45 12 -75 40t-30 66q0 18 6.5 30
t15 19t17 9.5t13.5 2.5q17 0 27 -8.5t10 -30.5q-20 0 -30.5 -8t-10.5 -28q0 -19 14.5 -37.5t52.5 -30.5q30 64 73 116t94.5 89t109 57.5t117.5 20.5q59 0 93.5 -19.5t34.5 -54.5q0 -34 -20 -64.5t-54 -56.5t-78 -46.5t-91.5 -36t-95.5 -25.5t-89 -13q-15 -27 -28.5 -54z
M611 595q-35 0 -79 -22t-87.5 -56.5t-81 -78t-58.5 -86.5q55 6 115 26t109.5 48t81.5 62t32 69q0 14 -7.5 26t-24.5 12z" />
    <glyph glyph-name="Ohorn" unicode="&#x1a0;" horiz-adv-x="678" 
d="M623 711q22 16 37.5 7.5t24.5 -27.5t11.5 -42.5t-2.5 -38.5q-6 -17 -27 -25t-43 -12q2 -2 3 -4t3 -4t5 -8.5t6 -14.5t5.5 -15.5t3.5 -11.5q5 -21 8 -44.5t3 -50.5q0 -17 -2.5 -39t-6.5 -45t-9.5 -43.5t-11.5 -33.5q-26 -68 -69.5 -123.5t-96.5 -95t-112 -61t-114 -21.5
q-56 0 -98 17.5t-69.5 48t-41 71t-13.5 87.5q0 60 18 117.5t49.5 108.5t75 94t93.5 73.5t105.5 48t111.5 17.5q41 0 75.5 -11t60.5 -35q7 -1 15.5 0t16.5 8q11 7 3.5 25.5t-22.5 34.5q-8 8 -8.5 16.5t2.5 15.5q4 8 10 16zM589 248q-14 -2 -28.5 -3.5t-29.5 -1.5
q-48 0 -90.5 15.5t-74 44.5t-49.5 71.5t-18 95.5q0 23 12 52q-35 -25 -65.5 -60t-54 -80t-37 -100t-13.5 -119q0 -43 12 -71.5t31.5 -45t44.5 -23.5t50 -7q48 0 94.5 16.5t87.5 46.5t74 73t54 96zM609 501q-15 26 -38 47t-58 21q-39 0 -69 -32t-30 -95q0 -40 12 -70
t32.5 -50.5t47.5 -30.5t58 -10q20 0 38 3q9 30 14 62.5t5 67.5q0 29 -2.5 49.5t-9.5 37.5z" />
    <glyph glyph-name="ohorn" unicode="&#x1a1;" 
d="M342 316q0 -23 -8 -55q23 13 44 29.5t35 32.5q4 -3 7 -5t3 -10q-14 -19 -40 -43t-60 -43q-14 -39 -36 -79t-51.5 -72.5t-66.5 -53.5t-79 -21q-22 0 -38.5 9.5t-28 25t-17 36t-5.5 43.5q0 70 24 132t61.5 109t81.5 74.5t85 27.5q28 0 46.5 -15t29.5 -41q8 2 12 5
q10 6 3.5 21.5t-20.5 29.5q-7 6 -7 13t2 13q3 7 9 14q19 13 33 6t22 -23t9.5 -36t-2.5 -32q-5 -13 -21.5 -20t-33.5 -10q7 -27 7 -62zM222 193q-37 0 -64.5 20.5t-29.5 61.5q-7 -11 -13.5 -28.5t-12 -38.5t-9 -43.5t-3.5 -41.5q0 -36 9.5 -54.5t32.5 -18.5q18 0 38 12.5
t39.5 33.5t37 48.5t29.5 57.5q-27 -9 -54 -9zM258 236q13 0 31 5q4 15 6.5 29t2.5 28q0 41 -11.5 64t-37.5 23q-8 0 -18 -5t-18.5 -15t-14 -23.5t-5.5 -30.5q0 -44 19 -59.5t46 -15.5z" />
    <glyph glyph-name="Uhorn" unicode="&#x1af;" horiz-adv-x="577" 
d="M296 506q0 30 -5.5 56t-18.5 46t-34.5 31.5t-52.5 11.5q-35 0 -66 -11.5t-54 -32t-36 -49t-13 -63.5q0 -22 4 -41t13.5 -33t25 -22t38.5 -8q19 0 35 10t26.5 26t16.5 36t6 39q20 0 35.5 -10.5t15.5 -29.5q0 -24 -12 -46t-32 -39t-45.5 -27t-52.5 -10q-29 0 -50.5 11.5
t-35 31t-20 45t-6.5 53.5q0 42 17.5 80t48.5 66.5t72.5 45t88.5 16.5q53 0 88 -18.5t56 -46.5t30 -61t9 -63q0 -40 -15 -76t-37.5 -70.5t-48.5 -68.5t-48.5 -68.5t-37.5 -71.5t-15 -78q0 -40 17 -58.5t43 -18.5q38 0 71 31t63.5 83t59 119t58 138t60 141.5t64.5 129.5
q3 2 14.5 5.5t27.5 3.5q17 0 32 -8.5t15 -27.5q0 -6 -1 -9q7 1 14 7q11 7 3.5 25.5t-22.5 34.5q-8 8 -8.5 16.5t2.5 15.5q4 8 10 16q22 16 37.5 7.5t24.5 -27.5t11.5 -42.5t-2.5 -38.5q-7 -19 -31 -27t-47 -11q-2 -5 -5 -11t-8 -14q-50 -90 -86 -168t-59.5 -141t-35 -109.5
t-11.5 -72.5q0 -7 4.5 -11.5t10.5 -4.5q29 0 56.5 24t57.5 65q5 0 8.5 -3t3.5 -8q-13 -23 -31 -44.5t-39.5 -39t-45.5 -28t-49 -10.5q-58 0 -58 59q0 30 7 60.5t12 45.5h-2q-17 -40 -38 -77t-48.5 -65.5t-61 -45.5t-73.5 -17q-29 0 -50 11.5t-35 31t-20.5 45.5t-6.5 56
q0 43 14.5 79t36.5 69t47.5 63.5t47.5 61.5t36.5 63.5t14.5 69.5z" />
    <glyph glyph-name="uhorn" unicode="&#x1b0;" horiz-adv-x="362" 
d="M421 493q19 13 33 6t22 -23t9.5 -36t-2.5 -32q-3 -9 -12 -15t-20.5 -9.5t-23.5 -5.5t-22 -3l-12 -24q-14 -26 -33.5 -67t-37 -84.5t-29.5 -84t-12 -67.5q31 1 65.5 22t57.5 59q6 0 9.5 -2t3.5 -10q-13 -20 -31.5 -41.5t-40.5 -39t-48 -29t-54 -11.5q-13 0 -27.5 10
t-14.5 33t7.5 49t18.5 53h-2q-13 -24 -29.5 -50t-36 -47t-43 -34.5t-49.5 -13.5q-9 0 -20 3.5t-20 12.5t-15.5 24t-6.5 38q0 35 10.5 77t27 84t36.5 81.5t38 70t32.5 48.5t20.5 18q31 0 46 -14t15 -28t-5 -25.5t-21 -33.5q-14 -19 -33 -47.5t-36.5 -63t-30 -71.5t-12.5 -73
q0 -17 8.5 -25t17.5 -8q16 0 35 20t38 52t37.5 72t35.5 79t30.5 73.5t23.5 55.5q8 17 17 27t19 10q42 0 53 -17t4 -41q11 0 22 7q10 6 3.5 21.5t-20.5 29.5q-7 6 -7 13t2 13q3 7 9 14z" />
    <glyph glyph-name="circumflex" unicode="&#x2c6;" 
d="M329 557q-14 -3 -35.5 -13.5t-42.5 -22.5t-37.5 -22.5t-19.5 -13.5q-11 0 -12.5 3.5t-1.5 7.5t18 23.5t42.5 40.5t49.5 38t39 17q15 0 31 -17t28.5 -38.5t21 -40.5t8.5 -23t-1.5 -7.5t-12.5 -3.5q-4 5 -12.5 14.5t-19 20t-22 21t-21.5 16.5z" />
    <glyph glyph-name="caron" unicode="&#x2c7;" horiz-adv-x="300" 
d="M273 551q17 3 39 13.5t42 22.5t35.5 22.5t18.5 13.5q11 0 12.5 -3.5t1.5 -7.5q0 -5 -18 -24t-42.5 -40t-49.5 -38t-39 -17q-15 0 -31 17t-28.5 38.5t-21 40.5t-8.5 23t1.5 7.5t12.5 3.5q4 -5 12.5 -14.5t19 -20t22 -21t21.5 -16.5z" />
    <glyph glyph-name="breve" unicode="&#x2d8;" horiz-adv-x="356" 
d="M482 611q0 -23 -7 -44.5t-20.5 -38.5t-34.5 -27t-49 -10q-30 0 -51 20t-21 49q0 10 9 17.5t24 7.5t24 -2.5t9 -10.5q0 -18 6 -30t23 -12q27 0 43.5 19t16.5 59q0 3 4 6.5t10 3.5q4 0 9 -1.5t5 -5.5z" />
    <glyph glyph-name="dotaccent" unicode="&#x2d9;" horiz-adv-x="174" 
d="M241 570q22 0 37.5 -13.5t15.5 -35.5t-15.5 -35.5t-37.5 -13.5t-37.5 13.5t-15.5 35.5t15.5 35.5t37.5 13.5z" />
    <glyph glyph-name="ring" unicode="&#x2da;" horiz-adv-x="356" 
d="M299 560q0 26 10.5 48.5t27.5 38.5t38.5 25t43.5 9q28 0 45.5 -19t17.5 -51q0 -23 -7 -44.5t-20.5 -38.5t-34.5 -27t-49 -10q-30 0 -51 20t-21 49zM427 636q-22 0 -42 -17.5t-20 -46.5q0 -18 6 -30t23 -12q27 0 43.5 18t16.5 52q0 18 -8 27t-19 9z" />
    <glyph glyph-name="ogonek" unicode="&#x2db;" 
d="M182 -114q-3 17 -14 33t-23 30.5t-21.5 26.5t-9.5 20q0 4 1.5 7.5t12.5 3.5q6 -8 22.5 -17.5t34.5 -19.5t32 -20.5t14 -19.5q0 -5 -3.5 -12t-9.5 -14.5t-15 -12.5t-21 -5z" />
    <glyph glyph-name="tilde" unicode="&#x2dc;" 
d="M206 527q-8 0 -14.5 6.5t-6.5 15.5q0 21 20.5 35t46.5 14q21 0 37 -7.5t30.5 -17t28 -17t30.5 -7.5q20 0 30 11.5t10 25.5q9 0 17 -7.5t8 -18.5q0 -10 -5 -20.5t-14 -19t-21.5 -14t-27.5 -5.5q-25 0 -41.5 7.5t-30 16.5t-28 16.5t-35.5 7.5q-31 0 -34 -22z" />
    <glyph glyph-name="hungarumlaut" unicode="&#x2dd;" horiz-adv-x="536" 
d="M394 638q23 0 36 -16.5t13 -33.5q0 -10 -23.5 -21t-52.5 -21t-54.5 -18t-30.5 -11q-11 0 -12.5 3.5t-1.5 7.5t15.5 17t36.5 29t42 33.5t32 30.5zM502 614q23 0 36 -16.5t13 -33.5q0 -10 -23.5 -21t-52.5 -21t-54.5 -18t-30.5 -11q-11 0 -12.5 3.5t-1.5 7.5t15.5 17
t36.5 29t42 33.5t32 30.5z" />
    <glyph glyph-name="hookabovecomb" unicode="&#x309;" horiz-adv-x="174" 
d="M94 372q-8 1 -13 8t-3 18q3 22 21.5 44t45.5 39q8 7 16 13.5t15 21.5q2 4 3 11.5t-1.5 15t-9 13.5t-18.5 8q-10 1 -19 -4t-16.5 -13.5t-12.5 -18t-6 -16.5q-15 -3 -24 0.5t-14.5 10t-7 14.5t-0.5 14q1 10 7.5 21t18 19t27.5 12.5t36 2.5q13 -2 27 -8t24.5 -16.5t16 -25
t1.5 -32.5q-3 -15 -7.5 -24.5t-10.5 -16t-13 -12t-14 -12.5q-15 -10 -23.5 -23.5t-10.5 -26.5q-3 -24 -13.5 -31.5t-21.5 -5.5z" />
    <glyph glyph-name="dotbelowcomb" unicode="&#x323;" horiz-adv-x="174" 
d="M61 -39q22 0 37.5 -13.5t15.5 -35.5t-15.5 -35.5t-37.5 -13.5t-37.5 13.5t-15.5 35.5t15.5 35.5t37.5 13.5z" />
    <glyph glyph-name="uni1EA0" unicode="&#x1ea0;" horiz-adv-x="541" 
d="M561 539q-13 -23 -31 -63.5t-34 -92t-27 -109t-11 -113.5q32 16 49.5 35.5t17.5 35.5q0 13 -10.5 20.5t-28.5 7.5q0 17 12.5 28.5t28.5 11.5q11 0 22 -10t11 -30q0 -32 -25 -67t-77 -60q1 -72 18 -104.5t63 -32.5q0 -8 -4.5 -18t-12.5 -18.5t-18 -14.5t-20 -6
q-31 0 -50.5 15t-30 39t-14 54t-3.5 61q-23 -5 -47.5 -8t-53.5 -3q-15 0 -28.5 2t-25.5 5q-57 -64 -123 -105t-149 -41t-123 39t-40 98q0 25 8 43t21 30t28 17.5t30 5.5q29 0 39 -15t10 -32q-12 0 -25.5 -3.5t-25 -12t-19 -23t-7.5 -36.5q0 -15 5 -29.5t15.5 -25.5t27.5 -18
t40 -7q55 0 110.5 45t109.5 116q-11 11 -20.5 29.5t-9.5 37.5q0 20 7.5 40.5t22.5 37.5t39 28t57 11q8 0 16.5 -1.5t14.5 -3.5q41 59 85 113.5t90 96t94 66.5t98 25q31 0 50.5 -14t19.5 -34q0 -18 -11 -29t-26 -11q-13 0 -23 9t-10 24q-26 0 -49.5 -9.5t-46.5 -26.5z
M493 477q-15 -18 -31 -40.5t-31.5 -47t-30.5 -49t-30 -46.5q14 -11 25.5 -24t21.5 -27q4 29 13 62t20.5 65t23.5 60t21 47h-2zM241 258q-12 1 -24 -1t-21.5 -8.5t-16 -17.5t-6.5 -26q0 -5 3 -13.5t7 -14.5q14 20 29 40t29 41zM253 130q25 -5 54 -5q43 0 79 9q0 35 -19 58.5
t-41 36.5q-17 -24 -36 -50t-37 -49zM271 -83q22 0 37.5 -13.5t15.5 -35.5t-15.5 -35.5t-37.5 -13.5t-37.5 13.5t-15.5 35.5t15.5 35.5t37.5 13.5z" />
    <glyph glyph-name="uni1EA1" unicode="&#x1ea1;" horiz-adv-x="356" 
d="M197 37q0 23 7.5 50t18.5 54h-2q-13 -24 -29.5 -50t-36 -47t-43 -34.5t-49.5 -13.5q-9 0 -20 2.5t-20 11t-15.5 23.5t-6.5 41q0 35 12 77t32 84t46.5 81.5t56.5 70t61 48.5t60 18q26 0 36.5 -16.5t10.5 -41.5h2q11 28 22 43t15 15q15 0 26.5 -4.5t19 -11t11.5 -14
t4 -12.5q0 -9 -5 -23t-23 -43q-13 -21 -32 -60.5t-37 -84t-30.5 -86.5t-12.5 -69q32 5 61.5 25.5t53.5 60.5q12 0 12 -9q-4 -12 -18.5 -33t-36 -41.5t-50 -36t-59.5 -15.5q-17 0 -29.5 10.5t-12.5 30.5zM115 66q14 0 33 17.5t39.5 46t40 63t35 69t25 64.5t9.5 49
q0 12 -5.5 16t-11.5 4q-16 0 -36.5 -15t-42 -40t-41.5 -56.5t-36 -64.5t-25.5 -65t-9.5 -57q0 -17 7.5 -24t18.5 -7zM156 -39q22 0 37.5 -13.5t15.5 -35.5t-15.5 -35.5t-37.5 -13.5t-37.5 13.5t-15.5 35.5t15.5 35.5t37.5 13.5z" />
    <glyph glyph-name="uni1EA2" unicode="&#x1ea2;" horiz-adv-x="541" 
d="M561 539q-13 -23 -31 -63.5t-34 -92t-27 -109t-11 -113.5q32 16 49.5 35.5t17.5 35.5q0 13 -10.5 20.5t-28.5 7.5q0 17 12.5 28.5t28.5 11.5q11 0 22 -10t11 -30q0 -32 -25 -67t-77 -60q1 -72 18 -104.5t63 -32.5q0 -8 -4.5 -18t-12.5 -18.5t-18 -14.5t-20 -6
q-31 0 -50.5 15t-30 39t-14 54t-3.5 61q-23 -5 -47.5 -8t-53.5 -3q-15 0 -28.5 2t-25.5 5q-57 -64 -123 -105t-149 -41t-123 39t-40 98q0 25 8 43t21 30t28 17.5t30 5.5q29 0 39 -15t10 -32q-12 0 -25.5 -3.5t-25 -12t-19 -23t-7.5 -36.5q0 -15 5 -29.5t15.5 -25.5t27.5 -18
t40 -7q55 0 110.5 45t109.5 116q-11 11 -20.5 29.5t-9.5 37.5q0 20 7.5 40.5t22.5 37.5t39 28t57 11q8 0 16.5 -1.5t14.5 -3.5q41 59 85 113.5t90 96t94 66.5t98 25q31 0 50.5 -14t19.5 -34q0 -18 -11 -29t-26 -11q-13 0 -23 9t-10 24q-26 0 -49.5 -9.5t-46.5 -26.5z
M493 477q-15 -18 -31 -40.5t-31.5 -47t-30.5 -49t-30 -46.5q14 -11 25.5 -24t21.5 -27q4 29 13 62t20.5 65t23.5 60t21 47h-2zM241 258q-12 1 -24 -1t-21.5 -8.5t-16 -17.5t-6.5 -26q0 -5 3 -13.5t7 -14.5q14 20 29 40t29 41zM253 130q25 -5 54 -5q43 0 79 9q0 35 -19 58.5
t-41 36.5q-17 -24 -36 -50t-37 -49zM658 686q-8 1 -13 8t-3 18q3 22 21.5 44t45.5 39q8 7 16 13.5t15 21.5q2 4 3 11.5t-1.5 15t-9 13.5t-18.5 8q-10 1 -19 -4t-16.5 -13.5t-12.5 -18t-6 -16.5q-15 -3 -24 0.5t-14.5 10t-7 14.5t-0.5 14q1 10 7.5 21t18 19t27.5 12.5t36 2.5
q13 -2 27 -8t24.5 -16.5t16 -25t1.5 -32.5q-3 -15 -7.5 -24.5t-10.5 -16t-13 -12t-14 -12.5q-15 -10 -23.5 -23.5t-10.5 -26.5q-3 -24 -13.5 -31.5t-21.5 -5.5z" />
    <glyph glyph-name="uni1EA3" unicode="&#x1ea3;" horiz-adv-x="356" 
d="M197 37q0 23 7.5 50t18.5 54h-2q-13 -24 -29.5 -50t-36 -47t-43 -34.5t-49.5 -13.5q-9 0 -20 2.5t-20 11t-15.5 23.5t-6.5 41q0 35 12 77t32 84t46.5 81.5t56.5 70t61 48.5t60 18q26 0 36.5 -16.5t10.5 -41.5h2q11 28 22 43t15 15q15 0 26.5 -4.5t19 -11t11.5 -14
t4 -12.5q0 -9 -5 -23t-23 -43q-13 -21 -32 -60.5t-37 -84t-30.5 -86.5t-12.5 -69q32 5 61.5 25.5t53.5 60.5q12 0 12 -9q-4 -12 -18.5 -33t-36 -41.5t-50 -36t-59.5 -15.5q-17 0 -29.5 10.5t-12.5 30.5zM115 66q14 0 33 17.5t39.5 46t40 63t35 69t25 64.5t9.5 49
q0 12 -5.5 16t-11.5 4q-16 0 -36.5 -15t-42 -40t-41.5 -56.5t-36 -64.5t-25.5 -65t-9.5 -57q0 -17 7.5 -24t18.5 -7zM337 508q-8 1 -13 8t-3 18q3 22 21.5 44t45.5 39q8 7 16 13.5t15 21.5q2 4 3 11.5t-1.5 15t-9 13.5t-18.5 8q-10 1 -19 -4t-16.5 -13.5t-12.5 -18t-6 -16.5
q-15 -3 -24 0.5t-14.5 10t-7 14.5t-0.5 14q1 10 7.5 21t18 19t27.5 12.5t36 2.5q13 -2 27 -8t24.5 -16.5t16 -25t1.5 -32.5q-3 -15 -7.5 -24.5t-10.5 -16t-13 -12t-14 -12.5q-15 -10 -23.5 -23.5t-10.5 -26.5q-3 -24 -13.5 -31.5t-21.5 -5.5z" />
    <glyph glyph-name="uni1EA4" unicode="&#x1ea4;" horiz-adv-x="541" 
d="M561 539q-13 -23 -31 -63.5t-34 -92t-27 -109t-11 -113.5q32 16 49.5 35.5t17.5 35.5q0 13 -10.5 20.5t-28.5 7.5q0 17 12.5 28.5t28.5 11.5q11 0 22 -10t11 -30q0 -32 -25 -67t-77 -60q1 -72 18 -104.5t63 -32.5q0 -8 -4.5 -18t-12.5 -18.5t-18 -14.5t-20 -6
q-31 0 -50.5 15t-30 39t-14 54t-3.5 61q-23 -5 -47.5 -8t-53.5 -3q-15 0 -28.5 2t-25.5 5q-57 -64 -123 -105t-149 -41t-123 39t-40 98q0 25 8 43t21 30t28 17.5t30 5.5q29 0 39 -15t10 -32q-12 0 -25.5 -3.5t-25 -12t-19 -23t-7.5 -36.5q0 -15 5 -29.5t15.5 -25.5t27.5 -18
t40 -7q55 0 110.5 45t109.5 116q-11 11 -20.5 29.5t-9.5 37.5q0 20 7.5 40.5t22.5 37.5t39 28t57 11q8 0 16.5 -1.5t14.5 -3.5q41 59 85 113.5t90 96t94 66.5t98 25q31 0 50.5 -14t19.5 -34q0 -18 -11 -29t-26 -11q-13 0 -23 9t-10 24q-26 0 -49.5 -9.5t-46.5 -26.5z
M493 477q-15 -18 -31 -40.5t-31.5 -47t-30.5 -49t-30 -46.5q14 -11 25.5 -24t21.5 -27q4 29 13 62t20.5 65t23.5 60t21 47h-2zM241 258q-12 1 -24 -1t-21.5 -8.5t-16 -17.5t-6.5 -26q0 -5 3 -13.5t7 -14.5q14 20 29 40t29 41zM253 130q25 -5 54 -5q43 0 79 9q0 35 -19 58.5
t-41 36.5q-17 -24 -36 -50t-37 -49zM670 726q-14 -3 -35.5 -13.5t-42.5 -22.5t-37.5 -22.5t-19.5 -13.5q-11 0 -12.5 3.5t-1.5 7.5t18 23.5t42.5 40.5t49.5 38t39 17q15 0 31 -17t28.5 -38.5t21 -40.5t8.5 -23t-1.5 -7.5t-12.5 -3.5q-4 5 -12.5 14.5t-19 20t-22 21
t-21.5 16.5zM702 909q23 0 36 -16.5t13 -33.5q0 -10 -23.5 -21t-52.5 -21t-54.5 -18t-30.5 -11q-11 0 -12.5 3.5t-1.5 7.5t15.5 17t36.5 29t42 33.5t32 30.5z" />
    <glyph glyph-name="uni1EA5" unicode="&#x1ea5;" horiz-adv-x="356" 
d="M197 37q0 23 7.5 50t18.5 54h-2q-13 -24 -29.5 -50t-36 -47t-43 -34.5t-49.5 -13.5q-9 0 -20 2.5t-20 11t-15.5 23.5t-6.5 41q0 35 12 77t32 84t46.5 81.5t56.5 70t61 48.5t60 18q26 0 36.5 -16.5t10.5 -41.5h2q11 28 22 43t15 15q15 0 26.5 -4.5t19 -11t11.5 -14
t4 -12.5q0 -9 -5 -23t-23 -43q-13 -21 -32 -60.5t-37 -84t-30.5 -86.5t-12.5 -69q32 5 61.5 25.5t53.5 60.5q12 0 12 -9q-4 -12 -18.5 -33t-36 -41.5t-50 -36t-59.5 -15.5q-17 0 -29.5 10.5t-12.5 30.5zM115 66q14 0 33 17.5t39.5 46t40 63t35 69t25 64.5t9.5 49
q0 12 -5.5 16t-11.5 4q-16 0 -36.5 -15t-42 -40t-41.5 -56.5t-36 -64.5t-25.5 -65t-9.5 -57q0 -17 7.5 -24t18.5 -7zM379 557q-14 -3 -35.5 -13.5t-42.5 -22.5t-37.5 -22.5t-19.5 -13.5q-11 0 -12.5 3.5t-1.5 7.5t18 23.5t42.5 40.5t49.5 38t39 17q15 0 31 -17t28.5 -38.5
t21 -40.5t8.5 -23t-1.5 -7.5t-12.5 -3.5q-4 5 -12.5 14.5t-19 20t-22 21t-21.5 16.5zM429 737q23 0 36 -16.5t13 -33.5q0 -10 -23.5 -21t-52.5 -21t-54.5 -18t-30.5 -11q-11 0 -12.5 3.5t-1.5 7.5t15.5 17t36.5 29t42 33.5t32 30.5z" />
    <glyph glyph-name="uni1EA6" unicode="&#x1ea6;" horiz-adv-x="541" 
d="M561 539q-13 -23 -31 -63.5t-34 -92t-27 -109t-11 -113.5q32 16 49.5 35.5t17.5 35.5q0 13 -10.5 20.5t-28.5 7.5q0 17 12.5 28.5t28.5 11.5q11 0 22 -10t11 -30q0 -32 -25 -67t-77 -60q1 -72 18 -104.5t63 -32.5q0 -8 -4.5 -18t-12.5 -18.5t-18 -14.5t-20 -6
q-31 0 -50.5 15t-30 39t-14 54t-3.5 61q-23 -5 -47.5 -8t-53.5 -3q-15 0 -28.5 2t-25.5 5q-57 -64 -123 -105t-149 -41t-123 39t-40 98q0 25 8 43t21 30t28 17.5t30 5.5q29 0 39 -15t10 -32q-12 0 -25.5 -3.5t-25 -12t-19 -23t-7.5 -36.5q0 -15 5 -29.5t15.5 -25.5t27.5 -18
t40 -7q55 0 110.5 45t109.5 116q-11 11 -20.5 29.5t-9.5 37.5q0 20 7.5 40.5t22.5 37.5t39 28t57 11q8 0 16.5 -1.5t14.5 -3.5q41 59 85 113.5t90 96t94 66.5t98 25q31 0 50.5 -14t19.5 -34q0 -18 -11 -29t-26 -11q-13 0 -23 9t-10 24q-26 0 -49.5 -9.5t-46.5 -26.5z
M493 477q-15 -18 -31 -40.5t-31.5 -47t-30.5 -49t-30 -46.5q14 -11 25.5 -24t21.5 -27q4 29 13 62t20.5 65t23.5 60t21 47h-2zM241 258q-12 1 -24 -1t-21.5 -8.5t-16 -17.5t-6.5 -26q0 -5 3 -13.5t7 -14.5q14 20 29 40t29 41zM253 130q25 -5 54 -5q43 0 79 9q0 35 -19 58.5
t-41 36.5q-17 -24 -36 -50t-37 -49zM670 726q-14 -3 -35.5 -13.5t-42.5 -22.5t-37.5 -22.5t-19.5 -13.5q-11 0 -12.5 3.5t-1.5 7.5t18 23.5t42.5 40.5t49.5 38t39 17q15 0 31 -17t28.5 -38.5t21 -40.5t8.5 -23t-1.5 -7.5t-12.5 -3.5q-4 5 -12.5 14.5t-19 20t-22 21
t-21.5 16.5zM688 895q3 -17 14 -33t23 -30.5t21.5 -26.5t9.5 -20q0 -4 -1.5 -7.5t-12.5 -3.5q-6 7 -22.5 17t-34.5 20t-32 20.5t-14 19.5q0 4 3.5 11.5t9.5 15t15 12.5t21 5z" />
    <glyph glyph-name="uni1EA7" unicode="&#x1ea7;" horiz-adv-x="356" 
d="M197 37q0 23 7.5 50t18.5 54h-2q-13 -24 -29.5 -50t-36 -47t-43 -34.5t-49.5 -13.5q-9 0 -20 2.5t-20 11t-15.5 23.5t-6.5 41q0 35 12 77t32 84t46.5 81.5t56.5 70t61 48.5t60 18q26 0 36.5 -16.5t10.5 -41.5h2q11 28 22 43t15 15q15 0 26.5 -4.5t19 -11t11.5 -14
t4 -12.5q0 -9 -5 -23t-23 -43q-13 -21 -32 -60.5t-37 -84t-30.5 -86.5t-12.5 -69q32 5 61.5 25.5t53.5 60.5q12 0 12 -9q-4 -12 -18.5 -33t-36 -41.5t-50 -36t-59.5 -15.5q-17 0 -29.5 10.5t-12.5 30.5zM115 66q14 0 33 17.5t39.5 46t40 63t35 69t25 64.5t9.5 49
q0 12 -5.5 16t-11.5 4q-16 0 -36.5 -15t-42 -40t-41.5 -56.5t-36 -64.5t-25.5 -65t-9.5 -57q0 -17 7.5 -24t18.5 -7zM379 557q-14 -3 -35.5 -13.5t-42.5 -22.5t-37.5 -22.5t-19.5 -13.5q-11 0 -12.5 3.5t-1.5 7.5t18 23.5t42.5 40.5t49.5 38t39 17q15 0 31 -17t28.5 -38.5
t21 -40.5t8.5 -23t-1.5 -7.5t-12.5 -3.5q-4 5 -12.5 14.5t-19 20t-22 21t-21.5 16.5zM410 715q3 -17 14 -33t23 -30.5t21.5 -26.5t9.5 -20q0 -4 -1.5 -7.5t-12.5 -3.5q-6 7 -22.5 17t-34.5 20t-32 20.5t-14 19.5q0 4 3.5 11.5t9.5 15t15 12.5t21 5z" />
    <glyph glyph-name="uni1EA8" unicode="&#x1ea8;" horiz-adv-x="541" 
d="M561 539q-13 -23 -31 -63.5t-34 -92t-27 -109t-11 -113.5q32 16 49.5 35.5t17.5 35.5q0 13 -10.5 20.5t-28.5 7.5q0 17 12.5 28.5t28.5 11.5q11 0 22 -10t11 -30q0 -32 -25 -67t-77 -60q1 -72 18 -104.5t63 -32.5q0 -8 -4.5 -18t-12.5 -18.5t-18 -14.5t-20 -6
q-31 0 -50.5 15t-30 39t-14 54t-3.5 61q-23 -5 -47.5 -8t-53.5 -3q-15 0 -28.5 2t-25.5 5q-57 -64 -123 -105t-149 -41t-123 39t-40 98q0 25 8 43t21 30t28 17.5t30 5.5q29 0 39 -15t10 -32q-12 0 -25.5 -3.5t-25 -12t-19 -23t-7.5 -36.5q0 -15 5 -29.5t15.5 -25.5t27.5 -18
t40 -7q55 0 110.5 45t109.5 116q-11 11 -20.5 29.5t-9.5 37.5q0 20 7.5 40.5t22.5 37.5t39 28t57 11q8 0 16.5 -1.5t14.5 -3.5q41 59 85 113.5t90 96t94 66.5t98 25q31 0 50.5 -14t19.5 -34q0 -18 -11 -29t-26 -11q-13 0 -23 9t-10 24q-26 0 -49.5 -9.5t-46.5 -26.5z
M493 477q-15 -18 -31 -40.5t-31.5 -47t-30.5 -49t-30 -46.5q14 -11 25.5 -24t21.5 -27q4 29 13 62t20.5 65t23.5 60t21 47h-2zM241 258q-12 1 -24 -1t-21.5 -8.5t-16 -17.5t-6.5 -26q0 -5 3 -13.5t7 -14.5q14 20 29 40t29 41zM253 130q25 -5 54 -5q43 0 79 9q0 35 -19 58.5
t-41 36.5q-17 -24 -36 -50t-37 -49zM670 726q-14 -3 -35.5 -13.5t-42.5 -22.5t-37.5 -22.5t-19.5 -13.5q-11 0 -12.5 3.5t-1.5 7.5t18 23.5t42.5 40.5t49.5 38t39 17q15 0 31 -17t28.5 -38.5t21 -40.5t8.5 -23t-1.5 -7.5t-12.5 -3.5q-4 5 -12.5 14.5t-19 20t-22 21
t-21.5 16.5zM765 751q-8 1 -13 8t-3 18q3 22 21.5 44t45.5 39q8 7 16 13.5t15 21.5q2 4 3 11.5t-1.5 15t-9 13.5t-18.5 8q-10 1 -19 -4t-16.5 -13.5t-12.5 -18t-6 -16.5q-15 -3 -24 0.5t-14.5 10t-7 14.5t-0.5 14q1 10 7.5 21t18 19t27.5 12.5t36 2.5q13 -2 27 -8
t24.5 -16.5t16 -25t1.5 -32.5q-3 -15 -7.5 -24.5t-10.5 -16t-13 -12t-14 -12.5q-15 -10 -23.5 -23.5t-10.5 -26.5q-3 -24 -13.5 -31.5t-21.5 -5.5z" />
    <glyph glyph-name="uni1EA9" unicode="&#x1ea9;" horiz-adv-x="356" 
d="M197 37q0 23 7.5 50t18.5 54h-2q-13 -24 -29.5 -50t-36 -47t-43 -34.5t-49.5 -13.5q-9 0 -20 2.5t-20 11t-15.5 23.5t-6.5 41q0 35 12 77t32 84t46.5 81.5t56.5 70t61 48.5t60 18q26 0 36.5 -16.5t10.5 -41.5h2q11 28 22 43t15 15q15 0 26.5 -4.5t19 -11t11.5 -14
t4 -12.5q0 -9 -5 -23t-23 -43q-13 -21 -32 -60.5t-37 -84t-30.5 -86.5t-12.5 -69q32 5 61.5 25.5t53.5 60.5q12 0 12 -9q-4 -12 -18.5 -33t-36 -41.5t-50 -36t-59.5 -15.5q-17 0 -29.5 10.5t-12.5 30.5zM115 66q14 0 33 17.5t39.5 46t40 63t35 69t25 64.5t9.5 49
q0 12 -5.5 16t-11.5 4q-16 0 -36.5 -15t-42 -40t-41.5 -56.5t-36 -64.5t-25.5 -65t-9.5 -57q0 -17 7.5 -24t18.5 -7zM379 557q-14 -3 -35.5 -13.5t-42.5 -22.5t-37.5 -22.5t-19.5 -13.5q-11 0 -12.5 3.5t-1.5 7.5t18 23.5t42.5 40.5t49.5 38t39 17q15 0 31 -17t28.5 -38.5
t21 -40.5t8.5 -23t-1.5 -7.5t-12.5 -3.5q-4 5 -12.5 14.5t-19 20t-22 21t-21.5 16.5zM461 611q-8 1 -13 8t-3 18q3 22 21.5 44t45.5 39q8 7 16 13.5t15 21.5q2 4 3 11.5t-1.5 15t-9 13.5t-18.5 8q-10 1 -19 -4t-16.5 -13.5t-12.5 -18t-6 -16.5q-15 -3 -24 0.5t-14.5 10
t-7 14.5t-0.5 14q1 10 7.5 21t18 19t27.5 12.5t36 2.5q13 -2 27 -8t24.5 -16.5t16 -25t1.5 -32.5q-3 -15 -7.5 -24.5t-10.5 -16t-13 -12t-14 -12.5q-15 -10 -23.5 -23.5t-10.5 -26.5q-3 -24 -13.5 -31.5t-21.5 -5.5z" />
    <glyph glyph-name="uni1EAA" unicode="&#x1eaa;" horiz-adv-x="541" 
d="M561 539q-13 -23 -31 -63.5t-34 -92t-27 -109t-11 -113.5q32 16 49.5 35.5t17.5 35.5q0 13 -10.5 20.5t-28.5 7.5q0 17 12.5 28.5t28.5 11.5q11 0 22 -10t11 -30q0 -32 -25 -67t-77 -60q1 -72 18 -104.5t63 -32.5q0 -8 -4.5 -18t-12.5 -18.5t-18 -14.5t-20 -6
q-31 0 -50.5 15t-30 39t-14 54t-3.5 61q-23 -5 -47.5 -8t-53.5 -3q-15 0 -28.5 2t-25.5 5q-57 -64 -123 -105t-149 -41t-123 39t-40 98q0 25 8 43t21 30t28 17.5t30 5.5q29 0 39 -15t10 -32q-12 0 -25.5 -3.5t-25 -12t-19 -23t-7.5 -36.5q0 -15 5 -29.5t15.5 -25.5t27.5 -18
t40 -7q55 0 110.5 45t109.5 116q-11 11 -20.5 29.5t-9.5 37.5q0 20 7.5 40.5t22.5 37.5t39 28t57 11q8 0 16.5 -1.5t14.5 -3.5q41 59 85 113.5t90 96t94 66.5t98 25q31 0 50.5 -14t19.5 -34q0 -18 -11 -29t-26 -11q-13 0 -23 9t-10 24q-26 0 -49.5 -9.5t-46.5 -26.5z
M493 477q-15 -18 -31 -40.5t-31.5 -47t-30.5 -49t-30 -46.5q14 -11 25.5 -24t21.5 -27q4 29 13 62t20.5 65t23.5 60t21 47h-2zM241 258q-12 1 -24 -1t-21.5 -8.5t-16 -17.5t-6.5 -26q0 -5 3 -13.5t7 -14.5q14 20 29 40t29 41zM253 130q25 -5 54 -5q43 0 79 9q0 35 -19 58.5
t-41 36.5q-17 -24 -36 -50t-37 -49zM670 726q-14 -3 -35.5 -13.5t-42.5 -22.5t-37.5 -22.5t-19.5 -13.5q-11 0 -12.5 3.5t-1.5 7.5t18 23.5t42.5 40.5t49.5 38t39 17q15 0 31 -17t28.5 -38.5t21 -40.5t8.5 -23t-1.5 -7.5t-12.5 -3.5q-4 5 -12.5 14.5t-19 20t-22 21
t-21.5 16.5zM592 821q-8 0 -14.5 6.5t-6.5 15.5q0 21 20.5 35t46.5 14q21 0 37 -7.5t30.5 -17t28 -17t30.5 -7.5q20 0 30 11.5t10 25.5q9 0 17 -7.5t8 -18.5q0 -10 -5 -20.5t-14 -19t-21.5 -14t-27.5 -5.5q-25 0 -41.5 7.5t-30 16.5t-28 16.5t-35.5 7.5q-31 0 -34 -22z" />
    <glyph glyph-name="uni1EAB" unicode="&#x1eab;" horiz-adv-x="356" 
d="M197 37q0 23 7.5 50t18.5 54h-2q-13 -24 -29.5 -50t-36 -47t-43 -34.5t-49.5 -13.5q-9 0 -20 2.5t-20 11t-15.5 23.5t-6.5 41q0 35 12 77t32 84t46.5 81.5t56.5 70t61 48.5t60 18q26 0 36.5 -16.5t10.5 -41.5h2q11 28 22 43t15 15q15 0 26.5 -4.5t19 -11t11.5 -14
t4 -12.5q0 -9 -5 -23t-23 -43q-13 -21 -32 -60.5t-37 -84t-30.5 -86.5t-12.5 -69q32 5 61.5 25.5t53.5 60.5q12 0 12 -9q-4 -12 -18.5 -33t-36 -41.5t-50 -36t-59.5 -15.5q-17 0 -29.5 10.5t-12.5 30.5zM115 66q14 0 33 17.5t39.5 46t40 63t35 69t25 64.5t9.5 49
q0 12 -5.5 16t-11.5 4q-16 0 -36.5 -15t-42 -40t-41.5 -56.5t-36 -64.5t-25.5 -65t-9.5 -57q0 -17 7.5 -24t18.5 -7zM379 557q-14 -3 -35.5 -13.5t-42.5 -22.5t-37.5 -22.5t-19.5 -13.5q-11 0 -12.5 3.5t-1.5 7.5t18 23.5t42.5 40.5t49.5 38t39 17q15 0 31 -17t28.5 -38.5
t21 -40.5t8.5 -23t-1.5 -7.5t-12.5 -3.5q-4 5 -12.5 14.5t-19 20t-22 21t-21.5 16.5zM309 649q-8 0 -14.5 6.5t-6.5 15.5q0 21 20.5 35t46.5 14q21 0 37 -7.5t30.5 -17t28 -17t30.5 -7.5q20 0 30 11.5t10 25.5q9 0 17 -7.5t8 -18.5q0 -10 -5 -20.5t-14 -19t-21.5 -14
t-27.5 -5.5q-25 0 -41.5 7.5t-30 16.5t-28 16.5t-35.5 7.5q-31 0 -34 -22z" />
    <glyph glyph-name="uni1EAC" unicode="&#x1eac;" horiz-adv-x="541" 
d="M561 539q-13 -23 -31 -63.5t-34 -92t-27 -109t-11 -113.5q32 16 49.5 35.5t17.5 35.5q0 13 -10.5 20.5t-28.5 7.5q0 17 12.5 28.5t28.5 11.5q11 0 22 -10t11 -30q0 -32 -25 -67t-77 -60q1 -72 18 -104.5t63 -32.5q0 -8 -4.5 -18t-12.5 -18.5t-18 -14.5t-20 -6
q-31 0 -50.5 15t-30 39t-14 54t-3.5 61q-23 -5 -47.5 -8t-53.5 -3q-15 0 -28.5 2t-25.5 5q-57 -64 -123 -105t-149 -41t-123 39t-40 98q0 25 8 43t21 30t28 17.5t30 5.5q29 0 39 -15t10 -32q-12 0 -25.5 -3.5t-25 -12t-19 -23t-7.5 -36.5q0 -15 5 -29.5t15.5 -25.5t27.5 -18
t40 -7q55 0 110.5 45t109.5 116q-11 11 -20.5 29.5t-9.5 37.5q0 20 7.5 40.5t22.5 37.5t39 28t57 11q8 0 16.5 -1.5t14.5 -3.5q41 59 85 113.5t90 96t94 66.5t98 25q31 0 50.5 -14t19.5 -34q0 -18 -11 -29t-26 -11q-13 0 -23 9t-10 24q-26 0 -49.5 -9.5t-46.5 -26.5z
M493 477q-15 -18 -31 -40.5t-31.5 -47t-30.5 -49t-30 -46.5q14 -11 25.5 -24t21.5 -27q4 29 13 62t20.5 65t23.5 60t21 47h-2zM241 258q-12 1 -24 -1t-21.5 -8.5t-16 -17.5t-6.5 -26q0 -5 3 -13.5t7 -14.5q14 20 29 40t29 41zM253 130q25 -5 54 -5q43 0 79 9q0 35 -19 58.5
t-41 36.5q-17 -24 -36 -50t-37 -49zM670 726q-14 -3 -35.5 -13.5t-42.5 -22.5t-37.5 -22.5t-19.5 -13.5q-11 0 -12.5 3.5t-1.5 7.5t18 23.5t42.5 40.5t49.5 38t39 17q15 0 31 -17t28.5 -38.5t21 -40.5t8.5 -23t-1.5 -7.5t-12.5 -3.5q-4 5 -12.5 14.5t-19 20t-22 21
t-21.5 16.5zM271 -83q22 0 37.5 -13.5t15.5 -35.5t-15.5 -35.5t-37.5 -13.5t-37.5 13.5t-15.5 35.5t15.5 35.5t37.5 13.5z" />
    <glyph glyph-name="uni1EAD" unicode="&#x1ead;" horiz-adv-x="356" 
d="M156 -39q22 0 37.5 -13.5t15.5 -35.5t-15.5 -35.5t-37.5 -13.5t-37.5 13.5t-15.5 35.5t15.5 35.5t37.5 13.5zM197 37q0 23 7.5 50t18.5 54h-2q-13 -24 -29.5 -50t-36 -47t-43 -34.5t-49.5 -13.5q-9 0 -20 2.5t-20 11t-15.5 23.5t-6.5 41q0 35 12 77t32 84t46.5 81.5
t56.5 70t61 48.5t60 18q26 0 36.5 -16.5t10.5 -41.5h2q11 28 22 43t15 15q15 0 26.5 -4.5t19 -11t11.5 -14t4 -12.5q0 -9 -5 -23t-23 -43q-13 -21 -32 -60.5t-37 -84t-30.5 -86.5t-12.5 -69q32 5 61.5 25.5t53.5 60.5q12 0 12 -9q-4 -12 -18.5 -33t-36 -41.5t-50 -36
t-59.5 -15.5q-17 0 -29.5 10.5t-12.5 30.5zM115 66q14 0 33 17.5t39.5 46t40 63t35 69t25 64.5t9.5 49q0 12 -5.5 16t-11.5 4q-16 0 -36.5 -15t-42 -40t-41.5 -56.5t-36 -64.5t-25.5 -65t-9.5 -57q0 -17 7.5 -24t18.5 -7zM379 557q-14 -3 -35.5 -13.5t-42.5 -22.5
t-37.5 -22.5t-19.5 -13.5q-11 0 -12.5 3.5t-1.5 7.5t18 23.5t42.5 40.5t49.5 38t39 17q15 0 31 -17t28.5 -38.5t21 -40.5t8.5 -23t-1.5 -7.5t-12.5 -3.5q-4 5 -12.5 14.5t-19 20t-22 21t-21.5 16.5z" />
    <glyph glyph-name="uni1EAE" unicode="&#x1eae;" horiz-adv-x="541" 
d="M561 539q-13 -23 -31 -63.5t-34 -92t-27 -109t-11 -113.5q32 16 49.5 35.5t17.5 35.5q0 13 -10.5 20.5t-28.5 7.5q0 17 12.5 28.5t28.5 11.5q11 0 22 -10t11 -30q0 -32 -25 -67t-77 -60q1 -72 18 -104.5t63 -32.5q0 -8 -4.5 -18t-12.5 -18.5t-18 -14.5t-20 -6
q-31 0 -50.5 15t-30 39t-14 54t-3.5 61q-23 -5 -47.5 -8t-53.5 -3q-15 0 -28.5 2t-25.5 5q-57 -64 -123 -105t-149 -41t-123 39t-40 98q0 25 8 43t21 30t28 17.5t30 5.5q29 0 39 -15t10 -32q-12 0 -25.5 -3.5t-25 -12t-19 -23t-7.5 -36.5q0 -15 5 -29.5t15.5 -25.5t27.5 -18
t40 -7q55 0 110.5 45t109.5 116q-11 11 -20.5 29.5t-9.5 37.5q0 20 7.5 40.5t22.5 37.5t39 28t57 11q8 0 16.5 -1.5t14.5 -3.5q41 59 85 113.5t90 96t94 66.5t98 25q31 0 50.5 -14t19.5 -34q0 -18 -11 -29t-26 -11q-13 0 -23 9t-10 24q-26 0 -49.5 -9.5t-46.5 -26.5z
M493 477q-15 -18 -31 -40.5t-31.5 -47t-30.5 -49t-30 -46.5q14 -11 25.5 -24t21.5 -27q4 29 13 62t20.5 65t23.5 60t21 47h-2zM241 258q-12 1 -24 -1t-21.5 -8.5t-16 -17.5t-6.5 -26q0 -5 3 -13.5t7 -14.5q14 20 29 40t29 41zM253 130q25 -5 54 -5q43 0 79 9q0 35 -19 58.5
t-41 36.5q-17 -24 -36 -50t-37 -49zM744 917q23 0 36 -16.5t13 -33.5q0 -10 -23.5 -21t-52.5 -21t-54.5 -18t-30.5 -11q-11 0 -12.5 3.5t-1.5 7.5t15.5 17t36.5 29t42 33.5t32 30.5zM726 778q0 -23 -7 -44.5t-20.5 -38.5t-34.5 -27t-49 -10q-30 0 -51 20t-21 49q0 10 9 17.5
t24 7.5t24 -2.5t9 -10.5q0 -18 6 -30t23 -12q27 0 43.5 19t16.5 59q0 3 4 6.5t10 3.5q4 0 9 -1.5t5 -5.5z" />
    <glyph glyph-name="uni1EAF" unicode="&#x1eaf;" horiz-adv-x="356" 
d="M197 37q0 23 7.5 50t18.5 54h-2q-13 -24 -29.5 -50t-36 -47t-43 -34.5t-49.5 -13.5q-9 0 -20 2.5t-20 11t-15.5 23.5t-6.5 41q0 35 12 77t32 84t46.5 81.5t56.5 70t61 48.5t60 18q26 0 36.5 -16.5t10.5 -41.5h2q11 28 22 43t15 15q15 0 26.5 -4.5t19 -11t11.5 -14
t4 -12.5q0 -9 -5 -23t-23 -43q-13 -21 -32 -60.5t-37 -84t-30.5 -86.5t-12.5 -69q32 5 61.5 25.5t53.5 60.5q12 0 12 -9q-4 -12 -18.5 -33t-36 -41.5t-50 -36t-59.5 -15.5q-17 0 -29.5 10.5t-12.5 30.5zM115 66q14 0 33 17.5t39.5 46t40 63t35 69t25 64.5t9.5 49
q0 12 -5.5 16t-11.5 4q-16 0 -36.5 -15t-42 -40t-41.5 -56.5t-36 -64.5t-25.5 -65t-9.5 -57q0 -17 7.5 -24t18.5 -7zM419 611q0 -23 -7 -44.5t-20.5 -38.5t-34.5 -27t-49 -10q-30 0 -51 20t-21 49q0 10 9 17.5t24 7.5t24 -2.5t9 -10.5q0 -18 6 -30t23 -12q27 0 43.5 19
t16.5 59q0 3 4 6.5t10 3.5q4 0 9 -1.5t5 -5.5zM434 734q23 0 36 -16.5t13 -33.5q0 -10 -23.5 -21t-52.5 -21t-54.5 -18t-30.5 -11q-11 0 -12.5 3.5t-1.5 7.5t15.5 17t36.5 29t42 33.5t32 30.5z" />
    <glyph glyph-name="uni1EB0" unicode="&#x1eb0;" horiz-adv-x="541" 
d="M561 539q-13 -23 -31 -63.5t-34 -92t-27 -109t-11 -113.5q32 16 49.5 35.5t17.5 35.5q0 13 -10.5 20.5t-28.5 7.5q0 17 12.5 28.5t28.5 11.5q11 0 22 -10t11 -30q0 -32 -25 -67t-77 -60q1 -72 18 -104.5t63 -32.5q0 -8 -4.5 -18t-12.5 -18.5t-18 -14.5t-20 -6
q-31 0 -50.5 15t-30 39t-14 54t-3.5 61q-23 -5 -47.5 -8t-53.5 -3q-15 0 -28.5 2t-25.5 5q-57 -64 -123 -105t-149 -41t-123 39t-40 98q0 25 8 43t21 30t28 17.5t30 5.5q29 0 39 -15t10 -32q-12 0 -25.5 -3.5t-25 -12t-19 -23t-7.5 -36.5q0 -15 5 -29.5t15.5 -25.5t27.5 -18
t40 -7q55 0 110.5 45t109.5 116q-11 11 -20.5 29.5t-9.5 37.5q0 20 7.5 40.5t22.5 37.5t39 28t57 11q8 0 16.5 -1.5t14.5 -3.5q41 59 85 113.5t90 96t94 66.5t98 25q31 0 50.5 -14t19.5 -34q0 -18 -11 -29t-26 -11q-13 0 -23 9t-10 24q-26 0 -49.5 -9.5t-46.5 -26.5z
M493 477q-15 -18 -31 -40.5t-31.5 -47t-30.5 -49t-30 -46.5q14 -11 25.5 -24t21.5 -27q4 29 13 62t20.5 65t23.5 60t21 47h-2zM241 258q-12 1 -24 -1t-21.5 -8.5t-16 -17.5t-6.5 -26q0 -5 3 -13.5t7 -14.5q14 20 29 40t29 41zM253 130q25 -5 54 -5q43 0 79 9q0 35 -19 58.5
t-41 36.5q-17 -24 -36 -50t-37 -49zM588 911q3 -17 14 -33t23 -30.5t21.5 -26.5t9.5 -20q0 -4 -1.5 -7.5t-12.5 -3.5q-6 7 -22.5 17t-34.5 20t-32 20.5t-14 19.5q0 4 3.5 11.5t9.5 15t15 12.5t21 5zM726 778q0 -23 -7 -44.5t-20.5 -38.5t-34.5 -27t-49 -10q-30 0 -51 20
t-21 49q0 10 9 17.5t24 7.5t24 -2.5t9 -10.5q0 -18 6 -30t23 -12q27 0 43.5 19t16.5 59q0 3 4 6.5t10 3.5q4 0 9 -1.5t5 -5.5z" />
    <glyph glyph-name="uni1EB1" unicode="&#x1eb1;" horiz-adv-x="356" 
d="M197 37q0 23 7.5 50t18.5 54h-2q-13 -24 -29.5 -50t-36 -47t-43 -34.5t-49.5 -13.5q-9 0 -20 2.5t-20 11t-15.5 23.5t-6.5 41q0 35 12 77t32 84t46.5 81.5t56.5 70t61 48.5t60 18q26 0 36.5 -16.5t10.5 -41.5h2q11 28 22 43t15 15q15 0 26.5 -4.5t19 -11t11.5 -14
t4 -12.5q0 -9 -5 -23t-23 -43q-13 -21 -32 -60.5t-37 -84t-30.5 -86.5t-12.5 -69q32 5 61.5 25.5t53.5 60.5q12 0 12 -9q-4 -12 -18.5 -33t-36 -41.5t-50 -36t-59.5 -15.5q-17 0 -29.5 10.5t-12.5 30.5zM115 66q14 0 33 17.5t39.5 46t40 63t35 69t25 64.5t9.5 49
q0 12 -5.5 16t-11.5 4q-16 0 -36.5 -15t-42 -40t-41.5 -56.5t-36 -64.5t-25.5 -65t-9.5 -57q0 -17 7.5 -24t18.5 -7zM419 611q0 -23 -7 -44.5t-20.5 -38.5t-34.5 -27t-49 -10q-30 0 -51 20t-21 49q0 10 9 17.5t24 7.5t24 -2.5t9 -10.5q0 -18 6 -30t23 -12q27 0 43.5 19
t16.5 59q0 3 4 6.5t10 3.5q4 0 9 -1.5t5 -5.5zM299 723q3 -17 14 -33t23 -30.5t21.5 -26.5t9.5 -20q0 -4 -1.5 -7.5t-12.5 -3.5q-6 7 -22.5 17t-34.5 20t-32 20.5t-14 19.5q0 4 3.5 11.5t9.5 15t15 12.5t21 5z" />
    <glyph glyph-name="uni1EB2" unicode="&#x1eb2;" horiz-adv-x="541" 
d="M561 539q-13 -23 -31 -63.5t-34 -92t-27 -109t-11 -113.5q32 16 49.5 35.5t17.5 35.5q0 13 -10.5 20.5t-28.5 7.5q0 17 12.5 28.5t28.5 11.5q11 0 22 -10t11 -30q0 -32 -25 -67t-77 -60q1 -72 18 -104.5t63 -32.5q0 -8 -4.5 -18t-12.5 -18.5t-18 -14.5t-20 -6
q-31 0 -50.5 15t-30 39t-14 54t-3.5 61q-23 -5 -47.5 -8t-53.5 -3q-15 0 -28.5 2t-25.5 5q-57 -64 -123 -105t-149 -41t-123 39t-40 98q0 25 8 43t21 30t28 17.5t30 5.5q29 0 39 -15t10 -32q-12 0 -25.5 -3.5t-25 -12t-19 -23t-7.5 -36.5q0 -15 5 -29.5t15.5 -25.5t27.5 -18
t40 -7q55 0 110.5 45t109.5 116q-11 11 -20.5 29.5t-9.5 37.5q0 20 7.5 40.5t22.5 37.5t39 28t57 11q8 0 16.5 -1.5t14.5 -3.5q41 59 85 113.5t90 96t94 66.5t98 25q31 0 50.5 -14t19.5 -34q0 -18 -11 -29t-26 -11q-13 0 -23 9t-10 24q-26 0 -49.5 -9.5t-46.5 -26.5z
M493 477q-15 -18 -31 -40.5t-31.5 -47t-30.5 -49t-30 -46.5q14 -11 25.5 -24t21.5 -27q4 29 13 62t20.5 65t23.5 60t21 47h-2zM241 258q-12 1 -24 -1t-21.5 -8.5t-16 -17.5t-6.5 -26q0 -5 3 -13.5t7 -14.5q14 20 29 40t29 41zM253 130q25 -5 54 -5q43 0 79 9q0 35 -19 58.5
t-41 36.5q-17 -24 -36 -50t-37 -49zM647 752q-8 1 -13 8t-3 18q3 22 21.5 44t45.5 39q8 7 16 13.5t15 21.5q2 4 3 11.5t-1.5 15t-9 13.5t-18.5 8q-10 1 -19 -4t-16.5 -13.5t-12.5 -18t-6 -16.5q-15 -3 -24 0.5t-14.5 10t-7 14.5t-0.5 14q1 10 7.5 21t18 19t27.5 12.5t36 2.5
q13 -2 27 -8t24.5 -16.5t16 -25t1.5 -32.5q-3 -15 -7.5 -24.5t-10.5 -16t-13 -12t-14 -12.5q-15 -10 -23.5 -23.5t-10.5 -26.5q-3 -24 -13.5 -31.5t-21.5 -5.5zM726 778q0 -23 -7 -44.5t-20.5 -38.5t-34.5 -27t-49 -10q-30 0 -51 20t-21 49q0 10 9 17.5t24 7.5t24 -2.5
t9 -10.5q0 -18 6 -30t23 -12q27 0 43.5 19t16.5 59q0 3 4 6.5t10 3.5q4 0 9 -1.5t5 -5.5z" />
    <glyph glyph-name="uni1EB3" unicode="&#x1eb3;" horiz-adv-x="356" 
d="M197 37q0 23 7.5 50t18.5 54h-2q-13 -24 -29.5 -50t-36 -47t-43 -34.5t-49.5 -13.5q-9 0 -20 2.5t-20 11t-15.5 23.5t-6.5 41q0 35 12 77t32 84t46.5 81.5t56.5 70t61 48.5t60 18q26 0 36.5 -16.5t10.5 -41.5h2q11 28 22 43t15 15q15 0 26.5 -4.5t19 -11t11.5 -14
t4 -12.5q0 -9 -5 -23t-23 -43q-13 -21 -32 -60.5t-37 -84t-30.5 -86.5t-12.5 -69q32 5 61.5 25.5t53.5 60.5q12 0 12 -9q-4 -12 -18.5 -33t-36 -41.5t-50 -36t-59.5 -15.5q-17 0 -29.5 10.5t-12.5 30.5zM115 66q14 0 33 17.5t39.5 46t40 63t35 69t25 64.5t9.5 49
q0 12 -5.5 16t-11.5 4q-16 0 -36.5 -15t-42 -40t-41.5 -56.5t-36 -64.5t-25.5 -65t-9.5 -57q0 -17 7.5 -24t18.5 -7zM419 611q0 -23 -7 -44.5t-20.5 -38.5t-34.5 -27t-49 -10q-30 0 -51 20t-21 49q0 10 9 17.5t24 7.5t24 -2.5t9 -10.5q0 -18 6 -30t23 -12q27 0 43.5 19
t16.5 59q0 3 4 6.5t10 3.5q4 0 9 -1.5t5 -5.5zM339 609q-8 1 -13 8t-3 18q3 22 21.5 44t45.5 39q8 7 16 13.5t15 21.5q2 4 3 11.5t-1.5 15t-9 13.5t-18.5 8q-10 1 -19 -4t-16.5 -13.5t-12.5 -18t-6 -16.5q-15 -3 -24 0.5t-14.5 10t-7 14.5t-0.5 14q1 10 7.5 21t18 19
t27.5 12.5t36 2.5q13 -2 27 -8t24.5 -16.5t16 -25t1.5 -32.5q-3 -15 -7.5 -24.5t-10.5 -16t-13 -12t-14 -12.5q-15 -10 -23.5 -23.5t-10.5 -26.5q-3 -24 -13.5 -31.5t-21.5 -5.5z" />
    <glyph glyph-name="uni1EB4" unicode="&#x1eb4;" horiz-adv-x="541" 
d="M561 539q-13 -23 -31 -63.5t-34 -92t-27 -109t-11 -113.5q32 16 49.5 35.5t17.5 35.5q0 13 -10.5 20.5t-28.5 7.5q0 17 12.5 28.5t28.5 11.5q11 0 22 -10t11 -30q0 -32 -25 -67t-77 -60q1 -72 18 -104.5t63 -32.5q0 -8 -4.5 -18t-12.5 -18.5t-18 -14.5t-20 -6
q-31 0 -50.5 15t-30 39t-14 54t-3.5 61q-23 -5 -47.5 -8t-53.5 -3q-15 0 -28.5 2t-25.5 5q-57 -64 -123 -105t-149 -41t-123 39t-40 98q0 25 8 43t21 30t28 17.5t30 5.5q29 0 39 -15t10 -32q-12 0 -25.5 -3.5t-25 -12t-19 -23t-7.5 -36.5q0 -15 5 -29.5t15.5 -25.5t27.5 -18
t40 -7q55 0 110.5 45t109.5 116q-11 11 -20.5 29.5t-9.5 37.5q0 20 7.5 40.5t22.5 37.5t39 28t57 11q8 0 16.5 -1.5t14.5 -3.5q41 59 85 113.5t90 96t94 66.5t98 25q31 0 50.5 -14t19.5 -34q0 -18 -11 -29t-26 -11q-13 0 -23 9t-10 24q-26 0 -49.5 -9.5t-46.5 -26.5z
M493 477q-15 -18 -31 -40.5t-31.5 -47t-30.5 -49t-30 -46.5q14 -11 25.5 -24t21.5 -27q4 29 13 62t20.5 65t23.5 60t21 47h-2zM241 258q-12 1 -24 -1t-21.5 -8.5t-16 -17.5t-6.5 -26q0 -5 3 -13.5t7 -14.5q14 20 29 40t29 41zM253 130q25 -5 54 -5q43 0 79 9q0 35 -19 58.5
t-41 36.5q-17 -24 -36 -50t-37 -49zM565 834q-8 0 -14.5 6.5t-6.5 15.5q0 21 20.5 35t46.5 14q21 0 37 -7.5t30.5 -17t28 -17t30.5 -7.5q20 0 30 11.5t10 25.5q9 0 17 -7.5t8 -18.5q0 -10 -5 -20.5t-14 -19t-21.5 -14t-27.5 -5.5q-25 0 -41.5 7.5t-30 16.5t-28 16.5
t-35.5 7.5q-31 0 -34 -22zM726 778q0 -23 -7 -44.5t-20.5 -38.5t-34.5 -27t-49 -10q-30 0 -51 20t-21 49q0 10 9 17.5t24 7.5t24 -2.5t9 -10.5q0 -18 6 -30t23 -12q27 0 43.5 19t16.5 59q0 3 4 6.5t10 3.5q4 0 9 -1.5t5 -5.5z" />
    <glyph glyph-name="uni1EB5" unicode="&#x1eb5;" horiz-adv-x="356" 
d="M197 37q0 23 7.5 50t18.5 54h-2q-13 -24 -29.5 -50t-36 -47t-43 -34.5t-49.5 -13.5q-9 0 -20 2.5t-20 11t-15.5 23.5t-6.5 41q0 35 12 77t32 84t46.5 81.5t56.5 70t61 48.5t60 18q26 0 36.5 -16.5t10.5 -41.5h2q11 28 22 43t15 15q15 0 26.5 -4.5t19 -11t11.5 -14
t4 -12.5q0 -9 -5 -23t-23 -43q-13 -21 -32 -60.5t-37 -84t-30.5 -86.5t-12.5 -69q32 5 61.5 25.5t53.5 60.5q12 0 12 -9q-4 -12 -18.5 -33t-36 -41.5t-50 -36t-59.5 -15.5q-17 0 -29.5 10.5t-12.5 30.5zM115 66q14 0 33 17.5t39.5 46t40 63t35 69t25 64.5t9.5 49
q0 12 -5.5 16t-11.5 4q-16 0 -36.5 -15t-42 -40t-41.5 -56.5t-36 -64.5t-25.5 -65t-9.5 -57q0 -17 7.5 -24t18.5 -7zM419 611q0 -23 -7 -44.5t-20.5 -38.5t-34.5 -27t-49 -10q-30 0 -51 20t-21 49q0 10 9 17.5t24 7.5t24 -2.5t9 -10.5q0 -18 6 -30t23 -12q27 0 43.5 19
t16.5 59q0 3 4 6.5t10 3.5q4 0 9 -1.5t5 -5.5zM270 666q-8 0 -14.5 6.5t-6.5 15.5q0 21 20.5 35t46.5 14q21 0 37 -7.5t30.5 -17t28 -17t30.5 -7.5q20 0 30 11.5t10 25.5q9 0 17 -7.5t8 -18.5q0 -10 -5 -20.5t-14 -19t-21.5 -14t-27.5 -5.5q-25 0 -41.5 7.5t-30 16.5
t-28 16.5t-35.5 7.5q-31 0 -34 -22z" />
    <glyph glyph-name="uni1EB6" unicode="&#x1eb6;" horiz-adv-x="541" 
d="M561 539q-13 -23 -31 -63.5t-34 -92t-27 -109t-11 -113.5q32 16 49.5 35.5t17.5 35.5q0 13 -10.5 20.5t-28.5 7.5q0 17 12.5 28.5t28.5 11.5q11 0 22 -10t11 -30q0 -32 -25 -67t-77 -60q1 -72 18 -104.5t63 -32.5q0 -8 -4.5 -18t-12.5 -18.5t-18 -14.5t-20 -6
q-31 0 -50.5 15t-30 39t-14 54t-3.5 61q-23 -5 -47.5 -8t-53.5 -3q-15 0 -28.5 2t-25.5 5q-57 -64 -123 -105t-149 -41t-123 39t-40 98q0 25 8 43t21 30t28 17.5t30 5.5q29 0 39 -15t10 -32q-12 0 -25.5 -3.5t-25 -12t-19 -23t-7.5 -36.5q0 -15 5 -29.5t15.5 -25.5t27.5 -18
t40 -7q55 0 110.5 45t109.5 116q-11 11 -20.5 29.5t-9.5 37.5q0 20 7.5 40.5t22.5 37.5t39 28t57 11q8 0 16.5 -1.5t14.5 -3.5q41 59 85 113.5t90 96t94 66.5t98 25q31 0 50.5 -14t19.5 -34q0 -18 -11 -29t-26 -11q-13 0 -23 9t-10 24q-26 0 -49.5 -9.5t-46.5 -26.5z
M493 477q-15 -18 -31 -40.5t-31.5 -47t-30.5 -49t-30 -46.5q14 -11 25.5 -24t21.5 -27q4 29 13 62t20.5 65t23.5 60t21 47h-2zM241 258q-12 1 -24 -1t-21.5 -8.5t-16 -17.5t-6.5 -26q0 -5 3 -13.5t7 -14.5q14 20 29 40t29 41zM253 130q25 -5 54 -5q43 0 79 9q0 35 -19 58.5
t-41 36.5q-17 -24 -36 -50t-37 -49zM271 -83q22 0 37.5 -13.5t15.5 -35.5t-15.5 -35.5t-37.5 -13.5t-37.5 13.5t-15.5 35.5t15.5 35.5t37.5 13.5zM726 778q0 -23 -7 -44.5t-20.5 -38.5t-34.5 -27t-49 -10q-30 0 -51 20t-21 49q0 10 9 17.5t24 7.5t24 -2.5t9 -10.5
q0 -18 6 -30t23 -12q27 0 43.5 19t16.5 59q0 3 4 6.5t10 3.5q4 0 9 -1.5t5 -5.5z" />
    <glyph glyph-name="uni1EB7" unicode="&#x1eb7;" horiz-adv-x="356" 
d="M156 -39q22 0 37.5 -13.5t15.5 -35.5t-15.5 -35.5t-37.5 -13.5t-37.5 13.5t-15.5 35.5t15.5 35.5t37.5 13.5zM197 37q0 23 7.5 50t18.5 54h-2q-13 -24 -29.5 -50t-36 -47t-43 -34.5t-49.5 -13.5q-9 0 -20 2.5t-20 11t-15.5 23.5t-6.5 41q0 35 12 77t32 84t46.5 81.5
t56.5 70t61 48.5t60 18q26 0 36.5 -16.5t10.5 -41.5h2q11 28 22 43t15 15q15 0 26.5 -4.5t19 -11t11.5 -14t4 -12.5q0 -9 -5 -23t-23 -43q-13 -21 -32 -60.5t-37 -84t-30.5 -86.5t-12.5 -69q32 5 61.5 25.5t53.5 60.5q12 0 12 -9q-4 -12 -18.5 -33t-36 -41.5t-50 -36
t-59.5 -15.5q-17 0 -29.5 10.5t-12.5 30.5zM115 66q14 0 33 17.5t39.5 46t40 63t35 69t25 64.5t9.5 49q0 12 -5.5 16t-11.5 4q-16 0 -36.5 -15t-42 -40t-41.5 -56.5t-36 -64.5t-25.5 -65t-9.5 -57q0 -17 7.5 -24t18.5 -7zM419 611q0 -23 -7 -44.5t-20.5 -38.5t-34.5 -27
t-49 -10q-30 0 -51 20t-21 49q0 10 9 17.5t24 7.5t24 -2.5t9 -10.5q0 -18 6 -30t23 -12q27 0 43.5 19t16.5 59q0 3 4 6.5t10 3.5q4 0 9 -1.5t5 -5.5z" />
    </font>
</defs>
</svg>
