<?xml version="1.0" standalone="no"?>
<!DOCTYPE svg PUBLIC "-//W3C//DTD SVG 1.1//EN" "http://www.w3.org/Graphics/SVG/1.1/DTD/svg11.dtd" >
<svg xmlns="http://www.w3.org/2000/svg" xmlns:xlink="http://www.w3.org/1999/xlink" version="1.1">
<metadata>
Created by FontForge 20150824 at Fri Oct 21 18:39:49 2016
 By Everything Fonts
Copyright (c) 2012 by Emil Bertell. All rights reserved.
</metadata>
<defs>
<font id="UVFSlimTony" horiz-adv-x="572" >
  <font-face 
    font-family="UVFSlimTony"
    font-weight="400"
    font-stretch="normal"
    units-per-em="1000"
    panose-1="2 0 0 0 0 0 0 0 0 0"
    ascent="750"
    descent="-250"
    x-height="578.5"
    cap-height="993"
    bbox="-1555.55 -979.381 3319.54 1633.79"
    underline-thickness="50"
    underline-position="-150"
    unicode-range="U+001B-1EAB0"
  />
<missing-glyph horiz-adv-x="260" 
 />
    <glyph glyph-name=".notdef" horiz-adv-x="260" 
 />
    <glyph glyph-name=".null" horiz-adv-x="0" 
 />
    <glyph glyph-name="nonmarkingreturn" horiz-adv-x="260" 
 />
    <glyph glyph-name="uni001B" horiz-adv-x="0" 
 />
    <glyph glyph-name="space" unicode="&#xa0;" horiz-adv-x="260" 
 />
    <glyph glyph-name="space" unicode=" " horiz-adv-x="260" 
 />
    <glyph glyph-name="exclam" unicode="!" horiz-adv-x="440" 
d="M181 149q15 7 33 13t36 4t35.5 -15t31.5 -42t10.5 -53t-19 -41t-39.5 -26.5t-51 -9.5t-53.5 10t-46.5 32q-13 14 -16 30t4 33t25.5 33.5t49.5 31.5zM370 1059q5 -3 10.5 -19.5t8 -52t-1 -92.5t-16.5 -140q-22 -146 -43.5 -245t-45 -157.5t-50.5 -79.5t-58 -12
q-6 2 -11 37t-8.5 92t-6 129.5t-3.5 149t-1 151t2 136.5q1 62 19 96t48.5 44.5t70.5 0t86 -37.5z" />
    <glyph glyph-name="quotedbl" unicode="&#x22;" horiz-adv-x="496" 
d="M72 614q-3 1 -6 17t-6 42.5t-5 60.5t-3 71t-1 74.5t1 71.5q1 35 15 54t35 24.5t46.5 0t50.5 -20.5q3 -2 5.5 -10t2.5 -27t-2 -52t-8 -84q-6 -55 -21 -98t-33 -72.5t-37 -43t-34 -8.5zM287 618q-3 1 -5 17.5t-3 43t-1 60.5t1 71.5t3.5 75t5.5 70.5q4 34 19 52t36.5 22.5
t47 -3t49.5 -23.5q3 -2 4.5 -10t0.5 -27.5t-5.5 -52t-13.5 -82.5q-10 -54 -27.5 -96.5t-37.5 -70.5t-39.5 -40.5t-34.5 -6.5z" />
    <glyph glyph-name="numbersign" unicode="#" horiz-adv-x="1425" 
d="M1264 799q49 -1 75.5 -14t33 -36t-5.5 -54.5t-39 -68.5q-1 -2 -19.5 -3t-50.5 -1.5t-76 -0.5h-96q-19 -60 -39.5 -122t-40.5 -123q42 2 76.5 2.5t62.5 -0.5q49 -1 75.5 -14t33 -36t-5.5 -54.5t-39 -68.5q-1 -2 -21 -3t-55.5 -1.5t-83 -0.5h-104.5q-26 -71 -50 -132
t-44.5 -105.5t-36.5 -69.5t-26 -24q-4 0 -1.5 26t10 70.5t19 105t25.5 131.5q-89 2 -184 5t-186 8q-27 -74 -51.5 -137.5t-46 -110.5t-38 -73t-26.5 -25q-4 0 -1 27.5t11 75t20 111.5t27 138q-69 5 -128.5 11t-102 13.5t-65.5 16.5t-19 19q1 4 28 9.5t72 12t106 13.5t131 14
q17 78 34.5 158t34.5 157q-64 5 -118.5 11t-93 13t-59 15.5t-16.5 18.5q1 4 25 9t66 11t98.5 12.5t122.5 13.5q17 71 32 129.5t26 100.5q14 49 35 79t47.5 42.5t57 9t63.5 -20.5q1 -1 -5 -26t-18 -68.5t-29.5 -102t-38.5 -127.5q80 8 161 13.5t158 10.5q28 118 49 190
q14 49 35 79t47 42.5t56.5 9t63.5 -20.5q1 -1 -4 -23t-16 -60.5t-26.5 -91.5t-34.5 -116q36 1 67 1.5t56 -0.5zM876 369l28 128t28 127q-78 2 -159.5 4.5t-161.5 6.5q-23 -72 -47 -146.5t-49 -146.5q91 8 183.5 15t177.5 12z" />
    <glyph glyph-name="dollar" unicode="$" horiz-adv-x="784" 
d="M450 750q59 -2 114.5 -15t96 -36.5t60.5 -55.5t8 -71q-5 -19 -30.5 -37t-59.5 -22t-71 12.5t-65 65.5q-10 19 -25 32t-34 21q-2 -38 -4 -79.5t-5 -83.5q33 -7 66.5 -17t63 -25t54 -37t40.5 -52q29 -57 27.5 -117t-34 -110.5t-96.5 -84t-160 -36.5q-10 -76 -19 -121.5
t-19 -44.5q-4 1 -8 46.5t-8 120.5q-5 1 -10.5 1t-10.5 1q-33 3 -75.5 15.5t-82.5 34.5t-70.5 54.5t-39.5 75.5q-6 29 2 51t25 36t39.5 20t45 3t42 -15.5t29.5 -35.5q13 -30 19.5 -61.5t15 -57.5t23 -43t44.5 -18q-3 69 -6.5 147t-6.5 159q-38 17 -74.5 35t-65 42t-44 56
t-10.5 78q4 33 19.5 58.5t40.5 45t57 33t68 21.5q-1 51 -0.5 89.5t1.5 62.5q1 33 13.5 52.5t32 28t43.5 5.5t49 -15q2 -2 0.5 -60t-5.5 -152zM484 243q-7 23 -22.5 41.5t-37.5 33.5q-5 -63 -10 -123t-10 -114q21 11 38.5 28.5t29.5 38.5t15.5 45.5t-3.5 49.5zM217 588
q-2 -18 5 -31t21 -23t34 -16.5t44 -12.5q-1 40 -2 78.5t-2 74.5q-40 -7 -68.5 -25.5t-31.5 -44.5z" />
    <glyph glyph-name="percent" unicode="%" horiz-adv-x="1388" 
d="M922 1036q9 -8 -11.5 -105.5t-71.5 -280.5q-19 -67 -44.5 -143.5t-53.5 -151.5t-58 -142.5t-58 -117.5t-52.5 -76t-41.5 -17q-5 2 -2 46.5t12.5 116.5t23 163t28.5 186.5t31 187.5t29 166q-18 -11 -35.5 -19.5t-34.5 -14.5q-2 -62 -26 -123.5t-67 -108.5t-102.5 -72.5
t-131.5 -14.5q-54 8 -96.5 34t-69.5 68.5t-36 101t4 131.5q8 44 28 83t48 69.5t62.5 52t70.5 31.5q32 9 44.5 4.5t14 -14t-4 -20.5t-8.5 -16q-9 -13 -20.5 -34t-22 -48t-18.5 -59t-10 -68q-3 -46 2.5 -87.5t17.5 -73t30.5 -50t42.5 -18.5q60 0 96 59.5t40 160.5
q-40 6 -70 25.5t-46.5 47.5t-18 62.5t16.5 70.5q16 31 48 31t67 -21.5t65.5 -61t42.5 -87.5q21 9 43.5 22t47.5 33q2 6 2.5 11t1.5 10q12 63 37.5 94.5t59 37.5t73.5 -10.5t81 -50.5zM393 982q-4 -12 -1 -27.5t12.5 -30.5t26 -27.5t39.5 -18.5q-3 45 -13.5 73t-22.5 40
t-23.5 9.5t-17.5 -18.5zM1123 552q11 7 31.5 5.5t44.5 -11t49 -28t45 -46t32.5 -64.5t11.5 -84q-2 -63 -26 -124.5t-66.5 -109t-102.5 -73t-132 -14.5q-54 8 -96.5 34t-69.5 68.5t-36 101t4 131.5q8 44 28 83t48 69.5t62.5 52t70.5 31.5q32 9 44.5 4.5t14 -14t-4 -20.5
t-8.5 -16q-9 -13 -20.5 -34t-22 -48t-18.5 -59t-10 -68q-3 -46 2.5 -87.5t17.5 -73t30.5 -50t42.5 -18.5q31 0 56 17t43 48t27.5 75t9.5 98q0 55 -8 91t-20 55.5t-26.5 26t-27.5 3.5q-12 -3 -24 -1t-17.5 9t-2 17.5t23.5 22.5z" />
    <glyph glyph-name="ampersand" unicode="&#x26;" horiz-adv-x="1031" 
d="M1221 -173q34 -18 64.5 -26t52 -12.5t31.5 -8.5t4 -15q-9 -18 -31 -28.5t-54 -10.5t-72.5 11t-86.5 37q-128 72 -238 150t-204 160q-71 -45 -153 -70.5t-167 -18.5q-96 8 -163 48t-105 98.5t-46 129t12.5 139t70 129t128.5 98.5q-37 94 -41.5 173.5t24.5 138t92 91.5
t162 33q63 0 107 -21t66 -56.5t21 -82.5t-27 -99.5t-78.5 -106.5t-132.5 -104q45 -94 113.5 -195.5t161.5 -201.5q40 31 68.5 74t40.5 97q6 27 21 40t28.5 11t20.5 -20t-2 -53q-14 -51 -47.5 -102t-82.5 -97q92 -92 202 -176t240 -153zM485 1028q-43 0 -69 -23.5t-35 -65
t-1.5 -98.5t30.5 -125q50 36 81.5 73t47 71.5t17 65t-7 53.5t-25.5 36t-38 13zM444 153q44 -14 87 -14.5t85 10.5q-93 90 -164 178.5t-121 173.5q-31 -45 -40.5 -98t4 -102t50.5 -89t99 -59z" />
    <glyph glyph-name="quotesingle" unicode="'" horiz-adv-x="258" 
d="M72 614q-3 1 -6 17t-6 42.5t-5 60.5t-3 71t-1 74.5t1 71.5q1 35 15 54t35 24.5t46.5 0t50.5 -20.5q3 -2 5.5 -10t2.5 -27t-2 -52t-8 -84q-6 -55 -21 -98t-33 -72.5t-37 -43t-34 -8.5z" />
    <glyph glyph-name="parenleft" unicode="(" horiz-adv-x="647" 
d="M562 -194q27 10 33 -2t-13.5 -30t-67.5 -34.5t-129 -16.5q-61 0 -121 44t-107.5 122.5t-77 187.5t-29.5 238q0 141 20.5 253.5t54 198.5t75.5 148t84.5 101t81.5 57.5t67 18.5q37 0 70.5 -11t62.5 -29q21 -14 13 -24t-34.5 -15t-66 -5t-81.5 7q-27 4 -62 -43.5
t-65.5 -136.5t-52 -212.5t-21.5 -270.5q0 -101 15.5 -195t46 -169.5t76.5 -126t107 -64.5q37 -9 63 -5.5t58 14.5z" />
    <glyph glyph-name="parenright" unicode=")" horiz-adv-x="651" 
d="M231 1079q60 -11 125.5 -54.5t119.5 -116.5t89.5 -175.5t35.5 -231.5q0 -141 -22 -253.5t-57.5 -199t-80 -148t-89.5 -101t-85.5 -58t-67.5 -18.5q-38 0 -71.5 11.5t-62.5 29.5q-21 13 -12.5 23t35 15.5t66 5.5t81.5 -7q18 -3 41.5 17.5t47.5 61.5t48 100.5t42 134
t29.5 162.5t11.5 186q0 101 -16.5 196t-48 172t-77 132t-104.5 76q-24 9 -38 19t-14 17t17.5 9t56.5 -5z" />
    <glyph glyph-name="asterisk" unicode="*" horiz-adv-x="858" 
d="M723 445q-17 -5 -49 9.5t-70 40.5t-76.5 59.5t-67.5 65.5q5 -52 10 -116.5t9 -120.5q2 -27 -14.5 -47t-38 -32t-42 -16t-26.5 1q-13 12 -16 51.5t1.5 90t15 105t24.5 97.5q-21 -19 -47 -41t-54.5 -44t-57.5 -42t-56 -36t-48.5 -9.5t-36.5 23t-23 36.5t-9 30q-1 3 4 10
t20 19t42 30.5t71 45.5q28 17 54.5 29.5t51.5 20.5q-46 13 -95 29.5t-91 35.5q-30 13 -41.5 35t-9 47t17.5 49t37 41q2 2 10.5 1t26.5 -7.5t47.5 -21t74.5 -38.5q23 -13 43 -26t37 -27q-15 45 -27.5 94t-17.5 92q-4 34 13.5 58t45 36.5t60 13.5t59.5 -9q3 -2 6 -12.5
t6 -33.5t5.5 -59t4.5 -87q2 -54 -6 -96q33 31 70 62t72 54q23 15 44 16t39.5 -7.5t34 -23t26.5 -29t16.5 -26.5t4.5 -15q-4 -17 -35 -39.5t-76 -45t-96.5 -42t-96.5 -30.5q22 -9 48 -19.5t53 -22.5t54 -24.5t52 -24.5q39 -19 61 -41.5t24.5 -44.5t-15 -41t-57.5 -31z" />
    <glyph glyph-name="plus" unicode="+" horiz-adv-x="942" 
d="M542 395q69 -3 133 -7t112 -10.5t76.5 -15.5t27.5 -20q0 -5 -30 -13t-80 -17.5t-115 -19.5t-135 -19q-8 -73 -17.5 -141t-21 -120.5t-24.5 -83.5t-27 -29q-5 0 -12 29.5t-15 79t-16.5 114t-15.5 134.5q-63 -6 -118.5 -9t-100.5 -2q-85 2 -104 42.5t10 105.5q1 2 25 3.5
t65 2t95 1t114 -0.5q-5 69 -8 132t-2 111q1 42 18.5 65t45 31.5t61 3.5t65.5 -20q4 -2 5.5 -29t1 -72t-4 -103.5t-8.5 -122.5z" />
    <glyph glyph-name="comma" unicode="," horiz-adv-x="444" 
d="M202 216q36 17 70.5 15.5t61.5 -20.5t43.5 -54.5t16.5 -86.5q0 -39 -14.5 -83t-43 -80t-71 -57t-97.5 -13q-3 0 -6.5 3t-4 6.5t4.5 7t19 5.5q46 7 71.5 33.5t36 54.5t11 50t-2.5 21q-36 -11 -65 -11.5t-50 6.5t-35 20.5t-20 30.5q-6 18 -7 38t7 40.5t26 39.5t49 34z" />
    <glyph glyph-name="hyphen" unicode="-" horiz-adv-x="545" 
d="M257 346q41 0 82 -1.5t74 -5t55 -10t26 -15.5q2 -7 -11 -19.5t-37.5 -27.5t-57.5 -30.5t-69.5 -28.5t-74 -22t-71.5 -10q-42 -2 -69 8.5t-40 30t-13 47.5t13 61q2 6 19 10.5t43.5 7.5t60.5 4t70 1z" />
    <glyph glyph-name="period" unicode="." horiz-adv-x="402" 
d="M189 204q17 8 36.5 14.5t39.5 4t39 -16.5t35 -46t12 -60t-21 -49t-44 -34.5t-56.5 -16t-59 7t-51.5 33.5q-14 15 -17.5 36.5t5 44t28.5 44.5t54 38z" />
    <glyph glyph-name="slash" unicode="/" horiz-adv-x="954" 
d="M698 1101q29 40 56.5 57t53.5 14.5t50 -23t45 -55.5q1 -2 -20.5 -35.5t-59.5 -89t-89.5 -129t-110 -154.5t-121 -166.5t-123.5 -165t-116 -148.5t-99.5 -119t-74 -76t-38.5 -18q-4 3 16 43.5t55.5 106.5t84 151.5t103 178.5t111 188t108.5 179.5t96 152.5t73 108z" />
    <glyph glyph-name="zero" unicode="0" horiz-adv-x="716" 
d="M430 756q64 0 112.5 -24.5t80 -68.5t47.5 -105t16 -134q0 -99 -29.5 -176.5t-79 -131.5t-115 -82t-137.5 -28q-73 0 -128.5 24.5t-92.5 66.5t-55.5 99t-18.5 122q0 82 17.5 146.5t47.5 113t70 82.5t84 55.5t90.5 31t90.5 9.5zM382 108q32 0 62 15t53 48t37 84t14 123
q0 62 -9 120.5t-27.5 103.5t-46 72.5t-64.5 27.5q-32 0 -61 -21.5t-51 -63t-35.5 -102.5t-13.5 -140q0 -53 9.5 -101t27.5 -85t44.5 -59t60.5 -22z" />
    <glyph glyph-name="one" unicode="1" horiz-adv-x="464" 
d="M401 827h9.5t13 -2t11.5 -6.5t6 -14.5q3 -30 0.5 -77t-8 -104.5t-14 -122t-19 -128t-21.5 -122.5t-22.5 -106.5t-22 -79.5t-18.5 -42q-12 -14 -21 -19t-17 -4t-14.5 6t-13.5 12q0 27 1.5 71t5.5 96t9.5 107.5t13.5 105.5q-12 -11 -29 -20.5t-36.5 -17t-38.5 -12t-34 -4.5
q-40 0 -64.5 14.5t-35 39t-8.5 56t16 65.5q3 7 13.5 5t30 -4t48 -0.5t67.5 15.5q44 15 72.5 43t47 60.5t28.5 67t17 62t12.5 44.5t14.5 16z" />
    <glyph glyph-name="two" unicode="2" horiz-adv-x="896" 
d="M804 165q15 26 29.5 31t23 -3t8.5 -25.5t-14 -37.5q-41 -58 -94 -103t-114 -69.5t-126.5 -25t-131.5 29.5q-59 27 -101.5 47t-71.5 31q-23 -8 -47 -15.5t-47 -12.5q-5 -2 -15 -4q-4 0 -10 -2q-1 0 -12 0.5t-23 4.5t-21 12t-6 23q7 34 30 62t61.5 45t91 21.5t117.5 -8.5
q57 47 102 100t75 106t44 103.5t9.5 92t-28.5 71t-70 41.5q-53 13 -101 9t-87.5 -22t-68.5 -48.5t-42 -69.5q-9 -26 -27 -37.5t-33.5 -8t-22.5 22t6 52.5q17 43 57 87.5t97.5 77t129.5 47.5t153 -1q100 -19 152.5 -60t66.5 -95.5t-6.5 -118.5t-66 -129t-112 -127.5
t-145.5 -114.5q14 -5 26.5 -10t26.5 -10q50 -21 100 -32.5t95 -9t82 22t61 60.5z" />
    <glyph glyph-name="three" unicode="3" horiz-adv-x="809" 
d="M779 561q0 -39 -16 -76t-43.5 -70t-64.5 -60t-78 -46q33 -11 64 -26.5t55 -38.5t39 -53t15 -69q0 -59 -21.5 -106.5t-57 -85.5t-81.5 -65.5t-94 -45.5t-95 -27t-85 -9q-110 0 -169.5 27t-86 66t-29 81t1.5 72q6 42 26.5 67t48.5 35t59.5 5t57.5 -23q7 -5 2.5 -26.5
t-11.5 -51.5t-10.5 -63.5t5 -61.5t35 -46.5t79.5 -18.5q40 0 75 17t60 47t39.5 72t14.5 93q0 84 -20.5 137t-78.5 63q-7 0 -13 0.5t-13 1.5q-5 0 -7 1q-18 4 -25 14.5t-4.5 21t13.5 18t29 6.5q46 -3 75.5 8t47 34t24.5 57.5t7 78.5q0 46 -12 80t-31.5 56t-44.5 32.5
t-51 10.5q-20 0 -42 -3.5t-43 -10.5t-39.5 -17t-30.5 -22q-17 -17 -38.5 -21t-35.5 4t-13.5 26.5t27.5 47.5q16 17 44 32t62 26.5t69.5 18.5t65.5 7q70 0 132.5 -13.5t109.5 -41t74 -69t27 -97.5z" />
    <glyph glyph-name="four" unicode="4" horiz-adv-x="829" 
d="M623 193q26 6 51.5 13t46 11.5t34 6t15.5 -1.5q19 -38 25.5 -71.5t0.5 -60t-25.5 -44.5t-53.5 -25q-16 -3 -44 -4t-66 0q-4 -32 -9.5 -65t-11.5 -60.5t-12.5 -47.5t-12.5 -26q-13 -14 -35 -18.5t-45 -3.5t-42 6.5t-26 12.5q-1 0 1 21t5 51.5t6.5 66.5t6.5 68
q-67 4 -128.5 12t-112 18.5t-86 23t-51.5 27.5q-12 12 -18.5 24t-4.5 27.5t14 36.5t36 52q22 28 57.5 70t77 92t85 105.5t82.5 111.5q51 73 96 117t80 58.5t59 -1t33 -61.5q12 -64 2.5 -204t-30.5 -338zM438 175q3 75 3 164q0 56 -1.5 85.5t-3 47.5t-3.5 32.5t-3 40.5
q-38 -59 -81 -118t-82 -108t-70 -83.5t-44 -46.5q-1 -1 24.5 -4.5t66 -6.5t91 -4.5t100.5 1.5h3z" />
    <glyph glyph-name="five" unicode="5" horiz-adv-x="829" 
d="M488 751q52 6 100 20t84.5 27.5t59.5 22.5t26 4q21 -33 31 -69.5t9 -68t-13 -54.5t-34 -30q-19 -6 -53.5 -9.5t-77.5 -4t-92 1t-97.5 5.5t-93.5 10t-80 15l-24 -104q91 -26 180.5 -60.5t160 -83.5t112 -115t35.5 -156q-4 -64 -36 -120.5t-82.5 -103t-115.5 -80.5
t-135.5 -53t-142 -21t-134.5 16q-36 10 -42 25t5.5 28t34 19.5t43.5 0.5q79 -23 146.5 -7t117 56t77.5 96.5t28 115.5q0 60 -14.5 112t-52 97.5t-104 84.5t-169.5 72q-12 4 -18.5 8t-8 13.5t1.5 25.5t8 44q4 21 8.5 44.5t8.5 46.5t8 43t6 33q-1 14 3.5 26t10.5 20q1 1 13 -2
t46 -4.5t95.5 0.5t160.5 13z" />
    <glyph glyph-name="six" unicode="6" horiz-adv-x="752" 
d="M235 599q44 75 99.5 113.5t112 44.5t109 -17.5t91.5 -72.5t59.5 -121t12.5 -161q-6 -73 -29 -129.5t-57 -98.5t-75.5 -71t-85.5 -47t-87.5 -26t-80.5 -8q-57 0 -110 26.5t-92 80.5t-58.5 136t-9.5 193q7 77 27.5 153.5t52.5 146t76.5 129.5t98.5 105.5t118.5 73.5
t137.5 33q28 2 42.5 -6.5t17 -20t-6.5 -22t-28 -12.5q-81 -7 -139.5 -48t-98 -101t-62.5 -132t-35 -141zM490 358q8 94 -6.5 159.5t-42 100t-63 38.5t-68.5 -24t-59 -89t-34 -156q0 -9 -1 -13q0 -62 5.5 -115t19 -91.5t35 -60.5t52.5 -22q65 0 106.5 64t55.5 209z" />
    <glyph glyph-name="seven" unicode="7" horiz-adv-x="914" 
d="M884 651v-2q-11 -50 -68.5 -84.5t-145.5 -41.5q-48 -52 -89.5 -112.5t-76.5 -125t-62.5 -130.5t-48.5 -128.5t-34.5 -120t-19.5 -104.5q-3 -25 -24.5 -42.5t-52 -28t-64.5 -13.5t-61.5 0t-45 12t-13.5 24q22 96 73 199.5t119 205t148.5 195.5t162.5 170q-92 9 -191 49
q-50 21 -94 42t-81 29.5t-68 -1.5t-55 -51q-15 -26 -29.5 -31t-23 3t-8.5 25.5t14 37.5q82 117 187.5 142.5t237.5 -34.5q85 -39 150 -62.5t107 -27.5q20 14 39 25.5t37 22.5q21 12 35 11.5t23 -7t13 -17t6 -19t2.5 -13t1.5 0.5v2z" />
    <glyph glyph-name="eight" unicode="8" horiz-adv-x="825" 
d="M597 1005q48 -7 87.5 -26.5t65.5 -49t37.5 -67.5t3.5 -81q-6 -33 -22.5 -62.5t-39.5 -54t-50 -44.5t-54 -34q29 -18 58 -39.5t52 -47.5t37.5 -59t14.5 -73q0 -87 -41.5 -155t-110 -115t-156 -72t-180.5 -25q-84 0 -139.5 25t-86 66.5t-39 94.5t1.5 109q9 55 38 102.5
t69 85t87.5 62.5t94.5 36q-21 18 -39.5 38t-33 44t-22.5 52.5t-8 63.5q0 58 33 104.5t86 76.5t120 42.5t136 2.5zM346 101q46 0 83.5 14.5t64.5 41.5t41.5 66t14.5 89q0 36 -10 65t-28 53.5t-42 45t-51 38.5q-57 -6 -105 -29t-83 -54.5t-57 -66.5t-26 -65q-6 -39 2 -75
t31.5 -63t64 -43.5t100.5 -16.5zM672 776q11 63 -19 107.5t-93 58.5q-42 9 -80.5 3.5t-67.5 -21t-46.5 -41t-17.5 -57.5q0 -36 15 -63t40.5 -49t60 -41t74.5 -39q52 19 87.5 51t46.5 91z" />
    <glyph glyph-name="nine" unicode="9" horiz-adv-x="705" 
d="M428 759q57 0 105.5 -26.5t82.5 -80.5t49.5 -136t5.5 -192q-7 -78 -27 -154.5t-52.5 -146t-76.5 -129.5t-98.5 -105.5t-118.5 -73.5t-137 -33q-28 -2 -42.5 7t-17 20.5t6 21.5t27.5 12q54 4 99 24t81.5 51.5t65 71.5t50.5 84.5t37 92t24 92.5q-44 -73 -97 -110.5
t-107 -42.5t-103.5 19t-86 73t-55 120.5t-10.5 160.5q6 73 27.5 129.5t53 98.5t70.5 71t81 47t84 26t79 8zM242 407q-8 -89 7.5 -148t43.5 -88t63.5 -27.5t68.5 32.5t57 91t30 150q1 5 1 10.5t1 10.5q-4 127 -32 194t-78 67q-66 0 -107.5 -73.5t-54.5 -218.5z" />
    <glyph glyph-name="colon" unicode=":" horiz-adv-x="401" 
d="M188 205q17 8 37 11t40 -3.5t39 -24t34 -49.5q16 -32 12 -58.5t-21 -45.5t-43.5 -29.5t-56 -10.5t-59 11.5t-51.5 35.5q-14 15 -17.5 36.5t4.5 44t28.5 44.5t53.5 38zM240 557q-23 -2 -47 7.5t-42.5 26t-29.5 38.5t-9.5 45t19.5 46t57 42q17 8 37 14t39.5 4t38.5 -16
t35 -46q15 -31 12 -59t-18 -50t-39.5 -36t-52.5 -16z" />
    <glyph glyph-name="semicolon" unicode=";" horiz-adv-x="424" 
d="M246 557q-24 -2 -47.5 7.5t-42.5 26t-30 38.5t-9 45t20 46t57 42q17 8 36.5 14t39.5 4t39 -16t35 -46q15 -31 12 -59t-18 -50t-39.5 -36t-52.5 -16zM182 216q36 17 70.5 15.5t61.5 -20.5t43.5 -54.5t16.5 -86.5q0 -39 -14.5 -83t-43 -80t-71 -57t-97.5 -13q-3 0 -6.5 3
t-4 6.5t4.5 7t19 5.5q46 7 71.5 33.5t36 54.5t11 50t-2.5 21q-36 -11 -65 -11.5t-50 6.5t-35 20.5t-20 30.5q-6 18 -7 38t7 40.5t26 39.5t49 34z" />
    <glyph glyph-name="less" unicode="&#x3c;" horiz-adv-x="571" 
d="M529 615q81 27 116 3t29 -94q0 -3 -25 -15t-66 -29t-94 -37.5t-109.5 -42t-113 -41.5t-104.5 -35q48 -14 112 -33.5t126.5 -40t114.5 -38.5t76 -27q22 -9 36.5 -28t19 -42.5t-1 -47.5t-23.5 -42q-3 -3 -27.5 5t-62.5 23.5t-86.5 37.5t-99 46.5t-99.5 49t-89.5 46.5
t-68 39.5t-34.5 26.5q-6 4 -4 11t2 10q0 9 26.5 32t68.5 52t94.5 62t105.5 62.5t101 52.5t80 34z" />
    <glyph glyph-name="equal" unicode="=" 
d="M265 230q41 0 85 -1.5t81 -5t62 -10t28 -15.5q3 -7 -12.5 -18t-43 -23.5t-64 -25.5t-76 -24t-79 -18.5t-73.5 -8.5q-85 -4 -110 28.5t0 98.5q3 6 21 10.5t46.5 7.5t63.5 4t71 1zM265 430q41 0 85 -1.5t81 -5t62 -10t28 -15.5q3 -7 -12.5 -18t-43 -23.5t-64 -25.5t-76 -24
t-79 -18.5t-73.5 -8.5q-85 -4 -110 28.5t0 98.5q3 6 21 10.5t46.5 7.5t63.5 4t71 1z" />
    <glyph glyph-name="greater" unicode="&#x3e;" horiz-adv-x="725" 
d="M670 354q6 -4 4 -11t-2 -10q0 -9 -26.5 -32t-68.5 -52t-94.5 -62t-105.5 -62.5t-100.5 -53t-79.5 -34.5q-81 -26 -116.5 -2t-29.5 94q0 3 25 15t66 29t94 37.5t109.5 41.5t113 41t104.5 35q-32 9 -71.5 21t-82 25.5t-84.5 27.5t-79 26.5t-66.5 22.5t-45.5 17
q-22 8 -36 27.5t-19 42.5t0.5 47.5t23.5 42.5q3 3 27.5 -5t63 -23.5t86.5 -37.5t98.5 -46.5t99.5 -49t89.5 -46.5t68 -39.5t34.5 -26.5z" />
    <glyph glyph-name="question" unicode="?" horiz-adv-x="900" 
d="M599 1103q91 -17 147.5 -61.5t81.5 -102.5t20.5 -123.5t-36 -125.5t-88.5 -108t-136 -71q-86 -25 -146.5 -56.5t-99.5 -64.5t-58.5 -65t-24.5 -57q-2 -9 -16 -18.5t-29.5 -13.5t-26.5 1.5t-6 25.5q10 43 38 90t71 91.5t99.5 85t122.5 72.5q59 28 89.5 76.5t30.5 100.5
t-31 100t-94 75q-54 23 -103.5 25.5t-91 -13t-71.5 -47.5t-45 -77q-9 -26 -25.5 -37.5t-29.5 -7.5t-18.5 22.5t8.5 52.5q11 29 35 60t58 60t77 54t91 41t100.5 21t106.5 -5zM200 149q16 7 34 13t36 4t35.5 -15t31.5 -42t10.5 -53t-19 -41t-39.5 -26.5t-51 -9.5t-53.5 10
t-46.5 32q-26 28 -12.5 63.5t74.5 64.5z" />
    <glyph glyph-name="at" unicode="@" horiz-adv-x="1293" 
d="M687 569q98 64 146 29.5t29 -158.5q-20 -140 -19 -248.5t39 -183.5q7 -14 24.5 -19t40 1t46.5 24.5t44.5 53t33.5 85t13 121.5q0 108 -30 196.5t-86 151.5t-135.5 98t-177.5 35q-92 0 -172 -42t-139.5 -116t-93.5 -174.5t-34 -216.5q0 -143 52.5 -245t141.5 -162
t206.5 -77.5t247.5 10.5q46 10 78.5 26.5t56 35t40.5 36.5t31.5 31.5t29.5 19t35 -0.5q7 -2 -4 -29t-48 -62.5t-105 -72.5t-175 -60q-99 -21 -193.5 -17t-178 30t-153.5 72.5t-120.5 110t-79 142.5t-28.5 171q0 137 50 255.5t136.5 205.5t203 136.5t250.5 49.5
q114 0 214.5 -33t175.5 -94.5t119 -150t44 -198.5q0 -68 -20 -126t-52 -105t-73.5 -81.5t-85 -55.5t-85 -27.5t-74.5 3.5q-54 16 -94 48.5t-64 92.5q-10 -18 -22 -30q-29 -29 -63.5 -44t-79.5 -10t-79.5 30.5t-55.5 67.5t-27 99t6 125q13 71 48 121t79 78t91.5 33.5
t84.5 -11.5q3 20 10 25zM626 97q10 10 17.5 28t12 37t7 36.5t3.5 28.5q-1 11 -1 23v24v52t0.5 60t2 60.5t3.5 54.5q-23 7 -45 -6.5t-41 -43t-33 -71.5t-20 -92q-6 -56 2.5 -98t24 -67.5t34.5 -32.5t33 7z" />
    <glyph glyph-name="A" unicode="A" horiz-adv-x="1086" 
d="M1153 183q5 -6 -0.5 -19.5t-17 -30.5t-28 -36t-34.5 -35q-16 -15 -38 -27.5t-48 -21t-54.5 -12t-57.5 -0.5q-75 8 -123 62.5t-68 147.5q-57 9 -112.5 20t-103.5 25q-30 -65 -62 -115.5t-69 -84.5t-79.5 -49t-91.5 -7q-58 9 -93.5 32.5t-51.5 53.5t-15 61t15 54
q12 18 30.5 33.5t41.5 23t49 3t53 -25.5q4 -3 0.5 -15.5t-9.5 -30t-12.5 -37t-7 -36.5t6.5 -29.5t27 -15.5q48 -6 98.5 45t101.5 160q-47 17 -64 33q-14 13 -18.5 27t-3.5 27.5t6.5 25t12.5 18.5q1 1 34.5 -3t81.5 -9q9 24 18 49.5t17 53.5q22 66 44 122t48 101
q-69 -21 -142 -27.5t-142 10.5q-46 12 -80.5 38t-51.5 60.5t-12.5 74.5t37.5 80q4 5 20.5 -8.5t46.5 -33t74 -40t104 -30.5q58 -10 113 -4t104.5 20t92 32.5t75.5 35.5q21 15 43.5 27.5t41.5 21t32.5 11.5t18.5 0q7 -6 11.5 -8.5t4.5 -7.5t-5.5 -15t-17.5 -31
q-8 -14 -16.5 -46t-16.5 -76t-15 -96t-12.5 -105.5t-8.5 -105.5t-3 -95q0 -5 0.5 -10t0.5 -10q49 4 82 5t35 -4q18 -35 23 -68t-1 -59.5t-21 -44t-38 -21.5q-23 -5 -66 -3q10 -55 26 -76q8 -11 22 -18.5t30.5 -9.5t34 3t33.5 18q23 19 41.5 38t33.5 31t26 15.5t19 -6.5z
M521 387q45 -5 84.5 -8.5t63.5 -3.5h5v10.5t1 10.5q3 45 6.5 95t8 99.5t11 97t16.5 88.5q-5 -2 -9.5 -4.5t-9.5 -4.5q-38 -41 -72.5 -110t-70.5 -175q-8 -25 -16.5 -48.5t-17.5 -46.5z" />
    <glyph glyph-name="B" unicode="B" horiz-adv-x="822" 
d="M578 538q39 -8 76 -26t65.5 -45t45.5 -64t17 -84q0 -60 -18.5 -106.5t-49.5 -82t-72 -60.5t-86.5 -40.5t-92.5 -22.5t-90 -7q-80 0 -133.5 24t-82.5 72t-35.5 120t7.5 168q24 175 23.5 293.5t-7.5 180.5q-27 -17 -54 -36q-23 -17 -44.5 -19t-33 7t-7 27t33.5 41
q60 47 131.5 82.5t161.5 42.5q69 5 137.5 -6t123.5 -40t89.5 -78t34.5 -119q0 -30 -11 -60t-29.5 -59t-44 -55.5t-55.5 -47.5zM566 293q2 48 -6 84t-23.5 59t-36.5 34t-45 9q-8 -2 -17 -3.5t-18 -3.5q-20 -2 -29.5 7.5t-9.5 22.5t9.5 25.5t28.5 15.5q33 5 55 26t35.5 50
t19 62.5t5.5 63.5q0 49 -15 82.5t-41.5 54t-61.5 29t-75 7.5q13 -36 17 -86t1 -107t-11 -117t-18 -117q-17 -93 -26 -169.5t-4.5 -131t23.5 -84.5t57 -30q35 0 67.5 16t58 44.5t42 68.5t18.5 88z" />
    <glyph glyph-name="C.swsh" unicode="C" horiz-adv-x="437" 
d="M624 -319q-74 3 -149 18.5t-143.5 47t-128 81t-104 120t-69.5 163t-25 211.5q0 159 40.5 284.5t105.5 212.5t146 132.5t162 45.5q46 0 87 -16.5t73.5 -42t54 -55.5t27.5 -58q13 -60 1 -101t-40.5 -60.5t-68 -16.5t-79.5 31q-3 2 -3 19.5t-0.5 43.5t-4 56t-12.5 56.5
t-25.5 46t-44.5 24.5q-27 4 -61 -33t-63.5 -110t-50 -180t-20.5 -242q0 -153 40 -261.5t104.5 -178.5t144.5 -104.5t161 -39.5q77 -5 157 9t160.5 36t160 46.5t155 39.5t146 15t133.5 -26q41 -17 66 -46.5t37.5 -65t14.5 -73.5t-2 -72.5t-12 -62t-16 -41.5t-11.5 -13.5
t-8 11t-13.5 30t-29 43.5t-53.5 50.5t-86.5 51.5q-52 24 -112.5 31t-127.5 3t-140.5 -15t-151 -22t-158.5 -18.5t-163 -4.5z" />
    <glyph glyph-name="D" unicode="D" horiz-adv-x="838" 
d="M418 983q76 0 149 -31.5t130 -89t91.5 -139.5t34.5 -184t-23.5 -181.5t-63.5 -139.5t-92.5 -101.5t-110.5 -67.5t-117.5 -37.5t-113.5 -11.5q-31 0 -55 2t-42 13t-30.5 34t-20 65t-11 106t-3.5 158q0 186 1 298t1 165q-45 -36 -71 -104q-8 -20 -21.5 -28t-25 -5t-17 16.5
t2.5 36.5q18 51 54.5 93t89 71.5t119 45.5t145.5 16zM341 76q43 -6 86 9t77 62t55.5 133t21.5 222q0 100 -12.5 173.5t-42 120.5t-77.5 70t-120 23h-23q13 -22 20.5 -60t11.5 -89.5t5.5 -116t1.5 -138.5q0 -135 -0.5 -216t-1.5 -124q-1 -50 -2 -69z" />
    <glyph glyph-name="E" unicode="E" horiz-adv-x="640" 
d="M691 250q10 24 22.5 33.5t22 6.5t12 -18.5t-7.5 -41.5q-18 -44 -49 -86.5t-74.5 -77t-99 -55.5t-121.5 -21q-83 0 -154.5 15t-124 46.5t-82.5 80t-30 114.5q0 38 15.5 73t43 65.5t64.5 56t80 43.5q-28 13 -53 31.5t-43.5 42.5t-29.5 54t-11 67q0 85 34 146.5t90.5 100.5
t129.5 57.5t152 18.5q52 0 94.5 -14t73.5 -36.5t51 -52.5t27 -61q12 -53 -2 -95t-42.5 -66t-66.5 -27t-74 22q-3 2 0.5 21.5t7.5 48t5.5 60.5t-6.5 59.5t-28 46t-59 18.5q-35 0 -67 -13.5t-57 -40.5t-40 -67t-15 -92q0 -83 25 -128.5t68 -60.5q43 3 84 -3q30 -5 43.5 -19.5
t11.5 -30t-18.5 -27t-45.5 -9.5q-50 4 -93 -2t-75.5 -25t-51 -51t-18.5 -79q0 -40 14 -76t41 -63t66.5 -43t91.5 -16q43 0 85 13t78 35.5t64 53.5t42 68z" />
    <glyph glyph-name="F" unicode="F" horiz-adv-x="1021" 
d="M1491 950q12 17 28 19.5t27 -6t12.5 -26t-15.5 -39.5q-54 -74 -124.5 -124t-153.5 -77t-177 -31.5t-195 13.5q-36 -35 -63 -111.5t-41 -198.5q47 11 79 28t52.5 31.5t31.5 22t16 0.5q22 -31 26 -69.5t-12 -74.5t-51.5 -64t-91.5 -39q-46 -9 -95 -4q-27 -53 -66.5 -93.5
t-86.5 -66t-99.5 -35t-104.5 -1.5q-42 6 -75 21.5t-55.5 36.5t-33 46.5t-8.5 51.5q3 37 23 63.5t47.5 40t58.5 12.5t56 -20q4 -3 1.5 -18t-6.5 -36.5t-7 -45.5t0 -46t15 -38t38 -21q19 -3 38 10.5t36 40t32 64.5t28 84q-38 18 -71.5 39.5t-60 43t-45.5 42t-28 35.5
q-10 17 -6.5 27t11.5 16q4 3 23.5 -5t50 -21t70 -28.5t83.5 -25.5l3 18q11 64 28 114.5t39 88.5t49 65.5t58 46.5q-47 14 -94.5 31.5t-95.5 40.5q-68 31 -138.5 45t-133.5 6t-112.5 -42t-75.5 -99q-22 -55 -20.5 -109.5t24 -98.5t65.5 -71.5t105 -27.5q15 0 23.5 -9
t6.5 -19.5t-16 -19.5t-44 -9q-49 0 -91.5 19t-76 51.5t-56.5 75.5t-34 90t-9 95t19 92q24 63 66.5 108.5t95.5 76t114 46t122.5 18t120.5 -7.5t109 -30q153 -64 280.5 -104t231 -46t184.5 27t142 115z" />
    <glyph glyph-name="G.swsh" unicode="G" horiz-adv-x="885" 
d="M2249 -633q7 -53 -5 -97.5t-36.5 -80.5t-58 -62.5t-68.5 -44t-68.5 -26t-57.5 -6.5q-16 1 -13.5 4t14.5 11.5t29.5 25t32.5 44.5t23 69t0 99q-13 101 -75.5 180t-159.5 139.5t-221.5 104.5t-262.5 76t-282 53t-280 35q-63 -211 -189 -321.5t-297 -110.5q-73 0 -128 23.5
t-89.5 61.5t-46 87t2.5 100t56 100t115.5 87.5t179.5 61.5t248 23q1 16 1.5 33t1.5 35q-27 -17 -60.5 -27t-75.5 -10q-83 0 -145.5 35.5t-104.5 95t-63 137.5t-21 164q0 144 38.5 249t101 173.5t142 102t160.5 33.5q46 0 85.5 -16.5t69.5 -42t49.5 -56t25.5 -57.5
q12 -53 1 -92t-36 -59t-60 -20t-71 25q-3 2 -4 19l-2.5 42.5t-6 54.5t-14.5 55t-27 45t-45 24q-27 4 -58.5 -19.5t-59 -78t-45.5 -140.5t-18 -205q0 -73 9.5 -135.5t29.5 -111t51 -79.5t74 -41q23 -6 43.5 -2.5t37.5 13.5v44q0 35 3.5 81t9.5 87.5t13 71t14 31.5
q54 14 85.5 10.5t48 -22t21.5 -52t5 -79.5q0 -181 -30 -325q84 -8 189 -20t220.5 -30.5t235 -44.5t232.5 -61t214.5 -80.5t180.5 -103.5t129.5 -129t61.5 -158zM404 -434q45 0 78.5 18t58.5 58.5t40.5 104.5t24.5 156q-142 4 -232.5 -19.5t-137 -61t-52.5 -82.5t19 -83.5
t77 -64.5t124 -26z" />
    <glyph glyph-name="H.salt" unicode="H" horiz-adv-x="980" 
d="M2154 -100q3 -8 -6 -19t-25 -24t-36.5 -27t-39.5 -27q-103 -68 -217.5 -119t-238.5 -74.5t-255.5 -14.5t-268.5 62q-109 42 -186 104.5t-129 150t-80.5 201.5t-40.5 257q-34 -20 -65.5 -35.5t-61.5 -26.5q-15 -74 -44 -134.5t-71 -102.5t-95.5 -61.5t-117.5 -9.5
q-58 9 -95.5 32.5t-56 53.5t-19.5 61t14 54q11 18 27.5 31t37.5 17t45.5 -2.5t51.5 -27.5q6 -5 4.5 -16.5t-5.5 -27t-8 -32.5t-3 -32t10 -26t31 -14q17 -2 33 11t30 40t26 66t20 89q-33 2 -66 9t-68 20q-39 13 -68 42.5t-42.5 65.5t-7.5 74t39 68q9 7 16.5 -7.5t24 -38.5
t47.5 -49.5t85 -39.5q14 -3 27 -6.5t26 -5.5q2 19 2 38.5v39.5q0 98 -3 175t-0.5 136t14 102.5t41.5 74.5t60.5 33t54 -9t34.5 -28t2 -24q-27 -21 -33.5 -65.5t-3.5 -108.5t10 -146t7 -179q0 -12 -0.5 -24t-1.5 -24q28 5 55.5 14.5t56.5 24.5q-1 21 -1.5 52t-0.5 52
q0 89 18 175t50 161.5t76 137t96 101t110 55t118 -1.5q65 -18 90 -58t18 -94t-40.5 -118.5t-85.5 -132t-116.5 -134.5t-133.5 -126q6 -169 28.5 -294.5t69 -215.5t120 -147.5t179.5 -91.5q116 -36 224.5 -45t208.5 5t191.5 49t172.5 87q25 16 47.5 29.5t40.5 21t30 7
t17 -12.5zM1085 1111q-38 20 -72.5 11t-63.5 -38.5t-52.5 -77t-39.5 -105t-25 -121.5t-9 -127v-29.5t1 -29.5q38 38 83.5 85.5t88 98t77 101t51 95t9.5 80.5t-48 57z" />
    <glyph glyph-name="I" unicode="I" horiz-adv-x="611" 
d="M585 988q8 -8 4.5 -19.5t-11.5 -20.5l-13.5 -13.5t-13.5 -12.5q-14 -29 -14 -74.5t5 -105.5t11.5 -133t6.5 -157q0 -100 -24 -187t-68 -149t-107.5 -93t-141.5 -19q-58 9 -95.5 32.5t-56 53.5t-19.5 61t14 54q11 18 27.5 31t37.5 17t45.5 -2.5t51.5 -27.5q6 -5 4.5 -18.5
t-5.5 -31.5t-8 -38t-3 -38t10 -30.5t31 -15.5q24 -3 47 29.5t40 91.5t27.5 141t10.5 178q0 107 9 191.5t36 150.5q-30 -10 -65.5 -10.5t-80.5 12.5q-94 26 -141.5 19.5t-64.5 -54.5q-12 -35 -4 -59t22 -40.5t26 -26.5t8 -17q-13 -21 -36 -15.5t-43.5 28t-32 58t-2.5 73.5
q10 43 35 77.5t62.5 56.5t86.5 28t108 -8q72 -17 115 -21.5t71 2.5q11 11 23 21.5t25 21.5q18 13 31 14t19 -5z" />
    <glyph glyph-name="J" unicode="J" horiz-adv-x="658" 
d="M700 268h7t11.5 -3.5t7.5 -11.5t-4 -24q-8 -18 -48 -62.5t-110 -97.5q-18 -120 -52.5 -216t-85 -162.5t-117 -102.5t-147.5 -36q-57 0 -94 23t-52.5 60.5t-7.5 84.5t41 95t92 92.5t147 77.5q25 10 48.5 20.5t46.5 22.5q18 156 18 364q0 130 9 234t35 184
q-38 -24 -77 -47.5t-73 -50.5t-60.5 -58t-39.5 -69q-19 -56 -19 -95.5t11 -66t28.5 -42.5t33.5 -25t26.5 -14t6.5 -9q-13 -14 -40.5 -12t-59 17.5t-62 44t-50.5 67.5t-24.5 87t17.5 104q15 39 42 67.5t61.5 50.5t74 38t81 30.5t81.5 28.5t75 31q31 55 81 93q28 21 43 13.5
t10 -23.5q0 -8 -7 -21q-8 -12 -16.5 -23.5t-19.5 -22.5q-9 -36 -8 -91t6 -125.5t10.5 -154.5t5.5 -179q0 -104 -9 -197q27 22 49.5 42t38.5 35t25.5 24.5t12.5 10.5zM178 -376q73 0 121 86t73 245q-16 -8 -32.5 -15t-33.5 -14q-75 -29 -122.5 -62.5t-72 -67t-29 -65t6.5 -55
t34.5 -38t54.5 -14.5z" />
    <glyph glyph-name="K" unicode="K" horiz-adv-x="962" 
d="M973 106q20 22 38.5 41t33.5 30.5t27.5 14t20.5 -7.5q5 -6 -0.5 -20t-17 -31t-28 -36t-34.5 -35q-16 -15 -40 -29t-52.5 -23t-59 -12t-58.5 3q-39 9 -66 29t-46.5 48t-34.5 62t-30 70q-13 34 -22.5 58t-19.5 39t-22.5 20.5t-30.5 1.5q-7 -2 -13 -4.5t-13 -4.5
q-12 -75 -39 -138t-67.5 -106t-94 -63t-117.5 -10q-58 9 -97 32.5t-60 53.5t-24 61t11 54q12 18 29 31t38.5 17t47 -2t52.5 -27q6 -5 5 -18.5t-4 -32t-6 -38.5t-1 -37.5t11.5 -30.5t31.5 -16q18 -3 33.5 14.5t29 51t24 81.5t16.5 107q-17 3 -32 7t-30 10q-38 15 -67 39.5
t-42.5 55t-9 64.5t34.5 67q5 5 14 -6.5t26 -29.5t44.5 -38t69.5 -30q1 11 1 23v24q0 89 -5.5 171t-0.5 149.5t27.5 117t79.5 74.5q26 11 44.5 5t30 -18t16 -24.5t1.5 -14.5q-28 -21 -33 -65t0 -108.5t13.5 -146.5t8.5 -179v-37q25 4 50 16.5t52 39.5q31 31 49 79t27.5 102
t12.5 108.5t4 99t1.5 73.5t5.5 32q46 27 89.5 25.5t73 -25.5t41 -68.5t-5.5 -104.5q-40 -137 -108.5 -234.5t-150.5 -158.5q50 -1 87.5 -27t63.5 -65t42 -84.5t24 -85.5q3 -15 12.5 -29t23 -20.5t30 -3.5t34.5 23z" />
    <glyph glyph-name="L" unicode="L" horiz-adv-x="894" 
d="M854 135q21 22 39 41t33.5 30.5t27.5 14t20 -7.5q5 -6 -0.5 -19.5t-17 -31t-28 -36t-34.5 -35.5q-52 -49 -114 -70.5t-128 -21t-134 20.5t-132 53q-19 10 -37.5 19.5t-36.5 17.5q-22 -16 -43 -27q-38 -18 -84 -26.5t-86 -2t-67 31t-27 72.5q0 34 23.5 60t65 41t97 18.5
t119.5 -8.5q17 74 26.5 175t21.5 216q9 82 34.5 151t68.5 116.5t102.5 69.5t135.5 11q64 -10 103.5 -42.5t57.5 -72t14.5 -79t-25.5 -63t-61.5 -23t-93.5 39.5q-1 1 1.5 13t5 29.5t4 38.5t-1.5 39.5t-11.5 31.5t-26.5 16q-14 2 -28 -15t-27 -45.5t-24 -64t-20.5 -71.5
t-16 -67.5t-9.5 -51.5q-17 -106 -47 -205t-75 -177q14 -5 27 -11t27 -12q49 -23 102.5 -52t105 -47t97 -17.5t77.5 35.5zM240 138q4 2 6 4q-37 16 -67.5 27.5t-53 14.5t-35 -3t-12.5 -24q0 -21 13 -33.5t35 -15.5t51.5 4.5t62.5 25.5z" />
    <glyph glyph-name="M.calt" unicode="M" horiz-adv-x="1125" 
d="M1318 -112q30 21 48 23.5t23 -6.5t-3 -26.5t-32 -36.5q-63 -51 -131 -70t-133 -6.5t-122.5 57t-98.5 121t-61.5 185t-12.5 249.5q-15 -62 -32 -122t-37.5 -110.5t-45.5 -87t-55 -52.5q-13 -7 -31.5 -11.5t-36 -6t-32 0.5t-20.5 8q-36 41 -52 105.5t-18 152.5
q-23 -65 -50 -116t-60 -84.5t-73.5 -48t-89.5 -6.5q-58 9 -92.5 36.5t-50 61.5t-14 69t15.5 58q10 15 27 27.5t38.5 17t46.5 -1t50 -24.5q4 -3 1 -16.5t-8 -31.5t-10.5 -39t-5.5 -39t8 -31t28 -16q67 -8 126 94.5t106 328.5q9 42 16.5 89.5t16 94t18.5 89.5t24 77
q12 30 41 58.5t60.5 49.5t57.5 32t34 5q7 -6 11.5 -8.5t4.5 -7.5t-6 -15t-18 -31q-8 -14 -16.5 -46t-16.5 -76t-14.5 -96t-12 -105.5t-8.5 -105.5t-3 -95q0 -35 0.5 -82.5t1.5 -92t3 -77t5 -36.5t14.5 10t27.5 51t34 99.5t34 156.5q25 145 54.5 245t66.5 164q1 1 1 1.5
t1 1.5q12 30 41 58.5t60 49.5t57 32t34 5q7 -6 11.5 -8.5t4.5 -7.5t-5.5 -15t-17.5 -31q-8 -14 -16.5 -46t-16.5 -76t-15 -96t-12 -105.5t-8 -105.5t-3 -95q0 -65 6.5 -142t22.5 -150.5t41.5 -135.5t64 -97.5t90 -37t119.5 47.5z" />
    <glyph glyph-name="N" unicode="N" horiz-adv-x="984" 
d="M881 984q25 30 50 42.5t41.5 10t20.5 -18t-11 -42.5t-26.5 -56.5t-17 -80t-3.5 -130.5t14 -207q7 -70 1.5 -141t-19.5 -133.5t-36.5 -111t-50.5 -74.5q-11 -10 -30 -19t-39.5 -15.5t-38.5 -8.5t-25 3q-31 21 -65 61t-68.5 93t-67.5 115t-62 125q-16 34 -34 72.5t-38 78.5
q2 -67 0 -134t-10 -127.5t-23.5 -111.5t-41 -86.5t-61 -52.5t-83.5 -10q-58 9 -92 37.5t-48 63.5t-11.5 71t16.5 59q12 19 29.5 32t39 16.5t45.5 -3t50 -26.5q4 -3 0.5 -17t-10 -33t-12.5 -40.5t-7 -40t6.5 -32t27.5 -16.5q30 -4 51 22.5t34 74t18.5 113t5 139.5t-6.5 153
t-16 154q-4 29 -5.5 53t-2.5 44q-3 40 2 76.5t18.5 63.5t34.5 41.5t51 9.5q9 -2 14.5 -2t7.5 -4.5t2 -16t-1 -35.5q-1 -16 9.5 -48.5t28.5 -74.5t41.5 -91.5t48.5 -99t49.5 -96.5t45.5 -85q11 -20 29 -52.5t39 -69t43 -74.5t40 -69t30.5 -51.5t15.5 -22.5q4 -3 5.5 13.5
t-0.5 56.5t-7.5 105t-14.5 160t-9.5 170.5t8.5 136.5t28.5 108.5t52.5 85.5z" />
    <glyph glyph-name="O" unicode="O" horiz-adv-x="805" 
d="M763 304q18 7 36.5 15t34 12.5t26.5 4.5t14 -7t-8.5 -18t-31 -24t-45 -26t-52.5 -23q-27 -56 -63.5 -100t-82 -75t-99.5 -47.5t-114 -16.5q-91 0 -160.5 32.5t-117 90t-71.5 136.5t-24 172q0 119 34 222t94 178.5t140.5 118.5t173.5 43q18 0 40 -4.5t39.5 -11t27.5 -13.5
t4 -12q-21 -20 -35.5 -23t-29.5 1t-34 8t-47 -2q-50 -12 -84 -49.5t-56 -98t-31.5 -141.5t-9.5 -178q0 -81 12 -148.5t37 -116.5t63 -76t90 -27q113 0 162 115q-67 -4 -119 19.5t-89.5 65t-60.5 96.5t-30.5 115t-0.5 119t29 109.5t59 86.5t89 50q63 16 121.5 -1t104.5 -63.5
t73.5 -121t27.5 -174.5q0 -54 -10 -109.5t-26 -102.5zM480 817q-37 -11 -63 -41.5t-40 -72.5t-16.5 -91.5t6 -99.5t28.5 -96t51 -80.5t72.5 -53.5t94.5 -15q22 87 22 223q0 80 -10.5 145t-30.5 109t-49 64t-65 9z" />
    <glyph glyph-name="P" unicode="P" horiz-adv-x="916" 
d="M528 962q86 0 165.5 -25t140 -68t96.5 -101t36 -125t-20.5 -121t-56 -97t-83.5 -75t-102.5 -54t-112.5 -35t-114 -17q-17 -60 -45 -108t-66.5 -80.5t-86 -46.5t-103.5 -6q-58 9 -95 32.5t-55.5 53.5t-19.5 61t13 54q10 15 27 27t38.5 16.5t46 -0.5t50.5 -24
q6 -5 4.5 -17.5t-5 -29.5t-7.5 -35.5t-3 -35t9.5 -28t30.5 -14.5q16 -2 31 10t28.5 36.5t25 60t19.5 80.5q-8 2 -15 3t-14 3q-15 4 -18.5 15t2.5 22.5t20.5 19t35.5 4.5q5 39 7.5 82t2.5 91q0 108 14.5 203t46.5 172q-82 -22 -163.5 -85t-147.5 -174q-17 -28 -34 -37
t-26.5 0t-6 35.5t27.5 69.5q37 66 83.5 115t98.5 83.5t107.5 55t112.5 28.5q15 20 32 38t37 32q18 13 31 14t19 -5t4 -17t-15 -20q-16 -11 -28 -36zM491 302q52 5 97.5 25t79 57t52.5 92t19 130q0 61 -18 109t-49 82t-73 54t-91 24q-5 -39 -6 -87.5t-0.5 -102.5t2 -113.5
t1.5 -120.5q0 -76 -14 -149z" />
    <glyph glyph-name="Q" unicode="Q" horiz-adv-x="796" 
d="M789 -109q22 21 41.5 38t36 27.5t28.5 12t19 -9.5q4 -7 -2 -20t-19 -29t-31 -33t-37 -32q-53 -42 -102.5 -55t-98 -2.5t-98.5 41t-103 74.5q-3 3 -6.5 5.5t-6.5 5.5q-41 -25 -76 -42t-62 -26q-39 -14 -83.5 -11.5t-80 20.5t-55.5 50.5t-12 79.5q7 37 45 65t95 41.5
t126.5 8.5t139.5 -35q26 35 49 78t40 94.5t27 111.5t10 129q0 81 -12 155.5t-37 132t-63 91.5t-90 34q-105 0 -153.5 -98.5t-48.5 -296.5q0 -160 41.5 -232t114.5 -50q30 9 52.5 30.5t37.5 52.5q8 17 24.5 26.5t29 7.5t15 -17.5t-16.5 -49.5q-23 -40 -56 -69t-78 -40
q-63 -17 -122 -7t-105 48t-73.5 106t-27.5 168q0 105 31 199.5t87 166.5t133.5 114t170.5 42q91 0 160.5 -39.5t116.5 -105.5t71.5 -152t24.5 -179q0 -82 -21.5 -154.5t-57.5 -136t-83 -117.5t-97 -97q2 -2 3 -2.5t3 -2.5q40 -31 71 -64t58 -54t54 -24t59 27zM259 -85
q38 13 82 45q-43 24 -82.5 36.5t-70.5 14t-51 -8.5t-24 -30q-4 -21 5 -37.5t28.5 -24.5t48 -7.5t64.5 12.5z" />
    <glyph glyph-name="R" unicode="R" horiz-adv-x="1094" 
d="M1081 108q20 22 38.5 41t33.5 30.5t27.5 14t20.5 -7.5q5 -6 -0.5 -19.5t-17 -30.5t-28 -36t-34.5 -35q-16 -15 -40 -29t-52 -23t-58.5 -12t-59.5 3q-39 9 -66 24t-46.5 36.5t-34.5 50.5t-30 66q-14 35 -35 74.5t-48.5 71.5t-60.5 51.5t-72 15.5q-6 -90 -31 -166
t-66.5 -130t-99.5 -80t-130 -15q-58 9 -95.5 32.5t-56 53.5t-19.5 61t14 54q9 15 26 27t39 16.5t46.5 -1t50.5 -24.5q6 -5 4.5 -17.5t-5.5 -29t-8 -35t-3 -35t10 -28.5t31 -15q24 -3 46.5 27.5t40 87.5t27.5 137t10 176q0 121 18 225t60 184q-56 -5 -110.5 -28.5
t-99.5 -62.5t-77.5 -91t-45.5 -115q-6 -29 -22.5 -43t-33 -12.5t-27 18t-3.5 48.5q16 73 60.5 140t107 119t138 85t154.5 40q8 1 16 1.5t16 0.5q16 16 31 27q18 13 30.5 14.5t19 -4.5t5 -16t-11.5 -19q90 0 167 -16.5t134 -50t89.5 -86t32.5 -125.5q0 -58 -20 -102.5
t-53 -78t-76 -57t-88 -39.5q85 -25 137 -90t68 -153q7 -39 19.5 -66t28 -40t33 -11t35.5 22zM519 423q11 7 26.5 13.5t34.5 11.5q11 4 21 5q33 6 64 21.5t54.5 44t37.5 69.5t14 98q0 63 -17 104t-48.5 65t-77 34.5t-102.5 11.5q-7 -39 -9 -89t-1.5 -108t2 -122t1.5 -131v-28
z" />
    <glyph glyph-name="S.swsh" unicode="S" horiz-adv-x="833" 
d="M2352 -53q6 -20 7 -52t-6.5 -68.5t-25 -75t-47 -73t-73.5 -61.5t-104 -41q-181 -41 -369.5 -37.5t-374 51t-361.5 139t-332 226.5q-30 26 -57.5 49t-53.5 44q-75 -35 -157 -51.5t-155 -16.5q-68 0 -116 17.5t-76.5 46t-39 64t-3.5 72t30 69.5t61 56q31 19 70.5 29t91 2.5
t118.5 -35t154 -83.5q12 21 19 44.5t7 49.5q0 53 -22.5 90.5t-56.5 67.5t-73.5 57.5t-73.5 62t-56.5 79.5t-22.5 110q0 58 31.5 104t84 75t119.5 38t139 -7q45 -10 84 -28.5t69 -42t50 -51t26 -54.5q12 -51 -2 -89t-42 -58t-64 -20.5t-69 22.5q-3 2 -3 19.5t-1 43t-4 56
t-11.5 58t-25 49t-43.5 30.5q-45 13 -82.5 11t-64 -16t-41.5 -38t-15 -54q0 -37 17.5 -64.5t46 -50t64.5 -42t74 -40.5t74 -44.5t64.5 -54t46 -71t17.5 -93.5q0 -78 -33.5 -139.5t-88.5 -106.5q52 -40 106 -85q110 -91 221 -150.5t221 -93t219 -44.5t214.5 -6.5t207 21.5
t198.5 39q57 13 100 33t74 41t52 40.5t34 31.5t21 13t13 -14zM284 81q44 0 86 13t79 37q-70 51 -123 81.5t-92 44t-67 12t-47 -14.5q-28 -18 -32 -47.5t16 -57.5t64.5 -48t115.5 -20z" />
    <glyph glyph-name="T" unicode="T" horiz-adv-x="771" 
d="M1081 948q15 15 29 16.5t20.5 -6t3.5 -23t-23 -35.5q-38 -37 -84.5 -68.5t-101 -54.5t-115 -35t-125.5 -10q7 -62 14 -132.5t7 -148.5q0 -100 -27 -186.5t-75.5 -148.5t-114.5 -93.5t-144 -19.5q-58 9 -95.5 36.5t-56 61.5t-19.5 69t14 58q10 15 27 27t38.5 16.5t46 -0.5
t50.5 -24q6 -5 4.5 -18.5t-5.5 -32t-8 -38.5t-3 -37.5t10 -30.5t31 -16q24 -3 46.5 25.5t40 83.5t27.5 133t10 174q0 75 5 142t18 125q-26 7 -51 18q-64 25 -124 37.5t-109 8t-83.5 -29.5t-48.5 -74q-14 -51 -11 -88.5t17.5 -62t37.5 -35t48.5 -6t49.5 24.5t42 57
q12 26 32.5 39t42.5 12.5t43 -14.5t35 -42q11 -21 4.5 -49.5t-27 -55.5t-54 -49t-75.5 -31q-59 -13 -117.5 4.5t-101.5 59t-62 104t2 139.5q22 79 78 135t128.5 86.5t153.5 34.5t152 -21q19 -7 37.5 -13t36.5 -12q27 38 67 68q18 13 31.5 14t19.5 -5.5t3.5 -17t-15.5 -19.5
t-20 -24.5t-11 -36.5q144 -36 245.5 -29t158.5 64z" />
    <glyph glyph-name="U" unicode="U" horiz-adv-x="853" 
d="M874 136q25 34 48 47.5t33.5 8t4.5 -28.5t-38 -61q-21 -24 -50.5 -44t-64.5 -34t-72 -20.5t-73 -2.5q-51 6 -81 42t-46 93q-37 -60 -92.5 -98t-130.5 -38q-80 0 -146 33t-107 114t-51.5 217.5t20.5 343.5q11 72 24 119t25.5 74.5t23.5 39t17 12.5q76 14 115.5 9.5
t54 -27.5t10 -64t-14.5 -99q-32 -177 -40.5 -304t3 -208.5t43 -120t79.5 -38.5q57 0 95.5 54.5t48.5 148.5q-2 35 -2 73v77q1 90 8 178t16 158t19.5 114.5t19.5 47.5q63 19 103 19t59.5 -20.5t20 -61t-15.5 -100.5q-15 -58 -23.5 -122t-11.5 -128t-2 -125t5.5 -114
t11.5 -94.5t15 -66.5q7 -22 21 -36t33 -16.5t41 8.5t44 41z" />
    <glyph glyph-name="V" unicode="V" horiz-adv-x="708" 
d="M803 954q29 35 52 44t34 0t7.5 -32t-27.5 -53q-51 -66 -101 -181.5t-98 -264.5q-38 -116 -63.5 -193t-43.5 -127t-29 -79.5t-19 -50.5q-2 -5 -14 -9.5t-30 -6.5t-40.5 -1t-43.5 8q-43 14 -77.5 42.5t-63.5 81t-53.5 133t-47.5 198.5q-23 115 -42.5 195t-35.5 133t-28 84
t-20 48t-11.5 25t-1.5 16q3 15 21 24t41.5 12t48.5 1t44 -9q43 -15 71 -57t49 -104t37.5 -140t35.5 -164q16 -74 33 -147t31 -133q16 -70 31 -134q15 45 48 131.5t77 226.5q22 72 48.5 141.5t55.5 132t60.5 116t64.5 93.5z" />
    <glyph glyph-name="W" unicode="W" horiz-adv-x="1136" 
d="M1223 965q27 36 49 46.5t33.5 2.5t9.5 -31.5t-23 -54.5q-24 -34 -46 -83t-43 -108.5t-41.5 -127.5t-41.5 -139q-13 -43 -28 -94t-30.5 -102t-29.5 -98.5t-25.5 -85t-19 -60.5t-8.5 -25q-2 -2 -16.5 -5t-33 -4.5t-39 -1.5t-34.5 5q-43 14 -78 47t-61.5 91.5t-43 144.5
t-21.5 206q-1 22 -1 37.5v27.5t0.5 23t1.5 24q-5 -11 -9 -21.5t-8.5 -25t-10 -34.5t-12.5 -50q-29 -119 -48.5 -197.5t-33.5 -130t-23.5 -81.5t-17.5 -51q-2 -5 -13.5 -9.5t-29 -7.5t-39 -2t-42.5 9q-29 10 -58 35.5t-56.5 76.5t-54.5 134t-52 209q-23 115 -43 195t-36 133
t-28 84t-19.5 48t-11 25.5t-1.5 16.5q3 15 21 24t41.5 12t48.5 1t44 -9q43 -15 72 -57.5t50 -104t37 -139t34 -164.5q23 -118 39.5 -192.5t27.5 -118.5q12 -51 21 -76q8 29 27 111.5t52 224.5q24 100 42 178t34 139t31.5 107.5t33.5 82.5q5 16 11 16q54 4 92 -8.5t65 -36.5
q30 -27 39.5 -70.5t9.5 -99t-3.5 -120t0.5 -134.5q4 -73 10.5 -132t13 -106.5t13.5 -84.5t12 -67q15 50 32 105l31.5 108t35.5 124q21 75 43 146.5t46.5 135t51.5 118t58 96.5z" />
    <glyph glyph-name="X.swsh2" unicode="X" horiz-adv-x="885" 
d="M1525 1291q64 21 119 16.5t94 -29t57.5 -65t9.5 -91.5q-1 -6 -30.5 -6t-76 -1t-104 -8t-114.5 -26q-80 -27 -150.5 -59t-139 -73.5t-138.5 -94.5t-147 -121.5t-165 -154.5t-193 -193q58 -100 105 -163t84 -94.5t63.5 -35t44.5 15.5q21 22 39 40.5t33 30.5t27 14.5
t20 -7.5q5 -6 0 -20t-17 -31t-28.5 -36t-34.5 -35q-12 -12 -31.5 -23t-42.5 -20t-48 -14.5t-47 -6.5q-44 -2 -84 11.5t-78 42.5t-76 73t-78 104q-26 -27 -52 -54.5t-54 -56.5q-29 -31 -58 -55.5t-59 -40t-62 -22t-66 -1.5q-58 9 -91 39t-46 67t-9.5 74.5t17.5 60.5
q10 15 25 25.5t34.5 12.5t42.5 -5t48 -27q4 -3 1 -15.5t-8 -29t-10.5 -36t-5.5 -36t8 -28.5t28 -15q38 -5 80 27t94 95q23 27 45 53l44 52q-23 38 -47.5 80t-50.5 89q-57 102 -103 175t-80.5 123t-59 81t-40.5 49.5t-23 28.5t-7 18q0 16 15.5 28t38 19.5t48 9.5t45.5 -1
q45 -7 90 -43t89.5 -92t87.5 -127.5t83 -150.5q17 -33 32.5 -62.5t30.5 -57.5q173 185 313 320t261.5 230.5t232 157.5t225.5 101z" />
    <glyph glyph-name="Y" unicode="Y" horiz-adv-x="819" 
d="M893 195q19 33 38.5 41.5t31 0.5t11 -30t-21.5 -50q-25 -32 -72.5 -78t-121.5 -92q1 -89 -15.5 -174t-48.5 -160.5t-78 -139.5t-103.5 -110t-125.5 -71.5t-144 -25.5q-83 0 -140 38.5t-81 99t-12.5 134.5t65 145t152 131t248.5 93q27 6 54.5 14.5t55.5 19.5q-1 31 -1 60
v58q-36 -45 -85 -72t-112 -27q-80 0 -146 33t-107 114t-51.5 217.5t20.5 343.5q11 72 24 119t25.5 74.5t23.5 39t17 13.5q76 14 115.5 9t54 -28t10 -64t-14.5 -99q-32 -177 -40.5 -304t3.5 -208.5t43 -120t79 -38.5q53 0 91 48.5t51 132.5q2 171 8.5 295.5t16 206.5t21 123
t23.5 45q58 19 93 15.5t52.5 -26.5t20 -62t-4.5 -90q-5 -34 -14.5 -103t-19 -163.5t-16.5 -210t-7 -242.5q48 32 83 64t52 61zM313 -504q70 0 121.5 30t85.5 84t50 129t16 166q-47 -17 -104 -31q-95 -23 -164 -59.5t-111.5 -78.5t-57.5 -85t-2.5 -77.5t54 -56t112.5 -21.5z
" />
    <glyph glyph-name="Z" unicode="Z" horiz-adv-x="958" 
d="M1023 1004q60 21 103.5 13.5t62 -33t7.5 -64t-61 -80.5q-45 -37 -109 -61t-141 -33q-31 -58 -65.5 -124t-74 -134t-85 -134.5t-99.5 -126.5q2 -1 3.5 -1.5t3.5 -1.5q33 -16 67 -35t68 -37t67 -32.5t63.5 -19.5t57 1.5t48.5 29.5q20 22 38.5 41t33.5 30.5t27 14t20 -7.5
q5 -6 0 -19.5t-17 -31t-28.5 -36t-34.5 -35.5q-52 -49 -116.5 -69t-134.5 -18t-141 23t-135 54l-19 9.5l-19 9.5q-48 -33 -102 -57q-38 -17 -79.5 -19t-75.5 12t-56 44t-22 78q0 36 28 63.5t75 44t108.5 19.5t128.5 -9q28 50 59 109t65.5 120.5t73.5 124t83 119.5
q-56 6 -111 19.5t-109 34.5q-65 26 -116.5 32.5t-90.5 -1t-66.5 -25.5t-46 -40t-29.5 -45.5t-16 -42.5q-15 -56 -14 -95t12.5 -61.5t31 -29t41.5 4.5t44 39t39 74q10 27 31.5 42t47 17t50.5 -10t42 -38q13 -20 13 -46t-13 -53t-39 -52.5t-65 -43.5q-40 -19 -83 -22
t-82.5 8.5t-73.5 35.5t-56.5 60t-30.5 82t3 101q9 45 31.5 91t56 86.5t78 72.5t99 49t118.5 16t137 -26q85 -30 157.5 -55t134.5 -41q45 40 94 70.5t105 50.5zM283 98q23 13 47 39q-39 19 -72 31.5t-57 16t-37 -3.5t-13 -28q0 -26 8 -44t24 -26.5t41 -5t59 20.5zM1087 894
q28 20 34.5 36t-1.5 25.5t-27.5 10.5t-43.5 -9q-24 -11 -48 -35.5t-48 -60.5q82 -5 134 33z" />
    <glyph glyph-name="bracketleft" unicode="[" horiz-adv-x="593" 
d="M465 1264q34 -3 52.5 -17t23.5 -34.5t-2 -45.5t-22 -49q-2 -3 -10 -4.5t-27.5 -1.5t-52 3.5t-83.5 11.5q-33 5 -62 13t-53 18q1 -51 1 -125.5t-1 -165t-2.5 -193t-4 -208.5t-6 -212t-8.5 -203.5t-10.5 -182.5t-12.5 -149q14 1 32.5 0.5t44.5 -1.5q55 -2 99 -12.5
t74.5 -25.5t45.5 -32.5t12 -32.5q-1 -5 -34.5 -13t-83.5 -15.5t-108.5 -13t-108.5 -5.5q-4 0 -5 1q-2 -2 -5 -2q-4 0 -9 37t-11 101.5t-13 151.5t-13.5 187t-13 209t-12.5 217t-11 210.5t-8.5 190.5t-5 156.5t-0.5 107.5q2 79 33.5 109t83.5 20q25 2 60.5 3.5t76 1.5t82 -1
t78.5 -4z" />
    <glyph glyph-name="backslash" unicode="\" horiz-adv-x="867" 
d="M168 1046q46 -58 102.5 -134t117.5 -160t122 -170.5t114.5 -165t95.5 -143.5t66 -106q25 -43 29 -75t-9 -54.5t-41.5 -36t-69.5 -17.5q-2 0 -23.5 31t-56 84.5t-79 125t-94 153t-100 167.5t-97 168t-86 156t-66.5 131t-38 92.5t0 40.5q3 1 11 0.5t21.5 -8.5t33.5 -26.5
t47 -52.5z" />
    <glyph glyph-name="bracketright" unicode="]" horiz-adv-x="593" 
d="M445 1269q4 0 9 -37.5t11 -101.5t13 -151t13.5 -187.5t13.5 -209t13 -217t10.5 -211t8 -190.5t5 -156t0.5 -108q-2 -79 -33 -108.5t-83 -20.5q-25 -2 -61 -3t-76.5 -1t-82 1t-77.5 4q-35 2 -53.5 16t-23.5 35t2 46t22 49q2 3 10 4.5t27.5 1.5t52 -3.5t83.5 -11.5
q34 -5 62.5 -13t53.5 -18q-1 51 -1 125.5t0.5 165t2 193t4 208.5t6 211.5t8.5 203t10.5 182.5t12.5 149q-14 0 -32 0.5t-44 1.5q-55 2 -99.5 12.5t-75 25t-45.5 32t-12 32.5q1 5 34.5 13.5t83.5 16t108.5 13t108.5 5.5q2 0 3 -0.5t2 -0.5q4 2 5 2z" />
    <glyph glyph-name="asciicircum" unicode="^" horiz-adv-x="892" 
d="M641 1091q57 -55 100.5 -116t69 -115t30 -93t-14.5 -49q-4 -2 -21.5 9.5t-44.5 33t-60.5 51t-69.5 63t-72.5 69t-68.5 69.5q-24 -28 -53.5 -60t-60.5 -65t-63 -65t-61 -59q-36 -33 -67.5 -39t-57.5 8.5t-45.5 45.5t-29.5 70q-1 4 5 14t24.5 29.5t53.5 49.5t91 75
q87 69 164 99.5t125 26.5q32 2 63.5 -10t63.5 -42z" />
    <glyph glyph-name="underscore" unicode="_" horiz-adv-x="833" 
d="M410 146q27 0 74 -0.5t101.5 -2t110 -4t101.5 -6t76 -8.5t33 -11q2 -5 -25 -13.5t-73.5 -19t-108 -22t-129 -23t-135.5 -22t-128.5 -18.5t-108 -13.5t-72.5 -6.5q-42 -2 -69.5 8.5t-40.5 30t-12.5 47.5t12.5 61q2 4 25 7.5t58.5 6t79.5 4.5t87 3t81.5 1.5t62.5 0.5z" />
    <glyph glyph-name="grave" unicode="`" horiz-adv-x="475" 
d="M102 872q2 1 29 -14t65.5 -40t81.5 -55.5t78 -59.5t54.5 -52.5t11.5 -34.5q-4 -5 -32.5 -1.5t-73 17t-100 38t-112.5 61.5q-29 19 -41.5 37.5t-12 36t14 34.5t37.5 33z" />
    <glyph glyph-name="a" unicode="a" horiz-adv-x="607" 
d="M640 126q19 21 37 26t27 -2t4.5 -25t-29.5 -43q-15 -15 -38 -31.5t-50 -28.5t-56.5 -17.5t-58.5 -0.5q-88 15 -128 90q-10 -21 -26 -39q-29 -29 -64 -44t-80 -10t-79.5 30.5t-55.5 67.5t-27 99t6 125q13 71 48 121t79.5 78t91.5 33.5t84 -11.5q5 21 10 25q49 32 87 39
t61.5 -10t31 -57t-3.5 -101q-6 -34 -11 -76.5t-6.5 -85t2 -79.5t14.5 -59q8 -18 22 -30.5t31.5 -16t37 3.5t39.5 29zM274 97q11 10 18.5 28t12 37.5t7 37.5t3.5 29q-1 11 -1.5 22t-0.5 23v52t0.5 60t2 60.5t3.5 54.5q-23 7 -45 -6.5t-41 -43t-33 -71.5t-20 -92
q-6 -56 2.5 -98t24 -67.5t34.5 -32.5t33 7z" />
    <glyph glyph-name="b" unicode="b" horiz-adv-x="569" 
d="M413 572q44 -5 74 -30.5t45.5 -67.5t16.5 -99.5t-11 -125.5q-11 -61 -45.5 -109.5t-82.5 -81t-104.5 -47t-110.5 -8.5q-47 5 -80 21t-55 48.5t-33.5 84t-15.5 128.5q-2 36 0.5 99t7.5 136.5t12 150t14.5 139t14.5 103.5t13 43q62 26 104 27.5t64 -19.5t24 -62t-16 -101
q-28 -94 -54 -185.5t-39 -180.5q-1 -4 -1 -7.5t-1 -8.5q13 25 30 47.5t39 44.5q40 41 89 53.5t101 7.5zM354 284q6 56 0 97t-18.5 65.5t-29.5 31t-32 -5.5q-23 -20 -44 -50t-38 -68t-29.5 -82t-19.5 -92q4 -42 15.5 -72t34.5 -40q26 -11 52.5 5.5t49 49t38.5 76t21 85.5z
" />
    <glyph glyph-name="c" unicode="c" horiz-adv-x="484" 
d="M504 200q22 36 34.5 26t-1.5 -54q-13 -38 -42 -71.5t-71.5 -57.5t-96.5 -36t-116 -5q-52 6 -93 31t-67 67t-35 98.5t4 125.5q10 55 38.5 100.5t67 77.5t83 50.5t87.5 21t80.5 -12.5t60.5 -50q19 -28 19.5 -62t-11.5 -60.5t-34 -39.5t-49 0q-14 6 -19.5 22.5t-9 35.5
t-6.5 38t-12 31q-15 21 -32 15t-32.5 -32.5t-28 -70.5t-18.5 -99q-7 -59 7 -98.5t40 -61.5t61 -27t70.5 4.5t68 33.5t53.5 60z" />
    <glyph glyph-name="d" unicode="d" horiz-adv-x="586" 
d="M615 105q19 21 37 26.5t27 -1.5t4.5 -25t-29.5 -43q-31 -31 -84.5 -49t-113.5 -12q-42 5 -68.5 30.5t-41.5 67.5q-13 -26 -28 -41q-29 -29 -63.5 -44.5t-79.5 -10.5t-79.5 30.5t-55.5 67.5t-27 99.5t6 125.5q13 72 48 121t78.5 75.5t90 30t83.5 -15.5q3 68 9.5 140.5
t15 133t17 100.5t16.5 43q126 46 171.5 0.5t5.5 -163.5q-21 -62 -35 -127.5t-22 -129.5t-10 -124t-0.5 -111.5t7 -92t13.5 -65.5q4 -14 15 -29t26 -23t32 -6t35 22zM271 99q11 11 19.5 31.5t14.5 43.5t9 44t5 32q-3 48 -3 100t1 107v26q-23 10 -44.5 -1t-39.5 -37.5t-31 -66
t-19 -87.5q-6 -56 1.5 -98t22 -67.5t32.5 -33t32 6.5z" />
    <glyph glyph-name="e" unicode="e" horiz-adv-x="485" 
d="M515 231q11 18 20 24.5t14.5 2t5 -18.5t-7.5 -36q-13 -39 -50.5 -77t-86.5 -67.5t-102 -45.5t-98 -11q-53 6 -94 31t-67 66.5t-34.5 98.5t3.5 126q9 50 37 92.5t66.5 75t83.5 52.5t88 23.5t80.5 -10.5t60.5 -49q25 -39 19.5 -89t-35 -100.5t-79.5 -94t-114 -68.5l-4 -2
q13 -24 35.5 -35t50 -11.5t57.5 8.5t58.5 25.5t52.5 39.5t40 50zM202 289q-5 -42 0 -75q40 28 66.5 69.5t40 83.5t14.5 78t-10 53q-11 18 -27 13t-32 -31.5t-30 -74.5t-22 -116z" />
    <glyph glyph-name="f" unicode="f" horiz-adv-x="429" 
d="M426 555q22 -77 7 -115t-62 -38q-21 0 -50 5t-61 13q57 -78 95 -161t54.5 -158.5t10 -137t-36.5 -95.5q-33 -37 -76 -52.5t-85 -9t-77.5 36t-52.5 81.5t-26 119t-13 138.5t-4.5 142.5t0.5 130q0 13 0.5 25.5t1.5 26.5q-46 28 -66 55q-11 15 -13 30t1.5 28t11 23t15.5 16
q2 0 18 -6.5t42 -16.5q6 58 15 114t19 100t20 72t16 30q126 46 171.5 1t5.5 -163q-8 -25 -19 -56.5t-21.5 -61.5t-17.5 -54.5t-8 -34.5q43 -8 76.5 -11t57.5 -5t37 -4t14 -7zM335 -70q10 19 6.5 61t-19 95t-42 110t-62.5 106q0 -53 1.5 -109t4.5 -104.5t6.5 -84.5t8.5 -51
q7 -23 20 -35.5t27 -15t27 4.5t22 23z" />
    <glyph glyph-name="g" unicode="g" horiz-adv-x="537" 
d="M550 156q28 9 41.5 5.5t15 -13t-7.5 -21.5t-26 -18q-27 -11 -52 -20.5t-48 -20.5q-4 -53 -9.5 -106t-13 -102.5t-19 -92t-27.5 -72.5q-25 -48 -67.5 -71.5t-88 -24t-87 22t-65.5 65.5t-22 89.5t29.5 94.5t80.5 95t132 91q2 11 2.5 21.5t1.5 21.5q-29 -29 -63.5 -45
t-79.5 -11t-79.5 26.5t-56.5 58.5t-28 90t6 121q12 67 44.5 114t74.5 73t87 32t83 -7q2 35 16 60t40 35.5t64.5 3.5t88.5 -36q9 -5 10 -31t-3 -69t-12.5 -101.5t-18.5 -127.5q-5 -32 -8.5 -71.5t-6.5 -84.5q17 7 35 13.5t37 12.5zM273 142q26 25 38 59.5t17 59.5
q1 32 0.5 60t-2 56t-5 56.5t-8.5 61.5q-41 11 -69 -34t-39 -134q-8 -65 -1 -104.5t20 -59.5t27 -24t22 3zM264 -252q6 11 11.5 34.5t11.5 55.5t11 69.5t10 77.5q-57 -35 -93 -68.5t-54 -64.5t-19 -59t12 -53q8 -15 22 -24t30 -9t31.5 9.5t26.5 31.5z" />
    <glyph glyph-name="h" unicode="h" horiz-adv-x="570" 
d="M603 100q19 21 36 26.5t25 -2t2.5 -25.5t-30.5 -43q-31 -31 -76 -47t-103 -5q-81 14 -122 78.5t-41 192.5q0 64 -4.5 102t-12 56t-18 19t-22.5 -9q-8 -6 -17 -18t-19 -29t-18.5 -37.5t-14.5 -41.5q-5 -85 -1 -155.5t18 -116.5q3 -10 -9 -21.5t-33 -17.5t-47.5 -2.5
t-53.5 23.5q-11 8 -17.5 48.5t-10.5 100.5t-4 133.5t3 147.5q2 39 5.5 90t8.5 106t11 108t13 95.5t13.5 69.5t12.5 30q62 26 104.5 27.5t64.5 -19.5t24.5 -62t-15.5 -101q-23 -78 -40.5 -160.5t-29.5 -163.5q21 30 42.5 52t38.5 33q50 31 96 38.5t78.5 -7.5t47.5 -53t4 -99
q-6 -34 -10.5 -77.5t-5 -86t2 -80.5t10.5 -61q17 -54 49.5 -63t64.5 27z" />
    <glyph glyph-name="i" unicode="i" horiz-adv-x="294" 
d="M250 774q15 -29 11.5 -53.5t-18.5 -43t-39.5 -29t-51.5 -12t-54 7.5t-48 31q-26 27 -10 60.5t77 64.5q15 8 32.5 15.5t35 8t34 -10t31.5 -39.5zM323 118q19 21 37 26.5t27 -2t5 -25.5t-29 -43q-16 -15 -38 -29.5t-48.5 -25t-55.5 -15.5t-58 -2q-54 6 -85.5 38t-47 85.5
t-17 126t5.5 158.5q2 26 2.5 52t2 47.5t4.5 37t11 20.5q49 32 87.5 38.5t62.5 -10t31 -56t-6 -100.5q-13 -62 -19.5 -110t-8 -84.5t1.5 -62.5t9 -44q4 -15 18 -27t32 -17.5t38 -0.5t38 25z" />
    <glyph glyph-name="j" unicode="j" horiz-adv-x="277" 
d="M273 177q28 7 41.5 3t15 -13.5t-7.5 -20t-26 -16.5q-22 -8 -49 -17.5t-47 -17.5q-8 -62 -17 -122t-18.5 -113t-20 -95.5t-21.5 -67.5q-22 -50 -65.5 -73.5t-91.5 -23.5t-92.5 23t-68.5 66q-27 48 -25 100.5t31.5 105.5t86.5 103t142 93q6 56 9 104q4 72 0 152t-18 163
q-6 34 5.5 54.5t32.5 31.5t48 14t51.5 1.5t43.5 -5.5t24 -7q8 -4 8.5 -37t-3.5 -84q-1 -11 -4 -41t-7 -73t-9.5 -96t-12.5 -111q12 4 31.5 10t33.5 10zM-18 -251q7 19 14 48t13.5 64t12 74.5t10.5 79.5q-64 -36 -104 -72.5t-60 -71t-20.5 -67.5t14.5 -62q9 -15 25.5 -24.5
t35 -10t35 9t24.5 32.5zM259 797q15 -29 12 -53.5t-18.5 -43t-40 -29.5t-51.5 -12.5t-54 7.5t-47 31q-26 28 -10.5 61.5t76.5 64.5q16 7 33 15t34.5 8.5t34 -10t31.5 -39.5z" />
    <glyph glyph-name="k" unicode="k" horiz-adv-x="566" 
d="M599 100q19 21 36 26.5t25 -2t2.5 -25.5t-30.5 -43q-15 -15 -37.5 -27t-49.5 -19.5t-56.5 -9t-58.5 3.5q-37 7 -69.5 35t-44.5 69q-14 45 -36 75t-64 30q-68 0 -68 -56v-11q5 -54 16 -101q2 -11 -11 -21t-33.5 -14.5t-45 -1t-45.5 19.5q-7 5 -11 46t-5.5 102t-2 135
t-0.5 146q0 33 3 82.5t7.5 104t11 109.5t13 99.5t13 73t12.5 30.5q124 52 167.5 8t8.5 -163q-39 -133 -66.5 -261.5t-33.5 -247.5q14 24 41 65t69 108q14 22 27 45t24 42t21.5 31t20.5 13q58 5 97.5 -8t54.5 -39.5t3 -64t-58 -79.5q-25 -24 -50.5 -44.5t-50.5 -37.5
q63 -16 94.5 -60t48.5 -118q6 -25 18 -41.5t27.5 -23.5t32.5 -2.5t33 22.5z" />
    <glyph glyph-name="l" unicode="l" horiz-adv-x="282" 
d="M321 125q21 23 39 29.5t26.5 -0.5t3.5 -26t-29 -47q-14 -17 -38.5 -32.5t-53.5 -26.5t-61 -17t-61 -3q-54 6 -82 45t-40.5 101t-13.5 141.5t0 166.5q1 46 4.5 100.5t9.5 109t13.5 105.5t15 90.5t15 64.5t13.5 27q63 23 105 23t63.5 -22t22 -63.5t-19.5 -100.5
q-32 -93 -52 -193t-28.5 -189t-6 -160.5t16.5 -107.5q8 -21 23 -34t34 -16.5t40 4.5t41 31z" />
    <glyph glyph-name="m" unicode="m" horiz-adv-x="905" 
d="M939 98q19 21 36 26.5t25 -1.5t2.5 -25t-30.5 -43q-32 -31 -76.5 -47.5t-103.5 -5.5q-40 7 -70.5 22t-50.5 42.5t-30.5 70t-10.5 106.5q0 65 -4 103t-11.5 56t-18 18.5t-22.5 -8.5q-21 -16 -36.5 -47t-26 -70.5t-16 -84.5t-5.5 -90q4 -18 7 -37t8 -39q2 -11 -13 -20.5
t-38 -13.5t-50 -1t-48 17q-8 6 -15.5 15t-13 31t-8 62.5t-0.5 108.5q2 65 -3.5 103t-15.5 56t-22.5 18.5t-24.5 -8.5q-21 -16 -36 -46.5t-25.5 -69.5t-16 -83.5t-6.5 -88.5q7 -44 18 -86q3 -11 -11.5 -21t-37 -14.5t-48 -1t-46.5 18.5q-7 5 -13 33t-10.5 73.5t-7 106.5
t-2.5 133q0 59 3.5 108t9 84t12.5 55.5t14 22.5q54 15 86.5 11t47.5 -23t14.5 -52.5t-12.5 -77.5q-10 -38 -16 -74.5t-9 -71.5q22 63 53.5 111.5t68.5 71.5q50 31 93 38.5t72.5 -7.5t42 -53.5t1.5 -99.5q-2 -14 -4 -27.5t-4 -26.5q23 60 54 106.5t66 69.5q50 31 95.5 38.5
t77.5 -7.5t47 -53.5t3 -99.5q-6 -34 -10 -72t-5 -75.5t2 -70.5t11 -57q17 -53 49.5 -62t64.5 26z" />
    <glyph glyph-name="n" unicode="n" horiz-adv-x="594" 
d="M627 110q19 21 36 26.5t25 -2t2.5 -25.5t-30.5 -43q-15 -15 -36 -29t-45 -23t-51.5 -12t-56.5 2q-41 7 -71.5 22.5t-50.5 43.5t-30.5 71.5t-10.5 106.5q0 65 -4 103t-11.5 56t-17.5 18.5t-23 -8.5q-21 -16 -36.5 -47t-26 -70.5t-15.5 -84.5t-5 -90q3 -23 7.5 -44.5
t9.5 -41.5q3 -11 -11.5 -21t-37 -14.5t-48 -1t-46.5 18.5q-7 6 -13 34t-10.5 73.5t-7 106.5t-2.5 132q0 59 3.5 108t9 84.5t12.5 56t14 22.5q54 14 86.5 10.5t47.5 -23t14.5 -52.5t-12.5 -78q-10 -37 -16 -72t-9 -68q23 63 54.5 110.5t67.5 70.5q50 31 95.5 38.5t77.5 -7.5
t47 -53t3 -99q-6 -34 -10 -73t-5 -77t2 -71.5t11 -57.5q8 -27 22.5 -41t31.5 -16.5t35.5 5.5t34.5 26z" />
    <glyph glyph-name="o" unicode="o" 
d="M542 298q9 4 21.5 12t25 15.5l22.5 13.5t15 6q16 0 18 -19q1 -6 -9.5 -17.5t-27 -24.5t-37 -26t-40.5 -22q-14 -51 -42 -97t-68.5 -79t-92 -49.5t-111.5 -7.5q-53 7 -95.5 33t-69.5 68.5t-36.5 101t3.5 131.5q8 45 28.5 84t48.5 69.5t62.5 52t70.5 31.5q32 9 44.5 4.5
t14 -14.5t-4 -21t-8.5 -15q-9 -13 -21 -34t-22.5 -48t-18 -59.5t-9.5 -68.5q-3 -45 2 -86.5t17 -73t30.5 -50t42.5 -18.5q44 0 75 32t47 89q-58 -2 -91.5 20.5t-49 57t-15.5 76t9.5 79t25 65t32.5 34.5q30 13 68 2t71 -41t55 -76.5t21 -104.5v-12t-1 -13zM336 482
q-6 -9 -11 -27.5t-5.5 -41.5t4 -47.5t17 -45t34 -34.5t54.5 -15q3 27 3 57q0 57 -10 95.5t-25 57.5t-31.5 19t-29.5 -18z" />
    <glyph glyph-name="p" unicode="p" horiz-adv-x="563" 
d="M415 572q45 -5 74.5 -30.5t45 -67.5t16.5 -99.5t-11 -125.5q-10 -54 -34.5 -97.5t-57.5 -75t-71.5 -50.5t-75.5 -24.5t-69 3.5t-53 33q-6 7 -8.5 16.5t0.5 16t12 7t26 -9.5q23 -14 47 -0.5t44 45t35 76.5t21 95q13 112 3.5 164.5t-40.5 27.5q-13 -11 -35 -35.5t-46 -64
t-46 -94t-35 -126.5q-1 -5 -2 -8.5t-3 -7.5q-11 -117 -5.5 -224t27.5 -200q3 -11 -10 -21t-34 -14.5t-45.5 -1t-45.5 18.5q-7 5 -12.5 46t-9 102.5t-5.5 135.5t-2 145q0 33 2.5 82.5t6 104t9 109.5t11 99.5t11.5 73t12 30.5q37 16 72.5 14.5t59.5 -20t32 -56t-8 -93.5
q-2 -7 -4.5 -14t-4.5 -14q16 23 32 41t30 33q29 29 64 44.5t80 10.5z" />
    <glyph glyph-name="q" unicode="q" horiz-adv-x="603" 
d="M434 607q38 16 71.5 14t55.5 -19t29 -49t-8 -77q-65 -198 -79.5 -384.5t17.5 -373.5q4 -23 -13 -35.5t-42 -16t-53 2t-47 19.5q-5 3 -7 24t-2.5 54.5t0.5 76.5t3 90t5 96.5t6 95.5q-35 -63 -89 -97.5t-134 -26.5q-45 5 -74.5 30.5t-45.5 67.5t-17 99.5t11 125.5
q10 54 35 98t58.5 76.5t72.5 52.5t76.5 26t70 -2t53.5 -32q6 -7 8 -16.5t-0.5 -16t-11.5 -7.5t-26 10q-24 14 -48.5 -0.5t-45.5 -47.5t-36.5 -80t-21.5 -96q-6 -56 -3 -97.5t13 -66.5t24.5 -32.5t29.5 4.5q11 10 26.5 30t32 51t32.5 73.5t30 97.5q5 47 10.5 92.5t11 81.5
t11.5 59t11 25z" />
    <glyph glyph-name="r" unicode="r" horiz-adv-x="499" 
d="M362 668q40 16 73 13.5t55 -21t30.5 -52t0.5 -79.5q-5 -29 -20 -48.5t-34.5 -30.5t-40.5 -15.5t-38.5 -4t-28 5t-9.5 10.5q10 45 8 58.5t-20 11.5q-14 -1 -33.5 -25.5t-39.5 -62.5t-38.5 -86t-32.5 -96t-20.5 -92t-1.5 -75q1 -3 1 -9q2 -8 5 -16.5t5 -16.5
q4 -11 -10.5 -20.5t-37 -14t-48.5 -1.5t-47 19q-14 11 -21.5 91t-7.5 224q0 59 6 112.5t14 95t17.5 66.5t16.5 27q43 12 76.5 8t53.5 -21t24.5 -46.5t-8.5 -69.5q-16 -45 -29.5 -91t-21.5 -94q16 45 36 98.5t44 103.5t54 89.5t68 54.5z" />
    <glyph glyph-name="s" unicode="s" horiz-adv-x="562" 
d="M271 527q42 20 81.5 20t73 -16t59.5 -45.5t42.5 -68t22 -84t-3.5 -94.5q-14 -78 -58.5 -130t-103 -79t-123.5 -29.5t-120 17t-93 61t-42 103.5q-3 34 11.5 57.5t33.5 36t36.5 15t22.5 -4.5q3 -5 6 -9.5t6 -9.5q17 28 30 62.5t24 88.5q-35 11 -63.5 33t-42.5 64
q-14 41 -12 77t11.5 63t22 43.5t19.5 18.5q43 12 76.5 10t53.5 -17t24.5 -43t-8.5 -68q-6 -20 -9.5 -36t-3 -26t7 -13t19.5 3zM482 266q6 57 -15 83.5t-58 37t-84.5 12t-94.5 7.5q-7 -64 -18 -114.5t-29 -95.5q43 -40 91.5 -63.5t91.5 -19.5t75 39.5t41 113.5z" />
    <glyph glyph-name="t" unicode="t" horiz-adv-x="344" 
d="M398 571q-30 -11 -80 -16.5t-105 -5.5q-11 -60 -15.5 -119.5t-4.5 -113.5t5.5 -99.5t15.5 -76.5q6 -21 25.5 -29t44 -5.5t50 15.5t45.5 35q19 21 37 26.5t27 -2t4.5 -25.5t-29.5 -43q-28 -27 -57 -49t-59.5 -37t-61.5 -21.5t-62 -2.5q-54 6 -82 45t-40.5 100.5t-13.5 141
t0 166.5q0 52 3 112q-20 5 -36.5 11.5t-27.5 14.5q-15 10 -22 20.5t-8 20t2.5 18.5t9.5 17q1 1 26 0t60 -2q3 39 6 74t7 62t8.5 43.5t9.5 18.5q63 23 105 23t63.5 -22t22 -63.5t-19.5 -100.5q-2 -4 -3 -8t-3 -9q36 9 63.5 19t47 18t30 12t13.5 0q46 -65 45 -106t-46 -57z
" />
    <glyph glyph-name="u" unicode="u" horiz-adv-x="578" 
d="M607 100q19 21 37 26.5t27 -2t4.5 -25.5t-29.5 -43q-32 -31 -76.5 -47t-103.5 -5q-87 15 -127 90q-11 -22 -27 -38q-29 -29 -73.5 -44.5t-89.5 -10.5t-72.5 30t-42.5 67t-20 99.5t-3 126.5q1 40 4.5 79.5t9 72t13 54t16.5 24.5q60 22 98.5 20t57.5 -23.5t19.5 -60
t-16.5 -88.5q-15 -44 -26 -101t-5 -111q8 -63 24.5 -88t38.5 -5q11 10 21.5 28t18.5 37.5t13.5 37.5t6.5 29q-1 11 -1 22.5v23.5v84t1.5 93t6 78.5t12.5 38.5q49 32 87 39t62 -10t32 -56.5t-4 -100.5q-6 -34 -11 -77t-6 -85.5t2.5 -79.5t14.5 -59q6 -14 17 -29t25 -24t30 -8
t34 21z" />
    <glyph glyph-name="v" unicode="v" horiz-adv-x="579" 
d="M526 276q19 10 37.5 22.5t33.5 22t25.5 11.5t14.5 -9q3 -7 -7.5 -20.5t-29.5 -28.5t-44.5 -29t-53.5 -22q-28 -53 -67 -95.5t-81.5 -72t-85 -44t-77.5 -9.5q-58 7 -102 46t-59 108q-14 63 -18 133t-1.5 129t9.5 98.5t15 43.5q59 26 99 24.5t61.5 -23.5t25 -62t-9.5 -91
q-12 -45 -13.5 -104t5.5 -113q8 -63 29 -95.5t46 -14.5q23 17 47 54t43 85q-42 14 -68 45.5t-37.5 71t-10.5 82.5t12.5 80t32.5 63t48 31q34 7 65.5 6t57.5 -11.5t44.5 -31.5t27.5 -55q15 -60 10 -116.5t-24 -108.5zM345 551q-24 -15 -36 -53.5t-9 -83t23.5 -85.5t61.5 -60
q8 27 12 55t4 55q0 107 -17.5 146t-38.5 26z" />
    <glyph glyph-name="w" unicode="w" horiz-adv-x="906" 
d="M860 273q20 10 36 22t28 19.5t19.5 8.5t11.5 -11q3 -7 -4.5 -19t-23.5 -25t-39 -26t-52 -21q-27 -52 -65.5 -94.5t-80.5 -72t-84 -44t-77 -9.5q-43 5 -78.5 28t-58.5 63q-51 -48 -105 -72t-99 -19q-58 8 -102 46.5t-59 107.5q-15 68 -16.5 140t3.5 132t13 99.5t11 42.5
q49 32 87 39t62 -10t32 -56.5t-4 -100.5q-14 -80 -18.5 -146.5t0.5 -104.5q4 -31 12.5 -55.5t18.5 -39.5t22 -19.5t24 4.5q21 15 44 48.5t41 77.5q-8 59 -8.5 117.5t4 106.5t11.5 79t15 34q42 19 73 21.5t50.5 -8t28.5 -32.5t9 -52q8 -60 -1.5 -115.5t-32.5 -106.5
q-1 -15 -0.5 -30t2.5 -30q4 -31 16.5 -55.5t28 -39.5t32 -19.5t28.5 4.5q23 17 47.5 54.5t43.5 85.5q-42 13 -68 44.5t-37.5 71t-10.5 83t12.5 80t32.5 62.5t48 32q34 7 64.5 6t55.5 -11.5t43 -31.5t27 -55q16 -60 11.5 -117.5t-24.5 -110.5zM682 550q-16 -9 -26.5 -30
t-15 -48t-2.5 -57.5t11.5 -58.5t27.5 -51t46 -36q8 27 12 54.5t4 54.5q0 34 -5 67.5t-13 59t-18.5 38.5t-20.5 7z" />
    <glyph glyph-name="x" unicode="x" horiz-adv-x="692" 
d="M673 113q21 23 38.5 29t25.5 -1.5t2.5 -26t-32.5 -45.5q-43 -42 -105 -59t-128 -5q-29 5 -53.5 21.5t-44.5 40.5t-35.5 54.5t-26.5 62.5q-8 -11 -16 -24t-16 -27q-15 -23 -31.5 -46t-33 -41.5t-32.5 -30.5t-30 -13q-47 -5 -76.5 9.5t-38.5 40.5t4.5 59.5t52.5 66.5
q3 2 6 5l5 5q-46 39 -76.5 95.5t-30.5 121.5q0 53 18 90t44.5 60.5t58 34t58.5 10.5q42 0 76.5 -13t62 -36t49.5 -54.5t38 -67.5q5 8 11 17.5t12 19.5q14 22 27 45t24 41.5t21.5 30.5t20.5 13q58 6 97.5 -7.5t54.5 -40t3 -63.5t-58 -80q-42 -40 -86 -70.5t-83 -52.5
q21 -69 51.5 -112t62 -63t60.5 -18t49 24zM56 405q0 -52 23 -104t62 -88q35 26 70.5 46.5t67.5 35.5q-20 58 -36.5 94.5t-33 56.5t-35 27.5t-40.5 7.5q-34 0 -56 -18t-22 -58z" />
    <glyph glyph-name="y.salt" unicode="y" horiz-adv-x="536" 
d="M1950 -254q71 18 122 44t86 53t57 51t35.5 38.5t20.5 16.5t13 -15q6 -20 12 -56t3 -79.5t-18 -90t-49 -87.5t-91.5 -72.5t-145.5 -45.5q-103 -16 -236 -7.5t-279 32.5t-296.5 61t-289 77t-256 80.5t-197.5 72.5q-8 -30 -17 -56.5t-20 -48.5q-26 -49 -68 -80t-89.5 -43.5
t-95.5 -8t-87 25t-63.5 56.5t-24.5 86q0 45 19 87.5t59 72t102 42t147 -2.5q5 35 9.5 72.5t8.5 72.5q-26 -46 -65 -74.5t-95 -22.5q-45 5 -75 30t-47.5 67t-23 99t-0.5 126q3 45 7 87.5t8.5 76t11 55t15.5 24.5q60 22 99.5 18t60 -27t21.5 -63t-16 -90q-15 -45 -24.5 -102.5
t-2.5 -111.5q8 -63 24.5 -88.5t37.5 -4.5q13 12 23.5 34t18.5 49t14 57.5t9 60.5q-4 45 -8.5 83t-8.5 75q-5 47 10 80.5t43.5 50t68 13.5t83.5 -29q4 -2 4 -31t-3 -71t-7.5 -90t-8.5 -90q-4 -38 -7.5 -83.5t-7.5 -95.5t-9.5 -101.5t-12.5 -100.5q98 -34 222 -65t260 -56
t277.5 -42.5t274.5 -24t251 0t207 29.5zM54 -227q0 -58 26 -84.5t60.5 -25.5t69.5 27.5t54 75.5q5 14 11.5 43t14.5 67q-52 13 -95 11t-74.5 -16.5t-49 -39.5t-17.5 -58z" />
    <glyph glyph-name="z.swsh2" unicode="z" horiz-adv-x="547" 
d="M1459 -411q48 -47 69.5 -99t19.5 -99.5t-27.5 -87t-71.5 -61.5q-6 -3 -24 19.5t-47 58t-68 78.5t-85 82q-80 66 -171.5 120t-186.5 96t-190 71.5t-181 47.5q-2 -12 -4.5 -23.5t-6.5 -22.5q-17 -54 -53 -92t-81.5 -60t-95.5 -28t-94.5 4t-79 36t-48.5 69q-18 55 -4.5 97.5
t53 73t101.5 49t139 26.5q-40 47 -108.5 79.5t-165.5 34.5q-8 0 -18 15.5t-17 38.5t-9.5 49.5t4.5 48.5t26.5 35.5t56.5 11.5q48 -3 101.5 1.5t103 20t91 43.5t64.5 72q-45 -7 -100.5 -6t-110 8.5t-101.5 21t-74 32.5q-17 12 -25 23.5t-9 22.5t3 20.5t11 18.5q1 1 19.5 -2
t47 -6.5t63.5 -5t69 3.5q59 7 105.5 28.5t80.5 43t54 36.5t26 10q38 -33 49 -75.5t3 -80.5q-11 -72 -41.5 -123.5t-70 -86.5t-83 -56t-79.5 -32q-1 0 -2 -1q-2 -2 2 -2q42 -11 75.5 -34.5t58.5 -55.5t42 -70t26 -78q123 -5 259 -30.5t266 -71t245.5 -110.5t198.5 -147z
M365 -245q15 36 9 80q-66 7 -119 5t-88.5 -12.5t-51.5 -30.5t-7 -49t28 -48.5t43 -29.5t51 -10t52.5 10.5t47.5 31.5t35 53z" />
    <glyph glyph-name="braceleft" unicode="{" horiz-adv-x="833" 
d="M702 1215q27 -5 39.5 -13.5t12.5 -16.5t-11 -13t-30 -2q-91 13 -146.5 -8.5t-86.5 -66.5t-42.5 -108.5t-13.5 -134.5q-3 -100 -24 -173.5t-54 -125t-75 -84.5t-87 -52q33 -18 62 -49t51 -79t36 -114.5t16 -155.5q3 -90 14.5 -169t43 -134.5t87.5 -82.5t148 -14
q19 3 30 -2t11 -13t-12.5 -17t-39.5 -13q-104 -17 -192.5 9.5t-154 91.5t-103.5 167.5t-42 238.5q-4 141 -35 216t-100 87h-21.5t-19.5 1h-3q-6 -1 -11.5 0t-10.5 3q-22 5 -32 16t-9 22t11 18.5t28 6.5q48 -4 93 11.5t81 54t58.5 101.5t25.5 153q3 116 44 206t109.5 148.5
t159.5 82t195 7.5z" />
    <glyph glyph-name="bar" unicode="|" horiz-adv-x="833" 
d="M402 1245q2 -1 3.5 -48.5t2 -129t-0.5 -189t-3 -228.5t-5 -248.5t-8 -248.5t-11.5 -228t-14.5 -187t-17.5 -126t-21.5 -45q-4 0 -9 37t-11 101.5t-13 151.5t-13.5 187t-13 209t-12.5 217t-11 210.5t-8.5 190.5t-5 156.5t-0.5 107.5q1 49 14 79t36 42.5t54 9t69 -20.5z
" />
    <glyph glyph-name="braceright" unicode="}" horiz-adv-x="833" 
d="M746 469q22 -4 32.5 -14.5t10 -21t-10 -19t-27.5 -7.5q-48 2 -89.5 -15.5t-72 -57.5t-47.5 -103.5t-16 -153.5q2 -136 -43 -238t-121 -166.5t-174.5 -90t-203.5 -8.5q-27 4 -39.5 13t-12.5 17t11 13t30 2q92 -13 158 12t108 78.5t61.5 130.5t18.5 167q-1 97 13.5 168.5
t40 122.5t60 83.5t73.5 51.5q-30 18 -57.5 48t-49.5 76.5t-37 111.5t-21 153q-3 47 -10 93.5t-20 88t-34 76t-53 57.5t-76.5 32t-103.5 1q-19 -3 -30 2t-11 13t12.5 16.5t39.5 13.5q102 16 193 -5t160.5 -76t113 -142.5t51.5 -203.5q5 -71 11 -127t17 -96t30.5 -63.5
t51.5 -29.5h20.5t18.5 -1h2q12 1 22 -2z" />
    <glyph glyph-name="asciitilde" unicode="~" horiz-adv-x="0" 
d="M581 968q-63 -37 -123.5 -61.5t-114.5 -31t-100 8t-79 54.5q-15 18 -16.5 40.5t5 46t18.5 45t24.5 38t22 25.5t12.5 6q40 -45 79 -68.5t81 -28t89.5 8.5t104.5 43q60 31 115.5 35.5t101.5 -12t78.5 -51t47.5 -80.5q5 -16 0 -23.5t-13 -9.5t-16.5 -0.5t-9.5 4.5
q-14 27 -42.5 44.5t-68 21.5t-89.5 -8.5t-107 -46.5z" />
    <glyph glyph-name="exclamdown" unicode="&#xa1;" horiz-adv-x="389" 
d="M122 686q-14 29 -10.5 53t19 41t39.5 26.5t51 9.5t53.5 -10t46.5 -32q25 -28 11.5 -63.5t-74.5 -64.5q-15 -8 -33 -13.5t-36 -3.5t-35.5 15t-31.5 42zM265 533q6 -2 11 -37t8.5 -91.5t6 -129t3.5 -149.5t1 -152t-1 -136q-2 -62 -20 -96t-48 -44t-70.5 0.5t-86.5 37.5
q-5 3 -10.5 19.5t-7.5 52t1.5 92t15.5 139.5q22 147 43.5 246t45.5 157.5t50.5 79.5t57.5 11z" />
    <glyph glyph-name="cent" unicode="&#xa2;" horiz-adv-x="686" 
d="M484 717q-7 6 -24 4q-2 -69 -4.5 -148t-6 -160t-8 -160.5t-9.5 -149.5q47 -2 87 19t62 66q19 38 32 29t3 -54q-14 -52 -65.5 -89.5t-125.5 -53.5q-8 -81 -16.5 -130t-18.5 -48q-4 1 -9 47t-11 122q-24 -2 -48 -1.5t-50 2.5q-72 8 -119 45t-72 93t-29.5 125t8.5 140
q12 65 38.5 118.5t62.5 94.5t79 71t88 48q-5 100 -3 149q1 33 13 53t31 28.5t43 6t49 -13.5q2 -1 2 -53.5t-2 -138.5q41 2 74 -6t55 -26q27 -21 37.5 -53t7 -61t-20.5 -48t-46 -15q-15 2 -25.5 22.5t-19.5 45.5t-18 48t-21 32zM225 380q-6 -53 2.5 -96t28 -76t47 -56
t59.5 -35q-4 60 -8.5 126.5t-8 134.5t-7 134.5t-6.5 127.5q-37 -42 -67 -105.5t-40 -154.5z" />
    <glyph glyph-name="sterling" unicode="&#xa3;" horiz-adv-x="842" 
d="M790 143q4 -5 -0.5 -16t-13.5 -24t-22 -27.5t-27 -27.5q-41 -38 -89 -61.5t-100 -31t-105 1.5t-103 35q-25 13 -47 26t-42 24q-2 0 -3 -1q-31 -15 -66 -19.5t-63.5 1.5t-45.5 23.5t-11 46.5q10 51 65 66.5t142 -4.5q7 27 12 62h-13q-93 0 -119 26t5 77q5 8 44 10.5
t94 1.5q3 38 6 78t8 82q7 64 29 118t57.5 91t84 54.5t107.5 8.5q54 -8 88.5 -35t51 -59.5t14.5 -64.5t-20.5 -50t-53 -16t-83.5 37q-1 1 3 20.5t5.5 43.5t-4.5 44.5t-27 23.5q-11 1 -22 -12t-20.5 -35.5t-18.5 -50.5t-16 -56t-12.5 -52.5t-7.5 -40.5q-6 -34 -13 -67t-16 -65
q40 -2 78.5 -5t70 -6.5t52 -9t23.5 -11.5t-18.5 -15t-58.5 -19t-85 -19.5t-97 -16.5q-23 -56 -52 -96q15 -6 30.5 -12.5t31.5 -14.5q38 -18 79 -32.5t79.5 -19.5t73 3t59.5 35q32 35 60 52t42 1zM109 93q-3 -8 1 -15t14.5 -11t27 -3.5t38.5 8.5q-35 20 -55.5 27.5
t-25.5 -6.5z" />
    <glyph glyph-name="currency" unicode="&#xa4;" horiz-adv-x="1117" 
d="M1066 934q3 -5 -18.5 -31.5t-55.5 -64t-75 -79.5t-78 -76q-5 -5 -10 -8.5t-10 -7.5q24 -71 24 -162q0 -111 -37 -197q14 -14 36 -38.5t55 -66.5q34 -43 55 -83.5t29.5 -73t5.5 -55t-17 -29.5q-5 -2 -31 18.5t-62.5 54t-78 73.5t-75.5 77q-48 -48 -110 -73t-131 -25
q-85 0 -148 34q-18 -15 -42 -33q-43 -35 -83.5 -56t-73 -29.5t-55 -5.5t-29.5 17q-2 4 13.5 24t41.5 49.5t59 64.5t67 68q-23 38 -34 83t-11 96q0 94 22.5 164.5t60.5 121.5q-14 14 -33 36.5t-45 56.5q-34 43 -55 83.5t-30 73t-6 54.5t17 30q5 2 32 -19.5t64.5 -55t79 -74.5
t75.5 -78q2 -3 4.5 -5.5t4.5 -5.5q51 29 105 42t105 13q90 0 150 -49q14 14 35.5 32t51.5 41q43 34 83.5 55t73 30t54.5 6t30 -17zM540 188q32 0 62 15t53 48t37 84.5t14 123.5q0 62 -9.5 120.5t-28 103.5t-46 72.5t-64.5 27.5q-32 0 -60.5 -21.5t-51 -63t-35.5 -102.5
t-13 -140q0 -53 9.5 -101.5t27.5 -85.5t44.5 -59t60.5 -22z" />
    <glyph glyph-name="yen" unicode="&#xa5;" horiz-adv-x="934" 
d="M856 760q25 -5 27 -21.5t-14 -43t-48 -61t-75 -73.5q-32 -28 -77 -64t-93 -78q36 -2 61 -6.5t29 -12.5q2 -4 -8 -10.5t-28.5 -14t-44 -16t-54.5 -16.5q-2 -18 -2.5 -35.5t-2.5 -34.5q54 -2 93.5 -7t44.5 -15q2 -5 -8.5 -11.5t-31 -15t-48 -17t-58.5 -16.5
q-14 -109 -37.5 -167t-55.5 -53q-3 0 -7.5 15.5t-9.5 42t-10 61.5t-11 76q-12 -2 -24.5 -3t-23.5 -2q-79 -3 -101.5 20.5t0.5 73.5q2 4 13.5 6.5t30 5t42.5 4t50 2.5q-2 10 -2.5 19.5t-2.5 19.5q-8 -1 -14.5 -1t-13.5 -1q-79 -3 -102 20.5t0 73.5q3 6 27.5 10t61.5 6
q-37 34 -73 65t-67 57t-55.5 46.5t-39.5 32.5q-32 26 -39 49t3 42.5t35 35.5t58 28q16 6 41 -12t70 -66q37 -40 86 -95.5t103 -118.5q34 37 65.5 72t58.5 64.5t47.5 53t33.5 38.5q20 23 36.5 36.5t37.5 19t51 3.5t76 -11z" />
    <glyph glyph-name="brokenbar" unicode="&#xa6;" horiz-adv-x="268" 
d="M212 1262q3 -1 4 -35.5t1 -90t-2 -126t-6.5 -143.5t-11 -143t-15.5 -124t-20.5 -86.5t-26.5 -30.5q-7 1 -16 36t-18.5 91.5t-19 128.5t-16.5 146t-11 144t-3 123q1 98 43.5 121t117.5 -11zM212 352q3 -1 4 -35t1 -88.5t-2 -124t-6.5 -142t-11 -141t-15.5 -122
t-20.5 -85.5t-26.5 -31q-7 1 -15.5 35.5t-17 90t-17 126.5t-15 143.5t-9.5 141.5t-2 122q1 49 11 79t29 42.5t47 9t66 -20.5z" />
    <glyph glyph-name="section" unicode="&#xa7;" horiz-adv-x="936" 
d="M635 804q61 -61 116.5 -118t90.5 -109.5t42.5 -100t-26.5 -89.5q-37 -46 -82 -67t-90 -21q-36 0 -51.5 9.5t-14 21t18 20.5t45.5 7q26 -2 40 9t18.5 27t2 34t-9.5 32q-12 23 -41 55t-70 69t-92.5 78t-107.5 82t-114 81t-114 75q-52 32 -61.5 73.5t9.5 84.5t59.5 84.5
t88 75.5t95 56.5t81.5 27.5q29 4 46 -2.5t20.5 -17t-5.5 -21t-32 -13.5q-26 -3 -55.5 -13t-55 -26t-43.5 -37t-22.5 -45.5t8.5 -51t50 -53.5q34 -24 68.5 -52t68 -56.5t64 -56.5t55.5 -52zM759 100q52 -32 60 -73.5t-13.5 -84.5t-64.5 -84.5t-92.5 -75.5t-99 -56.5
t-82.5 -27.5q-29 -5 -46 2t-20.5 17.5t5.5 20.5t32 13q26 3 57 13.5t58.5 26.5t48.5 37t27.5 45.5t-5 51t-48.5 53.5q-17 12 -51.5 41t-79.5 69.5t-95.5 89t-98.5 100t-90 102t-70 95.5t-37.5 80.5t7.5 56.5q18 23 49.5 39.5t66.5 27.5t68.5 16t55.5 5q36 0 51.5 -10t14 -21
t-18 -20.5t-45.5 -7.5q-26 1 -50.5 -9.5t-42 -26.5t-25.5 -34t-1 -31q12 -23 43.5 -55t77 -69.5t101 -78t115.5 -82t121 -81t117 -74.5z" />
    <glyph glyph-name="dieresis" unicode="&#xa8;" horiz-adv-x="547" 
d="M111 813q13 9 29.5 14t33.5 3t33.5 -14.5t29.5 -38.5q13 -25 10.5 -48t-15 -41t-33 -29.5t-44.5 -12.5q-30 -2 -57.5 13t-40 39.5t-2.5 55t56 59.5zM354 820q15 7 32.5 12.5t35.5 3t35 -15.5t31 -42q13 -27 8 -51t-21 -43t-39.5 -30.5t-47.5 -13.5q-30 -2 -58 17
t-39.5 47t1 60t62.5 56z" />
    <glyph glyph-name="copyright" unicode="&#xa9;" horiz-adv-x="1200" 
d="M771 261q19 37 32 28t2 -54q-6 -23 -22.5 -51.5t-46.5 -52.5t-73 -38t-101 -8q-53 6 -94 31t-67 66.5t-34.5 98.5t3.5 126q10 55 38.5 100.5t67 77.5t83.5 50.5t88 20.5t80 -13t61 -50q19 -28 19.5 -61.5t-11.5 -60t-34 -40t-49 -0.5q-14 7 -19.5 23t-9 35.5t-7 38.5
t-12.5 31q-15 21 -32 15t-32.5 -33t-28 -71t-18.5 -98q-6 -56 3.5 -94.5t29 -60.5t45 -29t52 -0.5t49.5 25t38 48.5zM640 867q103 0 195.5 -34t162.5 -96.5t111 -149.5t41 -192q0 -96 -27 -174.5t-72.5 -140t-106.5 -106.5t-129 -74.5t-139.5 -43.5t-138.5 -14
q-83 0 -169.5 27t-157 84t-115.5 145.5t-45 211.5q0 98 28.5 177.5t76.5 141.5t109 107t127 74t130.5 43t118.5 14zM559 -81q40 0 86 8t91.5 27t87.5 52t74 83t51.5 119.5t19.5 161.5q0 94 -18 175t-59 141t-106.5 94t-160.5 34q-32 0 -73.5 -12t-86.5 -37.5t-88 -63.5
t-77 -90t-55 -118t-21 -146q0 -111 27.5 -192t73.5 -133.5t107 -77.5t127 -25z" />
    <glyph glyph-name="ordfeminine" unicode="&#xaa;" horiz-adv-x="607" 
d="M487 396q15 16 28.5 20t20.5 -1.5t3.5 -19t-22.5 -32.5q-12 -12 -29.5 -24.5t-38.5 -21.5t-43.5 -13.5t-44.5 -0.5q-67 12 -98 69q-7 -17 -20 -30q-22 -22 -49 -34t-61 -7q-34 4 -60.5 23.5t-42.5 51.5t-20.5 75.5t4.5 95.5q10 54 37 92.5t60.5 59.5t69.5 25.5t65 -8.5
q3 17 7 19q76 49 114 22.5t21 -120.5q-5 -26 -8.5 -59t-4.5 -65t1.5 -60.5t10.5 -45.5q6 -14 17 -23.5t24.5 -12t28.5 2.5t30 22zM207 374q8 8 13.5 22t9.5 29t5.5 28.5t2.5 21.5q-1 8 -1.5 16.5t-0.5 18.5v40t0.5 45.5t1.5 46t3 41.5q-17 6 -34 -4.5t-31.5 -33t-25.5 -55
t-15 -70.5q-5 -43 1.5 -75t18.5 -51.5t26.5 -25t25.5 5.5z" />
    <glyph glyph-name="guillemotleft" unicode="&#xab;" horiz-adv-x="868" 
d="M656 683q1 6 16 22t35.5 32.5t43.5 29t40 12t24 -18.5t-3 -63q-10 -42 -47.5 -88t-88.5 -88t-107.5 -77t-104.5 -56q42 -17 88 -52.5t88.5 -79t78 -90.5t58 -86.5t28.5 -67t-12 -32.5q-3 -1 -20.5 19.5t-44.5 52t-63 68.5t-76.5 69.5t-84 55t-86.5 24.5q-12 0 -30 18.5
t-29.5 41.5t-9.5 44t31 27q26 16 70 43t87.5 63t77.5 81t41 96zM159 372q42 -16 87 -50t86.5 -76t76 -87.5t56 -83.5t27 -65t-12.5 -32q-3 -1 -18.5 17t-40.5 45t-57.5 59.5t-70.5 60.5t-79.5 47.5t-84.5 21.5q-7 0 -19 10t-23.5 25t-21 33t-13 34.5t1.5 29.5t22 19
q13 10 38.5 27.5t56.5 41t63.5 51.5t60.5 60.5t47.5 68t24.5 72.5q1 4 15.5 16.5t36 26t45.5 23t42 8t26 -19t-1 -58.5q-7 -30 -28 -61.5t-51.5 -63.5t-68 -62.5t-76.5 -56.5t-77 -47t-70 -34z" />
    <glyph glyph-name="logicalnot" unicode="&#xac;" horiz-adv-x="854" 
d="M803 177q2 -42 -8.5 -69t-30.5 -40t-47.5 -13t-60.5 13q-3 1 -5.5 22.5t-3 53.5t0 69.5t3.5 72.5q2 23 7.5 42.5t13.5 33.5q-31 -10 -72.5 -21.5t-88.5 -23t-96 -22t-94.5 -19t-84 -14t-63.5 -6.5q-42 -2 -69 8.5t-40 30t-13 47.5t13 61q2 6 34.5 10.5t78 7.5t95.5 4
t86 1t90.5 -1t108.5 -4t99.5 -8t65.5 -12q5 0 9 -4l2 -2q1 -1 1 -1.5t1 -1.5q23 -38 44 -95t24 -120z" />
    <glyph glyph-name="registered" unicode="&#xae;" horiz-adv-x="1200" 
d="M640 867q102 0 194.5 -34t162.5 -96.5t111.5 -149.5t41.5 -192q0 -96 -27 -174.5t-72.5 -140t-106.5 -106.5t-129 -74.5t-140 -43.5t-139 -14q-55 0 -112.5 12t-111.5 36.5t-102 62t-83.5 89.5t-56 119t-20.5 149q0 98 28.5 177.5t76 141.5t109 107t127 74t130.5 43
t119 14zM558 -81q40 0 86 8t91.5 27t87.5 52t74.5 83t51.5 119.5t19 161.5q0 94 -18 175t-59 141t-106.5 94t-159.5 34q-32 0 -74 -12t-86.5 -37.5t-87.5 -63.5t-77 -90t-55 -118t-21 -146q0 -111 27.5 -192t73.5 -133.5t106.5 -77.5t126.5 -25zM838 500q0 -34 -16.5 -60.5
t-43.5 -46t-60.5 -33.5t-66.5 -23q48 -16 81 -52t51 -82q9 -21 18.5 -38.5t17 -30.5t11 -21.5t-0.5 -11.5q-15 -15 -40 -23t-53 -1t-56 32.5t-49 77.5q-12 30 -33.5 63.5t-50.5 48.5q1 -33 1 -64.5t-4 -59.5t-13.5 -50t-27.5 -36q-6 -5 -19 -10t-28.5 -9t-30.5 -6.5
t-24 -0.5q-2 0 -2 16t1 41.5t2.5 57.5t3 65.5t2.5 64t1 53.5q-1 51 -0.5 88t1 64.5t0.5 47v33.5q0 1 4.5 8t16.5 15.5t32 18t51 17.5q62 15 120 10.5t103 -25t72.5 -55.5t28.5 -83zM553 342q19 3 43 12.5t44.5 26t34.5 40t14 56.5q-1 39 -20.5 62.5t-47 34t-57.5 9
t-52 -14.5q14 -17 21 -39t10 -50.5t3 -62.5v-75v-1q4 2 7 2z" />
    <glyph glyph-name="macron" unicode="&#xaf;" horiz-adv-x="629" 
d="M141 666q-68 1 -83.5 34.5t7.5 84.5q1 2 23.5 3t59.5 1t83 -1.5t94 -4.5t94 -7.5t81.5 -10.5t57 -14t20.5 -18q0 -4 -20 -11t-53.5 -14.5t-77.5 -15.5t-92.5 -14t-98.5 -9.5t-95 -2.5z" />
    <glyph glyph-name="degree" unicode="&#xb0;" horiz-adv-x="633" 
d="M369 852q11 7 31.5 5.5t44.5 -11t49 -28t45 -46t32 -64.5t11 -84q-1 -63 -25 -124.5t-67 -109t-102.5 -73t-132.5 -14.5q-53 8 -95.5 34t-69.5 68.5t-36.5 101t4.5 131.5q8 44 28 83t48 69.5t62.5 52t70.5 31.5q32 9 44.5 4.5t14 -14t-4 -20.5t-8.5 -16q-9 -13 -21 -34
t-22.5 -48t-18 -59t-9.5 -68q-3 -46 2.5 -87.5t17.5 -73t30.5 -50t42.5 -18.5q31 0 56 17t43 48t27.5 75t9.5 98q0 55 -8 91t-20 55.5t-26.5 26t-27.5 3.5q-12 -3 -24 -1t-18 9t-2 17.5t24 22.5z" />
    <glyph glyph-name="plusminus" unicode="&#xb1;" horiz-adv-x="942" 
d="M891 482q0 -5 -30.5 -13t-80.5 -18t-115.5 -20t-136.5 -19q-6 -48 -13.5 -93t-16 -82.5t-18.5 -65t-20 -41.5q80 -2 158 -6t139 -10.5t98 -16t36 -22.5q0 -4 -22.5 -10.5t-60.5 -14.5t-89 -16.5t-108.5 -17t-119 -16t-120.5 -12.5t-112.5 -8t-95.5 -2q-85 2 -104 42.5
t10 105.5q1 2 31.5 3.5t81 2.5t116 0.5t135.5 -1.5q-5 13 -11.5 39t-13 60.5t-13 77t-12.5 88.5q-63 -6 -119 -9t-101 -2q-85 2 -104 42.5t10 105.5q1 3 25 4.5t64.5 2.5t94 1.5t113.5 -0.5q-5 54 -7 105t-1 96q1 42 18.5 65t45 31.5t61 3.5t65.5 -20q4 -2 5.5 -26t1 -63
t-4 -90t-8.5 -106q69 -3 133 -8t112 -11.5t76.5 -15.5t27.5 -20z" />
    <glyph glyph-name="twosuperior" unicode="&#xb2;" horiz-adv-x="540" 
d="M483 385q9 16 17.5 19t13.5 -1.5t5 -15t-8 -22.5q-24 -35 -56 -61.5t-68 -41.5t-75.5 -15.5t-78.5 17.5q-35 17 -60.5 28.5t-43.5 18.5q-29 -11 -56 -17q-6 -2 -9 -2q-1 0 -2.5 -0.5t-3.5 -0.5l-6.5 0.5t-14 2.5t-13 6.5t-3.5 13.5q8 42 54.5 64.5t124.5 7.5
q51 42 85.5 91.5t47 93.5t0.5 77.5t-54 44.5q-31 8 -60 5.5t-52.5 -13.5t-40.5 -29.5t-25 -41.5q-5 -15 -16 -22t-20 -5t-13.5 13t3.5 32q10 25 34 51.5t58.5 46t77.5 28.5t91 0q59 -12 90.5 -36t39.5 -56.5t-4 -71t-39 -77.5t-67 -76t-87 -68l16 -6l16 -6q30 -12 60 -19
t56.5 -5.5t48.5 13t37 35.5z" />
    <glyph glyph-name="threesuperior" unicode="&#xb3;" horiz-adv-x="437" 
d="M417 646q0 -42 -31.5 -78t-75.5 -56q17 -5 33.5 -13.5t29 -20.5t20.5 -28t8 -37q0 -46 -24.5 -80t-60 -56t-75 -32.5t-69.5 -10.5q-58 0 -89.5 14.5t-45.5 35t-15.5 42.5t0.5 38q3 22 14 35.5t26 19t31.5 3t30.5 -12.5q4 -3 1.5 -14t-6 -27t-5.5 -33.5t2.5 -32.5
t18.5 -25t42 -10q43 0 71.5 33.5t28.5 87.5q0 45 -11 73t-42 33h-6.5t-6.5 1h-4q-10 2 -13.5 7.5t-2.5 11.5t7 10t16 3q48 -4 64.5 22t16.5 72q0 49 -23 72t-50 23q-21 0 -45 -7.5t-37 -20.5q-9 -9 -20.5 -11t-19 2t-7.5 14t15 25q8 9 23 17t33 14t36.5 9.5t34.5 3.5
q37 0 70.5 -7t58 -21.5t39 -36.5t14.5 -51z" />
    <glyph glyph-name="acute" unicode="&#xb4;" horiz-adv-x="465" 
d="M414 809q0 -3 -24.5 -21.5t-62.5 -43.5t-83.5 -52.5t-86 -48t-70 -29.5t-36.5 3q-3 6 12 31t45 60t74.5 76t101.5 79t88 20t42 -74z" />
    <glyph glyph-name="mu" unicode="&#x3bc;" horiz-adv-x="617" 
d="M648 99q19 21 37 26t27 -2t4.5 -25t-29.5 -43q-32 -31 -76.5 -47t-103.5 -6q-44 8 -76 30.5t-52 60.5q-11 -24 -26 -39q-29 -29 -63.5 -44t-79.5 -10q-7 1 -13.5 2t-12.5 3q0 -4 -1 -7q-5 -59 -15 -111.5t-21.5 -93t-23 -65t-18.5 -25.5q-42 -8 -75 -4.5t-51.5 18.5
t-21 43t16.5 71q26 58 41 106.5t23 101t10.5 116t2.5 151.5l1 2v14q2 100 13.5 162t29.5 69q60 22 99.5 18t60 -27t21.5 -63t-16 -90q-14 -45 -18.5 -96.5t1.5 -105.5q8 -63 24.5 -88.5t38.5 -4.5q11 10 18.5 28t12 37.5t6.5 37.5t3 29q-1 11 -1 22v23v84.5t1.5 93.5t6 78.5
t12.5 38.5q49 31 87 38t62 -9.5t32 -56.5t-4 -101q-6 -34 -11 -76.5t-6 -85t2.5 -80t13.5 -59.5q6 -14 17 -29t25 -24t30.5 -7.5t34.5 21.5z" />
    <glyph glyph-name="mu" unicode="&#xb5;" horiz-adv-x="617" 
d="M648 99q19 21 37 26t27 -2t4.5 -25t-29.5 -43q-32 -31 -76.5 -47t-103.5 -6q-44 8 -76 30.5t-52 60.5q-11 -24 -26 -39q-29 -29 -63.5 -44t-79.5 -10q-7 1 -13.5 2t-12.5 3q0 -4 -1 -7q-5 -59 -15 -111.5t-21.5 -93t-23 -65t-18.5 -25.5q-42 -8 -75 -4.5t-51.5 18.5
t-21 43t16.5 71q26 58 41 106.5t23 101t10.5 116t2.5 151.5l1 2v14q2 100 13.5 162t29.5 69q60 22 99.5 18t60 -27t21.5 -63t-16 -90q-14 -45 -18.5 -96.5t1.5 -105.5q8 -63 24.5 -88.5t38.5 -4.5q11 10 18.5 28t12 37.5t6.5 37.5t3 29q-1 11 -1 22v23v84.5t1.5 93.5t6 78.5
t12.5 38.5q49 31 87 38t62 -9.5t32 -56.5t-4 -101q-6 -34 -11 -76.5t-6 -85t2.5 -80t13.5 -59.5q6 -14 17 -29t25 -24t30.5 -7.5t34.5 21.5z" />
    <glyph glyph-name="paragraph" unicode="&#xb6;" horiz-adv-x="1219" 
d="M1038 862q51 -65 84.5 -144t45.5 -171q4 -30 -8 -44t-28 -15.5t-31 7t-17 24.5q-8 67 -30.5 123.5t-54.5 104.5q-25 -87 -39.5 -181t-20.5 -177.5t-3.5 -149t12.5 -95.5q4 -15 15 -29.5t26 -22.5t32 -6t35 22q19 21 37 26.5t27 -2t5 -25.5t-29 -43q-32 -31 -78.5 -48
t-105.5 -10q-29 3 -50.5 16.5t-36.5 35.5q-32 -28 -76.5 -43t-100.5 -9q-36 4 -60.5 23t-39.5 50.5t-23 74t-11 92.5q-47 -14 -103 -9t-111.5 27.5t-105 62t-85 94t-51 123t-2.5 150.5q13 81 45 142t78 105t103 72.5t120 44t129.5 19.5t130.5 -1q54 -4 106.5 -20.5
t101.5 -45.5q8 25 14 39.5t10 15.5q65 17 107 12.5t61 -28t15.5 -64.5t-29.5 -98q-2 -6 -5 -12.5t-5 -12.5zM222 695q-11 -69 -4.5 -129.5t26 -109.5t50 -84t66 -53.5t75 -18.5t77.5 22q-1 33 -0.5 67.5t0.5 69.5q1 47 5 104.5t10 116.5t13.5 115.5t15.5 100.5t15.5 72
t13.5 30q1 1 2 1t3 1q-37 2 -75 1t-75 -10t-71 -28.5t-63 -54.5t-50.5 -87t-33.5 -126zM792 108l3.5 3.5l3.5 3.5q-10 32 -15 71t-7 83t-1.5 92t0.5 98q1 42 7 97t15.5 115t21 120.5t23.5 112.5q-17 11 -34 21.5t-34 19.5q3 -46 -19 -109q-21 -62 -37 -131t-26.5 -137.5
t-16 -134t-6.5 -121.5t2.5 -99.5t11.5 -68.5q4 -15 15 -29.5t26 -22.5t32 -6t35 22z" />
    <glyph glyph-name="periodcentered" unicode="&#xb7;" horiz-adv-x="402" 
d="M189 404q17 8 36.5 14.5t39.5 4t39 -16.5t35 -46t12 -60t-21 -49t-44 -34.5t-56.5 -16t-59 7t-51.5 33.5q-14 15 -17.5 36.5t5 44t28.5 44.5t54 38z" />
    <glyph glyph-name="cedilla" unicode="&#xb8;" horiz-adv-x="531" 
d="M242 -42q30 -2 72 -13.5t79.5 -33t63.5 -53.5t23 -76q-3 -48 -31 -81.5t-66.5 -54.5t-81 -30.5t-73.5 -9.5q-50 0 -84.5 15t-56 36.5t-30 44.5t-6.5 40q4 27 19.5 44t35 24t39.5 2t33 -23q4 -6 -1.5 -28t-5.5 -46.5t13 -44t54 -19.5q45 0 78 29.5t33 86.5
q0 52 -35.5 91.5t-109.5 46.5q-7 1 -11.5 2.5t-6.5 6.5t-3 14t-1 25q-1 15 -1.5 27.5t-1.5 24.5t-1.5 24.5t-0.5 28.5q0 8 14 16t30.5 10t30 -4.5t12.5 -28.5l-22 -93v0z" />
    <glyph glyph-name="onesuperior" unicode="&#xb9;" horiz-adv-x="307" 
d="M259 832q5 -1 15 -1.5t12 -13.5q2 -26 -1 -71t-10 -99t-16 -110.5t-19 -104.5t-19.5 -82t-16.5 -42q-15 -17 -24.5 -14.5t-18.5 11.5q0 17 1 46t3.5 62.5t6.5 70t9 68.5q-16 -14 -43 -24.5t-47 -10.5q-26 0 -42 9.5t-23 25.5t-5.5 36.5t10.5 42.5q1 4 8 3t20 -2.5
t31.5 -0.5t43.5 10q43 15 64.5 47t32 64.5t15 56.5t13.5 23z" />
    <glyph glyph-name="ordmasculine" unicode="&#xba;" horiz-adv-x="611" 
d="M478 533q7 3 17 9t20 12.5t18.5 11t11.5 4.5q13 0 15 -15q0 -5 -8 -14t-21.5 -19.5t-30 -21t-32.5 -17.5q-11 -41 -34 -78t-55.5 -64t-73.5 -40t-89 -6q-43 6 -77.5 26.5t-56 55t-29.5 81.5t3 106q7 36 23 67.5t39 56t50.5 41.5t56.5 25q26 7 36 3.5t11.5 -11t-3 -16.5
t-7.5 -13q-8 -10 -17 -27t-17.5 -38.5t-15 -47.5t-7.5 -55q-2 -37 2 -70t14 -58.5t24.5 -40.5t33.5 -15q35 0 60 26t38 72q-47 -1 -74 16.5t-39 45.5t-12 61t7.5 63.5t20.5 52.5t26 28q24 10 54.5 1.5t57.5 -33t44.5 -62t16.5 -83.5v-10t-1 -10zM312 680q-8 -11 -12 -38
t2 -55.5t25.5 -51.5t59.5 -24q1 11 1.5 22.5t0.5 23.5q0 46 -8 76.5t-20 46t-25.5 15.5t-23.5 -15z" />
    <glyph glyph-name="guillemotright" unicode="&#xbb;" horiz-adv-x="868" 
d="M450 488q7 -1 18.5 -9.5t22 -22t18.5 -29.5t10 -30.5t-5 -25.5t-26 -15q-27 -16 -70.5 -42.5t-87 -63t-77.5 -81t-41 -96.5q-1 -6 -16 -21.5t-35.5 -32t-43.5 -29t-40 -12t-24 18.5t3 63q10 42 47.5 88t88.5 88t107.5 77t104.5 56q-41 17 -85 52.5t-84.5 79t-74 90
t-54 86t-25 67t13.5 32.5q3 1 19 -19.5t41 -51.5t58 -68.5t71.5 -69.5t80.5 -54.5t85 -24.5zM740 528q11 -1 30.5 -21.5t33 -47t14 -51t-24.5 -32.5q-13 -10 -38.5 -27.5t-56.5 -40.5t-63.5 -51.5t-60 -61t-47.5 -68t-25 -72.5q-1 -3 -15.5 -16t-36 -26t-45.5 -23t-42 -8
t-26.5 19t1.5 59q10 44 51.5 93t96.5 94t115.5 81.5t108.5 56.5q-42 16 -85 50t-82.5 76t-72 87t-52 83.5t-23.5 65t14 31.5q3 1 17 -16.5t36.5 -44.5t52.5 -59.5t66 -60.5t76 -47.5t83 -21.5z" />
    <glyph glyph-name="onequarter" unicode="&#xbc;" horiz-adv-x="1464" 
d="M1089 1085q1 -2 -20.5 -35.5t-59.5 -89t-89.5 -128.5t-110 -154.5t-121 -166.5t-123.5 -164.5t-116 -149t-99.5 -119t-74 -75.5t-38.5 -18q-4 3 15.5 43.5t55.5 106.5t84.5 151.5t103 178.5t111 187.5t108.5 179t96 153t73 108.5t56.5 57t53.5 14.5t50 -23.5t45 -56z
M238 378q0 -2 -0.5 -0.5t0.5 0.5zM246 643q0 40 -2.5 70.5t-7.5 53.5q-23 -21 -50 -32.5t-58 -11.5q-40 0 -64 12.5t-34.5 34t-8.5 50.5t15 63q3 7 12 7t27 -0.5t45 2.5t66 17q43 15 72 43t47.5 61t29 66.5t17.5 60t12 41.5t13 12q8 -4 10 -9.5t0 -13.5q6 -39 6 -108.5
t-4.5 -152t-13 -170t-19.5 -162t-24 -128t-26 -67.5t-22.5 -18.5t-17 -3.5t-14.5 6t-14 12q1 2 2 12t2.5 38.5t2.5 79.5t1 135zM1268 193q26 6 51.5 13t46 11.5t34 6.5t15.5 -1q19 -38 25.5 -71.5t0.5 -60t-25.5 -44.5t-53.5 -25t-110 -5q-4 -32 -9.5 -64.5t-11.5 -60.5
t-12.5 -47.5t-12.5 -25.5q-13 -14 -35 -19t-44.5 -4t-42 6.5t-26.5 12.5q-1 0 1 21t5 52t6.5 67t6.5 68q-67 4 -128.5 11.5t-112 18t-86 23t-51.5 27.5q-12 12 -18.5 24t-4.5 27.5t14 36.5t36 52q22 28 57.5 70t77 92.5t85 105.5t82.5 111q51 73 96 117t80 58.5t59 -1
t33 -61.5q12 -64 2.5 -204t-30.5 -338zM1083 175q3 75 3 164q0 56 -1.5 86t-3 48t-3.5 32.5t-3 40.5q-38 -60 -81 -118.5t-82 -108t-70 -84t-44 -46.5q-1 -1 24.5 -4.5t66 -6.5t91 -4.5t100.5 1.5h3z" />
    <glyph glyph-name="onehalf" unicode="&#xbd;" horiz-adv-x="1607" 
d="M1525 169q15 26 29.5 31t23 -3t8.5 -25.5t-14 -37.5q-41 -58 -94 -103t-114 -69t-126.5 -24.5t-131.5 29.5q-58 26 -100 46t-72 31q-24 -9 -48 -16t-47 -12q-8 -3 -15 -3q-2 -1 -5 -1.5t-5 -1.5q-1 0 -12 0.5t-23 4.5t-21 12t-6 23q7 35 31 63t63.5 45.5t94 21
t122.5 -11.5q62 45 114.5 96t90 102.5t59 100t23 88.5t-19 69t-66.5 41q-53 13 -101 9t-87.5 -22.5t-68.5 -49t-42 -69.5q-9 -26 -27 -37.5t-33.5 -8t-22.5 22t6 52.5q17 43 57 87.5t97.5 77t129.5 47.5t153 -1q75 -14 121 -40.5t67 -61.5t20 -77.5t-21 -88.5t-56 -94
t-84 -94.5t-106 -90.5t-121 -82q11 -4 21 -7.5t21 -8.5q50 -21 100 -32.5t95 -9t82 22t61 60.5zM1089 1085q1 -2 -20.5 -35.5t-59.5 -89t-89.5 -128.5t-110 -154.5t-121 -166.5t-123.5 -164.5t-116 -149t-99.5 -119t-74 -75.5t-38.5 -18q-4 3 15.5 43.5t55.5 106.5
t84.5 151.5t103 178.5t111 187.5t108.5 179t96 153t73 108.5t56.5 57t53.5 14.5t50 -23.5t45 -56zM238 378q0 -2 -0.5 -0.5t0.5 0.5zM246 643q0 40 -2.5 70.5t-7.5 53.5q-23 -21 -50 -32.5t-58 -11.5q-40 0 -64 12.5t-34.5 34t-8.5 50.5t15 63q3 7 12 7t27 -0.5t45 2.5
t66 17q43 15 72 43t47.5 61t29 66.5t17.5 60t12 41.5t13 12q8 -4 10 -9.5t0 -13.5q6 -39 6 -108.5t-4.5 -152t-13 -170t-19.5 -162t-24 -128t-26 -67.5t-22.5 -18.5t-17 -3.5t-14.5 6t-14 12q1 2 2 12t2.5 38.5t2.5 79.5t1 135z" />
    <glyph glyph-name="threequarters" unicode="&#xbe;" horiz-adv-x="1747" 
d="M698 627q0 -45 -20.5 -81.5t-54 -65.5t-76 -50t-86 -35t-85 -20.5t-72.5 -6.5q-54 0 -107 13.5t-94.5 39.5t-64.5 64.5t-16 88.5q5 42 26 67t48.5 35t59 5t57.5 -23q7 -5 8 -22t1 -40t2.5 -49t12.5 -47.5t30 -35.5t56 -14q62 0 100.5 34t38.5 95q0 33 -11 56t-30.5 37.5
t-46 21.5t-57.5 7q-11 0 -17 8t-5.5 18.5t9.5 20t30 12.5q9 3 23 3q88 -8 131.5 28.5t43.5 128.5q0 30 -11 53.5t-28 39t-38.5 24t-43.5 8.5q-24 0 -52 -6.5t-55.5 -17.5t-51.5 -26t-40 -32q-23 -24 -43 -27.5t-30.5 6.5t-8.5 30t25 43q25 27 58.5 47.5t70.5 35t76.5 22
t76.5 7.5q65 0 124 -12t103.5 -35t71 -56.5t26.5 -77.5q0 -36 -14 -67t-38 -57.5t-56 -48t-69 -36.5q24 -7 44.5 -16.5t35.5 -23t24 -31t9 -39.5zM1372 1085q1 -2 -20.5 -35.5t-59.5 -89t-89.5 -128.5t-110 -154.5t-121 -166.5t-123.5 -164.5t-116 -149t-99.5 -119
t-74 -75.5t-38.5 -18q-4 3 15.5 43.5t55.5 106.5t84.5 151.5t103 178.5t111 187.5t108.5 179t96 153t73 108.5t56.5 57t53.5 14.5t50 -23.5t45 -56zM1698 223q19 -38 25.5 -71.5t0.5 -60t-25.5 -44.5t-53.5 -25t-110 -5q-4 -32 -9.5 -64.5t-11.5 -60.5t-12.5 -47.5
t-12.5 -25.5q-13 -14 -35 -19t-44.5 -4t-42 6.5t-26.5 12.5q-1 0 1 21t5 52t6.5 67t6.5 68q-67 4 -128.5 11.5t-112 18t-86 23t-51.5 27.5q-12 12 -18.5 24t-4.5 27.5t14 36.5t36 52q22 28 57.5 70t77 92.5t85 105.5t82.5 111q51 73 96 117t80 58.5t59 -1t33 -61.5
q12 -64 2.5 -204t-30.5 -338q26 6 51.5 13t46 11.5t34 6.5t15.5 -1zM1366 175q3 75 3 164q0 56 -1.5 86t-3 48t-3.5 32.5t-3 40.5q-38 -60 -81 -118.5t-82 -108t-70 -84t-44 -46.5q-1 -1 24.5 -4.5t66 -6.5t91 -4.5t100.5 1.5h3z" />
    <glyph glyph-name="questiondown" unicode="&#xbf;" horiz-adv-x="800" 
d="M261 -293q-91 17 -147.5 61.5t-81.5 102.5t-20.5 123.5t36 125.5t88.5 108t136 71q86 25 146.5 56.5t99.5 64.5t58.5 64.5t24.5 57.5q2 9 16 18.5t29.5 13.5t26.5 -1.5t6 -25.5q-10 -44 -38 -90.5t-71 -91t-99.5 -85.5t-122.5 -72q-59 -28 -89.5 -76.5t-30.5 -100.5
t31 -100t94 -75q54 -23 103.5 -25.5t91 13t71.5 47.5t45 77q9 26 25.5 37.5t29.5 7.5t18 -22.5t-8 -52.5q-11 -29 -35 -60t-58 -60t-77 -54t-91 -41t-100.5 -21t-106.5 5zM660 661q-16 -8 -34 -13.5t-36 -3.5t-35.5 15t-31.5 42t-10.5 53t19 41t39.5 26.5t51 9.5t53.5 -10
t46.5 -32q26 -28 12.5 -63.5t-74.5 -64.5z" />
    <glyph glyph-name="Agrave" unicode="&#xc0;" horiz-adv-x="1086" 
d="M1153 183q5 -6 -0.5 -19.5t-17 -30.5t-28 -36t-34.5 -35q-16 -15 -38 -27.5t-48 -21t-54.5 -12t-57.5 -0.5q-75 8 -123 62.5t-68 147.5q-57 9 -112.5 20t-103.5 25q-30 -65 -62 -115.5t-69 -84.5t-79.5 -49t-91.5 -7q-58 9 -93.5 32.5t-51.5 53.5t-15 61t15 54
q12 18 30.5 33.5t41.5 23t49 3t53 -25.5q4 -3 0.5 -15.5t-9.5 -30t-12.5 -37t-7 -36.5t6.5 -29.5t27 -15.5q48 -6 98.5 45t101.5 160q-47 17 -64 33q-14 13 -18.5 27t-3.5 27.5t6.5 25t12.5 18.5q1 1 34.5 -3t81.5 -9q9 24 18 49.5t17 53.5q22 66 44 122t48 101
q-69 -21 -142 -27.5t-142 10.5q-46 12 -80.5 38t-51.5 60.5t-12.5 74.5t37.5 80q4 5 20.5 -8.5t46.5 -33t74 -40t104 -30.5q58 -10 113 -4t104.5 20t92 32.5t75.5 35.5q21 15 43.5 27.5t41.5 21t32.5 11.5t18.5 0q7 -6 11.5 -8.5t4.5 -7.5t-5.5 -15t-17.5 -31
q-8 -14 -16.5 -46t-16.5 -76t-15 -96t-12.5 -105.5t-8.5 -105.5t-3 -95q0 -5 0.5 -10t0.5 -10q49 4 82 5t35 -4q18 -35 23 -68t-1 -59.5t-21 -44t-38 -21.5q-23 -5 -66 -3q10 -55 26 -76q8 -11 22 -18.5t30.5 -9.5t34 3t33.5 18q23 19 41.5 38t33.5 31t26 15.5t19 -6.5z
M521 387q45 -5 84.5 -8.5t63.5 -3.5h5v10.5t1 10.5q3 45 6.5 95t8 99.5t11 97t16.5 88.5q-5 -2 -9.5 -4.5t-9.5 -4.5q-38 -41 -72.5 -110t-70.5 -175q-8 -25 -16.5 -48.5t-17.5 -46.5zM414 1212q2 1 29 -14t65.5 -40t81.5 -55.5t78 -59.5t54.5 -52.5t11.5 -34.5
q-4 -5 -32.5 -1.5t-73 17t-100 38t-112.5 61.5q-29 19 -41.5 37.5t-12 36t14 34.5t37.5 33z" />
    <glyph glyph-name="Aacute" unicode="&#xc1;" horiz-adv-x="1086" 
d="M1153 183q5 -6 -0.5 -19.5t-17 -30.5t-28 -36t-34.5 -35q-16 -15 -38 -27.5t-48 -21t-54.5 -12t-57.5 -0.5q-75 8 -123 62.5t-68 147.5q-57 9 -112.5 20t-103.5 25q-30 -65 -62 -115.5t-69 -84.5t-79.5 -49t-91.5 -7q-58 9 -93.5 32.5t-51.5 53.5t-15 61t15 54
q12 18 30.5 33.5t41.5 23t49 3t53 -25.5q4 -3 0.5 -15.5t-9.5 -30t-12.5 -37t-7 -36.5t6.5 -29.5t27 -15.5q48 -6 98.5 45t101.5 160q-47 17 -64 33q-14 13 -18.5 27t-3.5 27.5t6.5 25t12.5 18.5q1 1 34.5 -3t81.5 -9q9 24 18 49.5t17 53.5q22 66 44 122t48 101
q-69 -21 -142 -27.5t-142 10.5q-46 12 -80.5 38t-51.5 60.5t-12.5 74.5t37.5 80q4 5 20.5 -8.5t46.5 -33t74 -40t104 -30.5q58 -10 113 -4t104.5 20t92 32.5t75.5 35.5q21 15 43.5 27.5t41.5 21t32.5 11.5t18.5 0q7 -6 11.5 -8.5t4.5 -7.5t-5.5 -15t-17.5 -31
q-8 -14 -16.5 -46t-16.5 -76t-15 -96t-12.5 -105.5t-8.5 -105.5t-3 -95q0 -5 0.5 -10t0.5 -10q49 4 82 5t35 -4q18 -35 23 -68t-1 -59.5t-21 -44t-38 -21.5q-23 -5 -66 -3q10 -55 26 -76q8 -11 22 -18.5t30.5 -9.5t34 3t33.5 18q23 19 41.5 38t33.5 31t26 15.5t19 -6.5z
M521 387q45 -5 84.5 -8.5t63.5 -3.5h5v10.5t1 10.5q3 45 6.5 95t8 99.5t11 97t16.5 88.5q-5 -2 -9.5 -4.5t-9.5 -4.5q-38 -41 -72.5 -110t-70.5 -175q-8 -25 -16.5 -48.5t-17.5 -46.5zM827 1109q0 -3 -24.5 -21.5t-62.5 -43.5t-83.5 -52.5t-86 -48t-70 -29.5t-36.5 3
q-3 6 12 31t45 60t74.5 76t101.5 79t88 20t42 -74z" />
    <glyph glyph-name="Acircumflex" unicode="&#xc2;" horiz-adv-x="1086" 
d="M1153 183q5 -6 -0.5 -19.5t-17 -30.5t-28 -36t-34.5 -35q-16 -15 -38 -27.5t-48 -21t-54.5 -12t-57.5 -0.5q-75 8 -123 62.5t-68 147.5q-57 9 -112.5 20t-103.5 25q-30 -65 -62 -115.5t-69 -84.5t-79.5 -49t-91.5 -7q-58 9 -93.5 32.5t-51.5 53.5t-15 61t15 54
q12 18 30.5 33.5t41.5 23t49 3t53 -25.5q4 -3 0.5 -15.5t-9.5 -30t-12.5 -37t-7 -36.5t6.5 -29.5t27 -15.5q48 -6 98.5 45t101.5 160q-47 17 -64 33q-14 13 -18.5 27t-3.5 27.5t6.5 25t12.5 18.5q1 1 34.5 -3t81.5 -9q9 24 18 49.5t17 53.5q22 66 44 122t48 101
q-69 -21 -142 -27.5t-142 10.5q-46 12 -80.5 38t-51.5 60.5t-12.5 74.5t37.5 80q4 5 20.5 -8.5t46.5 -33t74 -40t104 -30.5q58 -10 113 -4t104.5 20t92 32.5t75.5 35.5q21 15 43.5 27.5t41.5 21t32.5 11.5t18.5 0q7 -6 11.5 -8.5t4.5 -7.5t-5.5 -15t-17.5 -31
q-8 -14 -16.5 -46t-16.5 -76t-15 -96t-12.5 -105.5t-8.5 -105.5t-3 -95q0 -5 0.5 -10t0.5 -10q49 4 82 5t35 -4q18 -35 23 -68t-1 -59.5t-21 -44t-38 -21.5q-23 -5 -66 -3q10 -55 26 -76q8 -11 22 -18.5t30.5 -9.5t34 3t33.5 18q23 19 41.5 38t33.5 31t26 15.5t19 -6.5z
M521 387q45 -5 84.5 -8.5t63.5 -3.5h5v10.5t1 10.5q3 45 6.5 95t8 99.5t11 97t16.5 88.5q-5 -2 -9.5 -4.5t-9.5 -4.5q-38 -41 -72.5 -110t-70.5 -175q-8 -25 -16.5 -48.5t-17.5 -46.5zM770 1269q41 -39 72 -83t49 -82t21.5 -66.5t-10.5 -35.5q-3 -1 -15.5 7t-31.5 23.5
t-43.5 37t-50 45.5t-51.5 49.5t-49 49.5q-17 -20 -38 -43t-43.5 -46.5t-45 -46.5t-43.5 -43q-26 -24 -48.5 -27.5t-41 7t-32.5 32t-21 49.5q-1 3 3.5 10.5t18 21.5t38 35.5t64.5 53.5q63 49 118 70.5t89 19.5q23 0 45.5 -8t45.5 -30z" />
    <glyph glyph-name="Atilde" unicode="&#xc3;" horiz-adv-x="1086" 
d="M1153 183q5 -6 -0.5 -19.5t-17 -30.5t-28 -36t-34.5 -35q-16 -15 -38 -27.5t-48 -21t-54.5 -12t-57.5 -0.5q-75 8 -123 62.5t-68 147.5q-57 9 -112.5 20t-103.5 25q-30 -65 -62 -115.5t-69 -84.5t-79.5 -49t-91.5 -7q-58 9 -93.5 32.5t-51.5 53.5t-15 61t15 54
q12 18 30.5 33.5t41.5 23t49 3t53 -25.5q4 -3 0.5 -15.5t-9.5 -30t-12.5 -37t-7 -36.5t6.5 -29.5t27 -15.5q48 -6 98.5 45t101.5 160q-47 17 -64 33q-14 13 -18.5 27t-3.5 27.5t6.5 25t12.5 18.5q1 1 34.5 -3t81.5 -9q9 24 18 49.5t17 53.5q22 66 44 122t48 101
q-69 -21 -142 -27.5t-142 10.5q-46 12 -80.5 38t-51.5 60.5t-12.5 74.5t37.5 80q4 5 20.5 -8.5t46.5 -33t74 -40t104 -30.5q58 -10 113 -4t104.5 20t92 32.5t75.5 35.5q21 15 43.5 27.5t41.5 21t32.5 11.5t18.5 0q7 -6 11.5 -8.5t4.5 -7.5t-5.5 -15t-17.5 -31
q-8 -14 -16.5 -46t-16.5 -76t-15 -96t-12.5 -105.5t-8.5 -105.5t-3 -95q0 -5 0.5 -10t0.5 -10q49 4 82 5t35 -4q18 -35 23 -68t-1 -59.5t-21 -44t-38 -21.5q-23 -5 -66 -3q10 -55 26 -76q8 -11 22 -18.5t30.5 -9.5t34 3t33.5 18q23 19 41.5 38t33.5 31t26 15.5t19 -6.5z
M521 387q45 -5 84.5 -8.5t63.5 -3.5h5v10.5t1 10.5q3 45 6.5 95t8 99.5t11 97t16.5 88.5q-5 -2 -9.5 -4.5t-9.5 -4.5q-38 -41 -72.5 -110t-70.5 -175q-8 -25 -16.5 -48.5t-17.5 -46.5zM694 1053q-45 -27 -88 -44.5t-82 -22t-71.5 6t-56.5 39.5q-15 19 -10.5 45t16.5 48.5
t25.5 37.5t16.5 12q29 -32 56.5 -49t57.5 -20t64 6.5t75 30.5q43 22 82.5 25t72 -8.5t56 -36t34.5 -57.5q4 -12 0.5 -17.5t-9.5 -7t-12 0t-7 3.5q-11 19 -31 32t-48.5 15.5t-64 -6.5t-76.5 -33z" />
    <glyph glyph-name="Adieresis" unicode="&#xc4;" horiz-adv-x="1086" 
d="M1153 183q5 -6 -0.5 -19.5t-17 -30.5t-28 -36t-34.5 -35q-16 -15 -38 -27.5t-48 -21t-54.5 -12t-57.5 -0.5q-75 8 -123 62.5t-68 147.5q-57 9 -112.5 20t-103.5 25q-30 -65 -62 -115.5t-69 -84.5t-79.5 -49t-91.5 -7q-58 9 -93.5 32.5t-51.5 53.5t-15 61t15 54
q12 18 30.5 33.5t41.5 23t49 3t53 -25.5q4 -3 0.5 -15.5t-9.5 -30t-12.5 -37t-7 -36.5t6.5 -29.5t27 -15.5q48 -6 98.5 45t101.5 160q-47 17 -64 33q-14 13 -18.5 27t-3.5 27.5t6.5 25t12.5 18.5q1 1 34.5 -3t81.5 -9q9 24 18 49.5t17 53.5q22 66 44 122t48 101
q-69 -21 -142 -27.5t-142 10.5q-46 12 -80.5 38t-51.5 60.5t-12.5 74.5t37.5 80q4 5 20.5 -8.5t46.5 -33t74 -40t104 -30.5q58 -10 113 -4t104.5 20t92 32.5t75.5 35.5q21 15 43.5 27.5t41.5 21t32.5 11.5t18.5 0q7 -6 11.5 -8.5t4.5 -7.5t-5.5 -15t-17.5 -31
q-8 -14 -16.5 -46t-16.5 -76t-15 -96t-12.5 -105.5t-8.5 -105.5t-3 -95q0 -5 0.5 -10t0.5 -10q49 4 82 5t35 -4q18 -35 23 -68t-1 -59.5t-21 -44t-38 -21.5q-23 -5 -66 -3q10 -55 26 -76q8 -11 22 -18.5t30.5 -9.5t34 3t33.5 18q23 19 41.5 38t33.5 31t26 15.5t19 -6.5z
M521 387q45 -5 84.5 -8.5t63.5 -3.5h5v10.5t1 10.5q3 45 6.5 95t8 99.5t11 97t16.5 88.5q-5 -2 -9.5 -4.5t-9.5 -4.5q-38 -41 -72.5 -110t-70.5 -175q-8 -25 -16.5 -48.5t-17.5 -46.5zM452 1128q13 9 29.5 14t33.5 3t33.5 -14.5t29.5 -38.5q13 -25 10.5 -48t-15 -41
t-33 -29.5t-44.5 -12.5q-30 -2 -57.5 13t-40 39.5t-2.5 55t56 59.5zM695 1135q15 7 32.5 12.5t35.5 3t35 -15.5t31 -42q13 -27 8 -51t-21 -43t-39.5 -30.5t-47.5 -13.5q-30 -2 -58 17t-39.5 47t1 60t62.5 56z" />
    <glyph glyph-name="Aring" unicode="&#xc5;" horiz-adv-x="1086" 
d="M1153 183q5 -6 -0.5 -19.5t-17 -30.5t-28 -36t-34.5 -35q-16 -15 -38 -27.5t-48 -21t-54.5 -12t-57.5 -0.5q-75 8 -123 62.5t-68 147.5q-57 9 -112.5 20t-103.5 25q-30 -65 -62 -115.5t-69 -84.5t-79.5 -49t-91.5 -7q-58 9 -93.5 32.5t-51.5 53.5t-15 61t15 54
q12 18 30.5 33.5t41.5 23t49 3t53 -25.5q4 -3 0.5 -15.5t-9.5 -30t-12.5 -37t-7 -36.5t6.5 -29.5t27 -15.5q48 -6 98.5 45t101.5 160q-47 17 -64 33q-14 13 -18.5 27t-3.5 27.5t6.5 25t12.5 18.5q1 1 34.5 -3t81.5 -9q9 24 18 49.5t17 53.5q22 66 44 122t48 101
q-69 -21 -142 -27.5t-142 10.5q-46 12 -80.5 38t-51.5 60.5t-12.5 74.5t37.5 80q4 5 20.5 -8.5t46.5 -33t74 -40t104 -30.5q58 -10 113 -4t104.5 20t92 32.5t75.5 35.5q21 15 43.5 27.5t41.5 21t32.5 11.5t18.5 0q7 -6 11.5 -8.5t4.5 -7.5t-5.5 -15t-17.5 -31
q-8 -14 -16.5 -46t-16.5 -76t-15 -96t-12.5 -105.5t-8.5 -105.5t-3 -95q0 -5 0.5 -10t0.5 -10q49 4 82 5t35 -4q18 -35 23 -68t-1 -59.5t-21 -44t-38 -21.5q-23 -5 -66 -3q10 -55 26 -76q8 -11 22 -18.5t30.5 -9.5t34 3t33.5 18q23 19 41.5 38t33.5 31t26 15.5t19 -6.5z
M521 387q45 -5 84.5 -8.5t63.5 -3.5h5v10.5t1 10.5q3 45 6.5 95t8 99.5t11 97t16.5 88.5q-5 -2 -9.5 -4.5t-9.5 -4.5q-38 -41 -72.5 -110t-70.5 -175q-8 -25 -16.5 -48.5t-17.5 -46.5zM581 1199q24 11 52 19.5t56 5.5t55 -22t49 -63q21 -43 17 -82t-25 -69.5t-55.5 -49.5
t-74.5 -22q-33 -2 -67 11t-60.5 36t-42 53t-13 62t28 63.5t80.5 57.5zM646 960q13 2 24.5 15.5t18.5 35.5t8.5 50t-5.5 58q-8 32 -16.5 45.5t-18 16t-19 -3.5t-17.5 -14q-28 -28 -34 -64t1.5 -67.5t24 -52.5t33.5 -19z" />
    <glyph glyph-name="AE" unicode="&#xc6;" horiz-adv-x="1316" 
d="M1368 247q9 24 21.5 34t22 6.5t12 -19t-7.5 -41.5q-18 -44 -47 -84.5t-70.5 -72.5t-95.5 -51t-121 -19q-54 0 -114.5 10t-115 31t-97 54.5t-61.5 81.5q-7 15 -10 34q-56 8 -112.5 19.5t-104.5 24.5q-29 -65 -61.5 -115.5t-69 -84.5t-79 -49t-91.5 -7q-58 9 -93.5 32.5
t-52 53.5t-15.5 61t16 54q11 18 29.5 33.5t41.5 23t49.5 3.5t53.5 -25q4 -3 0 -16t-10 -30.5t-12 -37t-7 -36.5t6 -29.5t28 -15.5q97 -12 200 206q-23 8 -39.5 16t-24.5 16q-14 13 -18.5 27t-3.5 27.5t6 25t12 18.5q1 1 35 -3t82 -9q9 24 17.5 49.5t17.5 53.5
q21 67 43.5 122.5t48.5 100.5q-69 -20 -142 -26.5t-142 10.5q-46 11 -80.5 37t-51.5 60.5t-12.5 74.5t37.5 80q4 5 20.5 -8.5t46.5 -33t74 -40t104 -30.5q58 -9 113 -0.5t104 26.5t91.5 39.5t75.5 38.5q21 16 43.5 28.5t41.5 21t33 11.5t19 -1q6 -5 10.5 -7.5t5 -6t-2 -9.5
t-9.5 -19q45 17 95 25t103 8q52 0 94.5 -14t74 -36.5t51.5 -52.5t27 -61q12 -53 -2 -95t-42.5 -66t-67 -27t-74.5 22q-3 2 0.5 21.5t7.5 48t5.5 60.5t-6.5 59.5t-28 46t-59 18.5q-35 0 -67 -13.5t-56.5 -40.5t-39.5 -67t-15 -92q0 -82 24.5 -128t67.5 -61q43 3 84 -3
q30 -5 43.5 -19.5t11.5 -30t-18.5 -27t-45.5 -9.5q-50 4 -93 -2t-75.5 -25t-51 -51t-18.5 -79q0 -40 15.5 -74t44.5 -58.5t70 -38.5t93 -14q43 0 84 10.5t75 31t60 49.5t41 66zM673 374q1 5 1 10.5t1 11.5q3 45 6 94.5t7.5 99t11 97t16.5 89.5l-18 -9q-38 -42 -73 -110.5
t-70 -174.5q-8 -25 -17 -49t-17 -47q44 -5 84 -8t64 -4h4z" />
    <glyph glyph-name="Ccedilla" unicode="&#xc7;" horiz-adv-x="645" 
d="M298 -42q30 -2 72 -13.5t79.5 -33t63.5 -53.5t23 -76q-3 -48 -31 -81.5t-66.5 -54.5t-81 -30.5t-73.5 -9.5q-50 0 -84.5 15t-56 36.5t-30 44.5t-6.5 40q4 27 19.5 44t35 24t39.5 2t33 -23q4 -6 -1.5 -28t-5.5 -46.5t13 -44t54 -19.5q45 0 78 29.5t33 86.5
q0 52 -35.5 91.5t-109.5 46.5q-7 1 -11.5 2.5t-6.5 6.5t-3 14t-1 25q-2 25 -3 42.5t-2 38.5q-60 24 -103 66t-70.5 96t-41 116.5t-13.5 127.5q0 143 38.5 248t101 173.5t142 102t160.5 33.5q46 0 86.5 -16.5t72 -42t52.5 -55.5t27 -58q14 -64 1 -104.5t-42 -58t-68 -13
t-77 30.5q-3 2 -3 19t-0.5 42.5t-3 54.5t-11 55t-25 45t-44.5 24q-27 4 -59 -20t-59 -78.5t-45 -140t-18 -204.5q0 -72 10 -131.5t33.5 -105t62.5 -75.5t98 -44q49 -11 94.5 -2t83 30t63.5 49.5t37 55.5q8 20 17.5 28t16 4.5t8.5 -17t-6 -35.5q-13 -36 -42 -76t-75 -73.5
t-109 -55t-144 -21.5q-18 0 -35 1t-33 4l-13 -55v0z" />
    <glyph glyph-name="Egrave" unicode="&#xc8;" horiz-adv-x="640" 
d="M691 250q10 24 22.5 33.5t22 6.5t12 -18.5t-7.5 -41.5q-18 -44 -49 -86.5t-74.5 -77t-99 -55.5t-121.5 -21q-83 0 -154.5 15t-124 46.5t-82.5 80t-30 114.5q0 38 15.5 73t43 65.5t64.5 56t80 43.5q-28 13 -53 31.5t-43.5 42.5t-29.5 54t-11 67q0 85 34 146.5t90.5 100.5
t129.5 57.5t152 18.5q52 0 94.5 -14t73.5 -36.5t51 -52.5t27 -61q12 -53 -2 -95t-42.5 -66t-66.5 -27t-74 22q-3 2 0.5 21.5t7.5 48t5.5 60.5t-6.5 59.5t-28 46t-59 18.5q-35 0 -67 -13.5t-57 -40.5t-40 -67t-15 -92q0 -83 25 -128.5t68 -60.5q43 3 84 -3q30 -5 43.5 -19.5
t11.5 -30t-18.5 -27t-45.5 -9.5q-50 4 -93 -2t-75.5 -25t-51 -51t-18.5 -79q0 -40 14 -76t41 -63t66.5 -43t91.5 -16q43 0 85 13t78 35.5t64 53.5t42 68zM272 1292q2 2 29 -13.5t65.5 -40.5t81.5 -55.5t78 -59.5t54.5 -52.5t11.5 -34.5q-4 -5 -32.5 -1.5t-73 17t-100 38
t-112.5 61.5q-29 19 -41.5 37.5t-12 36t14 34.5t37.5 33z" />
    <glyph glyph-name="Eacute" unicode="&#xc9;" horiz-adv-x="640" 
d="M691 250q10 24 22.5 33.5t22 6.5t12 -18.5t-7.5 -41.5q-18 -44 -49 -86.5t-74.5 -77t-99 -55.5t-121.5 -21q-83 0 -154.5 15t-124 46.5t-82.5 80t-30 114.5q0 38 15.5 73t43 65.5t64.5 56t80 43.5q-28 13 -53 31.5t-43.5 42.5t-29.5 54t-11 67q0 85 34 146.5t90.5 100.5
t129.5 57.5t152 18.5q52 0 94.5 -14t73.5 -36.5t51 -52.5t27 -61q12 -53 -2 -95t-42.5 -66t-66.5 -27t-74 22q-3 2 0.5 21.5t7.5 48t5.5 60.5t-6.5 59.5t-28 46t-59 18.5q-35 0 -67 -13.5t-57 -40.5t-40 -67t-15 -92q0 -83 25 -128.5t68 -60.5q43 3 84 -3q30 -5 43.5 -19.5
t11.5 -30t-18.5 -27t-45.5 -9.5q-50 4 -93 -2t-75.5 -25t-51 -51t-18.5 -79q0 -40 14 -76t41 -63t66.5 -43t91.5 -16q43 0 85 13t78 35.5t64 53.5t42 68zM514 1179q0 -3 -24.5 -21.5t-62.5 -43.5t-83.5 -52.5t-86 -48t-70 -29.5t-36.5 3q-3 6 12 31t45 60t74.5 76t101.5 79
t88 20t42 -74z" />
    <glyph glyph-name="Ecircumflex" unicode="&#xca;" horiz-adv-x="640" 
d="M691 250q10 24 22.5 33.5t22 6.5t12 -18.5t-7.5 -41.5q-18 -44 -49 -86.5t-74.5 -77t-99 -55.5t-121.5 -21q-83 0 -154.5 15t-124 46.5t-82.5 80t-30 114.5q0 38 15.5 73t43 65.5t64.5 56t80 43.5q-28 13 -53 31.5t-43.5 42.5t-29.5 54t-11 67q0 85 34 146.5t90.5 100.5
t129.5 57.5t152 18.5q52 0 94.5 -14t73.5 -36.5t51 -52.5t27 -61q12 -53 -2 -95t-42.5 -66t-66.5 -27t-74 22q-3 2 0.5 21.5t7.5 48t5.5 60.5t-6.5 59.5t-28 46t-59 18.5q-35 0 -67 -13.5t-57 -40.5t-40 -67t-15 -92q0 -83 25 -128.5t68 -60.5q43 3 84 -3q30 -5 43.5 -19.5
t11.5 -30t-18.5 -27t-45.5 -9.5q-50 4 -93 -2t-75.5 -25t-51 -51t-18.5 -79q0 -40 14 -76t41 -63t66.5 -43t91.5 -16q43 0 85 13t78 35.5t64 53.5t42 68zM548 1269q41 -39 72 -83t49 -82t21.5 -66.5t-10.5 -35.5q-3 -1 -15.5 7t-31.5 23.5t-43.5 37t-50 45.5t-51.5 49.5
t-49 49.5q-17 -20 -38 -43t-43.5 -46.5t-45 -46.5t-43.5 -43q-26 -24 -48.5 -27.5t-41 7t-32.5 32t-21 49.5q-1 3 3.5 10.5t18 21.5t38 35.5t64.5 53.5q63 49 118 70.5t89 19.5q23 0 45.5 -8t45.5 -30z" />
    <glyph glyph-name="Edieresis" unicode="&#xcb;" horiz-adv-x="640" 
d="M691 250q10 24 22.5 33.5t22 6.5t12 -18.5t-7.5 -41.5q-18 -44 -49 -86.5t-74.5 -77t-99 -55.5t-121.5 -21q-83 0 -154.5 15t-124 46.5t-82.5 80t-30 114.5q0 38 15.5 73t43 65.5t64.5 56t80 43.5q-28 13 -53 31.5t-43.5 42.5t-29.5 54t-11 67q0 85 34 146.5t90.5 100.5
t129.5 57.5t152 18.5q52 0 94.5 -14t73.5 -36.5t51 -52.5t27 -61q12 -53 -2 -95t-42.5 -66t-66.5 -27t-74 22q-3 2 0.5 21.5t7.5 48t5.5 60.5t-6.5 59.5t-28 46t-59 18.5q-35 0 -67 -13.5t-57 -40.5t-40 -67t-15 -92q0 -83 25 -128.5t68 -60.5q43 3 84 -3q30 -5 43.5 -19.5
t11.5 -30t-18.5 -27t-45.5 -9.5q-50 4 -93 -2t-75.5 -25t-51 -51t-18.5 -79q0 -40 14 -76t41 -63t66.5 -43t91.5 -16q43 0 85 13t78 35.5t64 53.5t42 68zM275 1193q13 9 29.5 14t33.5 3t33.5 -14.5t29.5 -38.5q13 -25 10.5 -48t-15 -41t-33 -29.5t-44.5 -12.5
q-30 -2 -57.5 13t-40 39.5t-2.5 55t56 59.5zM518 1200q15 7 32.5 12.5t35.5 3t35 -15.5t31 -42q13 -27 8 -51t-21 -43t-39.5 -30.5t-47.5 -13.5q-30 -2 -58 17t-39.5 47t1 60t62.5 56z" />
    <glyph glyph-name="Igrave" unicode="&#xcc;" horiz-adv-x="611" 
d="M585 988q8 -8 4.5 -19.5t-11.5 -20.5l-13.5 -13.5t-13.5 -12.5q-14 -29 -14 -74.5t5 -105.5t11.5 -133t6.5 -157q0 -100 -24 -187t-68 -149t-107.5 -93t-141.5 -19q-58 9 -95.5 32.5t-56 53.5t-19.5 61t14 54q11 18 27.5 31t37.5 17t45.5 -2.5t51.5 -27.5q6 -5 4.5 -18.5
t-5.5 -31.5t-8 -38t-3 -38t10 -30.5t31 -15.5q24 -3 47 29.5t40 91.5t27.5 141t10.5 178q0 107 9 191.5t36 150.5q-30 -10 -65.5 -10.5t-80.5 12.5q-94 26 -141.5 19.5t-64.5 -54.5q-12 -35 -4 -59t22 -40.5t26 -26.5t8 -17q-13 -21 -36 -15.5t-43.5 28t-32 58t-2.5 73.5
q10 43 35 77.5t62.5 56.5t86.5 28t108 -8q72 -17 115 -21.5t71 2.5q11 11 23 21.5t25 21.5q18 13 31 14t19 -5zM163 1262q2 2 29 -13.5t65.5 -40.5t81.5 -55.5t78 -59.5t54.5 -52.5t11.5 -34.5q-4 -5 -32.5 -1.5t-73 17t-100 38t-112.5 61.5q-29 19 -41.5 37.5t-12 36
t14 34.5t37.5 33z" />
    <glyph glyph-name="Iacute" unicode="&#xcd;" horiz-adv-x="611" 
d="M585 988q8 -8 4.5 -19.5t-11.5 -20.5l-13.5 -13.5t-13.5 -12.5q-14 -29 -14 -74.5t5 -105.5t11.5 -133t6.5 -157q0 -100 -24 -187t-68 -149t-107.5 -93t-141.5 -19q-58 9 -95.5 32.5t-56 53.5t-19.5 61t14 54q11 18 27.5 31t37.5 17t45.5 -2.5t51.5 -27.5q6 -5 4.5 -18.5
t-5.5 -31.5t-8 -38t-3 -38t10 -30.5t31 -15.5q24 -3 47 29.5t40 91.5t27.5 141t10.5 178q0 107 9 191.5t36 150.5q-30 -10 -65.5 -10.5t-80.5 12.5q-94 26 -141.5 19.5t-64.5 -54.5q-12 -35 -4 -59t22 -40.5t26 -26.5t8 -17q-13 -21 -36 -15.5t-43.5 28t-32 58t-2.5 73.5
q10 43 35 77.5t62.5 56.5t86.5 28t108 -8q72 -17 115 -21.5t71 2.5q11 11 23 21.5t25 21.5q18 13 31 14t19 -5zM536 1188q1 -3 -24 -21.5t-63 -43.5t-83.5 -52.5t-86 -48t-70 -29.5t-36.5 3q-3 6 12 31t45 60t74.5 76t101.5 79t88 20t42 -74z" />
    <glyph glyph-name="Icircumflex" unicode="&#xce;" horiz-adv-x="611" 
d="M585 988q8 -8 4.5 -19.5t-11.5 -20.5l-13.5 -13.5t-13.5 -12.5q-14 -29 -14 -74.5t5 -105.5t11.5 -133t6.5 -157q0 -100 -24 -187t-68 -149t-107.5 -93t-141.5 -19q-58 9 -95.5 32.5t-56 53.5t-19.5 61t14 54q11 18 27.5 31t37.5 17t45.5 -2.5t51.5 -27.5q6 -5 4.5 -18.5
t-5.5 -31.5t-8 -38t-3 -38t10 -30.5t31 -15.5q24 -3 47 29.5t40 91.5t27.5 141t10.5 178q0 107 9 191.5t36 150.5q-30 -10 -65.5 -10.5t-80.5 12.5q-94 26 -141.5 19.5t-64.5 -54.5q-12 -35 -4 -59t22 -40.5t26 -26.5t8 -17q-13 -21 -36 -15.5t-43.5 28t-32 58t-2.5 73.5
q10 43 35 77.5t62.5 56.5t86.5 28t108 -8q72 -17 115 -21.5t71 2.5q11 11 23 21.5t25 21.5q18 13 31 14t19 -5zM453 1279q41 -39 72 -83t49 -82t21.5 -66.5t-10.5 -35.5q-3 -2 -15.5 6.5t-31.5 24t-43.5 37t-50 45.5t-51.5 49.5t-49 49.5q-17 -20 -38 -43t-43.5 -46.5
t-45 -46.5t-43.5 -43q-26 -24 -48.5 -27.5t-41 7t-32.5 32t-21 49.5q-1 3 3.5 10.5t18 21.5t38 35.5t64.5 53.5q63 49 118 70.5t89 19.5q23 0 45.5 -8t45.5 -30z" />
    <glyph glyph-name="Idieresis" unicode="&#xcf;" horiz-adv-x="611" 
d="M585 988q8 -8 4.5 -19.5t-11.5 -20.5l-13.5 -13.5t-13.5 -12.5q-14 -29 -14 -74.5t5 -105.5t11.5 -133t6.5 -157q0 -100 -24 -187t-68 -149t-107.5 -93t-141.5 -19q-58 9 -95.5 32.5t-56 53.5t-19.5 61t14 54q11 18 27.5 31t37.5 17t45.5 -2.5t51.5 -27.5q6 -5 4.5 -18.5
t-5.5 -31.5t-8 -38t-3 -38t10 -30.5t31 -15.5q24 -3 47 29.5t40 91.5t27.5 141t10.5 178q0 107 9 191.5t36 150.5q-30 -10 -65.5 -10.5t-80.5 12.5q-94 26 -141.5 19.5t-64.5 -54.5q-12 -35 -4 -59t22 -40.5t26 -26.5t8 -17q-13 -21 -36 -15.5t-43.5 28t-32 58t-2.5 73.5
q10 43 35 77.5t62.5 56.5t86.5 28t108 -8q72 -17 115 -21.5t71 2.5q11 11 23 21.5t25 21.5q18 13 31 14t19 -5zM169 1190q13 9 29.5 14t33.5 3t33.5 -14.5t29.5 -38.5q13 -25 10.5 -48t-15 -41t-33 -29.5t-44.5 -12.5q-30 -2 -57.5 13t-40 39.5t-2.5 55t56 59.5zM412 1197
q15 7 32.5 12.5t35.5 3t35 -15.5t31 -42q13 -27 8 -51t-21 -43t-39.5 -30.5t-47.5 -13.5q-30 -2 -58 17t-39.5 47t1 60t62.5 56z" />
    <glyph glyph-name="Eth" unicode="&#xd0;" horiz-adv-x="838" 
d="M418 983q76 0 149 -31.5t130 -89t91.5 -139.5t34.5 -184t-23.5 -181.5t-63.5 -139.5t-92.5 -101.5t-110.5 -67.5t-117.5 -37.5t-113.5 -11.5q-42 0 -71.5 4.5t-48.5 31t-28.5 82.5t-12.5 158q-41 -1 -67 9.5t-39 30t-12.5 47t13.5 60.5q3 8 32 13.5t72 7.5q0 155 1 252
t1 145q-45 -36 -71 -104q-8 -20 -21.5 -28t-25 -5t-17 16.5t2.5 36.5q18 51 54.5 93t89 71.5t119 45.5t145.5 16zM341 76q43 -6 86 9t77 62t55.5 133t21.5 222q0 100 -12.5 173.5t-42 120.5t-77.5 70t-120 23h-23q13 -22 20.5 -60t11.5 -89.5t5.5 -116t1.5 -138.5v-42
q48 -3 82 -10t39 -19q2 -6 -6.5 -15t-25 -20.5t-39.5 -24t-50 -24.5q-1 -83 -1 -132.5t-1 -76.5q-1 -32 -2 -45z" />
    <glyph glyph-name="Ntilde" unicode="&#xd1;" horiz-adv-x="984" 
d="M881 984q25 30 50 42.5t41.5 10t20.5 -18t-11 -42.5t-26.5 -56.5t-17 -80t-3.5 -130.5t14 -207q7 -70 1.5 -141t-19.5 -133.5t-36.5 -111t-50.5 -74.5q-11 -10 -30 -19t-39.5 -15.5t-38.5 -8.5t-25 3q-31 21 -65 61t-68.5 93t-67.5 115t-62 125q-16 34 -34 72.5t-38 78.5
q2 -67 0 -134t-10 -127.5t-23.5 -111.5t-41 -86.5t-61 -52.5t-83.5 -10q-58 9 -92 37.5t-48 63.5t-11.5 71t16.5 59q12 19 29.5 32t39 16.5t45.5 -3t50 -26.5q4 -3 0.5 -17t-10 -33t-12.5 -40.5t-7 -40t6.5 -32t27.5 -16.5q30 -4 51 22.5t34 74t18.5 113t5 139.5t-6.5 153
t-16 154q-4 29 -5.5 53t-2.5 44q-3 40 2 76.5t18.5 63.5t34.5 41.5t51 9.5q9 -2 14.5 -2t7.5 -4.5t2 -16t-1 -35.5q-1 -16 9.5 -48.5t28.5 -74.5t41.5 -91.5t48.5 -99t49.5 -96.5t45.5 -85q11 -20 29 -52.5t39 -69t43 -74.5t40 -69t30.5 -51.5t15.5 -22.5q4 -3 5.5 13.5
t-0.5 56.5t-7.5 105t-14.5 160t-9.5 170.5t8.5 136.5t28.5 108.5t52.5 85.5zM721 1139q-45 -27 -88 -44.5t-82 -22t-71.5 6t-56.5 39.5q-15 19 -10.5 45t16.5 48.5t25.5 37.5t16.5 12q29 -32 56.5 -49t57.5 -20t64 6.5t75 30.5q43 22 82.5 25t72 -8.5t56 -36t34.5 -57.5
q4 -12 0.5 -17.5t-9.5 -7t-12 0t-7 3.5q-11 19 -31 32t-48.5 15.5t-64 -6.5t-76.5 -33z" />
    <glyph glyph-name="Ograve" unicode="&#xd2;" horiz-adv-x="805" 
d="M763 304q18 7 36.5 15t34 12.5t26.5 4.5t14 -7t-8.5 -18t-31 -24t-45 -26t-52.5 -23q-27 -56 -63.5 -100t-82 -75t-99.5 -47.5t-114 -16.5q-91 0 -160.5 32.5t-117 90t-71.5 136.5t-24 172q0 119 34 222t94 178.5t140.5 118.5t173.5 43q18 0 40 -4.5t39.5 -11t27.5 -13.5
t4 -12q-21 -20 -35.5 -23t-29.5 1t-34 8t-47 -2q-50 -12 -84 -49.5t-56 -98t-31.5 -141.5t-9.5 -178q0 -81 12 -148.5t37 -116.5t63 -76t90 -27q113 0 162 115q-67 -4 -119 19.5t-89.5 65t-60.5 96.5t-30.5 115t-0.5 119t29 109.5t59 86.5t89 50q63 16 121.5 -1t104.5 -63.5
t73.5 -121t27.5 -174.5q0 -54 -10 -109.5t-26 -102.5zM480 817q-37 -11 -63 -41.5t-40 -72.5t-16.5 -91.5t6 -99.5t28.5 -96t51 -80.5t72.5 -53.5t94.5 -15q22 87 22 223q0 80 -10.5 145t-30.5 109t-49 64t-65 9zM307 1267q2 1 29 -14t65.5 -40t81.5 -55.5t78 -59.5
t54.5 -52.5t11.5 -34.5q-4 -5 -32.5 -1.5t-73 17t-100 38t-112.5 61.5q-29 19 -41.5 37.5t-12 36t14 34.5t37.5 33z" />
    <glyph glyph-name="Oacute" unicode="&#xd3;" horiz-adv-x="805" 
d="M763 304q18 7 36.5 15t34 12.5t26.5 4.5t14 -7t-8.5 -18t-31 -24t-45 -26t-52.5 -23q-27 -56 -63.5 -100t-82 -75t-99.5 -47.5t-114 -16.5q-91 0 -160.5 32.5t-117 90t-71.5 136.5t-24 172q0 119 34 222t94 178.5t140.5 118.5t173.5 43q18 0 40 -4.5t39.5 -11t27.5 -13.5
t4 -12q-21 -20 -35.5 -23t-29.5 1t-34 8t-47 -2q-50 -12 -84 -49.5t-56 -98t-31.5 -141.5t-9.5 -178q0 -81 12 -148.5t37 -116.5t63 -76t90 -27q113 0 162 115q-67 -4 -119 19.5t-89.5 65t-60.5 96.5t-30.5 115t-0.5 119t29 109.5t59 86.5t89 50q63 16 121.5 -1t104.5 -63.5
t73.5 -121t27.5 -174.5q0 -54 -10 -109.5t-26 -102.5zM480 817q-37 -11 -63 -41.5t-40 -72.5t-16.5 -91.5t6 -99.5t28.5 -96t51 -80.5t72.5 -53.5t94.5 -15q22 87 22 223q0 80 -10.5 145t-30.5 109t-49 64t-65 9zM587 1194q1 -3 -24 -21.5t-63 -43.5t-83.5 -52.5t-86 -48
t-70 -29.5t-36.5 3q-3 6 12 31t45 60t74.5 76t101.5 79t88 20t42 -74z" />
    <glyph glyph-name="Ocircumflex" unicode="&#xd4;" horiz-adv-x="805" 
d="M763 304q18 7 36.5 15t34 12.5t26.5 4.5t14 -7t-8.5 -18t-31 -24t-45 -26t-52.5 -23q-27 -56 -63.5 -100t-82 -75t-99.5 -47.5t-114 -16.5q-91 0 -160.5 32.5t-117 90t-71.5 136.5t-24 172q0 119 34 222t94 178.5t140.5 118.5t173.5 43q18 0 40 -4.5t39.5 -11t27.5 -13.5
t4 -12q-21 -20 -35.5 -23t-29.5 1t-34 8t-47 -2q-50 -12 -84 -49.5t-56 -98t-31.5 -141.5t-9.5 -178q0 -81 12 -148.5t37 -116.5t63 -76t90 -27q113 0 162 115q-67 -4 -119 19.5t-89.5 65t-60.5 96.5t-30.5 115t-0.5 119t29 109.5t59 86.5t89 50q63 16 121.5 -1t104.5 -63.5
t73.5 -121t27.5 -174.5q0 -54 -10 -109.5t-26 -102.5zM480 817q-37 -11 -63 -41.5t-40 -72.5t-16.5 -91.5t6 -99.5t28.5 -96t51 -80.5t72.5 -53.5t94.5 -15q22 87 22 223q0 80 -10.5 145t-30.5 109t-49 64t-65 9zM540 1269q41 -39 72 -83t49 -82t21.5 -66.5t-10.5 -35.5
q-3 -1 -15.5 7t-31.5 23.5t-43.5 37t-50 45.5t-51.5 49.5t-49 49.5q-17 -20 -38 -43t-43.5 -46.5t-45 -46.5t-43.5 -43q-26 -24 -48.5 -27.5t-41 7t-32.5 32t-21 49.5q-1 3 3.5 10.5t18 21.5t38 35.5t64.5 53.5q63 49 118 70.5t89 19.5q23 0 45.5 -8t45.5 -30z" />
    <glyph glyph-name="Otilde" unicode="&#xd5;" horiz-adv-x="805" 
d="M763 304q18 7 36.5 15t34 12.5t26.5 4.5t14 -7t-8.5 -18t-31 -24t-45 -26t-52.5 -23q-27 -56 -63.5 -100t-82 -75t-99.5 -47.5t-114 -16.5q-91 0 -160.5 32.5t-117 90t-71.5 136.5t-24 172q0 119 34 222t94 178.5t140.5 118.5t173.5 43q18 0 40 -4.5t39.5 -11t27.5 -13.5
t4 -12q-21 -20 -35.5 -23t-29.5 1t-34 8t-47 -2q-50 -12 -84 -49.5t-56 -98t-31.5 -141.5t-9.5 -178q0 -81 12 -148.5t37 -116.5t63 -76t90 -27q113 0 162 115q-67 -4 -119 19.5t-89.5 65t-60.5 96.5t-30.5 115t-0.5 119t29 109.5t59 86.5t89 50q63 16 121.5 -1t104.5 -63.5
t73.5 -121t27.5 -174.5q0 -54 -10 -109.5t-26 -102.5zM480 817q-37 -11 -63 -41.5t-40 -72.5t-16.5 -91.5t6 -99.5t28.5 -96t51 -80.5t72.5 -53.5t94.5 -15q22 87 22 223q0 80 -10.5 145t-30.5 109t-49 64t-65 9zM443 1087q-45 -27 -88 -44.5t-82 -22t-71.5 6t-56.5 39.5
q-15 19 -10.5 45t16.5 48.5t25.5 37.5t16.5 12q29 -32 56.5 -49t57.5 -20t64 6.5t75 30.5q43 22 82.5 25t72 -8.5t56 -36t34.5 -57.5q4 -12 0.5 -17.5t-9.5 -7t-12 0t-7 3.5q-11 19 -31 32t-48.5 15.5t-64 -6.5t-76.5 -33z" />
    <glyph glyph-name="Odieresis" unicode="&#xd6;" horiz-adv-x="805" 
d="M763 304q18 7 36.5 15t34 12.5t26.5 4.5t14 -7t-8.5 -18t-31 -24t-45 -26t-52.5 -23q-27 -56 -63.5 -100t-82 -75t-99.5 -47.5t-114 -16.5q-91 0 -160.5 32.5t-117 90t-71.5 136.5t-24 172q0 119 34 222t94 178.5t140.5 118.5t173.5 43q18 0 40 -4.5t39.5 -11t27.5 -13.5
t4 -12q-21 -20 -35.5 -23t-29.5 1t-34 8t-47 -2q-50 -12 -84 -49.5t-56 -98t-31.5 -141.5t-9.5 -178q0 -81 12 -148.5t37 -116.5t63 -76t90 -27q113 0 162 115q-67 -4 -119 19.5t-89.5 65t-60.5 96.5t-30.5 115t-0.5 119t29 109.5t59 86.5t89 50q63 16 121.5 -1t104.5 -63.5
t73.5 -121t27.5 -174.5q0 -54 -10 -109.5t-26 -102.5zM480 817q-37 -11 -63 -41.5t-40 -72.5t-16.5 -91.5t6 -99.5t28.5 -96t51 -80.5t72.5 -53.5t94.5 -15q22 87 22 223q0 80 -10.5 145t-30.5 109t-49 64t-65 9zM268 1193q13 9 29.5 14t33.5 3t33.5 -14.5t29.5 -38.5
q13 -25 10.5 -48t-15 -41t-33 -29.5t-44.5 -12.5q-30 -2 -57.5 13t-40 39.5t-2.5 55t56 59.5zM511 1200q15 7 32.5 12.5t35.5 3t35 -15.5t31 -42q13 -27 8 -51t-21 -43t-39.5 -30.5t-47.5 -13.5q-30 -2 -58 17t-39.5 47t1 60t62.5 56z" />
    <glyph glyph-name="multiply" unicode="&#xd7;" horiz-adv-x="760" 
d="M709 488q1 -4 -17 -24.5t-50.5 -51.5t-75.5 -70t-92 -81q47 -51 88.5 -99t71.5 -87t44 -65.5t5 -33.5q-4 -3 -31 12.5t-69 44t-95 67t-109 82.5q-57 -46 -111.5 -87.5t-99.5 -70t-76.5 -41t-40.5 -1.5q-3 3 13 29t45 66.5t69 92t84 106.5q-48 40 -90 77.5t-73 69.5
q-29 30 -39 56t-4 47.5t27 38.5t54 29q2 1 20 -15t48 -44.5t68.5 -66.5t80.5 -81q45 53 87 99.5t77 79.5q30 29 59 33t54.5 -9.5t45.5 -41t32 -60.5z" />
    <glyph glyph-name="Oslash" unicode="&#xd8;" horiz-adv-x="805" 
d="M629 1117q26 42 52.5 61.5t52.5 19t51 -19t49 -52.5q1 -2 -10.5 -24.5t-33.5 -61t-52.5 -91t-67.5 -113.5q57 -44 93 -124.5t36 -195.5q0 -54 -10 -109.5t-26 -102.5q18 7 36.5 15t34 12.5t26.5 4.5t14 -7t-8.5 -18t-31 -24t-45 -26t-52.5 -23q-27 -56 -63.5 -100
t-82 -75t-99.5 -47.5t-114 -16.5q-63 0 -114.5 15t-93.5 43q-38 -50 -64 -75.5t-35 -19.5q-4 2 10.5 38.5t40.5 96.5q-58 59 -87.5 144t-29.5 189q0 119 34 222t94 178.5t140.5 118.5t173.5 43q24 0 53 -7.5t46 -16.5q24 47 45.5 85t37.5 64zM635 490q0 71 -8.5 129.5
t-24.5 102.5q-48 -78 -98.5 -160t-101.5 -162q15 -31 36 -56.5t47.5 -43.5t58.5 -27t69 -6q22 87 22 223zM472 876q7 2 14 3l14 2l25 47q-12 -4 -23 -1.5t-24 6t-28.5 5.5t-37.5 -3q-50 -12 -84 -49.5t-56 -98t-31.5 -141.5t-9.5 -178q0 -32 1.5 -61.5t5.5 -56.5l62 130
q-12 63 -7.5 127t26 119t59.5 95t94 55zM595 215q-40 -2 -74.5 5.5t-64 23.5t-53.5 38.5t-43 50.5q-22 -33 -42.5 -64.5t-40.5 -60.5q25 -51 63.5 -79.5t92.5 -28.5q113 0 162 115zM464 811q-50 -23 -76 -80t-28 -128z" />
    <glyph glyph-name="Ugrave" unicode="&#xd9;" horiz-adv-x="853" 
d="M874 136q25 34 48 47.5t33.5 8t4.5 -28.5t-38 -61q-21 -24 -50.5 -44t-64.5 -34t-72 -20.5t-73 -2.5q-51 6 -81 42t-46 93q-37 -60 -92.5 -98t-130.5 -38q-80 0 -146 33t-107 114t-51.5 217.5t20.5 343.5q11 72 24 119t25.5 74.5t23.5 39t17 12.5q76 14 115.5 9.5
t54 -27.5t10 -64t-14.5 -99q-32 -177 -40.5 -304t3 -208.5t43 -120t79.5 -38.5q57 0 95.5 54.5t48.5 148.5q-2 35 -2 73v77q1 90 8 178t16 158t19.5 114.5t19.5 47.5q63 19 103 19t59.5 -20.5t20 -61t-15.5 -100.5q-15 -58 -23.5 -122t-11.5 -128t-2 -125t5.5 -114
t11.5 -94.5t15 -66.5q7 -22 21 -36t33 -16.5t41 8.5t44 41zM297 1272q2 2 29 -13.5t65.5 -40.5t81.5 -55.5t78 -59.5t54.5 -52.5t11.5 -34.5q-4 -5 -32.5 -1.5t-73 17t-100 38t-112.5 61.5q-29 19 -41.5 37.5t-12 36t14 34.5t37.5 33z" />
    <glyph glyph-name="Uacute" unicode="&#xda;" horiz-adv-x="853" 
d="M874 136q25 34 48 47.5t33.5 8t4.5 -28.5t-38 -61q-21 -24 -50.5 -44t-64.5 -34t-72 -20.5t-73 -2.5q-51 6 -81 42t-46 93q-37 -60 -92.5 -98t-130.5 -38q-80 0 -146 33t-107 114t-51.5 217.5t20.5 343.5q11 72 24 119t25.5 74.5t23.5 39t17 12.5q76 14 115.5 9.5
t54 -27.5t10 -64t-14.5 -99q-32 -177 -40.5 -304t3 -208.5t43 -120t79.5 -38.5q57 0 95.5 54.5t48.5 148.5q-2 35 -2 73v77q1 90 8 178t16 158t19.5 114.5t19.5 47.5q63 19 103 19t59.5 -20.5t20 -61t-15.5 -100.5q-15 -58 -23.5 -122t-11.5 -128t-2 -125t5.5 -114
t11.5 -94.5t15 -66.5q7 -22 21 -36t33 -16.5t41 8.5t44 41zM621 1219q1 -3 -24 -21.5t-63 -43.5t-83.5 -52.5t-86 -48t-70 -29.5t-36.5 3q-3 6 12 31t45 60t74.5 76t101.5 79t88 20t42 -74z" />
    <glyph glyph-name="Ucircumflex" unicode="&#xdb;" horiz-adv-x="853" 
d="M874 136q25 34 48 47.5t33.5 8t4.5 -28.5t-38 -61q-21 -24 -50.5 -44t-64.5 -34t-72 -20.5t-73 -2.5q-51 6 -81 42t-46 93q-37 -60 -92.5 -98t-130.5 -38q-80 0 -146 33t-107 114t-51.5 217.5t20.5 343.5q11 72 24 119t25.5 74.5t23.5 39t17 12.5q76 14 115.5 9.5
t54 -27.5t10 -64t-14.5 -99q-32 -177 -40.5 -304t3 -208.5t43 -120t79.5 -38.5q57 0 95.5 54.5t48.5 148.5q-2 35 -2 73v77q1 90 8 178t16 158t19.5 114.5t19.5 47.5q63 19 103 19t59.5 -20.5t20 -61t-15.5 -100.5q-15 -58 -23.5 -122t-11.5 -128t-2 -125t5.5 -114
t11.5 -94.5t15 -66.5q7 -22 21 -36t33 -16.5t41 8.5t44 41zM564 1279q41 -39 72 -83t49 -82t21.5 -66.5t-10.5 -35.5q-3 -2 -15.5 6.5t-31.5 24t-43.5 37t-50 45.5t-51.5 49.5t-49 49.5q-17 -20 -38 -43t-43.5 -46.5t-45 -46.5t-43.5 -43q-26 -24 -48.5 -27.5t-41 7
t-32.5 32t-21 49.5q-1 3 3.5 10.5t18 21.5t38 35.5t64.5 53.5q63 49 118 70.5t89 19.5q23 0 45.5 -8t45.5 -30z" />
    <glyph glyph-name="Udieresis" unicode="&#xdc;" horiz-adv-x="853" 
d="M874 136q25 34 48 47.5t33.5 8t4.5 -28.5t-38 -61q-21 -24 -50.5 -44t-64.5 -34t-72 -20.5t-73 -2.5q-51 6 -81 42t-46 93q-37 -60 -92.5 -98t-130.5 -38q-80 0 -146 33t-107 114t-51.5 217.5t20.5 343.5q11 72 24 119t25.5 74.5t23.5 39t17 12.5q76 14 115.5 9.5
t54 -27.5t10 -64t-14.5 -99q-32 -177 -40.5 -304t3 -208.5t43 -120t79.5 -38.5q57 0 95.5 54.5t48.5 148.5q-2 35 -2 73v77q1 90 8 178t16 158t19.5 114.5t19.5 47.5q63 19 103 19t59.5 -20.5t20 -61t-15.5 -100.5q-15 -58 -23.5 -122t-11.5 -128t-2 -125t5.5 -114
t11.5 -94.5t15 -66.5q7 -22 21 -36t33 -16.5t41 8.5t44 41zM282 1185q13 9 29.5 14t33.5 3t33.5 -14.5t29.5 -38.5q13 -25 10.5 -48t-15 -41t-33 -29.5t-44.5 -12.5q-30 -2 -57.5 13t-40 39.5t-2.5 55t56 59.5zM525 1192q15 7 32.5 12.5t35.5 3t35 -15.5t31 -42
q13 -27 8 -51t-21 -43t-39.5 -30.5t-47.5 -13.5q-30 -2 -58 17t-39.5 47t1 60t62.5 56z" />
    <glyph glyph-name="Yacute" unicode="&#xdd;" horiz-adv-x="819" 
d="M893 195q19 33 38.5 41.5t31 0.5t11 -30t-21.5 -50q-25 -32 -72.5 -78t-121.5 -92q1 -89 -15.5 -174t-48.5 -160.5t-78 -139.5t-103.5 -110t-125.5 -71.5t-144 -25.5q-83 0 -140 38.5t-81 99t-12.5 134.5t65 145t152 131t248.5 93q27 6 54.5 14.5t55.5 19.5q-1 31 -1 60
v58q-36 -45 -85 -72t-112 -27q-80 0 -146 33t-107 114t-51.5 217.5t20.5 343.5q11 72 24 119t25.5 74.5t23.5 39t17 13.5q76 14 115.5 9t54 -28t10 -64t-14.5 -99q-32 -177 -40.5 -304t3.5 -208.5t43 -120t79 -38.5q53 0 91 48.5t51 132.5q2 171 8.5 295.5t16 206.5t21 123
t23.5 45q58 19 93 15.5t52.5 -26.5t20 -62t-4.5 -90q-5 -34 -14.5 -103t-19 -163.5t-16.5 -210t-7 -242.5q48 32 83 64t52 61zM313 -504q70 0 121.5 30t85.5 84t50 129t16 166q-47 -17 -104 -31q-95 -23 -164 -59.5t-111.5 -78.5t-57.5 -85t-2.5 -77.5t54 -56t112.5 -21.5z
M733 1192q0 -3 -24.5 -21.5t-62.5 -43.5t-83.5 -52.5t-86 -48t-70 -29.5t-36.5 3q-3 6 12 31t45 60t74.5 76t101.5 79t88 20t42 -74z" />
    <glyph glyph-name="Thorn" unicode="&#xde;" horiz-adv-x="740" 
d="M228 715q96 12 188 -7.5t164 -63t115.5 -106.5t43.5 -137q0 -75 -26 -134.5t-69.5 -105t-101.5 -77t-121.5 -51t-128.5 -27.5t-124 -6q-30 -106 -80.5 -159.5t-126.5 -42.5q-34 5 -49.5 13t-18.5 16.5t5.5 17t22.5 15t31.5 9t34.5 0.5q19 -2 30 46t16.5 138.5t7.5 220.5
t2 291q-51 -34 -97.5 -83.5t-86.5 -117.5q-17 -28 -34.5 -37t-27 0t-6 35.5t27.5 69.5q45 79 102 134t122 90q0 86 22 156t60.5 121t91 80t112.5 34q24 2 33 -4t8 -14.5t-9 -17.5t-17 -12q-50 -17 -79 -86.5t-37 -197.5zM183 60q65 -6 124.5 7t105 49t72.5 97t27 151
q0 69 -23 122t-62 87.5t-91 50t-110 9.5v-16q0 -166 -10 -307t-33 -250z" />
    <glyph glyph-name="germandbls" unicode="&#xdf;" horiz-adv-x="740" 
d="M456 528q103 -36 163 -89t83.5 -112t14 -117t-45 -105t-93.5 -76t-131 -29q-23 0 -41 2t-35 7.5t-34 13.5t-37 20q-29 17 -36.5 38t-1.5 36.5t23 21t38 -7.5q20 -13 38.5 -22.5t38 -14.5t42 -5t49.5 7q51 13 62 42.5t-9.5 69t-67.5 87.5t-111 98q-28 22 -41.5 45.5
t-16.5 44t2.5 36.5t16.5 23q63 42 98.5 84t46.5 78t0 63t-41 38q-36 14 -71 4t-62.5 -51t-44.5 -117t-17 -194q0 -66 -5 -142.5t-17 -151t-32 -142t-49.5 -117.5t-69.5 -76.5t-92 -18.5q-34 5 -49.5 13t-18.5 16.5t5.5 17t22.5 15t31.5 9t34.5 0.5q13 -2 22.5 25t16 74.5
t10 109.5t5 131.5t2 140.5t0.5 135q0 114 38 199.5t101.5 134.5t145.5 57t169 -33q54 -25 81.5 -70t24 -93t-41 -90.5t-114.5 -62.5z" />
    <glyph glyph-name="agrave" unicode="&#xe0;" horiz-adv-x="607" 
d="M640 126q19 21 37 26t27 -2t4.5 -25t-29.5 -43q-15 -15 -38 -31.5t-50 -28.5t-56.5 -17.5t-58.5 -0.5q-88 15 -128 90q-10 -21 -26 -39q-29 -29 -64 -44t-80 -10t-79.5 30.5t-55.5 67.5t-27 99t6 125q13 71 48 121t79.5 78t91.5 33.5t84 -11.5q5 21 10 25q49 32 87 39
t61.5 -10t31 -57t-3.5 -101q-6 -34 -11 -76.5t-6.5 -85t2 -79.5t14.5 -59q8 -18 22 -30.5t31.5 -16t37 3.5t39.5 29zM274 97q11 10 18.5 28t12 37.5t7 37.5t3.5 29q-1 11 -1.5 22t-0.5 23v52t0.5 60t2 60.5t3.5 54.5q-23 7 -45 -6.5t-41 -43t-33 -71.5t-20 -92
q-6 -56 2.5 -98t24 -67.5t34.5 -32.5t33 7zM164 902q2 1 29 -14t65.5 -40t81.5 -55.5t78 -59.5t54.5 -52.5t11.5 -34.5q-4 -5 -32.5 -1.5t-73 17t-100 38t-112.5 61.5q-29 19 -41.5 37.5t-12 36t14 34.5t37.5 33z" />
    <glyph glyph-name="aacute" unicode="&#xe1;" horiz-adv-x="607" 
d="M640 126q19 21 37 26t27 -2t4.5 -25t-29.5 -43q-15 -15 -38 -31.5t-50 -28.5t-56.5 -17.5t-58.5 -0.5q-88 15 -128 90q-10 -21 -26 -39q-29 -29 -64 -44t-80 -10t-79.5 30.5t-55.5 67.5t-27 99t6 125q13 71 48 121t79.5 78t91.5 33.5t84 -11.5q5 21 10 25q49 32 87 39
t61.5 -10t31 -57t-3.5 -101q-6 -34 -11 -76.5t-6.5 -85t2 -79.5t14.5 -59q8 -18 22 -30.5t31.5 -16t37 3.5t39.5 29zM274 97q11 10 18.5 28t12 37.5t7 37.5t3.5 29q-1 11 -1.5 22t-0.5 23v52t0.5 60t2 60.5t3.5 54.5q-23 7 -45 -6.5t-41 -43t-33 -71.5t-20 -92
q-6 -56 2.5 -98t24 -67.5t34.5 -32.5t33 7zM488 809q0 -3 -24.5 -21.5t-62.5 -43.5t-83.5 -52.5t-86 -48t-70 -29.5t-36.5 3q-3 6 12 31t45 60t74.5 76t101.5 79t88 20t42 -74z" />
    <glyph glyph-name="acircumflex" unicode="&#xe2;" horiz-adv-x="607" 
d="M640 126q19 21 37 26t27 -2t4.5 -25t-29.5 -43q-15 -15 -38 -31.5t-50 -28.5t-56.5 -17.5t-58.5 -0.5q-88 15 -128 90q-10 -21 -26 -39q-29 -29 -64 -44t-80 -10t-79.5 30.5t-55.5 67.5t-27 99t6 125q13 71 48 121t79.5 78t91.5 33.5t84 -11.5q5 21 10 25q49 32 87 39
t61.5 -10t31 -57t-3.5 -101q-6 -34 -11 -76.5t-6.5 -85t2 -79.5t14.5 -59q8 -18 22 -30.5t31.5 -16t37 3.5t39.5 29zM274 97q11 10 18.5 28t12 37.5t7 37.5t3.5 29q-1 11 -1.5 22t-0.5 23v52t0.5 60t2 60.5t3.5 54.5q-23 7 -45 -6.5t-41 -43t-33 -71.5t-20 -92
q-6 -56 2.5 -98t24 -67.5t34.5 -32.5t33 7zM431 879q41 -39 72 -83t49 -82t21.5 -66.5t-10.5 -35.5q-3 -1 -15.5 7t-31.5 23.5t-43.5 37t-50 45.5t-51.5 49.5t-49 49.5q-17 -20 -38 -43t-43.5 -46.5t-45 -46.5t-43.5 -43q-26 -24 -48.5 -27.5t-41 7t-32.5 32t-21 49.5
q-1 3 3.5 10.5t18 21.5t38 35.5t64.5 53.5q63 49 118 70.5t89 19.5q23 0 45.5 -8t45.5 -30z" />
    <glyph glyph-name="atilde" unicode="&#xe3;" horiz-adv-x="607" 
d="M640 126q19 21 37 26t27 -2t4.5 -25t-29.5 -43q-15 -15 -38 -31.5t-50 -28.5t-56.5 -17.5t-58.5 -0.5q-88 15 -128 90q-10 -21 -26 -39q-29 -29 -64 -44t-80 -10t-79.5 30.5t-55.5 67.5t-27 99t6 125q13 71 48 121t79.5 78t91.5 33.5t84 -11.5q5 21 10 25q49 32 87 39
t61.5 -10t31 -57t-3.5 -101q-6 -34 -11 -76.5t-6.5 -85t2 -79.5t14.5 -59q8 -18 22 -30.5t31.5 -16t37 3.5t39.5 29zM274 97q11 10 18.5 28t12 37.5t7 37.5t3.5 29q-1 11 -1.5 22t-0.5 23v52t0.5 60t2 60.5t3.5 54.5q-23 7 -45 -6.5t-41 -43t-33 -71.5t-20 -92
q-6 -56 2.5 -98t24 -67.5t34.5 -32.5t33 7zM344 679q-45 -27 -88 -44.5t-82 -22t-71.5 6t-56.5 39.5q-15 19 -10.5 45t16.5 48.5t25.5 37.5t16.5 12q29 -32 56.5 -49t57.5 -20t64 6.5t75 30.5q43 22 82.5 25t72 -8.5t56 -36t34.5 -57.5q4 -12 0.5 -17.5t-9.5 -7t-12 0
t-7 3.5q-11 19 -31 32t-48.5 15.5t-64 -6.5t-76.5 -33z" />
    <glyph glyph-name="adieresis" unicode="&#xe4;" horiz-adv-x="607" 
d="M169 778q15 9 32.5 15t36 3.5t36 -16t31.5 -41.5q14 -27 11.5 -52t-16 -44.5t-36 -31.5t-48.5 -14q-21 -2 -42 5.5t-37.5 20.5t-25.5 31t-7.5 38.5t17 42.5t48.5 43zM405 801q15 7 32.5 12.5t35.5 3t35 -15.5t31 -42q13 -27 8 -51t-21 -43t-39.5 -30.5t-47.5 -13.5
q-30 -2 -58 17t-39.5 47t1 60t62.5 56zM640 126q19 21 37 26t27 -2t4.5 -25t-29.5 -43q-15 -15 -38 -31.5t-50 -28.5t-56.5 -17.5t-58.5 -0.5q-88 15 -128 90q-10 -21 -26 -39q-29 -29 -64 -44t-80 -10t-79.5 30.5t-55.5 67.5t-27 99t6 125q13 71 48 121t79.5 78t91.5 33.5
t84 -11.5q2 10 4 16.5t6 8.5q51 22 89.5 24.5t62 -14t30.5 -51.5t-6 -88q-8 -33 -13 -76t-6 -85.5t3 -79.5t15 -59q8 -18 22 -30.5t31.5 -16t37 3.5t39.5 29zM274 97q11 10 18.5 28t12 37.5t7 37.5t3.5 29q-1 11 -1.5 22t-0.5 23v52t0.5 60t2 60.5t3.5 54.5q-23 7 -45 -6.5
t-41 -43t-33 -71.5t-20 -92q-6 -56 2.5 -98t24 -67.5t34.5 -32.5t33 7z" />
    <glyph glyph-name="aring" unicode="&#xe5;" horiz-adv-x="607" 
d="M640 126q19 21 37 26t27 -2t4.5 -25t-29.5 -43q-15 -15 -38 -31.5t-50 -28.5t-56.5 -17.5t-58.5 -0.5q-88 15 -128 90q-10 -21 -26 -39q-29 -29 -64 -44t-80 -10t-79.5 30.5t-55.5 67.5t-27 99t6 125q13 71 48 121t79.5 78t91.5 33.5t84 -11.5q5 21 10 25q49 32 87 39
t61.5 -10t31 -57t-3.5 -101q-6 -34 -11 -76.5t-6.5 -85t2 -79.5t14.5 -59q8 -18 22 -30.5t31.5 -16t37 3.5t39.5 29zM274 97q11 10 18.5 28t12 37.5t7 37.5t3.5 29q-1 11 -1.5 22t-0.5 23v52t0.5 60t2 60.5t3.5 54.5q-23 7 -45 -6.5t-41 -43t-33 -71.5t-20 -92
q-6 -56 2.5 -98t24 -67.5t34.5 -32.5t33 7zM225 892q24 11 52 19.5t56 5.5t55 -22t49 -63q21 -43 17 -82t-25 -69.5t-55.5 -49.5t-74.5 -22q-33 -2 -67 11t-60.5 36t-42 53t-13 62t28 63.5t80.5 57.5zM290 653q13 2 24.5 15.5t18.5 35.5t8.5 50t-5.5 58q-8 32 -16.5 45.5
t-18 16t-19 -3.5t-17.5 -14q-28 -28 -34 -64t1.5 -67.5t24 -52.5t33.5 -19z" />
    <glyph glyph-name="ae" unicode="&#xe6;" horiz-adv-x="792" 
d="M777 191q22 36 34.5 26t-2.5 -54q-13 -39 -44 -71.5t-72.5 -54t-88.5 -31.5t-92 -5q-53 6 -94.5 31.5t-67.5 68.5q-11 -26 -29 -46q-29 -29 -64 -44t-80 -10q-44 5 -78.5 30.5t-55.5 67.5t-27.5 99t5.5 125q13 71 48 121t79.5 78t91.5 33.5t84 -11.5q5 21 10 25
q73 47 120 40.5t59 -63.5q32 13 64.5 18.5t62 1.5t54.5 -18t42 -40q25 -39 19.5 -89.5t-34.5 -100.5t-79 -93.5t-114 -68.5l-4 -2q19 -36 52.5 -49.5t70 -8t71.5 29.5t59 65zM616 498q-12 18 -28 13t-32 -31.5t-30 -74.5t-21 -116q-3 -21 -2.5 -39.5t2.5 -35.5
q40 28 66.5 69.5t40 83.5t14.5 78t-10 53zM273 97q11 10 18.5 28t12 37.5t7 37t3.5 28.5q-1 7 -1 13.5v13.5q0 5 -0.5 9.5t-0.5 9.5v52t1 60t2.5 60.5t3.5 54.5q-23 7 -45.5 -6.5t-41.5 -43t-32.5 -71.5t-19.5 -92q-6 -56 2 -98t23.5 -67.5t34.5 -32.5t33 7z" />
    <glyph glyph-name="ccedilla" unicode="&#xe7;" horiz-adv-x="484" 
d="M218 -42q30 -2 72 -13.5t79.5 -33t63.5 -53.5t23 -76q-3 -48 -31 -81.5t-66.5 -54.5t-81 -30.5t-73.5 -9.5q-50 0 -84.5 15t-56 36.5t-30 44.5t-6.5 40q4 27 19.5 44t35 24t39.5 2t33 -23q4 -6 -1.5 -28t-5.5 -46.5t13 -44t54 -19.5q45 0 78 29.5t33 86.5
q0 52 -35.5 91.5t-109.5 46.5q-7 1 -11.5 2.5t-6.5 6.5t-3 14t-1 25q-1 19 -2 33.5t-2 28.5q-39 15 -69 43t-48 67.5t-23 89.5t6 109q10 55 38.5 100.5t67 77.5t83 50.5t87.5 21t80.5 -12.5t60.5 -50q19 -28 19.5 -62t-11.5 -60.5t-34 -39.5t-49 0q-14 6 -19.5 22.5t-9 35.5
t-6.5 38t-12 31q-15 21 -32 15t-32.5 -32.5t-28 -70.5t-18.5 -99q-7 -59 7 -98.5t40 -61.5t61 -27t70.5 4.5t68 33.5t53.5 60q22 36 34.5 26t-1.5 -54q-12 -36 -40 -69t-68.5 -57t-91.5 -37t-109 -9l-10 -42v0z" />
    <glyph glyph-name="egrave" unicode="&#xe8;" horiz-adv-x="485" 
d="M515 231q11 18 20 24.5t14.5 2t5 -18.5t-7.5 -36q-13 -39 -50.5 -77t-86.5 -67.5t-102 -45.5t-98 -11q-53 6 -94 31t-67 66.5t-34.5 98.5t3.5 126q9 50 37 92.5t66.5 75t83.5 52.5t88 23.5t80.5 -10.5t60.5 -49q25 -39 19.5 -89t-35 -100.5t-79.5 -94t-114 -68.5l-4 -2
q13 -24 35.5 -35t50 -11.5t57.5 8.5t58.5 25.5t52.5 39.5t40 50zM202 289q-5 -42 0 -75q40 28 66.5 69.5t40 83.5t14.5 78t-10 53q-11 18 -27 13t-32 -31.5t-30 -74.5t-22 -116zM103 872q2 1 29 -14t65.5 -40t81.5 -55.5t78 -59.5t54.5 -52.5t11.5 -34.5q-4 -5 -32.5 -1.5
t-73 17t-100 38t-112.5 61.5q-29 19 -41.5 37.5t-12 36t14 34.5t37.5 33z" />
    <glyph glyph-name="eacute" unicode="&#xe9;" horiz-adv-x="485" 
d="M515 231q11 18 20 24.5t14.5 2t5 -18.5t-7.5 -36q-13 -39 -50.5 -77t-86.5 -67.5t-102 -45.5t-98 -11q-53 6 -94 31t-67 66.5t-34.5 98.5t3.5 126q9 50 37 92.5t66.5 75t83.5 52.5t88 23.5t80.5 -10.5t60.5 -49q25 -39 19.5 -89t-35 -100.5t-79.5 -94t-114 -68.5l-4 -2
q13 -24 35.5 -35t50 -11.5t57.5 8.5t58.5 25.5t52.5 39.5t40 50zM202 289q-5 -42 0 -75q40 28 66.5 69.5t40 83.5t14.5 78t-10 53q-11 18 -27 13t-32 -31.5t-30 -74.5t-22 -116zM427 809q0 -3 -24.5 -21.5t-62.5 -43.5t-83.5 -52.5t-86 -48t-70 -29.5t-36.5 3q-3 6 12 31
t45 60t74.5 76t101.5 79t88 20t42 -74z" />
    <glyph glyph-name="ecircumflex" unicode="&#xea;" horiz-adv-x="485" 
d="M515 231q11 18 20 24.5t14.5 2t5 -18.5t-7.5 -36q-13 -39 -50.5 -77t-86.5 -67.5t-102 -45.5t-98 -11q-53 6 -94 31t-67 66.5t-34.5 98.5t3.5 126q9 50 37 92.5t66.5 75t83.5 52.5t88 23.5t80.5 -10.5t60.5 -49q25 -39 19.5 -89t-35 -100.5t-79.5 -94t-114 -68.5l-4 -2
q13 -24 35.5 -35t50 -11.5t57.5 8.5t58.5 25.5t52.5 39.5t40 50zM202 289q-5 -42 0 -75q40 28 66.5 69.5t40 83.5t14.5 78t-10 53q-11 18 -27 13t-32 -31.5t-30 -74.5t-22 -116zM387 838q41 -39 72 -83t49 -82t21.5 -66.5t-10.5 -35.5q-3 -2 -15.5 6.5t-31.5 24t-43.5 37
t-50 45.5t-51.5 49.5t-49 49.5q-17 -20 -38 -43t-43.5 -46.5t-45 -46.5t-43.5 -43q-26 -24 -48.5 -27.5t-41 7t-32.5 32t-21 49.5q-1 3 3.5 10.5t18 21.5t38 35.5t64.5 53.5q63 49 118 70.5t89 19.5q23 0 45.5 -8t45.5 -30z" />
    <glyph glyph-name="edieresis" unicode="&#xeb;" horiz-adv-x="485" 
d="M515 231q11 18 20 24.5t14.5 2t5 -18.5t-7.5 -36q-13 -39 -50.5 -77t-86.5 -67.5t-102 -45.5t-98 -11q-53 6 -94 31t-67 66.5t-34.5 98.5t3.5 126q9 50 37 92.5t66.5 75t83.5 52.5t88 23.5t80.5 -10.5t60.5 -49q25 -39 19.5 -89t-35 -100.5t-79.5 -94t-114 -68.5l-4 -2
q13 -24 35.5 -35t50 -11.5t57.5 8.5t58.5 25.5t52.5 39.5t40 50zM202 289q-5 -42 0 -75q40 28 66.5 69.5t40 83.5t14.5 78t-10 53q-11 18 -27 13t-32 -31.5t-30 -74.5t-22 -116zM125 778q13 9 29.5 14t33.5 3t33.5 -14.5t29.5 -38.5q13 -25 10.5 -48t-15 -41t-33 -29.5
t-44.5 -12.5q-30 -2 -57.5 13t-40 39.5t-2.5 55t56 59.5zM368 785q15 7 32.5 12.5t35.5 3t35 -15.5t31 -42q13 -27 8 -51t-21 -43t-39.5 -30.5t-47.5 -13.5q-30 -2 -58 17t-39.5 47t1 60t62.5 56z" />
    <glyph glyph-name="igrave" unicode="&#xec;" horiz-adv-x="297" 
d="M306 98q19 21 37 26.5t27 -2t5 -25.5t-29 -43q-32 -31 -76.5 -45t-103.5 -7q-54 6 -85.5 38t-47 85.5t-17 126t5.5 158.5q2 26 2.5 52t2 47.5t4.5 37t11 20.5q49 32 87.5 38.5t62.5 -10t31 -56t-6 -100.5q-13 -62 -19.5 -110t-8 -84.5t1.5 -62.5t9 -44q4 -15 15 -30.5
t25 -24t31 -7t35 21.5zM57 872q2 1 29 -14t65.5 -40t81.5 -55.5t78 -59.5t54.5 -52.5t11.5 -34.5q-4 -5 -32.5 -1.5t-73 17t-100 38t-112.5 61.5q-29 19 -41.5 37.5t-12 36t14 34.5t37.5 33z" />
    <glyph glyph-name="iacute" unicode="&#xed;" horiz-adv-x="295" 
d="M303 98q19 21 37 26.5t27 -2t5 -25.5t-29 -43q-32 -31 -76.5 -45t-103.5 -7q-54 6 -85.5 38t-47 85.5t-17 126t5.5 158.5q2 26 2.5 52t2 47.5t4.5 37t11 20.5q49 32 87.5 38.5t62.5 -10t31 -56t-6 -100.5q-13 -62 -19.5 -110t-8 -84.5t1.5 -62.5t9 -44q4 -15 15 -30.5
t25 -24t31 -7t35 21.5zM377 809q1 -3 -24 -21.5t-63 -43.5t-83.5 -52.5t-86 -48t-70 -29.5t-36.5 3q-3 6 12 31t45 60t74.5 76t101.5 79t88 20t42 -74z" />
    <glyph glyph-name="icircumflex" unicode="&#xee;" horiz-adv-x="294" 
d="M303 98q19 21 37 26.5t27 -2t5 -25.5t-29 -43q-32 -31 -76.5 -45t-103.5 -7q-54 6 -85.5 38t-47 85.5t-17 126t5.5 158.5q2 26 2.5 52t2 47.5t4.5 37t11 20.5q49 32 87.5 38.5t62.5 -10t31 -56t-6 -100.5q-13 -62 -19.5 -110t-8 -84.5t1.5 -62.5t9 -44q4 -15 15 -30.5
t25 -24t31 -7t35 21.5zM246 845q41 -39 72 -83t49 -82t21.5 -66.5t-10.5 -35.5q-3 -1 -15.5 7t-31.5 23.5t-43.5 37t-50 45.5t-51.5 49.5t-49 49.5q-17 -20 -38 -43t-43.5 -46.5t-45 -46.5t-43.5 -43q-26 -24 -48.5 -27.5t-41 7t-32.5 32t-21 49.5q-1 3 3.5 10.5t18 21.5
t38 35.5t64.5 53.5q63 49 118 70.5t89 19.5q23 0 45.5 -8t45.5 -30z" />
    <glyph glyph-name="idieresis" unicode="&#xef;" horiz-adv-x="293" 
d="M302 98q19 21 37 26.5t27 -2t5 -25.5t-29 -43q-32 -31 -76.5 -45t-103.5 -7q-54 6 -85.5 38t-47 85.5t-17 126t5.5 158.5q2 26 2.5 52t2 47.5t4.5 37t11 20.5q49 32 87.5 38.5t62.5 -10t31 -56t-6 -100.5q-13 -62 -19.5 -110t-8 -84.5t1.5 -62.5t9 -44q4 -15 15 -30.5
t25 -24t31 -7t35 21.5zM-4 813q13 9 29.5 14t33.5 3t33.5 -14.5t29.5 -38.5q13 -25 10.5 -48t-15 -41t-33 -29.5t-44.5 -12.5q-30 -2 -57.5 13t-40 39.5t-2.5 55t56 59.5zM239 820q15 7 32.5 12.5t35.5 3t35 -15.5t31 -42q13 -27 8 -51t-21 -43t-39.5 -30.5t-47.5 -13.5
q-30 -2 -58 17t-39.5 47t1 60t62.5 56z" />
    <glyph glyph-name="eth" unicode="&#xf0;" horiz-adv-x="578" 
d="M478 909q68 -41 83.5 -79t-18.5 -70q-33 -31 -93 -62q10 -10 24.5 -42.5t28 -81.5t22.5 -112.5t9 -134.5q0 -77 -24 -141t-67 -108t-103 -65t-133 -10q-53 7 -95.5 33t-69.5 68.5t-36.5 101t3.5 131.5q8 45 28.5 84t48.5 69.5t62.5 52t70.5 31.5q32 8 44.5 3.5t14 -14
t-4 -20.5t-9.5 -15q-9 -13 -20.5 -34t-22 -48t-18.5 -59.5t-10 -68.5q-3 -45 2.5 -86.5t17.5 -73t30.5 -50t42.5 -18.5q63 0 99.5 60.5t36.5 177.5q0 87 -28.5 167.5t-85.5 141.5q-45 -14 -84 -20.5t-65 -1.5q-18 4 -30 13.5t-18 21t-7.5 24t0.5 22.5q0 1 21.5 9.5
t52.5 21.5q0 1 -1 1q-49 20 -78.5 43.5t-35.5 52t13.5 62t69.5 72.5q4 3 20 -2.5t38.5 -18.5t50 -32t56.5 -42q11 -9 22 -19t22 -21q55 38 85.5 64t37.5 22z" />
    <glyph glyph-name="ntilde" unicode="&#xf1;" horiz-adv-x="594" 
d="M627 110q19 21 36 26.5t25 -2t2.5 -25.5t-30.5 -43q-15 -15 -36 -29t-45 -23t-51.5 -12t-56.5 2q-41 7 -71.5 22.5t-50.5 43.5t-30.5 71.5t-10.5 106.5q0 65 -4 103t-11.5 56t-17.5 18.5t-23 -8.5q-21 -16 -36.5 -47t-26 -70.5t-15.5 -84.5t-5 -90q3 -23 7.5 -44.5
t9.5 -41.5q3 -11 -11.5 -21t-37 -14.5t-48 -1t-46.5 18.5q-7 6 -13 34t-10.5 73.5t-7 106.5t-2.5 132q0 59 3.5 108t9 84.5t12.5 56t14 22.5q54 14 86.5 10.5t47.5 -23t14.5 -52.5t-12.5 -78q-10 -37 -16 -72t-9 -68q23 63 54.5 110.5t67.5 70.5q50 31 95.5 38.5t77.5 -7.5
t47 -53t3 -99q-6 -34 -10 -73t-5 -77t2 -71.5t11 -57.5q8 -27 22.5 -41t31.5 -16.5t35.5 5.5t34.5 26zM338 749q-45 -27 -88 -44.5t-82 -22t-71.5 6t-56.5 39.5q-15 19 -10.5 45t16.5 48.5t25.5 37.5t16.5 12q29 -32 56.5 -49t57.5 -20t64 6.5t75 30.5q43 22 82.5 25
t72 -8.5t56 -36t34.5 -57.5q4 -12 0.5 -17.5t-9.5 -7t-12 0t-7 3.5q-11 19 -31 32t-48.5 15.5t-64 -6.5t-76.5 -33z" />
    <glyph glyph-name="ograve" unicode="&#xf2;" 
d="M542 298q9 4 21.5 12t25 15.5l22.5 13.5t15 6q16 0 18 -19q1 -6 -9.5 -17.5t-27 -24.5t-37 -26t-40.5 -22q-14 -51 -42 -97t-68.5 -79t-92 -49.5t-111.5 -7.5q-53 7 -95.5 33t-69.5 68.5t-36.5 101t3.5 131.5q8 45 28.5 84t48.5 69.5t62.5 52t70.5 31.5q32 9 44.5 4.5
t14 -14.5t-4 -21t-8.5 -15q-9 -13 -21 -34t-22.5 -48t-18 -59.5t-9.5 -68.5q-3 -45 2 -86.5t17 -73t30.5 -50t42.5 -18.5q44 0 75 32t47 89q-58 -2 -91.5 20.5t-49 57t-15.5 76t9.5 79t25 65t32.5 34.5q30 13 68 2t71 -41t55 -76.5t21 -104.5v-12t-1 -13zM336 482
q-6 -9 -11 -27.5t-5.5 -41.5t4 -47.5t17 -45t34 -34.5t54.5 -15q3 27 3 57q0 57 -10 95.5t-25 57.5t-31.5 19t-29.5 -18zM147 872q2 1 29 -14t65.5 -40t81.5 -55.5t78 -59.5t54.5 -52.5t11.5 -34.5q-4 -5 -32.5 -1.5t-73 17t-100 38t-112.5 61.5q-29 19 -41.5 37.5t-12 36
t14 34.5t37.5 33z" />
    <glyph glyph-name="oacute" unicode="&#xf3;" 
d="M542 298q9 4 21.5 12t25 15.5l22.5 13.5t15 6q16 0 18 -19q1 -6 -9.5 -17.5t-27 -24.5t-37 -26t-40.5 -22q-14 -51 -42 -97t-68.5 -79t-92 -49.5t-111.5 -7.5q-53 7 -95.5 33t-69.5 68.5t-36.5 101t3.5 131.5q8 45 28.5 84t48.5 69.5t62.5 52t70.5 31.5q32 9 44.5 4.5
t14 -14.5t-4 -21t-8.5 -15q-9 -13 -21 -34t-22.5 -48t-18 -59.5t-9.5 -68.5q-3 -45 2 -86.5t17 -73t30.5 -50t42.5 -18.5q44 0 75 32t47 89q-58 -2 -91.5 20.5t-49 57t-15.5 76t9.5 79t25 65t32.5 34.5q30 13 68 2t71 -41t55 -76.5t21 -104.5v-12t-1 -13zM336 482
q-6 -9 -11 -27.5t-5.5 -41.5t4 -47.5t17 -45t34 -34.5t54.5 -15q3 27 3 57q0 57 -10 95.5t-25 57.5t-31.5 19t-29.5 -18zM470 809q1 -3 -24 -21.5t-63 -43.5t-83.5 -52.5t-86 -48t-70 -29.5t-36.5 3q-3 6 12 31t45 60t74.5 76t101.5 79t88 20t42 -74z" />
    <glyph glyph-name="ocircumflex" unicode="&#xf4;" 
d="M542 298q9 4 21.5 12t25 15.5l22.5 13.5t15 6q16 0 18 -19q1 -6 -9.5 -17.5t-27 -24.5t-37 -26t-40.5 -22q-14 -51 -42 -97t-68.5 -79t-92 -49.5t-111.5 -7.5q-53 7 -95.5 33t-69.5 68.5t-36.5 101t3.5 131.5q8 45 28.5 84t48.5 69.5t62.5 52t70.5 31.5q32 9 44.5 4.5
t14 -14.5t-4 -21t-8.5 -15q-9 -13 -21 -34t-22.5 -48t-18 -59.5t-9.5 -68.5q-3 -45 2 -86.5t17 -73t30.5 -50t42.5 -18.5q44 0 75 32t47 89q-58 -2 -91.5 20.5t-49 57t-15.5 76t9.5 79t25 65t32.5 34.5q30 13 68 2t71 -41t55 -76.5t21 -104.5v-12t-1 -13zM336 482
q-6 -9 -11 -27.5t-5.5 -41.5t4 -47.5t17 -45t34 -34.5t54.5 -15q3 27 3 57q0 57 -10 95.5t-25 57.5t-31.5 19t-29.5 -18zM424 829q41 -39 72 -83t49 -82t21.5 -66.5t-10.5 -35.5q-3 -2 -15.5 6.5t-31.5 24t-43.5 37t-50 45.5t-51.5 49.5t-49 49.5q-17 -20 -38 -43
t-43.5 -46.5t-45 -46.5t-43.5 -43q-26 -24 -48.5 -27.5t-41 7t-32.5 32t-21 49.5q-1 3 3.5 10.5t18 21.5t38 35.5t64.5 53.5q63 49 118 70.5t89 19.5q23 0 45.5 -8t45.5 -30z" />
    <glyph glyph-name="otilde" unicode="&#xf5;" 
d="M542 298q9 4 21.5 12t25 15.5l22.5 13.5t15 6q16 0 18 -19q1 -6 -9.5 -17.5t-27 -24.5t-37 -26t-40.5 -22q-14 -51 -42 -97t-68.5 -79t-92 -49.5t-111.5 -7.5q-53 7 -95.5 33t-69.5 68.5t-36.5 101t3.5 131.5q8 45 28.5 84t48.5 69.5t62.5 52t70.5 31.5q32 9 44.5 4.5
t14 -14.5t-4 -21t-8.5 -15q-9 -13 -21 -34t-22.5 -48t-18 -59.5t-9.5 -68.5q-3 -45 2 -86.5t17 -73t30.5 -50t42.5 -18.5q44 0 75 32t47 89q-58 -2 -91.5 20.5t-49 57t-15.5 76t9.5 79t25 65t32.5 34.5q30 13 68 2t71 -41t55 -76.5t21 -104.5v-12t-1 -13zM336 482
q-6 -9 -11 -27.5t-5.5 -41.5t4 -47.5t17 -45t34 -34.5t54.5 -15q3 27 3 57q0 57 -10 95.5t-25 57.5t-31.5 19t-29.5 -18zM327 679q-45 -27 -88 -44.5t-82 -22t-71.5 6t-56.5 39.5q-15 19 -10.5 45t16.5 48.5t25.5 37.5t16.5 12q29 -32 56.5 -49t57.5 -20t64 6.5t75 30.5
q43 22 82.5 25t72 -8.5t56 -36t34.5 -57.5q4 -12 0.5 -17.5t-9.5 -7t-12 0t-7 3.5q-11 19 -31 32t-48.5 15.5t-64 -6.5t-76.5 -33z" />
    <glyph glyph-name="odieresis" unicode="&#xf6;" 
d="M542 298q9 4 21.5 12t25 15.5l22.5 13.5t15 6q16 0 18 -19q1 -6 -9.5 -17.5t-27 -24.5t-37 -26t-40.5 -22q-14 -51 -42 -97t-68.5 -79t-92 -49.5t-111.5 -7.5q-53 7 -95.5 33t-69.5 68.5t-36.5 101t3.5 131.5q8 45 28.5 84t48.5 69.5t62.5 52t70.5 31.5q32 9 44.5 4.5
t14 -14.5t-4 -21t-8.5 -15q-9 -13 -21 -34t-22.5 -48t-18 -59.5t-9.5 -68.5q-3 -45 2 -86.5t17 -73t30.5 -50t42.5 -18.5q44 0 75 32t47 89q-58 -2 -91.5 20.5t-49 57t-15.5 76t9.5 79t25 65t32.5 34.5q30 13 68 2t71 -41t55 -76.5t21 -104.5v-12t-1 -13zM336 482
q-6 -9 -11 -27.5t-5.5 -41.5t4 -47.5t17 -45t34 -34.5t54.5 -15q3 27 3 57q0 57 -10 95.5t-25 57.5t-31.5 19t-29.5 -18zM141 784q13 9 29.5 14t33.5 3t33.5 -14.5t29.5 -38.5q13 -25 10.5 -48t-15 -41t-33 -29.5t-44.5 -12.5q-30 -2 -57.5 13t-40 39.5t-2.5 55t56 59.5z
M384 791q15 7 32.5 12.5t35.5 3t35 -15.5t31 -42q13 -27 8 -51t-21 -43t-39.5 -30.5t-47.5 -13.5q-30 -2 -58 17t-39.5 47t1 60t62.5 56z" />
    <glyph glyph-name="divide" unicode="&#xf7;" horiz-adv-x="957" 
d="M69 416q1 2 38 3.5t96.5 1.5t135 -2t153.5 -5.5t153 -9t133.5 -13t93.5 -17.5t34 -23q0 -4 -23 -10t-62 -13t-91.5 -14.5t-111 -14.5t-121.5 -13t-123 -10.5t-114.5 -6.5t-96.5 -1t-67.5 12.5t-36 31t-8 46t17.5 58.5zM429 171q17 8 36.5 14t39 4t38.5 -16t35 -45
q16 -32 12 -60t-21 -49t-43.5 -34t-56 -15.5t-58.5 7t-51 33.5q-14 15 -17.5 36t4.5 43.5t28.5 44t53.5 37.5zM578 657q16 -32 12 -59.5t-21 -48.5t-43.5 -34t-56 -15.5t-58.5 6.5t-51 33q-14 15 -17.5 36.5t4.5 44t28.5 44t53.5 37.5q17 8 36.5 14t39 4t38.5 -16t35 -46z
" />
    <glyph glyph-name="oslash" unicode="&#xf8;" 
d="M438 666q17 24 37 33t39.5 5.5t37 -17.5t30.5 -35q0 -1 -7.5 -13t-21.5 -33t-33.5 -49.5t-42.5 -61.5q29 -30 48.5 -74t17.5 -98v-12t-1 -13q9 4 21.5 12t25 15.5l22.5 13.5t15 6q16 0 18 -19q1 -6 -9.5 -17.5t-27 -24.5t-37 -26t-40.5 -22q-14 -51 -42 -97t-68.5 -79
t-92 -49.5t-111.5 -7.5q-50 6 -90 29q-24 -26 -40 -39.5t-21 -9.5q-2 2 6 21t23 51q-50 42 -71.5 113t-4.5 169q8 45 28.5 84t48.5 69.5t62.5 52t70.5 31.5q32 9 44.5 4.5t14 -14.5t-4 -21t-8.5 -15q-9 -13 -21 -34t-22.5 -48t-18 -59.5t-9.5 -68.5q-1 -14 -1.5 -27.5
t0.5 -27.5l59 107q0 29 6 58t15.5 52.5t21.5 40.5t24 22q15 7 36 7q22 38 41 67.5t33 48.5zM417 211q-42 -2 -70 9t-47 31l-75 -99q12 -29 29.5 -45.5t40.5 -16.5q44 0 75 32t47 89zM432 328q0 27 -2.5 49.5t-6.5 41.5q-19 -26 -38.5 -53t-39.5 -54q13 -17 33.5 -28.5
t50.5 -12.5q3 27 3 57z" />
    <glyph glyph-name="ugrave" unicode="&#xf9;" horiz-adv-x="578" 
d="M607 100q19 21 37 26.5t27 -2t4.5 -25.5t-29.5 -43q-32 -31 -76.5 -47t-103.5 -5q-87 15 -127 90q-11 -22 -27 -38q-29 -29 -73.5 -44.5t-89.5 -10.5t-72.5 30t-42.5 67t-20 99.5t-3 126.5q1 40 4.5 79.5t9 72t13 54t16.5 24.5q60 22 98.5 20t57.5 -23.5t19.5 -60
t-16.5 -88.5q-15 -44 -26 -101t-5 -111q8 -63 24.5 -88t38.5 -5q11 10 21.5 28t18.5 37.5t13.5 37.5t6.5 29q-1 11 -1 22.5v23.5v84t1.5 93t6 78.5t12.5 38.5q49 32 87 39t62 -10t32 -56.5t-4 -100.5q-6 -34 -11 -77t-6 -85.5t2.5 -79.5t14.5 -59q6 -14 17 -29t25 -24t30 -8
t34 21zM149 883q2 1 29 -14t65.5 -40t81.5 -55.5t78 -59.5t54.5 -52.5t11.5 -34.5q-4 -5 -32.5 -1.5t-73 17t-100 38t-112.5 61.5q-29 19 -41.5 37.5t-12 36t14 34.5t37.5 33z" />
    <glyph glyph-name="uacute" unicode="&#xfa;" horiz-adv-x="578" 
d="M607 100q19 21 37 26.5t27 -2t4.5 -25.5t-29.5 -43q-32 -31 -76.5 -47t-103.5 -5q-87 15 -127 90q-11 -22 -27 -38q-29 -29 -73.5 -44.5t-89.5 -10.5t-72.5 30t-42.5 67t-20 99.5t-3 126.5q1 40 4.5 79.5t9 72t13 54t16.5 24.5q60 22 98.5 20t57.5 -23.5t19.5 -60
t-16.5 -88.5q-15 -44 -26 -101t-5 -111q8 -63 24.5 -88t38.5 -5q11 10 21.5 28t18.5 37.5t13.5 37.5t6.5 29q-1 11 -1 22.5v23.5v84t1.5 93t6 78.5t12.5 38.5q49 32 87 39t62 -10t32 -56.5t-4 -100.5q-6 -34 -11 -77t-6 -85.5t2.5 -79.5t14.5 -59q6 -14 17 -29t25 -24t30 -8
t34 21zM473 809q0 -3 -24.5 -21.5t-62.5 -43.5t-83.5 -52.5t-86 -48t-70 -29.5t-36.5 3q-3 6 12 31t45 60t74.5 76t101.5 79t88 20t42 -74z" />
    <glyph glyph-name="ucircumflex" unicode="&#xfb;" horiz-adv-x="578" 
d="M607 100q19 21 37 26.5t27 -2t4.5 -25.5t-29.5 -43q-32 -31 -76.5 -47t-103.5 -5q-87 15 -127 90q-11 -22 -27 -38q-29 -29 -73.5 -44.5t-89.5 -10.5t-72.5 30t-42.5 67t-20 99.5t-3 126.5q1 40 4.5 79.5t9 72t13 54t16.5 24.5q60 22 98.5 20t57.5 -23.5t19.5 -60
t-16.5 -88.5q-15 -44 -26 -101t-5 -111q8 -63 24.5 -88t38.5 -5q11 10 21.5 28t18.5 37.5t13.5 37.5t6.5 29q-1 11 -1 22.5v23.5v84t1.5 93t6 78.5t12.5 38.5q49 32 87 39t62 -10t32 -56.5t-4 -100.5q-6 -34 -11 -77t-6 -85.5t2.5 -79.5t14.5 -59q6 -14 17 -29t25 -24t30 -8
t34 21zM417 869q41 -39 72 -83t49 -82t21.5 -66.5t-10.5 -35.5q-3 -1 -15.5 7t-31.5 23.5t-43.5 37t-50 45.5t-51.5 49.5t-49 49.5q-17 -20 -38 -43t-43.5 -46.5t-45 -46.5t-43.5 -43q-26 -24 -48.5 -27.5t-41 7t-32.5 32t-21 49.5q-1 3 3.5 10.5t18 21.5t38 35.5t64.5 53.5
q63 49 118 70.5t89 19.5q23 0 45.5 -8t45.5 -30z" />
    <glyph glyph-name="udieresis" unicode="&#xfc;" horiz-adv-x="578" 
d="M119 788q15 9 32.5 15t36 3.5t36 -16t31.5 -41.5q14 -27 11.5 -52t-16 -44.5t-36 -31.5t-48.5 -14q-21 -2 -42 5.5t-37.5 20.5t-25.5 31t-7.5 38.5t17 42.5t48.5 43zM355 811q15 7 32.5 12.5t35.5 3t35 -15.5t31 -42q13 -27 8 -51t-21 -43t-39.5 -30.5t-47.5 -13.5
q-30 -2 -58 17t-39.5 47t1 60t62.5 56zM607 100q19 21 37 26.5t27 -2t4.5 -25.5t-29.5 -43q-32 -31 -76.5 -47t-103.5 -5q-87 15 -127 90q-11 -22 -27 -38q-29 -29 -73.5 -44.5t-89.5 -10.5t-72.5 30t-42.5 67t-20 99.5t-3 126.5q1 40 4.5 79.5t9 72t13 54t16.5 24.5
q60 22 98.5 20t57.5 -23.5t19.5 -60t-16.5 -88.5q-15 -44 -26 -101t-5 -111q8 -63 24.5 -88t38.5 -5q11 10 21.5 28t18.5 37.5t13.5 37.5t6.5 29q-1 11 -1 22.5v23.5v84t1.5 93t6 78.5t12.5 38.5q49 32 87 39t62 -10t32 -56.5t-4 -100.5q-6 -34 -11 -77t-6 -85.5t2.5 -79.5
t14.5 -59q6 -14 17 -29t25 -24t30 -8t34 21z" />
    <glyph glyph-name="yacute" unicode="&#xfd;" horiz-adv-x="558" 
d="M581 147q28 9 41.5 5.5t15 -13t-7.5 -21.5t-26 -18q-14 -6 -32.5 -14.5t-37.5 -17.5t-37 -17.5t-30 -14.5q-4 -54 -9.5 -109.5t-13.5 -107t-19.5 -96t-27.5 -75.5q-25 -48 -67 -71.5t-87.5 -24t-87 22t-65.5 65.5t-21.5 91t31 98.5t82.5 100t134 95.5q2 19 3.5 37.5
t2.5 35.5q-13 -23 -29 -43t-36 -33.5t-44 -20t-52 -3.5q-45 5 -75 30t-47.5 67t-23 99t-0.5 126q3 45 7 87.5t8.5 76t11 55t15.5 24.5q60 22 99.5 18t60 -27t21.5 -63t-16 -90q-15 -45 -24.5 -102.5t-2.5 -111.5q8 -63 24.5 -88.5t37.5 -4.5q14 13 25 37t19.5 54t14 63
t7.5 65q-2 33 -6.5 66.5t-11.5 73.5q-8 47 6.5 80.5t43.5 49.5t69.5 13t85.5 -28q9 -5 10 -31t-3 -69.5t-12.5 -101.5t-18.5 -127q-5 -29 -8 -65t-6 -76q9 4 23.5 10.5t30 14t30.5 14.5t25 10zM257 -300q6 12 12.5 37t13 59t13 74t11.5 81q-57 -36 -94.5 -72t-56 -69
t-20.5 -62.5t11 -54.5q8 -15 22 -24t30 -9.5t31.5 9t26.5 31.5zM463 809q0 -3 -24.5 -21.5t-62.5 -43.5t-83.5 -52.5t-86 -48t-70 -29.5t-36.5 3q-3 6 12 31t45 60t74.5 76t101.5 79t88 20t42 -74z" />
    <glyph glyph-name="thorn" unicode="&#xfe;" horiz-adv-x="625" 
d="M455 570q45 -5 74.5 -30.5t45 -67.5t16.5 -99t-11 -125q-11 -61 -45.5 -109.5t-82.5 -81t-104.5 -47t-110.5 -8.5q-49 5 -81 22q-15 -53 -35.5 -97t-46.5 -74.5t-59.5 -45.5t-73.5 -9q-34 5 -49.5 13t-18.5 16.5t5.5 17t22.5 15t31.5 9t34.5 0.5q13 -2 22.5 25t16 74.5
t10 109.5t5 131.5t2 140.5t0.5 135q0 86 22 156t60.5 121t91 80t112.5 34q24 2 33 -4t8.5 -14.5t-8.5 -17.5t-17 -12q-59 -20 -89 -113.5t-30 -268.5v-11q12 20 26.5 38.5t32.5 36.5q40 41 89 53.5t101 6.5zM396 283q6 56 0.5 97t-18.5 65t-29.5 31t-31.5 -6
q-42 -34 -74 -97.5t-49 -144.5l-4 -30l-4 -30q5 -38 16.5 -65t32.5 -36q27 -11 53.5 5.5t49 49t38 76t20.5 85.5z" />
    <glyph glyph-name="ydieresis" unicode="&#xff;" horiz-adv-x="558" 
d="M581 147q28 9 41.5 5.5t15 -13t-7.5 -21.5t-26 -18q-14 -6 -32.5 -14.5t-37.5 -17.5t-37 -17.5t-30 -14.5q-4 -54 -9.5 -109.5t-13.5 -107t-19.5 -96t-27.5 -75.5q-25 -48 -67 -71.5t-87.5 -24t-87 22t-65.5 65.5t-21.5 91t31 98.5t82.5 100t134 95.5q2 19 3.5 37.5
t2.5 35.5q-13 -23 -29 -43t-36 -33.5t-44 -20t-52 -3.5q-45 5 -75 30t-47.5 67t-23 99t-0.5 126q3 45 7 87.5t8.5 76t11 55t15.5 24.5q60 22 99.5 18t60 -27t21.5 -63t-16 -90q-15 -45 -24.5 -102.5t-2.5 -111.5q8 -63 24.5 -88.5t37.5 -4.5q14 13 25 37t19.5 54t14 63
t7.5 65q-2 33 -6.5 66.5t-11.5 73.5q-8 47 6.5 80.5t43.5 49.5t69.5 13t85.5 -28q9 -5 10 -31t-3 -69.5t-12.5 -101.5t-18.5 -127q-5 -29 -8 -65t-6 -76q9 4 23.5 10.5t30 14t30.5 14.5t25 10zM257 -300q6 12 12.5 37t13 59t13 74t11.5 81q-57 -36 -94.5 -72t-56 -69
t-20.5 -62.5t11 -54.5q8 -15 22 -24t30 -9.5t31.5 9t26.5 31.5zM134 813q13 9 29.5 14t33.5 3t33.5 -14.5t29.5 -38.5q13 -25 10.5 -48t-15 -41t-33 -29.5t-44.5 -12.5q-30 -2 -57.5 13t-40 39.5t-2.5 55t56 59.5zM377 820q15 7 32.5 12.5t35.5 3t35 -15.5t31 -42
q13 -27 8 -51t-21 -43t-39.5 -30.5t-47.5 -13.5q-30 -2 -58 17t-39.5 47t1 60t62.5 56z" />
    <glyph glyph-name="Amacron" unicode="&#x100;" horiz-adv-x="1086" 
d="M1153 183q5 -6 -0.5 -19.5t-17 -30.5t-28 -36t-34.5 -35q-16 -15 -38 -27.5t-48 -21t-54.5 -12t-57.5 -0.5q-75 8 -123 62.5t-68 147.5q-57 9 -112.5 20t-103.5 25q-30 -65 -62 -115.5t-69 -84.5t-79.5 -49t-91.5 -7q-58 9 -93.5 32.5t-51.5 53.5t-15 61t15 54
q12 18 30.5 33.5t41.5 23t49 3t53 -25.5q4 -3 0.5 -15.5t-9.5 -30t-12.5 -37t-7 -36.5t6.5 -29.5t27 -15.5q48 -6 98.5 45t101.5 160q-47 17 -64 33q-14 13 -18.5 27t-3.5 27.5t6.5 25t12.5 18.5q1 1 34.5 -3t81.5 -9q9 24 18 49.5t17 53.5q22 66 44 122t48 101
q-69 -21 -142 -27.5t-142 10.5q-46 12 -80.5 38t-51.5 60.5t-12.5 74.5t37.5 80q4 5 20.5 -8.5t46.5 -33t74 -40t104 -30.5q58 -10 113 -4t104.5 20t92 32.5t75.5 35.5q21 15 43.5 27.5t41.5 21t32.5 11.5t18.5 0q7 -6 11.5 -8.5t4.5 -7.5t-5.5 -15t-17.5 -31
q-8 -14 -16.5 -46t-16.5 -76t-15 -96t-12.5 -105.5t-8.5 -105.5t-3 -95q0 -5 0.5 -10t0.5 -10q49 4 82 5t35 -4q18 -35 23 -68t-1 -59.5t-21 -44t-38 -21.5q-23 -5 -66 -3q10 -55 26 -76q8 -11 22 -18.5t30.5 -9.5t34 3t33.5 18q23 19 41.5 38t33.5 31t26 15.5t19 -6.5z
M521 387q45 -5 84.5 -8.5t63.5 -3.5h5v10.5t1 10.5q3 45 6.5 95t8 99.5t11 97t16.5 88.5q-5 -2 -9.5 -4.5t-9.5 -4.5q-38 -41 -72.5 -110t-70.5 -175q-8 -25 -16.5 -48.5t-17.5 -46.5zM375 966q-68 1 -83.5 34.5t7.5 84.5q1 2 23.5 3t59.5 1t83 -1.5t94 -4.5t94 -7.5
t81.5 -10.5t57 -14t20.5 -18q0 -4 -20 -11t-53.5 -14.5t-77.5 -15.5t-92.5 -14t-98.5 -9.5t-95 -2.5z" />
    <glyph glyph-name="amacron" unicode="&#x101;" horiz-adv-x="607" 
d="M640 126q19 21 37 26t27 -2t4.5 -25t-29.5 -43q-15 -15 -38 -31.5t-50 -28.5t-56.5 -17.5t-58.5 -0.5q-88 15 -128 90q-10 -21 -26 -39q-29 -29 -64 -44t-80 -10t-79.5 30.5t-55.5 67.5t-27 99t6 125q13 71 48 121t79.5 78t91.5 33.5t84 -11.5q5 21 10 25q49 32 87 39
t61.5 -10t31 -57t-3.5 -101q-6 -34 -11 -76.5t-6.5 -85t2 -79.5t14.5 -59q8 -18 22 -30.5t31.5 -16t37 3.5t39.5 29zM274 97q11 10 18.5 28t12 37.5t7 37.5t3.5 29q-1 11 -1.5 22t-0.5 23v52t0.5 60t2 60.5t3.5 54.5q-23 7 -45 -6.5t-41 -43t-33 -71.5t-20 -92
q-6 -56 2.5 -98t24 -67.5t34.5 -32.5t33 7zM136 666q-68 1 -83.5 34.5t7.5 84.5q1 2 23.5 3t59.5 1t83 -1.5t94 -4.5t94 -7.5t81.5 -10.5t57 -14t20.5 -18q-1 -4 -20.5 -11t-53 -14.5t-77.5 -15.5t-92.5 -14t-98.5 -9.5t-95 -2.5z" />
    <glyph glyph-name="Abreve" unicode="&#x102;" horiz-adv-x="1086" 
d="M1153 183q5 -6 -0.5 -19.5t-17 -30.5t-28 -36t-34.5 -35q-16 -15 -38 -27.5t-48 -21t-54.5 -12t-57.5 -0.5q-75 8 -123 62.5t-68 147.5q-57 9 -112.5 20t-103.5 25q-30 -65 -62 -115.5t-69 -84.5t-79.5 -49t-91.5 -7q-58 9 -93.5 32.5t-51.5 53.5t-15 61t15 54
q12 18 30.5 33.5t41.5 23t49 3t53 -25.5q4 -3 0.5 -15.5t-9.5 -30t-12.5 -37t-7 -36.5t6.5 -29.5t27 -15.5q48 -6 98.5 45t101.5 160q-47 17 -64 33q-14 13 -18.5 27t-3.5 27.5t6.5 25t12.5 18.5q1 1 34.5 -3t81.5 -9q9 24 18 49.5t17 53.5q22 66 44 122t48 101
q-69 -21 -142 -27.5t-142 10.5q-46 12 -80.5 38t-51.5 60.5t-12.5 74.5t37.5 80q4 5 20.5 -8.5t46.5 -33t74 -40t104 -30.5q58 -10 113 -4t104.5 20t92 32.5t75.5 35.5q21 15 43.5 27.5t41.5 21t32.5 11.5t18.5 0q7 -6 11.5 -8.5t4.5 -7.5t-5.5 -15t-17.5 -31
q-8 -14 -16.5 -46t-16.5 -76t-15 -96t-12.5 -105.5t-8.5 -105.5t-3 -95q0 -5 0.5 -10t0.5 -10q49 4 82 5t35 -4q18 -35 23 -68t-1 -59.5t-21 -44t-38 -21.5q-23 -5 -66 -3q10 -55 26 -76q8 -11 22 -18.5t30.5 -9.5t34 3t33.5 18q23 19 41.5 38t33.5 31t26 15.5t19 -6.5z
M521 387q45 -5 84.5 -8.5t63.5 -3.5h5v10.5t1 10.5q3 45 6.5 95t8 99.5t11 97t16.5 88.5q-5 -2 -9.5 -4.5t-9.5 -4.5q-38 -41 -72.5 -110t-70.5 -175q-8 -25 -16.5 -48.5t-17.5 -46.5zM764 1223q8 35 29 56t47.5 31t54.5 11.5t51 -2t36.5 -11t11.5 -14.5q-26 -79 -74 -136
t-106.5 -93.5t-120.5 -53.5t-115 -17q-48 0 -91.5 14.5t-80 43t-63.5 72t-41 101.5q-8 32 1.5 48t28.5 21t44 0.5t47 -12.5t37 -18t16 -16q3 -39 12.5 -74t25 -61.5t37.5 -42.5t51 -16q57 0 100 45t62 124z" />
    <glyph glyph-name="abreve" unicode="&#x103;" horiz-adv-x="607" 
d="M640 126q19 21 37 26t27 -2t4.5 -25t-29.5 -43q-15 -15 -38 -31.5t-50 -28.5t-56.5 -17.5t-58.5 -0.5q-88 15 -128 90q-10 -21 -26 -39q-29 -29 -64 -44t-80 -10t-79.5 30.5t-55.5 67.5t-27 99t6 125q13 71 48 121t79.5 78t91.5 33.5t84 -11.5q5 21 10 25q49 32 87 39
t61.5 -10t31 -57t-3.5 -101q-6 -34 -11 -76.5t-6.5 -85t2 -79.5t14.5 -59q8 -18 22 -30.5t31.5 -16t37 3.5t39.5 29zM274 97q11 10 18.5 28t12 37.5t7 37.5t3.5 29q-1 11 -1.5 22t-0.5 23v52t0.5 60t2 60.5t3.5 54.5q-23 7 -45 -6.5t-41 -43t-33 -71.5t-20 -92
q-6 -56 2.5 -98t24 -67.5t34.5 -32.5t33 7zM432 873q8 35 29 56t47.5 31t54.5 11.5t51 -2t36.5 -11t11.5 -14.5q-26 -79 -74 -136t-106.5 -93.5t-120.5 -53.5t-115 -17q-48 0 -91.5 14.5t-80 43t-63.5 72t-41 101.5q-8 32 1.5 48t28.5 21t44 0.5t47 -12.5t37 -18t16 -16
q3 -39 12.5 -74t25 -61.5t37.5 -42.5t51 -16q57 0 100 45t62 124z" />
    <glyph glyph-name="Aogonek" unicode="&#x104;" horiz-adv-x="1086" 
d="M1153 183q5 -6 -0.5 -19.5t-17 -30.5t-28 -36t-34.5 -35q-16 -15 -38 -27.5t-48 -21t-54.5 -12t-57.5 -0.5q-75 8 -123 62.5t-68 147.5q-57 9 -112.5 20t-103.5 25q-30 -65 -62 -115.5t-69 -84.5t-79.5 -49t-91.5 -7q-58 9 -93.5 32.5t-51.5 53.5t-15 61t15 54
q12 18 30.5 33.5t41.5 23t49 3t53 -25.5q4 -3 0.5 -15.5t-9.5 -30t-12.5 -37t-7 -36.5t6.5 -29.5t27 -15.5q48 -6 98.5 45t101.5 160q-47 17 -64 33q-14 13 -18.5 27t-3.5 27.5t6.5 25t12.5 18.5q1 1 34.5 -3t81.5 -9q9 24 18 49.5t17 53.5q22 66 44 122t48 101
q-69 -21 -142 -27.5t-142 10.5q-46 12 -80.5 38t-51.5 60.5t-12.5 74.5t37.5 80q4 5 20.5 -8.5t46.5 -33t74 -40t104 -30.5q58 -10 113 -4t104.5 20t92 32.5t75.5 35.5q21 15 43.5 27.5t41.5 21t32.5 11.5t18.5 0q7 -6 11.5 -8.5t4.5 -7.5t-5.5 -15t-17.5 -31
q-8 -14 -16.5 -46t-16.5 -76t-15 -96t-12.5 -105.5t-8.5 -105.5t-3 -95q0 -5 0.5 -10t0.5 -10q49 4 82 5t35 -4q18 -35 23 -68t-1 -59.5t-21 -44t-38 -21.5q-23 -5 -66 -3q10 -55 26 -76q8 -11 22 -18.5t30.5 -9.5t34 3t33.5 18q23 19 41.5 38t33.5 31t26 15.5t19 -6.5z
M521 387q45 -5 84.5 -8.5t63.5 -3.5h5v10.5t1 10.5q3 45 6.5 95t8 99.5t11 97t16.5 88.5q-5 -2 -9.5 -4.5t-9.5 -4.5q-38 -41 -72.5 -110t-70.5 -175q-8 -25 -16.5 -48.5t-17.5 -46.5zM844 61q-79 -64 -128 -136.5t-63.5 -137.5t10 -114.5t92.5 -66.5q52 -14 100.5 -9.5
t88 22.5t68 49t42.5 70q9 26 27 37.5t33.5 7.5t22.5 -22.5t-6 -52.5q-17 -43 -57 -87.5t-97.5 -77t-129.5 -47.5t-153 1q-99 19 -153 56.5t-71 87t-2 107t55.5 116.5t101.5 115.5t135 104.5q12 7 33 10t38.5 1t24 -10.5t-11.5 -23.5z" />
    <glyph glyph-name="aogonek" unicode="&#x105;" horiz-adv-x="607" 
d="M640 126q19 21 37 26t27 -2t4.5 -25t-29.5 -43q-14 -14 -34 -28.5t-43.5 -26.5t-49.5 -19t-52 -7q-59 -60 -92.5 -123.5t-38.5 -119t20.5 -96.5t86.5 -56q52 -14 100.5 -9.5t88 22.5t68 49t42.5 70q9 26 27 37.5t33.5 7.5t22.5 -22.5t-6 -52.5q-17 -43 -57 -87.5
t-97.5 -77t-129.5 -47.5t-153 1q-90 17 -142.5 50.5t-74 76.5t-15 94t35 104.5t76.5 106.5t110 101q-17 11 -31.5 27t-25.5 37q-10 -21 -26 -39q-29 -29 -64 -44t-80 -10t-79.5 30.5t-55.5 67.5t-27 99t6 125q13 71 48 121t79.5 78t91.5 33.5t84 -11.5q5 21 10 25
q49 32 87 39t61.5 -10t31 -57t-3.5 -101q-6 -34 -11 -76.5t-6.5 -85t2 -79.5t14.5 -59q8 -18 22 -30.5t31.5 -16t37 3.5t39.5 29zM274 97q11 10 18.5 28t12 37.5t7 37.5t3.5 29q-1 11 -1.5 22t-0.5 23v52t0.5 60t2 60.5t3.5 54.5q-23 7 -45 -6.5t-41 -43t-33 -71.5t-20 -92
q-6 -56 2.5 -98t24 -67.5t34.5 -32.5t33 7z" />
    <glyph glyph-name="Cacute" unicode="&#x106;" horiz-adv-x="645" 
d="M713 254q8 20 17.5 28t16 4.5t8.5 -17t-6 -35.5q-13 -36 -42 -76t-75 -73.5t-109 -55t-144 -21.5q-99 0 -170 37t-116 97.5t-66.5 138.5t-21.5 159q0 143 38.5 248t101 173.5t142 102t160.5 33.5q46 0 86.5 -16.5t72 -42t52.5 -55.5t27 -58q14 -64 1 -104.5t-42 -58
t-68 -13t-77 30.5q-3 2 -3 19t-0.5 42.5t-3 54.5t-11 55t-25 45t-44.5 24q-27 4 -59 -20t-59 -78.5t-45 -140t-18 -204.5q0 -72 10 -131.5t33.5 -105t62.5 -75.5t98 -44q49 -11 94.5 -2t83 30t63.5 49.5t37 55.5zM547 1190q1 -3 -24 -21.5t-63 -43.5t-83.5 -52.5t-86 -48
t-70 -29.5t-36.5 3q-3 6 12 31t45 60t74.5 76t101.5 79t88 20t42 -74z" />
    <glyph glyph-name="cacute" unicode="&#x107;" horiz-adv-x="484" 
d="M504 200q22 36 34.5 26t-1.5 -54q-13 -38 -42 -71.5t-71.5 -57.5t-96.5 -36t-116 -5q-52 6 -93 31t-67 67t-35 98.5t4 125.5q10 55 38.5 100.5t67 77.5t83 50.5t87.5 21t80.5 -12.5t60.5 -50q19 -28 19.5 -62t-11.5 -60.5t-34 -39.5t-49 0q-14 6 -19.5 22.5t-9 35.5
t-6.5 38t-12 31q-15 21 -32 15t-32.5 -32.5t-28 -70.5t-18.5 -99q-7 -59 7 -98.5t40 -61.5t61 -27t70.5 4.5t68 33.5t53.5 60zM426 809q1 -3 -24 -21.5t-63 -43.5t-83.5 -52.5t-86 -48t-70 -29.5t-36.5 3q-3 6 12 31t45 60t74.5 76t101.5 79t88 20t42 -74z" />
    <glyph glyph-name="Ccircumflex" unicode="&#x108;" horiz-adv-x="645" 
d="M713 254q8 20 17.5 28t16 4.5t8.5 -17t-6 -35.5q-13 -36 -42 -76t-75 -73.5t-109 -55t-144 -21.5q-99 0 -170 37t-116 97.5t-66.5 138.5t-21.5 159q0 143 38.5 248t101 173.5t142 102t160.5 33.5q46 0 86.5 -16.5t72 -42t52.5 -55.5t27 -58q14 -64 1 -104.5t-42 -58
t-68 -13t-77 30.5q-3 2 -3 19t-0.5 42.5t-3 54.5t-11 55t-25 45t-44.5 24q-27 4 -59 -20t-59 -78.5t-45 -140t-18 -204.5q0 -72 10 -131.5t33.5 -105t62.5 -75.5t98 -44q49 -11 94.5 -2t83 30t63.5 49.5t37 55.5zM530 1259q41 -39 72 -83t49 -82t21.5 -66.5t-10.5 -35.5
q-3 -2 -15.5 6.5t-31.5 24t-43.5 37t-50 45.5t-51.5 49.5t-49 49.5q-17 -20 -38 -43t-43.5 -46.5t-45 -46.5t-43.5 -43q-26 -24 -48.5 -27.5t-41 7t-32.5 32t-21 49.5q-1 3 3.5 10.5t18 21.5t38 35.5t64.5 53.5q63 49 118 70.5t89 19.5q23 0 45.5 -8t45.5 -30z" />
    <glyph glyph-name="ccircumflex" unicode="&#x109;" horiz-adv-x="484" 
d="M504 200q22 36 34.5 26t-1.5 -54q-13 -38 -42 -71.5t-71.5 -57.5t-96.5 -36t-116 -5q-52 6 -93 31t-67 67t-35 98.5t4 125.5q10 55 38.5 100.5t67 77.5t83 50.5t87.5 21t80.5 -12.5t60.5 -50q19 -28 19.5 -62t-11.5 -60.5t-34 -39.5t-49 0q-14 6 -19.5 22.5t-9 35.5
t-6.5 38t-12 31q-15 21 -32 15t-32.5 -32.5t-28 -70.5t-18.5 -99q-7 -59 7 -98.5t40 -61.5t61 -27t70.5 4.5t68 33.5t53.5 60zM390 859q41 -39 72 -83t49 -82t21.5 -66.5t-10.5 -35.5q-3 -1 -15.5 7t-31.5 23.5t-43.5 37t-50 45.5t-51.5 49.5t-49 49.5q-17 -20 -38 -43
t-43.5 -46.5t-45 -46.5t-43.5 -43q-26 -24 -48.5 -27.5t-41 7t-32.5 32t-21 49.5q-1 3 3.5 10.5t18 21.5t38 35.5t64.5 53.5q63 49 118 70.5t89 19.5q23 0 45.5 -8t45.5 -30z" />
    <glyph glyph-name="Cdotaccent" unicode="&#x10a;" horiz-adv-x="645" 
d="M713 254q8 20 17.5 28t16 4.5t8.5 -17t-6 -35.5q-13 -36 -42 -76t-75 -73.5t-109 -55t-144 -21.5q-99 0 -170 37t-116 97.5t-66.5 138.5t-21.5 159q0 143 38.5 248t101 173.5t142 102t160.5 33.5q46 0 86.5 -16.5t72 -42t52.5 -55.5t27 -58q14 -64 1 -104.5t-42 -58
t-68 -13t-77 30.5q-3 2 -3 19t-0.5 42.5t-3 54.5t-11 55t-25 45t-44.5 24q-27 4 -59 -20t-59 -78.5t-45 -140t-18 -204.5q0 -72 10 -131.5t33.5 -105t62.5 -75.5t98 -44q49 -11 94.5 -2t83 30t63.5 49.5t37 55.5zM409 1050q-30 -2 -58 17t-39.5 47t1 60t62.5 56
q15 7 32.5 12.5t35.5 3t35 -15.5t31 -42q13 -27 8 -51t-21 -43t-39.5 -30.5t-47.5 -13.5z" />
    <glyph glyph-name="cdotaccent" unicode="&#x10b;" horiz-adv-x="484" 
d="M504 200q22 36 34.5 26t-1.5 -54q-13 -38 -42 -71.5t-71.5 -57.5t-96.5 -36t-116 -5q-52 6 -93 31t-67 67t-35 98.5t4 125.5q10 55 38.5 100.5t67 77.5t83 50.5t87.5 21t80.5 -12.5t60.5 -50q19 -28 19.5 -62t-11.5 -60.5t-34 -39.5t-49 0q-14 6 -19.5 22.5t-9 35.5
t-6.5 38t-12 31q-15 21 -32 15t-32.5 -32.5t-28 -70.5t-18.5 -99q-7 -59 7 -98.5t40 -61.5t61 -27t70.5 4.5t68 33.5t53.5 60zM259 640q-30 -2 -58 17t-39.5 47t1 60t62.5 56q15 7 32.5 12.5t35.5 3t35 -15.5t31 -42q13 -27 8 -51t-21 -43t-39.5 -30.5t-47.5 -13.5z" />
    <glyph glyph-name="Ccaron" unicode="&#x10c;" horiz-adv-x="645" 
d="M713 254q8 20 17.5 28t16 4.5t8.5 -17t-6 -35.5q-13 -36 -42 -76t-75 -73.5t-109 -55t-144 -21.5q-99 0 -170 37t-116 97.5t-66.5 138.5t-21.5 159q0 143 38.5 248t101 173.5t142 102t160.5 33.5q46 0 86.5 -16.5t72 -42t52.5 -55.5t27 -58q14 -64 1 -104.5t-42 -58
t-68 -13t-77 30.5q-3 2 -3 19t-0.5 42.5t-3 54.5t-11 55t-25 45t-44.5 24q-27 4 -59 -20t-59 -78.5t-45 -140t-18 -204.5q0 -72 10 -131.5t33.5 -105t62.5 -75.5t98 -44q49 -11 94.5 -2t83 30t63.5 49.5t37 55.5zM215 1073q-41 39 -72 83t-49 82t-21.5 66t10.5 36
q4 2 29.5 -17t61 -50.5t75.5 -70t75 -74.5q17 20 38 43t43.5 46.5t45 46.5t43.5 43q25 24 48 27.5t41.5 -7t32 -32t21.5 -49.5q1 -3 -3.5 -10.5t-18 -21.5t-38 -35.5t-64.5 -53.5q-63 -49 -118 -70.5t-89 -19.5q-23 0 -45.5 8t-45.5 30z" />
    <glyph glyph-name="ccaron" unicode="&#x10d;" horiz-adv-x="484" 
d="M504 200q22 36 34.5 26t-1.5 -54q-13 -38 -42 -71.5t-71.5 -57.5t-96.5 -36t-116 -5q-52 6 -93 31t-67 67t-35 98.5t4 125.5q10 55 38.5 100.5t67 77.5t83 50.5t87.5 21t80.5 -12.5t60.5 -50q19 -28 19.5 -62t-11.5 -60.5t-34 -39.5t-49 0q-14 6 -19.5 22.5t-9 35.5
t-6.5 38t-12 31q-15 21 -32 15t-32.5 -32.5t-28 -70.5t-18.5 -99q-7 -59 7 -98.5t40 -61.5t61 -27t70.5 4.5t68 33.5t53.5 60zM115 683q-41 39 -72 83t-49 82t-21.5 66t10.5 36q4 2 29.5 -17t61 -50.5t75.5 -70t75 -74.5q17 20 38 43t43.5 46.5t45 46.5t43.5 43
q25 24 48 27.5t41.5 -7t32 -32t21.5 -49.5q1 -3 -3.5 -10.5t-18 -21.5t-38 -35.5t-64.5 -53.5q-63 -49 -118 -70.5t-89 -19.5q-23 0 -45.5 8t-45.5 30z" />
    <glyph glyph-name="Dcaron" unicode="&#x10e;" horiz-adv-x="838" 
d="M418 983q76 0 149 -31.5t130 -89t91.5 -139.5t34.5 -184t-23.5 -181.5t-63.5 -139.5t-92.5 -101.5t-110.5 -67.5t-117.5 -37.5t-113.5 -11.5q-31 0 -55 2t-42 13t-30.5 34t-20 65t-11 106t-3.5 158q0 186 1 298t1 165q-45 -36 -71 -104q-8 -20 -21.5 -28t-25 -5t-17 16.5
t2.5 36.5q18 51 54.5 93t89 71.5t119 45.5t145.5 16zM341 76q43 -6 86 9t77 62t55.5 133t21.5 222q0 100 -12.5 173.5t-42 120.5t-77.5 70t-120 23h-23q13 -22 20.5 -60t11.5 -89.5t5.5 -116t1.5 -138.5q0 -135 -0.5 -216t-1.5 -124q-1 -50 -2 -69zM291 1075q-41 39 -72 83
t-49 82t-21.5 66t10.5 36q4 2 29.5 -17t61 -50.5t75.5 -70t75 -74.5q17 20 38 43t43.5 46.5t45 46.5t43.5 43q25 24 48 27.5t41.5 -7t32 -32t21.5 -49.5q1 -3 -3.5 -10.5t-18 -21.5t-38 -35.5t-64.5 -53.5q-63 -49 -118 -70.5t-89 -19.5q-23 0 -45.5 8t-45.5 30z" />
    <glyph glyph-name="dcaron" unicode="&#x10f;" horiz-adv-x="653" 
d="M615 105q19 21 37 26.5t27 -1.5t4.5 -25t-29.5 -43q-31 -31 -84.5 -49t-113.5 -12q-42 5 -68.5 30.5t-41.5 67.5q-13 -26 -28 -41q-29 -29 -63.5 -44.5t-79.5 -10.5t-79.5 30.5t-55.5 67.5t-27 99.5t6 125.5q13 72 48 121t78.5 75.5t90 30t83.5 -15.5q3 68 9.5 140.5
t15 133t17 100.5t16.5 43q126 46 171.5 0.5t5.5 -163.5q-21 -62 -35 -127.5t-22 -129.5t-10 -124t-0.5 -111.5t7 -92t13.5 -65.5q4 -14 15 -29t26 -23t32 -6t35 22zM271 99q11 11 19.5 31.5t14.5 43.5t9 44t5 32q-3 48 -3 100t1 107v26q-23 10 -44.5 -1t-39.5 -37.5t-31 -66
t-19 -87.5q-6 -56 1.5 -98t22 -67.5t32.5 -33t32 6.5zM661 835q-17 34 -16 63t14 49.5t34 32.5t44 10.5t44 -16.5t35 -47q17 -39 12.5 -96.5t-21.5 -120t-43 -123t-53 -105t-52 -66.5t-39 -8q-3 2 4.5 24t18.5 56.5t22.5 78.5t17 91t1.5 92.5t-23 84.5z" />
    <glyph glyph-name="Dcroat" unicode="&#x110;" horiz-adv-x="838" 
d="M418 983q76 0 149 -31.5t130 -89t91.5 -139.5t34.5 -184t-23.5 -181.5t-63.5 -139.5t-92.5 -101.5t-110.5 -67.5t-117.5 -37.5t-113.5 -11.5q-31 0 -55 2t-42 13t-30.5 34t-20 65t-11 106t-3.5 158q0 186 1 298t1 165q-45 -36 -71 -104q-8 -20 -21.5 -28t-25 -5t-17 16.5
t2.5 36.5q18 51 54.5 93t89 71.5t119 45.5t145.5 16zM341 76q43 -6 86 9t77 62t55.5 133t21.5 222q0 100 -12.5 173.5t-42 120.5t-77.5 70t-120 23h-23q13 -22 20.5 -60t11.5 -89.5t5.5 -116t1.5 -138.5q0 -135 -0.5 -216t-1.5 -124q-1 -50 -2 -69zM61 366q-68 1 -83.5 34.5
t7.5 84.5q1 2 23.5 3t59.5 1t83 -1.5t94 -4.5t94 -7.5t81.5 -10.5t57 -14t20.5 -18q-1 -4 -20.5 -11t-53 -14.5t-77.5 -15.5t-92.5 -14t-98.5 -9.5t-95 -2.5z" />
    <glyph glyph-name="dcroat" unicode="&#x111;" horiz-adv-x="586" 
d="M615 105q19 21 37 26.5t27 -1.5t4.5 -25t-29.5 -43q-31 -31 -84.5 -49t-113.5 -12q-42 5 -68.5 30.5t-41.5 67.5q-13 -26 -28 -41q-29 -29 -63.5 -44.5t-79.5 -10.5t-79.5 30.5t-55.5 67.5t-27 99.5t6 125.5q13 72 48 121t78.5 75.5t90 30t83.5 -15.5q1 22 2 44.5t3 45.5
q-5 -1 -10.5 -1h-10.5q-42 -2 -69 8.5t-40 30t-13 47.5t13 61q2 5 14.5 9t32 7t45.5 4.5t55 1.5q8 66 18 111t18 48q126 46 171.5 0.5t5.5 -163.5q-1 -1 -1 -3q29 -4 48 -10t23 -14q4 -11 -24.5 -31.5t-74.5 -42.5q-20 -84 -29 -168t-10 -158t4.5 -132.5t16.5 -90.5
q4 -14 15 -29t26 -23t32 -6t35 22zM271 99q11 11 19.5 31.5t14.5 43.5t9 44t5 32q-3 48 -3 100t1 107v26q-23 10 -44.5 -1t-39.5 -37.5t-31 -66t-19 -87.5q-6 -56 1.5 -98t22 -67.5t32.5 -33t32 6.5z" />
    <glyph glyph-name="Emacron" unicode="&#x112;" horiz-adv-x="640" 
d="M691 250q10 24 22.5 33.5t22 6.5t12 -18.5t-7.5 -41.5q-18 -44 -49 -86.5t-74.5 -77t-99 -55.5t-121.5 -21q-83 0 -154.5 15t-124 46.5t-82.5 80t-30 114.5q0 38 15.5 73t43 65.5t64.5 56t80 43.5q-28 13 -53 31.5t-43.5 42.5t-29.5 54t-11 67q0 85 34 146.5t90.5 100.5
t129.5 57.5t152 18.5q52 0 94.5 -14t73.5 -36.5t51 -52.5t27 -61q12 -53 -2 -95t-42.5 -66t-66.5 -27t-74 22q-3 2 0.5 21.5t7.5 48t5.5 60.5t-6.5 59.5t-28 46t-59 18.5q-35 0 -67 -13.5t-57 -40.5t-40 -67t-15 -92q0 -83 25 -128.5t68 -60.5q43 3 84 -3q30 -5 43.5 -19.5
t11.5 -30t-18.5 -27t-45.5 -9.5q-50 4 -93 -2t-75.5 -25t-51 -51t-18.5 -79q0 -40 14 -76t41 -63t66.5 -43t91.5 -16q43 0 85 13t78 35.5t64 53.5t42 68zM242 1036q-68 1 -83.5 34.5t7.5 84.5q1 2 23.5 3t59.5 1t83 -1.5t94 -4.5t94 -7.5t81.5 -10.5t57 -14t20.5 -18
q0 -4 -20 -11t-53.5 -14.5t-77.5 -15.5t-92.5 -14t-98.5 -9.5t-95 -2.5z" />
    <glyph glyph-name="emacron" unicode="&#x113;" horiz-adv-x="485" 
d="M515 231q11 18 20 24.5t14.5 2t5 -18.5t-7.5 -36q-13 -39 -50.5 -77t-86.5 -67.5t-102 -45.5t-98 -11q-53 6 -94 31t-67 66.5t-34.5 98.5t3.5 126q9 50 37 92.5t66.5 75t83.5 52.5t88 23.5t80.5 -10.5t60.5 -49q25 -39 19.5 -89t-35 -100.5t-79.5 -94t-114 -68.5l-4 -2
q13 -24 35.5 -35t50 -11.5t57.5 8.5t58.5 25.5t52.5 39.5t40 50zM202 289q-5 -42 0 -75q40 28 66.5 69.5t40 83.5t14.5 78t-10 53q-11 18 -27 13t-32 -31.5t-30 -74.5t-22 -116zM75 666q-68 1 -83.5 34.5t7.5 84.5q1 2 23.5 3t59.5 1t83 -1.5t94 -4.5t94 -7.5t81.5 -10.5
t57 -14t20.5 -18q0 -4 -20 -11t-53.5 -14.5t-77.5 -15.5t-92.5 -14t-98.5 -9.5t-95 -2.5z" />
    <glyph glyph-name="Ebreve" unicode="&#x114;" horiz-adv-x="640" 
d="M691 250q10 24 22.5 33.5t22 6.5t12 -18.5t-7.5 -41.5q-18 -44 -49 -86.5t-74.5 -77t-99 -55.5t-121.5 -21q-83 0 -154.5 15t-124 46.5t-82.5 80t-30 114.5q0 38 15.5 73t43 65.5t64.5 56t80 43.5q-28 13 -53 31.5t-43.5 42.5t-29.5 54t-11 67q0 85 34 146.5t90.5 100.5
t129.5 57.5t152 18.5q52 0 94.5 -14t73.5 -36.5t51 -52.5t27 -61q12 -53 -2 -95t-42.5 -66t-66.5 -27t-74 22q-3 2 0.5 21.5t7.5 48t5.5 60.5t-6.5 59.5t-28 46t-59 18.5q-35 0 -67 -13.5t-57 -40.5t-40 -67t-15 -92q0 -83 25 -128.5t68 -60.5q43 3 84 -3q30 -5 43.5 -19.5
t11.5 -30t-18.5 -27t-45.5 -9.5q-50 4 -93 -2t-75.5 -25t-51 -51t-18.5 -79q0 -40 14 -76t41 -63t66.5 -43t91.5 -16q43 0 85 13t78 35.5t64 53.5t42 68zM568 1273q8 35 29 56t47.5 31t54.5 11.5t51 -2t36.5 -11t11.5 -14.5q-26 -79 -74 -136t-106.5 -93.5t-120.5 -53.5
t-115 -17q-48 0 -91.5 14.5t-80 43t-63.5 72t-41 101.5q-8 32 1.5 48t28.5 21t44 0.5t47 -12.5t37 -18t16 -16q3 -39 12.5 -74t25 -61.5t37.5 -42.5t51 -16q57 0 100 45t62 124z" />
    <glyph glyph-name="ebreve" unicode="&#x115;" horiz-adv-x="485" 
d="M515 231q11 18 20 24.5t14.5 2t5 -18.5t-7.5 -36q-13 -39 -50.5 -77t-86.5 -67.5t-102 -45.5t-98 -11q-53 6 -94 31t-67 66.5t-34.5 98.5t3.5 126q9 50 37 92.5t66.5 75t83.5 52.5t88 23.5t80.5 -10.5t60.5 -49q25 -39 19.5 -89t-35 -100.5t-79.5 -94t-114 -68.5l-4 -2
q13 -24 35.5 -35t50 -11.5t57.5 8.5t58.5 25.5t52.5 39.5t40 50zM202 289q-5 -42 0 -75q40 28 66.5 69.5t40 83.5t14.5 78t-10 53q-11 18 -27 13t-32 -31.5t-30 -74.5t-22 -116zM401 873q8 35 29 56t47.5 31t54.5 11.5t51 -2t36.5 -11t11.5 -14.5q-26 -79 -74 -136
t-106.5 -93.5t-120.5 -53.5t-115 -17q-48 0 -91.5 14.5t-80 43t-63.5 72t-41 101.5q-8 32 1.5 48t28.5 21t44 0.5t47 -12.5t37 -18t16 -16q3 -39 12.5 -74t25 -61.5t37.5 -42.5t51 -16q57 0 100 45t62 124z" />
    <glyph glyph-name="Edotaccent" unicode="&#x116;" horiz-adv-x="640" 
d="M691 250q10 24 22.5 33.5t22 6.5t12 -18.5t-7.5 -41.5q-18 -44 -49 -86.5t-74.5 -77t-99 -55.5t-121.5 -21q-83 0 -154.5 15t-124 46.5t-82.5 80t-30 114.5q0 38 15.5 73t43 65.5t64.5 56t80 43.5q-28 13 -53 31.5t-43.5 42.5t-29.5 54t-11 67q0 85 34 146.5t90.5 100.5
t129.5 57.5t152 18.5q52 0 94.5 -14t73.5 -36.5t51 -52.5t27 -61q12 -53 -2 -95t-42.5 -66t-66.5 -27t-74 22q-3 2 0.5 21.5t7.5 48t5.5 60.5t-6.5 59.5t-28 46t-59 18.5q-35 0 -67 -13.5t-57 -40.5t-40 -67t-15 -92q0 -83 25 -128.5t68 -60.5q43 3 84 -3q30 -5 43.5 -19.5
t11.5 -30t-18.5 -27t-45.5 -9.5q-50 4 -93 -2t-75.5 -25t-51 -51t-18.5 -79q0 -40 14 -76t41 -63t66.5 -43t91.5 -16q43 0 85 13t78 35.5t64 53.5t42 68zM437 1040q-30 -2 -58 17t-39.5 47t1 60t62.5 56q15 7 32.5 12.5t35.5 3t35 -15.5t31 -42q13 -27 8 -51t-21 -43
t-39.5 -30.5t-47.5 -13.5z" />
    <glyph glyph-name="edotaccent" unicode="&#x117;" horiz-adv-x="485" 
d="M515 231q11 18 20 24.5t14.5 2t5 -18.5t-7.5 -36q-13 -39 -50.5 -77t-86.5 -67.5t-102 -45.5t-98 -11q-53 6 -94 31t-67 66.5t-34.5 98.5t3.5 126q9 50 37 92.5t66.5 75t83.5 52.5t88 23.5t80.5 -10.5t60.5 -49q25 -39 19.5 -89t-35 -100.5t-79.5 -94t-114 -68.5l-4 -2
q13 -24 35.5 -35t50 -11.5t57.5 8.5t58.5 25.5t52.5 39.5t40 50zM202 289q-5 -42 0 -75q40 28 66.5 69.5t40 83.5t14.5 78t-10 53q-11 18 -27 13t-32 -31.5t-30 -74.5t-22 -116zM259 640q-30 -2 -58 17t-39.5 47t1 60t62.5 56q15 7 32.5 12.5t35.5 3t35 -15.5t31 -42
q13 -27 8 -51t-21 -43t-39.5 -30.5t-47.5 -13.5z" />
    <glyph glyph-name="Eogonek" unicode="&#x118;" horiz-adv-x="640" 
d="M691 250q10 24 22.5 33.5t22 6.5t12 -18.5t-7.5 -41.5q-18 -44 -49 -86.5t-74.5 -77t-99 -55.5t-121.5 -21q-83 0 -154.5 15t-124 46.5t-82.5 80t-30 114.5q0 38 15.5 73t43 65.5t64.5 56t80 43.5q-28 13 -53 31.5t-43.5 42.5t-29.5 54t-11 67q0 85 34 146.5t90.5 100.5
t129.5 57.5t152 18.5q52 0 94.5 -14t73.5 -36.5t51 -52.5t27 -61q12 -53 -2 -95t-42.5 -66t-66.5 -27t-74 22q-3 2 0.5 21.5t7.5 48t5.5 60.5t-6.5 59.5t-28 46t-59 18.5q-35 0 -67 -13.5t-57 -40.5t-40 -67t-15 -92q0 -83 25 -128.5t68 -60.5q43 3 84 -3q30 -5 43.5 -19.5
t11.5 -30t-18.5 -27t-45.5 -9.5q-50 4 -93 -2t-75.5 -25t-51 -51t-18.5 -79q0 -40 14 -76t41 -63t66.5 -43t91.5 -16q43 0 85 13t78 35.5t64 53.5t42 68zM445 21q-79 -64 -128 -136.5t-63.5 -137.5t10 -114.5t92.5 -66.5q52 -14 100.5 -9.5t88 22.5t68 49t42.5 70
q9 26 27 37.5t33.5 7.5t22.5 -22.5t-6 -52.5q-17 -43 -57 -87.5t-97.5 -77t-129.5 -47.5t-153 1q-98 19 -152.5 56.5t-71.5 87t-2 107t55.5 116.5t101.5 115.5t135 104.5q12 7 33 10t38.5 1t24 -10.5t-11.5 -23.5z" />
    <glyph glyph-name="eogonek" unicode="&#x119;" horiz-adv-x="485" 
d="M515 231q11 18 20 24.5t14.5 2t5 -18.5t-7.5 -36q-10 -29 -34 -58t-56.5 -54.5t-70.5 -45.5t-77 -31q-62 -62 -99 -127.5t-43.5 -122.5t19 -99.5t87.5 -58.5q52 -14 100.5 -9.5t88 22.5t68 49t42.5 70q9 26 27 37.5t33.5 7.5t22.5 -22.5t-6 -52.5q-17 -43 -57 -87.5
t-97.5 -77t-129.5 -47.5t-153 1q-86 17 -138 48t-75 72t-19.5 89.5t28 99.5t67.5 102.5t100 99.5q-45 11 -79 38.5t-55 68t-27.5 93.5t4.5 116q9 50 37 92.5t66.5 75t83.5 52.5t88 23.5t80.5 -10.5t60.5 -49q25 -39 19.5 -89t-35 -100.5t-79.5 -94t-114 -68.5l-4 -2
q13 -24 35.5 -35t50 -11.5t57.5 8.5t58.5 25.5t52.5 39.5t40 50zM202 289q-5 -42 0 -75q40 28 66.5 69.5t40 83.5t14.5 78t-10 53q-11 18 -27 13t-32 -31.5t-30 -74.5t-22 -116z" />
    <glyph glyph-name="Ecaron" unicode="&#x11a;" horiz-adv-x="640" 
d="M691 250q10 24 22.5 33.5t22 6.5t12 -18.5t-7.5 -41.5q-18 -44 -49 -86.5t-74.5 -77t-99 -55.5t-121.5 -21q-83 0 -154.5 15t-124 46.5t-82.5 80t-30 114.5q0 38 15.5 73t43 65.5t64.5 56t80 43.5q-28 13 -53 31.5t-43.5 42.5t-29.5 54t-11 67q0 85 34 146.5t90.5 100.5
t129.5 57.5t152 18.5q52 0 94.5 -14t73.5 -36.5t51 -52.5t27 -61q12 -53 -2 -95t-42.5 -66t-66.5 -27t-74 22q-3 2 0.5 21.5t7.5 48t5.5 60.5t-6.5 59.5t-28 46t-59 18.5q-35 0 -67 -13.5t-57 -40.5t-40 -67t-15 -92q0 -83 25 -128.5t68 -60.5q43 3 84 -3q30 -5 43.5 -19.5
t11.5 -30t-18.5 -27t-45.5 -9.5q-50 4 -93 -2t-75.5 -25t-51 -51t-18.5 -79q0 -40 14 -76t41 -63t66.5 -43t91.5 -16q43 0 85 13t78 35.5t64 53.5t42 68zM293 1083q-41 39 -72 83t-49 82t-21.5 66t10.5 36q4 2 29.5 -17t61 -50.5t75.5 -70t75 -74.5q17 20 38 43t43.5 46.5
t45 46.5t43.5 43q25 24 48 27.5t41.5 -7t32 -32t21.5 -49.5q1 -3 -3.5 -10.5t-18 -21.5t-38 -35.5t-64.5 -53.5q-63 -49 -118 -70.5t-89 -19.5q-23 0 -45.5 8t-45.5 30z" />
    <glyph glyph-name="ecaron" unicode="&#x11b;" horiz-adv-x="485" 
d="M515 231q11 18 20 24.5t14.5 2t5 -18.5t-7.5 -36q-13 -39 -50.5 -77t-86.5 -67.5t-102 -45.5t-98 -11q-53 6 -94 31t-67 66.5t-34.5 98.5t3.5 126q9 50 37 92.5t66.5 75t83.5 52.5t88 23.5t80.5 -10.5t60.5 -49q25 -39 19.5 -89t-35 -100.5t-79.5 -94t-114 -68.5l-4 -2
q13 -24 35.5 -35t50 -11.5t57.5 8.5t58.5 25.5t52.5 39.5t40 50zM202 289q-5 -42 0 -75q40 28 66.5 69.5t40 83.5t14.5 78t-10 53q-11 18 -27 13t-32 -31.5t-30 -74.5t-22 -116zM115 683q-41 39 -72 83t-49 82t-21.5 66t10.5 36q4 2 29.5 -17t61 -50.5t75.5 -70t75 -74.5
q17 20 38 43t43.5 46.5t45 46.5t43.5 43q25 24 48 27.5t41.5 -7t32 -32t21.5 -49.5q1 -3 -3.5 -10.5t-18 -21.5t-38 -35.5t-64.5 -53.5q-63 -49 -118 -70.5t-89 -19.5q-23 0 -45.5 8t-45.5 30z" />
    <glyph glyph-name="Gcircumflex" unicode="&#x11c;" horiz-adv-x="706" 
d="M516 462q54 14 90.5 10t56 -23t23 -52.5t-8.5 -77.5q-13 -50 -25 -102.5t-20 -101.5t-10.5 -89.5t3.5 -64.5q3 -11 -7 -20.5t-27 -13.5t-38.5 -0.5t-42.5 18.5q-9 8 -16.5 43.5t-11.5 86.5q-29 -19 -63.5 -30t-78.5 -11q-83 0 -145.5 35.5t-104.5 95t-63.5 137.5
t-21.5 164q0 144 38.5 249t101.5 173.5t142.5 102t160.5 33.5q46 0 85 -16.5t69 -42t49.5 -56t25.5 -57.5q12 -53 1.5 -92t-35.5 -59t-60 -20t-71 25q-3 2 -4 19l-2.5 42.5t-6 54.5t-14.5 55t-27.5 45t-45.5 24q-27 4 -58.5 -19.5t-58.5 -78t-45 -140.5t-18 -205
q0 -73 9.5 -135.5t29.5 -111t51 -79.5t74 -41q23 -6 43.5 -2.5t38.5 13.5q-1 11 -1 22v22q0 35 3.5 81t9 87.5t12.5 71t14 31.5zM520 1269q41 -39 72 -83t49 -82t21.5 -66.5t-10.5 -35.5q-3 -1 -15.5 7t-31.5 23.5t-43.5 37t-50 45.5t-51.5 49.5t-49 49.5q-17 -20 -38 -43
t-43.5 -46.5t-45 -46.5t-43.5 -43q-26 -24 -48.5 -27.5t-41 7t-32.5 32t-21 49.5q-1 3 3.5 10.5t18 21.5t38 35.5t64.5 53.5q63 49 118 70.5t89 19.5q23 0 45.5 -8t45.5 -30z" />
    <glyph glyph-name="gcircumflex" unicode="&#x11d;" horiz-adv-x="537" 
d="M550 156q28 9 41.5 5.5t15 -13t-7.5 -21.5t-26 -18q-27 -11 -52 -20.5t-48 -20.5q-4 -53 -9.5 -106t-13 -102.5t-19 -92t-27.5 -72.5q-25 -48 -67.5 -71.5t-88 -24t-87 22t-65.5 65.5t-22 89.5t29.5 94.5t80.5 95t132 91q2 11 2.5 21.5t1.5 21.5q-29 -29 -63.5 -45
t-79.5 -11t-79.5 26.5t-56.5 58.5t-28 90t6 121q12 67 44.5 114t74.5 73t87 32t83 -7q2 35 16 60t40 35.5t64.5 3.5t88.5 -36q9 -5 10 -31t-3 -69t-12.5 -101.5t-18.5 -127.5q-5 -32 -8.5 -71.5t-6.5 -84.5q17 7 35 13.5t37 12.5zM273 142q26 25 38 59.5t17 59.5
q1 32 0.5 60t-2 56t-5 56.5t-8.5 61.5q-41 11 -69 -34t-39 -134q-8 -65 -1 -104.5t20 -59.5t27 -24t22 3zM264 -252q6 11 11.5 34.5t11.5 55.5t11 69.5t10 77.5q-57 -35 -93 -68.5t-54 -64.5t-19 -59t12 -53q8 -15 22 -24t30 -9t31.5 9.5t26.5 31.5zM396 969q41 -39 72 -83
t49 -82t21.5 -66.5t-10.5 -35.5q-3 -2 -15.5 6.5t-31.5 24t-43.5 37t-50 45.5t-51.5 49.5t-49 49.5q-17 -20 -38 -43t-43.5 -46.5t-45 -46.5t-43.5 -43q-26 -24 -48.5 -27.5t-41 7t-32.5 32t-21 49.5q-1 3 3.5 10.5t18 21.5t38 35.5t64.5 53.5q63 49 118 70.5t89 19.5
q23 0 45.5 -8t45.5 -30z" />
    <glyph glyph-name="Gbreve" unicode="&#x11e;" horiz-adv-x="706" 
d="M516 462q54 14 90.5 10t56 -23t23 -52.5t-8.5 -77.5q-13 -50 -25 -102.5t-20 -101.5t-10.5 -89.5t3.5 -64.5q3 -11 -7 -20.5t-27 -13.5t-38.5 -0.5t-42.5 18.5q-9 8 -16.5 43.5t-11.5 86.5q-29 -19 -63.5 -30t-78.5 -11q-83 0 -145.5 35.5t-104.5 95t-63.5 137.5
t-21.5 164q0 144 38.5 249t101.5 173.5t142.5 102t160.5 33.5q46 0 85 -16.5t69 -42t49.5 -56t25.5 -57.5q12 -53 1.5 -92t-35.5 -59t-60 -20t-71 25q-3 2 -4 19l-2.5 42.5t-6 54.5t-14.5 55t-27.5 45t-45.5 24q-27 4 -58.5 -19.5t-58.5 -78t-45 -140.5t-18 -205
q0 -73 9.5 -135.5t29.5 -111t51 -79.5t74 -41q23 -6 43.5 -2.5t38.5 13.5q-1 11 -1 22v22q0 35 3.5 81t9 87.5t12.5 71t14 31.5zM481 1273q8 35 29 56t47.5 31t54.5 11.5t51 -2t36.5 -11t11.5 -14.5q-26 -79 -74 -136t-106.5 -93.5t-120.5 -53.5t-115 -17q-48 0 -91.5 14.5
t-80 43t-63.5 72t-41 101.5q-8 32 1.5 48t28.5 21t44 0.5t47 -12.5t37 -18t16 -16q3 -39 12.5 -74t25 -61.5t37.5 -42.5t51 -16q57 0 100 45t62 124z" />
    <glyph glyph-name="gbreve" unicode="&#x11f;" horiz-adv-x="537" 
d="M550 156q28 9 41.5 5.5t15 -13t-7.5 -21.5t-26 -18q-27 -11 -52 -20.5t-48 -20.5q-4 -53 -9.5 -106t-13 -102.5t-19 -92t-27.5 -72.5q-25 -48 -67.5 -71.5t-88 -24t-87 22t-65.5 65.5t-22 89.5t29.5 94.5t80.5 95t132 91q2 11 2.5 21.5t1.5 21.5q-29 -29 -63.5 -45
t-79.5 -11t-79.5 26.5t-56.5 58.5t-28 90t6 121q12 67 44.5 114t74.5 73t87 32t83 -7q2 35 16 60t40 35.5t64.5 3.5t88.5 -36q9 -5 10 -31t-3 -69t-12.5 -101.5t-18.5 -127.5q-5 -32 -8.5 -71.5t-6.5 -84.5q17 7 35 13.5t37 12.5zM273 142q26 25 38 59.5t17 59.5
q1 32 0.5 60t-2 56t-5 56.5t-8.5 61.5q-41 11 -69 -34t-39 -134q-8 -65 -1 -104.5t20 -59.5t27 -24t22 3zM264 -252q6 11 11.5 34.5t11.5 55.5t11 69.5t10 77.5q-57 -35 -93 -68.5t-54 -64.5t-19 -59t12 -53q8 -15 22 -24t30 -9t31.5 9.5t26.5 31.5zM397 913q8 35 29 56
t47.5 31t54.5 11.5t51 -2t36.5 -11t11.5 -14.5q-26 -79 -74 -136t-106.5 -93.5t-120.5 -53.5t-115 -17q-48 0 -91.5 14.5t-80 43t-63.5 72t-41 101.5q-8 32 1.5 48t28.5 21t44 0.5t47 -12.5t37 -18t16 -16q3 -39 12.5 -74t25 -61.5t37.5 -42.5t51 -16q57 0 100 45t62 124z
" />
    <glyph glyph-name="Gdotaccent" unicode="&#x120;" horiz-adv-x="706" 
d="M516 462q54 14 90.5 10t56 -23t23 -52.5t-8.5 -77.5q-13 -50 -25 -102.5t-20 -101.5t-10.5 -89.5t3.5 -64.5q3 -11 -7 -20.5t-27 -13.5t-38.5 -0.5t-42.5 18.5q-9 8 -16.5 43.5t-11.5 86.5q-29 -19 -63.5 -30t-78.5 -11q-83 0 -145.5 35.5t-104.5 95t-63.5 137.5
t-21.5 164q0 144 38.5 249t101.5 173.5t142.5 102t160.5 33.5q46 0 85 -16.5t69 -42t49.5 -56t25.5 -57.5q12 -53 1.5 -92t-35.5 -59t-60 -20t-71 25q-3 2 -4 19l-2.5 42.5t-6 54.5t-14.5 55t-27.5 45t-45.5 24q-27 4 -58.5 -19.5t-58.5 -78t-45 -140.5t-18 -205
q0 -73 9.5 -135.5t29.5 -111t51 -79.5t74 -41q23 -6 43.5 -2.5t38.5 13.5q-1 11 -1 22v22q0 35 3.5 81t9 87.5t12.5 71t14 31.5zM390 1080q-30 -2 -58 17t-39.5 47t1 60t62.5 56q15 7 32.5 12.5t35.5 3t35 -15.5t31 -42q13 -27 8 -51t-21 -43t-39.5 -30.5t-47.5 -13.5z" />
    <glyph glyph-name="gdotaccent" unicode="&#x121;" horiz-adv-x="537" 
d="M550 156q28 9 41.5 5.5t15 -13t-7.5 -21.5t-26 -18q-27 -11 -52 -20.5t-48 -20.5q-4 -53 -9.5 -106t-13 -102.5t-19 -92t-27.5 -72.5q-25 -48 -67.5 -71.5t-88 -24t-87 22t-65.5 65.5t-22 89.5t29.5 94.5t80.5 95t132 91q2 11 2.5 21.5t1.5 21.5q-29 -29 -63.5 -45
t-79.5 -11t-79.5 26.5t-56.5 58.5t-28 90t6 121q12 67 44.5 114t74.5 73t87 32t83 -7q2 35 16 60t40 35.5t64.5 3.5t88.5 -36q9 -5 10 -31t-3 -69t-12.5 -101.5t-18.5 -127.5q-5 -32 -8.5 -71.5t-6.5 -84.5q17 7 35 13.5t37 12.5zM273 142q26 25 38 59.5t17 59.5
q1 32 0.5 60t-2 56t-5 56.5t-8.5 61.5q-41 11 -69 -34t-39 -134q-8 -65 -1 -104.5t20 -59.5t27 -24t22 3zM264 -252q6 11 11.5 34.5t11.5 55.5t11 69.5t10 77.5q-57 -35 -93 -68.5t-54 -64.5t-19 -59t12 -53q8 -15 22 -24t30 -9t31.5 9.5t26.5 31.5zM275 660q-30 -2 -58 17
t-39.5 47t1 60t62.5 56q15 7 32.5 12.5t35.5 3t35 -15.5t31 -42q13 -27 8 -51t-21 -43t-39.5 -30.5t-47.5 -13.5z" />
    <glyph glyph-name="Gcommaaccent" unicode="&#x122;" horiz-adv-x="706" 
d="M516 462q54 14 90.5 10t56 -23t23 -52.5t-8.5 -77.5q-13 -50 -25 -102.5t-20 -101.5t-10.5 -89.5t3.5 -64.5q3 -11 -7 -20.5t-27 -13.5t-38.5 -0.5t-42.5 18.5q-9 8 -16.5 43.5t-11.5 86.5q-29 -19 -63.5 -30t-78.5 -11q-83 0 -145.5 35.5t-104.5 95t-63.5 137.5
t-21.5 164q0 144 38.5 249t101.5 173.5t142.5 102t160.5 33.5q46 0 85 -16.5t69 -42t49.5 -56t25.5 -57.5q12 -53 1.5 -92t-35.5 -59t-60 -20t-71 25q-3 2 -4 19l-2.5 42.5t-6 54.5t-14.5 55t-27.5 45t-45.5 24q-27 4 -58.5 -19.5t-58.5 -78t-45 -140.5t-18 -205
q0 -73 9.5 -135.5t29.5 -111t51 -79.5t74 -41q23 -6 43.5 -2.5t38.5 13.5q-1 11 -1 22v22q0 35 3.5 81t9 87.5t12.5 71t14 31.5zM263 -599q-3 2 6 24.5t21 58t24.5 80.5t17.5 91.5t-0.5 91.5t-28.5 81q-17 26 -16 52t14 47t34 34.5t44 15t44.5 -11.5t35.5 -45
q16 -39 12 -96.5t-21 -120t-42.5 -122.5t-53 -105t-52.5 -67t-39 -8z" />
    <glyph glyph-name="gcommaaccent" unicode="&#x123;" horiz-adv-x="537" 
d="M550 156q28 9 41.5 5.5t15 -13t-7.5 -21.5t-26 -18q-27 -11 -52 -20.5t-48 -20.5q-4 -53 -9.5 -106t-13 -102.5t-19 -92t-27.5 -72.5q-25 -48 -67.5 -71.5t-88 -24t-87 22t-65.5 65.5t-22 89.5t29.5 94.5t80.5 95t132 91q2 11 2.5 21.5t1.5 21.5q-29 -29 -63.5 -45
t-79.5 -11t-79.5 26.5t-56.5 58.5t-28 90t6 121q12 67 44.5 114t74.5 73t87 32t83 -7q2 35 16 60t40 35.5t64.5 3.5t88.5 -36q9 -5 10 -31t-3 -69t-12.5 -101.5t-18.5 -127.5q-5 -32 -8.5 -71.5t-6.5 -84.5q17 7 35 13.5t37 12.5zM273 142q26 25 38 59.5t17 59.5
q1 32 0.5 60t-2 56t-5 56.5t-8.5 61.5q-41 11 -69 -34t-39 -134q-8 -65 -1 -104.5t20 -59.5t27 -24t22 3zM264 -252q6 11 11.5 34.5t11.5 55.5t11 69.5t10 77.5q-57 -35 -93 -68.5t-54 -64.5t-19 -59t12 -53q8 -15 22 -24t30 -9t31.5 9.5t26.5 31.5zM333 1190q3 -2 -6 -24.5
t-21 -58t-24.5 -80.5t-17.5 -91.5t0 -91.5t29 -81q17 -26 16 -52t-14 -47t-34 -34.5t-44 -15t-44.5 11.5t-35.5 45q-17 39 -12.5 96.5t21.5 120t42.5 122.5t53 105t52 67t39.5 8z" />
    <glyph glyph-name="Hcircumflex" unicode="&#x124;" horiz-adv-x="965" 
d="M954 984q66 0 92.5 -42.5t10 -111.5t-77.5 -156t-169 -176q-8 -105 -5.5 -198.5t22.5 -158.5q5 -14 16 -28.5t25.5 -22.5t32 -6t35.5 21q20 22 38 41t33.5 30.5t27.5 14t20 -7.5q5 -6 0 -19.5t-17 -30.5t-28.5 -36t-34.5 -35q-16 -15 -40 -27.5t-52 -21t-58.5 -12
t-59.5 -0.5q-19 2 -39 6t-39.5 15.5t-35.5 34t-27.5 61.5t-15.5 98t1 144q-28 -15 -54 -27.5t-51 -21.5q-14 -74 -43 -134.5t-71 -102.5t-95.5 -61.5t-117.5 -9.5q-58 9 -95.5 32.5t-56 53.5t-19.5 61t13 54q12 18 28.5 31t37.5 17t45.5 -2.5t51.5 -27.5q6 -5 4.5 -16.5
t-5.5 -27t-8 -32.5t-3 -32t10 -26t31 -14q16 -2 32 11t30.5 40t26 66t19.5 89q-62 4 -133 29q-39 13 -68.5 42.5t-43 65.5t-7 74t39.5 68q9 7 16.5 -7.5t24 -38.5t47.5 -49.5t85 -39.5q14 -3 27 -6.5t26 -5.5q1 19 1.5 38.5t0.5 39.5q0 98 -3 175t-0.5 136t14 102.5
t41.5 74.5t60.5 33t53.5 -9t34.5 -28t2.5 -24q-27 -21 -33.5 -65.5t-4 -108.5t9.5 -146t7 -179v-24t-1 -24q47 9 99 33q2 21 4.5 43.5t6.5 47.5q18 133 51.5 221t77.5 140.5t95 74t104 21.5zM946 924q-24 0 -42 -13.5t-32 -46.5t-25.5 -88.5t-22.5 -139.5q-2 -11 -3 -22.5
t-2 -22.5q58 58 101.5 117.5t63.5 107.5t12.5 78t-50.5 30zM748 1303q41 -39 72 -83t49 -82t21.5 -66.5t-10.5 -35.5q-3 -2 -15.5 6.5t-31.5 24t-43.5 37t-50 45.5t-51.5 49.5t-49 49.5q-17 -20 -38 -43t-43.5 -46.5t-45 -46.5t-43.5 -43q-26 -24 -48.5 -27.5t-41 7
t-32.5 32t-21 49.5q-1 3 3.5 10.5t18 21.5t38 35.5t64.5 53.5q63 49 118 70.5t89 19.5q23 0 45.5 -8t45.5 -30z" />
    <glyph glyph-name="hcircumflex" unicode="&#x125;" horiz-adv-x="570" 
d="M603 100q19 21 36 26.5t25 -2t2.5 -25.5t-30.5 -43q-31 -31 -76 -47t-103 -5q-81 14 -122 78.5t-41 192.5q0 64 -4.5 102t-12 56t-18 19t-22.5 -9q-8 -6 -17 -18t-19 -29t-18.5 -37.5t-14.5 -41.5q-5 -85 -1 -155.5t18 -116.5q3 -10 -9 -21.5t-33 -17.5t-47.5 -2.5
t-53.5 23.5q-11 8 -17.5 48.5t-10.5 100.5t-4 133.5t3 147.5q2 39 5.5 90t8.5 106t11 108t13 95.5t13.5 69.5t12.5 30q62 26 104.5 27.5t64.5 -19.5t24.5 -62t-15.5 -101q-23 -78 -40.5 -160.5t-29.5 -163.5q21 30 42.5 52t38.5 33q50 31 96 38.5t78.5 -7.5t47.5 -53t4 -99
q-6 -34 -10.5 -77.5t-5 -86t2 -80.5t10.5 -61q17 -54 49.5 -63t64.5 27zM413 1238q41 -39 72 -83t49 -82t21.5 -66.5t-10.5 -35.5q-3 -2 -15.5 6.5t-31.5 24t-43.5 37t-50 45.5t-51.5 49.5t-49 49.5q-17 -20 -38 -43t-43.5 -46.5t-45 -46.5t-43.5 -43q-26 -24 -48.5 -27.5
t-41 7t-32.5 32t-21 49.5q-1 3 3.5 10.5t18 21.5t38 35.5t64.5 53.5q63 49 118 70.5t89 19.5q23 0 45.5 -8t45.5 -30z" />
    <glyph glyph-name="Hbar" unicode="&#x126;" horiz-adv-x="965" 
d="M329 556q-68 1 -83.5 34.5t7.5 84.5q1 2 22 5l56 8q-1 53 -0.5 96.5t6 79t17.5 64t33 50.5q30 31 60.5 33t53.5 -9t34.5 -28t2.5 -24q-17 -14 -25.5 -36.5t-11.5 -53t-1.5 -69t4.5 -84.5q41 4 82.5 7t80.5 5q24 75 56.5 126t70 82t78 44t82.5 13q66 0 92.5 -42.5
t10 -111.5t-77.5 -156t-169 -176q-8 -105 -5.5 -198.5t22.5 -158.5q5 -14 16 -28.5t25.5 -22.5t32 -6t35.5 21q20 22 38 41t33.5 30.5t27.5 14t20 -7.5q5 -6 0 -19.5t-17 -30.5t-28.5 -36t-34.5 -35q-16 -15 -40 -27.5t-52 -21t-58.5 -12t-59.5 -0.5q-19 2 -39 6t-39.5 15.5
t-35.5 34t-27.5 61.5t-15.5 98t1 144q-28 -15 -54 -27.5t-51 -21.5q-14 -74 -43 -134.5t-71 -102.5t-95.5 -61.5t-117.5 -9.5q-58 9 -95.5 32.5t-56 53.5t-19.5 61t13 54q12 18 28.5 31t37.5 17t45.5 -2.5t51.5 -27.5q6 -5 4.5 -16.5t-5.5 -27t-8 -32.5t-3 -32t10 -26
t31 -14q16 -2 32 11t30.5 40t26 66t19.5 89q-62 4 -133 29q-39 13 -68.5 42.5t-43 65.5t-7 74t39.5 68q9 7 16.5 -7.5t24 -38.5t47.5 -49.5t85 -39.5q14 -3 27 -6.5t26 -5.5q1 19 1.5 38.5t0.5 39.5v33.5t-1 32.5h-5zM946 924q-21 0 -37 -10t-29 -33.5t-24 -62.5t-20 -97
q24 -2 37.5 -6.5t12.5 -11.5q-1 -3 -16 -10.5t-41 -17.5l-5 -39q-2 -11 -3 -22.5t-2 -22.5q58 58 101.5 117.5t63.5 107.5t12.5 78t-50.5 30zM626 527q3 23 6 44t8 41q-32 -9 -63.5 -17.5t-63.5 -15.5q2 -30 3 -62t1 -66v-24t-1 -24q47 9 99 33q2 21 4.5 43.5t6.5 47.5z" />
    <glyph glyph-name="hbar" unicode="&#x127;" horiz-adv-x="570" 
d="M26 698q-68 1 -83.5 34.5t7.5 84.5q2 2 28.5 3t67.5 0q8 57 15.5 95t15.5 41q61 25 102.5 27t64 -17.5t26 -58.5t-11.5 -96q41 -3 78.5 -7.5t66 -10t45 -12.5t15.5 -16q-1 -4 -20 -10.5t-50.5 -14t-73.5 -15t-88 -13.5q-14 -59 -26 -117.5t-20 -117.5q21 30 42.5 52
t38.5 33q50 31 96 38.5t78.5 -7.5t47.5 -53t4 -99q-6 -34 -10.5 -77.5t-5 -86t2 -80.5t10.5 -61q17 -54 49.5 -63t64.5 27q19 21 36 26.5t25 -2t2.5 -25.5t-30.5 -43q-31 -31 -76 -47t-103 -5q-81 14 -122 78.5t-41 192.5q0 64 -4.5 102t-12 56t-18 19t-22.5 -9
q-8 -6 -17 -18t-19 -29t-18.5 -37.5t-14.5 -41.5q-5 -85 -1 -155.5t18 -116.5q3 -10 -9 -21.5t-33 -17.5t-47.5 -2.5t-53.5 23.5q-11 8 -17.5 48.5t-10.5 100.5t-4 133.5t3 147.5q2 47 6.5 111t11.5 130h-5v0z" />
    <glyph glyph-name="Itilde" unicode="&#x128;" horiz-adv-x="611" 
d="M585 988q8 -8 4.5 -19.5t-11.5 -20.5l-13.5 -13.5t-13.5 -12.5q-14 -29 -14 -74.5t5 -105.5t11.5 -133t6.5 -157q0 -100 -24 -187t-68 -149t-107.5 -93t-141.5 -19q-58 9 -95.5 32.5t-56 53.5t-19.5 61t14 54q11 18 27.5 31t37.5 17t45.5 -2.5t51.5 -27.5q6 -5 4.5 -18.5
t-5.5 -31.5t-8 -38t-3 -38t10 -30.5t31 -15.5q24 -3 47 29.5t40 91.5t27.5 141t10.5 178q0 107 9 191.5t36 150.5q-30 -10 -65.5 -10.5t-80.5 12.5q-94 26 -141.5 19.5t-64.5 -54.5q-12 -35 -4 -59t22 -40.5t26 -26.5t8 -17q-13 -21 -36 -15.5t-43.5 28t-32 58t-2.5 73.5
q10 43 35 77.5t62.5 56.5t86.5 28t108 -8q72 -17 115 -21.5t71 2.5q11 11 23 21.5t25 21.5q18 13 31 14t19 -5zM346 1087q-45 -27 -88 -44.5t-82 -22t-71.5 6t-56.5 39.5q-15 19 -10.5 45t16.5 48.5t25.5 37.5t16.5 12q29 -32 56.5 -49t57.5 -20t64 6.5t75 30.5
q43 22 82.5 25t72 -8.5t56 -36t34.5 -57.5q4 -12 0.5 -17.5t-9.5 -7t-12 0t-7 3.5q-11 19 -31 32t-48.5 15.5t-64 -6.5t-76.5 -33z" />
    <glyph glyph-name="itilde" unicode="&#x129;" horiz-adv-x="318" 
d="M308 98q19 21 37 26.5t27 -2t5 -25.5t-29 -43q-32 -31 -76.5 -45t-103.5 -7q-54 6 -85.5 38t-47 85.5t-17 126t5.5 158.5q2 26 2.5 52t2 47.5t4.5 37t11 20.5q49 32 87.5 38.5t62.5 -10t31 -56t-6 -100.5q-13 -62 -19.5 -110t-8 -84.5t1.5 -62.5t9 -44q4 -15 15 -30.5
t25 -24t31 -7t35 21.5zM239 718q-45 -27 -88 -44.5t-82 -22t-71.5 6t-56.5 39.5q-15 19 -10.5 45t16.5 48.5t25.5 37.5t16.5 12q29 -32 56.5 -49t57.5 -20t64 6.5t75 30.5q43 22 82.5 25t72 -8.5t56 -36t34.5 -57.5q4 -12 0.5 -17.5t-9.5 -7t-12 0t-7 3.5q-11 19 -31 32
t-48.5 15.5t-64 -6.5t-76.5 -33z" />
    <glyph glyph-name="imacron" unicode="&#x12b;" horiz-adv-x="462" 
d="M341 98q19 21 37 26.5t27 -2t5 -25.5t-29 -43q-32 -31 -76.5 -45t-103.5 -7q-54 6 -85.5 38t-47 85.5t-17 126t5.5 158.5q2 26 2.5 52t2 47.5t4.5 37t11 20.5q49 32 87.5 38.5t62.5 -10t31 -56t-6 -100.5q-13 -62 -19.5 -110t-8 -84.5t1.5 -62.5t9 -44q4 -15 15 -30.5
t25 -24t31 -7t35 21.5zM64 666q-68 1 -83.5 34.5t7.5 84.5q1 2 23.5 3t59.5 1t83 -1.5t94 -4.5t94 -7.5t81.5 -10.5t57 -14t20.5 -18q0 -4 -20 -11t-53.5 -14.5t-77.5 -15.5t-92.5 -14t-98.5 -9.5t-95 -2.5z" />
    <glyph glyph-name="Ibreve" unicode="&#x12c;" horiz-adv-x="611" 
d="M585 988q8 -8 4.5 -19.5t-11.5 -20.5l-13.5 -13.5t-13.5 -12.5q-14 -29 -14 -74.5t5 -105.5t11.5 -133t6.5 -157q0 -100 -24 -187t-68 -149t-107.5 -93t-141.5 -19q-58 9 -95.5 32.5t-56 53.5t-19.5 61t14 54q11 18 27.5 31t37.5 17t45.5 -2.5t51.5 -27.5q6 -5 4.5 -18.5
t-5.5 -31.5t-8 -38t-3 -38t10 -30.5t31 -15.5q24 -3 47 29.5t40 91.5t27.5 141t10.5 178q0 107 9 191.5t36 150.5q-30 -10 -65.5 -10.5t-80.5 12.5q-94 26 -141.5 19.5t-64.5 -54.5q-12 -35 -4 -59t22 -40.5t26 -26.5t8 -17q-13 -21 -36 -15.5t-43.5 28t-32 58t-2.5 73.5
q10 43 35 77.5t62.5 56.5t86.5 28t108 -8q72 -17 115 -21.5t71 2.5q11 11 23 21.5t25 21.5q18 13 31 14t19 -5zM507 1248q8 35 29 56t47.5 31t54.5 11.5t51 -2t36.5 -11t11.5 -14.5q-26 -79 -74 -136t-106.5 -93.5t-120.5 -53.5t-115 -17q-48 0 -91.5 14.5t-80 43t-63.5 72
t-41 101.5q-8 32 1.5 48t28.5 21t44 0.5t47 -12.5t37 -18t16 -16q3 -39 12.5 -74t25 -61.5t37.5 -42.5t51 -16q57 0 100 45t62 124z" />
    <glyph glyph-name="Iogonek" unicode="&#x12e;" horiz-adv-x="611" 
d="M585 988q8 -8 4.5 -19.5t-11.5 -20.5l-13.5 -13.5t-13.5 -12.5q-14 -29 -14 -74.5t5 -105.5t11.5 -133t6.5 -157q0 -100 -24 -187t-68 -149t-107.5 -93t-141.5 -19q-58 9 -95.5 32.5t-56 53.5t-19.5 61t14 54q11 18 27.5 31t37.5 17t45.5 -2.5t51.5 -27.5q6 -5 4.5 -18.5
t-5.5 -31.5t-8 -38t-3 -38t10 -30.5t31 -15.5q24 -3 47 29.5t40 91.5t27.5 141t10.5 178q0 107 9 191.5t36 150.5q-30 -10 -65.5 -10.5t-80.5 12.5q-94 26 -141.5 19.5t-64.5 -54.5q-12 -35 -4 -59t22 -40.5t26 -26.5t8 -17q-13 -21 -36 -15.5t-43.5 28t-32 58t-2.5 73.5
q10 43 35 77.5t62.5 56.5t86.5 28t108 -8q72 -17 115 -21.5t71 2.5q11 11 23 21.5t25 21.5q18 13 31 14t19 -5zM359 20q-79 -64 -128 -136.5t-63.5 -137.5t10 -114.5t92.5 -66.5q52 -14 100.5 -9.5t88 22.5t68 49t42.5 70q9 26 27 37.5t33.5 7.5t22.5 -22.5t-6 -52.5
q-17 -43 -57 -87.5t-97.5 -77t-129.5 -47.5t-153 1q-98 19 -152.5 56.5t-71.5 87t-2 107t55.5 116.5t101.5 115.5t135 104.5q12 7 33 10t38.5 1t24 -10.5t-11.5 -23.5z" />
    <glyph glyph-name="iogonek" unicode="&#x12f;" horiz-adv-x="294" 
d="M323 118q19 21 37 26.5t27 -2t5 -25.5t-29 -43q-24 -23 -61.5 -43.5t-81.5 -27.5q-67 -62 -107.5 -130t-49 -127.5t16.5 -104t89 -60.5q52 -14 100.5 -9.5t88 22.5t68 49t42.5 70q9 26 27 37.5t33.5 7.5t22.5 -22.5t-6 -52.5q-17 -43 -57 -87.5t-97.5 -77t-129.5 -47.5
t-153 1q-91 18 -144 51.5t-74 78t-12.5 97t39 107t81 108.5t114.5 102q-36 17 -57.5 53t-31.5 87t-10 115t6 139q2 26 2.5 52t2 47.5t4.5 37t11 20.5q49 32 87.5 38.5t62.5 -10t31 -56t-6 -100.5q-13 -62 -19.5 -110t-8 -84.5t1.5 -62.5t9 -44q4 -15 18 -27t32 -17.5
t38 -0.5t38 25zM250 774q15 -29 11.5 -53.5t-18.5 -43t-39.5 -29t-51.5 -12t-54 7.5t-48 31q-26 27 -10 60.5t77 64.5q15 8 32.5 15.5t35 8t34 -10t31.5 -39.5z" />
    <glyph glyph-name="Idotaccent" unicode="&#x130;" horiz-adv-x="611" 
d="M585 988q8 -8 4.5 -19.5t-11.5 -20.5l-13.5 -13.5t-13.5 -12.5q-14 -29 -14 -74.5t5 -105.5t11.5 -133t6.5 -157q0 -100 -24 -187t-68 -149t-107.5 -93t-141.5 -19q-58 9 -95.5 32.5t-56 53.5t-19.5 61t14 54q11 18 27.5 31t37.5 17t45.5 -2.5t51.5 -27.5q6 -5 4.5 -18.5
t-5.5 -31.5t-8 -38t-3 -38t10 -30.5t31 -15.5q24 -3 47 29.5t40 91.5t27.5 141t10.5 178q0 107 9 191.5t36 150.5q-30 -10 -65.5 -10.5t-80.5 12.5q-94 26 -141.5 19.5t-64.5 -54.5q-12 -35 -4 -59t22 -40.5t26 -26.5t8 -17q-13 -21 -36 -15.5t-43.5 28t-32 58t-2.5 73.5
q10 43 35 77.5t62.5 56.5t86.5 28t108 -8q72 -17 115 -21.5t71 2.5q11 11 23 21.5t25 21.5q18 13 31 14t19 -5zM362 1015q-30 -2 -58 17t-39.5 47t1 60t62.5 56q15 7 32.5 12.5t35.5 3t35 -15.5t31 -42q13 -27 8 -51t-21 -43t-39.5 -30.5t-47.5 -13.5z" />
    <glyph glyph-name="dotlessi" unicode="&#x131;" horiz-adv-x="462" 
d="M341 98q19 21 37 26.5t27 -2t5 -25.5t-29 -43q-32 -31 -76.5 -45t-103.5 -7q-54 6 -85.5 38t-47 85.5t-17 126t5.5 158.5q2 26 2.5 52t2 47.5t4.5 37t11 20.5q49 32 87.5 38.5t62.5 -10t31 -56t-6 -100.5q-13 -62 -19.5 -110t-8 -84.5t1.5 -62.5t9 -44q4 -15 15 -30.5
t25 -24t31 -7t35 21.5z" />
    <glyph glyph-name="ij" unicode="&#x133;" horiz-adv-x="571" 
d="M250 774q15 -29 11.5 -53.5t-18.5 -43t-39.5 -29t-51.5 -12t-54 7.5t-48 31q-26 27 -10 60.5t77 64.5q15 8 32.5 15.5t35 8t34 -10t31.5 -39.5zM323 118q19 21 37 26.5t27 -2t5 -25.5t-29 -43q-16 -15 -38 -29.5t-48.5 -25t-55.5 -15.5t-58 -2q-54 6 -85.5 38t-47 85.5
t-17 126t5.5 158.5q2 26 2.5 52t2 47.5t4.5 37t11 20.5q49 32 87.5 38.5t62.5 -10t31 -56t-6 -100.5q-13 -62 -19.5 -110t-8 -84.5t1.5 -62.5t9 -44q4 -15 18 -27t32 -17.5t38 -0.5t38 25zM567 177q28 7 41.5 3t15 -13.5t-7.5 -20t-26 -16.5q-22 -8 -49 -17.5t-47 -17.5
q-8 -62 -17 -122t-18.5 -113t-20 -95.5t-21.5 -67.5q-22 -50 -65.5 -73.5t-91.5 -23.5t-92.5 23t-68.5 66q-27 48 -25 100.5t31.5 105.5t86.5 103t142 93q6 56 9 104q4 72 0 152t-18 163q-6 34 5.5 54.5t32.5 31.5t48 14t51.5 1.5t43.5 -5.5t24 -7q8 -4 8.5 -37t-3.5 -84
q-1 -11 -4 -41t-7 -73t-9.5 -96t-12.5 -111q12 4 31.5 10t33.5 10zM276 -251q7 19 14 48t13.5 64t12 74.5t10.5 79.5q-64 -36 -104 -72.5t-60 -71t-20.5 -67.5t14.5 -62q9 -15 25.5 -24.5t35 -10t35 9t24.5 32.5zM553 797q15 -29 12 -53.5t-18.5 -43t-40 -29.5t-51.5 -12.5
t-54 7.5t-47 31q-26 28 -10.5 61.5t76.5 64.5q16 7 33 15t34.5 8.5t34 -10t31.5 -39.5z" />
    <glyph glyph-name="Jcircumflex" unicode="&#x134;" horiz-adv-x="658" 
d="M700 268h7t11.5 -3.5t7.5 -11.5t-4 -24q-8 -18 -48 -62.5t-110 -97.5q-18 -120 -52.5 -216t-85 -162.5t-117 -102.5t-147.5 -36q-57 0 -94 23t-52.5 60.5t-7.5 84.5t41 95t92 92.5t147 77.5q25 10 48.5 20.5t46.5 22.5q18 156 18 364q0 130 9 234t35 184
q-38 -24 -77 -47.5t-73 -50.5t-60.5 -58t-39.5 -69q-19 -56 -19 -95.5t11 -66t28.5 -42.5t33.5 -25t26.5 -14t6.5 -9q-13 -14 -40.5 -12t-59 17.5t-62 44t-50.5 67.5t-24.5 87t17.5 104q15 39 42 67.5t61.5 50.5t74 38t81 30.5t81.5 28.5t75 31q31 55 81 93q28 21 43 13.5
t10 -23.5q0 -8 -7 -21q-8 -12 -16.5 -23.5t-19.5 -22.5q-9 -36 -8 -91t6 -125.5t10.5 -154.5t5.5 -179q0 -104 -9 -197q27 22 49.5 42t38.5 35t25.5 24.5t12.5 10.5zM178 -376q73 0 121 86t73 245q-16 -8 -32.5 -15t-33.5 -14q-75 -29 -122.5 -62.5t-72 -67t-29 -65t6.5 -55
t34.5 -38t54.5 -14.5zM483 1269q41 -39 72 -83t49 -82t21.5 -66.5t-10.5 -35.5q-3 -1 -15.5 7t-31.5 23.5t-43.5 37t-50 45.5t-51.5 49.5t-49 49.5q-17 -20 -38 -43t-43.5 -46.5t-45 -46.5t-43.5 -43q-26 -24 -48.5 -27.5t-41 7t-32.5 32t-21 49.5q-1 3 3.5 10.5t18 21.5
t38 35.5t64.5 53.5q63 49 118 70.5t89 19.5q23 0 45.5 -8t45.5 -30z" />
    <glyph glyph-name="jcircumflex" unicode="&#x135;" horiz-adv-x="277" 
d="M273 177q28 7 41.5 3t15 -13.5t-7.5 -20t-26 -16.5q-22 -8 -49 -17.5t-47 -17.5q-8 -62 -17 -122t-18.5 -113t-20 -95.5t-21.5 -67.5q-22 -50 -65.5 -73.5t-91.5 -23.5t-92.5 23t-68.5 66q-27 48 -25 100.5t31.5 105.5t86.5 103t142 93q6 56 9 104q4 72 0 152t-18 163
q-6 34 5.5 54.5t32.5 31.5t48 14t51.5 1.5t43.5 -5.5t24 -7q8 -4 8.5 -37t-3.5 -84q-1 -11 -4 -41t-7 -73t-9.5 -96t-12.5 -111q12 4 31.5 10t33.5 10zM-18 -251q7 19 14 48t13.5 64t12 74.5t10.5 79.5q-64 -36 -104 -72.5t-60 -71t-20.5 -67.5t14.5 -62q9 -15 25.5 -24.5
t35 -10t35 9t24.5 32.5zM259 797q15 -29 12 -53.5t-18.5 -43t-40 -29.5t-51.5 -12.5t-54 7.5t-47 31q-26 28 -10.5 61.5t76.5 64.5q16 7 33 15t34.5 8.5t34 -10t31.5 -39.5zM266 1069q41 -39 72 -83t49 -82t21.5 -66.5t-10.5 -35.5q-3 -2 -15.5 6.5t-31.5 24t-43.5 37
t-50 45.5t-51.5 49.5t-49 49.5q-17 -20 -38 -43t-43.5 -46.5t-45 -46.5t-43.5 -43q-26 -24 -48.5 -27.5t-41 7t-32.5 32t-21 49.5q-1 3 3.5 10.5t18 21.5t38 35.5t64.5 53.5q63 49 118 70.5t89 19.5q23 0 45.5 -8t45.5 -30z" />
    <glyph glyph-name="Kcommaaccent" unicode="&#x136;" horiz-adv-x="962" 
d="M973 106q20 22 38.5 41t33.5 30.5t27.5 14t20.5 -7.5q5 -6 -0.5 -20t-17 -31t-28 -36t-34.5 -35q-16 -15 -40 -29t-52.5 -23t-59 -12t-58.5 3q-39 9 -66 29t-46.5 48t-34.5 62t-30 70q-13 34 -22.5 58t-19.5 39t-22.5 20.5t-30.5 1.5q-7 -2 -13 -4.5t-13 -4.5
q-12 -75 -39 -138t-67.5 -106t-94 -63t-117.5 -10q-58 9 -97 32.5t-60 53.5t-24 61t11 54q12 18 29 31t38.5 17t47 -2t52.5 -27q6 -5 5 -18.5t-4 -32t-6 -38.5t-1 -37.5t11.5 -30.5t31.5 -16q18 -3 33.5 14.5t29 51t24 81.5t16.5 107q-17 3 -32 7t-30 10q-38 15 -67 39.5
t-42.5 55t-9 64.5t34.5 67q5 5 14 -6.5t26 -29.5t44.5 -38t69.5 -30q1 11 1 23v24q0 89 -5.5 171t-0.5 149.5t27.5 117t79.5 74.5q26 11 44.5 5t30 -18t16 -24.5t1.5 -14.5q-28 -21 -33 -65t0 -108.5t13.5 -146.5t8.5 -179v-37q25 4 50 16.5t52 39.5q31 31 49 79t27.5 102
t12.5 108.5t4 99t1.5 73.5t5.5 32q46 27 89.5 25.5t73 -25.5t41 -68.5t-5.5 -104.5q-40 -137 -108.5 -234.5t-150.5 -158.5q50 -1 87.5 -27t63.5 -65t42 -84.5t24 -85.5q3 -15 12.5 -29t23 -20.5t30 -3.5t34.5 23zM403 -579q-3 2 6 24.5t21 58t24.5 80.5t17.5 91.5
t-0.5 91.5t-28.5 81q-17 26 -16 52t14 47t34 34.5t44 15t44.5 -11.5t35.5 -45q16 -39 12 -96.5t-21 -120t-42.5 -122.5t-53 -105t-52.5 -67t-39 -8z" />
    <glyph glyph-name="kcommaaccent" unicode="&#x137;" horiz-adv-x="566" 
d="M599 100q19 21 36 26.5t25 -2t2.5 -25.5t-30.5 -43q-15 -15 -37.5 -27t-49.5 -19.5t-56.5 -9t-58.5 3.5q-37 7 -69.5 35t-44.5 69q-14 45 -36 75t-64 30q-68 0 -68 -56v-11q5 -54 16 -101q2 -11 -11 -21t-33.5 -14.5t-45 -1t-45.5 19.5q-7 5 -11 46t-5.5 102t-2 135
t-0.5 146q0 33 3 82.5t7.5 104t11 109.5t13 99.5t13 73t12.5 30.5q124 52 167.5 8t8.5 -163q-39 -133 -66.5 -261.5t-33.5 -247.5q14 24 41 65t69 108q14 22 27 45t24 42t21.5 31t20.5 13q58 5 97.5 -8t54.5 -39.5t3 -64t-58 -79.5q-25 -24 -50.5 -44.5t-50.5 -37.5
q63 -16 94.5 -60t48.5 -118q6 -25 18 -41.5t27.5 -23.5t32.5 -2.5t33 22.5zM163 -599q-3 2 6 24.5t21 58t24.5 80.5t17.5 91.5t-0.5 91.5t-28.5 81q-17 26 -16 52t14 47t34 34.5t44 15t44.5 -11.5t35.5 -45q16 -39 12 -96.5t-21 -120t-42.5 -122.5t-53 -105t-52.5 -67
t-39 -8z" />
    <glyph glyph-name="kgreenlandic" unicode="&#x138;" horiz-adv-x="566" 
d="M599 100q19 21 36 26.5t25 -2t2.5 -25.5t-30.5 -43q-15 -15 -37.5 -27t-49.5 -19.5t-56.5 -9t-58.5 3.5q-37 7 -69.5 35t-44.5 69q-14 45 -36 75t-64 30q-68 0 -68 -56v-11q5 -54 16 -101q2 -11 -11 -21t-33.5 -14.5t-45 -1t-45.5 19.5q-11 192 -13 348q-1 66 0.5 131
t6.5 117.5t14 88t23 43.5q58 33 99.5 35t64.5 -20.5t26.5 -66t-14.5 -103.5q-20 -66 -35 -113.5t-26.5 -83t-18.5 -62t-10 -50.5q14 24 41 65t69 108q14 22 27 45t24 42t21.5 31t20.5 13q58 5 97.5 -8t54.5 -39.5t3 -64t-58 -79.5q-25 -24 -50.5 -44.5t-50.5 -37.5
q63 -16 94.5 -60t48.5 -118q6 -25 18 -41.5t27.5 -23.5t32.5 -2.5t33 22.5z" />
    <glyph glyph-name="Lacute" unicode="&#x139;" horiz-adv-x="894" 
d="M854 135q21 22 39 41t33.5 30.5t27.5 14t20 -7.5q5 -6 -0.5 -19.5t-17 -31t-28 -36t-34.5 -35.5q-52 -49 -114 -70.5t-128 -21t-134 20.5t-132 53q-19 10 -37.5 19.5t-36.5 17.5q-22 -16 -43 -27q-38 -18 -84 -26.5t-86 -2t-67 31t-27 72.5q0 34 23.5 60t65 41t97 18.5
t119.5 -8.5q17 74 26.5 175t21.5 216q9 82 34.5 151t68.5 116.5t102.5 69.5t135.5 11q64 -10 103.5 -42.5t57.5 -72t14.5 -79t-25.5 -63t-61.5 -23t-93.5 39.5q-1 1 1.5 13t5 29.5t4 38.5t-1.5 39.5t-11.5 31.5t-26.5 16q-14 2 -28 -15t-27 -45.5t-24 -64t-20.5 -71.5
t-16 -67.5t-9.5 -51.5q-17 -106 -47 -205t-75 -177q14 -5 27 -11t27 -12q49 -23 102.5 -52t105 -47t97 -17.5t77.5 35.5zM240 138q4 2 6 4q-37 16 -67.5 27.5t-53 14.5t-35 -3t-12.5 -24q0 -21 13 -33.5t35 -15.5t51.5 4.5t62.5 25.5zM764 1221q1 -3 -24 -21.5t-63 -43.5
t-83.5 -52.5t-86 -48t-70 -29.5t-36.5 3q-3 6 12 31t45 60t74.5 76t101.5 79t88 20t42 -74z" />
    <glyph glyph-name="lacute" unicode="&#x13a;" horiz-adv-x="282" 
d="M321 125q21 23 39 29.5t26.5 -0.5t3.5 -26t-29 -47q-14 -17 -38.5 -32.5t-53.5 -26.5t-61 -17t-61 -3q-54 6 -82 45t-40.5 101t-13.5 141.5t0 166.5q1 46 4.5 100.5t9.5 109t13.5 105.5t15 90.5t15 64.5t13.5 27q63 23 105 23t63.5 -22t22 -63.5t-19.5 -100.5
q-32 -93 -52 -193t-28.5 -189t-6 -160.5t16.5 -107.5q8 -21 23 -34t34 -16.5t40 4.5t41 31zM326 1134q0 -3 -24.5 -21.5t-62.5 -43.5t-83.5 -52.5t-86 -48t-70 -29.5t-36.5 3q-3 6 12 31t45 60t74.5 76t101.5 79t88 20t42 -74z" />
    <glyph glyph-name="Lcommaaccent" unicode="&#x13b;" horiz-adv-x="894" 
d="M854 135q21 22 39 41t33.5 30.5t27.5 14t20 -7.5q5 -6 -0.5 -19.5t-17 -31t-28 -36t-34.5 -35.5q-52 -49 -114 -70.5t-128 -21t-134 20.5t-132 53q-19 10 -37.5 19.5t-36.5 17.5q-22 -16 -43 -27q-38 -18 -84 -26.5t-86 -2t-67 31t-27 72.5q0 34 23.5 60t65 41t97 18.5
t119.5 -8.5q17 74 26.5 175t21.5 216q9 82 34.5 151t68.5 116.5t102.5 69.5t135.5 11q64 -10 103.5 -42.5t57.5 -72t14.5 -79t-25.5 -63t-61.5 -23t-93.5 39.5q-1 1 1.5 13t5 29.5t4 38.5t-1.5 39.5t-11.5 31.5t-26.5 16q-14 2 -28 -15t-27 -45.5t-24 -64t-20.5 -71.5
t-16 -67.5t-9.5 -51.5q-17 -106 -47 -205t-75 -177q14 -5 27 -11t27 -12q49 -23 102.5 -52t105 -47t97 -17.5t77.5 35.5zM240 138q4 2 6 4q-37 16 -67.5 27.5t-53 14.5t-35 -3t-12.5 -24q0 -21 13 -33.5t35 -15.5t51.5 4.5t62.5 25.5zM363 -599q-3 2 6 24.5t21 58t24.5 80.5
t17.5 91.5t-0.5 91.5t-28.5 81q-17 26 -16 52t14 47t34 34.5t44 15t44.5 -11.5t35.5 -45q17 -39 12.5 -96.5t-21.5 -120t-42.5 -122.5t-53 -105t-52.5 -67t-39 -8z" />
    <glyph glyph-name="lcommaaccent" unicode="&#x13c;" horiz-adv-x="282" 
d="M321 125q21 23 39 29.5t26.5 -0.5t3.5 -26t-29 -47q-14 -17 -38.5 -32.5t-53.5 -26.5t-61 -17t-61 -3q-54 6 -82 45t-40.5 101t-13.5 141.5t0 166.5q1 46 4.5 100.5t9.5 109t13.5 105.5t15 90.5t15 64.5t13.5 27q63 23 105 23t63.5 -22t22 -63.5t-19.5 -100.5
q-32 -93 -52 -193t-28.5 -189t-6 -160.5t16.5 -107.5q8 -21 23 -34t34 -16.5t40 4.5t41 31zM43 -599q-3 2 6 24.5t21 58t24.5 80.5t17.5 91.5t-0.5 91.5t-28.5 81q-17 26 -16 52t14 47t34 34.5t44 15t44.5 -11.5t35.5 -45q16 -39 12 -96.5t-21 -120t-42.5 -122.5t-53 -105
t-52.5 -67t-39 -8z" />
    <glyph glyph-name="Lcaron" unicode="&#x13d;" horiz-adv-x="894" 
d="M854 135q21 22 39 41t33.5 30.5t27.5 14t20 -7.5q5 -6 -0.5 -19.5t-17 -31t-28 -36t-34.5 -35.5q-52 -49 -114 -70.5t-128 -21t-134 20.5t-132 53q-19 10 -37.5 19.5t-36.5 17.5q-22 -16 -43 -27q-38 -18 -84 -26.5t-86 -2t-67 31t-27 72.5q0 34 23.5 60t65 41t97 18.5
t119.5 -8.5q17 74 26.5 175t21.5 216q9 82 34.5 151t68.5 116.5t102.5 69.5t135.5 11q64 -10 103.5 -42.5t57.5 -72t14.5 -79t-25.5 -63t-61.5 -23t-93.5 39.5q-1 1 1.5 13t5 29.5t4 38.5t-1.5 39.5t-11.5 31.5t-26.5 16q-14 2 -28 -15t-27 -45.5t-24 -64t-20.5 -71.5
t-16 -67.5t-9.5 -51.5q-17 -106 -47 -205t-75 -177q14 -5 27 -11t27 -12q49 -23 102.5 -52t105 -47t97 -17.5t77.5 35.5zM240 138q4 2 6 4q-37 16 -67.5 27.5t-53 14.5t-35 -3t-12.5 -24q0 -21 13 -33.5t35 -15.5t51.5 4.5t62.5 25.5zM372 1346q-17 34 -16 63t14 49.5
t34 32.5t44 10.5t44 -16.5t35 -47q16 -39 12 -96.5t-21 -120t-43 -123t-53 -105t-52 -66.5t-39 -8q-3 2 4.5 24t18.5 56.5t22.5 78.5t17 91t1.5 92.5t-23 84.5z" />
    <glyph glyph-name="lcaron" unicode="&#x13e;" horiz-adv-x="335" 
d="M321 125q21 23 39 29.5t26.5 -0.5t3.5 -26t-29 -47q-14 -17 -38.5 -32.5t-53.5 -26.5t-61 -17t-61 -3q-54 6 -82 45t-40.5 101t-13.5 141.5t0 166.5q1 46 4.5 100.5t9.5 109t13.5 105.5t15 90.5t15 64.5t13.5 27q63 23 105 23t63.5 -22t22 -63.5t-19.5 -100.5
q-32 -93 -52 -193t-28.5 -189t-6 -160.5t16.5 -107.5q8 -21 23 -34t34 -16.5t40 4.5t41 31zM357 835q-17 34 -16 63t14 49.5t34 32.5t44 10.5t44 -16.5t35 -47q17 -39 12.5 -96.5t-21.5 -120t-43 -123t-53 -105t-52 -66.5t-39 -8q-2 2 5 24t18 56.5t22.5 78.5t17 91
t1.5 92.5t-23 84.5z" />
    <glyph glyph-name="Ldot" unicode="&#x13f;" horiz-adv-x="894" 
d="M854 135q21 22 39 41t33.5 30.5t27.5 14t20 -7.5q5 -6 -0.5 -19.5t-17 -31t-28 -36t-34.5 -35.5q-52 -49 -114 -70.5t-128 -21t-134 20.5t-132 53q-19 10 -37.5 19.5t-36.5 17.5q-22 -16 -43 -27q-38 -18 -84 -26.5t-86 -2t-67 31t-27 72.5q0 34 23.5 60t65 41t97 18.5
t119.5 -8.5q17 74 26.5 175t21.5 216q9 82 34.5 151t68.5 116.5t102.5 69.5t135.5 11q64 -10 103.5 -42.5t57.5 -72t14.5 -79t-25.5 -63t-61.5 -23t-93.5 39.5q-1 1 1.5 13t5 29.5t4 38.5t-1.5 39.5t-11.5 31.5t-26.5 16q-14 2 -28 -15t-27 -45.5t-24 -64t-20.5 -71.5
t-16 -67.5t-9.5 -51.5q-17 -106 -47 -205t-75 -177q14 -5 27 -11t27 -12q49 -23 102.5 -52t105 -47t97 -17.5t77.5 35.5zM240 138q4 2 6 4q-37 16 -67.5 27.5t-53 14.5t-35 -3t-12.5 -24q0 -21 13 -33.5t35 -15.5t51.5 4.5t62.5 25.5zM635 471q17 8 36.5 14.5t39.5 4
t39 -16.5t35 -46t12 -60t-21 -49t-44 -34.5t-56.5 -16t-59 7t-51.5 33.5q-14 15 -17.5 36.5t5 44t28.5 44.5t54 38z" />
    <glyph glyph-name="ldot" unicode="&#x140;" horiz-adv-x="327" 
d="M321 125q21 23 39 29.5t26.5 -0.5t3.5 -26t-29 -47q-14 -17 -38.5 -32.5t-53.5 -26.5t-61 -17t-61 -3q-54 6 -82 45t-40.5 101t-13.5 141.5t0 166.5q1 46 4.5 100.5t9.5 109t13.5 105.5t15 90.5t15 64.5t13.5 27q63 23 105 23t63.5 -22t22 -63.5t-19.5 -100.5
q-32 -93 -52 -193t-28.5 -189t-6 -160.5t16.5 -107.5q8 -21 23 -34t34 -16.5t40 4.5t41 31zM342 610q17 8 36.5 14.5t39.5 4t39 -16.5t35 -46t12 -60t-21 -49t-44 -34.5t-56.5 -16t-59 7t-51.5 33.5q-14 15 -17.5 36.5t5 44t28.5 44.5t54 38z" />
    <glyph glyph-name="Lslash" unicode="&#x141;" horiz-adv-x="894" 
d="M348 561q2 24 4.5 48.5t5.5 50.5q9 82 34.5 151t68.5 116.5t102.5 69.5t135.5 11q64 -10 103.5 -42.5t57.5 -72t14.5 -79t-25.5 -63t-61.5 -23t-93.5 39.5q-1 1 1.5 13t5 29.5t4 38.5t-1.5 39.5t-11.5 31.5t-26.5 16q-14 2 -28 -15t-27 -45.5t-24 -64t-20.5 -71.5
t-16 -67.5t-9.5 -51.5q-2 -8 -2 -12q69 16 139.5 32.5t128 28t95 17t41.5 0.5t-32.5 -25.5t-98 -50t-141 -64.5t-160.5 -70q-17 -66 -40 -126.5t-52 -111.5q14 -5 27 -11t27 -12q49 -23 102.5 -52t105 -47t97 -17.5t77.5 35.5q21 22 39 41t33.5 30.5t27.5 14t20 -7.5
q5 -6 -0.5 -19.5t-17 -31t-28 -36t-34.5 -35.5q-52 -49 -114 -70.5t-128 -21t-134 20.5t-132 53q-19 10 -37.5 19.5t-36.5 17.5q-22 -16 -43 -27q-38 -18 -84 -26.5t-86 -2t-67 31t-27 72.5q0 34 23.5 60t65 41t97 18.5t119.5 -8.5q6 29 11.5 62.5t10.5 71.5
q-63 -26 -112 -44.5t-74 -26.5q-40 -13 -69 -10t-46.5 19t-24.5 43t-4 62q1 7 31.5 19.5t73.5 27t90.5 28.5t82.5 23zM240 138q4 2 6 4q-37 16 -67.5 27.5t-53 14.5t-35 -3t-12.5 -24q0 -21 13 -33.5t35 -15.5t51.5 4.5t62.5 25.5z" />
    <glyph glyph-name="lslash" unicode="&#x142;" horiz-adv-x="282" 
d="M321 125q21 23 39 29.5t26.5 -0.5t3.5 -26t-29 -47q-14 -17 -38.5 -32.5t-53.5 -26.5t-61 -17t-61 -3q-47 5 -74.5 35.5t-41.5 79.5t-17.5 113.5t-3.5 136.5q-16 -7 -29.5 -12t-24.5 -8q-41 -13 -69.5 -10t-46.5 19t-25 43t-4 62q1 5 20 14t48 19.5t64.5 22t70.5 21.5
q4 68 12 140t18 132t20 100t18 43q63 23 105 23t63.5 -22t22 -63.5t-19.5 -100.5q-17 -50 -30.5 -101t-23.5 -102q43 10 87.5 19.5t82 15.5t62.5 8t30 -4q4 -6 -19.5 -24.5t-64.5 -44t-94 -54.5t-107 -57q-6 -51 -8.5 -97.5t-2 -86.5t5 -71t12.5 -51q8 -21 23 -34t34 -16.5
t40 4.5t41 31z" />
    <glyph glyph-name="Nacute" unicode="&#x143;" horiz-adv-x="984" 
d="M881 984q25 30 50 42.5t41.5 10t20.5 -18t-11 -42.5t-26.5 -56.5t-17 -80t-3.5 -130.5t14 -207q7 -70 1.5 -141t-19.5 -133.5t-36.5 -111t-50.5 -74.5q-11 -10 -30 -19t-39.5 -15.5t-38.5 -8.5t-25 3q-31 21 -65 61t-68.5 93t-67.5 115t-62 125q-16 34 -34 72.5t-38 78.5
q2 -67 0 -134t-10 -127.5t-23.5 -111.5t-41 -86.5t-61 -52.5t-83.5 -10q-58 9 -92 37.5t-48 63.5t-11.5 71t16.5 59q12 19 29.5 32t39 16.5t45.5 -3t50 -26.5q4 -3 0.5 -17t-10 -33t-12.5 -40.5t-7 -40t6.5 -32t27.5 -16.5q30 -4 51 22.5t34 74t18.5 113t5 139.5t-6.5 153
t-16 154q-4 29 -5.5 53t-2.5 44q-3 40 2 76.5t18.5 63.5t34.5 41.5t51 9.5q9 -2 14.5 -2t7.5 -4.5t2 -16t-1 -35.5q-1 -16 9.5 -48.5t28.5 -74.5t41.5 -91.5t48.5 -99t49.5 -96.5t45.5 -85q11 -20 29 -52.5t39 -69t43 -74.5t40 -69t30.5 -51.5t15.5 -22.5q4 -3 5.5 13.5
t-0.5 56.5t-7.5 105t-14.5 160t-9.5 170.5t8.5 136.5t28.5 108.5t52.5 85.5zM844 1122q1 -3 -24 -21.5t-63 -43.5t-83.5 -52.5t-86 -48t-70 -29.5t-36.5 3q-3 6 12 31t45 60t74.5 76t101.5 79t88 20t42 -74z" />
    <glyph glyph-name="nacute" unicode="&#x144;" horiz-adv-x="594" 
d="M627 110q19 21 36 26.5t25 -2t2.5 -25.5t-30.5 -43q-15 -15 -36 -29t-45 -23t-51.5 -12t-56.5 2q-41 7 -71.5 22.5t-50.5 43.5t-30.5 71.5t-10.5 106.5q0 65 -4 103t-11.5 56t-17.5 18.5t-23 -8.5q-21 -16 -36.5 -47t-26 -70.5t-15.5 -84.5t-5 -90q3 -23 7.5 -44.5
t9.5 -41.5q3 -11 -11.5 -21t-37 -14.5t-48 -1t-46.5 18.5q-7 6 -13 34t-10.5 73.5t-7 106.5t-2.5 132q0 59 3.5 108t9 84.5t12.5 56t14 22.5q54 14 86.5 10.5t47.5 -23t14.5 -52.5t-12.5 -78q-10 -37 -16 -72t-9 -68q23 63 54.5 110.5t67.5 70.5q50 31 95.5 38.5t77.5 -7.5
t47 -53t3 -99q-6 -34 -10 -73t-5 -77t2 -71.5t11 -57.5q8 -27 22.5 -41t31.5 -16.5t35.5 5.5t34.5 26zM481 809q0 -3 -24.5 -21.5t-62.5 -43.5t-83.5 -52.5t-86 -48t-70 -29.5t-36.5 3q-3 6 12 31t45 60t74.5 76t101.5 79t88 20t42 -74z" />
    </font>
</defs>
</svg>
