<?xml version="1.0" standalone="no"?>
<!DOCTYPE svg PUBLIC "-//W3C//DTD SVG 1.1//EN" "http://www.w3.org/Graphics/SVG/1.1/DTD/svg11.dtd" >
<svg xmlns="http://www.w3.org/2000/svg" xmlns:xlink="http://www.w3.org/1999/xlink" version="1.1">
<metadata>
Created by FontForge 20161003 at Fri Jun  8 09:38:12 2018
 By www-data
(c) Copyright 2005 by Tong Duc Thinh. All Rights Reserved
</metadata>
<defs>
<font id="SFUHelveticaBold" horiz-adv-x="556" >
  <font-face 
    font-family="SFUHelveticaBold"
    font-weight="700"
    font-stretch="normal"
    units-per-em="1000"
    panose-1="0 0 7 0 0 0 0 0 0 0"
    ascent="800"
    descent="-200"
    x-height="532"
    cap-height="718"
    bbox="-170 -228 1025 1171"
    underline-thickness="50"
    underline-position="-175"
    unicode-range="U+0020-F002"
  />
<missing-glyph horiz-adv-x="500" 
d="M63 0v1134h375v-1134h-375zM125 63h250v1009h-250v-1009z" />
    <glyph glyph-name=".notdef" horiz-adv-x="500" 
d="M63 0v1134h375v-1134h-375zM125 63h250v1009h-250v-1009z" />
    <glyph glyph-name=".null" horiz-adv-x="0" 
 />
    <glyph glyph-name="glyph2" horiz-adv-x="278" 
 />
    <glyph glyph-name="space" unicode=" " horiz-adv-x="278" 
 />
    <glyph glyph-name="exclam" unicode="!" horiz-adv-x="333" 
d="M240 141v-141h-146v141h146zM244 535l-40 -336h-74l-40 336v183h154v-183z" />
    <glyph glyph-name="quotedbl" unicode="&#x22;" horiz-adv-x="474" 
d="M278 447v271h98v-271h-98zM98 447v271h98v-271h-98z" />
    <glyph glyph-name="numbersign" unicode="#" 
d="M509 289l-12 -90h-97l-28 -199h-94l28 199h-97l-28 -199h-94l28 199h-97l12 90h97l17 120h-97l12 90h97l28 199h94l-28 -199h97l28 199h94l-28 -199h97l-12 -90h-97l-17 -120h97zM335 409h-97l-17 -120h97z" />
    <glyph glyph-name="dollar" unicode="$" 
d="M512 501h-129q-7 103 -82 103v-187q126 -40 167 -79q55 -52 55 -140q0 -96 -62.5 -153t-159.5 -62v-98h-46v98q-116 10 -169 62q-56 55 -56 170h131q5 -61 20 -84q21 -32 74 -42v210q-97 26 -142 60q-68 51 -68 143q0 94 57.5 150.5t152.5 57.5v65h46v-65q83 -9 129 -41
q73 -51 82 -168zM255 431v173q-35 -2 -58 -22q-26 -22 -26 -56q0 -76 84 -95zM301 282v-193q41 2 64.5 29t23.5 69q0 71 -88 95z" />
    <glyph glyph-name="percent" unicode="%" horiz-adv-x="889" 
d="M497 170q0 76 53 129t129 53q75 0 128.5 -53.5t53.5 -128.5q0 -76 -53 -129t-129 -53t-129 53t-53 129zM600 170q0 -33 23 -56t56 -23t56 23t23 56t-23 56t-56 23t-56 -23t-23 -56zM28 528q0 76 53 129t129 53q75 0 128.5 -53.5t53.5 -128.5q0 -76 -53 -129t-129 -53
t-129 53t-53 129zM131 528q0 -33 23 -56t56 -23t56 23t23 56t-23 56t-56 23t-56 -23t-23 -56zM678 710l-398 -729h-74l398 729h74z" />
    <glyph glyph-name="ampersand" unicode="&#x26;" horiz-adv-x="722" 
d="M388 553q0 59 -60 59q-26 0 -42 -16t-16 -42q0 -33 52 -90q66 42 66 89zM571 157l130 -157h-169l-49 61q-80 -80 -205 -80q-92 0 -158 56.5t-66 147.5q0 73 38 124q31 43 100 85l15 9q-65 74 -65 150q0 78 58 123q53 42 133 42q75 0 125.5 -46t50.5 -120
q0 -101 -119 -171l102 -126q31 48 37 118h124q-11 -123 -82 -216zM411 149l-132 165q-52 -38 -65 -55q-20 -25 -20 -65q0 -42 33 -69q30 -26 73 -26q56 0 111 50z" />
    <glyph glyph-name="quotesingle" unicode="'" horiz-adv-x="238" 
d="M70 447v271h98v-271h-98z" />
    <glyph glyph-name="parenleft" unicode="(" horiz-adv-x="333" 
d="M314 -208h-103q-176 237 -176 469q0 238 176 473h103q-65 -112 -96 -208q-39 -123 -39 -265t40 -265q29 -91 95 -204z" />
    <glyph glyph-name="parenright" unicode=")" horiz-adv-x="333" 
d="M19 734h103q176 -237 176 -469q0 -238 -176 -473h-103q65 112 96 208q39 123 39 265t-40 265q-29 91 -95 204z" />
    <glyph glyph-name="asterisk" unicode="*" horiz-adv-x="389" 
d="M338 633l24 -73l-105 -32l69 -97l-63 -44l-68 91l-69 -91l-63 44l68 97l-104 32l23 73l102 -34v119h85v-119z" />
    <glyph glyph-name="plus" unicode="+" horiz-adv-x="584" 
d="M236 309v197h112v-197h196v-112h-196v-197h-112v197h-196v112h196z" />
    <glyph glyph-name="comma" unicode="," horiz-adv-x="278" 
d="M214 146v-126q0 -153 -149 -188h-1v53q37 13 54 31q27 28 30 84h-84v146h150z" />
    <glyph glyph-name="hyphen" unicode="-" horiz-adv-x="333" 
d="M306 345v-130h-279v130h279z" />
    <glyph glyph-name="hyphen" unicode="&#x2010;" horiz-adv-x="333" 
d="M306 345v-130h-279v130h279z" />
    <glyph glyph-name="period" unicode="." horiz-adv-x="278" 
d="M214 146v-146h-150v146h150z" />
    <glyph glyph-name="slash" unicode="/" horiz-adv-x="278" 
d="M311 737l-227 -756h-117l227 756h117z" />
    <glyph glyph-name="zero" unicode="0" 
d="M32 346q0 364 246 364t246 -364q0 -365 -246 -365t-246 365zM176 346q0 -112 9 -154q21 -99 93 -99t93 99q9 42 9 154t-9 154q-21 98 -93 98t-93 -98q-9 -42 -9 -154z" />
    <glyph glyph-name="one" unicode="1" 
d="M69 489v98h20q166 0 174 123h115v-710h-140v489h-169z" />
    <glyph glyph-name="two" unicode="2" 
d="M170 459h-136q0 150 92 212q58 39 140 39q106 0 173 -58q71 -61 71 -166q0 -81 -48 -143q-31 -40 -100 -88q-88 -62 -109 -78q-39 -30 -50 -53h308v-124h-485q5 82 27 130q36 78 138 152q110 80 137 109q42 45 42 100q0 44 -27 72.5t-71 28.5q-64 0 -87 -47
q-14 -28 -15 -86z" />
    <glyph glyph-name="three" unicode="3" 
d="M213 311v100h22q119 0 119 96q0 40 -24.5 65.5t-64.5 25.5q-96 0 -96 -116h-130q0 109 62.5 168.5t172.5 59.5q97 0 156 -50q64 -53 64 -148q0 -96 -85 -135v-2q35 -10 63 -40q44 -47 44 -125q0 -104 -68 -166.5t-174 -62.5q-118 0 -181 59q-66 61 -66 178l136 -1
q0 -124 104 -124q50 0 79 34q26 32 26 83q0 64 -55 87q-34 14 -104 14z" />
    <glyph glyph-name="four" unicode="4" 
d="M130 266h177q0 17 2 209l1 96h-2zM526 266v-109h-79v-157h-140v157h-280v121l261 432h159v-444h79z" />
    <glyph glyph-name="five" unicode="5" 
d="M199 580l-25 -154q56 39 127 39q97 0 156 -65t59 -164q0 -95 -51 -164q-68 -91 -207 -91q-96 0 -161 57t-70 152h140q10 -97 99 -97q52 0 81 42q25 36 25 91q0 53 -25 88q-28 39 -79 39q-66 0 -94 -51l-125 6l49 390h390v-118h-289z" />
    <glyph glyph-name="six" unicode="6" 
d="M506 530h-139q-7 68 -82 68q-106 0 -117 -196l2 -2q43 59 133 59q96 0 156.5 -61t60.5 -158q0 -110 -60 -182q-64 -77 -172 -77q-257 0 -257 357q0 372 264 372q30 0 70 -10q52 -13 75 -36q33 -33 45.5 -59t20.5 -75zM380 228q0 51 -25 83q-28 36 -77 36
q-52 0 -79.5 -34.5t-27.5 -87.5q0 -54 28 -91q31 -41 83 -41q51 0 77 44q21 36 21 91z" />
    <glyph glyph-name="seven" unicode="7" 
d="M528 698v-108q-241 -262 -259 -590h-144q10 184 110 370q65 121 143 204h-353l3 124h500z" />
    <glyph glyph-name="eight" unicode="8" 
d="M279 422q40 0 63.5 24t23.5 64q0 38 -22.5 63t-59.5 25q-96 0 -96 -88q0 -38 26.5 -63t64.5 -25zM524 211q0 -86 -52 -149q-66 -81 -194 -81q-106 0 -173 54q-73 58 -73 162q0 130 108 180q-86 43 -86 139q0 91 66 145q62 49 155 49t155 -45q70 -50 70 -140
q0 -100 -82 -143q57 -28 81.5 -67.5t24.5 -103.5zM380 205q0 49 -27.5 80t-76.5 31q-47 0 -73.5 -31t-26.5 -79q0 -50 27 -81.5t76 -31.5q47 0 74 32t27 80z" />
    <glyph glyph-name="nine" unicode="9" 
d="M170 475q0 -130 105 -130q49 0 77 36q26 33 26 83q0 131 -107 131q-50 0 -77 -36q-24 -32 -24 -84zM44 164h139v-1q11 -70 82 -70q114 0 117 198l-2 2q-40 -60 -135 -60q-96 0 -155.5 62.5t-59.5 159.5q0 118 62.5 186.5t179.5 68.5q250 0 250 -365q0 -150 -53 -245
q-66 -119 -205 -119q-89 0 -148 47q-63 49 -72 136z" />
    <glyph glyph-name="colon" unicode=":" horiz-adv-x="333" 
d="M242 146v-146h-150v146h150zM242 512v-146h-150v146h150z" />
    <glyph glyph-name="semicolon" unicode=";" horiz-adv-x="333" 
d="M242 146v-126q0 -153 -149 -188h-1v53q37 13 54 31q27 28 30 84h-84v146h150zM242 512v-146h-150v146h150z" />
    <glyph glyph-name="less" unicode="&#x3c;" horiz-adv-x="584" 
d="M546 100v-108l-508 216v90l508 216v-108l-363 -153z" />
    <glyph glyph-name="equal" unicode="=" horiz-adv-x="584" 
d="M544 419v-112h-504v112h504zM544 199v-112h-504v112h504z" />
    <glyph glyph-name="greater" unicode="&#x3e;" horiz-adv-x="584" 
d="M38 100l363 153l-363 153v108l508 -216v-90l-508 -216v108z" />
    <glyph glyph-name="question" unicode="?" horiz-adv-x="611" 
d="M374 208h-132q0 82 19 118q17 32 85 86q60 48 60 98q0 46 -25.5 72.5t-71.5 26.5q-96 0 -108 -115v-1h-141q0 108 65.5 171t174.5 63q87 0 151 -33q105 -54 105 -180q0 -59 -36 -107q-26 -34 -85 -77q-37 -26 -49 -51t-12 -71zM384 141v-141h-146v141h146z" />
    <glyph glyph-name="at" unicode="@" horiz-adv-x="975" 
d="M581 376q0 36 -22 60.5t-58 24.5q-49 0 -83 -42.5t-34 -92.5q0 -39 20 -64t58 -25q51 0 86 45q33 42 33 94zM611 493l13 53h88l-58 -255q-7 -31 -7 -42q0 -21 15 -21q55 0 87 64q26 52 26 112q0 120 -78 188q-74 65 -195 65q-129 0 -207 -85t-78 -215q0 -132 83 -214
t216 -82q122 0 210 81h89q-109 -161 -305 -161q-165 0 -277 106q-115 108 -115 272q0 161 112 269.5t274 108.5q143 0 244 -82q108 -88 108 -227q0 -142 -102 -226q-79 -65 -153 -65q-54 0 -57 53l-2 1q-48 -54 -105 -54q-67 0 -114 53t-47 121q0 97 58 169q62 78 156 78
q81 0 121 -65z" />
    <glyph glyph-name="A" unicode="A" horiz-adv-x="722" 
d="M228 148l-50 -148h-158l256 718h173l253 -718h-163l-46 148h-265zM360 556l-92 -284h183l-89 284h-2z" />
    <glyph glyph-name="B" unicode="B" horiz-adv-x="722" 
d="M76 0v718h349q95 0 154 -43q67 -49 67 -141q0 -103 -88 -147q111 -42 111 -174q0 -87 -62 -148q-35 -34 -74 -47q-54 -18 -153 -18h-304zM220 316v-192h184q115 0 115 105q0 44 -33 67q-29 20 -75 20h-191zM220 594v-157h176q106 0 106 80q0 77 -110 77h-172z" />
    <glyph glyph-name="C" unicode="C" horiz-adv-x="722" 
d="M684 483h-150q-15 53 -37 78q-40 46 -122 46q-94 0 -141 -83q-37 -66 -37 -168q0 -101 37 -165q47 -80 141 -80q131 0 159 135h150q-24 -126 -104.5 -195.5t-207.5 -69.5q-162 0 -249 110q-79 101 -79 267q0 165 81 267q88 112 249 112q147 0 233 -87q70 -70 77 -167z
" />
    <glyph glyph-name="D" unicode="D" horiz-adv-x="722" 
d="M76 0v718h317q162 0 237 -120q55 -88 55 -222q0 -146 -60 -246q-78 -130 -238 -130h-311zM223 594v-470h146q88 0 130 81q33 63 33 160q0 229 -165 229h-144z" />
    <glyph glyph-name="E" unicode="E" horiz-adv-x="667" 
d="M604 718v-127h-381v-151h350v-127h-350v-186h398v-127h-545v718h528z" />
    <glyph glyph-name="F" unicode="F" horiz-adv-x="611" 
d="M226 302v-302h-150v718h511v-127h-361v-162h316v-127h-316z" />
    <glyph glyph-name="G" unicode="G" horiz-adv-x="778" 
d="M413 266v121h300v-387h-100l-15 90q-43 -50 -77 -71q-61 -38 -147 -38q-157 0 -247 112q-83 104 -83 264q0 169 90 272q95 108 261 108q149 0 237 -84q71 -68 78 -158h-150q0 31 -39 70q-48 48 -118 48q-105 0 -159 -80q-47 -69 -47 -178q0 -247 209 -247q47 0 88 25
q66 40 86 133h-167z" />
    <glyph glyph-name="H" unicode="H" horiz-adv-x="722" 
d="M501 322h-280v-322h-150v718h150v-272h280v272h150v-718h-150v322z" />
    <glyph glyph-name="I" unicode="I" horiz-adv-x="278" 
d="M214 718v-718h-150v718h150z" />
    <glyph glyph-name="J" unicode="J" 
d="M484 718v-510q0 -226 -223 -226q-159 0 -209 93q-30 55 -30 196h140q0 -94 14 -126q18 -42 74 -42q50 0 69 29q15 23 15 76v510h150z" />
    <glyph glyph-name="K" unicode="K" horiz-adv-x="722" 
d="M237 243v-243h-150v718h150v-292l274 292h194l-293 -294l310 -424h-193l-222 315z" />
    <glyph glyph-name="L" unicode="L" horiz-adv-x="611" 
d="M226 718v-588h357v-130h-507v718h150z" />
    <glyph glyph-name="M" unicode="M" horiz-adv-x="833" 
d="M765 718v-718h-140v600h-2l-134 -600h-147l-131 600h-2v-600h-140v718h219l130 -566h2l128 566h217z" />
    <glyph glyph-name="N" unicode="N" horiz-adv-x="722" 
d="M514 218v500h140v-718h-150l-293 512h-2v-512h-140v718h158l285 -500h2z" />
    <glyph glyph-name="O" unicode="O" horiz-adv-x="778" 
d="M44 359q0 219 137 315q90 63 208 63t208 -63q137 -96 137 -315t-137 -315q-90 -63 -208 -63t-208 63q-137 96 -137 315zM194 359q0 -106 43 -172q52 -79 152 -79t152 79q43 66 43 172t-43 172q-52 79 -152 79t-152 -79q-43 -66 -43 -172z" />
    <glyph glyph-name="P" unicode="P" horiz-adv-x="667" 
d="M226 259v-259h-150v718h328q105 0 164 -62t59 -168q0 -77 -42 -139q-61 -90 -187 -90h-172zM226 383h139q112 0 112 112q0 58 -39 81q-31 18 -93 18h-119v-211z" />
    <glyph glyph-name="Q" unicode="Q" horiz-adv-x="778" 
d="M398 195l77 81l76 -71q33 61 33 154q0 106 -43 172q-52 79 -152 79t-152 -79q-43 -66 -43 -172t43 -172q52 -79 152 -79q44 0 81 19zM737 29l-79 -81l-85 81q-82 -48 -184 -48q-118 0 -208 63q-137 96 -137 315t137 315q90 63 208 63t208 -63q137 -96 137 -315
q0 -161 -75 -256z" />
    <glyph glyph-name="R" unicode="R" horiz-adv-x="722" 
d="M76 0v718h363q126 0 185 -78q41 -54 41 -125q0 -58 -28 -104q-30 -49 -83 -67q51 -22 68 -50q23 -39 23 -132q0 -84 4 -106q5 -28 28 -37v-19h-166q-16 54 -16 145q0 81 -17 105q-22 31 -100 31h-155v-281h-147zM223 402h176q116 0 116 98q0 94 -105 94h-187v-192z" />
    <glyph glyph-name="S" unicode="S" horiz-adv-x="667" 
d="M39 221h144q3 -116 152 -116q150 0 150 93q0 38 -36 59q-23 13 -94 30l-77 18q-116 27 -157 56q-71 50 -71 155q0 83 51 141q71 80 225 80q147 0 222 -83q57 -63 58 -149h-144q-13 108 -147 108q-50 0 -83 -18q-42 -22 -42 -68q0 -56 76 -75l175 -43q91 -22 134 -60
q54 -48 54 -133q0 -138 -118 -198q-73 -37 -165 -37q-132 0 -212 52q-95 62 -95 188z" />
    <glyph glyph-name="T" unicode="T" horiz-adv-x="611" 
d="M381 591v-591h-150v591h-217v127h584v-127h-217z" />
    <glyph glyph-name="U" unicode="U" horiz-adv-x="722" 
d="M651 718v-467q0 -270 -295 -270q-131 0 -205 64q-79 68 -79 197v476h153v-466q0 -63 32 -102q34 -42 96 -42q145 0 145 137v473h153z" />
    <glyph glyph-name="V" unicode="V" horiz-adv-x="667" 
d="M336 174l156 544h156l-244 -718h-143l-242 718h161l154 -544h2z" />
    <glyph glyph-name="W" unicode="W" horiz-adv-x="944" 
d="M219 0l-203 718h160q95 -407 114 -525h2q12 74 100 525h159q86 -405 107 -525h2q20 112 117 525h152l-202 -718h-144q-79 375 -111 560h-2q-18 -114 -111 -560h-140z" />
    <glyph glyph-name="X" unicode="X" horiz-adv-x="667" 
d="M419 373l234 -373h-183l-136 245l-145 -245h-175l232 367l-219 351h179l128 -232l131 232h173z" />
    <glyph glyph-name="Y" unicode="Y" horiz-adv-x="667" 
d="M413 269v-269h-150v271l-248 447h177l149 -312l142 312h170z" />
    <glyph glyph-name="Z" unicode="Z" horiz-adv-x="611" 
d="M586 127v-127h-561v127l371 464h-361v127h549v-118l-376 -473h378z" />
    <glyph glyph-name="bracketleft" unicode="[" horiz-adv-x="333" 
d="M185 626v-726h124v-96h-246v918h246v-96h-124z" />
    <glyph glyph-name="backslash" unicode="\" horiz-adv-x="278" 
d="M194 -19l-227 756h117l227 -756h-117z" />
    <glyph glyph-name="bracketright" unicode="]" horiz-adv-x="333" 
d="M148 -100v726h-124v96h246v-918h-246v96h124z" />
    <glyph glyph-name="asciicircum" unicode="^" horiz-adv-x="584" 
d="M171 323h-109l180 375h100l180 -375h-110l-120 263z" />
    <glyph glyph-name="underscore" unicode="_" 
d="M556 -125h-556v50h556v-50z" />
    <glyph glyph-name="grave" unicode="`" horiz-adv-x="333" 
d="M124 604l-147 146h154l94 -146h-101z" />
    <glyph glyph-name="a" unicode="a" 
d="M496 392v-288q0 -72 31 -83v-21h-151q-10 30 -13 63q-75 -77 -172 -77q-73 0 -117.5 41.5t-44.5 113.5q0 147 155 170l126 19q49 7 49 42q0 62 -92 62q-76 0 -86 -74h-135q10 103 74 147q56 39 164 39q87 0 143 -33q69 -40 69 -121zM359 191v68q-22 -17 -95 -29
q-46 -8 -66 -21q-29 -19 -29 -59q0 -29 18 -46.5t47 -17.5q50 0 87.5 28.5t37.5 76.5z" />
    <glyph glyph-name="b" unicode="b" horiz-adv-x="611" 
d="M434 262q0 163 -119 163q-120 0 -120 -171q0 -65 29 -106q33 -47 95 -47q59 0 90 54q25 43 25 107zM201 718v-255h2q54 83 154 83q108 0 168 -86q53 -75 53 -188q0 -119 -51 -196q-59 -90 -173 -90q-108 0 -154 81h-2v-67h-137v718h140z" />
    <glyph glyph-name="c" unicode="c" 
d="M381 194h142q-6 -69 -50 -125q-66 -83 -193 -83q-120 0 -185 73q-61 70 -61 192q0 135 59 211q65 84 196 84q99 0 162 -52q65 -55 73 -152h-142q-15 88 -93 86q-58 -2 -87 -51q-24 -41 -24 -103q0 -173 108 -173q37 0 66 28t29 65z" />
    <glyph glyph-name="d" unicode="d" horiz-adv-x="611" 
d="M551 718v-718h-137v67h-2q-46 -81 -154 -81q-114 0 -173 90q-51 77 -51 196q0 113 53 188q60 86 168 86q100 0 154 -83h2v255h140zM178 262q0 -64 25 -107q31 -54 90 -54q62 0 95 47q29 41 29 106q0 171 -120 171q-119 0 -119 -163z" />
    <glyph glyph-name="e" unicode="e" 
d="M378 156h144q-24 -82 -86 -126t-148 -44q-265 0 -265 291q0 91 40 159q65 110 215 110q129 0 193 -85q57 -75 57 -208v-25h-365q12 -130 125 -130q73 0 90 58zM167 319h217q-4 49 -32 80.5t-76 31.5q-96 0 -109 -112z" />
    <glyph glyph-name="f" unicode="f" horiz-adv-x="333" 
d="M227 432v-432h-140v432h-77v100h77v43q0 152 156 152q48 0 72 -2v-113h-39q-33 0 -41 -12t-8 -47v-21h91v-100h-91z" />
    <glyph glyph-name="g" unicode="g" horiz-adv-x="611" 
d="M419 532h134v-504q0 -105 -36 -157q-61 -88 -233 -88q-88 0 -151 36q-77 43 -81 124h152q8 -34 37 -46q19 -8 61 -8q111 0 111 122v64l-2 2q-45 -80 -142 -80q-115 0 -175 83q-54 73 -54 192q0 113 53 188q60 86 168 86q111 0 156 -93h2v79zM184 263q0 -60 25 -100
q30 -48 86 -48q119 0 119 154q0 63 -28 106q-32 50 -92 50t-88 -54q-22 -42 -22 -108z" />
    <glyph glyph-name="h" unicode="h" horiz-adv-x="611" 
d="M546 368v-368h-140v323q0 45 -12 67q-21 38 -79 38q-53 0 -81.5 -34.5t-28.5 -88.5v-305h-140v718h140v-255h2q16 40 64 63q42 20 90 20q85 0 135 -47t50 -131z" />
    <glyph glyph-name="i" unicode="i" horiz-adv-x="278" 
d="M69 532h140v-532h-140v532zM209 725v-130h-140v130h140z" />
    <glyph glyph-name="j" unicode="j" horiz-adv-x="278" 
d="M209 532v-588q0 -92 -41 -126q-37 -32 -130 -32h-35v112h25q41 0 41 49v585h140zM209 725v-130h-140v130h140z" />
    <glyph glyph-name="k" unicode="k" 
d="M209 168v-168h-140v718h140v-388l176 202h172l-188 -206l193 -326h-168l-127 228z" />
    <glyph glyph-name="l" unicode="l" horiz-adv-x="278" 
d="M209 718v-718h-140v718h140z" />
    <glyph glyph-name="m" unicode="m" horiz-adv-x="889" 
d="M826 368v-368h-140v323q0 105 -76 105q-95 0 -95 -109v-319h-140v320q0 51 -10 71q-19 37 -74 37q-87 0 -87 -104v-324h-140v532h134v-78h2q47 92 151 92q54 0 86 -19t62 -66q59 85 142 85q85 0 135 -47t50 -131z" />
    <glyph glyph-name="n" unicode="n" horiz-adv-x="611" 
d="M546 368v-368h-140v323q0 45 -12 67q-21 38 -79 38q-53 0 -81.5 -34.5t-28.5 -88.5v-305h-140v532h134v-78h2q55 92 160 92q85 0 135 -47t50 -131z" />
    <glyph glyph-name="o" unicode="o" horiz-adv-x="611" 
d="M578 266q0 -127 -72.5 -203.5t-199.5 -76.5t-199.5 76.5t-72.5 203.5t72.5 203.5t199.5 76.5t199.5 -76.5t72.5 -203.5zM434 266q0 162 -128 162t-128 -162t128 -162t128 162z" />
    <glyph glyph-name="p" unicode="p" horiz-adv-x="611" 
d="M196 254q0 -66 28 -106q32 -47 95 -47q59 0 90 54q25 43 25 107q0 163 -119 163t-119 -171zM196 532v-77h2q56 91 159 91q108 0 168 -86q53 -75 53 -188q0 -119 -51 -196q-59 -90 -173 -90q-102 0 -150 82h-2v-275h-140v739h134z" />
    <glyph glyph-name="q" unicode="q" horiz-adv-x="611" 
d="M418 532h134v-739h-140v273h-2q-43 -80 -151 -80q-114 0 -175 92q-50 75 -50 177q0 122 54 200q62 91 179 91q96 0 149 -93h2v79zM178 256q0 -152 120 -152q62 0 92 51q25 42 25 108t-26 109q-32 53 -94 53q-117 0 -117 -169z" />
    <glyph glyph-name="r" unicode="r" horiz-adv-x="389" 
d="M64 0v532h134v-92h2q28 52 52 73q37 33 94 33q9 0 27 -2v-142q-12 2 -40 2q-129 0 -129 -127v-277h-140z" />
    <glyph glyph-name="s" unicode="s" 
d="M503 370h-137q-7 40 -31 56q-20 14 -63 14q-86 0 -86 -52q0 -32 86 -51q130 -28 161 -43q86 -40 86 -125q0 -95 -72 -143q-62 -40 -161 -40q-105 0 -172 39q-81 47 -84 145h144q0 -78 116 -78q89 0 89 55q0 34 -86 53q-127 27 -158 42q-86 40 -86 126q0 89 65 136
q58 42 150 42q226 0 239 -176z" />
    <glyph glyph-name="t" unicode="t" horiz-adv-x="333" 
d="M222 676v-144h87v-100h-87v-289q0 -29 15 -38q11 -5 43 -5q9 0 29 2v-106q-44 -2 -66 -2h-18q-71 0 -103 22q-40 26 -40 93v323h-72v100h72v144h140z" />
    <glyph glyph-name="u" unicode="u" horiz-adv-x="611" 
d="M545 532v-532h-134v75h-2q-50 -89 -162 -89q-89 0 -135 53t-46 143v350h140v-330q0 -98 91 -98q52 0 80 34t28 87v307h140z" />
    <glyph glyph-name="v" unicode="v" 
d="M543 532l-192 -532h-147l-191 532h156l110 -392h2l113 392h149z" />
    <glyph glyph-name="w" unicode="w" horiz-adv-x="778" 
d="M769 532l-153 -532h-144l-83 388h-2l-83 -388h-144l-150 532h149l83 -382h2l75 382h141l80 -382h2l83 382h144z" />
    <glyph glyph-name="x" unicode="x" 
d="M360 271l181 -271h-173l-92 160l-92 -160h-169l181 271l-174 261h170l90 -155l88 155h165z" />
    <glyph glyph-name="y" unicode="y" 
d="M539 532l-183 -523q-53 -151 -83 -185q-34 -38 -123 -38q-23 0 -63 2v112q12 -2 27 -2q45 0 64.5 17t27.5 63l-196 554h156l114 -392h2l109 392h148z" />
    <glyph glyph-name="z" unicode="z" horiz-adv-x="500" 
d="M470 417l-269 -302h279v-115h-460v109l273 311h-254v112h431v-115z" />
    <glyph glyph-name="braceleft" unicode="{" horiz-adv-x="389" 
d="M365 -108v-88h-83q-60 0 -100 38.5t-40 98.5v200q0 36 -28.5 56t-65.5 20v92q37 0 65.5 20t28.5 56v200q0 60 40 98.5t100 38.5h83v-88h-45q-56 0 -56 -66v-196q-6 -46 -37 -75t-77 -33v-2q46 -4 77 -33t37 -75v-196q0 -66 56 -66h45z" />
    <glyph glyph-name="bar" unicode="|" horiz-adv-x="280" 
d="M84 -19v756h112v-756h-112z" />
    <glyph glyph-name="braceright" unicode="}" horiz-adv-x="389" 
d="M341 309v-92q-37 0 -64 -19q-30 -21 -30 -57v-200q0 -60 -40 -98.5t-100 -38.5h-83v88h45q56 0 56 66v196q6 46 37 75t77 33v2q-46 4 -77 33t-37 75v196q0 66 -56 66h-45v88h83q60 0 100 -38.5t40 -98.5v-200q0 -36 30 -57q27 -19 64 -19z" />
    <glyph glyph-name="asciitilde" unicode="~" horiz-adv-x="584" 
d="M487 343v0l36 -90q-30 -43 -50 -59q-33 -27 -75 -27q-36 0 -107 34.5t-110 34.5q-51 0 -84 -73l-36 90q45 86 125 86q38 0 111 -32q84 -37 102 -37q40 0 88 73z" />
    <glyph glyph-name="euro" horiz-adv-x="498" 
d="M522 633l-23 -156l-48 6q0 157 -94 157q-103 0 -161 -211h172l-21 -48h-164q-6 -24 -16 -73h147l-21 -47h-134q-6 -41 -6 -74q0 -56 21 -91q26 -43 78 -43q58 0 101 68q24 38 51 119l55 -10l-54 -188q-77 -53 -159 -53q-111 0 -166 84q-47 71 -47 188h-74l21 47h56
q3 25 12 73h-66l21 48h59q41 112 108 183q83 88 187 88q94 0 165 -67z" />
    <glyph glyph-name="exclamdown" unicode="&#xa1;" horiz-adv-x="333" 
d="M94 391v141h146v-141h-146zM90 -3l40 336h74l40 -336v-183h-154v183z" />
    <glyph glyph-name="cent" unicode="&#xa2;" 
d="M216 129l85 299h-12q-58 0 -87 -50q-24 -41 -24 -104q0 -107 38 -145zM524 342h-142q-9 46 -34 68l-87 -305q9 -4 25 -4q37 0 66 28t29 65h142q-6 -69 -50 -125q-66 -83 -193 -83q-30 0 -51 4l-31 -108h-52l34 120q-74 27 -112 100q-34 64 -34 149q0 135 59 211
q65 84 196 84q21 0 45 -3l24 85h52l-28 -98q130 -44 142 -188z" />
    <glyph glyph-name="sterling" unicode="&#xa3;" 
d="M376 381v-60h-119q5 -30 5 -53q0 -60 -43 -111q-17 -20 -59 -54l2 -2q66 26 113 26q36 0 71 -11q44 -14 53 -14q47 0 101 36l41 -109q-74 -45 -152 -45q-46 0 -97 18q-62 22 -97 22q-31 0 -109 -35l-54 97q25 9 62 48q49 51 49 98q0 45 -23 89h-92v60h58q-41 88 -41 142
q0 70 52 125q66 70 187 70q111 0 174.5 -60t66.5 -171h-131q-9 61 -27 85q-25 34 -84 34q-42 0 -70 -25.5t-28 -66.5q0 -27 48 -133h143z" />
    <glyph glyph-name="currency" unicode="&#xa4;" 
d="M278 244q47 0 75.5 32.5t28.5 80.5t-28.5 79.5t-75.5 31.5t-74.5 -31.5t-27.5 -79.5q0 -47 27.5 -80t74.5 -33zM-3 142l98 98q-31 51 -31 117t31 115l-98 98l66 66l98 -98q54 33 117 33q67 0 117 -33l98 98l66 -66l-98 -98q33 -50 33 -115q0 -67 -33 -117l98 -98l-66 -66
l-98 98q-50 -33 -117 -33q-63 0 -117 33l-98 -98z" />
    <glyph glyph-name="yen" unicode="&#xa5;" 
d="M549 405v-60h-165l-38 -75h203v-60h-204v-210h-127v210h-203v60h203l-40 75h-163v60h131l-155 293h150l144 -294l138 294h142l-150 -293h134z" />
    <glyph glyph-name="brokenbar" unicode="&#xa6;" horiz-adv-x="280" 
d="M84 -19v290h112v-290h-112zM84 447v290h112v-290h-112z" />
    <glyph glyph-name="section" unicode="&#xa7;" 
d="M240 512l162 -81q61 -30 87 -62q33 -40 33 -101q0 -26 -21 -64q-27 -49 -74 -70q62 -51 62 -128q0 -90 -65 -142q-59 -48 -151 -48q-116 0 -171 75q-38 51 -39 112h132q9 -81 88 -81q32 0 52 19.5t20 51.5q0 38 -59 68l-153 78q-58 30 -82 62q-27 37 -27 99q0 80 93 132
q-52 47 -52 116q0 82 61 132q57 47 141 47q91 0 144 -45q54 -48 58 -138h-127q-5 77 -78 77q-27 0 -48 -14q-24 -16 -24 -42q0 -34 38 -53zM341 309l-146 74q-17 -6 -30 -23t-13 -35q0 -37 46 -62l157 -84q43 24 43 66q0 35 -57 64z" />
    <glyph glyph-name="dieresis" unicode="&#xa8;" horiz-adv-x="333" 
d="M132 729v-115h-126v115h126zM327 729v-115h-126v115h126z" />
    <glyph glyph-name="copyright" unicode="&#xa9;" horiz-adv-x="737" 
d="M749 360q0 -167 -106.5 -273t-273.5 -106t-273.5 106t-106.5 273t106.5 272t273.5 105t273.5 -105t106.5 -272zM640 360q0 122 -74 204q-76 86 -197 86q-123 0 -198 -85q-73 -81 -73 -205t73 -206q75 -86 198 -85v-1q123 0 198 86q73 82 73 206zM473 303h90
q-11 -71 -59.5 -114t-119.5 -43q-94 0 -151 61.5t-57 155.5q0 95 56 155.5t150 60.5q72 0 118.5 -40.5t58.5 -112.5h-86q-13 66 -91 66q-52 0 -79 -39q-24 -34 -24 -88q0 -52 26 -89q29 -43 79 -43q83 0 89 70z" />
    <glyph glyph-name="ordfeminine" unicode="&#xaa;" horiz-adv-x="370" 
d="M326 644v-173q0 -43 21 -49v-13h-98q-6 17 -8 38q-48 -46 -112 -46q-45 0 -76 24.5t-31 68.5q0 90 102 104l82 11q32 4 32 23q0 34 -60 34q-49 0 -56 -41h-87q7 65 50 91q35 21 104 21q55 0 91 -19q46 -24 46 -74zM238 525v40q-16 -11 -62 -17q-60 -8 -60 -49
q0 -37 41 -37q30 0 55.5 17t25.5 46zM33 356h300v-80h-300v80z" />
    <glyph glyph-name="guillemotleft" unicode="&#xab;" 
d="M255 368l-100 -88l100 -88v-116l-167 144v120l167 144v-116zM468 368l-100 -88l100 -88v-116l-167 144v120l167 144v-116z" />
    <glyph glyph-name="logicalnot" unicode="&#xac;" horiz-adv-x="584" 
d="M432 108v199h-392v112h504v-311h-112z" />
    <glyph glyph-name="sfthyphen" unicode="&#xad;" horiz-adv-x="338" 
d="M8 174l33 122h246l-33 -122h-246z" />
    <glyph glyph-name="registered" unicode="&#xae;" horiz-adv-x="737" 
d="M306 327v-171h-87v407h152q167 0 167 -123q0 -99 -98 -106l104 -178h-103l-94 171h-41zM306 396h77q62 0 62 53q0 45 -78 45h-61v-98zM748 359q0 -167 -106 -272.5t-273 -105.5t-273.5 105.5t-106.5 272.5t106.5 272.5t273.5 105.5t273 -105.5t106 -272.5zM639 359
q0 122 -73 204q-77 86 -197 86q-123 0 -198 -85q-73 -81 -73 -205t73 -205q76 -86 198 -85v-1q120 0 196 87q74 83 74 204z" />
    <glyph glyph-name="macron" unicode="&#xaf;" horiz-adv-x="333" 
d="M339 678v-74h-345v74h345z" />
    <glyph glyph-name="macron" unicode="&#x2c9;" horiz-adv-x="333" 
d="M339 678v-74h-345v74h345z" />
    <glyph glyph-name="degree" unicode="&#xb0;" horiz-adv-x="400" 
d="M57 569q0 59 42 101t101 42t101 -42t42 -101t-42 -101t-101 -42t-101 42t-42 101zM113 569q0 -36 25.5 -61.5t61.5 -25.5t61.5 25.5t25.5 61.5t-25.5 61.5t-61.5 25.5t-61.5 -25.5t-25.5 -61.5z" />
    <glyph glyph-name="plusminus" unicode="&#xb1;" horiz-adv-x="584" 
d="M236 381v125h112v-125h196v-112h-196v-126h-112v126h-196v112h196zM40 0v112h504v-112h-504z" />
    <glyph glyph-name="twosuperior" unicode="&#xb2;" horiz-adv-x="333" 
d="M102 558h-88q0 72 39.5 112t111.5 40q67 0 110 -33q48 -37 48 -102q0 -86 -88 -139q-76 -46 -97 -71h186v-82h-315q3 50 18 80q23 47 85 89q71 48 89 66q27 27 27 60q4 24 -15 38.5t-44 14.5q-64 0 -67 -73z" />
    <glyph glyph-name="threesuperior" unicode="&#xb3;" horiz-adv-x="333" 
d="M8 413h89q0 -67 67 -67q64 0 64 62q0 38 -33 51q-21 8 -66 8v64h15q73 0 73 53q0 51 -54 51q-62 0 -62 -62h-85q0 68 44 104q40 33 109 33q60 0 99 -29q44 -32 44 -90q0 -61 -55 -82v-2q69 -19 69 -99q0 -64 -45.5 -100.5t-111.5 -36.5q-161 0 -161 142z" />
    <glyph glyph-name="acute" unicode="&#xb4;" horiz-adv-x="333" 
d="M356 750l-147 -146h-101l94 146h154z" />
    <glyph glyph-name="mu" unicode="&#xb5;" horiz-adv-x="611" 
d="M545 532v-532h-134v75h-2q-49 -89 -124 -89q-53 0 -79 26v-219h-140v739h140v-330q0 -98 91 -98q52 0 80 34t28 87v307h140z" />
    <glyph glyph-name="mu" unicode="&#x3bc;" horiz-adv-x="611" 
d="M545 532v-532h-134v75h-2q-49 -89 -124 -89q-53 0 -79 26v-219h-140v739h140v-330q0 -98 91 -98q52 0 80 34t28 87v307h140z" />
    <glyph glyph-name="paragraph" unicode="&#xb6;" 
d="M214 -191v538q-95 0 -153 38q-69 45 -69 135q0 180 244 180h303v-891h-112v806h-101v-806h-112z" />
    <glyph glyph-name="ch270" unicode="&#xb7;" horiz-adv-x="249" 
d="M38 348q0 34 23 57t57 23t57.5 -23t23.5 -57t-23.5 -57.5t-57.5 -23.5t-57 23.5t-23 57.5z" />
    <glyph glyph-name="ch270" unicode="&#x2219;" horiz-adv-x="249" 
d="M38 348q0 34 23 57t57 23t57.5 -23t23.5 -57t-23.5 -57.5t-57.5 -23.5t-57 23.5t-23 57.5z" />
    <glyph glyph-name="cedilla" unicode="&#xb8;" horiz-adv-x="333" 
d="M52 -84l55 84h59l-38 -55q16 4 30 4q38 0 62.5 -20.5t24.5 -57.5q0 -48 -39 -75q-35 -24 -85 -24q-46 0 -115 25l22 48q52 -16 77 -16q18 0 32.5 11t14.5 28q0 36 -39 36q-14 0 -40 -8z" />
    <glyph glyph-name="onesuperior" unicode="&#xb9;" horiz-adv-x="333" 
d="M26 574v62h13q108 0 113 74h85v-427h-101v291h-110z" />
    <glyph glyph-name="ordmasculine" unicode="&#xba;" horiz-adv-x="365" 
d="M360 569q0 -77 -49.5 -122.5t-127.5 -45.5t-127.5 45.5t-49.5 122.5t49.5 122.5t127.5 45.5t127.5 -45.5t49.5 -122.5zM262 569q0 40 -19 66q-22 30 -60 30t-60 -30q-19 -26 -19 -66t19 -66q22 -30 60 -30t60 30q19 26 19 66zM33 356h300v-80h-300v80z" />
    <glyph glyph-name="guillemotright" unicode="&#xbb;" 
d="M401 280l-100 88v116l167 -144v-120l-167 -144v116zM188 280l-100 88v116l167 -144v-120l-167 -144v116z" />
    <glyph glyph-name="onequarter" unicode="&#xbc;" horiz-adv-x="834" 
d="M510 157h115q0 69 1 126l1 57h-2zM716 424v-265h50v-69h-50v-90h-95v90h-183v74l170 260h108zM136 -19l428 729h78l-427 -729h-79zM26 574v62h13q108 0 113 74h85v-427h-101v291h-110z" />
    <glyph glyph-name="onehalf" unicode="&#xbd;" horiz-adv-x="834" 
d="M136 -19l428 729h78l-427 -729h-79zM26 574v62h13q108 0 113 74h85v-427h-101v291h-110zM572 275h-88q0 72 39.5 112t111.5 40q67 0 110 -33q48 -37 48 -102q0 -86 -88 -139q-76 -46 -97 -71h186v-82h-315q3 50 18 80q23 47 85 89q71 48 89 66q27 27 27 60q4 24 -15 38.5
t-44 14.5q-64 0 -67 -73z" />
    <glyph glyph-name="threequarters" unicode="&#xbe;" horiz-adv-x="834" 
d="M542 159h112q0 69 1 123l1 54h-2zM749 424v-265h50v-69h-50v-90h-95v90h-183v74l170 260h108zM180 -19l428 729h78l-427 -729h-79zM16 413h89q0 -67 67 -67q64 0 64 62q0 38 -33 51q-21 8 -66 8v64h15q73 0 73 53q0 51 -54 51q-62 0 -62 -62h-85q0 68 44 104
q40 33 109 33q60 0 99 -29q44 -32 44 -90q0 -61 -55 -82v-2q69 -19 69 -99q0 -64 -45.5 -100.5t-111.5 -36.5q-161 0 -161 142z" />
    <glyph glyph-name="questiondown" unicode="&#xbf;" horiz-adv-x="611" 
d="M237 324h132q0 -81 -19 -118q-18 -32 -85 -86q-60 -48 -60 -98q0 -46 25.5 -72.5t71.5 -26.5q96 0 108 115v1h141q0 -108 -65.5 -171t-174.5 -63q-86 0 -150 33q-106 54 -106 180q0 59 36 107q26 34 85 77q37 26 49 51t12 71zM227 391v141h146v-141h-146z" />
    <glyph glyph-name="Agrave" unicode="&#xc0;" horiz-adv-x="722" 
d="M228 148l-50 -148h-158l256 718h173l253 -718h-163l-46 148h-265zM268 272h183l-89 284zM325 766l-103 102h108l66 -102h-71z" />
    <glyph glyph-name="Aacute" unicode="&#xc1;" horiz-adv-x="722" 
d="M228 148l-50 -148h-158l256 718h173l253 -718h-163l-46 148h-265zM360 556l-92 -284h183l-89 284h-2zM551 936l-147 -146h-101l94 146h154z" />
    <glyph glyph-name="Acircumflex" unicode="&#xc2;" horiz-adv-x="722" 
d="M228 148l-50 -148h-158l256 718h173l253 -718h-163l-46 148h-265zM268 272h183l-89 284zM403 862l80 -102h-79l-45 57l-44 -57h-79l80 102h87z" />
    <glyph glyph-name="Atilde" unicode="&#xc3;" horiz-adv-x="722" 
d="M228 148l-50 -148h-158l256 718h173l253 -718h-163l-46 148h-265zM268 272h183l-89 284zM444 854h45q-9 -82 -76 -84q-27 -1 -53 12q-39 14 -50 14q-15 0 -25 -12q-2 -3 -8 -18h-45q14 86 85 86q13 0 16 -1q10 -1 37 -13t41 -12q15 0 23 7q5 6 10 21z" />
    <glyph glyph-name="Adieresis" unicode="&#xc4;" horiz-adv-x="722" 
d="M228 148l-50 -148h-158l256 718h173l253 -718h-163l-46 148h-265zM360 556l-92 -284h183l-89 284h-2zM327 915v-115h-126v115h126zM522 915v-115h-126v115h126z" />
    <glyph glyph-name="Aring" unicode="&#xc5;" horiz-adv-x="722" 
d="M228 148l-50 -148h-158l256 718h173l253 -718h-163l-46 148h-265zM360 556l-92 -284h183l-89 284h-2zM470 858q0 -43 -32.5 -73.5t-75.5 -30.5t-75.5 30.5t-32.5 73.5q0 44 32 74t76 30t76 -30t32 -74zM414 858q0 22 -15 37t-37 15t-37 -15t-15 -37t15 -37t37 -15t37 15
t15 37z" />
    <glyph glyph-name="AE" unicode="&#xc6;" horiz-adv-x="1000" 
d="M576 313v-186h378v-127h-525v153h-215l-52 -153h-157l262 718h680v-127h-371v-151h334v-127h-334zM253 271h176v320h-65z" />
    <glyph glyph-name="Ccedilla" unicode="&#xc7;" horiz-adv-x="722" 
d="M684 483h-150q-15 53 -37 78q-40 46 -122 46q-94 0 -141 -83q-37 -66 -37 -168q0 -101 37 -165q47 -80 141 -80q131 0 159 135h150q-24 -126 -104.5 -195.5t-207.5 -69.5q-162 0 -249 110q-79 101 -79 267q0 165 81 267q88 112 249 112q147 0 233 -87q70 -70 77 -167z
M267 -84l55 84h59l-38 -55q16 4 30 4q38 0 62.5 -20.5t24.5 -57.5q0 -48 -39 -75q-35 -24 -85 -24q-46 0 -115 25l22 48q52 -16 77 -16q18 0 32.5 11t14.5 28q0 36 -39 36q-14 0 -40 -8z" />
    <glyph glyph-name="Egrave" unicode="&#xc8;" horiz-adv-x="667" 
d="M604 718v-127h-381v-151h350v-127h-350v-186h398v-127h-545v718h528zM306 769l-103 102h108l66 -102h-71z" />
    <glyph glyph-name="Eacute" unicode="&#xc9;" horiz-adv-x="667" 
d="M604 718v-127h-381v-151h350v-127h-350v-186h398v-127h-545v718h528zM478 871l-103 -102h-71l66 102h108z" />
    <glyph glyph-name="Ecircumflex" unicode="&#xca;" horiz-adv-x="667" 
d="M604 718v-127h-381v-151h350v-127h-350v-186h398v-127h-545v718h528zM382 863l80 -102h-79l-45 57l-44 -57h-79l80 102h87z" />
    <glyph glyph-name="Edieresis" unicode="&#xcb;" horiz-adv-x="667" 
d="M604 718v-127h-381v-151h350v-127h-350v-186h398v-127h-545v718h528zM299 915v-115h-126v115h126zM494 915v-115h-126v115h126z" />
    <glyph glyph-name="Igrave" unicode="&#xcc;" horiz-adv-x="278" 
d="M214 718v-718h-150v718h150zM104 766l-103 102h108l66 -102h-71z" />
    <glyph glyph-name="Iacute" unicode="&#xcd;" horiz-adv-x="278" 
d="M214 718v-718h-150v718h150zM277 868l-103 -102h-71l66 102h108z" />
    <glyph glyph-name="Icircumflex" unicode="&#xce;" horiz-adv-x="278" 
d="M214 718v-718h-150v718h150zM202 936l114 -146h-113l-64 82l-63 -82h-113l114 146h125z" />
    <glyph glyph-name="Idieresis" unicode="&#xcf;" horiz-adv-x="278" 
d="M214 718v-718h-150v718h150zM105 915v-115h-126v115h126zM300 915v-115h-126v115h126z" />
    <glyph glyph-name="Eth" unicode="&#xd0;" horiz-adv-x="722" 
d="M76 316h-81v124h81v278h317q162 0 237 -120q55 -88 55 -222q0 -146 -60 -246q-78 -130 -238 -130h-311v316zM223 594v-154h166v-124h-166v-192h146q88 0 130 81q33 63 33 160q0 229 -165 229h-144z" />
    <glyph glyph-name="Ntilde" unicode="&#xd1;" horiz-adv-x="722" 
d="M514 218v500h140v-718h-150l-293 512h-2v-512h-140v718h158l285 -500h2zM480 923v0h65q-20 -120 -109 -120q-26 0 -76 16q-62 20 -71 20q-39 0 -47 -43h-64q25 123 121 123q21 0 82 -23q34 -13 52 -13q38 0 47 40z" />
    <glyph glyph-name="Ograve" unicode="&#xd2;" horiz-adv-x="778" 
d="M44 359q0 277 213 355q60 22 132 23q81 1 155.5 -33t120.5 -97q69 -95 69 -248q0 -277 -213 -355q-60 -22 -132 -23q-82 -1 -154 32q-76 34 -122 98q-69 95 -69 248zM194 359q-1 -106 43 -172q51 -78 152 -79q100 -1 151 78q43 67 44 173t-43 172q-51 78 -152 79
q-100 1 -151 -78q-43 -67 -44 -173zM350 776l-103 102h108l66 -102h-71z" />
    <glyph glyph-name="Oacute" unicode="&#xd3;" horiz-adv-x="778" 
d="M44 359q0 277 213 355q60 22 132 23q81 1 155.5 -33t120.5 -97q69 -95 69 -248q0 -277 -213 -355q-60 -22 -132 -23q-82 -1 -154 32q-76 34 -122 98q-69 95 -69 248zM194 359q-1 -106 43 -172q51 -78 152 -79q100 -1 151 78q43 67 44 173t-43 172q-51 78 -152 79
q-100 1 -151 -78q-43 -67 -44 -173zM526 878l-103 -102h-71l66 102h108z" />
    <glyph glyph-name="Ocircumflex" unicode="&#xd4;" horiz-adv-x="778" 
d="M44 359q0 277 213 355q60 22 132 23q81 1 155.5 -33t120.5 -97q69 -95 69 -248q0 -277 -213 -355q-60 -22 -132 -23q-82 -1 -154 32q-76 34 -122 98q-69 95 -69 248zM194 359q-1 -106 43 -172q51 -78 152 -79q100 -1 151 78q43 67 44 173t-43 172q-51 78 -152 79
q-100 1 -151 -78q-43 -67 -44 -173zM430 869l80 -102h-79l-45 57l-44 -57h-79l80 102h87z" />
    <glyph glyph-name="Otilde" unicode="&#xd5;" horiz-adv-x="778" 
d="M44 359q0 277 213 355q60 22 132 23q81 1 155.5 -33t120.5 -97q69 -95 69 -248q0 -277 -213 -355q-60 -22 -132 -23q-82 -1 -154 32q-76 34 -122 98q-69 95 -69 248zM194 359q-1 -106 43 -172q51 -78 152 -79q100 -1 151 78q43 67 44 173t-43 172q-51 78 -152 79
q-100 1 -151 -78q-43 -67 -44 -173zM471 868h45q-9 -82 -76 -84q-27 -1 -53 12q-39 14 -50 14q-15 0 -25 -12q-2 -3 -8 -18h-45q14 86 85 86q13 0 16 -1q10 -1 37 -13t41 -12q15 0 23 7q5 6 10 21z" />
    <glyph glyph-name="Odieresis" unicode="&#xd6;" horiz-adv-x="778" 
d="M44 359q0 219 137 315q90 63 208 63t208 -63q137 -96 137 -315t-137 -315q-90 -63 -208 -63t-208 63q-137 96 -137 315zM194 359q0 -106 43 -172q52 -79 152 -79t152 79q43 66 43 172t-43 172q-52 79 -152 79t-152 -79q-43 -66 -43 -172zM355 915v-115h-126v115h126z
M550 915v-115h-126v115h126z" />
    <glyph glyph-name="multiply" unicode="&#xd7;" horiz-adv-x="584" 
d="M213 253l-173 173l79 79l173 -173l173 173l79 -79l-173 -173l174 -173l-80 -79l-173 173l-172 -173l-80 79z" />
    <glyph glyph-name="Oslash" unicode="&#xd8;" horiz-adv-x="778" 
d="M744 707l-84 -92q74 -96 74 -256q0 -219 -137 -315q-90 -63 -208 -63q-139 0 -232 82l-82 -90l-42 38l85 93q-74 95 -74 255q0 219 137 315q90 63 208 63q137 0 232 -81l81 89zM221 218l304 333q-54 59 -136 59q-100 0 -152 -79q-43 -66 -43 -172q0 -85 27 -141zM556 501
l-304 -333q53 -60 137 -60q100 0 152 79q43 66 43 172q0 89 -28 142z" />
    <glyph glyph-name="Ugrave" unicode="&#xd9;" horiz-adv-x="722" 
d="M651 718v-467q0 -268 -295 -270q-130 -1 -205 64q-79 68 -79 197v476h153v-466q0 -65 31 -103q33 -41 97 -41q145 0 145 137v473h153zM331 760l-103 102h108l66 -102h-71z" />
    <glyph glyph-name="Uacute" unicode="&#xda;" horiz-adv-x="722" 
d="M651 718v-467q0 -268 -295 -270q-130 -1 -205 64q-79 68 -79 197v476h153v-466q0 -65 31 -103q33 -41 97 -41q145 0 145 137v473h153zM501 862l-103 -102h-71l66 102h108z" />
    <glyph glyph-name="Ucircumflex" unicode="&#xdb;" horiz-adv-x="722" 
d="M651 718v-467q0 -270 -295 -270q-131 0 -205 64q-79 68 -79 197v476h153v-466q0 -63 32 -102q34 -42 96 -42q145 0 145 137v473h153zM424 936l114 -146h-113l-64 82l-63 -82h-113l114 146h125z" />
    <glyph glyph-name="Udieresis" unicode="&#xdc;" horiz-adv-x="722" 
d="M651 718v-467q0 -270 -295 -270q-131 0 -205 64q-79 68 -79 197v476h153v-466q0 -63 32 -102q34 -42 96 -42q145 0 145 137v473h153zM327 915v-115h-126v115h126zM522 915v-115h-126v115h126z" />
    <glyph glyph-name="Yacute" unicode="&#xdd;" horiz-adv-x="667" 
d="M413 269v-269h-150v271l-248 447h177l149 -312l142 312h170zM481 861l-103 -102h-71l66 102h108z" />
    <glyph glyph-name="Thorn" unicode="&#xde;" horiz-adv-x="667" 
d="M76 0v718h150v-98h178q105 0 164 -63t59 -169q0 -77 -42 -139q-61 -90 -187 -90h-172v-159h-150zM226 283h139q112 0 112 112q0 101 -132 101h-119v-213z" />
    <glyph glyph-name="germandbls" unicode="&#xdf;" horiz-adv-x="611" 
d="M279 -8v110q10 -1 29 -1q131 0 131 124q0 74 -53 102q-30 16 -100 20v97q55 2 76 13q36 19 36 74q0 88 -101 88q-40 0 -64 -24.5t-24 -64.5v-530h-140v539q0 95 71 147q63 45 162 45q236 0 236 -196q0 -88 -73 -124q114 -51 114 -182q0 -114 -65.5 -178.5t-179.5 -64.5
q-19 0 -55 6z" />
    <glyph glyph-name="agrave" unicode="&#xe0;" 
d="M496 392v-288q0 -72 31 -83v-21h-151q-8 27 -13 63q-32 -35 -62 -51q-47 -25 -110 -26q-72 -1 -117 41t-45 114q0 147 155 170l126 19q48 7 49 42q2 62 -92 62q-76 0 -86 -74h-135q11 110 84 154q52 31 154 32q87 1 143 -32q69 -40 69 -122zM359 191v68q-20 -17 -99 -30
q-89 -14 -91 -79q-1 -29 17.5 -46t47.5 -18q48 -1 86.5 28.5t38.5 76.5zM232 586l-103 102h108l66 -102h-71z" />
    <glyph glyph-name="aacute" unicode="&#xe1;" 
d="M496 392v-288q0 -72 31 -83v-21h-151q-8 27 -13 63q-32 -35 -62 -51q-47 -25 -110 -26q-72 -1 -117 41t-45 114q0 147 155 170l126 19q48 7 49 42q2 62 -92 62q-76 0 -86 -74h-135q11 110 84 154q52 31 154 32q87 1 143 -32q69 -40 69 -122zM359 191v68q-20 -17 -99 -30
q-89 -14 -91 -79q-1 -29 17.5 -46t47.5 -18q48 -1 86.5 28.5t38.5 76.5zM391 677l-93 -91h-64l60 91h97z" />
    <glyph glyph-name="acircumflex" unicode="&#xe2;" 
d="M496 392v-288q0 -72 31 -83v-21h-151q-8 27 -13 63q-32 -35 -62 -51q-47 -25 -110 -26q-72 -1 -117 41t-45 114q0 147 155 170l126 19q48 7 49 42q2 62 -92 62q-76 0 -86 -74h-135q11 110 84 154q52 31 154 32q87 1 143 -32q69 -40 69 -122zM359 191v68q-20 -17 -99 -30
q-89 -14 -91 -79q-1 -29 17.5 -46t47.5 -18q48 -1 86.5 28.5t38.5 76.5zM304 676l72 -92h-71l-41 52l-39 -52h-72l72 92h79z" />
    <glyph glyph-name="atilde" unicode="&#xe3;" 
d="M496 392v-288q0 -72 31 -83v-21h-151q-8 27 -13 63q-32 -35 -62 -51q-47 -25 -110 -26q-72 -1 -117 41t-45 114q0 147 155 170l126 19q48 7 49 42q2 62 -92 62q-76 0 -86 -74h-135q11 110 84 154q52 31 154 32q87 1 143 -32q69 -40 69 -122zM359 191v68q-20 -17 -99 -30
q-89 -14 -91 -79q-1 -29 17.5 -46t47.5 -18q48 -1 86.5 28.5t38.5 76.5zM342 672h40q-9 -74 -68 -76q-24 -1 -48 11q-39 13 -45 13q-20 0 -29 -27h-41q15 77 77 77q13 0 45 -13q20 -8 39 -10q24 0 30 25z" />
    <glyph glyph-name="adieresis" unicode="&#xe4;" 
d="M496 392v-288q0 -72 31 -83v-21h-151q-10 30 -13 63q-75 -77 -172 -77q-73 0 -117.5 41.5t-44.5 113.5q0 147 155 170l126 19q49 7 49 42q0 62 -92 62q-76 0 -86 -74h-135q10 103 74 147q56 39 164 39q87 0 143 -33q69 -40 69 -121zM359 191v68q-22 -17 -95 -29
q-46 -8 -66 -21q-29 -19 -29 -59q0 -29 18 -46.5t47 -17.5q50 0 87.5 28.5t37.5 76.5zM244 729v-115h-126v115h126zM439 729v-115h-126v115h126z" />
    <glyph glyph-name="aring" unicode="&#xe5;" 
d="M496 392v-288q0 -72 31 -83v-21h-151q-10 30 -13 63q-75 -77 -172 -77q-73 0 -117.5 41.5t-44.5 113.5q0 147 155 170l126 19q49 7 49 42q0 62 -92 62q-76 0 -86 -74h-135q10 103 74 147q56 39 164 39q87 0 143 -33q69 -40 69 -121zM359 191v68q-22 -17 -95 -29
q-46 -8 -66 -21q-29 -19 -29 -59q0 -29 18 -46.5t47 -17.5q50 0 87.5 28.5t37.5 76.5zM387 672q0 -43 -32.5 -73.5t-75.5 -30.5t-75.5 30.5t-32.5 73.5q0 44 32 74t76 30t76 -30t32 -74zM331 672q0 22 -15 37t-37 15t-37 -15t-15 -37t15 -37t37 -15t37 15t15 37z" />
    <glyph glyph-name="ae" unicode="&#xe6;" horiz-adv-x="889" 
d="M708 156h144q-24 -82 -85.5 -125.5t-148.5 -44.5q-86 -1 -137 28q-30 17 -62 58q-55 -86 -201 -86q-189 0 -189 163q0 129 135 152l131 22q42 7 50 11q22 11 22 41q0 59 -98 59q-84 0 -84 -75h-137q14 187 240 187q97 0 164 -59q36 28 58 38q44 20 98 21q127 2 192 -85
q58 -77 58 -208v-25h-365q12 -130 125 -130q73 0 90 58zM364 188v67q-21 -18 -104 -30q-48 -7 -66 -19q-25 -17 -25 -58q0 -62 79 -62q42 0 79 30.5t37 71.5zM497 319h217q-4 49 -32 80.5t-76 31.5q-96 0 -109 -112z" />
    <glyph glyph-name="ccedilla" unicode="&#xe7;" 
d="M381 194h142q-6 -69 -50 -125q-66 -83 -193 -83q-120 0 -185 73q-61 70 -61 192q0 135 59 211q65 84 196 84q99 0 162 -52q65 -55 73 -152h-142q-15 88 -93 86q-58 -2 -87 -51q-24 -41 -24 -103q0 -173 108 -173q37 0 66 28t29 65zM184 -84l55 84h59l-38 -55q16 4 30 4
q38 0 62.5 -20.5t24.5 -57.5q0 -48 -39 -75q-35 -24 -85 -24q-46 0 -115 25l22 48q52 -16 77 -16q18 0 32.5 11t14.5 28q0 36 -39 36q-14 0 -40 -8z" />
    <glyph glyph-name="egrave" unicode="&#xe8;" 
d="M378 156h144q-24 -83 -85.5 -126t-148.5 -44q-263 -2 -265 291q-1 88 40 158q64 111 215 111q129 0 193 -85q57 -75 57 -208v-25h-365q11 -130 125 -130q72 0 90 58zM167 319h217q-3 49 -31.5 80.5t-76.5 31.5q-97 0 -109 -112zM242 586l-103 102h108l66 -102h-71z" />
    <glyph glyph-name="eacute" unicode="&#xe9;" 
d="M378 156h144q-24 -83 -85.5 -126t-148.5 -44q-263 -2 -265 291q-1 88 40 158q64 111 215 111q129 0 193 -85q57 -75 57 -208v-25h-365q11 -130 125 -130q72 0 90 58zM167 319h217q-3 49 -31.5 80.5t-76.5 31.5q-97 0 -109 -112zM402 677l-93 -91h-64l60 91h97z" />
    <glyph glyph-name="ecircumflex" unicode="&#xea;" 
d="M378 156h144q-24 -83 -85.5 -126t-148.5 -44q-263 -2 -265 291q-1 88 40 158q64 111 215 111q129 0 193 -85q57 -75 57 -208v-25h-365q11 -130 125 -130q72 0 90 58zM167 319h217q-3 49 -31.5 80.5t-76.5 31.5q-97 0 -109 -112zM315 676l72 -92h-71l-41 52l-39 -52h-72
l72 92h79z" />
    <glyph glyph-name="edieresis" unicode="&#xeb;" 
d="M378 156h144q-24 -82 -86 -126t-148 -44q-265 0 -265 291q0 91 40 159q65 110 215 110q129 0 193 -85q57 -75 57 -208v-25h-365q12 -130 125 -130q73 0 90 58zM167 319h217q-4 49 -32 80.5t-76 31.5q-96 0 -109 -112zM244 729v-115h-126v115h126zM439 729v-115h-126v115
h126z" />
    <glyph glyph-name="igrave" unicode="&#xec;" horiz-adv-x="278" 
d="M69 532h140v-532h-140v532zM104 586l-103 102h108l66 -102h-71z" />
    <glyph glyph-name="iacute" unicode="&#xed;" horiz-adv-x="278" 
d="M69 532h140v-532h-140v532zM264 677l-93 -91h-64l60 91h97z" />
    <glyph glyph-name="icircumflex" unicode="&#xee;" horiz-adv-x="278" 
d="M69 532h140v-532h-140v532zM202 750l114 -146h-113l-64 82l-63 -82h-113l114 146h125z" />
    <glyph glyph-name="idieresis" unicode="&#xef;" horiz-adv-x="278" 
d="M69 532h140v-532h-140v532zM105 729v-115h-126v115h126zM300 729v-115h-126v115h126z" />
    <glyph glyph-name="eth" unicode="&#xf0;" horiz-adv-x="611" 
d="M306 405q-70 0 -104 -58q-24 -41 -24 -86q0 -69 29 -110q33 -47 100 -47q66 0 99 50q28 42 28 111q0 46 -23 84q-34 56 -105 56zM524 685l-101 -44q155 -146 155 -346q0 -134 -66 -217q-73 -92 -203 -92q-129 0 -202 75t-73 204q0 112 68 185t179 73q79 0 123 -55l2 2
q-28 61 -97 121l-108 -47l-63 52l108 47q-41 30 -73 45l108 49q42 -17 79 -44l102 44z" />
    <glyph glyph-name="ntilde" unicode="&#xf1;" horiz-adv-x="611" 
d="M546 368v-368h-140v323q0 45 -12 67q-21 38 -79 38q-53 0 -81.5 -34.5t-28.5 -88.5v-305h-140v532h134v-78h2q55 92 160 92q85 0 135 -47t50 -131zM424 737v0h65q-20 -120 -109 -120q-26 0 -76 16q-62 20 -71 20q-39 0 -47 -43h-64q25 123 121 123q21 0 82 -23
q34 -13 52 -13q38 0 47 40z" />
    <glyph glyph-name="ograve" unicode="&#xf2;" horiz-adv-x="611" 
d="M578 266q1 -128 -71.5 -203.5t-200.5 -76.5q-126 -1 -198.5 76t-73.5 204q-1 128 71.5 203.5t200.5 76.5q127 1 199 -75.5t73 -204.5zM434 266q0 161 -128 162t-128 -162q0 -161 128 -162t128 162zM271 586l-103 102h108l66 -102h-71z" />
    <glyph glyph-name="oacute" unicode="&#xf3;" horiz-adv-x="611" 
d="M578 266q1 -128 -71.5 -203.5t-200.5 -76.5q-126 -1 -198.5 76t-73.5 204q-1 128 71.5 203.5t200.5 76.5q127 1 199 -75.5t73 -204.5zM434 266q0 161 -128 162t-128 -162q0 -161 128 -162t128 162zM430 677l-93 -91h-64l60 91h97z" />
    <glyph glyph-name="ocircumflex" unicode="&#xf4;" horiz-adv-x="611" 
d="M578 266q1 -128 -71.5 -203.5t-200.5 -76.5q-126 -1 -198.5 76t-73.5 204q-1 128 71.5 203.5t200.5 76.5q127 1 199 -75.5t73 -204.5zM434 266q0 161 -128 162t-128 -162q0 -161 128 -162t128 162zM342 676l72 -92h-71l-41 52l-39 -52h-72l72 92h79z" />
    <glyph glyph-name="otilde" unicode="&#xf5;" horiz-adv-x="611" 
d="M578 266q1 -128 -71.5 -203.5t-200.5 -76.5q-126 -1 -198.5 76t-73.5 204q-1 128 71.5 203.5t200.5 76.5q127 1 199 -75.5t73 -204.5zM434 266q0 161 -128 162t-128 -162q0 -161 128 -162t128 162zM381 672h40q-9 -74 -68 -76q-24 -1 -48 11q-39 13 -45 13q-20 0 -29 -27
h-41q15 77 77 77q13 0 45 -13q20 -8 39 -10q24 0 30 25z" />
    <glyph glyph-name="odieresis" unicode="&#xf6;" horiz-adv-x="611" 
d="M578 266q0 -127 -72.5 -203.5t-199.5 -76.5t-199.5 76.5t-72.5 203.5t72.5 203.5t199.5 76.5t199.5 -76.5t72.5 -203.5zM434 266q0 162 -128 162t-128 -162t128 -162t128 162zM271 729v-115h-126v115h126zM466 729v-115h-126v115h126z" />
    <glyph glyph-name="divide" unicode="&#xf7;" horiz-adv-x="584" 
d="M544 197h-504v112h504v-112zM204 459q0 37 26 63t63 26q36 0 62 -26.5t26 -62.5q0 -34 -26.5 -61t-60.5 -27q-37 0 -63.5 25.5t-26.5 62.5zM204 46q0 37 26 63t63 26q36 0 62 -26.5t26 -62.5q0 -34 -26.5 -61t-60.5 -27q-37 0 -63.5 25.5t-26.5 62.5z" />
    <glyph glyph-name="oslash" unicode="&#xf8;" horiz-adv-x="611" 
d="M420 351l-202 -213q31 -34 88 -34q128 0 128 162q0 52 -14 85zM193 179l203 214q-33 35 -90 35q-128 0 -128 -162q0 -51 15 -87zM589 528l-71 -74q60 -73 60 -188q0 -127 -72.5 -203.5t-199.5 -76.5q-106 0 -177 58l-69 -73l-38 29l73 77q-61 74 -61 189
q0 127 72.5 203.5t199.5 76.5q105 0 179 -59l69 73z" />
    <glyph glyph-name="ugrave" unicode="&#xf9;" horiz-adv-x="611" 
d="M545 532v-532h-134v75q-52 -88 -164 -89q-89 -1 -136 54q-45 52 -45 142v350h140v-330q0 -98 91 -98q108 0 108 121v307h140zM270 576l-103 102h108l66 -102h-71z" />
    <glyph glyph-name="uacute" unicode="&#xfa;" horiz-adv-x="611" 
d="M545 532v-532h-134v75q-52 -88 -164 -89q-89 -1 -136 54q-45 52 -45 142v350h140v-330q0 -98 91 -98q108 0 108 121v307h140zM430 667l-93 -91h-64l60 91h97z" />
    <glyph glyph-name="ucircumflex" unicode="&#xfb;" horiz-adv-x="611" 
d="M545 532v-532h-134v75h-2q-50 -89 -162 -89q-89 0 -135 53t-46 143v350h140v-330q0 -98 91 -98q52 0 80 34t28 87v307h140zM368 750l114 -146h-113l-64 82l-63 -82h-113l114 146h125z" />
    <glyph glyph-name="udieresis" unicode="&#xfc;" horiz-adv-x="611" 
d="M545 532v-532h-134v75h-2q-50 -89 -162 -89q-89 0 -135 53t-46 143v350h140v-330q0 -98 91 -98q52 0 80 34t28 87v307h140zM271 729v-115h-126v115h126zM466 729v-115h-126v115h126z" />
    <glyph glyph-name="yacute" unicode="&#xfd;" 
d="M539 532l-183 -523q-54 -154 -83 -186q-36 -40 -123 -37l-63 2v112l27 -2q44 -3 65 17q18 18 27 63l-196 554h156l114 -392l111 392h148zM408 667l-93 -91h-64l60 91h97z" />
    <glyph glyph-name="thorn" unicode="&#xfe;" horiz-adv-x="611" 
d="M196 254q0 -66 28 -106q32 -47 95 -47q59 0 90 54q25 43 25 107q0 163 -119 163t-119 -171zM202 68v-276h-140v926h140v-254h2q53 82 153 82q108 0 168 -86q53 -75 53 -188q0 -119 -51 -196q-59 -90 -173 -90q-102 0 -150 82h-2z" />
    <glyph glyph-name="ydieresis" unicode="&#xff;" 
d="M539 532l-183 -523q-53 -151 -83 -185q-34 -38 -123 -38q-23 0 -63 2v112q12 -2 27 -2q45 0 64.5 17t27.5 63l-196 554h156l114 -392h2l109 392h148zM244 729v-115h-126v115h126zM439 729v-115h-126v115h126z" />
    <glyph glyph-name="glyph271" unicode="&#x102;" horiz-adv-x="722" 
d="M228 148l-50 -148h-158l256 718h173l253 -718h-163l-46 148h-265zM268 272h183l-89 284zM433 862h46q-8 -101 -125 -102q-107 -1 -111 102h46q10 -47 69 -49q63 -2 75 49z" />
    <glyph glyph-name="glyph272" unicode="&#x103;" 
d="M496 392v-288q0 -72 31 -83v-21h-151q-8 27 -13 63q-32 -35 -62 -51q-47 -25 -110 -26q-72 -1 -117 41t-45 114q0 147 155 170l126 19q48 7 49 42q2 62 -92 62q-76 0 -86 -74h-135q11 110 84 154q52 31 154 32q87 1 143 -32q69 -40 69 -122zM359 191v68q-20 -17 -99 -30
q-89 -14 -91 -79q-1 -29 17.5 -46t47.5 -18q48 -1 86.5 28.5t38.5 76.5zM336 675h41q-4 -44 -35 -67.5t-77 -23.5q-43 0 -71.5 24.5t-28.5 66.5h41q11 -43 62 -44q58 -2 68 44z" />
    <glyph glyph-name="Cacute" unicode="&#x106;" horiz-adv-x="711" 
d="M684 483h-150q-15 53 -37 78q-40 46 -122 46q-94 0 -141 -83q-37 -66 -37 -168q0 -101 37 -165q47 -80 141 -80q131 0 159 135h150q-24 -126 -104.5 -195.5t-207.5 -69.5q-162 0 -249 110q-79 101 -79 267q0 165 81 267q88 112 249 112q147 0 233 -87q70 -70 77 -167z
M533 1005l-147 -146h-101l94 146h154z" />
    <glyph glyph-name="cacute" unicode="&#x107;" horiz-adv-x="441" 
d="M381 194h142q-6 -69 -50 -125q-66 -83 -193 -83q-120 0 -185 73q-61 70 -61 192q0 135 59 211q65 84 196 84q99 0 162 -52q65 -55 73 -152h-142q-15 88 -93 86q-58 -2 -87 -51q-24 -41 -24 -103q0 -173 108 -173q37 0 66 28t29 65zM334 750l-147 -146h-101l94 146h154z
" />
    <glyph glyph-name="Ccaron" unicode="&#x10c;" horiz-adv-x="711" 
d="M684 483h-150q-15 53 -37 78q-40 46 -122 46q-94 0 -141 -83q-37 -66 -37 -168q0 -101 37 -165q47 -80 141 -80q131 0 159 135h150q-24 -126 -104.5 -195.5t-207.5 -69.5q-162 0 -249 110q-79 101 -79 267q0 165 81 267q88 112 249 112q147 0 233 -87q70 -70 77 -167z
M520 1005l-114 -146h-125l-114 146h113l63 -82l64 82h113z" />
    <glyph glyph-name="ccaron" unicode="&#x10d;" horiz-adv-x="441" 
d="M381 194h142q-6 -69 -50 -125q-66 -83 -193 -83q-120 0 -185 73q-61 70 -61 192q0 135 59 211q65 84 196 84q99 0 162 -52q65 -55 73 -152h-142q-15 88 -93 86q-58 -2 -87 -51q-24 -41 -24 -103q0 -173 108 -173q37 0 66 28t29 65zM321 750l-114 -146h-125l-114 146h113
l63 -82l64 82h113z" />
    <glyph glyph-name="Dslash" unicode="&#x110;" horiz-adv-x="722" 
d="M76 316h-81v124h81v278h317q149 0 224 -100q67 -88 68 -242q1 -143 -60 -245q-78 -131 -238 -131h-311v316zM223 594v-154h166v-124h-166v-192h146q88 0 130 81q33 63 33 160q0 229 -165 229h-144z" />
    <glyph glyph-name="dcroat" unicode="&#x111;" horiz-adv-x="611" 
d="M178 262q-1 -64 25 -108q30 -53 90 -53q63 0 95 47q28 40 29 106q2 171 -120 171q-117 0 -119 -163zM551 627h47v-50h-47v-577h-137v67q-46 -81 -156 -81q-114 0 -173 90q-50 76 -51 196q-1 116 51 189q59 84 170 85q98 1 154 -83l2 114h-113v50h113v91h140v-91z" />
    <glyph glyph-name="Gbreve" unicode="&#x11e;" horiz-adv-x="767" 
d="M413 266v121h300v-387h-100l-15 90q-43 -50 -77 -71q-61 -38 -147 -38q-157 0 -247 112q-83 104 -83 264q0 169 90 272q95 108 261 108q149 0 237 -84q71 -68 78 -158h-150q0 31 -39 70q-48 48 -118 48q-105 0 -159 -80q-47 -69 -47 -178q0 -247 209 -247q47 0 88 25
q66 40 86 133h-167zM466 1005h65q-7 -73 -57 -111q-46 -35 -121 -35q-70 0 -112 38.5t-47 107.5h66q13 -70 99 -70q96 0 107 70z" />
    <glyph glyph-name="gbreve" unicode="&#x11f;" horiz-adv-x="492" 
d="M419 532h134v-504q0 -105 -36 -157q-61 -88 -233 -88q-88 0 -151 36q-77 43 -81 124h152q8 -34 37 -46q19 -8 61 -8q111 0 111 122v64l-2 2q-45 -80 -142 -80q-115 0 -175 83q-54 73 -54 192q0 113 53 188q60 86 168 86q111 0 156 -93h2v79zM184 263q0 -60 25 -100
q30 -48 86 -48q119 0 119 154q0 63 -28 106q-32 50 -92 50t-88 -54q-22 -42 -22 -108zM266 750h65q-7 -73 -57 -111q-46 -35 -121 -35q-70 0 -112 38.5t-47 107.5h66q13 -70 99 -70q96 0 107 70z" />
    <glyph glyph-name="glyph273" unicode="&#x128;" horiz-adv-x="278" 
d="M214 718v-718h-150v718h150zM224 857h45q-9 -82 -76 -84q-27 -1 -53 12q-39 14 -50 14q-15 0 -25 -12q-2 -3 -8 -18h-45q14 86 85 86q13 0 16 -1q10 -1 37 -13t41 -12q15 0 23 7q5 6 10 21z" />
    <glyph glyph-name="glyph274" unicode="&#x129;" horiz-adv-x="278" 
d="M69 532h140v-532h-140v532zM217 672h40q-9 -74 -68 -76q-24 -1 -48 11q-39 13 -45 13q-20 0 -29 -27h-41q15 77 77 77q13 0 45 -13q20 -8 39 -10q24 0 30 25z" />
    <glyph glyph-name="Idotaccent" unicode="&#x130;" horiz-adv-x="429" 
d="M214 718v-718h-150v718h150zM257 984v-115h-126v115h126z" />
    <glyph glyph-name="dotlessi" unicode="&#x131;" horiz-adv-x="278" 
d="M69 532h140v-532h-140v532z" />
    <glyph glyph-name="Lslash" unicode="&#x141;" horiz-adv-x="611" 
d="M354 459l-128 -73v-256h357v-130h-507v311l-96 -55v78l96 55v329h150v-254l128 73v-78z" />
    <glyph glyph-name="lslash" unicode="&#x142;" horiz-adv-x="278" 
d="M296 523v-78l-87 -50v-395h-140v324l-87 -50v78l87 50v316h140v-245z" />
    <glyph glyph-name="OE" unicode="&#x152;" horiz-adv-x="1000" 
d="M628 591v-151h310v-127h-310v-186h333v-127h-470v50q-36 -41 -69.5 -55t-89.5 -14q-112 0 -192 77q-103 100 -103 301q0 153 66 255q80 123 233 123q94 0 155 -61v42h470v-127h-333zM481 196v325q0 46 -41 71q-34 21 -83 21q-95 0 -139 -89q-34 -68 -34 -173
q0 -92 37 -161q46 -85 130 -85q47 0 85 22q45 25 45 69z" />
    <glyph glyph-name="oe" unicode="&#x153;" horiz-adv-x="944" 
d="M762 156h144q-24 -82 -86 -126t-148 -44q-78 0 -129 25q-30 15 -63 49q-60 -74 -174 -74q-127 0 -199.5 76.5t-72.5 203.5t72.5 203.5t199.5 76.5q51 0 101.5 -21.5t81.5 -58.5q36 37 66 54q46 26 107 26q129 0 193 -85q57 -75 57 -208v-25h-365q12 -130 125 -130
q73 0 90 58zM434 266q0 162 -128 162t-128 -162t128 -162t128 162zM551 319h217q-4 49 -32 80.5t-76 31.5q-96 0 -109 -112z" />
    <glyph glyph-name="Scedilla" unicode="&#x15e;" horiz-adv-x="656" 
d="M39 221h144q3 -116 152 -116q150 0 150 93q0 38 -36 59q-23 13 -94 30l-77 18q-116 27 -157 56q-71 50 -71 155q0 83 51 141q71 80 225 80q147 0 222 -83q57 -63 58 -149h-144q-13 108 -147 108q-50 0 -83 -18q-42 -22 -42 -68q0 -56 76 -75l175 -43q91 -22 134 -60
q54 -48 54 -133q0 -138 -118 -198q-73 -37 -165 -37q-132 0 -212 52q-95 62 -95 188zM91 -84l55 84h59l-38 -55q16 4 30 4q38 0 62.5 -20.5t24.5 -57.5q0 -48 -39 -75q-35 -24 -85 -24q-46 0 -115 25l22 48q52 -16 77 -16q18 0 32.5 11t14.5 28q0 36 -39 36q-14 0 -40 -8z
" />
    <glyph glyph-name="scedilla" unicode="&#x15f;" horiz-adv-x="383" 
d="M503 370h-137q-7 40 -31 56q-20 14 -63 14q-86 0 -86 -52q0 -32 86 -51q130 -28 161 -43q86 -40 86 -125q0 -95 -72 -143q-62 -40 -161 -40q-105 0 -172 39q-81 47 -84 145h144q0 -78 116 -78q89 0 89 55q0 34 -86 53q-127 27 -158 42q-86 40 -86 126q0 89 65 136
q58 42 150 42q226 0 239 -176zM-6 -84l55 84h59l-38 -55q16 4 30 4q38 0 62.5 -20.5t24.5 -57.5q0 -48 -39 -75q-35 -24 -85 -24q-46 0 -115 25l22 48q52 -16 77 -16q18 0 32.5 11t14.5 28q0 36 -39 36q-14 0 -40 -8z" />
    <glyph glyph-name="Scaron" unicode="&#x160;" horiz-adv-x="667" 
d="M39 221h144q3 -116 152 -116q150 0 150 93q0 38 -36 59q-23 13 -94 30l-77 18q-116 27 -157 56q-71 50 -71 155q0 83 51 141q71 80 225 80q147 0 222 -83q57 -63 58 -149h-144q-13 108 -147 108q-50 0 -83 -18q-42 -22 -42 -68q0 -56 76 -75l175 -43q91 -22 134 -60
q54 -48 54 -133q0 -138 -118 -198q-73 -37 -165 -37q-132 0 -212 52q-95 62 -95 188zM510 936l-114 -146h-125l-114 146h113l63 -82l64 82h113z" />
    <glyph glyph-name="scaron" unicode="&#x161;" 
d="M503 370h-137q-7 40 -31 56q-20 14 -63 14q-86 0 -86 -52q0 -32 86 -51q130 -28 161 -43q86 -40 86 -125q0 -95 -72 -143q-62 -40 -161 -40q-105 0 -172 39q-81 47 -84 145h144q0 -78 116 -78q89 0 89 55q0 34 -86 53q-127 27 -158 42q-86 40 -86 126q0 89 65 136
q58 42 150 42q226 0 239 -176zM455 750l-114 -146h-125l-114 146h113l63 -82l64 82h113z" />
    <glyph glyph-name="ch903" unicode="&#x168;" horiz-adv-x="722" 
d="M448 848h45q-9 -82 -76 -84q-27 -1 -53 12q-39 14 -50 14q-15 0 -25 -12q-2 -3 -8 -18h-45q14 86 85 86q13 0 16 -1q10 -1 37 -13t41 -12q15 0 23 7q5 6 10 21zM651 718v-467q0 -268 -295 -270q-130 -1 -205 64q-79 68 -79 197v476h153v-466q0 -65 31 -103q33 -41 97 -41
q145 0 145 137v473h153z" />
    <glyph glyph-name="ch904" unicode="&#x169;" horiz-adv-x="611" 
d="M545 532v-532h-134v75q-52 -88 -164 -89q-89 -1 -136 54q-45 52 -45 142v350h140v-330q0 -98 91 -98q108 0 108 121v307h140zM382 662h40q-9 -74 -68 -76q-24 -1 -48 11q-39 13 -45 13q-20 0 -29 -27h-41q15 77 77 77q13 0 45 -13q20 -8 39 -10q24 0 30 25z" />
    <glyph glyph-name="Ydieresis" unicode="&#x178;" horiz-adv-x="667" 
d="M413 269v-269h-150v271l-248 447h177l149 -312l142 312h170zM299 915v-115h-126v115h126zM494 915v-115h-126v115h126z" />
    <glyph glyph-name="Zcaron" unicode="&#x17d;" horiz-adv-x="611" 
d="M586 127v-127h-561v127l371 464h-361v127h549v-118l-376 -473h378zM482 936l-114 -146h-125l-114 146h113l63 -82l64 82h113z" />
    <glyph glyph-name="zcaron" unicode="&#x17e;" horiz-adv-x="500" 
d="M470 417l-269 -302h279v-115h-460v109l273 311h-254v112h431v-115zM427 750l-114 -146h-125l-114 146h113l63 -82l64 82h113z" />
    <glyph glyph-name="florin" unicode="&#x192;" 
d="M475 477v-97h-134l-59 -359q-38 -231 -191 -231q-35 0 -101 21l24 111q29 -17 54 -17q34 0 49 31q13 26 27 110l57 334h-122v97h137l19 87q38 173 178 173q47 0 103 -19l-24 -108q-28 15 -55 15q-57 0 -67 -60l-15 -88h120z" />
    <glyph glyph-name="glyph277" unicode="&#x1a0;" horiz-adv-x="778" 
d="M194 359q-1 -106 43 -172q51 -78 152 -79q100 -1 151 78q43 67 44 173t-43 172q-51 78 -152 79q-100 1 -151 -78q-43 -67 -44 -173zM609 665q124 -94 125 -306q2 -277 -213 -355q-61 -22 -132 -23q-82 -1 -154 32q-76 34 -122 98q-69 95 -69 248q0 277 213 355
q61 22 132 23q108 1 197 -55q38 13 38 52h-38v65h68v-56q0 -57 -45 -78z" />
    <glyph glyph-name="glyph278" unicode="&#x1a1;" horiz-adv-x="611" 
d="M434 266q0 161 -128 162t-128 -162q0 -161 128 -162t128 162zM452 510q21 8 24 42h-33v58h60v-50q0 -26 -8 -39q-6 -16 -23 -24q105 -76 106 -231q1 -128 -71.5 -203.5t-200.5 -76.5q-126 -1 -198.5 76t-73.5 204q-1 128 71.5 203.5t200.5 76.5q79 1 146 -36z" />
    <glyph glyph-name="glyph279" unicode="&#x1af;" horiz-adv-x="722" 
d="M651 673v-422q0 -268 -295 -270q-130 -1 -205 64q-79 68 -79 197v476h153v-466q0 -65 31 -103q33 -41 97 -41q145 0 145 137v473h152l2 16h-38v65h68v-56q0 -50 -31 -70z" />
    <glyph glyph-name="glyph280" unicode="&#x1b0;" horiz-adv-x="611" 
d="M545 496v-496h-134v75q-52 -88 -164 -89q-89 -1 -136 54q-45 52 -45 142v350h140v-330q0 -98 91 -98q108 0 108 121v307h140l4 20h-33v58h60v-50q0 -47 -31 -64z" />
    <glyph glyph-name="circumflex" unicode="&#x2c6;" horiz-adv-x="333" 
d="M229 750l114 -146h-113l-64 82l-63 -82h-113l114 146h125z" />
    <glyph glyph-name="caron" unicode="&#x2c7;" horiz-adv-x="333" 
d="M343 750l-114 -146h-125l-114 146h113l63 -82l64 82h113z" />
    <glyph glyph-name="breve" unicode="&#x2d8;" horiz-adv-x="333" 
d="M270 750h65q-7 -73 -57 -111q-46 -35 -121 -35q-70 0 -112 38.5t-47 107.5h66q13 -70 99 -70q96 0 107 70z" />
    <glyph glyph-name="dotaccent" unicode="&#x2d9;" horiz-adv-x="333" 
d="M230 729v-115h-126v115h126z" />
    <glyph glyph-name="ring" unicode="&#x2da;" horiz-adv-x="333" 
d="M275 672q0 -43 -32.5 -73.5t-75.5 -30.5t-75.5 30.5t-32.5 73.5q0 44 32 74t76 30t76 -30t32 -74zM219 672q0 22 -15 37t-37 15t-37 -15t-15 -37t15 -37t37 -15t37 15t15 37z" />
    <glyph glyph-name="ogonek" unicode="&#x2db;" horiz-adv-x="333" 
d="M286 -155l18 -49q-62 -24 -109 -24q-48 0 -83 22q-41 26 -41 71q0 95 109 135h84v-4q-35 -19 -64 -50q-35 -38 -35 -70q0 -48 46 -48q30 0 75 17z" />
    <glyph glyph-name="tilde" unicode="&#x2dc;" horiz-adv-x="333" 
d="M285 737v0h65q-20 -120 -109 -120q-26 0 -76 16q-62 20 -71 20q-39 0 -47 -43h-64q25 123 121 123q21 0 82 -23q34 -13 52 -13q38 0 47 40z" />
    <glyph glyph-name="hungarumlaut" unicode="&#x2dd;" horiz-adv-x="333" 
d="M257 750l-147 -146h-101l94 146h154zM486 750l-147 -146h-101l94 146h154z" />
    <glyph glyph-name="glyph281" unicode="&#x1ea0;" horiz-adv-x="722" 
d="M228 148l-50 -148h-158l256 718h173l253 -718h-163l-46 148h-265zM268 272h183l-89 284zM405 -25v-81h-88v81h88z" />
    <glyph glyph-name="glyph282" unicode="&#x1ea1;" 
d="M496 392v-288q0 -72 31 -83v-21h-151q-8 27 -13 63q-32 -35 -62 -51q-47 -25 -110 -26q-72 -1 -117 41t-45 114q0 147 155 170l126 19q48 7 49 42q2 62 -92 62q-76 0 -86 -74h-135q11 110 84 154q52 31 154 32q87 1 143 -32q69 -40 69 -122zM359 191v68q-20 -17 -99 -30
q-89 -14 -91 -79q-1 -29 17.5 -46t47.5 -18q48 -1 86.5 28.5t38.5 76.5zM309 -39v-80h-88v80h88z" />
    <glyph glyph-name="glyph283" unicode="&#x1ea2;" horiz-adv-x="722" 
d="M228 148l-50 -148h-158l256 718h173l253 -718h-163l-46 148h-265zM268 272h183l-89 284zM386 760h-53q0 33 7 48.5t33 32.5t26 39q0 40 -39 40q-36 0 -43 -46h-56q0 43 26.5 68t69.5 25q44 0 71 -20q31 -23 31 -65q0 -39 -48 -74q-23 -17 -25 -48z" />
    <glyph glyph-name="glyph284" unicode="&#x1ea3;" 
d="M496 392v-288q0 -72 31 -83v-21h-151q-8 27 -13 63q-32 -35 -62 -51q-47 -25 -110 -26q-72 -1 -117 41t-45 114q0 147 155 170l126 19q48 7 49 42q2 62 -92 62q-76 0 -86 -74h-135q11 110 84 154q52 31 154 32q87 1 143 -32q69 -40 69 -122zM359 191v68q-20 -17 -99 -30
q-89 -14 -91 -79q-1 -29 17.5 -46t47.5 -18q48 -1 86.5 28.5t38.5 76.5zM288 586h-47q0 29 6.5 42.5t29.5 30t23 35.5q0 34 -35 36q-32 2 -39 -42h-50q0 38 24 61t62 23q90 0 92 -76q1 -36 -43 -67q-7 -5 -18 -17q-3 -6 -5 -26z" />
    <glyph glyph-name="glyph285" unicode="&#x1ea4;" horiz-adv-x="722" 
d="M228 148l-50 -148h-158l256 718h173l253 -718h-163l-46 148h-265zM268 272h183l-89 284zM403 862l80 -102h-79l-45 57l-44 -57h-79l80 102h87zM651 920l-103 -102h-71l66 102h108z" />
    <glyph glyph-name="glyph286" unicode="&#x1ea5;" 
d="M496 392v-288q0 -72 31 -83v-21h-151q-8 27 -13 63q-32 -35 -62 -51q-47 -25 -110 -26q-72 -1 -117 41t-45 114q0 147 155 170l126 19q48 7 49 42q2 62 -92 62q-76 0 -86 -74h-135q11 110 84 154q52 31 154 32q87 1 143 -32q69 -40 69 -122zM359 191v68q-20 -17 -99 -30
q-89 -14 -91 -79q-1 -29 17.5 -46t47.5 -18q48 -1 86.5 28.5t38.5 76.5zM304 676l72 -92h-71l-41 52l-39 -52h-72l72 92h79zM527 728l-93 -91h-64l60 91h97z" />
    <glyph glyph-name="glyph287" unicode="&#x1ea6;" horiz-adv-x="722" 
d="M228 148l-50 -148h-158l256 718h173l253 -718h-163l-46 148h-265zM268 272h183l-89 284zM403 862l80 -102h-79l-45 57l-44 -57h-79l80 102h87zM172 818l-103 102h108l66 -102h-71z" />
    <glyph glyph-name="glyph288" unicode="&#x1ea7;" 
d="M496 392v-288q0 -72 31 -83v-21h-151q-8 27 -13 63q-32 -35 -62 -51q-47 -25 -110 -26q-72 -1 -117 41t-45 114q0 147 155 170l126 19q48 7 49 42q2 62 -92 62q-76 0 -86 -74h-135q11 110 84 154q52 31 154 32q87 1 143 -32q69 -40 69 -122zM359 191v68q-20 -17 -99 -30
q-89 -14 -91 -79q-1 -29 17.5 -46t47.5 -18q48 -1 86.5 28.5t38.5 76.5zM308 688l80 -102h-79l-45 57l-44 -57h-79l80 102h87zM77 644l-103 102h108l66 -102h-71z" />
    <glyph glyph-name="glyph289" unicode="&#x1ea8;" horiz-adv-x="722" 
d="M228 148l-50 -148h-158l256 718h173l253 -718h-163l-46 148h-265zM268 272h183l-89 284zM403 862l80 -102h-79l-45 57l-44 -57h-79l80 102h87zM537 800h-53q0 33 7 48.5t33 32.5t26 39q0 40 -39 40q-36 0 -43 -46h-56q0 43 26.5 68t69.5 25q44 0 71 -20q31 -23 31 -65
q0 -39 -48 -74q-23 -17 -25 -48z" />
    <glyph glyph-name="glyph290" unicode="&#x1ea9;" 
d="M496 392v-288q0 -72 31 -83v-21h-151q-8 27 -13 63q-32 -35 -62 -51q-47 -25 -110 -26q-72 -1 -117 41t-45 114q0 147 155 170l126 19q48 7 49 42q2 62 -92 62q-76 0 -86 -74h-135q11 110 84 154q52 31 154 32q87 1 143 -32q69 -40 69 -122zM359 191v68q-20 -17 -99 -30
q-89 -14 -91 -79q-1 -29 17.5 -46t47.5 -18q48 -1 86.5 28.5t38.5 76.5zM305 678l72 -92h-71l-41 51l-39 -51h-71l72 92h78zM425 622h-47q0 29 6.5 42.5t29.5 30t23 35.5q0 34 -35 36q-32 2 -39 -42h-50q0 38 24 61t62 23q90 0 92 -76q1 -36 -43 -67q-7 -5 -18 -17
q-3 -6 -5 -26z" />
    <glyph glyph-name="glyph291" unicode="&#x1eaa;" horiz-adv-x="722" 
d="M228 148l-50 -148h-158l256 718h173l253 -718h-163l-46 148h-265zM268 272h183l-89 284zM403 862l80 -102h-79l-45 57l-44 -57h-79l80 102h87zM444 963h45q-9 -82 -76 -84q-27 -1 -53 12q-39 14 -50 14q-15 0 -25 -12q-2 -3 -8 -18h-45q14 86 85 86q13 0 16 -1
q10 -1 37 -13t41 -12q15 0 23 7q5 6 10 21z" />
    <glyph glyph-name="glyph292" unicode="&#x1eab;" 
d="M496 392v-288q0 -72 31 -83v-21h-151q-8 27 -13 63q-32 -35 -62 -51q-47 -25 -110 -26q-72 -1 -117 41t-45 114q0 147 155 170l126 19q48 7 49 42q2 62 -92 62q-76 0 -86 -74h-135q11 110 84 154q52 31 154 32q87 1 143 -32q69 -40 69 -122zM359 191v68q-20 -17 -99 -30
q-89 -14 -91 -79q-1 -29 17.5 -46t47.5 -18q48 -1 86.5 28.5t38.5 76.5zM305 678l72 -92h-71l-41 52l-39 -52h-71l72 92h78zM342 769h40q-9 -74 -68 -76q-24 -1 -48 11q-39 13 -45 13q-20 0 -29 -27h-41q15 77 77 77q13 0 45 -13q20 -8 39 -10q24 0 30 25z" />
    <glyph glyph-name="glyph293" unicode="&#x1eac;" horiz-adv-x="722" 
d="M228 148l-50 -148h-158l256 718h173l253 -718h-163l-46 148h-265zM268 272h183l-89 284zM403 862l80 -102h-79l-45 57l-44 -57h-79l80 102h87zM405 -25v-81h-88v81h88z" />
    <glyph glyph-name="glyph294" unicode="&#x1ead;" 
d="M496 392v-288q0 -72 31 -83v-21h-151q-8 27 -13 63q-32 -35 -62 -51q-47 -25 -110 -26q-72 -1 -117 41t-45 114q0 147 155 170l126 19q48 7 49 42q2 62 -92 62q-76 0 -86 -74h-135q11 110 84 154q52 31 154 32q87 1 143 -32q69 -40 69 -122zM359 191v68q-20 -17 -99 -30
q-89 -14 -91 -79q-1 -29 17.5 -46t47.5 -18q48 -1 86.5 28.5t38.5 76.5zM304 676l72 -92h-71l-41 52l-39 -52h-72l72 92h79zM309 -39v-80h-88v80h88z" />
    <glyph glyph-name="glyph295" unicode="&#x1eae;" horiz-adv-x="722" 
d="M228 148l-50 -148h-158l256 718h173l253 -718h-163l-46 148h-265zM268 272h183l-89 284zM433 862h46q-8 -101 -125 -102q-107 -1 -111 102h46q10 -47 69 -49q63 -2 75 49zM498 970l-103 -102h-71l66 102h108z" />
    <glyph glyph-name="glyph296" unicode="&#x1eaf;" 
d="M496 392v-288q0 -72 31 -83v-21h-151q-8 27 -13 63q-32 -35 -62 -51q-47 -25 -110 -26q-72 -1 -117 41t-45 114q0 147 155 170l126 19q48 7 49 42q2 62 -92 62q-76 0 -86 -74h-135q11 110 84 154q52 31 154 32q87 1 143 -32q69 -40 69 -122zM359 191v68q-20 -17 -99 -30
q-89 -14 -91 -79q-1 -29 17.5 -46t47.5 -18q48 -1 86.5 28.5t38.5 76.5zM335 676h42q-8 -92 -113 -92q-44 0 -71 24.5t-29 67.5h42q7 -43 62 -44q58 -1 67 44zM394 773l-93 -92h-64l60 92h97z" />
    <glyph glyph-name="glyph297" unicode="&#x1eb0;" horiz-adv-x="722" 
d="M228 148l-50 -148h-158l256 718h173l253 -718h-163l-46 148h-265zM268 272h183l-89 284zM433 862h46q-8 -101 -125 -102q-107 -1 -111 102h46q10 -47 69 -49q63 -2 75 49zM325 867l-103 102h108l66 -102h-71z" />
    <glyph glyph-name="glyph298" unicode="&#x1eb1;" 
d="M496 392v-288q0 -72 31 -83v-21h-151q-8 27 -13 63q-32 -35 -62 -51q-47 -25 -110 -26q-72 -1 -117 41t-45 114q0 147 155 170l126 19q48 7 49 42q2 62 -92 62q-76 0 -86 -74h-135q11 110 84 154q52 31 154 32q87 1 143 -32q69 -40 69 -122zM359 191v68q-20 -17 -99 -30
q-89 -14 -91 -79q-1 -29 17.5 -46t47.5 -18q48 -1 86.5 28.5t38.5 76.5zM344 686h46q-8 -101 -125 -102q-107 -1 -111 102h46q10 -47 69 -49q63 -2 75 49zM236 691l-103 102h108l66 -102h-71z" />
    <glyph glyph-name="glyph299" unicode="&#x1eb2;" horiz-adv-x="722" 
d="M228 148l-50 -148h-158l256 718h173l253 -718h-163l-46 148h-265zM268 272h183l-89 284zM433 862h46q-8 -101 -125 -102q-107 -1 -111 102h46q10 -47 69 -49q63 -2 75 49zM386 859h-53q0 33 7 48.5t33 32.5t26 39q0 40 -39 40q-36 0 -43 -46h-56q0 43 26.5 68t69.5 25
q44 0 71 -20q31 -23 31 -65q0 -39 -48 -74q-23 -17 -25 -48z" />
    <glyph glyph-name="glyph300" unicode="&#x1eb3;" 
d="M496 392v-288q0 -72 31 -83v-21h-151q-8 27 -13 63q-32 -35 -62 -51q-47 -25 -110 -26q-72 -1 -117 41t-45 114q0 147 155 170l126 19q48 7 49 42q2 62 -92 62q-76 0 -86 -74h-135q11 110 84 154q52 31 154 32q87 1 143 -32q69 -40 69 -122zM359 191v68q-20 -17 -99 -30
q-89 -14 -91 -79q-1 -29 17.5 -46t47.5 -18q48 -1 86.5 28.5t38.5 76.5zM336 676h41q-8 -92 -112 -92q-44 0 -72 24.5t-28 67.5h41q11 -43 62 -44q58 -2 68 44zM293 674h-47q0 28 7 41.5t29.5 30t22.5 35.5q0 34 -35 36q-32 2 -39 -41h-50q0 38 24 61t62 23q90 0 92 -77
q1 -36 -43 -66q-20 -13 -23 -43z" />
    <glyph glyph-name="glyph301" unicode="&#x1eb4;" horiz-adv-x="722" 
d="M228 148l-50 -148h-158l256 718h173l253 -718h-163l-46 148h-265zM268 272h183l-89 284zM433 862h46q-8 -101 -125 -102q-107 -1 -111 102h46q10 -47 69 -49q63 -2 75 49zM550 961h45q-9 -82 -76 -84q-27 -1 -53 12q-39 14 -50 14q-15 0 -25 -12q-2 -3 -8 -18h-45
q14 86 85 86q13 0 16 -1q10 -1 37 -13t41 -12q15 0 23 7q5 6 10 21z" />
    <glyph glyph-name="glyph302" unicode="&#x1eb5;" 
d="M496 392v-288q0 -72 31 -83v-21h-151q-8 27 -13 63q-32 -35 -62 -51q-47 -25 -110 -26q-72 -1 -117 41t-45 114q0 147 155 170l126 19q48 7 49 42q2 62 -92 62q-76 0 -86 -74h-135q11 110 84 154q52 31 154 32q87 1 143 -32q69 -40 69 -122zM359 191v68q-20 -17 -99 -30
q-89 -14 -91 -79q-1 -29 17.5 -46t47.5 -18q48 -1 86.5 28.5t38.5 76.5zM336 676h41q0 -44 -33.5 -68t-78.5 -24q-44 0 -72 24.5t-28 67.5h41q11 -43 63 -44q59 -1 67 44zM441 765h41q-8 -74 -69 -76q-26 -1 -47 11q-39 13 -45 13q-22 0 -30 -27h-40q2 18 5 24q17 50 71 53
q9 1 24 -5q9 -2 21 -8q25 -8 40 -10q21 0 29 25z" />
    <glyph glyph-name="glyph303" unicode="&#x1eb6;" horiz-adv-x="722" 
d="M228 148l-50 -148h-158l256 718h173l253 -718h-163l-46 148h-265zM268 272h183l-89 284zM433 862h46q-8 -101 -125 -102q-107 -1 -111 102h46q10 -47 69 -49q63 -2 75 49zM405 -25v-81h-88v81h88z" />
    <glyph glyph-name="glyph304" unicode="&#x1eb7;" 
d="M496 392v-288q0 -72 31 -83v-21h-151q-8 27 -13 63q-32 -35 -62 -51q-47 -25 -110 -26q-72 -1 -117 41t-45 114q0 147 155 170l126 19q48 7 49 42q2 62 -92 62q-76 0 -86 -74h-135q11 110 84 154q52 31 154 32q87 1 143 -32q69 -40 69 -122zM359 191v68q-20 -17 -99 -30
q-89 -14 -91 -79q-1 -29 17.5 -46t47.5 -18q48 -1 86.5 28.5t38.5 76.5zM336 675h41q-4 -44 -35 -67.5t-77 -23.5q-43 0 -71.5 24.5t-28.5 66.5h41q11 -43 62 -44q58 -2 68 44zM309 -39v-80h-88v80h88z" />
    <glyph glyph-name="glyph305" unicode="&#x1eb8;" horiz-adv-x="667" 
d="M604 718v-127h-381v-151h350v-127h-350v-186h398v-127h-545v718h528zM385 -25v-81h-88v81h88z" />
    <glyph glyph-name="glyph306" unicode="&#x1eb9;" 
d="M378 156h144q-24 -83 -85.5 -126t-148.5 -44q-263 -2 -265 291q-1 88 40 158q64 111 215 111q129 0 193 -85q57 -75 57 -208v-25h-365q11 -130 125 -130q72 0 90 58zM167 319h217q-3 49 -31.5 80.5t-76.5 31.5q-97 0 -109 -112zM322 -49v-80h-88v80h88z" />
    <glyph glyph-name="glyph307" unicode="&#x1eba;" horiz-adv-x="667" 
d="M604 718v-127h-381v-151h350v-127h-350v-186h398v-127h-545v718h528zM367 763h-53q0 33 7 48.5t33 32.5t26 39q0 40 -39 40q-36 0 -43 -46h-56q0 43 26.5 68t69.5 25q44 0 71 -20q31 -23 31 -65q0 -39 -48 -74q-23 -17 -25 -48z" />
    <glyph glyph-name="glyph308" unicode="&#x1ebb;" 
d="M378 156h144q-24 -83 -85.5 -126t-148.5 -44q-263 -2 -265 291q-1 88 40 158q64 111 215 111q129 0 193 -85q57 -75 57 -208v-25h-365q11 -130 125 -130q72 0 90 58zM167 319h217q-3 49 -31.5 80.5t-76.5 31.5q-97 0 -109 -112zM301 586h-47q0 29 6.5 42.5t29.5 30
t23 35.5q0 34 -35 36q-32 2 -39 -42h-50q0 38 24 61t62 23q90 0 92 -76q1 -36 -43 -67q-7 -5 -18 -17q-3 -6 -5 -26z" />
    <glyph glyph-name="glyph309" unicode="&#x1ebc;" horiz-adv-x="667" 
d="M604 718v-127h-381v-151h350v-127h-350v-186h398v-127h-545v718h528zM423 859h45q-9 -82 -76 -84q-27 -1 -53 12q-39 14 -50 14q-15 0 -25 -12q-2 -3 -8 -18h-45q14 86 85 86q13 0 16 -1q10 -1 37 -13t41 -12q15 0 23 7q5 6 10 21z" />
    <glyph glyph-name="glyph310" unicode="&#x1ebd;" 
d="M378 156h144q-24 -83 -85.5 -126t-148.5 -44q-263 -2 -265 291q-1 88 40 158q64 111 215 111q129 0 193 -85q57 -75 57 -208v-25h-365q11 -130 125 -130q72 0 90 58zM167 319h217q-3 49 -31.5 80.5t-76.5 31.5q-97 0 -109 -112zM352 672h40q-9 -74 -68 -76q-24 -1 -48 11
q-39 13 -45 13q-20 0 -29 -27h-41q15 77 77 77q13 0 45 -13q20 -8 39 -10q24 0 30 25z" />
    <glyph glyph-name="glyph311" unicode="&#x1ebe;" horiz-adv-x="667" 
d="M604 718v-127h-381v-151h350v-127h-350v-186h398v-127h-545v718h528zM382 862l80 -102h-79l-45 57l-44 -57h-79l80 102h87zM630 920l-103 -102h-71l66 102h108z" />
    <glyph glyph-name="glyph312" unicode="&#x1ebf;" 
d="M378 156h144q-24 -83 -85.5 -126t-148.5 -44q-263 -2 -265 291q-1 88 40 158q64 111 215 111q129 0 193 -85q57 -75 57 -208v-25h-365q11 -130 125 -130q72 0 90 58zM167 319h217q-3 49 -31.5 80.5t-76.5 31.5q-97 0 -109 -112zM314 676l72 -92h-71l-41 52l-39 -52h-72
l72 92h79zM537 728l-93 -91h-64l60 91h97z" />
    <glyph glyph-name="glyph313" unicode="&#x1ec0;" horiz-adv-x="667" 
d="M604 718v-127h-381v-151h350v-127h-350v-186h398v-127h-545v718h528zM382 862l80 -102h-79l-45 57l-44 -57h-79l80 102h87zM151 818l-103 102h108l66 -102h-71z" />
    <glyph glyph-name="glyph314" unicode="&#x1ec1;" 
d="M378 156h144q-24 -83 -85.5 -126t-148.5 -44q-263 -2 -265 291q-1 88 40 158q64 111 215 111q129 0 193 -85q57 -75 57 -208v-25h-365q11 -130 125 -130q72 0 90 58zM167 319h217q-3 49 -31.5 80.5t-76.5 31.5q-97 0 -109 -112zM319 688l80 -102h-79l-45 57l-44 -57h-79
l80 102h87zM88 644l-103 102h108l66 -102h-71z" />
    <glyph glyph-name="glyph315" unicode="&#x1ec2;" horiz-adv-x="667" 
d="M604 718v-127h-381v-151h350v-127h-350v-186h398v-127h-545v718h528zM382 862l80 -102h-79l-45 57l-44 -57h-79l80 102h87zM516 800h-53q0 33 7 48.5t33 32.5t26 39q0 40 -39 40q-36 0 -43 -46h-56q0 43 26.5 68t69.5 25q44 0 71 -20q31 -23 31 -65q0 -39 -48 -74
q-23 -17 -25 -48z" />
    <glyph glyph-name="glyph316" unicode="&#x1ec3;" 
d="M378 156h144q-24 -83 -85.5 -126t-148.5 -44q-263 -2 -265 291q-1 88 40 158q64 111 215 111q129 0 193 -85q57 -75 57 -208v-25h-365q11 -130 125 -130q72 0 90 58zM167 319h217q-3 49 -31.5 80.5t-76.5 31.5q-97 0 -109 -112zM315 678l72 -92h-71l-41 51l-39 -51h-71
l72 92h78zM435 622h-47q0 29 6.5 42.5t29.5 30t23 35.5q0 34 -35 36q-32 2 -39 -42h-50q0 38 24 61t62 23q90 0 92 -76q1 -36 -43 -67q-7 -5 -18 -17q-3 -6 -5 -26z" />
    <glyph glyph-name="glyph317" unicode="&#x1ec4;" horiz-adv-x="667" 
d="M604 718v-127h-381v-151h350v-127h-350v-186h398v-127h-545v718h528zM383 862l80 -102h-79l-45 57l-44 -57h-79l80 102h87zM424 963h45q-9 -82 -76 -84q-27 -1 -53 12q-39 14 -50 14q-15 0 -25 -12q-2 -3 -8 -18h-45q14 86 85 86q13 0 16 -1q10 -1 37 -13t41 -12
q15 0 23 7q5 6 10 21z" />
    <glyph glyph-name="glyph318" unicode="&#x1ec5;" 
d="M378 156h144q-24 -83 -85.5 -126t-148.5 -44q-263 -2 -265 291q-1 88 40 158q64 111 215 111q129 0 193 -85q57 -75 57 -208v-25h-365q11 -130 125 -130q72 0 90 58zM167 319h217q-3 49 -31.5 80.5t-76.5 31.5q-97 0 -109 -112zM315 678l72 -92h-71l-41 52l-39 -52h-71
l72 92h78zM352 769h40q-9 -74 -68 -76q-24 -1 -48 11q-39 13 -45 13q-20 0 -29 -27h-41q15 77 77 77q13 0 45 -13q20 -8 39 -10q24 0 30 25z" />
    <glyph glyph-name="glyph319" unicode="&#x1ec6;" horiz-adv-x="667" 
d="M604 718v-127h-381v-151h350v-127h-350v-186h398v-127h-545v718h528zM383 862l80 -102h-79l-45 57l-44 -57h-79l80 102h87zM385 -25v-81h-88v81h88z" />
    <glyph glyph-name="glyph320" unicode="&#x1ec7;" 
d="M378 156h144q-24 -83 -85.5 -126t-148.5 -44q-263 -2 -265 291q-1 88 40 158q64 111 215 111q129 0 193 -85q57 -75 57 -208v-25h-365q11 -130 125 -130q72 0 90 58zM167 319h217q-3 49 -31.5 80.5t-76.5 31.5q-97 0 -109 -112zM315 676l72 -92h-71l-41 52l-39 -52h-72
l72 92h79zM322 -49v-80h-88v80h88z" />
    <glyph glyph-name="glyph321" unicode="&#x1ec8;" horiz-adv-x="278" 
d="M214 718v-718h-150v718h150zM167 760h-53q0 33 7 48.5t33 32.5t26 39q0 40 -39 40q-36 0 -43 -46h-56q0 43 26.5 68t69.5 25q44 0 71 -20q31 -23 31 -65q0 -39 -48 -74q-23 -17 -25 -48z" />
    <glyph glyph-name="glyph322" unicode="&#x1ec9;" horiz-adv-x="278" 
d="M69 532h140v-532h-140v532zM163 586h-47q0 29 6.5 42.5t29.5 30t23 35.5q0 34 -35 36q-32 2 -39 -42h-50q0 38 24 61t62 23q90 0 92 -76q1 -36 -43 -67q-7 -5 -18 -17q-3 -6 -5 -26z" />
    <glyph glyph-name="glyph323" unicode="&#x1eca;" horiz-adv-x="278" 
d="M214 718v-718h-150v718h150zM182 -25v-81h-88v81h88z" />
    <glyph glyph-name="glyph324" unicode="&#x1ecb;" horiz-adv-x="278" 
d="M69 532h140v-532h-140v532zM183 655v-80h-88v80h88zM185 -49v-80h-88v80h88z" />
    <glyph glyph-name="glyph325" unicode="&#x1ecc;" horiz-adv-x="778" 
d="M44 359q0 277 213 355q60 22 132 23q81 1 155.5 -33t120.5 -97q69 -95 69 -248q0 -277 -213 -355q-60 -22 -132 -23q-82 -1 -154 32q-76 34 -122 98q-69 95 -69 248zM194 359q-1 -106 43 -172q51 -78 152 -79q100 -1 151 78q43 67 44 173t-43 172q-51 78 -152 79
q-100 1 -151 -78q-43 -67 -44 -173zM433 -40v-81h-88v81h88z" />
    <glyph glyph-name="glyph326" unicode="&#x1ecd;" horiz-adv-x="611" 
d="M578 266q1 -128 -71.5 -203.5t-200.5 -76.5q-126 -1 -198.5 76t-73.5 204q-1 128 71.5 203.5t200.5 76.5q127 1 199 -75.5t73 -204.5zM434 266q0 161 -128 162t-128 -162q0 -161 128 -162t128 162zM349 -49v-80h-88v80h88z" />
    <glyph glyph-name="glyph327" unicode="&#x1ece;" horiz-adv-x="778" 
d="M44 359q0 277 213 355q60 22 132 23q81 1 155.5 -33t120.5 -97q69 -95 69 -248q0 -277 -213 -355q-60 -22 -132 -23q-82 -1 -154 32q-76 34 -122 98q-69 95 -69 248zM194 359q-1 -106 43 -172q51 -78 152 -79q100 -1 151 78q43 67 44 173t-43 172q-51 78 -152 79
q-100 1 -151 -78q-43 -67 -44 -173zM414 770h-53q0 33 7 48.5t33 32.5t26 39q0 40 -39 40q-36 0 -43 -46h-56q0 43 26.5 68t69.5 25q44 0 71 -20q31 -23 31 -65q0 -39 -48 -74q-23 -17 -25 -48z" />
    <glyph glyph-name="glyph328" unicode="&#x1ecf;" horiz-adv-x="611" 
d="M578 266q1 -128 -71.5 -203.5t-200.5 -76.5q-126 -1 -198.5 76t-73.5 204q-1 128 71.5 203.5t200.5 76.5q127 1 199 -75.5t73 -204.5zM434 266q0 161 -128 162t-128 -162q0 -161 128 -162t128 162zM328 586h-47q0 29 6.5 42.5t29.5 30t23 35.5q0 34 -35 36q-32 2 -39 -42
h-50q0 38 24 61t62 23q90 0 92 -76q1 -36 -43 -67q-7 -5 -18 -17q-3 -6 -5 -26z" />
    <glyph glyph-name="glyph329" unicode="&#x1ed0;" horiz-adv-x="778" 
d="M44 359q0 277 213 355q60 22 132 23q81 1 155.5 -33t120.5 -97q69 -95 69 -248q0 -277 -213 -355q-60 -22 -132 -23q-82 -1 -154 32q-76 34 -122 98q-69 95 -69 248zM194 359q-1 -106 43 -172q51 -78 152 -79q100 -1 151 78q43 67 44 173t-43 172q-51 78 -152 79
q-100 1 -151 -78q-43 -67 -44 -173zM430 869l80 -102h-79l-45 57l-44 -57h-79l80 102h87zM678 927l-103 -102h-71l66 102h108z" />
    <glyph glyph-name="glyph330" unicode="&#x1ed1;" horiz-adv-x="611" 
d="M578 266q1 -128 -71.5 -203.5t-200.5 -76.5q-126 -1 -198.5 76t-73.5 204q-1 128 71.5 203.5t200.5 76.5q127 1 199 -75.5t73 -204.5zM434 266q0 161 -128 162t-128 -162q0 -161 128 -162t128 162zM342 676l72 -92h-71l-41 52l-39 -52h-72l72 92h79zM565 728l-93 -91h-64
l60 91h97z" />
    <glyph glyph-name="glyph331" unicode="&#x1ed2;" horiz-adv-x="778" 
d="M44 359q0 277 213 355q60 22 132 23q81 1 155.5 -33t120.5 -97q69 -95 69 -248q0 -277 -213 -355q-60 -22 -132 -23q-82 -1 -154 32q-76 34 -122 98q-69 95 -69 248zM194 359q-1 -106 43 -172q51 -78 152 -79q100 -1 151 78q43 67 44 173t-43 172q-51 78 -152 79
q-100 1 -151 -78q-43 -67 -44 -173zM432 869l80 -102h-79l-45 57l-44 -57h-79l80 102h87zM201 825l-103 102h108l66 -102h-71z" />
    <glyph glyph-name="glyph332" unicode="&#x1ed3;" horiz-adv-x="611" 
d="M578 266q1 -128 -71.5 -203.5t-200.5 -76.5q-126 -1 -198.5 76t-73.5 204q-1 128 71.5 203.5t200.5 76.5q127 1 199 -75.5t73 -204.5zM434 266q0 161 -128 162t-128 -162q0 -161 128 -162t128 162zM347 688l80 -102h-79l-45 57l-44 -57h-79l80 102h87zM116 644l-103 102
h108l66 -102h-71z" />
    <glyph glyph-name="glyph333" unicode="&#x1ed4;" horiz-adv-x="778" 
d="M44 359q0 277 213 355q60 22 132 23q81 1 155.5 -33t120.5 -97q69 -95 69 -248q0 -277 -213 -355q-60 -22 -132 -23q-82 -1 -154 32q-76 34 -122 98q-69 95 -69 248zM194 359q-1 -106 43 -172q51 -78 152 -79q100 -1 151 78q43 67 44 173t-43 172q-51 78 -152 79
q-100 1 -151 -78q-43 -67 -44 -173zM431 869l80 -102h-79l-45 57l-44 -57h-79l80 102h87zM565 807h-53q0 33 7 48.5t33 32.5t26 39q0 40 -39 40q-36 0 -43 -46h-56q0 43 26.5 68t69.5 25q44 0 71 -20q31 -23 31 -65q0 -39 -48 -74q-23 -17 -25 -48z" />
    <glyph glyph-name="glyph334" unicode="&#x1ed5;" horiz-adv-x="611" 
d="M578 266q1 -128 -71.5 -203.5t-200.5 -76.5q-126 -1 -198.5 76t-73.5 204q-1 128 71.5 203.5t200.5 76.5q127 1 199 -75.5t73 -204.5zM434 266q0 161 -128 162t-128 -162q0 -161 128 -162t128 162zM342 678l72 -92h-71l-41 51l-39 -51h-71l72 92h78zM462 622h-47
q0 29 6.5 42.5t29.5 30t23 35.5q0 34 -35 36q-32 2 -39 -42h-50q0 38 24 61t62 23q90 0 92 -76q1 -36 -43 -67q-7 -5 -18 -17q-3 -6 -5 -26z" />
    <glyph glyph-name="glyph335" unicode="&#x1ed6;" horiz-adv-x="778" 
d="M44 359q0 277 213 355q60 22 132 23q81 1 155.5 -33t120.5 -97q69 -95 69 -248q0 -277 -213 -355q-60 -22 -132 -23q-82 -1 -154 32q-76 34 -122 98q-69 95 -69 248zM194 359q-1 -106 43 -172q51 -78 152 -79q100 -1 151 78q43 67 44 173t-43 172q-51 78 -152 79
q-100 1 -151 -78q-43 -67 -44 -173zM430 869l80 -102h-79l-45 57l-44 -57h-79l80 102h87zM471 970h45q-9 -82 -76 -84q-27 -1 -53 12q-39 14 -50 14q-15 0 -25 -12q-2 -3 -8 -18h-45q14 86 85 86q13 0 16 -1q10 -1 37 -13t41 -12q15 0 23 7q5 6 10 21z" />
    <glyph glyph-name="glyph336" unicode="&#x1ed7;" horiz-adv-x="611" 
d="M578 266q1 -128 -71.5 -203.5t-200.5 -76.5q-126 -1 -198.5 76t-73.5 204q-1 128 71.5 203.5t200.5 76.5q127 1 199 -75.5t73 -204.5zM434 266q0 161 -128 162t-128 -162q0 -161 128 -162t128 162zM342 678l72 -92h-71l-41 52l-39 -52h-71l72 92h78zM379 769h40
q-9 -74 -68 -76q-24 -1 -48 11q-39 13 -45 13q-20 0 -29 -27h-41q15 77 77 77q13 0 45 -13q20 -8 39 -10q24 0 30 25z" />
    <glyph glyph-name="glyph337" unicode="&#x1ed8;" horiz-adv-x="778" 
d="M44 359q0 277 213 355q60 22 132 23q81 1 155.5 -33t120.5 -97q69 -95 69 -248q0 -277 -213 -355q-60 -22 -132 -23q-82 -1 -154 32q-76 34 -122 98q-69 95 -69 248zM194 359q-1 -106 43 -172q51 -78 152 -79q100 -1 151 78q43 67 44 173t-43 172q-51 78 -152 79
q-100 1 -151 -78q-43 -67 -44 -173zM430 869l80 -102h-79l-45 57l-44 -57h-79l80 102h87zM433 -40v-81h-88v81h88z" />
    <glyph glyph-name="glyph338" unicode="&#x1ed9;" horiz-adv-x="611" 
d="M578 266q1 -128 -71.5 -203.5t-200.5 -76.5q-126 -1 -198.5 76t-73.5 204q-1 128 71.5 203.5t200.5 76.5q127 1 199 -75.5t73 -204.5zM434 266q0 161 -128 162t-128 -162q0 -161 128 -162t128 162zM342 676l72 -92h-71l-41 52l-39 -52h-72l72 92h79zM349 -49v-80h-88v80
h88z" />
    <glyph glyph-name="glyph339" unicode="&#x1eda;" horiz-adv-x="778" 
d="M194 359q-1 -106 43 -172q51 -78 152 -79q100 -1 151 78q43 67 44 173t-43 172q-51 78 -152 79q-100 1 -151 -78q-43 -67 -44 -173zM609 665q124 -94 125 -306q2 -277 -213 -355q-61 -22 -132 -23q-82 -1 -154 32q-76 34 -122 98q-69 95 -69 248q0 277 213 355
q61 22 132 23q108 1 197 -55q38 13 38 52h-38v65h68v-56q0 -57 -45 -78zM526 881l-103 -102h-71l66 102h108z" />
    <glyph glyph-name="glyph340" unicode="&#x1edb;" horiz-adv-x="611" 
d="M434 266q0 161 -128 162t-128 -162q0 -161 128 -162t128 162zM452 510q21 8 24 42h-33v58h60v-50q0 -26 -8 -39q-6 -16 -23 -24q105 -76 106 -231q1 -128 -71.5 -203.5t-200.5 -76.5q-126 -1 -198.5 76t-73.5 204q-1 128 71.5 203.5t200.5 76.5q79 1 146 -36zM430 682
l-93 -91h-64l60 91h97z" />
    <glyph glyph-name="glyph341" unicode="&#x1edc;" horiz-adv-x="778" 
d="M194 359q-1 -106 43 -172q51 -78 152 -79q100 -1 151 78q43 67 44 173t-43 172q-51 78 -152 79q-100 1 -151 -78q-43 -67 -44 -173zM609 665q124 -94 125 -306q2 -277 -213 -355q-61 -22 -132 -23q-82 -1 -154 32q-76 34 -122 98q-69 95 -69 248q0 277 213 355
q61 22 132 23q108 1 197 -55q38 13 38 52h-38v65h68v-56q0 -57 -45 -78zM350 779l-103 102h108l66 -102h-71z" />
    <glyph glyph-name="glyph342" unicode="&#x1edd;" horiz-adv-x="611" 
d="M434 266q0 161 -128 162t-128 -162q0 -161 128 -162t128 162zM452 510q21 8 24 42h-33v58h60v-50q0 -26 -8 -39q-6 -16 -23 -24q105 -76 106 -231q1 -128 -71.5 -203.5t-200.5 -76.5q-126 -1 -198.5 76t-73.5 204q-1 128 71.5 203.5t200.5 76.5q79 1 146 -36zM271 591
l-103 102h108l66 -102h-71z" />
    <glyph glyph-name="glyph343" unicode="&#x1ede;" horiz-adv-x="778" 
d="M194 359q-1 -106 43 -172q51 -78 152 -79q100 -1 151 78q43 67 44 173t-43 172q-51 78 -152 79q-100 1 -151 -78q-43 -67 -44 -173zM609 665q124 -94 125 -306q2 -277 -213 -355q-61 -22 -132 -23q-82 -1 -154 32q-76 34 -122 98q-69 95 -69 248q0 277 213 355
q61 22 132 23q108 1 197 -55q38 13 38 52h-38v65h68v-56q0 -57 -45 -78zM414 773h-53q0 33 7 48.5t33 32.5t26 39q0 40 -39 40q-36 0 -43 -46h-56q0 43 26.5 68t69.5 25q44 0 71 -20q31 -23 31 -65q0 -39 -48 -74q-23 -17 -25 -48z" />
    <glyph glyph-name="glyph344" unicode="&#x1edf;" horiz-adv-x="611" 
d="M434 266q0 161 -128 162t-128 -162q0 -161 128 -162t128 162zM452 510q21 8 24 42h-33v58h60v-50q0 -26 -8 -39q-6 -16 -23 -24q105 -76 106 -231q1 -128 -71.5 -203.5t-200.5 -76.5q-126 -1 -198.5 76t-73.5 204q-1 128 71.5 203.5t200.5 76.5q79 1 146 -36zM328 591
h-47q0 29 6.5 42.5t29.5 30t23 35.5q0 34 -35 36q-32 2 -39 -42h-50q0 38 24 61t62 23q90 0 92 -76q1 -36 -43 -67q-7 -5 -18 -17q-3 -6 -5 -26z" />
    <glyph glyph-name="glyph345" unicode="&#x1ee0;" horiz-adv-x="778" 
d="M194 359q-1 -106 43 -172q51 -78 152 -79q100 -1 151 78q43 67 44 173t-43 172q-51 78 -152 79q-100 1 -151 -78q-43 -67 -44 -173zM609 665q124 -94 125 -306q2 -277 -213 -355q-61 -22 -132 -23q-82 -1 -154 32q-76 34 -122 98q-69 95 -69 248q0 277 213 355
q61 22 132 23q108 1 197 -55q38 13 38 52h-38v65h68v-56q0 -57 -45 -78zM471 871h45q-9 -82 -76 -84q-27 -1 -53 12q-39 14 -50 14q-15 0 -25 -12q-2 -3 -8 -18h-45q14 86 85 86q13 0 16 -1q10 -1 37 -13t41 -12q15 0 23 7q5 6 10 21z" />
    <glyph glyph-name="glyph346" unicode="&#x1ee1;" horiz-adv-x="611" 
d="M434 266q0 161 -128 162t-128 -162q0 -161 128 -162t128 162zM452 510q21 8 24 42h-33v58h60v-50q0 -26 -8 -39q-6 -16 -23 -24q105 -76 106 -231q1 -128 -71.5 -203.5t-200.5 -76.5q-126 -1 -198.5 76t-73.5 204q-1 128 71.5 203.5t200.5 76.5q79 1 146 -36zM381 677h40
q-9 -74 -68 -76q-24 -1 -48 11q-39 13 -45 13q-20 0 -29 -27h-41q15 77 77 77q13 0 45 -13q20 -8 39 -10q24 0 30 25z" />
    <glyph glyph-name="glyph347" unicode="&#x1ee2;" horiz-adv-x="778" 
d="M194 359q-1 -106 43 -172q51 -78 152 -79q100 -1 151 78q43 67 44 173t-43 172q-51 78 -152 79q-100 1 -151 -78q-43 -67 -44 -173zM609 665q124 -94 125 -306q2 -277 -213 -355q-61 -22 -132 -23q-82 -1 -154 32q-76 34 -122 98q-69 95 -69 248q0 277 213 355
q61 22 132 23q108 1 197 -55q38 13 38 52h-38v65h68v-56q0 -57 -45 -78zM433 -40v-81h-88v81h88z" />
    <glyph glyph-name="glyph348" unicode="&#x1ee3;" horiz-adv-x="611" 
d="M434 266q0 161 -128 162t-128 -162q0 -161 128 -162t128 162zM452 510q21 8 24 42h-33v58h60v-50q0 -26 -8 -39q-6 -16 -23 -24q105 -76 106 -231q1 -128 -71.5 -203.5t-200.5 -76.5q-126 -1 -198.5 76t-73.5 204q-1 128 71.5 203.5t200.5 76.5q79 1 146 -36zM349 -49
v-80h-88v80h88z" />
    <glyph glyph-name="glyph349" unicode="&#x1ee4;" horiz-adv-x="722" 
d="M651 718v-467q0 -268 -295 -270q-130 -1 -205 64q-79 68 -79 197v476h153v-466q0 -65 31 -103q33 -41 97 -41q145 0 145 137v473h153zM408 -40v-81h-88v81h88z" />
    <glyph glyph-name="glyph350" unicode="&#x1ee5;" horiz-adv-x="611" 
d="M545 532v-532h-134v75q-52 -88 -164 -89q-89 -1 -136 54q-45 52 -45 142v350h140v-330q0 -98 91 -98q108 0 108 121v307h140zM349 -39v-80h-88v80h88z" />
    <glyph glyph-name="glyph351" unicode="&#x1ee6;" horiz-adv-x="722" 
d="M651 718v-467q0 -268 -295 -270q-130 -1 -205 64q-79 68 -79 197v476h153v-466q0 -65 31 -103q33 -41 97 -41q145 0 145 137v473h153zM380 740h-53q0 33 7 48.5t33 32.5t26 39q0 40 -39 40q-36 0 -43 -46h-56q0 43 26.5 68t69.5 25q44 0 71 -20q31 -23 31 -65
q0 -39 -48 -74q-23 -17 -25 -48z" />
    <glyph glyph-name="glyph352" unicode="&#x1ee7;" horiz-adv-x="611" 
d="M545 532v-532h-134v75q-52 -88 -164 -89q-89 -1 -136 54q-45 52 -45 142v350h140v-330q0 -98 91 -98q108 0 108 121v307h140zM328 576h-47q0 29 6.5 42.5t29.5 30t23 35.5q0 34 -35 36q-32 2 -39 -42h-50q0 38 24 61t62 23q90 0 92 -76q1 -36 -43 -67q-7 -5 -18 -17
q-3 -6 -5 -26z" />
    <glyph glyph-name="glyph353" unicode="&#x1ee8;" horiz-adv-x="722" 
d="M651 673v-422q0 -268 -295 -270q-130 -1 -205 64q-79 68 -79 197v476h153v-466q0 -65 31 -103q33 -41 97 -41q145 0 145 137v473h152l2 16h-38v65h68v-56q0 -50 -31 -70zM501 868l-103 -102h-71l66 102h108z" />
    <glyph glyph-name="glyph354" unicode="&#x1ee9;" horiz-adv-x="611" 
d="M545 496v-496h-134v75q-52 -88 -164 -89q-89 -1 -136 54q-45 52 -45 142v350h140v-330q0 -98 91 -98q108 0 108 121v307h140l4 20h-33v58h60v-50q0 -47 -31 -64zM430 677l-93 -91h-64l60 91h97z" />
    <glyph glyph-name="glyph355" unicode="&#x1eea;" horiz-adv-x="722" 
d="M651 673v-422q0 -268 -295 -270q-130 -1 -205 64q-79 68 -79 197v476h153v-466q0 -65 31 -103q33 -41 97 -41q145 0 145 137v473h152l2 16h-38v65h68v-56q0 -50 -31 -70zM331 766l-103 102h108l66 -102h-71z" />
    <glyph glyph-name="glyph356" unicode="&#x1eeb;" horiz-adv-x="611" 
d="M545 496v-496h-134v75q-52 -88 -164 -89q-89 -1 -136 54q-45 52 -45 142v350h140v-330q0 -98 91 -98q108 0 108 121v307h140l4 20h-33v58h60v-50q0 -47 -31 -64zM270 586l-103 102h108l66 -102h-71z" />
    <glyph glyph-name="glyph357" unicode="&#x1eec;" horiz-adv-x="722" 
d="M651 673v-422q0 -268 -295 -270q-130 -1 -205 64q-79 68 -79 197v476h153v-466q0 -65 31 -103q33 -41 97 -41q145 0 145 137v473h152l2 16h-38v65h68v-56q0 -50 -31 -70zM386 760h-53q0 33 7 48.5t33 32.5t26 39q0 40 -39 40q-36 0 -43 -46h-56q0 43 26.5 68t69.5 25
q44 0 71 -20q31 -23 31 -65q0 -39 -48 -74q-23 -17 -25 -48z" />
    <glyph glyph-name="glyph358" unicode="&#x1eed;" horiz-adv-x="611" 
d="M545 496v-496h-134v75q-52 -88 -164 -89q-89 -1 -136 54q-45 52 -45 142v350h140v-330q0 -98 91 -98q108 0 108 121v307h140l4 20h-33v58h60v-50q0 -47 -31 -64zM328 586h-47q0 29 6.5 42.5t29.5 30t23 35.5q0 34 -35 36q-32 2 -39 -42h-50q0 38 24 61t62 23q90 0 92 -76
q1 -36 -43 -67q-7 -5 -18 -17q-3 -6 -5 -26z" />
    <glyph glyph-name="glyph359" unicode="&#x1eee;" horiz-adv-x="722" 
d="M651 673v-422q0 -268 -295 -270q-130 -1 -205 64q-79 68 -79 197v476h153v-466q0 -65 31 -103q33 -41 97 -41q145 0 145 137v473h152l2 16h-38v65h68v-56q0 -50 -31 -70zM448 854h45q-9 -82 -76 -84q-27 -1 -53 12q-39 14 -50 14q-15 0 -25 -12q-2 -3 -8 -18h-45
q14 86 85 86q13 0 16 -1q10 -1 37 -13t41 -12q15 0 23 7q5 6 10 21z" />
    <glyph glyph-name="glyph360" unicode="&#x1eef;" horiz-adv-x="611" 
d="M545 496v-496h-134v75q-52 -88 -164 -89q-89 -1 -136 54q-45 52 -45 142v350h140v-330q0 -98 91 -98q108 0 108 121v307h140l4 20h-33v58h60v-50q0 -47 -31 -64zM382 672h40q-9 -74 -68 -76q-24 -1 -48 11q-39 13 -45 13q-20 0 -29 -27h-41q15 77 77 77q13 0 45 -13
q20 -8 39 -10q24 0 30 25z" />
    <glyph glyph-name="glyph361" unicode="&#x1ef0;" horiz-adv-x="722" 
d="M651 673v-422q0 -268 -295 -270q-130 -1 -205 64q-79 68 -79 197v476h153v-466q0 -65 31 -103q33 -41 97 -41q145 0 145 137v473h152l2 16h-38v65h68v-56q0 -50 -31 -70zM408 -40v-81h-88v81h88z" />
    <glyph glyph-name="glyph362" unicode="&#x1ef1;" horiz-adv-x="611" 
d="M545 496v-496h-134v75q-52 -88 -164 -89q-89 -1 -136 54q-45 52 -45 142v350h140v-330q0 -98 91 -98q108 0 108 121v307h140l4 20h-33v58h60v-50q0 -47 -31 -64zM349 -39v-80h-88v80h88z" />
    <glyph glyph-name="glyph363" unicode="&#x1ef2;" horiz-adv-x="667" 
d="M413 269v-269h-150v271l-248 447h177l149 -312l142 312h170zM308 759l-103 102h108l66 -102h-71z" />
    <glyph glyph-name="glyph364" unicode="&#x1ef3;" 
d="M539 532l-183 -523q-54 -154 -83 -186q-36 -40 -123 -37l-63 2v112l27 -2q44 -3 65 17q18 18 27 63l-196 554h156l114 -392l111 392h148zM248 576l-103 102h108l66 -102h-71z" />
    <glyph glyph-name="glyph365" unicode="&#x1ef4;" horiz-adv-x="667" 
d="M413 269v-269h-150v271l-248 447h177l149 -312l142 312h170zM383 -25v-81h-88v81h88z" />
    <glyph glyph-name="glyph366" unicode="&#x1ef5;" 
d="M539 532l-183 -523q-54 -154 -83 -186q-36 -40 -123 -37l-63 2v112l27 -2q44 -3 65 17q18 18 27 63l-196 554h156l114 -392l111 392h148zM441 -49v-80h-88v80h88z" />
    <glyph glyph-name="glyph367" unicode="&#x1ef6;" horiz-adv-x="667" 
d="M413 269v-269h-150v271l-248 447h177l149 -312l142 312h170zM370 750h-53q0 33 7 48.5t33 32.5t26 39q0 40 -39 40q-36 0 -43 -46h-56q0 43 26.5 68t69.5 25q44 0 71 -20q31 -23 31 -65q0 -39 -48 -74q-23 -17 -25 -48z" />
    <glyph glyph-name="glyph368" unicode="&#x1ef7;" 
d="M539 532l-183 -523q-54 -154 -83 -186q-36 -40 -123 -37l-63 2v112l27 -2q44 -3 65 17q18 18 27 63l-196 554h156l114 -392l111 392h148zM307 576h-47q0 29 6.5 42.5t29.5 30t23 35.5q0 34 -35 36q-32 2 -39 -42h-50q0 38 24 61t62 23q90 0 92 -76q1 -36 -43 -67
q-7 -5 -18 -17q-3 -6 -5 -26z" />
    <glyph glyph-name="glyph369" unicode="&#x1ef8;" horiz-adv-x="667" 
d="M413 269v-269h-150v271l-248 447h177l149 -312l142 312h170zM422 854h45q-9 -82 -76 -84q-27 -1 -53 12q-39 14 -50 14q-15 0 -25 -12q-2 -3 -8 -18h-45q14 86 85 86q13 0 16 -1q10 -1 37 -13t41 -12q15 0 23 7q5 6 10 21z" />
    <glyph glyph-name="glyph370" unicode="&#x1ef9;" 
d="M539 532l-183 -523q-54 -154 -83 -186q-36 -40 -123 -37l-63 2v112l27 -2q44 -3 65 17q18 18 27 63l-196 554h156l114 -392l111 392h148zM351 665h40q-9 -74 -68 -76q-24 -1 -48 11q-39 13 -45 13q-20 0 -29 -27h-41q15 77 77 77q13 0 45 -13q20 -8 39 -10q24 0 30 25z
" />
    <glyph glyph-name="endash" unicode="&#x2013;" 
d="M556 333v-106h-556v106h556z" />
    <glyph glyph-name="emdash" unicode="&#x2014;" horiz-adv-x="1000" 
d="M1000 333v-106h-1000v106h1000z" />
    <glyph glyph-name="quoteleft" unicode="&#x2018;" horiz-adv-x="278" 
d="M209 581v-127h-140v102q0 142 137 171v-51q-39 -12 -55.5 -33t-18.5 -62h77z" />
    <glyph glyph-name="quoteright" unicode="&#x2019;" horiz-adv-x="278" 
d="M69 591v127h140v-102q0 -142 -137 -171v51q39 12 55.5 33t18.5 62h-77z" />
    <glyph glyph-name="quotesinglbase" unicode="&#x201a;" horiz-adv-x="278" 
d="M69 0v127h140v-102q0 -142 -137 -171v51q39 12 55.5 33t18.5 62h-77z" />
    <glyph glyph-name="quotedblleft" unicode="&#x201c;" horiz-adv-x="500" 
d="M204 581v-127h-140v102q0 142 137 171v-51q-39 -12 -55.5 -33t-18.5 -62h77zM436 581v-127h-140v102q0 142 137 171v-51q-39 -12 -55.5 -33t-18.5 -62h77z" />
    <glyph glyph-name="quotedblright" unicode="&#x201d;" horiz-adv-x="500" 
d="M64 591v127h140v-102q0 -142 -137 -171v51q39 12 55.5 33t18.5 62h-77zM296 591v127h140v-102q0 -142 -137 -171v51q39 12 55.5 33t18.5 62h-77z" />
    <glyph glyph-name="quotedblbase" unicode="&#x201e;" horiz-adv-x="500" 
d="M64 0v127h140v-102q0 -142 -137 -171v51q39 12 55.5 33t18.5 62h-77zM296 0v127h140v-102q0 -142 -137 -171v51q39 12 55.5 33t18.5 62h-77z" />
    <glyph glyph-name="dagger" unicode="&#x2020;" 
d="M520 499v-112h-175v-558h-134v558h-175v112h175v219h134v-219h175z" />
    <glyph glyph-name="daggerdbl" unicode="&#x2021;" 
d="M520 509v-112h-176v-239h176v-112h-176v-217h-134v217h-174v112h174v239h-174v112h174v209h134v-209h176z" />
    <glyph glyph-name="bullet" unicode="&#x2022;" horiz-adv-x="350" 
d="M10 360q0 69 48 116.5t117 47.5t117 -47.5t48 -116.5t-48 -117.5t-117 -48.5q-70 0 -117.5 48t-47.5 118z" />
    <glyph glyph-name="ellipsis" unicode="&#x2026;" horiz-adv-x="1000" 
d="M242 146v-146h-150v146h150zM575 146v-146h-150v146h150zM908 146v-146h-150v146h150z" />
    <glyph glyph-name="perthousand" unicode="&#x2030;" horiz-adv-x="1000" 
d="M316 149q0 67 47 114t114 47q66 0 113.5 -47.5t47.5 -113.5q0 -67 -47 -114t-114 -47t-114 47t-47 114zM416 149q0 -26 17.5 -43.5t43.5 -17.5t43.5 17.5t17.5 43.5t-17.5 43.5t-43.5 17.5t-43.5 -17.5t-17.5 -43.5zM681 149q0 67 47 114t114 47q66 0 113.5 -47.5
t47.5 -113.5q0 -67 -47 -114t-114 -47t-114 47t-47 114zM781 149q0 -26 17.5 -43.5t43.5 -17.5t43.5 17.5t17.5 43.5t-17.5 43.5t-43.5 17.5t-43.5 -17.5t-17.5 -43.5zM-3 549q0 67 47 114t114 47q66 0 113.5 -47.5t47.5 -113.5q0 -67 -47 -114t-114 -47t-114 47t-47 114z
M97 549q0 -26 17.5 -43.5t43.5 -17.5t43.5 17.5t17.5 43.5t-17.5 43.5t-43.5 17.5t-43.5 -17.5t-17.5 -43.5zM80 -19l398 729h74l-398 -729h-74z" />
    <glyph glyph-name="guilsinglleft" unicode="&#x2039;" horiz-adv-x="333" 
d="M250 484v-116l-100 -88l100 -88v-116l-167 144v120z" />
    <glyph glyph-name="guilsinglright" unicode="&#x203a;" horiz-adv-x="333" 
d="M183 280l-100 88v116l167 -144v-120l-167 -144v116z" />
    <glyph glyph-name="fraction" unicode="&#x2044;" horiz-adv-x="167" 
d="M336 710l-427 -729h-79l428 729h78z" />
    <glyph glyph-name="franc" unicode="&#x20a3;" horiz-adv-x="1035" 
d="M226 302v-302h-150v718h511v-127h-361v-162h316v-127h-316zM716 0v532h134v-92h2q28 52 52 73q37 33 94 33q9 0 27 -2v-142q-12 2 -40 2q-129 0 -129 -127v-277h-140z" />
    <glyph glyph-name="u20AB" unicode="&#x20ab;" horiz-adv-x="393" 
d="M197 501q-48 0 -84 -88q-20 -49 -20 -90q0 -51 39 -51q41 0 74 71q28 60 28 107q0 51 -37 51zM200 267q-53 -62 -106 -62q-91 0 -91 102q0 82 54 153q58 78 137 78q34 0 61 -24l20 75h-100l10 36h100l2 16q0 31 -48 32l7 33q68 2 128 14l15 3q6 0 6 -9l-3 -12l-19 -77h65
l-10 -36h-65l-69 -280q-5 -20 -5 -27q0 -15 12 -15q6 0 49 42l20 -18q-70 -86 -117 -86q-43 0 -53 62zM9 160h221v-56h-221v56z" />
    <glyph glyph-name="trademark" unicode="&#x2122;" horiz-adv-x="1000" 
d="M616 718l94 -250l93 250h153v-412h-106v281h-2l-98 -281h-81l-98 281h-2v-281h-106v412h153zM385 718v-85h-115v-327h-112v327h-114v85h341z" />
    <glyph glyph-name="minus" unicode="&#x2212;" horiz-adv-x="584" 
d="M544 197h-504v112h504v-112z" />
    <glyph glyph-name="SF370000" unicode="&#x255f;" horiz-adv-x="718" 
d="M228 148l-50 -148h-158l256 718h173l253 -718h-163l-46 148h-265zM360 556l-92 -284h183l-89 284h-2z" />
    <glyph glyph-name="SF420000" unicode="&#x2560;" horiz-adv-x="681" 
d="M604 718v-127h-381v-151h350v-127h-350v-186h398v-127h-545v718h528z" />
    <glyph glyph-name="SF190000" unicode="&#x2561;" horiz-adv-x="429" 
d="M214 718v-718h-150v718h150z" />
    <glyph glyph-name="SF200000" unicode="&#x2562;" horiz-adv-x="773" 
d="M44 359q0 219 137 315q90 63 208 63t208 -63q137 -96 137 -315t-137 -315q-90 -63 -208 -63t-208 63q-137 96 -137 315zM194 359q0 -106 43 -172q52 -79 152 -79t152 79q43 66 43 172t-43 172q-52 79 -152 79t-152 -79q-43 -66 -43 -172z" />
    <glyph glyph-name="SF230000" unicode="&#x2563;" horiz-adv-x="811" 
d="M651 718v-467q0 -270 -295 -270q-131 0 -205 64q-79 68 -79 197v476h153v-466q0 -63 32 -102q34 -42 96 -42q145 0 145 137v473h153z" />
    <glyph glyph-name="SF470000" unicode="&#x2564;" horiz-adv-x="699" 
d="M413 269v-269h-150v271l-248 447h177l149 -312l142 312h170z" />
    <glyph glyph-name="SF480000" unicode="&#x2565;" horiz-adv-x="541" 
d="M496 392v-288q0 -72 31 -83v-21h-151q-10 30 -13 63q-75 -77 -172 -77q-73 0 -117.5 41.5t-44.5 113.5q0 147 155 170l126 19q49 7 49 42q0 62 -92 62q-76 0 -86 -74h-135q10 103 74 147q56 39 164 39q87 0 143 -33q69 -40 69 -121zM359 191v68q-22 -17 -95 -29
q-46 -8 -66 -21q-29 -19 -29 -59q0 -29 18 -46.5t47 -17.5q50 0 87.5 28.5t37.5 76.5z" />
    <glyph glyph-name="SF410000" unicode="&#x2566;" horiz-adv-x="431" 
d="M378 156h144q-24 -82 -86 -126t-148 -44q-265 0 -265 291q0 91 40 159q65 110 215 110q129 0 193 -85q57 -75 57 -208v-25h-365q12 -130 125 -130q73 0 90 58zM167 319h217q-4 49 -32 80.5t-76 31.5q-96 0 -109 -112z" />
    <glyph glyph-name="SF450000" unicode="&#x2567;" horiz-adv-x="314" 
d="M69 532h140v-532h-140v532zM209 725v-130h-140v130h140z" />
    <glyph glyph-name="SF460000" unicode="&#x2568;" horiz-adv-x="314" 
d="M69 532h140v-532h-140v532z" />
    <glyph glyph-name="SF400000" unicode="&#x2569;" horiz-adv-x="498" 
d="M578 266q0 -127 -72.5 -203.5t-199.5 -76.5t-199.5 76.5t-72.5 203.5t72.5 203.5t199.5 76.5t199.5 -76.5t72.5 -203.5zM434 266q0 162 -128 162t-128 -162t128 -162t128 162z" />
    <glyph glyph-name="SF540000" unicode="&#x256a;" horiz-adv-x="557" 
d="M545 532v-532h-134v75h-2q-50 -89 -162 -89q-89 0 -135 53t-46 143v350h140v-330q0 -98 91 -98q52 0 80 34t28 87v307h140z" />
    <glyph glyph-name="SF530000" unicode="&#x256b;" horiz-adv-x="497" 
d="M539 532l-183 -523q-53 -151 -83 -185q-34 -38 -123 -38q-23 0 -63 2v112q12 -2 27 -2q45 0 64.5 17t27.5 63l-196 554h156l114 -392h2l109 392h148z" />
    <glyph glyph-name="circle" unicode="&#x25cb;" horiz-adv-x="718" 
d="M457 982l114 -146h-113l-64 82l-63 -82h-113l114 146h125zM558 1170l-147 -146h-101l94 146h154z" />
    <glyph glyph-name="H18533" unicode="&#x25cf;" horiz-adv-x="718" 
d="M457 982l114 -146h-113l-64 82l-63 -82h-113l114 146h125zM435 1025l-147 146h154l94 -146h-101z" />
    <glyph glyph-name="invbullet" unicode="&#x25d8;" horiz-adv-x="718" 
d="M457 982l114 -146h-113l-64 82l-63 -82h-113l114 146h125zM614 903q9 27 11 64q1 11 8 13q3 0 8 1q67 11 67 54q0 35 -28 35q-5 0 -14 -1t-14 -1q-21 0 -21 18q0 28 32 28q47 0 76.5 -25t25.5 -71q-6 -59 -87 -81q-25 -7 -31 -34h-33z" />
    <glyph glyph-name="invcircle" unicode="&#x25d9;" horiz-adv-x="718" 
d="M457 982l114 -146h-113l-64 82l-63 -82h-113l114 146h125zM560 1157v0h65q-20 -120 -109 -120q-26 0 -76 16q-62 20 -71 20q-39 0 -47 -43h-64q25 123 121 123q21 0 82 -23q34 -13 52 -13q38 0 47 40z" />
    <glyph glyph-name="fi" unicode="&#xf001;" horiz-adv-x="611" 
d="M227 432v-432h-140v432h-77v100h77v43q0 152 156 152q48 0 72 -2v-113h-39q-33 0 -41 -12t-8 -47v-21h91v-100h-91zM402 532h140v-532h-140v532zM542 725v-130h-140v130h140z" />
    <glyph glyph-name="fl" unicode="&#xf002;" horiz-adv-x="611" 
d="M227 432v-432h-140v432h-77v100h77v43q0 152 156 152q48 0 72 -2v-113h-39q-33 0 -41 -12t-8 -47v-21h91v-100h-91zM542 718v-718h-140v718h140z" />
    <glyph glyph-name="periodcentered" horiz-adv-x="278" 
d="M58 253q0 34 23.5 57.5t57.5 23.5t57.5 -23.5t23.5 -57.5q0 -35 -23 -58t-58 -23t-58 23t-23 58z" />
    <glyph glyph-name="HT" horiz-adv-x="278" 
 />
    <glyph glyph-name="nonmarkingreturn" horiz-adv-x="278" 
 />
    <glyph glyph-name="glyph233" horiz-adv-x="278" 
 />
    <glyph glyph-name="glyph234" horiz-adv-x="278" 
 />
    <glyph glyph-name="glyph231" horiz-adv-x="278" 
 />
    <glyph glyph-name="glyph232" horiz-adv-x="278" 
 />
    <glyph glyph-name="glyph275" horiz-adv-x="249" 
 />
    <glyph glyph-name="glyph276" horiz-adv-x="249" 
 />
    <glyph glyph-name="glyph261" horiz-adv-x="500" 
d="M253 522q9 27 11 64q1 11 8 13q3 0 8 1q67 11 67 54q0 35 -28 35q-5 0 -14 -1t-14 -1q-21 0 -21 18q0 28 32 28q47 0 76.5 -25t25.5 -71q-6 -59 -87 -81q-25 -7 -31 -34h-33z" />
    <glyph glyph-name="glyph262" horiz-adv-x="541" 
d="M254 750l114 -146h-113l-64 82l-63 -82h-113l114 146h125zM354 939l-147 -146h-101l94 146h154z" />
    <glyph glyph-name="glyph263" horiz-adv-x="541" 
d="M254 750l114 -146h-113l-64 82l-63 -82h-113l114 146h125zM232 793l-147 146h154l94 -146h-101z" />
    <glyph glyph-name="glyph264" horiz-adv-x="541" 
d="M254 750l114 -146h-113l-64 82l-63 -82h-113l114 146h125zM411 671q9 27 11 64q1 11 8 13q3 0 8 1q67 11 67 54q0 35 -28 35q-5 0 -14 -1t-14 -1q-21 0 -21 18q0 28 32 28q47 0 76.5 -25t25.5 -71q-6 -59 -87 -81q-25 -7 -31 -34h-33z" />
    <glyph glyph-name="glyph265" horiz-adv-x="541" 
d="M254 750l114 -146h-113l-64 82l-63 -82h-113l114 146h125zM357 925v0h65q-20 -120 -109 -120q-26 0 -76 16q-62 20 -71 20q-39 0 -47 -43h-64q25 123 121 123q21 0 82 -23q34 -13 52 -13q38 0 47 40z" />
    <glyph glyph-name="glyph266" horiz-adv-x="541" 
d="M300 749h65q-7 -73 -57 -111q-46 -35 -121 -35q-70 0 -112 38.5t-47 107.5h66q13 -70 99 -70q96 0 107 70zM433 939l-147 -146h-101l94 146h154z" />
    <glyph glyph-name="glyph267" horiz-adv-x="541" 
d="M300 749h65q-7 -73 -57 -111q-46 -35 -121 -35q-70 0 -112 38.5t-47 107.5h66q13 -70 99 -70q96 0 107 70zM179 793l-147 146h154l94 -146h-101z" />
    <glyph glyph-name="glyph268" horiz-adv-x="541" 
d="M300 749h65q-7 -73 -57 -111q-46 -35 -121 -35q-70 0 -112 38.5t-47 107.5h66q13 -70 99 -70q96 0 107 70zM306 671q9 27 11 64q1 11 8 13q3 0 8 1q67 11 67 54q0 35 -28 35q-5 0 -14 -1t-14 -1q-21 0 -21 18q0 28 32 28q47 0 76.5 -25t25.5 -71q-6 -59 -87 -81
q-25 -7 -31 -34h-33z" />
    <glyph glyph-name="glyph269" horiz-adv-x="541" 
d="M300 749h65q-7 -73 -57 -111q-46 -35 -121 -35q-70 0 -112 38.5t-47 107.5h66q13 -70 99 -70q96 0 107 70zM357 925v0h65q-20 -120 -109 -120q-26 0 -76 16q-62 20 -71 20q-39 0 -47 -43h-64q25 123 121 123q21 0 82 -23q34 -13 52 -13q38 0 47 40z" />
    <glyph glyph-name="glyph270" horiz-adv-x="249" 
 />
  </font>
</defs>
</svg>
