<svg xmlns="http://www.w3.org/2000/svg">
<defs>
<font id="SVNCookies" horiz-adv-x="1200" >
  <font-face 
    font-family="SVNCookies"
    font-weight="400"
    font-stretch="normal"
    units-per-em="2048"
    panose-1="2 4 6 3 5 5 6 2 2 4"
    ascent="1638"
    descent="-410"
    x-height="1270"
    cap-height="1470"
    bbox="-97.087 -372 4942 2367"
    underline-thickness="109"
    underline-position="-359"
    unicode-range="U+0020-2122"
  />
<missing-glyph horiz-adv-x="5040" 
d="M3351 2045h10q37 -10 37 -52q0 -12 -32 -57h-28q0 24 28 54l2 10q-5 13 -10 15h-9q-8 0 -10 -19h-30q6 49 42 49zM2019 2016l29 -31q0 -16 -40 -30h-19l-59 12l-11 -12l-28 25q11 29 43 29h11l42 -11h2q10 0 30 18zM468 1980h142v-60h-94v-75h89v-59h-89v-129l-5 -5h-49
v323zM1155 1980h43l6 -5v-78h30v-52h-30v-188l-6 -5h-49v193h-25v52h25v78zM1621 1980h42l4 -5v-94h3q23 24 54 24h2q58 0 83 -71l2 -39v-143h-52v115q0 80 -42 80h-7q-43 0 -43 -86v-109h-51v323zM3760 1980h52v-328h-45l-5 5v11l3 2l-3 14q-29 -40 -78 -40q-67 0 -100 91
l-5 39v3q0 94 92 125l23 3q35 0 63 -32h3v107zM2057 1928h36l4 -6v-49h-45v-221h-48v23q-23 -31 -59 -31q-89 14 -89 97v156h51v-104q0 -79 26 -86l18 -5h6q26 0 39 36l3 26v133h53v25zM3476 1928v-55h-31v-221h-47v25h-2q-15 -33 -57 -33q-68 0 -86 78l-3 29v146h52v-120
q0 -50 19 -68l21 -7h9q42 0 42 69v126h27q4 0 4 28l3 3h49zM758 1905q68 0 103 -77q9 -18 12 -54q0 -88 -90 -127l-32 -3q-63 0 -101 73q-12 22 -12 52v10q0 94 101 126h19zM1011 1905h3q74 0 83 -101v-152h-51v119q0 76 -42 76h-5q-44 0 -44 -76v-119h-52v245h46v-21
q30 29 62 29zM1466 1905h7q72 0 105 -89h-60q-16 31 -42 31h-17q-53 -14 -53 -61l-3 -15q12 -69 61 -69h9q22 0 47 27h40l2 3h3l2 -3l2 3l3 -3l2 3l2 -7q-33 -81 -110 -81q-76 0 -110 94l-4 36v3q0 85 77 120q15 8 37 8zM3141 1905h2q49 0 70 -60v-14h-52q0 16 -16 16h-4
q-14 0 -19 -13v-13q0 -9 68 -35q30 -19 30 -59q0 -58 -61 -80l-23 -3q-76 12 -76 83h54q0 -20 27 -25h4q19 0 24 23q0 22 -68 44q-34 27 -34 59q0 66 74 77zM4203 1905q55 0 77 -63q7 -18 7 -65v-125h-52v112q0 83 -40 83h-11q-33 0 -40 -54v-141h-52v5h-2l2 2v238h47v-21

<glyph glyph-name=".notdef" horiz-adv-x="5040" 
d="M3351 2045h10q37 -10 37 -52q0 -12 -32 -57h-28q0 24 28 54l2 10q-5 13 -10 15h-9q-8 0 -10 -19h-30q6 49 42 49zM2019 2016l29 -31q0 -16 -40 -30h-19l-59 12l-11 -12l-28 25q11 29 43 29h11l42 -11h2q10 0 30 18zM468 1980h142v-60h-94v-75h89v-59h-89v-129l-5 -5h-49
v323zM1155 1980h43l6 -5v-78h30v-52h-30v-188l-6 -5h-49v193h-25v52h25v78zM1621 1980h42l4 -5v-94h3q23 24 54 24h2q58 0 83 -71l2 -39v-143h-52v115q0 80 -42 80h-7q-43 0 -43 -86v-109h-51v323zM3760 1980h52v-328h-45l-5 5v11l3 2l-3 14q-29 -40 -78 -40q-67 0 -100 91
l-5 39v3q0 94 92 125l23 3q35 0 63 -32h3v107zM2057 1928h36l4 -6v-49h-45v-221h-48v23q-23 -31 -59 -31q-89 14 -89 97v156h51v-104q0 -79 26 -86l18 -5h6q26 0 39 36l3 26v133h53v25zM3476 1928v-55h-31v-221h-47v25h-2q-15 -33 -57 -33q-68 0 -86 78l-3 29v146h52v-120
q0 -50 19 -68l21 -7h9q42 0 42 69v126h27q4 0 4 28l3 3h49zM758 1905q68 0 103 -77q9 -18 12 -54q0 -88 -90 -127l-32 -3q-63 0 -101 73q-12 22 -12 52v10q0 94 101 126h19zM1011 1905h3q74 0 83 -101v-152h-51v119q0 76 -42 76h-5q-44 0 -44 -76v-119h-52v245h46v-21
q30 29 62 29zM1466 1905h7q72 0 105 -89h-60q-16 31 -42 31h-17q-53 -14 -53 -61l-3 -15q12 -69 61 -69h9q22 0 47 27h40l2 3h3l2 -3l2 3l3 -3l2 3l2 -7q-33 -81 -110 -81q-76 0 -110 94l-4 36v3q0 85 77 120q15 8 37 8zM3141 1905h2q49 0 70 -60v-14h-52q0 16 -16 16h-4
q-14 0 -19 -13v-13q0 -9 68 -35q30 -19 30 -59q0 -58 -61 -80l-23 -3q-76 12 -76 83h54q0 -20 27 -25h4q19 0 24 23q0 22 -68 44q-34 27 -34 59q0 66 74 77zM4203 1905q55 0 77 -63q7 -18 7 -65v-125h-52v112q0 83 -40 83h-11q-33 0 -40 -54v-141h-52v5h-2l2 2v238h47v-21
q25 29 64 29zM4432 1905h5q40 0 69 -40v18l-3 3l3 11h47v-208q0 -97 -85 -132l-33 -4h-7q-70 0 -104 80h59q24 -22 45 -23h13q22 0 43 22q15 13 22 52h-3q-32 -40 -73 -40q-57 0 -96 70q-10 18 -14 63q0 88 87 125zM3851 1897h53v-136q6 -59 40 -59h7q46 0 46 93v102h51
v-245h-47l-3 10h3l-3 3v5l3 2v3h-4q0 -23 -57 -31h-3q-59 0 -84 75l-2 85v93zM690 1771q10 -69 63 -69h7q59 14 59 65v15q-13 65 -59 65h-5q-58 0 -65 -76zM3630 1774q13 -72 61 -72h5q58 0 66 75q0 49 -51 70h-22q-37 0 -56 -57zM4374 1774q8 -72 65 -72h5q59 12 59 72
q0 61 -59 73h-14q-56 -16 -56 -62v-11zM3928 1620h52v-57h-52v57zM1054 1402q43 -11 43 -49v-4q0 -17 -32 -60h-28q0 25 31 57v7q0 12 -7 15h-12q-10 -4 -10 -19h-28v6q0 32 33 44zM3349 1339q92 0 138 -99h-60q-37 42 -80 42q-55 0 -87 -68q-10 -22 -10 -47q0 -78 81 -110
l18 -1q36 0 75 39h61q-44 -97 -138 -97q-93 0 -141 112q-10 31 -10 62q0 97 90 152q29 15 63 15zM3664 1339q57 0 103 -47q46 -51 46 -115v-20q0 -89 -91 -146q-33 -13 -63 -13q-89 0 -138 101q-13 33 -13 60v18q0 98 98 151q29 11 58 11zM2261 1337h2l47 -11h3q11 0 26 11
l18 -36q-18 -19 -35 -19h-3l-54 10l-20 -7l-20 36q18 16 36 16zM716 1334h19q118 0 129 -26q25 -26 25 -62q-10 -57 -30 -57v-6q47 -23 47 -66v-18q0 -63 -69 -88l-54 -5h-67v328zM2550 1334h53v-217q6 -61 45 -61q29 0 44 39l3 30v203l4 6h45l5 -6v-171q0 -118 -40 -133
q-24 -26 -64 -26q-55 0 -91 76l-4 54v206zM2805 1334h59q4 0 122 -237h4v237h50l4 -6v-322h-58q-29 48 -125 238h-3v-238h-53v328zM3101 1334h54v-328h-54v328zM3859 1334h8q155 0 174 -40q23 -11 47 -75l4 -36v-11l3 -2q0 -94 -82 -149q-35 -15 -99 -15h-55v328zM4141 1334
h153v-60h-103v-75h101v-57h-101v-74l4 -5h99v-57h-157v322zM3563 1175v-10q0 -76 79 -108l19 -1q68 0 96 86l3 20v15q0 61 -60 94q-12 8 -39 11q-66 0 -96 -83zM770 1274v-67h9q54 0 54 28l3 14q-11 25 -29 25h-37zM3912 1274v-206l2 -3v-2q104 0 122 76l2 15v29
q0 34 -32 68q-25 23 -78 23h-16zM1041 1259h5q38 0 71 -40v32h49v-245h-49v32q-36 -40 -80 -40q-75 0 -101 97l-5 36q0 89 85 125zM1314 1259h3q74 0 83 -102v-151h-51v128q0 67 -42 67h-10q-34 0 -39 -62v-133h-52v245h47v-21q28 29 61 29zM1543 1259h5q45 0 71 -40v32h47
v-219q0 -95 -104 -126h-16q-74 0 -108 82h59q26 -25 44 -25h14q52 0 64 77q-33 -42 -76 -42q-60 0 -101 81l-7 44v16q0 79 85 117zM1912 1259h2q43 0 61 -37h2q32 37 69 37h4q57 0 79 -55q8 -25 8 -45v-153h-52v138q0 44 -23 55l-12 2h-15q-32 0 -36 -65v-130h-52v136
q0 59 -43 59h-8q-32 0 -36 -57v-138h-54v245h50v-21h2q6 24 54 29zM2282 1259q47 0 75 -42v34h47v-245h-47v32q-36 -40 -78 -40q-74 0 -102 92l-6 41q0 90 85 125zM985 1117q0 -48 61 -61h4q45 0 62 46l3 15v22q-12 62 -57 62h-14q-41 0 -59 -57v-27zM1487 1128
q0 -48 43 -68l18 -4h5q47 0 63 57v23q-11 65 -58 65h-12q-50 0 -59 -73zM2225 1131v-14q15 -61 57 -61h14q58 12 58 64v11q0 45 -37 65l-18 5h-10q-64 -8 -64 -70zM770 1150v-82q0 -5 7 -5q77 0 77 45q0 34 -47 42h-37zM2966 753l24 -28l-51 -55q-18 12 -27 26zM1524 727
l85 -54q0 -15 -21 -42l-87 54q18 41 23 42zM2850 693h38l55 -60h-54l-21 26l-23 -26h-54q54 60 59 60zM3422 693h40l56 -60h-54l-24 26h-1q0 -5 -19 -26h-54zM622 685h52q8 -4 47 -137l34 -110q9 8 34 100l48 147h54v-2l-112 -326h-44zM1159 685h51v-54h-51v54zM1354 685h46
l6 -5v-323h-52v328zM2317 685h45l4 -5v-78h31v-52h-31v-193h-53v193h-26v52h26v78zM2425 685h52v-98h2q23 23 54 23h3q57 0 81 -71l3 -38v-144h-52v115q0 81 -39 81h-10q-42 0 -42 -87v-109h-52v328zM2664 685h52v-54h-52v54zM3028 685h44l6 -5v-78h29v-52h-29v-193h-54v193
h-27v52h27v78zM3234 685h52v-328h-52v328zM3957 685h52v-328h-52v328zM4316 685h51v-54h-51v54zM1555 610h5q83 0 110 -102l3 -23v-11q0 -83 -85 -120l-35 -5q-76 0 -111 97l-4 32q0 97 93 130zM1811 610h4q53 0 78 -60q7 -25 7 -81v-112h-54v146q-7 50 -37 50h-10
q-38 0 -42 -57v-139h-54v245h49v-21q26 29 59 29zM2046 610h4q45 0 63 -39h3v31h49v-206q0 -102 -89 -135l-28 -3h-5q-73 0 -106 81h52l37 -20l15 -3h14q50 0 61 72q-33 -39 -73 -39q-62 0 -98 76q-11 23 -12 60q0 85 86 123zM2866 610h2q82 0 111 -104l2 -25l-2 -27h-172
q15 -45 45 -45l14 -3q29 0 49 22h57v-3q-35 -76 -108 -76q-77 0 -111 97l-1 28v8q0 49 32 89q34 39 82 39zM3429 610h5q41 0 70 -39h2v31h47v-245h-47v31h-2q-35 -39 -77 -39q-71 0 -101 89l-5 36v14q0 86 84 120zM3711 610h7q88 0 107 -128l-2 -1v-15q0 -65 -66 -106
q-21 -11 -46 -11q-34 0 -64 32v-99l-5 -5h-49v325h49v-28q31 36 69 36zM4151 610q44 0 75 -39v31h49v-245h-49v31q-35 -39 -77 -39q-92 0 -108 132q0 84 73 121q15 8 37 8zM922 602h50v-136q3 -60 42 -60h5q44 0 44 87v109h52v-245h-47v24h-5q0 -23 -56 -32h-3q-55 0 -82 68
q-4 35 -4 99v81zM1159 602h51v-245h-51v245zM2664 602h52v-245h-52v245zM4316 602h51v-245h-51v245zM1492 488v-16q13 -66 59 -66h4q59 0 66 76q-13 71 -59 71h-11q-59 -16 -59 -65zM1987 472q15 -66 59 -66h11q48 0 59 75v1q-13 71 -59 71h-14q-39 0 -56 -57v-24zM2805 506
h122v2q-16 45 -59 45h-7q-35 0 -56 -47zM3373 474q13 -68 61 -68h5q52 0 65 63v12q-10 72 -57 72h-16q-56 -14 -56 -63zM3642 478q12 -72 61 -72h3q50 0 65 60v22q0 43 -49 65h-22q-47 0 -58 -72v-3zM4095 472q10 -66 66 -66q43 0 61 48l2 15v16q0 54 -52 68h-18
q-42 0 -59 -60v-21zM3416 321h51v-52h-51v52zM4137 321h51v-52h-51v52zM2733 133h4q35 0 43 -50v-2q0 -16 -24 -41l-10 -17h-28q0 25 28 56l3 2v2q-3 19 -9 19h-10q-8 0 -9 -19h-30q6 50 42 50zM1546 116l52 -60l-26 -19l-52 52zM352 79h4q75 -48 85 -60l-20 -37
q-88 49 -88 58zM3490 79l86 -58l-18 -39q-10 0 -91 55q15 36 23 42zM4578 76l19 -42l-91 -52l-20 39l92 58v-3zM1204 53h51v-19l5 -5h14v-36h-14l-5 -5v-279h-46v31q-34 -40 -81 -40q-72 0 -102 105l-3 26q0 102 101 131h14q33 0 66 -33v59l-6 5h-43v36h49v24zM1480 45h40
l56 -61h-53l-23 27l-23 -27h-53zM2641 45h33q12 0 63 -61h-54l-23 27q-19 -21 -19 -27h-58v4zM49 37h160v-60h-56v-268h-50l-4 5v245l2 3v2l-2 2l2 3l-2 2l2 3l-2 3h-54v54zM699 37h47v-73l2 -2l-2 -3v-3l2 -2l-2 -3v-3l2 -2v-2l-2 -3l2 -3h3q17 24 51 24h3q53 0 77 -58
q7 -17 7 -42v-153h-52v127q0 68 -40 68h-8q-43 0 -43 -86v-109h-52v322zM1297 37h47l5 -6v-49h-52v55zM1987 37h52v-198l70 115h62l-78 -118l90 -125v-2h-70q-10 22 -74 115v-115h-52v328zM2271 37v-99q24 24 53 24q57 0 80 -56q10 -19 10 -77v-120h-54v133q0 62 -41 62h-11
q-31 0 -37 -55v-140h-53v314l-1 3v3l1 2l-1 3l1 3h53zM2458 37h51v-55h-51v55zM3148 37h51v-108q27 33 68 33h3q75 0 105 -94l5 -37q0 -75 -64 -120q-30 -11 -49 -11q-41 0 -72 40v-31h-47v328zM4275 37h52v-99h2q23 24 54 24h3q60 0 82 -74l2 -41v-138h-52v111q0 82 -32 82
l-10 2h-12q-37 0 -37 -80v-115h-52v328zM329 -38h3v-58h-5q-42 0 -42 -57v-138h-53v245h47v-21q18 29 50 29zM564 -38q71 0 86 -87v-166h-51v136q-6 59 -41 59h-6q-45 0 -45 -84v-111h-52v245h50v-21q25 29 59 29zM1504 -38q72 0 105 -94l5 -39q-2 -24 -7 -24h-169
q17 -47 62 -47q24 0 48 21h57q-33 -79 -108 -79q-82 0 -113 105v37q0 81 89 117zM2657 -38h5q77 0 107 -97l3 -26v-21l-3 -13h-170q18 -47 53 -47h12q21 0 42 21h59q-34 -79 -105 -79q-84 0 -115 102l-2 29q0 93 91 128zM2915 -38h4q54 0 78 -60q7 -25 7 -82v-111h-54v138
q0 48 -35 57h-11q-38 0 -43 -57v-138h-54v245h50v-21q25 29 58 29zM3508 -38h6q40 0 70 -40h2v32h47v-245h-47v31h-2q-34 -40 -78 -40q-71 0 -101 90l-4 37v12q0 82 77 117q11 6 30 6zM3781 -38h4q62 0 82 -78l3 -84v-91h-54v138q0 48 -38 57h-9q-38 0 -42 -52v-143h-54v245
h49v-21q26 29 59 29zM4133 -38h1q74 0 104 -93l4 -40q0 -88 -84 -126l-25 -3q-41 0 -68 34v-106h-52v326h47v-29q30 37 73 37zM4714 -38h5q34 0 63 -37q27 37 69 37h6q56 0 79 -66l6 -51v-136h-52v122q0 73 -39 73h-7q-35 0 -41 -50v-140l-5 -5h-48v140q0 42 -31 55h-17
q-40 0 -40 -77v-118h-51v245h47v-21q22 29 56 29zM359 -46h49l5 -6v-234l-5 -5h-49v245zM1297 -46h52v-245h-52v245zM1649 -46h52v-136q4 -60 43 -60h4q44 0 44 81v115h52v-245h-47v24h-5q-12 -33 -59 -33q-52 0 -79 63q-5 12 -5 34v157zM2458 -46h51v-245h-51v245z
M4515 -46h51v-245h-51v245zM1077 -169q0 -53 51 -73h12q54 0 66 66v10q0 53 -54 70h-17q-38 0 -58 -57v-16zM1438 -143h122q-18 47 -53 47h-7q-43 0 -62 -44v-3zM2599 -143h122q-21 47 -54 47h-7q-46 0 -61 -47zM3196 -158v-11q10 -73 61 -73h5q64 8 64 71v5q0 45 -38 65
l-18 5h-14q-60 -14 -60 -62zM3452 -173q14 -69 62 -69h11q41 0 59 60v13q-8 73 -56 73h-17q-47 0 -59 -73v-4zM4062 -158v-22q0 -47 59 -62h9q50 0 61 76q-13 70 -58 70h-15q-56 -17 -56 -62zM2210 1744q0 -20 8 -36.5t21 -29t30 -19.5t35 -7q41 0 68.5 27.5t27.5 67.5
q0 46 -31 70q-14 9 -28 17q-2 1 -9 3.5l-21 7.5q-19 7 -30 16q-5 10 -5 20q0 15 8.5 24t19.5 9q12 0 22.5 -10t10.5 -23h54q0 19 -7 35t-18 28t-26.5 18.5t-31.5 6.5q-38 0 -62 -25t-24 -63q0 -7 0.5 -14t4.5 -17q8 -17 17 -27t24 -17q4 -2 10 -4t16 -7q8 -3 14 -5t10 -4
q7 -5 11.5 -7.5t7.5 -7.5q4 -5 6.5 -12t2.5 -15q0 -16 -13 -28q-5 -5 -12 -7t-13 -2q-10 0 -16.5 2.5t-12.5 6.5q-11 11 -11 28h-58zM2569 1659l113 305h-57l-77 -233l-79 233h-55l111 -305h44zM2766 1659v222l120 -222h61v305h-54v-224l-122 224h-60v-305h55z" />
    <glyph glyph-name=".null" horiz-adv-x="0" 
 />
    <glyph glyph-name="nonmarkingreturn" horiz-adv-x="571" 
 />
    <glyph glyph-name="space" unicode=" " horiz-adv-x="616" 
 />
    <glyph glyph-name="exclam" unicode="!" horiz-adv-x="586" 
d="M55 1395q45 98 197 98q65 0 119 -25q67 -32 73 -90q13 -22 13 -94q0 -125 -35 -369q-39 -270 -79 -351t-101 -81q-60 0 -100 90.5t-74 341.5q-31 224 -31 357q0 98 18 123zM45 205q12 180 213 178q76 -2 113 -35t55 -106q6 -27 6 -52q0 -88 -58.5 -137t-148.5 -49
q-80 0 -133 60.5t-47 140.5z" />
    <glyph glyph-name="quotedbl" unicode="&#x22;" horiz-adv-x="1178" 
d="M184 1532q49 18 105 18q100 0 168.5 -66.5t68.5 -164.5q2 -154 -137 -324q-123 -149 -190 -149q-19 0 -32 21.5t-13 41.5q0 29 24.5 85.5t24.5 72.5q0 6 -2 12q-148 66 -148 228q0 69 35 135.5t96 89.5zM807 1550q98 0 167.5 -66.5t72.5 -164.5q2 -154 -138 -324
q-123 -149 -192 -149q-8 0 -12 4q-31 22 -31 59q0 29 24.5 85.5t24.5 72.5q0 6 -4 12q-148 66 -148 228q0 73 37 137q62 106 199 106z" />
    <glyph glyph-name="numbersign" unicode="#" horiz-adv-x="1231" 
d="M8 985q4 121 168 121q37 0 88 -4q-12 84 -12 117q0 131 127 143q131 14 131 -150q0 -22 -4 -51q-8 -57 51 -57q49 0 55 49q-6 49 -6 84q0 131 111 127q129 -4 129 -139q0 -13 -8 -123q39 2 67 2q174 0 174 -119q0 -115 -127 -115q-39 0 -86 13q-55 0 -55 -56
q0 -51 49 -59q53 6 88 6q148 0 148 -106q0 -125 -150 -125q-45 0 -102 12q10 -70 10 -113q0 -149 -135 -145q-115 4 -115 149q0 29 6 60q-8 49 -61 49q-45 0 -55 -57q4 -27 4 -52q0 -143 -105 -143q-143 -2 -143 199q0 24 2 53q-47 -8 -84 -8q-143 0 -154 110q9 131 154 131
q35 0 86 -6q39 4 39 56q0 49 -39 53q-53 -19 -102 -19q-146 0 -144 113zM487 823q5 -43 48 -45q45 -4 45 45q0 47 -45 47q-52 0 -48 -47z" />
    <glyph glyph-name="dollar" unicode="$" horiz-adv-x="1212" 
d="M1036 1176q17 -19 17 -46q0 -57 -59.5 -106t-116.5 -49q-23 0 -41 10q-78 43 -101 43q-14 0 -18 -20v-60q-4 -33 -4 -71q0 -39 24 -54q11 -6 62 -18q149 -35 217 -96q82 -74 88 -215q6 -146 -123 -230q-100 -67 -262 -88q-6 -102 -10 -113q-25 -61 -136 -61
q-112 0 -139 55q-10 21 -12 103q-146 2 -229 30q-109 37 -183 134q0 104 13 145q22 76 94 100q37 -6 143 -53q100 -45 127 -45q33 0 27 39q0 72 2 84q-8 24 -68 24q-129 21 -219 101q-100 88 -100 211q0 147 125 264q110 102 266 139l12 107q19 76 137 76q119 0 119 -121
q0 -31 -4 -39q121 -2 209 -53q65 -39 143 -127zM367 940q0 -72 41 -76q6 92 6 140q0 2 -6 2q-17 0 -29 -25t-12 -41zM748 494q0 -27 2 -29t22 -2q33 0 33 39q0 47 -33 51q-22 0 -24 -16q-3 -2 0 -43z" />
    <glyph glyph-name="percent" unicode="%" horiz-adv-x="1210" 
d="M377 53q-37 -39 -90 -39q-66 0 -128.5 52.5t-62.5 115.5q0 21 8 39q89 197 314 610q213 396 307 613q18 45 84 45q74 0 135.5 -50t61.5 -122q0 -17 -5 -35q-223 -426 -624 -1229zM674 623q61 49 168 49q104 0 172 -49q80 -109 80 -279q0 -172 -70 -274q-43 -64 -170 -64
q-135 0 -190 62q-76 84 -76 290q0 168 86 265zM778 354q0 -30 16.5 -59t45.5 -29q63 0 63 88q0 33 -16.5 61.5t-46.5 28.5q-29 0 -45.5 -29.5t-16.5 -60.5zM100 1436q62 49 168 49q105 0 172 -49q80 -109 80 -279q0 -172 -69 -274q-43 -64 -170 -64q-136 0 -191 62
q-76 84 -76 290q0 168 86 265zM205 1167q0 -30 16.5 -59t44.5 -29q64 0 64 88q0 33 -16.5 61.5t-47.5 28.5q-28 0 -44.5 -29.5t-16.5 -60.5z" />
    <glyph glyph-name="ampersand" unicode="&#x26;" horiz-adv-x="1214" 
d="M422 1022q16 8 43 41q20 45 20 102q-18 15 -45 15q-10 0 -20 -2q-27 -25 -27 -52q0 -43 29 -104zM522 369l-78 69q-28 27 -73 90q-39 -39 -41 -63q-4 -47 26 -78q45 -45 86 -45q27 0 80 27zM803 137q-156 -135 -365 -135q-166 0 -305 131t-139 297q0 188 182 365
q-92 170 -92 342q0 139 105.5 247.5t242.5 108.5q164 0 266 -78q115 -86 115 -244q0 -147 -45 -243.5t-158 -188.5q49 -84 129 -139q25 84 25 131q0 68 43 111t111 43q67 0 110 -43t43 -111q0 -160 -92 -352q27 -27 92 -88q41 -37 41 -88q0 -60 -50 -121.5t-108 -61.5
q-28 0 -45.5 20.5t-105.5 96.5z" />
    <glyph glyph-name="quotesingle" unicode="'" horiz-adv-x="784" 
d="M414 1550q98 0 167.5 -66.5t71.5 -164.5q2 -154 -137 -324q-123 -149 -192 -149q-9 0 -13 4q-32 22 -32 59q0 29 24.5 85.5t24.5 72.5q0 6 -2 12q-148 66 -148 228q0 73 37 137q59 106 199 106z" />
    <glyph glyph-name="parenleft" unicode="(" horiz-adv-x="1090" 
d="M315 1317q121 115 318 172q43 12 100 12q88 0 156 -35q86 -45 86 -125q0 -43 -29 -92q-18 -43 -129 -86q-129 -51 -186 -110q-101 -107 -99 -295q3 -178 97 -271q47 -45 184 -102q123 -51 162 -121q22 -41 22 -82q0 -92 -102 -145q-84 -41 -186 -41q-58 0 -111 14
q-215 58 -309 148q-193 182 -187 592q4 370 213 567z" />
    <glyph glyph-name="parenright" unicode=")" horiz-adv-x="1108" 
d="M758 1317q209 -197 213 -567q6 -410 -187 -592q-94 -90 -309 -148q-53 -14 -110 -14q-103 0 -187 41q-102 53 -102 145q0 41 22 82q39 70 162 121q137 57 184 102q95 93 97 271q2 188 -99 295q-57 59 -186 110q-111 43 -129 86q-29 49 -29 92q0 80 86 125q68 35 156 35
q57 0 100 -12q197 -57 318 -172z" />
    <glyph glyph-name="asterisk" unicode="*" horiz-adv-x="1204" 
d="M287 1493q39 20 67 20q70 0 133 -94q37 -71 76 -143q60 131 66 141q57 92 127 92q32 0 63 -16q70 -37 70 -119q0 -114 -98 -213q47 29 124 29q160 0 164 -117q2 -72 -63 -112q-58 -35 -133 -35q-52 0 -88 18q112 -84 112 -192q0 -66 -57 -97q-35 -14 -68 -14
q-71 0 -131 76q-28 37 -80 137q-67 -223 -194 -223q-25 0 -55 14q-62 29 -62 111q0 108 68 166q-41 -17 -92 -17q-76 0 -129.5 38t-53.5 112q0 125 158 125q68 0 125 -19q-47 25 -80 94.5t-33 126.5q0 78 64 111z" />
    <glyph glyph-name="plus" unicode="+" horiz-adv-x="1167" 
d="M985 664q-18 -2 -139 0q-92 2 -131 -17q-4 -12 -4 -33q0 -26 7 -81.5t7 -83.5q0 -93 -39 -134t-133 -41q-113 0 -129 76q-21 45 -21 111q0 22 3.5 68t3.5 69q0 31 -4 53q-11 8 -31 8q-25 0 -76 -7t-76 -7q-63 0 -112 23q-62 47 -62 143q0 141 166 141q25 0 74 -4t73 -4
q21 0 33 4q4 21 -6 84q-22 139 -4 223q16 78 164 78q147 0 170 -80q14 -32 14 -82q0 -43 -10 -104q-14 -88 -14 -96q-2 -19 2 -29q14 -10 41 -10q26 0 80.5 10t80.5 10q146 0 146 -164q0 -116 -74 -124z" />
    <glyph glyph-name="comma" unicode="," horiz-adv-x="774" 
d="M309 446q49 19 105 19q100 0 168.5 -66.5t68.5 -165.5q2 -153 -137 -323q-123 -150 -190 -150q-19 0 -32 21.5t-13 42.5q0 29 24.5 85t24.5 73q0 6 -2 12q-148 65 -148 227q0 70 35 136.5t96 88.5z" />
    <glyph glyph-name="hyphen" unicode="-" horiz-adv-x="1192" 
d="M129 877q123 22 377 22q303 0 455 -22q81 -13 81 -134q0 -96 -63 -149q-199 -21 -518 -21q-223 0 -344 15q-58 28 -58 135q0 121 70 154z" />
    <glyph glyph-name="period" unicode="." horiz-adv-x="807" 
d="M330 453q47 18 100 18q141 0 223 -149q23 -41 23 -99q0 -121 -117 -194q-55 -35 -119 -35q-104 0 -174.5 71.5t-70.5 176.5q0 157 135 211z" />
    <glyph glyph-name="slash" unicode="/" horiz-adv-x="1128" 
d="M711 1454q37 41 114 41q86 0 152 -47q76 -53 70 -135q-54 -205 -293 -656q-222 -419 -363 -610q-65 -43 -143 -43q-80 0 -135 45q-62 47 -62 125q0 29 10 64q58 202 322 680q250 450 328 536z" />
    <glyph glyph-name="zero" unicode="0" horiz-adv-x="1249" 
d="M287 1368q127 109 340 109t350 -109q160 -240 160 -620q0 -379 -144 -611q-88 -141 -342 -141q-104 0 -209 31q-123 39 -176 106q-73 94 -116 311q-37 181 -37 336q0 375 174 588zM498 772q0 -67 28 -125q37 -72 99 -72q61 0 98 72q29 58 29 125q0 70 -29 127
q-37 72 -98 72q-62 0 -99 -72q-28 -57 -28 -127z" />
    <glyph glyph-name="one" unicode="1" horiz-adv-x="1249" 
d="M266 1233q-8 12 -8 29q0 55 70 116q55 49 118 74q109 31 232 31q176 0 237 -80q74 -96 74 -524q0 -502 -49 -773q-20 -114 -248 -114q-207 0 -233 84q-10 53 -10 143q0 127 21.5 380t21.5 380q0 133 -25 170q-16 53 -53 53q-15 0 -43.5 -8t-42.5 -8q-39 0 -62 47z" />
    <glyph glyph-name="two" unicode="2" horiz-adv-x="1249" 
d="M164 1200q65 135 191 209t278 74q162 0 291 -80q141 -88 174 -238q22 -104 22 -200q0 -303 -274 -457q-101 -55 -103 -68q101 25 185 25q76 0 119 -23q86 -28 86 -184q0 -160 -70 -195q-12 -30 -229 -47q-138 -10 -256 -10q-367 0 -424 64q-39 92 -39 176q0 164 151 313
q66 66 279 215q151 107 151 170q0 17 -6 31q-37 86 -51 98q-27 25 -119 25q-71 0 -120.5 -93.5t-116.5 -97.5q-70 -4 -117 32t-47 103q0 66 45 158z" />
    <glyph glyph-name="three" unicode="3" horiz-adv-x="1249" 
d="M983 117q-102 -119 -422 -119q-262 0 -366 82q-58 45 -58 139q0 100 49 168q31 41 90 41q46 0 140 -26.5t139 -26.5q104 0 104 135q0 102 -90 102q-30 0 -96.5 -12t-99.5 -12q-133 0 -150 162q17 170 187 170h51q65 -2 49 -2q129 0 121 124q-31 117 -121 117
q-45 0 -143.5 -38t-143.5 -38q-20 0 -37 7q-57 59 -57 135q0 149 168 213q117 45 293 45q297 0 387 -127q96 -135 96 -289q0 -184 -131 -270q178 -113 178 -324q0 -199 -137 -356z" />
    <glyph glyph-name="four" unicode="4" horiz-adv-x="1249" 
d="M819 1470q123 5 123 -374q0 -138 -16 -330q4 -23 26 -23q15 0 43.5 6.5t44.5 6.5q39 0 66 -27q53 -43 53 -182q0 -115 -49 -160q-18 -16 -47 -16q-10 0 -32.5 2t-33.5 2q-49 0 -82 -29l9 -59q10 -72 10 -125q0 -72 -16 -119q-41 -49 -154 -49q-51 0 -111 14
q-80 19 -92 49q-16 45 -16 95q0 30 15 89.5t15 88.5q0 39 -34 39q-29 0 -99.5 -22.5t-109.5 -22.5q-129 0 -236 137q-6 35 -6 80q0 286 195 592q217 340 487 340q25 0 47 -3zM506 797q-4 -29 20 -31q-14 2 43 2q33 0 33 59q0 95 2 62q-2 31 -18 31q-23 0 -51 -52
q-25 -43 -29 -71z" />
    <glyph glyph-name="five" unicode="5" horiz-adv-x="1249" 
d="M211 1358q29 131 375 131q473 0 473 -244q0 -57 -27 -108q-47 -60 -168 -64q-22 0 -211 17q-116 10 -143 -17q-59 0 -59 -104q0 -70 41 -92q26 -15 104 -9q113 9 168 4q110 -8 203 -53q147 -98 147 -350q0 -123 -41 -231q-49 -129 -134 -183.5t-331 -54.5q-319 0 -389 66
q-53 49 -53 159q0 105 41 185q26 32 84 32q51 0 149.5 -28.5t147.5 -28.5q78 0 82 80q-8 106 -172 106h-64q-14 0 -37 -2h-26q-129 0 -160 56q-76 137 -76 350t76 383z" />
    <glyph glyph-name="six" unicode="6" horiz-adv-x="1249" 
d="M203 1280q49 113 194 168q117 47 260 47q402 0 402 -264q0 -111 -60 -184q-28 -5 -53 -5q-51 0 -149 64q-43 14 -95 14q-116 0 -194 -59q-64 -103 -64 -166q0 -43 23 -80q8 -4 20 -4q19 0 112 31.5t153 31.5q112 0 243 -57q138 -119 138 -352q0 -103 -31 -205
q-39 -127 -107 -174q-131 -90 -356 -90q-334 0 -438 199q-84 225 -84 583q0 348 86 502zM608 477q0 -100 103 -90q43 4 57 27q10 16 10 63q0 55 -13 64.5t-71 5.5q-90 -8 -90 -64q0 -6 2 -10q2 -2 2 4z" />
    <glyph glyph-name="seven" unicode="7" horiz-adv-x="1249" 
d="M178 1382q96 101 410 101q125 0 254 -21q184 -30 223 -92q72 -41 72 -203q0 -209 -111 -569q-96 -313 -203 -535q-32 -69 -172 -69q-55 0 -131 16q-94 21 -110 53q-9 35 -9 72q0 131 88 324q37 82 160 309q88 164 88 217q0 29 -20 45q-64 49 -158 49q-98 0 -160 -55
q-22 -16 -24 -70.5t-23 -72.5q-53 -47 -108 -47q-29 0 -60 16q-71 39 -71 285q0 215 65 247z" />
    <glyph glyph-name="eight" unicode="8" horiz-adv-x="1249" 
d="M242 1372q41 60 176 88q96 23 203 23q292 0 368 -119q43 -45 70 -147q22 -87 22 -162q0 -176 -110 -269q80 -49 127 -157q43 -97 43 -201q0 -166 -94 -289q-101 -133 -390 -133q-116 0 -239 29q-152 33 -217 94q-95 135 -95 299q0 100 39 201q43 112 115 166
q-108 96 -108 268q0 182 90 309zM528 455q0 -78 93 -78q51 0 71.5 13t20.5 61q0 8 -6 24q-21 51 -82 51q-97 0 -97 -71zM528 1069q0 -78 93 -78q92 0 92 74q0 45 -19.5 60.5t-68.5 15.5q-97 0 -97 -72z" />
    <glyph glyph-name="nine" unicode="9" horiz-adv-x="1249" 
d="M356 45q-141 109 -180 174q-10 17 -35 123q9 53 47.5 93t92.5 40q28 0 61 -12q84 -74 180 -74q84 0 161 58.5t77 140.5q0 33 -19 59q-12 12 -30 12q-19 0 -89.5 -22.5t-113.5 -22.5q-109 0 -227 76q-119 121 -119 318q0 192 112 348q99 135 344 135q107 0 211 -35
q121 -39 174.5 -112.5t81.5 -258.5q23 -141 23 -276q0 -320 -102 -528q-134 -277 -420 -277q-107 0 -230 41zM741 1069q0 41 -35.5 70.5t-76.5 21.5q-115 -24 -115 -96q0 -18 4 -39q17 -78 90 -78q17 0 66 8q67 11 67 113z" />
    <glyph glyph-name="colon" unicode=":" horiz-adv-x="774" 
d="M309 1292q51 21 109 21q145 0 215 -152q22 -49 22 -98q0 -121 -116 -195q-56 -34 -119 -34q-105 0 -175.5 71.5t-70.5 175.5q0 158 135 211zM309 453q51 20 109 20q145 0 215 -151q22 -50 22 -99q0 -121 -116 -194q-56 -35 -119 -35q-105 0 -175.5 71.5t-70.5 176.5
q0 157 135 211z" />
    <glyph glyph-name="semicolon" unicode=";" horiz-adv-x="774" 
d="M414 465q100 0 168.5 -66.5t68.5 -165.5q2 -157 -135 -323q-123 -150 -192 -150q-9 0 -13 4q-32 23 -32 60q0 29 24.5 85t24.5 73q0 6 -2 12q-148 65 -148 227q0 74 37 137q59 107 199 107zM309 1292q51 21 109 21q145 0 215 -152q22 -49 22 -98q0 -121 -116 -195
q-56 -34 -119 -34q-105 0 -175.5 71.5t-70.5 175.5q0 158 135 211z" />
    <glyph glyph-name="less" unicode="&#x3c;" horiz-adv-x="1114" 
d="M625 1466q73 37 153 37q109 0 174.5 -60.5t65.5 -166.5q-17 -51 -232 -262q-200 -197 -200 -264q0 -78 151 -197q193 -150 248 -227q41 -58 41 -115q0 -90 -69.5 -150.5t-161.5 -60.5q-183 43 -433 303q-258 270 -260 447q-2 145 209 401q162 197 314 315z" />
    <glyph glyph-name="equal" unicode="=" horiz-adv-x="1184" 
d="M129 1102q123 22 377 22q303 0 455 -22q81 -12 81 -133q0 -97 -63 -150q-199 -20 -518 -20q-223 0 -344 14q-58 29 -58 135q0 121 70 154zM129 672q123 22 377 22q303 0 455 -22q81 -13 81 -133q0 -97 -63 -150q-199 -20 -518 -20q-223 0 -344 14q-58 29 -58 135
q0 121 70 154z" />
    <glyph glyph-name="greater" unicode="&#x3e;" horiz-adv-x="1122" 
d="M481 1466q152 -118 314 -315q211 -256 209 -401q-3 -177 -261 -447q-249 -260 -432 -303q-92 0 -161.5 60.5t-69.5 150.5q0 57 41 115q55 77 248 227q151 119 151 197q0 67 -201 264q-215 211 -231 262q0 106 65.5 166.5t174.5 60.5q80 0 153 -37z" />
    <glyph glyph-name="question" unicode="?" horiz-adv-x="1151" 
d="M86 1196q51 150 184 227q123 72 289 72q150 0 281 -61q159 -74 182 -205q22 -66 22 -144q0 -127 -55 -229q-59 -113 -168 -164q-37 -18 -67 -49l-90 -92q-35 -76 -105 -76q-84 0 -119 80q-6 16 -12 27q-16 51 -16 98q0 72 55 121q16 16 119 78q114 69 114 141
q0 41 -32 92q-56 88 -156 88q-150 0 -268 -147q-166 0 -166 102q0 16 8 41zM354 207q11 178 211 176q137 -2 168 -141q6 -29 6 -52q0 -88 -58 -137t-149 -49q-88 0 -139 70q-43 59 -39 133z" />
    <glyph glyph-name="at" unicode="@" horiz-adv-x="1233" 
d="M793 608q55 4 55 201q0 76 -12 164q-19 112 -45 143q-35 39 -211 51q-134 9 -201 -26q-82 -45 -98 -168q-2 -12 -13 -250q-10 -231 66 -324q100 -120 399 -108q41 2 127 19.5t129 17.5q49 0 76 -62q18 -45 18 -102q0 -107 -41 -119q-165 -47 -309 -53q-473 -17 -631 213
q-102 149 -94 518q8 387 98 547q130 229 474 217q301 -10 411 -168q90 -131 94 -453q7 -444 -137 -495q-59 -21 -203 -25q-260 -6 -337 55q-89 68 -95 318q-6 231 31 303q43 84 197 86q190 2 231 -80q23 -43 23 -272q0 -135 -2 -148zM524 727q0 -92 -2 -70q4 -47 35 -49
q8 -2 25 -4q12 0 8 123q0 35 -2 107q0 24 -31 24q-33 0 -33 -24v-107z" />
    <glyph glyph-name="A" unicode="A" horiz-adv-x="1212" 
d="M227 1372q58 121 318 121q98 0 182 -27q113 -32 145 -100q72 -141 150 -588q76 -422 76 -616q0 -88 -19 -101q-14 -26 -84 -45q-57 -14 -98 -14q-98 0 -166 59q-63 103 -78 201q-8 72 -26 213q-15 60 -68 60q-22 0 -49 -15.5t-25 -38.5q-6 -86 -22 -256
q-12 -125 -60 -164q-67 -57 -170 -57q-135 0 -196 80q-21 18 -21 139q0 234 58 572q67 395 153 577zM412 954q0 -49 36.5 -80.5t86.5 -31.5q49 0 86.5 31.5t37.5 80.5q0 50 -37.5 81.5t-86.5 31.5q-50 0 -86.5 -31.5t-36.5 -81.5z" />
    <glyph glyph-name="B" unicode="B" horiz-adv-x="1186" 
d="M68 1315q18 104 186 153q117 35 256 35q158 0 303 -41q80 -22 131 -162q37 -100 35 -167q-2 -105 -78 -197q-67 -82 -172 -129q117 -47 232 -154q104 -123 104 -268q0 -166 -117 -276q-35 -35 -172 -72q-127 -37 -188 -37q-189 0 -273 16q-143 29 -194 113
q-94 156 -94 707q0 376 41 479zM401 1118q0 -45 32 -74.5t77 -29.5t78 29.5t33 74.5q0 43 -34 73t-77 30t-76 -30t-33 -73zM422 434q0 -43 43 -69q35 -21 82 -21q45 0 85 23.5t40 66.5q0 45 -51.5 90t-96.5 45t-73.5 -44t-28.5 -91z" />
    <glyph glyph-name="C" unicode="C" horiz-adv-x="1169" 
d="M766 1493q78 -14 125 -68.5t47 -132.5q0 -90 -76 -135q-33 -18 -160 -53q-155 -43 -198 -107q-64 -94 -64 -260q0 -155 78 -264q88 -57 170 -57q90 0 197 67q37 19 73 19q62 0 98 -46t31 -108q-10 -125 -54 -184.5t-179 -116.5q-92 -39 -184 -39q-70 0 -201 33
q-180 70 -195 78q-61 35 -135 125q-65 80 -102 260q-29 147 -29 284q0 125 25 197q117 246 313 385q117 84 236 107q30 6 184 16z" />
    <glyph glyph-name="D" unicode="D" horiz-adv-x="1219" 
d="M61 944q0 350 21.5 414.5t150.5 97.5q95 25 193 25q262 0 442 -129q74 -54 144 -250q78 -219 78 -443q0 -299 -150 -497q-61 -82 -219 -127q-125 -35 -256 -35q-236 0 -330 96q-74 105 -74 848zM459 737q0 -90 12 -121q21 -53 94 -53q70 0 107 58q30 49 30 122
q0 205 -194 205q-57 0 -57 -63q0 -25 4 -74t4 -74z" />
    <glyph glyph-name="E" unicode="E" horiz-adv-x="1157" 
d="M145 1372q80 109 383 109q224 0 400 -74q65 -84 65 -160q0 -61 -47 -98q-14 -10 -41 -10q-31 0 -103.5 13t-109.5 13q-78 0 -135 -35q-65 -40 -65 -114q0 -66 45 -90q41 -31 186 -39q160 -10 192 -21q52 -32 52 -116q0 -64 -45 -91q-33 -6 -86 -6h-54q-73 2 -55 2
q-154 0 -197 -67q11 -242 471 -232q78 -22 78 -139q0 -115 -100 -162q-111 -51 -358 -51q-404 0 -504 180q-78 140 -78 568q0 475 106 620z" />
    <glyph glyph-name="F" unicode="F" horiz-adv-x="1155" 
d="M115 1313q106 172 471 172q237 0 424 -78q67 -84 67 -186q0 -76 -49 -113q-14 -10 -41 -10q-37 0 -112.5 13t-114.5 13q-82 0 -137 -32q-70 -41 -70 -117q0 -66 45 -90q41 -31 186 -39q162 -10 193 -21q37 -22 37 -96q0 -88 -60 -123q-30 -6 -84 -6h-55q-74 2 -55 2
q-152 0 -197 -67q-2 -23 -2 -46q0 -55 28.5 -162.5t28.5 -162.5q0 -31 -8 -62q-24 -92 -202 -92q-170 0 -238 125q-29 51 -82 283q-59 262 -59 485q0 271 86 410z" />
    <glyph glyph-name="G" unicode="G" horiz-adv-x="1202" 
d="M655 1493q283 0 283 -195q0 -135 -176 -155q-119 -15 -176.5 -72t-83.5 -176q-13 -109 -13 -178q0 -99 23 -142q70 -133 156 -133q47 0 79.5 39t32.5 88q0 29 -12 54q-100 86 -94 174q37 61 65 69q6 2 105 2q84 -10 133 -67q43 -66 86 -133q24 -78 24 -160
q0 -189 -110.5 -330t-292.5 -178q-219 0 -373 100q-86 56 -202 191q-72 139 -72 377q0 139 24 315q152 510 594 510z" />
    <glyph glyph-name="H" unicode="H" horiz-adv-x="1221" 
d="M96 1407q56 66 187 66q149 0 176 -154q18 -109 4 -320q14 -67 96 -67q88 0 115 74q4 188 4 200q6 117 29 197q20 72 157 72q117 0 156 -60q53 -201 53 -745q0 -285 -14 -561q-17 -46 -78 -72q-51 -21 -109 -21q-131 0 -159 86q-23 125 -33 365q-4 78 -92 78
q-96 0 -96 -82q2 -246 -9 -293q-37 -158 -196 -158q-60 0 -117 21q-74 26 -80 76q-39 268 -39 682q0 450 45 616z" />
    <glyph glyph-name="I" unicode="I" horiz-adv-x="618" 
d="M57 1403q37 67 181 67q155 0 198 -75q33 -60 33 -690q0 -558 -27 -644q-28 -67 -198 -67q-156 0 -183 61q-45 103 -45 729q0 564 41 619z" />
    <glyph glyph-name="J" unicode="J" horiz-adv-x="1210" 
d="M539 1288q-15 29 -15 55q0 68 84 107q66 29 144 29q202 0 235 -144q80 -188 80 -583q0 -408 -78 -555q-151 -193 -411 -193q-150 0 -279 64q-147 73 -201 198q-49 115 -49 185q0 63 37 120q37 78 143 78q156 0 177 -166q28 -51 92 -51q80 0 141 78q53 68 53 221
q0 260 -153 557z" />
    <glyph glyph-name="K" unicode="K" horiz-adv-x="1202" 
d="M55 1425q11 70 168 70q199 0 207 -106q6 -35 6 -86v-54q-2 -71 -2 -53q0 -115 53 -143q72 -15 121 88q23 49 88 196q62 111 146 111t161.5 -62.5t77.5 -144.5q0 -22 -8 -49q-35 -117 -149 -244q-105 -117 -219 -184q114 -55 229 -201q137 -176 158 -352q8 -82 -70 -135
q-68 -45 -154 -45q-80 0 -131 39q-35 45 -75 149q-50 127 -70 158q-45 72 -105 72q-16 0 -34 -5q-47 -28 -47 -108q0 -76 47 -223q-25 -107 -183 -107q-88 0 -149 41q-68 47 -72 131q-24 565 -24 719q0 330 30 528z" />
    <glyph glyph-name="L" unicode="L" horiz-adv-x="1145" 
d="M45 1370q35 103 211 103q172 0 213 -91q16 -59 16 -147q0 -100 -34.5 -297t-34.5 -295q0 -45 10 -70q33 -141 244 -141q53 0 166 14q96 13 151 17q107 8 107 -174q0 -60 -19 -125q-22 -84 -63 -98q-164 -54 -375 -54q-373 0 -541 144q-90 100 -90 534q0 285 39 680z" />
    <glyph glyph-name="M" unicode="M" horiz-adv-x="1237" 
d="M68 90q-58 141 -58 694q0 426 45 576q4 63 68 98q51 27 121 27q73 0 129 -33q65 -37 67 -106q37 -91 39 -93q29 -49 78 -53q55 4 84 60q18 47 37 96q2 55 67 88q54 26 115 26q160 0 187 -122q51 -236 51 -662q0 -389 -51 -577q-13 -48 -72 -76q-49 -23 -105 -23
q-116 0 -165 86q-11 31 -11 90q0 64 13.5 193t13.5 192q0 101 -35 105q-12 0 -27 -43q-16 -53 -30 -76q-27 -41 -78 -41q-55 0 -83 80t-42 80q-47 -12 -47 -125q0 -68 20.5 -204t20.5 -204q0 -32 -6 -47q-47 -84 -181 -84q-135 0 -165 78z" />
    <glyph glyph-name="N" unicode="N" horiz-adv-x="1241" 
d="M35 1386q14 101 209 101q147 0 215 -66q39 -39 80 -198q59 -240 73 -277q50 -137 113 -127q37 6 37 72q0 76 -39 223.5t-39 222.5q0 47 16 66q23 55 160 55q158 0 195 -65q35 -121 35 -592q0 -539 -35 -701q-17 -77 -148 -77q-71 0 -133 30q-72 35 -88 97
q-86 178 -129 266q-72 143 -131 147q-31 -4 -31 -49q0 -55 39 -175t39 -177q0 -37 -16 -53q-35 -97 -197 -97q-65 0 -123 23q-76 26 -86 80q-41 524 -41 839q0 263 25 432z" />
    <glyph glyph-name="O" unicode="O" horiz-adv-x="1202" 
d="M383 1487q338 0 504 -203q135 -170 184 -532q4 -289 -33 -416q-43 -146 -182 -264q-190 -64 -334 -64q-153 0 -280 70q-113 127 -159 251t-46 296q0 92 12 209q62 266 107 376q88 215 227 277zM412 705q-9 -140 153 -140q101 0 137 72q29 53 29 164q0 76 -67.5 123
t-145.5 41q-37 -4 -74 -115q-30 -90 -32 -145z" />
    <glyph glyph-name="P" unicode="P" horiz-adv-x="1184" 
d="M492 1491q227 0 399 -92q201 -68 194 -406q-6 -399 -366 -399q-107 0 -242 37q-18 -8 -18 -37q0 -43 56 -193.5t56 -224.5q0 -84 -59 -115q-74 -47 -172 -47q-160 0 -227 82q-37 62 -60 338q-18 211 -18 359q0 362 57 489q92 209 400 209zM471 1032q0 -43 39 -71
q33 -27 78 -33q125 -17 147 123q0 79 -172 79q-92 0 -92 -98z" />
    <glyph glyph-name="Q" unicode="Q" horiz-adv-x="1214" 
d="M350 1460q80 29 158 29q170 0 346 -170q184 -178 184 -569q0 -179 -39 -316q43 -49 101 -215q0 -149 -144 -190q-102 4 -141 92q-76 -127 -338 -127q-278 0 -373.5 152.5t-95.5 381.5q0 107 12 213q72 627 330 719zM416 915q0 -98 4 -108q12 -33 88 -29q45 2 133 -16
q10 0 12 22q2 31 6 95q7 94 -43 122q-28 17 -96 17q-67 0 -80 -10q-24 -19 -24 -93zM444 393q0 -6 -3 -19.5t-3 -19.5q0 -18 58 -18q51 0 57 2q18 6 18 43v43q-8 16 -63 16t-64 -10v-37z" />
    <glyph glyph-name="R" unicode="R" 
d="M47 1276q23 98 150 158q112 53 268 53q227 0 395 -107q187 -118 197 -325q2 -35 8 -107q2 -22 -12 -76l-9 -32q-20 -82 -86 -127q-22 -15 -86 -37q-38 -14 -38 -45q0 -10 2 -25q16 -41 82 -121q73 -88 94 -129q49 -94 51 -217q2 -69 -70 -106q-55 -29 -131 -29
q-82 0 -133 31q-41 31 -63 137q-27 129 -48 166q-43 80 -135 78q-55 4 -55 -51q0 -39 21.5 -116t21.5 -116t-18 -61q-64 -80 -191 -80q-57 0 -115 18q-73 23 -94 62q-55 186 -55 612q0 379 49 592zM391 1004q0 -54 29 -92t82 -38q155 0 147 130q-6 98 -143 98
q-115 0 -115 -98z" />
    <glyph glyph-name="S" unicode="S" 
d="M1040 1257q15 -24 15 -55q0 -63 -56.5 -126.5t-119.5 -63.5q-23 0 -43 12q-109 66 -191 66q-125 0 -117 -109q7 -98 271 -178q153 -45 217.5 -133t64.5 -248q0 -279 -239 -387q-137 -45 -295 -45q-166 0 -303 47q-170 59 -244 176q0 119 12 172q33 137 135 137
q41 0 146.5 -60.5t152.5 -60.5q48 0 86 39q5 17 5 29q0 47 -56 72q-35 16 -139 34q-137 25 -218 127.5t-81 243.5q0 225 174 389q170 158 397 158q172 0 271 -66q61 -41 155 -170z" />
    <glyph glyph-name="T" unicode="T" 
d="M70 1458q170 31 471 31q276 0 493 -31q72 -33 72 -203q0 -153 -59 -184q-39 -49 -101 -49q-31 0 -90 18.5t-86 18.5q-31 0 -45 -23q-8 -12 -8 -55q0 -131 33.5 -393t33.5 -393q0 -111 -24 -129q-80 -62 -228 -62q-141 0 -178 80q-22 22 -22 121q0 129 40 386t40 386
q0 41 -9 47q-14 31 -51 31q-28 0 -93.5 -17.5t-100.5 -17.5q-49 0 -88 20q-68 35 -68 207q0 170 68 211z" />
    <glyph glyph-name="U" unicode="U" horiz-adv-x="1239" 
d="M514 1343q-12 -133 -35 -292q-26 -187 -26 -279q0 -188 110 -192q111 -5 111 204q0 103 -27 285q-31 211 -35 268q-6 76 64 117q57 33 137 33q88 0 156 -41q75 -45 94 -127q33 -152 33 -352q0 -211 -47 -465q-62 -342 -170 -406q-52 -94 -324 -94q-291 0 -330 100
q-125 107 -182 375q-43 197 -43 428q0 203 41 402q20 94 92 139t166 45q72 0 135 -27q82 -34 82 -98q0 -6 -2 -23z" />
    <glyph glyph-name="V" unicode="V" horiz-adv-x="1219" 
d="M465 1339q20 -292 31 -401q36 -324 86 -330q41 -4 43 260q2 369 18 484q-12 71 74 106q61 27 143 27q84 0 154 -27q98 -37 92 -108q-31 -410 -84 -740q-78 -473 -174 -538q-86 -72 -246 -72q-174 0 -256 59q-125 93 -242 535q-112 430 -104 727q2 76 100 123
q80 37 166 37q189 0 199 -142z" />
    <glyph glyph-name="W" unicode="W" horiz-adv-x="1229" 
d="M0 1395q0 55 86 82q57 18 129 18q199 0 199 -92q4 -43 -17 -160q-24 -139 -24 -186q0 -96 53 -111q14 0 42 80t83 80q51 0 78 -41q14 -23 30 -76q15 -43 27 -43q47 4 47 131q0 76 -10 170l-18 156q-7 49 71 72q53 16 117 16q72 0 129 -18q84 -27 84 -84
q0 -590 -141 -1278q-33 -99 -154 -99q-74 0 -123 39q-57 43 -55 115q-12 203 -76 215q-43 -8 -55 -70l-17 -145q7 -78 -49 -119q-47 -37 -127 -37q-53 0 -100 21q-59 22 -72 67q-45 160 -94 670q-43 455 -43 627z" />
    <glyph glyph-name="X" unicode="X" horiz-adv-x="1198" 
d="M41 1280q-2 82 76 147q73 60 157 60q62 0 115 -31q39 -29 103 -211q57 -164 94 -164q26 0 65 156q43 180 82 223q58 41 131 41q86 0 152.5 -52t64.5 -136q-2 -129 -63 -252q-33 -66 -119 -191q-68 -98 -74 -139q6 -49 119 -209q107 -151 129 -262q21 -41 21 -96
q0 -78 -51.5 -120t-131.5 -42q-45 0 -98 14q-57 -6 -94 93q-21 63 -62 188q-36 104 -84 106q-38 0 -86 -106q-41 -94 -86 -195q-55 -102 -129 -102q-102 -2 -174.5 65.5t-72.5 170.5q0 110 94 245q8 11 121 148q57 69 55 108q-4 45 -68 142q-102 153 -121 188
q-63 119 -65 213z" />
    <glyph glyph-name="Y" unicode="Y" horiz-adv-x="1174" 
d="M43 1372q0 51 90 86q72 29 133 29q90 0 105 -53q26 -35 49 -121q26 -99 41 -127q31 -62 90 -60q123 7 168 301q14 58 131 58q74 0 141 -29q84 -37 84 -102q-33 -336 -67 -441q-68 -202 -250 -245q-10 -23 -10 -70q0 -70 19 -209t19 -209q0 -51 -6 -78q-20 -94 -211 -94
q-67 0 -143 21q-102 26 -107 73q-4 68 17 238q22 182 22 238q0 59 -14 86q-190 69 -256 280q-45 143 -45 428z" />
    <glyph glyph-name="Z" unicode="Z" horiz-adv-x="1223" 
d="M57 1413q127 80 445 80q356 0 504 -104q79 -84 79 -271q0 -194 -45 -266q-34 -80 -272 -209q-221 -121 -217 -182q8 -29 57 -29q56 0 163.5 26.5t162.5 26.5q39 0 59 -12q51 -20 82 -92q25 -62 25 -125q0 -147 -119 -190q-63 -39 -240 -60q-135 -16 -254 -16
q-294 0 -391 76q-90 40 -90 268q0 102 25 158q24 92 168 192q108 70 217 141q170 117 170 158q0 16 -13 29q-26 57 -106 57q-57 0 -170 -34t-166 -34q-45 0 -61 27q-64 33 -64 209q0 131 51 176z" />
    <glyph glyph-name="bracketleft" unicode="[" horiz-adv-x="1122" 
d="M621 1493q43 0 126.5 2t124.5 2q111 0 132 -47q12 -29 14 -231q0 -103 -123 -103h-45q-64 2 -49 2q-158 0 -213 -112q-41 -84 -31 -261q-18 -380 221 -380q29 0 85.5 7t84.5 7q78 0 80 -70q4 -133 4 -155q0 -125 -43 -144q-18 -10 -194 -10q-271 0 -344 14
q-222 43 -301 289q-50 158 -48 447q4 469 117 630q80 115 270 115h66q14 0 39 -2h27z" />
    <glyph glyph-name="backslash" unicode="\" horiz-adv-x="1120" 
d="M383 1454q78 -86 328 -536q264 -478 321 -680q10 -35 10 -64q0 -78 -58 -124t-138 -46q-78 0 -144 43q-141 191 -362 610q-240 451 -293 656q-6 82 70 135q67 47 151 47q78 0 115 -41z" />
    <glyph glyph-name="bracketright" unicode="]" horiz-adv-x="1147" 
d="M485 1493h27q25 2 39 2h65q191 0 271 -115q112 -161 117 -630q2 -289 -48 -447q-79 -246 -301 -289q-73 -14 -344 -14q-176 0 -194 10q-43 19 -43 144q0 22 4 155q2 70 80 70q28 0 84.5 -7t85.5 -7q239 0 221 380q10 177 -31 261q-55 112 -213 112q14 0 -49 -2h-45
q-123 0 -123 103q2 202 14 231q21 47 131 47q41 0 125 -2t127 -2z" />
    <glyph glyph-name="asciicircum" unicode="^" horiz-adv-x="1174" 
d="M811 1370q223 -201 223 -342q0 -59 -29.5 -102t-86.5 -43q-35 0 -69 15t-142 157q-101 131 -138 131q-47 0 -118 -115q-93 -147 -136 -186q-28 -19 -63 -19q-62 0 -96.5 49.5t-34.5 112.5q22 123 174 293q158 178 274 186q93 -4 242 -137z" />
    <glyph glyph-name="underscore" unicode="_" horiz-adv-x="1210" 
d="M150 324q122 22 376 22q303 0 455 -22q82 -13 82 -134q0 -96 -64 -149q-198 -21 -518 -21q-223 0 -344 15q-57 28 -57 135q0 121 70 154z" />
    <glyph glyph-name="grave" unicode="`" horiz-adv-x="950" 
d="M336 1350q0 59 39 98t98 39q121 0 242 -113q84 -96 84 -188q0 -66 -42 -107t-108 -41q-108 0 -205 95q-108 104 -108 217z" />
    <glyph glyph-name="a" unicode="a" horiz-adv-x="1214" 
d="M109 1233q124 123 415 123q289 0 406 -139q84 -50 119 -314q22 -166 22 -358q0 -320 -53 -441q-19 -98 -156 -98q-108 0 -123 64q-98 -43 -217 -43q-252 0 -397 131q-102 133 -102 309q0 147 88 229q118 111 272 111q96 0 270 -64q78 0 78 88q0 58 -37 108t-90 69
q-67 22 -135 22q-66 0 -156 -41t-116 -41q-41 0 -88 31q-52 72 -52 137q0 68 52 117zM350 430q0 -49 29 -68q16 -10 72 -16q59 -6 104 10q57 21 57 76q0 90 -145 111q-53 8 -85 -25t-32 -88z" />
    <glyph glyph-name="b" unicode="b" horiz-adv-x="1171" 
d="M96 1413q29 80 187 80q163 0 184 -76q4 -10 4 -28q0 -70 -29.5 -209.5t-29.5 -210.5q0 -103 34 -156q11 -14 29 -14q12 0 99.5 34.5t146.5 34.5q108 0 227 -67q135 -121 135 -320q0 -198 -129 -352q-47 -57 -178 -92q-121 -33 -258 -33q-121 0 -227 27q-152 37 -187 114
q-65 146 -65 566q0 250 18.5 454.5t38.5 247.5zM438 438q0 -47 45 -75.5t90 -20.5q138 25 138 102q0 17 -6 41q-21 82 -107 82q-25 0 -78 -8q-82 -12 -82 -121z" />
    <glyph glyph-name="c" unicode="c" horiz-adv-x="1176" 
d="M766 1276q78 -14 125 -65.5t47 -127.5q0 -65 -35 -100q-231 -74 -289 -102q-174 -90 -174 -230q0 -82 78 -188q88 -55 170 -55q90 0 197 65q37 16 73 16q62 0 99 -41.5t30 -103.5q-10 -119 -55 -175t-178 -112q-90 -37 -184 -37q-70 0 -201 31q-176 66 -195 76
q-63 35 -135 117q-125 145 -125 397q0 82 19 150q123 245 313 366q100 78 236 103q34 6 184 16z" />
    <glyph glyph-name="d" unicode="d" horiz-adv-x="1214" 
d="M1010 1413q20 -43 38.5 -247.5t18.5 -454.5q0 -420 -66 -566q-34 -77 -186 -114q-106 -27 -227 -27q-137 0 -258 33q-131 35 -178 92q-129 154 -129 352q0 199 135 320q118 67 227 67q59 0 146 -34.5t100 -34.5q18 0 28 14q35 53 35 156q0 71 -29.5 210.5t-29.5 209.5
q0 18 4 28q20 76 184 76q158 0 187 -80zM668 438q0 109 -82 121q-54 8 -78 8q-86 0 -107 -82q-6 -24 -6 -41q0 -77 137 -102q46 -8 91 20.5t45 75.5z" />
    <glyph glyph-name="e" unicode="e" 
d="M598 1276q82 6 86 6q344 0 344 -408q-47 -278 -289 -278q-43 0 -128 17.5t-124 17.5q-14 0 -20 -4q-35 -21 -35 -60q0 -35 25.5 -64.5t60.5 -39.5q160 -43 195 -43q88 0 172 53q37 16 73 16q62 0 99 -41.5t30 -103.5q-10 -119 -55 -175t-178 -112q-90 -37 -184 -37
q-70 0 -201 31q-176 66 -195 76q-63 35 -135 117q-125 145 -125 397q0 61 19 150q84 405 375 471q116 12 190 14zM492 958q0 -36 32.5 -57.5t71.5 -21.5q37 0 69.5 21.5t32.5 57.5q0 37 -32.5 58.5t-69.5 21.5q-39 0 -71.5 -21.5t-32.5 -58.5z" />
    <glyph glyph-name="f" unicode="f" horiz-adv-x="1196" 
d="M82 1044q16 7 39 7q26 0 87.5 -13.5t92.5 -13.5q45 0 82 20q25 15 14 86q-16 115 -14 150q10 217 285 217q106 0 202 -43q50 -51 52 -55q18 -27 18 -58q0 -32 -22 -100q-62 -33 -101 -33q-10 0 -29.5 4.5t-29.5 4.5q-70 0 -70 -78q0 -54 31 -88q18 -35 149 -15
q144 21 181 -10q45 -27 45 -133q0 -47 -13 -100q-14 -74 -43 -86q-45 -21 -172 -7q-112 15 -127 -14q-18 -18 -18 -98q0 -76 15.5 -226.5t15.5 -226.5q0 -49 -7 -78q-26 -55 -176 -55q-182 0 -192 76q-17 51 -17 137q0 66 13.5 196t13.5 195q0 113 -78 113
q-30 0 -88.5 -12.5t-89.5 -12.5q-29 0 -49 11q-76 20 -76 172q0 151 76 167z" />
    <glyph glyph-name="g" unicode="g" horiz-adv-x="1227" 
d="M244 -168q-158 109 -203 178q-14 21 -41 123q10 53 57 94t103 41q33 0 67 -14q95 -72 203 -72q100 0 191 60q98 67 98 164q0 38 -23 69q-10 14 -30 14q-15 0 -113 -35.5t-164 -35.5q-113 0 -231 67q-135 121 -135 320q0 194 129 352q108 131 378 131q123 0 238 -31
q141 -38 206.5 -110t96.5 -254q25 -135 25 -275q0 -335 -125 -563q-152 -274 -449 -274q-127 0 -278 51zM688 868q0 47 -45 76t-90 21q-137 -25 -137 -103q0 -16 6 -41q20 -82 106 -82q25 0 78 9q82 12 82 120z" />
    <glyph glyph-name="h" unicode="h" horiz-adv-x="1159" 
d="M70 1403q14 90 153 90q43 0 107 -14q82 -19 82 -47q20 -25 20 -95q0 -69 -21.5 -209.5t-21.5 -209.5q0 -97 35 -97q20 0 109.5 25.5t144.5 25.5q94 0 207 -26q186 -70 186 -471q0 -254 -43 -330q-20 -47 -137 -47q-105 0 -140.5 35t-35.5 135q0 33 5 99.5t5 99.5
q0 151 -107 151q-53 0 -139 -35q-43 -10 -43 -108q0 -37 6.5 -107.5t6.5 -107.5q0 -68 -17 -97q-14 -65 -162 -65q-155 0 -174 65q-47 635 -47 965q0 242 21 375z" />
    <glyph glyph-name="i" unicode="i" horiz-adv-x="610" 
d="M57 870q37 68 181 68q155 0 198 -76q33 -59 33 -407q0 -308 -27 -394q-28 -67 -198 -67q-156 0 -183 61q-45 103 -45 447q0 313 41 368zM12 1276q15 223 262 219q95 -2 140 -42t67 -132q8 -33 8 -64q0 -108 -72.5 -169.5t-183.5 -61.5q-98 0 -162.5 76t-58.5 174z" />
    <glyph glyph-name="j" unicode="j" horiz-adv-x="1206" 
d="M682 795q0 63 68 102q55 33 122 33q142 0 166 -125q52 -262 52 -481q0 -289 -115 -416q-119 -133 -402 -133q-182 0 -323 82q-154 88 -217 249q-23 58 -23 113q0 107 111 150q57 16 90 16q53 0 111 -53q16 -15 84 -94q36 -43 112 -43q103 0 160 57q53 82 53 203
q0 59 -24.5 171.5t-24.5 168.5zM524 1276q15 223 262 219q95 -2 140 -42t67 -132q8 -33 8 -66q0 -108 -72.5 -168.5t-183.5 -60.5q-98 0 -162.5 76t-58.5 174z" />
    <glyph glyph-name="k" unicode="k" horiz-adv-x="1206" 
d="M55 1425q11 70 168 70q199 0 207 -106q6 -35 6 -105v-82q0 -16 -2 -49v-35q0 -200 53 -229q72 -15 121 88q23 49 88 197q62 110 146 110t161.5 -62.5t77.5 -144.5q0 -22 -8 -49q-59 -201 -307 -346q135 -64 222 -192t104 -279q8 -82 -70 -135q-68 -45 -154 -45
q-80 0 -131 39q-35 45 -75 149q-50 127 -70 158q-45 72 -105 72q-16 0 -34 -5q-47 -28 -47 -108q0 -76 47 -223q-25 -107 -183 -107q-88 0 -149 41q-68 47 -72 131q-24 565 -24 719q0 330 30 528z" />
    <glyph glyph-name="l" unicode="l" horiz-adv-x="834" 
d="M63 1370q37 103 213 103q170 0 211 -91q19 -59 19 -147q0 -100 -35 -297t-35 -295q0 -45 8 -70q-2 -30 -2 -49q0 -143 181 -133q122 -4 122 -160q0 -122 -83 -165q-121 -62 -244 -62q-189 0 -303 152q-88 116 -88 540q0 283 36 674z" />
    <glyph glyph-name="m" unicode="m" horiz-adv-x="1235" 
d="M1042 55q-32 -59 -131 -59q-86 0 -102 65q-27 31 -27 189v145q0 140 -26 135q-35 2 -35 -174v-30q2 -31 2 -47v-78q0 -117 -14 -152q-11 -26 -74 -41q-49 -12 -90 -12q-109 0 -129 59q-8 25 -8 86q0 35 2 105.5t2 105.5q0 164 -41 166q-33 2 -33 -217q0 -108 8 -246
q-33 -57 -133 -57q-39 0 -84 12q-61 17 -66 45q-43 291 -43 686q0 365 43 455q29 86 162 86q123 0 133 -61l19 -113q-8 72 59 123q60 45 135 45q140 0 187 -146q30 142 149 142q94 0 144 -98q36 -152 36 -506q0 -459 -45 -613z" />
    <glyph glyph-name="n" unicode="n" horiz-adv-x="1235" 
d="M438 82q2 -80 -180 -80q-184 0 -197 74q-45 266 -45 641q0 381 47 479q29 88 146 88q51 0 92 -20q51 -25 55 -70q0 -27 4 -33q7 -12 31 -14q43 -4 76 27q39 38 84 57q78 33 158 33q149 0 258.5 -99.5t107.5 -246.5q17 -144 17 -330q0 -367 -50 -533q-30 -57 -180 -57
q-135 0 -151 68q-19 20 -19 133q0 47 3 142t3 142q0 326 -100 310q-20 -5 -106 -21q-52 -10 -62 -86q-4 -20 -4 -117q0 35 12 -487z" />
    <glyph glyph-name="o" unicode="o" 
d="M377 1278q323 0 485 -156q152 -147 203 -477q4 -252 -31 -356q-41 -123 -184 -228q-191 -55 -332 -55q-153 0 -282 60q-113 112 -159 214.5t-46 258.5q0 77 12 178q63 233 107 325q86 183 227 236zM379 598q-6 -121 153 -121q166 0 166 203q0 70 -75 111q-66 34 -138 30
q-36 -2 -73 -96q-31 -78 -33 -127z" />
    <glyph glyph-name="p" unicode="p" horiz-adv-x="1178" 
d="M100 -147q-20 43 -38.5 251.5t-18.5 462.5q0 428 66 574q34 78 186 114q106 27 227 27q137 0 258 -33q131 -35 178 -92q129 -153 129 -352t-135 -320q-118 -67 -227 -67q-59 0 -146 34.5t-100 34.5q-18 0 -28 -14q-35 -53 -35 -158q0 -73 29.5 -219.5t29.5 -218.5
q0 -18 -4 -29q-20 -75 -184 -75q-158 0 -187 80zM442 848q0 -109 82 -121q54 -8 78 -8q86 0 107 82q6 24 6 41q0 78 -137 102q-46 8 -91 -20.5t-45 -75.5z" />
    <glyph glyph-name="q" unicode="q" 
d="M1010 -147q-29 -80 -187 -80q-164 0 -184 75q-4 11 -4 29q0 72 29.5 218.5t29.5 219.5q0 105 -35 158q-10 14 -28 14q-13 0 -100 -34.5t-146 -34.5q-109 0 -227 67q-135 121 -135 320t129 352q47 57 178 92q121 33 258 33q121 0 227 -27q152 -36 186 -114
q66 -146 66 -574q0 -254 -18.5 -462.5t-38.5 -251.5zM668 848q0 47 -45 75.5t-91 20.5q-137 -24 -137 -102q0 -17 6 -41q21 -82 107 -82q24 0 78 8q82 12 82 121z" />
    <glyph glyph-name="r" unicode="r" horiz-adv-x="1167" 
d="M82 1208q16 37 96 56q58 14 115 14q147 0 156 -70q20 -22 12 -67q-10 -54 -12 -64q0 -24 47 -18q194 112 395 112q47 0 94 -6q59 4 92 -51q25 -43 25 -108q0 -50 -17 -93q-22 -55 -63 -59q-201 -43 -301 -63q-189 -43 -229 -109q-29 -29 -29 -102q0 -66 26.5 -199
t26.5 -199q0 -63 -27 -86q-40 -86 -186 -86q-151 0 -184 86q-49 29 -78 332q-21 211 -21 369q0 331 62 411z" />
    <glyph glyph-name="s" unicode="s" horiz-adv-x="1196" 
d="M1040 1075q15 -20 15 -45q0 -57 -58.5 -108.5t-117.5 -51.5q-23 0 -43 11q-109 55 -191 55q-49 0 -82 -21q-39 -26 -35 -71q7 -84 271 -150q145 -37 209 -102q73 -76 73 -217q0 -242 -239 -326q-127 -45 -310 -45q-153 0 -288 41q-168 53 -244 154q0 108 12 149
q33 111 135 111q46 0 148 -51.5t151 -51.5q48 0 86 33q5 14 5 25q0 63 -195 90q-135 18 -219 110q-80 86 -80 199q0 201 190 338q173 123 381 123q172 0 271 -55q61 -35 155 -144z" />
    <glyph glyph-name="t" unicode="t" horiz-adv-x="1198" 
d="M82 872q-76 17 -76 168q0 152 76 172q24 13 63 13q31 0 89.5 -9.5t89.5 -9.5q32 0 47 13q24 36 24 53q-22 100 -18 158q6 69 176 69q59 0 115 -14q82 -23 84 -66q2 -33 -8.5 -124t-10.5 -46q0 -53 139 -35q123 17 166 -4q29 -12 43 -86q13 -53 13 -100q0 -106 -45 -133
q-37 -31 -181 -10q-131 20 -149 -15q-37 -41 -37 -239q0 -197 53 -217q23 -9 39 -9q23 0 73 34t95 34q23 0 49 -6q109 -45 109 -170q0 -127 -139 -203q-152 -82 -318 -82q-205 0 -291 162q-33 61 -33 186q0 76 19.5 227.5t19.5 227.5q0 53 -16 61q-37 21 -76 21
q-24 0 -74.5 -13.5t-74.5 -13.5q-19 0 -35 6z" />
    <glyph glyph-name="u" unicode="u" horiz-adv-x="1235" 
d="M514 1153q-12 -113 -35 -252q-26 -160 -26 -239q0 -162 110 -166q111 -4 111 176q0 88 -27 246q-31 184 -35 229q-6 67 68 102q57 27 133 27q84 0 152 -33q79 -39 98 -110q33 -132 33 -304q0 -184 -47 -403q-64 -291 -170 -346q-52 -80 -324 -80q-289 0 -330 86
q-123 88 -182 317q-43 170 -43 373q0 176 41 346q18 80 94 121q68 37 164 37q70 0 131 -20q86 -31 86 -86q0 -7 -2 -21z" />
    <glyph glyph-name="v" unicode="v" horiz-adv-x="1227" 
d="M465 1149l41 -406q24 -219 76 -223q41 -4 43 223q2 318 18 416q-12 64 78 94q63 21 139 21q82 0 150 -21q102 -30 96 -96q-31 -354 -84 -637q-41 -221 -59 -278q-41 -123 -117 -179q-88 -63 -258 -63q-166 0 -242 47q-127 78 -242 459q-112 371 -104 627q2 67 106 106
q78 31 160 31q74 0 127 -25q72 -31 72 -96z" />
    <glyph glyph-name="w" unicode="w" horiz-adv-x="1243" 
d="M0 1169q0 56 86 82q57 19 129 19q199 0 199 -92q4 -43 -17 -160q-24 -139 -24 -187q0 -96 53 -110q14 0 42 80t83 80q51 0 78 -41q14 -23 30 -76q15 -43 27 -43q47 4 47 131q0 76 -10 170l-18 156q-7 49 71 71q53 17 117 17q72 0 129 -19q84 -26 84 -84
q0 -387 -141 -1073q-35 -92 -158 -92q-70 0 -123 40t-51 107q-12 203 -76 215q-43 -8 -55 -69l-17 -146q11 -75 -55 -114q-51 -33 -131 -33q-139 0 -162 80q-49 180 -94 567q-43 373 -43 524z" />
    <glyph glyph-name="x" unicode="x" horiz-adv-x="1202" 
d="M35 1096q-2 73 82 127q73 47 151 47q62 0 115 -27q39 -24 102 -176q60 -137 95 -137q26 0 65 131q43 149 82 186q57 35 131 35q80 0 143 -39q76 -45 74 -121q-2 -104 -63 -215q-37 -65 -119 -172q-68 -88 -74 -121q6 -34 120 -175.5t128 -219.5q18 -41 18 -76
q0 -71 -63 -108q-51 -31 -127 -31q-41 0 -88 10q-59 2 -96 86q-27 70 -56 140q-43 96 -88 98q-39 0 -86 -88l-86 -164q-55 -86 -129 -86q-96 -2 -168 49q-80 57 -80 150q0 82 72 176q25 33 133 143q68 70 66 100q-2 27 -127 204t-127 274z" />
    <glyph glyph-name="y" unicode="y" horiz-adv-x="1178" 
d="M4 1159q0 64 100 98q76 25 154 25q158 0 168 -76q16 -112 33 -198q22 -119 92 -134q74 0 98 125q10 68 35 203q21 72 180 72q80 0 142 -29q84 -37 79 -106q-6 -115 -69 -275q-51 -129 -170 -360q-70 -135 -211 -404q-176 -319 -324 -311q-133 6 -202 76q-46 45 -46 84
q0 94 177 354q125 184 125 207q0 8 -9 12q-184 68 -280 299q-72 172 -72 338z" />
    <glyph glyph-name="z" unicode="z" horiz-adv-x="1219" 
d="M57 1217q136 65 455 65q350 0 494 -86q79 -74 79 -233q0 -168 -45 -230q-34 -67 -272 -178q-221 -102 -217 -158q8 -24 57 -24q56 0 163.5 23.5t162.5 23.5q39 0 59 -12q49 -19 80 -78q27 -51 27 -109q0 -127 -119 -164q-107 -57 -461 -57q-307 0 -424 57q-90 35 -90 232
q0 88 25 135q24 80 168 166q108 59 215 121q172 100 172 137q0 12 -13 22q-26 52 -106 52q-57 0 -169 -30t-167 -30q-45 0 -61 23q-64 28 -64 180q0 113 51 152z" />
    <glyph glyph-name="braceleft" unicode="{" horiz-adv-x="1071" 
d="M575 1493q52 8 99 8q108 0 184 -35q100 -49 100 -145q0 -35 -12 -72q-20 -61 -98 -61q-27 0 -81 10t-81 10q-57 0 -57 -53q0 -29 14 -76q-6 -86 -55 -143q-60 -51 -88 -78q-45 -43 -47 -106q0 -50 45 -88l88 -76q47 -56 49 -137q-43 -72 -43 -107q0 -39 55 -39
q35 0 105.5 12.5t107.5 12.5q94 0 115 -66q10 -33 10 -61q0 -105 -119 -156q-88 -39 -209 -39q-155 0 -284 55q-168 72 -168 205q0 90 82 197q10 65 -66 151t-76 125q0 58 72 135.5t74 143.5q-66 100 -66 192q0 226 350 281z" />
    <glyph glyph-name="bar" unicode="|" horiz-adv-x="618" 
d="M57 1464q6 43 185 43q170 0 194 -51q33 -67 33 -721q0 -594 -27 -674q-22 -67 -196 -67q-158 0 -185 61q-45 103 -45 762q0 592 41 647z" />
    <glyph glyph-name="braceright" unicode="}" horiz-adv-x="1057" 
d="M498 1493q350 -55 350 -281q0 -92 -66 -192q2 -66 74 -143.5t72 -135.5q0 -39 -76 -125t-66 -151q82 -107 82 -197q0 -133 -168 -205q-129 -55 -284 -55q-121 0 -209 39q-119 51 -119 156q0 28 10 61q21 66 115 66q37 0 107.5 -12.5t105.5 -12.5q55 0 55 39q0 35 -43 107
q2 81 49 137l88 76q46 38 46 88q-3 63 -48 106q-28 27 -88 78q-49 57 -55 143q14 47 14 76q0 53 -57 53q-27 0 -81 -10t-81 -10q-78 0 -98 61q-12 37 -12 72q0 96 100 145q76 35 184 35q47 0 99 -8z" />
    <glyph glyph-name="asciitilde" unicode="~" horiz-adv-x="1208" 
d="M379 1151q-33 -8 -68 -43q-12 -16 -37 -47q-61 -70 -131 -70q-53 0 -82.5 41t-29.5 96q0 117 119 254q34 41 103 76t120 35q125 0 178 -43q10 -8 59 -82q29 -43 95 -45q43 0 79 51q27 39 60 82q45 35 96 35q61 0 102 -46t41 -110q0 -63 -41 -127q-65 -102 -124 -147
q-89 -68 -218 -72q-94 -4 -155 41q-15 10 -82 84q-39 43 -84 37z" />
    <glyph glyph-name="dieresis" unicode="&#xa8;" horiz-adv-x="1024" 
 />
    <glyph glyph-name="copyright" unicode="&#xa9;" horiz-adv-x="1245" 
d="M659 911q-81 -6 -104 -10q-76 -14 -131 -57q-107 -68 -176 -205q-10 -37 -10 -84q0 -139 69 -221q45 -53 76 -66q6 -6 109 -43q73 -16 112 -16q53 0 105 20q69 27 94.5 57.5t36.5 102.5q2 82 -74 82q-21 0 -41 -10q-59 -37 -111 -37q-45 0 -94 33q-45 57 -45 104
q0 80 98 129q29 15 162 58q21 18 21 55q0 90 -97 108zM1118 557q0 -233 -161.5 -396t-395.5 -163q-233 0 -396 163t-163 396q0 234 163 396.5t396 162.5q234 0 395.5 -162.5t161.5 -396.5zM1020 557q0 193 -133 327t-326 134q-192 0 -326.5 -134t-134.5 -327
q0 -192 134.5 -326.5t326.5 -134.5q193 0 326 134.5t133 326.5z" />
    <glyph glyph-name="registered" unicode="&#xae;" horiz-adv-x="1245" 
d="M532 948q111 0 195 -51q96 -59 100 -164q2 -74 -2 -92l-4 -16q-14 -58 -69 -76q-39 -12 -35 -41q4 -4 65 -86q47 -64 49 -146q3 -67 -100 -67q-41 0 -67 14q-19 15 -41 113q-19 80 -80 78q-29 2 -29 -25q0 -20 10.5 -58t10.5 -59q0 -20 -9 -30q-30 -39 -94 -39
q-86 0 -104 39q-29 92 -29 305q0 198 25.5 299.5t207.5 101.5zM496 707q0 -64 55 -64q78 0 74 64q-4 49 -72 49q-57 0 -57 -49zM1118 557q0 -233 -161.5 -396t-395.5 -163q-233 0 -396 163t-163 396q0 234 163 396.5t396 162.5q234 0 395.5 -162.5t161.5 -396.5zM1020 557
q0 193 -133 327t-326 134q-192 0 -326.5 -134t-134.5 -327q0 -192 134.5 -326.5t326.5 -134.5q193 0 326 134.5t133 326.5z" />
    <glyph glyph-name="acute" unicode="&#xb4;" horiz-adv-x="1024" 
 />
    <glyph glyph-name="paragraph" unicode="&#xb6;" horiz-adv-x="1220" 
d="M1156 1343h-153v-1677h-146v1677h-205v-1677h-145v1077q-426 0 -426 369q0 207 125 299q107 80 315 80h635v-148z" />
    <glyph glyph-name=".notdef.107" unicode="&#xc0;" horiz-adv-x="1212" 
d="M227 1372q58 121 318 121q98 0 182 -27q113 -32 145 -100q72 -141 150 -588q76 -422 76 -616q0 -88 -19 -101q-14 -26 -84 -45q-57 -14 -98 -14q-98 0 -166 59q-63 103 -78 201q-8 72 -26 213q-15 60 -68 60q-22 0 -49 -15.5t-25 -38.5q-6 -86 -22 -256
q-12 -125 -60 -164q-67 -57 -170 -57q-135 0 -196 80q-21 18 -21 139q0 234 58 572q67 395 153 577zM412 954q0 -49 36.5 -80.5t86.5 -31.5q49 0 86.5 31.5t37.5 80.5q0 50 -37.5 81.5t-86.5 31.5q-50 0 -86.5 -31.5t-36.5 -81.5zM262 1769q-5 53 25 86t107 27
q152 -16 295 -98q112 -62 136 -125q0 -80 -34.5 -100.5t-108.5 -20.5q-115 17 -243 78q-192 99 -177 153z" />
    <glyph glyph-name=".notdef.108" unicode="&#xc1;" horiz-adv-x="1212" 
d="M227 1372q58 121 318 121q98 0 182 -27q113 -32 145 -100q72 -141 150 -588q76 -422 76 -616q0 -88 -19 -101q-14 -26 -84 -45q-57 -14 -98 -14q-98 0 -166 59q-63 103 -78 201q-8 72 -26 213q-15 60 -68 60q-22 0 -49 -15.5t-25 -38.5q-6 -86 -22 -256
q-12 -125 -60 -164q-67 -57 -170 -57q-135 0 -196 80q-21 18 -21 139q0 234 58 572q67 395 153 577zM412 954q0 -49 36.5 -80.5t86.5 -31.5q49 0 86.5 31.5t37.5 80.5q0 50 -37.5 81.5t-86.5 31.5q-50 0 -86.5 -31.5t-36.5 -81.5zM830 1769q15 -54 -177 -153
q-128 -61 -243 -78q-74 0 -108.5 20.5t-34.5 100.5q24 63 136 125q143 82 295 98q77 6 107 -27t25 -86z" />
    <glyph glyph-name=".notdef.112" unicode="&#xc2;" horiz-adv-x="1212" 
d="M227 1372q58 121 318 121q98 0 182 -27q113 -32 145 -100q72 -141 150 -588q76 -422 76 -616q0 -88 -19 -101q-14 -26 -84 -45q-57 -14 -98 -14q-98 0 -166 59q-63 103 -78 201q-8 72 -26 213q-15 60 -68 60q-22 0 -49 -15.5t-25 -38.5q-6 -86 -22 -256
q-12 -125 -60 -164q-67 -57 -170 -57q-135 0 -196 80q-21 18 -21 139q0 234 58 572q67 395 153 577zM412 954q0 -49 36.5 -80.5t86.5 -31.5q49 0 86.5 31.5t37.5 80.5q0 50 -37.5 81.5t-86.5 31.5q-50 0 -86.5 -31.5t-36.5 -81.5zM713 1850q74 -57 111.5 -107.5t36.5 -92.5
q0 -23 -7.5 -43t-21.5 -35t-35 -23.5t-49 -8.5q-16 0 -31 4t-29 9q-17 7 -43 31.5t-58 59.5q-42 51 -46 51q-6 0 -35 -41q-30 -38 -51 -61.5t-35 -34.5q-18 -11 -35 -15.5t-36 -4.5q-29 0 -51.5 11t-37.5 28t-23 39.5t-8 46.5q7 32 38 75.5t80 88.5q51 48 102 75t94 28
q72 -2 170 -80z" />
    <glyph glyph-name=".notdef.110" unicode="&#xc3;" horiz-adv-x="1212" 
d="M227 1372q58 121 318 121q98 0 182 -27q113 -32 145 -100q72 -141 150 -588q76 -422 76 -616q0 -88 -19 -101q-14 -26 -84 -45q-57 -14 -98 -14q-98 0 -166 59q-63 103 -78 201q-8 72 -26 213q-15 60 -68 60q-22 0 -49 -15.5t-25 -38.5q-6 -86 -22 -256
q-12 -125 -60 -164q-67 -57 -170 -57q-135 0 -196 80q-21 18 -21 139q0 234 58 572q67 395 153 577zM412 954q0 -49 36.5 -80.5t86.5 -31.5q49 0 86.5 31.5t37.5 80.5q0 50 -37.5 81.5t-86.5 31.5q-50 0 -86.5 -31.5t-36.5 -81.5zM489 1620q-19 20 -41 20q-8 -3 -18.5 -7.5
t-20.5 -13.5q-3 -8 -9 -15.5l-14 -17.5q-21 -23 -44.5 -33.5t-47.5 -10.5q-38 0 -60 27.5t-22 65.5q0 37 19.5 78.5t57.5 86.5q13 12 31.5 24.5t41.5 23.5h-1q23 13 42 18.5t38 5.5q41 0 71.5 -8.5t50.5 -22.5q1 -1 5.5 -7.5t12.5 -17.5q5 -5 10 -11.5t10 -14.5
q8 -11 20.5 -16t31.5 -7q21 0 42 28l13.5 18l13.5 18h-1q2 2 5.5 6t6.5 8q34 26 68 26q23 0 42 -8.5t33 -23.5t21.5 -34t7.5 -40q0 -23 -7.5 -43.5t-20.5 -41.5q-43 -62 -82 -95q-59 -42 -145 -45q-31 -2 -57.5 5.5t-46.5 21.5q-8 6 -22 18t-35 35z" />
    <glyph glyph-name=".notdef.124" unicode="&#xc8;" horiz-adv-x="1157" 
d="M145 1372q80 109 383 109q224 0 400 -74q65 -84 65 -160q0 -61 -47 -98q-14 -10 -41 -10q-31 0 -103.5 13t-109.5 13q-78 0 -135 -35q-65 -40 -65 -114q0 -66 45 -90q41 -31 186 -39q160 -10 192 -21q52 -32 52 -116q0 -64 -45 -91q-33 -6 -86 -6h-54q-73 2 -55 2
q-154 0 -197 -67q11 -242 471 -232q78 -22 78 -139q0 -115 -100 -162q-111 -51 -358 -51q-404 0 -504 180q-78 140 -78 568q0 475 106 620zM262 1769q-5 53 25 86t107 27q152 -16 295 -98q112 -62 136 -125q0 -80 -34.5 -100.5t-108.5 -20.5q-115 17 -243 78
q-192 99 -177 153z" />
    <glyph glyph-name=".notdef.125" unicode="&#xc9;" horiz-adv-x="1157" 
d="M145 1372q80 109 383 109q224 0 400 -74q65 -84 65 -160q0 -61 -47 -98q-14 -10 -41 -10q-31 0 -103.5 13t-109.5 13q-78 0 -135 -35q-65 -40 -65 -114q0 -66 45 -90q41 -31 186 -39q160 -10 192 -21q52 -32 52 -116q0 -64 -45 -91q-33 -6 -86 -6h-54q-73 2 -55 2
q-154 0 -197 -67q11 -242 471 -232q78 -22 78 -139q0 -115 -100 -162q-111 -51 -358 -51q-404 0 -504 180q-78 140 -78 568q0 475 106 620zM896 1769q15 -54 -177 -153q-128 -61 -243 -78q-74 0 -108.5 20.5t-34.5 100.5q24 63 136 125q143 82 295 98q77 6 107 -27t25 -86z
" />
    <glyph glyph-name=".notdef.129" unicode="&#xca;" horiz-adv-x="1157" 
d="M145 1372q80 109 383 109q224 0 400 -74q65 -84 65 -160q0 -61 -47 -98q-14 -10 -41 -10q-31 0 -103.5 13t-109.5 13q-78 0 -135 -35q-65 -40 -65 -114q0 -66 45 -90q41 -31 186 -39q160 -10 192 -21q52 -32 52 -116q0 -64 -45 -91q-33 -6 -86 -6h-54q-73 2 -55 2
q-154 0 -197 -67q11 -242 471 -232q78 -22 78 -139q0 -115 -100 -162q-111 -51 -358 -51q-404 0 -504 180q-78 140 -78 568q0 475 106 620zM713 1851q74 -57 111.5 -107.5t36.5 -92.5q0 -23 -7.5 -43t-21.5 -35t-35 -23.5t-49 -8.5q-16 0 -31 4t-29 9q-17 7 -43 31.5
t-58 59.5q-42 51 -46 51q-6 0 -35 -41q-30 -38 -51 -61.5t-35 -34.5q-18 -11 -35 -15.5t-36 -4.5q-29 0 -51.5 11t-37.5 28t-23 39.5t-8 46.5q7 32 38 75.5t80 88.5q51 48 102 75t94 28q72 -2 170 -80z" />
    <glyph glyph-name=".notdef.104" unicode="&#xcc;" horiz-adv-x="618" 
d="M57 1403q37 67 181 67q155 0 198 -75q33 -60 33 -690q0 -558 -27 -644q-28 -67 -198 -67q-156 0 -183 61q-45 103 -45 729q0 564 41 619zM-96 1769q-5 53 25 86t107 27q152 -16 295 -98q112 -62 136 -125q0 -80 -34.5 -100.5t-108.5 -20.5q-115 17 -243 78
q-192 99 -177 153z" />
    <glyph glyph-name=".notdef.103" unicode="&#xcd;" horiz-adv-x="618" 
d="M57 1403q37 67 181 67q155 0 198 -75q33 -60 33 -690q0 -558 -27 -644q-28 -67 -198 -67q-156 0 -183 61q-45 103 -45 729q0 564 41 619zM587 1769q15 -54 -177 -153q-128 -61 -243 -78q-74 0 -108.5 20.5t-34.5 100.5q24 63 136 125q143 82 295 98q77 6 107 -27t25 -86z
" />
    <glyph glyph-name="Eth" unicode="&#xd0;" horiz-adv-x="1219" 
d="M61 944q0 350 21.5 414.5t150.5 97.5q95 25 193 25q262 0 442 -129q74 -54 144 -250q78 -219 78 -443q0 -299 -150 -497q-61 -82 -219 -127q-125 -35 -256 -35q-236 0 -330 96q-74 105 -74 848zM459 737q0 -90 12 -121q21 -53 94 -53q70 0 107 58q30 49 30 122
q0 205 -194 205q-57 0 -57 -63q0 -25 4 -74t4 -74z" />
    <glyph glyph-name=".notdef.099" unicode="&#xd2;" horiz-adv-x="1202" 
d="M383 1487q338 0 504 -203q135 -170 184 -532q4 -289 -33 -416q-43 -146 -182 -264q-190 -64 -334 -64q-153 0 -280 70q-113 127 -159 251t-46 296q0 92 12 209q62 266 107 376q88 215 227 277zM412 705q-9 -140 153 -140q101 0 137 72q29 53 29 164q0 76 -67.5 123
t-145.5 41q-37 -4 -74 -115q-30 -90 -32 -145zM262 1769q-5 53 25 86t107 27q152 -16 295 -98q112 -62 136 -125q0 -80 -34.5 -100.5t-108.5 -20.5q-115 17 -243 78q-192 99 -177 153z" />
    <glyph glyph-name=".notdef.098" unicode="&#xd3;" horiz-adv-x="1202" 
d="M383 1487q-139 -62 -227 -277q-45 -110 -107 -376q-12 -117 -12 -209q0 -172 46 -296t159 -251q127 -70 280 -70q144 0 334 64q139 118 182 264q37 127 33 416q-49 362 -184 532q-166 203 -504 203zM412 705q2 55 32 145q37 111 74 115q78 6 145.5 -41t67.5 -123
q0 -111 -29 -164q-36 -72 -137 -72q-162 0 -153 140zM804 1769q15 -54 -177 -153q-128 -61 -243 -78q-74 0 -108.5 20.5t-34.5 100.5q24 63 136 125q143 82 295 98q77 6 107 -27t25 -86z" />
    <glyph glyph-name=".notdef.094" unicode="&#xd4;" horiz-adv-x="1202" 
d="M383 1487q338 0 504 -203q135 -170 184 -532q4 -289 -33 -416q-43 -146 -182 -264q-190 -64 -334 -64q-153 0 -280 70q-113 127 -159 251t-46 296q0 92 12 209q62 266 107 376q88 215 227 277zM412 705q-9 -140 153 -140q101 0 137 72q29 53 29 164q0 76 -67.5 123
t-145.5 41q-37 -4 -74 -115q-30 -90 -32 -145zM713 1851q74 -57 111.5 -107.5t36.5 -92.5q0 -23 -7.5 -43t-21.5 -35t-35 -23.5t-49 -8.5q-16 0 -31 4t-29 9q-17 7 -43 31.5t-58 59.5q-42 51 -46 51q-6 0 -35 -41q-30 -38 -51 -61.5t-35 -34.5q-18 -11 -35 -15.5t-36 -4.5
q-29 0 -51.5 11t-37.5 28t-23 39.5t-8 46.5q7 32 38 75.5t80 88.5q51 48 102 75t94 28q72 -2 170 -80z" />
    <glyph glyph-name=".notdef.096" unicode="&#xd5;" horiz-adv-x="1202" 
d="M383 1487q-139 -62 -227 -277q-45 -110 -107 -376q-12 -117 -12 -209q0 -172 46 -296t159 -251q127 -70 280 -70q144 0 334 64q139 118 182 264q37 127 33 416q-49 362 -184 532q-166 203 -504 203zM412 705q2 55 32 145q37 111 74 115q78 6 145.5 -41t67.5 -123
q0 -111 -29 -164q-36 -72 -137 -72q-162 0 -153 140zM510 1620q-19 20 -41 20q-8 -3 -18.5 -7.5t-20.5 -13.5q-3 -8 -9 -15.5l-14 -17.5q-21 -23 -44.5 -33.5t-47.5 -10.5q-38 0 -60 27.5t-22 65.5q0 37 19.5 78.5t57.5 86.5q13 12 31.5 24.5t41.5 23.5h-1q23 13 42 18.5
t38 5.5q41 0 71.5 -8.5t50.5 -22.5q1 -1 5.5 -7.5t12.5 -17.5q5 -5 10 -11.5t10 -14.5q8 -11 20.5 -16t31.5 -7q21 0 42 28l13.5 18l13.5 18h-1q2 2 5.5 6t6.5 8q34 26 68 26q23 0 42 -8.5t33 -23.5t21.5 -34t7.5 -40q0 -23 -7.5 -43.5t-20.5 -41.5q-43 -62 -82 -95
q-59 -42 -145 -45q-31 -2 -57.5 5.5t-46.5 21.5q-8 6 -22 18t-35 35z" />
    <glyph glyph-name=".notdef.088" unicode="&#xd9;" horiz-adv-x="1239" 
d="M514 1343q-12 -133 -35 -292q-26 -187 -26 -279q0 -188 110 -192q111 -5 111 204q0 103 -27 285q-31 211 -35 268q-6 76 64 117q57 33 137 33q88 0 156 -41q75 -45 94 -127q33 -152 33 -352q0 -211 -47 -465q-62 -342 -170 -406q-52 -94 -324 -94q-291 0 -330 100
q-125 107 -182 375q-43 197 -43 428q0 203 41 402q20 94 92 139t166 45q72 0 135 -27q82 -34 82 -98q0 -6 -2 -23zM251 1769q-5 53 25 86t107 27q152 -16 295 -98q112 -62 136 -125q0 -80 -34.5 -100.5t-108.5 -20.5q-115 17 -243 78q-192 99 -177 153z" />
    <glyph glyph-name=".notdef.087" unicode="&#xda;" horiz-adv-x="1239" 
d="M514 1343q-12 -133 -35 -292q-26 -187 -26 -279q0 -188 110 -192q111 -5 111 204q0 103 -27 285q-31 211 -35 268q-6 76 64 117q57 33 137 33q88 0 156 -41q75 -45 94 -127q33 -152 33 -352q0 -211 -47 -465q-62 -342 -170 -406q-52 -94 -324 -94q-291 0 -330 100
q-125 107 -182 375q-43 197 -43 428q0 203 41 402q20 94 92 139t166 45q72 0 135 -27q82 -34 82 -98q0 -6 -2 -23zM863 1772q15 -54 -177 -153q-128 -61 -243 -78q-74 0 -108.5 20.5t-34.5 100.5q24 63 136 125q143 82 295 98q77 6 107 -27t25 -86z" />
    <glyph glyph-name=".notdef.070" unicode="&#xdd;" horiz-adv-x="1174" 
d="M43 1372q0 51 90 86q72 29 133 29q90 0 105 -53q26 -35 49 -121q26 -99 41 -127q31 -62 90 -60q123 7 168 301q14 58 131 58q74 0 141 -29q84 -37 84 -102q-33 -336 -67 -441q-68 -202 -250 -245q-10 -23 -10 -70q0 -70 19 -209t19 -209q0 -51 -6 -78q-20 -94 -211 -94
q-67 0 -143 21q-102 26 -107 73q-4 68 17 238q22 182 22 238q0 59 -14 86q-190 69 -256 280q-45 143 -45 428zM832 1769q15 -54 -177 -153q-128 -61 -243 -78q-74 0 -108.5 20.5t-34.5 100.5q24 63 136 125q143 82 295 98q77 6 107 -27t25 -86z" />
    <glyph glyph-name=".notdef.066" unicode="&#xe0;" horiz-adv-x="1214" 
d="M109 1233q124 123 415 123q289 0 406 -139q84 -50 119 -314q22 -166 22 -358q0 -320 -53 -441q-19 -98 -156 -98q-108 0 -123 64q-98 -43 -217 -43q-252 0 -397 131q-102 133 -102 309q0 147 88 229q118 111 272 111q96 0 270 -64q78 0 78 88q0 58 -37 108t-90 69
q-67 22 -135 22q-66 0 -156 -41t-116 -41q-41 0 -88 31q-52 72 -52 137q0 68 52 117zM350 430q0 -49 29 -68q16 -10 72 -16q59 -6 104 10q57 21 57 76q0 90 -145 111q-53 8 -85 -25t-32 -88zM277 1652q-5 53 25 86t107 27q152 -16 295 -98q112 -62 136 -125
q0 -80 -34.5 -100.5t-108.5 -20.5q-115 17 -243 78q-192 99 -177 153z" />
    <glyph glyph-name=".notdef.065" unicode="&#xe1;" horiz-adv-x="1214" 
d="M109 1233q124 123 415 123q289 0 406 -139q84 -50 119 -314q22 -166 22 -358q0 -320 -53 -441q-19 -98 -156 -98q-108 0 -123 64q-98 -43 -217 -43q-252 0 -397 131q-102 133 -102 309q0 147 88 229q118 111 272 111q96 0 270 -64q78 0 78 88q0 58 -37 108t-90 69
q-67 22 -135 22q-66 0 -156 -41t-116 -41q-41 0 -88 31q-52 72 -52 137q0 68 52 117zM350 430q0 -49 29 -68q16 -10 72 -16q59 -6 104 10q57 21 57 76q0 90 -145 111q-53 8 -85 -25t-32 -88zM886 1653q15 -54 -177 -153q-128 -61 -243 -78q-74 0 -108.5 20.5t-34.5 100.5
q24 63 136 125q143 82 295 98q77 6 107 -27t25 -86z" />
    <glyph glyph-name=".notdef.061" unicode="&#xe2;" horiz-adv-x="1214" 
d="M109 1233q124 123 415 123q289 0 406 -139q84 -50 119 -314q22 -166 22 -358q0 -320 -53 -441q-19 -98 -156 -98q-108 0 -123 64q-98 -43 -217 -43q-252 0 -397 131q-102 133 -102 309q0 147 88 229q118 111 272 111q96 0 270 -64q78 0 78 88q0 58 -37 108t-90 69
q-67 22 -135 22q-66 0 -156 -41t-116 -41q-41 0 -88 31q-52 72 -52 137q0 68 52 117zM350 430q0 -49 29 -68q16 -10 72 -16q59 -6 104 10q57 21 57 76q0 90 -145 111q-53 8 -85 -25t-32 -88zM731 1735q74 -57 111.5 -107.5t36.5 -92.5q0 -23 -7.5 -43t-21.5 -35t-35 -23.5
t-49 -8.5q-16 0 -31 4t-29 9q-17 7 -43 31.5t-58 59.5q-42 51 -46 51q-6 0 -35 -41q-30 -38 -51 -61.5t-35 -34.5q-18 -11 -35 -15.5t-36 -4.5q-29 0 -51.5 11t-37.5 28t-23 39.5t-8 46.5q7 32 38 75.5t80 88.5q51 48 102 75t94 28q72 -2 170 -80z" />
    <glyph glyph-name=".notdef.063" unicode="&#xe3;" horiz-adv-x="1214" 
d="M109 1233q124 123 415 123q289 0 406 -139q84 -50 119 -314q22 -166 22 -358q0 -320 -53 -441q-19 -98 -156 -98q-108 0 -123 64q-98 -43 -217 -43q-252 0 -397 131q-102 133 -102 309q0 147 88 229q118 111 272 111q96 0 270 -64q78 0 78 88q0 58 -37 108t-90 69
q-67 22 -135 22q-66 0 -156 -41t-116 -41q-41 0 -88 31q-52 72 -52 137q0 68 52 117zM350 430q0 -49 29 -68q16 -10 72 -16q59 -6 104 10q57 21 57 76q0 90 -145 111q-53 8 -85 -25t-32 -88zM510 1504q-19 20 -41 20q-8 -3 -18.5 -7.5t-20.5 -13.5q-3 -8 -9 -15.5l-14 -17.5
q-21 -23 -44.5 -33.5t-47.5 -10.5q-38 0 -60 27.5t-22 65.5q0 37 19.5 78.5t57.5 86.5q13 12 31.5 24.5t41.5 23.5h-1q23 13 42 18.5t38 5.5q41 0 71.5 -8.5t50.5 -22.5q1 -1 5.5 -7.5t12.5 -17.5q5 -5 10 -11.5t10 -14.5q8 -11 20.5 -16t31.5 -7q21 0 42 28l13.5 18
l13.5 18h-1q2 2 5.5 6t6.5 8q34 26 68 26q23 0 42 -8.5t33 -23.5t21.5 -34t7.5 -40q0 -23 -7.5 -43.5t-20.5 -41.5q-43 -62 -82 -95q-59 -42 -145 -45q-31 -2 -57.5 5.5t-46.5 21.5q-8 6 -22 18t-35 35z" />
    <glyph glyph-name=".notdef.049" unicode="&#xe8;" 
d="M598 1276q82 6 86 6q344 0 344 -408q-47 -278 -289 -278q-43 0 -128 17.5t-124 17.5q-14 0 -20 -4q-35 -21 -35 -60q0 -35 25.5 -64.5t60.5 -39.5q160 -43 195 -43q88 0 172 53q37 16 73 16q62 0 99 -41.5t30 -103.5q-10 -119 -55 -175t-178 -112q-90 -37 -184 -37
q-70 0 -201 31q-176 66 -195 76q-63 35 -135 117q-125 145 -125 397q0 61 19 150q84 405 375 471q116 12 190 14zM492 958q0 -36 32.5 -57.5t71.5 -21.5q37 0 69.5 21.5t32.5 57.5q0 37 -32.5 58.5t-69.5 21.5q-39 0 -71.5 -21.5t-32.5 -58.5zM257 1586q-5 53 25 86t107 27
q152 -16 295 -98q112 -62 136 -125q0 -80 -34.5 -100.5t-108.5 -20.5q-115 17 -243 78q-192 99 -177 153z" />
    <glyph glyph-name=".notdef.048" unicode="&#xe9;" 
d="M598 1276q-74 -2 -190 -14q-291 -66 -375 -471q-19 -89 -19 -150q0 -252 125 -397q72 -82 135 -117q19 -10 195 -76q131 -31 201 -31q94 0 184 37q133 56 178 112t55 175q7 62 -30 103.5t-99 41.5q-36 0 -73 -16q-84 -53 -172 -53q-35 0 -195 43q-35 10 -60.5 39.5
t-25.5 64.5q0 39 35 60q6 4 20 4q39 0 124 -17.5t128 -17.5q242 0 289 278q0 408 -344 408q-4 0 -86 -6zM492 958q0 37 32.5 58.5t71.5 21.5q37 0 69.5 -21.5t32.5 -58.5q0 -36 -32.5 -57.5t-69.5 -21.5q-39 0 -71.5 21.5t-32.5 57.5zM865 1572q15 -54 -177 -153
q-128 -61 -243 -78q-74 0 -108.5 20.5t-34.5 100.5q24 63 136 125q143 82 295 98q77 6 107 -27t25 -86z" />
    <glyph glyph-name=".notdef.044" unicode="&#xea;" 
d="M598 1276q82 6 86 6q344 0 344 -408q-47 -278 -289 -278q-43 0 -128 17.5t-124 17.5q-14 0 -20 -4q-35 -21 -35 -60q0 -35 25.5 -64.5t60.5 -39.5q160 -43 195 -43q88 0 172 53q37 16 73 16q62 0 99 -41.5t30 -103.5q-10 -119 -55 -175t-178 -112q-90 -37 -184 -37
q-70 0 -201 31q-176 66 -195 76q-63 35 -135 117q-125 145 -125 397q0 61 19 150q84 405 375 471q116 12 190 14zM492 958q0 -36 32.5 -57.5t71.5 -21.5q37 0 69.5 21.5t32.5 57.5q0 37 -32.5 58.5t-69.5 21.5q-39 0 -71.5 -21.5t-32.5 -58.5zM731 1660q74 -57 111.5 -107.5
t36.5 -92.5q0 -23 -7.5 -43t-21.5 -35t-35 -23.5t-49 -8.5q-16 0 -31 4t-29 9q-17 7 -43 31.5t-58 59.5q-42 51 -46 51q-6 0 -35 -41q-30 -38 -51 -61.5t-35 -34.5q-18 -11 -35 -15.5t-36 -4.5q-29 0 -51.5 11t-37.5 28t-23 39.5t-8 46.5q7 32 38 75.5t80 88.5q51 48 102 75
t94 28q72 -2 170 -80z" />
    <glyph glyph-name=".notdef.038" unicode="&#xec;" horiz-adv-x="610" 
d="M57 870q37 68 181 68q155 0 198 -76q33 -59 33 -407q0 -308 -27 -394q-28 -67 -198 -67q-156 0 -183 61q-45 103 -45 447q0 313 41 368zM-60 1250q-5 53 25 86t107 27q152 -16 295 -98q112 -62 136 -125q0 -80 -34.5 -100.5t-108.5 -20.5q-115 17 -243 78
q-192 99 -177 153z" />
    <glyph glyph-name=".notdef.037" unicode="&#xed;" horiz-adv-x="610" 
d="M57 870q37 68 181 68q155 0 198 -76q33 -59 33 -407q0 -308 -27 -394q-28 -67 -198 -67q-156 0 -183 61q-45 103 -45 447q0 313 41 368zM564 1240q15 -54 -177 -153q-128 -61 -243 -78q-74 0 -108.5 20.5t-34.5 100.5q24 63 136 125q143 82 295 98q77 6 107 -27t25 -86z
" />
    <glyph glyph-name=".notdef.033" unicode="&#xf2;" 
d="M377 1278q323 0 485 -156q152 -147 203 -477q4 -252 -31 -356q-41 -123 -184 -228q-191 -55 -332 -55q-153 0 -282 60q-113 112 -159 214.5t-46 258.5q0 77 12 178q63 233 107 325q86 183 227 236zM379 598q-6 -121 153 -121q166 0 166 203q0 70 -75 111q-66 34 -138 30
q-36 -2 -73 -96q-31 -78 -33 -127zM252 1571q-5 53 25 86t107 27q152 -16 295 -98q112 -62 136 -125q0 -80 -34.5 -100.5t-108.5 -20.5q-115 17 -243 78q-192 99 -177 153z" />
    <glyph glyph-name=".notdef.032" unicode="&#xf3;" 
d="M377 1278q-141 -53 -227 -236q-44 -92 -107 -325q-12 -101 -12 -178q0 -156 46 -258.5t159 -214.5q129 -60 282 -60q141 0 332 55q143 105 184 228q35 104 31 356q-51 330 -203 477q-162 156 -485 156zM379 598q2 49 33 127q37 94 73 96q72 4 138 -30q75 -41 75 -111
q0 -203 -166 -203q-159 0 -153 121zM865 1572q15 -54 -177 -153q-128 -61 -243 -78q-74 0 -108.5 20.5t-34.5 100.5q24 63 136 125q143 82 295 98q77 6 107 -27t25 -86z" />
    <glyph glyph-name=".notdef.028" unicode="&#xf4;" 
d="M377 1278q323 0 485 -156q152 -147 203 -477q4 -252 -31 -356q-41 -123 -184 -228q-191 -55 -332 -55q-153 0 -282 60q-113 112 -159 214.5t-46 258.5q0 77 12 178q63 233 107 325q86 183 227 236zM379 598q-6 -121 153 -121q166 0 166 203q0 70 -75 111q-66 34 -138 30
q-36 -2 -73 -96q-31 -78 -33 -127zM731 1663q74 -57 111.5 -107.5t36.5 -92.5q0 -23 -7.5 -43t-21.5 -35t-35 -23.5t-49 -8.5q-16 0 -31 4t-29 9q-17 7 -43 31.5t-58 59.5q-42 51 -46 51q-6 0 -35 -41q-30 -38 -51 -61.5t-35 -34.5q-18 -11 -35 -15.5t-36 -4.5
q-29 0 -51.5 11t-37.5 28t-23 39.5t-8 46.5q7 32 38 75.5t80 88.5q51 48 102 75t94 28q72 -2 170 -80z" />
    <glyph glyph-name=".notdef.030" unicode="&#xf5;" 
d="M377 1278q-141 -53 -227 -236q-44 -92 -107 -325q-12 -101 -12 -178q0 -156 46 -258.5t159 -214.5q129 -60 282 -60q141 0 332 55q143 105 184 228q35 104 31 356q-51 330 -203 477q-162 156 -485 156zM379 598q2 49 33 127q37 94 73 96q72 4 138 -30q75 -41 75 -111
q0 -203 -166 -203q-159 0 -153 121zM471 1432q-19 20 -41 20q-8 -3 -18.5 -7.5t-20.5 -13.5q-3 -8 -9 -15.5l-14 -17.5q-21 -23 -44.5 -33.5t-47.5 -10.5q-38 0 -60 27.5t-22 65.5q0 37 19.5 78.5t57.5 86.5q13 12 31.5 24.5t41.5 23.5h-1q23 13 42 18.5t38 5.5
q41 0 71.5 -8.5t50.5 -22.5q1 -1 5.5 -7.5t12.5 -17.5q5 -5 10 -11.5t10 -14.5q8 -11 20.5 -16t31.5 -7q21 0 42 28l13.5 18l13.5 18h-1q2 2 5.5 6t6.5 8q34 26 68 26q23 0 42 -8.5t33 -23.5t21.5 -34t7.5 -40q0 -23 -7.5 -43.5t-20.5 -41.5q-43 -62 -82 -95
q-59 -42 -145 -45q-31 -2 -57.5 5.5t-46.5 21.5q-8 6 -22 18t-35 35z" />
    <glyph glyph-name="divide" unicode="&#xf7;" horiz-adv-x="1706" 
 />
    <glyph glyph-name=".notdef.022" unicode="&#xf9;" horiz-adv-x="1235" 
d="M514 1153q-12 -113 -35 -252q-26 -160 -26 -239q0 -162 110 -166q111 -4 111 176q0 88 -27 246q-31 184 -35 229q-6 67 68 102q57 27 133 27q84 0 152 -33q79 -39 98 -110q33 -132 33 -304q0 -184 -47 -403q-64 -291 -170 -346q-52 -80 -324 -80q-289 0 -330 86
q-123 88 -182 317q-43 170 -43 373q0 176 41 346q18 80 94 121q68 37 164 37q70 0 131 -20q86 -31 86 -86q0 -7 -2 -21zM248 1575q-5 53 25 86t107 27q152 -16 295 -98q112 -62 136 -125q0 -80 -34.5 -100.5t-108.5 -20.5q-115 17 -243 78q-192 99 -177 153z" />
    <glyph glyph-name=".notdef.021" unicode="&#xfa;" horiz-adv-x="1235" 
d="M514 1153q-12 -113 -35 -252q-26 -160 -26 -239q0 -162 110 -166q111 -4 111 176q0 88 -27 246q-31 184 -35 229q-6 67 68 102q57 27 133 27q84 0 152 -33q79 -39 98 -110q33 -132 33 -304q0 -184 -47 -403q-64 -291 -170 -346q-52 -80 -324 -80q-289 0 -330 86
q-123 88 -182 317q-43 170 -43 373q0 176 41 346q18 80 94 121q68 37 164 37q70 0 131 -20q86 -31 86 -86q0 -7 -2 -21zM865 1572q15 -54 -177 -153q-128 -61 -243 -78q-74 0 -108.5 20.5t-34.5 100.5q24 63 136 125q143 82 295 98q77 6 107 -27t25 -86z" />
    <glyph glyph-name=".notdef.004" unicode="&#xfd;" horiz-adv-x="1178" 
d="M4 1159q0 64 100 98q76 25 154 25q158 0 168 -76q16 -112 33 -198q22 -119 92 -134q74 0 98 125q10 68 35 203q21 72 180 72q80 0 142 -29q84 -37 79 -106q-6 -115 -69 -275q-51 -129 -170 -360q-70 -135 -211 -404q-176 -319 -324 -311q-133 6 -202 76q-46 45 -46 84
q0 94 177 354q125 184 125 207q0 8 -9 12q-184 68 -280 299q-72 172 -72 338zM865 1572q15 -54 -177 -153q-128 -61 -243 -78q-74 0 -108.5 20.5t-34.5 100.5q24 63 136 125q143 82 295 98q77 6 107 -27t25 -86z" />
    <glyph glyph-name=".notdef.118" unicode="&#x102;" horiz-adv-x="1212" 
d="M227 1372q58 121 318 121q98 0 182 -27q113 -32 145 -100q72 -141 150 -588q76 -422 76 -616q0 -88 -19 -101q-14 -26 -84 -45q-57 -14 -98 -14q-98 0 -166 59q-63 103 -78 201q-8 72 -26 213q-15 60 -68 60q-22 0 -49 -15.5t-25 -38.5q-6 -86 -22 -256
q-12 -125 -60 -164q-67 -57 -170 -57q-135 0 -196 80q-21 18 -21 139q0 234 58 572q67 395 153 577zM412 954q0 -49 36.5 -80.5t86.5 -31.5q49 0 86.5 31.5t37.5 80.5q0 50 -37.5 81.5t-86.5 31.5q-50 0 -86.5 -31.5t-36.5 -81.5zM355 1614q-37 26 -60.5 52t-36.5 50.5
t-17.5 46.5t-4.5 41q0 41 29 71t85 29q16 0 31 -3.5t29 -8.5q9 -3 16.5 -12t16.5 -22t20 -28.5t27 -31.5q11 -11 23.5 -20t23.5 -15t18.5 -9l7.5 -3q1 0 7 3t14 8.5t17.5 13.5t17.5 17q15 18 23.5 33.5t14 27.5t10.5 20.5t12 13.5q18 10 35 14t36 4q30 0 52.5 -10
t37.5 -25.5t23 -36t8 -42.5q-3 -15 -11 -36t-20.5 -44t-31 -46.5t-42.5 -43.5q-26 -21 -54 -35t-55.5 -22t-53.5 -11.5t-47 -3.5q-18 0 -42.5 3.5t-51.5 11t-54.5 19.5t-52.5 30z" />
    <glyph glyph-name=".notdef.055" unicode="&#x103;" horiz-adv-x="1214" 
d="M109 1233q124 123 415 123q289 0 406 -139q84 -50 119 -314q22 -166 22 -358q0 -320 -53 -441q-19 -98 -156 -98q-108 0 -123 64q-98 -43 -217 -43q-252 0 -397 131q-102 133 -102 309q0 147 88 229q118 111 272 111q96 0 270 -64q78 0 78 88q0 58 -37 108t-90 69
q-67 22 -135 22q-66 0 -156 -41t-116 -41q-41 0 -88 31q-52 72 -52 137q0 68 52 117zM350 430q0 -49 29 -68q16 -10 72 -16q59 -6 104 10q57 21 57 76q0 90 -145 111q-53 8 -85 -25t-32 -88zM364 1487q-37 26 -60.5 52t-36.5 50.5t-17.5 46.5t-4.5 41q0 41 29 71t85 29
q16 0 31 -3.5t29 -8.5q9 -3 16.5 -12t16.5 -22t20 -28.5t27 -31.5q11 -11 23.5 -20t23.5 -15t18.5 -9l7.5 -3q1 0 7 3t14 8.5t17.5 13.5t17.5 17q15 18 23.5 33.5t14 27.5t10.5 20.5t12 13.5q18 10 35 14t36 4q30 0 52.5 -10t37.5 -25.5t23 -36t8 -42.5q-3 -15 -11 -36
t-20.5 -44t-31 -46.5t-42.5 -43.5q-26 -21 -54 -35t-55.5 -22t-53.5 -11.5t-47 -3.5q-18 0 -42.5 3.5t-51.5 11t-54.5 19.5t-52.5 30z" />
    <glyph glyph-name="Ccaron" unicode="&#x10c;" horiz-adv-x="1274" 
 />
    <glyph glyph-name="ccaron" unicode="&#x10d;" horiz-adv-x="922" 
 />
    <glyph glyph-name="Dslash" unicode="&#x110;" horiz-adv-x="1303" 
d="M145 944q0 350 21.5 414.5t150.5 97.5q95 25 193 25q262 0 442 -129q74 -54 144 -250q78 -219 78 -443q0 -299 -150 -497q-61 -82 -219 -127q-125 -35 -256 -35q-236 0 -330 96q-74 105 -74 848zM543 737q0 -90 12 -121q21 -53 94 -53q70 0 107 58q30 49 30 122
q0 205 -194 205q-57 0 -57 -63q0 -25 4 -74t4 -74zM49 888q79 18 244 18q194 0 294 -18q52 -11 52 -113q0 -80 -41 -125q-128 -18 -333 -18q-145 0 -224 11q-38 24 -38 116q0 101 46 129z" />
    <glyph glyph-name="dcroat" unicode="&#x111;" horiz-adv-x="1256" 
d="M1010 1413q20 -43 38.5 -247.5t18.5 -454.5q0 -420 -66 -566q-34 -77 -186 -114q-106 -27 -227 -27q-137 0 -258 33q-131 35 -178 92q-129 154 -129 352q0 199 135 320q118 67 227 67q59 0 146 -34.5t100 -34.5q18 0 28 14q35 53 35 156q0 71 -29.5 210.5t-29.5 209.5
q0 18 4 28q20 76 184 76q158 0 187 -80zM668 438q0 109 -82 121q-54 8 -78 8q-86 0 -107 -82q-6 -24 -6 -41q0 -77 137 -102q46 -8 91 20.5t45 75.5zM517 1290q88 18 273 18q218 0 331 -18q58 -12 58 -115q0 -81 -46 -126q-144 -18 -374 -18q-162 0 -251 11q-43 25 -43 118
q0 102 52 130z" />
    <glyph glyph-name=".notdef.101" unicode="&#x128;" horiz-adv-x="618" 
d="M57 1403q37 67 181 67q155 0 198 -75q33 -60 33 -690q0 -558 -27 -644q-28 -67 -198 -67q-156 0 -183 61q-45 103 -45 729q0 564 41 619zM212 1620q-19 20 -41 20q-8 -3 -18.5 -7.5t-20.5 -13.5q-3 -8 -9 -15.5l-14 -17.5q-21 -23 -44.5 -33.5t-47.5 -10.5
q-38 0 -60 27.5t-22 65.5q0 37 19.5 78.5t57.5 86.5q13 12 31.5 24.5t41.5 23.5h-1q23 13 42 18.5t38 5.5q41 0 71.5 -8.5t50.5 -22.5q1 -1 5.5 -7.5t12.5 -17.5q5 -5 10 -11.5t10 -14.5q8 -11 20.5 -16t31.5 -7q21 0 42 28l13.5 18l13.5 18h-1q2 2 5.5 6t6.5 8q34 26 68 26
q23 0 42 -8.5t33 -23.5t21.5 -34t7.5 -40q0 -23 -7.5 -43.5t-20.5 -41.5q-43 -62 -82 -95q-59 -42 -145 -45q-31 -2 -57.5 5.5t-46.5 21.5q-8 6 -22 18t-35 35z" />
    <glyph glyph-name=".notdef.035" unicode="&#x129;" horiz-adv-x="610" 
d="M57 870q37 68 181 68q155 0 198 -76q33 -59 33 -407q0 -308 -27 -394q-28 -67 -198 -67q-156 0 -183 61q-45 103 -45 447q0 313 41 368zM201 1097q-19 20 -41 20q-8 -3 -18.5 -7.5t-20.5 -13.5q-3 -8 -9 -15.5l-14 -17.5q-21 -23 -44.5 -33.5t-47.5 -10.5q-38 0 -60 27.5
t-22 65.5q0 37 19.5 78.5t57.5 86.5q13 12 31.5 24.5t41.5 23.5h-1q23 13 42 18.5t38 5.5q41 0 71.5 -8.5t50.5 -22.5q1 -1 5.5 -7.5t12.5 -17.5q5 -5 10 -11.5t10 -14.5q8 -11 20.5 -16t31.5 -7q21 0 42 28l13.5 18l13.5 18h-1q2 2 5.5 6t6.5 8q34 26 68 26q23 0 42 -8.5
t33 -23.5t21.5 -34t7.5 -40q0 -23 -7.5 -43.5t-20.5 -41.5q-43 -62 -82 -95q-59 -42 -145 -45q-31 -2 -57.5 5.5t-46.5 21.5q-8 6 -22 18t-35 35z" />
    <glyph glyph-name=".notdef.085" unicode="&#x168;" horiz-adv-x="1239" 
d="M514 1343q-12 -133 -35 -292q-26 -187 -26 -279q0 -188 110 -192q111 -5 111 204q0 103 -27 285q-31 211 -35 268q-6 76 64 117q57 33 137 33q88 0 156 -41q75 -45 94 -127q33 -152 33 -352q0 -211 -47 -465q-62 -342 -170 -406q-52 -94 -324 -94q-291 0 -330 100
q-125 107 -182 375q-43 197 -43 428q0 203 41 402q20 94 92 139t166 45q72 0 135 -27q82 -34 82 -98q0 -6 -2 -23zM510 1620q-19 20 -41 20q-8 -3 -18.5 -7.5t-20.5 -13.5q-3 -8 -9 -15.5l-14 -17.5q-21 -23 -44.5 -33.5t-47.5 -10.5q-38 0 -60 27.5t-22 65.5
q0 37 19.5 78.5t57.5 86.5q13 12 31.5 24.5t41.5 23.5h-1q23 13 42 18.5t38 5.5q41 0 71.5 -8.5t50.5 -22.5q1 -1 5.5 -7.5t12.5 -17.5q5 -5 10 -11.5t10 -14.5q8 -11 20.5 -16t31.5 -7q21 0 42 28l13.5 18l13.5 18h-1q2 2 5.5 6t6.5 8q34 26 68 26q23 0 42 -8.5t33 -23.5
t21.5 -34t7.5 -40q0 -23 -7.5 -43.5t-20.5 -41.5q-43 -62 -82 -95q-59 -42 -145 -45q-31 -2 -57.5 5.5t-46.5 21.5q-8 6 -22 18t-35 35z" />
    <glyph glyph-name=".notdef.019" unicode="&#x169;" horiz-adv-x="1235" 
d="M514 1153q-12 -113 -35 -252q-26 -160 -26 -239q0 -162 110 -166q111 -4 111 176q0 88 -27 246q-31 184 -35 229q-6 67 68 102q57 27 133 27q84 0 152 -33q79 -39 98 -110q33 -132 33 -304q0 -184 -47 -403q-64 -291 -170 -346q-52 -80 -324 -80q-289 0 -330 86
q-123 88 -182 317q-43 170 -43 373q0 176 41 346q18 80 94 121q68 37 164 37q70 0 131 -20q86 -31 86 -86q0 -7 -2 -21zM528 1424q-19 20 -41 20q-8 -3 -18.5 -7.5t-20.5 -13.5q-3 -8 -9 -15.5l-14 -17.5q-21 -23 -44.5 -33.5t-47.5 -10.5q-38 0 -60 27.5t-22 65.5
q0 37 19.5 78.5t57.5 86.5q13 12 31.5 24.5t41.5 23.5h-1q23 13 42 18.5t38 5.5q41 0 71.5 -8.5t50.5 -22.5q1 -1 5.5 -7.5t12.5 -17.5q5 -5 10 -11.5t10 -14.5q8 -11 20.5 -16t31.5 -7q21 0 42 28l13.5 18l13.5 18h-1q2 2 5.5 6t6.5 8q34 26 68 26q23 0 42 -8.5t33 -23.5
t21.5 -34t7.5 -40q0 -23 -7.5 -43.5t-20.5 -41.5q-43 -62 -82 -95q-59 -42 -145 -45q-31 -2 -57.5 5.5t-46.5 21.5q-8 6 -22 18t-35 35z" />
    <glyph glyph-name=".notdef.077" unicode="&#x1a0;" horiz-adv-x="1197" 
d="M383 1487q338 0 504 -203q135 -170 184 -532q4 -289 -33 -416q-43 -146 -182 -264q-190 -64 -334 -64q-153 0 -280 70q-113 127 -159 251t-46 296q0 92 12 209q62 266 107 376q88 215 227 277zM412 705q-9 -140 153 -140q101 0 137 72q29 53 29 164q0 76 -67.5 123
t-145.5 41q-37 -4 -74 -115q-30 -90 -32 -145zM833 1723q37 7 77 0q72 -16 110.5 -71t25.5 -125q-20 -110 -133 -214q-98 -86 -228 -63q-48 12 -56.5 36.5t39.5 50.5q73 17 111.5 30.5t55.5 44.5q27 32 21 27q-143 24 -146 143q10 48 43.5 90.5t79.5 50.5z" />
    <glyph glyph-name=".notdef.011" unicode="&#x1a1;" horiz-adv-x="1201" 
d="M377 1278q323 0 485 -156q152 -147 203 -477q4 -252 -31 -356q-41 -123 -184 -228q-191 -55 -332 -55q-153 0 -282 60q-113 112 -159 214.5t-46 258.5q0 77 12 178q63 233 107 325q86 183 227 236zM379 598q-6 -121 153 -121q166 0 166 203q0 70 -75 111q-66 34 -138 30
q-36 -2 -73 -96q-31 -78 -33 -127zM797 1544q37 8 76 0q70 -14 108.5 -69t25.5 -123q-20 -108 -131 -211q-98 -85 -225 -62q-46 11 -55 35t38 50q72 17 109.5 31t55.5 43q28 32 21 27q-141 24 -144 140q9 49 42.5 90.5t78.5 48.5z" />
    <glyph glyph-name=".notdef.083" unicode="&#x1af;" horiz-adv-x="1233" 
d="M514 1343q-12 -133 -35 -292q-26 -187 -26 -279q0 -188 110 -192q111 -5 111 204q0 103 -27 285q-31 211 -35 268q-6 76 64 117q57 33 137 33q88 0 156 -41q75 -45 94 -127q33 -152 33 -352q0 -211 -47 -465q-62 -342 -170 -406q-52 -94 -324 -94q-291 0 -330 100
q-125 107 -182 375q-43 197 -43 428q0 203 41 402q20 94 92 139t166 45q72 0 135 -27q82 -34 82 -98q0 -6 -2 -23zM1078 1723q37 7 77 0q72 -16 110.5 -71t25.5 -125q-20 -110 -133 -214q-98 -86 -228 -63q-48 12 -56.5 36.5t39.5 50.5q73 17 111.5 30.5t55.5 44.5
q27 32 21 27q-143 24 -146 143q10 48 43.5 90.5t79.5 50.5z" />
    <glyph glyph-name=".notdef.017" unicode="&#x1b0;" horiz-adv-x="1218" 
d="M514 1153q-12 -113 -35 -252q-26 -160 -26 -239q0 -162 110 -166q111 -4 111 176q0 88 -27 246q-31 184 -35 229q-6 67 68 102q57 27 133 27q84 0 152 -33q79 -39 98 -110q33 -132 33 -304q0 -184 -47 -403q-64 -291 -170 -346q-52 -80 -324 -80q-289 0 -330 86
q-123 88 -182 317q-43 170 -43 373q0 176 41 346q18 80 94 121q68 37 164 37q70 0 131 -20q86 -31 86 -86q0 -7 -2 -21zM1030 1547q37 8 76 0q70 -14 108.5 -69t25.5 -123q-20 -108 -131 -211q-98 -85 -225 -62q-46 11 -55 35t38 50q72 17 109.5 31t55.5 43q28 32 21 27
q-141 24 -144 140q9 49 42.5 90.5t78.5 48.5z" />
    <glyph glyph-name=".notdef.111" unicode="&#x1ea0;" horiz-adv-x="1212" 
d="M227 1372q58 121 318 121q98 0 182 -27q113 -32 145 -100q72 -141 150 -588q76 -422 76 -616q0 -88 -19 -101q-14 -26 -84 -45q-57 -14 -98 -14q-98 0 -166 59q-63 103 -78 201q-8 72 -26 213q-15 60 -68 60q-22 0 -49 -15.5t-25 -38.5q-6 -86 -22 -256
q-12 -125 -60 -164q-67 -57 -170 -57q-135 0 -196 80q-21 18 -21 139q0 234 58 572q67 395 153 577zM412 954q0 -49 36.5 -80.5t86.5 -31.5q49 0 86.5 31.5t37.5 80.5q0 50 -37.5 81.5t-86.5 31.5q-50 0 -86.5 -31.5t-36.5 -81.5zM505 -67q29 13 63 13q87 0 139 -95
q16 -26 16 -62q0 -76 -75 -124q-33 -21 -75 -21q-65 0 -109.5 45t-44.5 112q0 98 86 132z" />
    <glyph glyph-name=".notdef.062" unicode="&#x1ea1;" horiz-adv-x="1214" 
d="M109 1233q124 123 415 123q289 0 406 -139q84 -50 119 -314q22 -166 22 -358q0 -320 -53 -441q-19 -98 -156 -98q-108 0 -123 64q-98 -43 -217 -43q-252 0 -397 131q-102 133 -102 309q0 147 88 229q118 111 272 111q96 0 270 -64q78 0 78 88q0 58 -37 108t-90 69
q-67 22 -135 22q-66 0 -156 -41t-116 -41q-41 0 -88 31q-52 72 -52 137q0 68 52 117zM350 430q0 -49 29 -68q16 -10 72 -16q59 -6 104 10q57 21 57 76q0 90 -145 111q-53 8 -85 -25t-32 -88zM505 -67q29 13 63 13q87 0 139 -95q16 -26 16 -62q0 -76 -75 -124
q-33 -21 -75 -21q-65 0 -109.5 45t-44.5 112q0 98 86 132z" />
    <glyph glyph-name=".notdef.109" unicode="&#x1ea2;" horiz-adv-x="1212" 
d="M227 1372q58 121 318 121q98 0 182 -27q113 -32 145 -100q72 -141 150 -588q76 -422 76 -616q0 -88 -19 -101q-14 -26 -84 -45q-57 -14 -98 -14q-98 0 -166 59q-63 103 -78 201q-8 72 -26 213q-15 60 -68 60q-22 0 -49 -15.5t-25 -38.5q-6 -86 -22 -256
q-12 -125 -60 -164q-67 -57 -170 -57q-135 0 -196 80q-21 18 -21 139q0 234 58 572q67 395 153 577zM412 954q0 -49 36.5 -80.5t86.5 -31.5q49 0 86.5 31.5t37.5 80.5q0 50 -37.5 81.5t-86.5 31.5q-50 0 -86.5 -31.5t-36.5 -81.5zM346 1840q0 5 1.5 10.5t3.5 16.5
q11 32 33 58.5t51 43.5q54 33 129 33q32 0 63.5 -7.5t58.5 -18.5q75 -37 87 -100v1q5 -15 6.5 -31t1.5 -34q0 -27 -6 -53.5t-18 -49.5t-33 -38t-44 -28q-3 -2 -13 -10t-15 -13l-41 -36v-2q-11 -17 -21 -29.5t-30 -12.5q-26 0 -42 15t-27 38l-2 4l-2 4q-5 14 -6.5 27t-1.5 24
q0 41 29 67q3 3 19 13.5t33 21.5q13 8 23 17.5t10 15.5q0 4 -3 10t-7 12q-13 23 -38 23q-47 0 -94 -59q-105 0 -105 67z" />
    <glyph glyph-name=".notdef.064" unicode="&#x1ea3;" horiz-adv-x="1214" 
d="M109 1233q124 123 415 123q289 0 406 -139q84 -50 119 -314q22 -166 22 -358q0 -320 -53 -441q-19 -98 -156 -98q-108 0 -123 64q-98 -43 -217 -43q-252 0 -397 131q-102 133 -102 309q0 147 88 229q118 111 272 111q96 0 270 -64q78 0 78 88q0 58 -37 108t-90 69
q-67 22 -135 22q-66 0 -156 -41t-116 -41q-41 0 -88 31q-52 72 -52 137q0 68 52 117zM350 430q0 -49 29 -68q16 -10 72 -16q59 -6 104 10q57 21 57 76q0 90 -145 111q-53 8 -85 -25t-32 -88zM342 1720q0 5 1.5 10.5t3.5 16.5q11 32 33 58.5t51 43.5q54 33 129 33
q32 0 63.5 -7.5t58.5 -18.5q75 -37 87 -100v1q5 -15 6.5 -31t1.5 -34q0 -27 -6 -53.5t-18 -49.5t-33 -38t-44 -28q-3 -2 -13 -10t-15 -13l-41 -36v-2q-11 -17 -21 -29.5t-30 -12.5q-26 0 -42 15t-27 38l-2 4l-2 4q-5 14 -6.5 27t-1.5 24q0 41 29 67q3 3 19 13.5t33 21.5
q13 8 23 17.5t10 15.5q0 4 -3 10t-7 12q-13 23 -38 23q-47 0 -94 -59q-105 0 -105 67z" />
    <glyph glyph-name=".notdef.114" unicode="&#x1ea4;" horiz-adv-x="1212" 
d="M227 1372q58 121 318 121q98 0 182 -27q113 -32 145 -100q72 -141 150 -588q76 -422 76 -616q0 -88 -19 -101q-14 -26 -84 -45q-57 -14 -98 -14q-98 0 -166 59q-63 103 -78 201q-8 72 -26 213q-15 60 -68 60q-22 0 -49 -15.5t-25 -38.5q-6 -86 -22 -256
q-12 -125 -60 -164q-67 -57 -170 -57q-135 0 -196 80q-21 18 -21 139q0 234 58 572q67 395 153 577zM412 954q0 -49 36.5 -80.5t86.5 -31.5q49 0 86.5 31.5t37.5 80.5q0 50 -37.5 81.5t-86.5 31.5q-50 0 -86.5 -31.5t-36.5 -81.5zM713 1850q-98 78 -170 80q-43 -1 -94 -28
t-102 -75q-49 -45 -80 -88.5t-38 -75.5q0 -24 8 -46.5t23 -39.5t37.5 -28t51.5 -11q19 0 36 4.5t35 15.5q14 11 35 34.5t51 61.5q29 41 35 41q4 0 46 -51q32 -35 58 -59.5t43 -31.5q14 -5 29 -9t31 -4q28 0 49 8.5t35 23.5t21.5 35t7.5 43q1 42 -36.5 92.5t-111.5 107.5z
M1390 2005q15 -54 -177 -153q-128 -61 -243 -78q-74 0 -108.5 20.5t-34.5 100.5q24 63 136 125q143 82 295 98q77 6 107 -27t25 -86z" />
    <glyph glyph-name=".notdef.059" unicode="&#x1ea5;" horiz-adv-x="1214" 
d="M109 1233q124 123 415 123q289 0 406 -139q84 -50 119 -314q22 -166 22 -358q0 -320 -53 -441q-19 -98 -156 -98q-108 0 -123 64q-98 -43 -217 -43q-252 0 -397 131q-102 133 -102 309q0 147 88 229q118 111 272 111q96 0 270 -64q78 0 78 88q0 58 -37 108t-90 69
q-67 22 -135 22q-66 0 -156 -41t-116 -41q-41 0 -88 31q-52 72 -52 137q0 68 52 117zM350 430q0 -49 29 -68q16 -10 72 -16q59 -6 104 10q57 21 57 76q0 90 -145 111q-53 8 -85 -25t-32 -88zM731 1735q-98 78 -170 80q-43 -1 -94 -28t-102 -75q-49 -45 -80 -88.5t-38 -75.5
q0 -24 8 -46.5t23 -39.5t37.5 -28t51.5 -11q19 0 36 4.5t35 15.5q14 11 35 34.5t51 61.5q29 41 35 41q4 0 46 -51q32 -35 58 -59.5t43 -31.5q14 -5 29 -9t31 -4q28 0 49 8.5t35 23.5t21.5 35t7.5 43q1 42 -36.5 92.5t-111.5 107.5zM1385 1900q15 -54 -177 -153
q-128 -61 -243 -78q-74 0 -108.5 20.5t-34.5 100.5q24 63 136 125q143 82 295 98q77 6 107 -27t25 -86z" />
    <glyph glyph-name=".notdef.113" unicode="&#x1ea6;" horiz-adv-x="1212" 
d="M227 1372q58 121 318 121q98 0 182 -27q113 -32 145 -100q72 -141 150 -588q76 -422 76 -616q0 -88 -19 -101q-14 -26 -84 -45q-57 -14 -98 -14q-98 0 -166 59q-63 103 -78 201q-8 72 -26 213q-15 60 -68 60q-22 0 -49 -15.5t-25 -38.5q-6 -86 -22 -256
q-12 -125 -60 -164q-67 -57 -170 -57q-135 0 -196 80q-21 18 -21 139q0 234 58 572q67 395 153 577zM412 954q0 -49 36.5 -80.5t86.5 -31.5q49 0 86.5 31.5t37.5 80.5q0 50 -37.5 81.5t-86.5 31.5q-50 0 -86.5 -31.5t-36.5 -81.5zM713 1850q74 -57 111.5 -107.5t36.5 -92.5
q0 -23 -7.5 -43t-21.5 -35t-35 -23.5t-49 -8.5q-16 0 -31 4t-29 9q-17 7 -43 31.5t-58 59.5q-42 51 -46 51q-6 0 -35 -41q-30 -38 -51 -61.5t-35 -34.5q-18 -11 -35 -15.5t-36 -4.5q-29 0 -51.5 11t-37.5 28t-23 39.5t-8 46.5q7 32 38 75.5t80 88.5q51 48 102 75t94 28
q72 -2 170 -80zM663 2004q-5 53 25 86t107 27q152 -16 295 -98q112 -62 136 -125q0 -80 -34.5 -100.5t-108.5 -20.5q-115 17 -243 78q-192 99 -177 153z" />
    <glyph glyph-name=".notdef.060" unicode="&#x1ea7;" horiz-adv-x="1214" 
d="M109 1233q124 123 415 123q289 0 406 -139q84 -50 119 -314q22 -166 22 -358q0 -320 -53 -441q-19 -98 -156 -98q-108 0 -123 64q-98 -43 -217 -43q-252 0 -397 131q-102 133 -102 309q0 147 88 229q118 111 272 111q96 0 270 -64q78 0 78 88q0 58 -37 108t-90 69
q-67 22 -135 22q-66 0 -156 -41t-116 -41q-41 0 -88 31q-52 72 -52 137q0 68 52 117zM350 430q0 -49 29 -68q16 -10 72 -16q59 -6 104 10q57 21 57 76q0 90 -145 111q-53 8 -85 -25t-32 -88zM731 1735q74 -57 111.5 -107.5t36.5 -92.5q0 -23 -7.5 -43t-21.5 -35t-35 -23.5
t-49 -8.5q-16 0 -31 4t-29 9q-17 7 -43 31.5t-58 59.5q-42 51 -46 51q-6 0 -35 -41q-30 -38 -51 -61.5t-35 -34.5q-18 -11 -35 -15.5t-36 -4.5q-29 0 -51.5 11t-37.5 28t-23 39.5t-8 46.5q7 32 38 75.5t80 88.5q51 48 102 75t94 28q72 -2 170 -80zM682 1890q-5 53 25 86
t107 27q152 -16 295 -98q112 -62 136 -125q0 -80 -34.5 -100.5t-108.5 -20.5q-115 17 -243 78q-192 99 -177 153z" />
    <glyph glyph-name=".notdef.115" unicode="&#x1ea8;" horiz-adv-x="1212" 
d="M227 1372q58 121 318 121q98 0 182 -27q113 -32 145 -100q72 -141 150 -588q76 -422 76 -616q0 -88 -19 -101q-14 -26 -84 -45q-57 -14 -98 -14q-98 0 -166 59q-63 103 -78 201q-8 72 -26 213q-15 60 -68 60q-22 0 -49 -15.5t-25 -38.5q-6 -86 -22 -256
q-12 -125 -60 -164q-67 -57 -170 -57q-135 0 -196 80q-21 18 -21 139q0 234 58 572q67 395 153 577zM412 954q0 -49 36.5 -80.5t86.5 -31.5q49 0 86.5 31.5t37.5 80.5q0 50 -37.5 81.5t-86.5 31.5q-50 0 -86.5 -31.5t-36.5 -81.5zM713 1850q-98 78 -170 80q-43 -1 -94 -28
t-102 -75q-49 -45 -80 -88.5t-38 -75.5q0 -24 8 -46.5t23 -39.5t37.5 -28t51.5 -11q19 0 36 4.5t35 15.5q14 11 35 34.5t51 61.5q29 41 35 41q4 0 46 -51q32 -35 58 -59.5t43 -31.5q14 -5 29 -9t31 -4q28 0 49 8.5t35 23.5t21.5 35t7.5 43q1 42 -36.5 92.5t-111.5 107.5z
M722 2033q0 5 1.5 10.5t3.5 16.5q11 32 33 58.5t51 43.5q54 33 129 33q32 0 63.5 -7.5t58.5 -18.5q75 -37 87 -100v1q5 -15 6.5 -31t1.5 -34q0 -27 -6 -53.5t-18 -49.5t-33 -38t-44 -28q-3 -2 -13 -10t-15 -13l-41 -36v-2q-11 -17 -21 -29.5t-30 -12.5q-26 0 -42 15t-27 38
l-2 4l-2 4q-5 14 -6.5 27t-1.5 24q0 41 29 67q3 3 19 13.5t33 21.5q13 8 23 17.5t10 15.5q0 4 -3 10t-7 12q-13 23 -38 23q-47 0 -94 -59q-105 0 -105 67z" />
    <glyph glyph-name=".notdef.058" unicode="&#x1ea9;" horiz-adv-x="1214" 
d="M109 1233q124 123 415 123q289 0 406 -139q84 -50 119 -314q22 -166 22 -358q0 -320 -53 -441q-19 -98 -156 -98q-108 0 -123 64q-98 -43 -217 -43q-252 0 -397 131q-102 133 -102 309q0 147 88 229q118 111 272 111q96 0 270 -64q78 0 78 88q0 58 -37 108t-90 69
q-67 22 -135 22q-66 0 -156 -41t-116 -41q-41 0 -88 31q-52 72 -52 137q0 68 52 117zM350 430q0 -49 29 -68q16 -10 72 -16q59 -6 104 10q57 21 57 76q0 90 -145 111q-53 8 -85 -25t-32 -88zM731 1735q-98 78 -170 80q-43 -1 -94 -28t-102 -75q-49 -45 -80 -88.5t-38 -75.5
q0 -24 8 -46.5t23 -39.5t37.5 -28t51.5 -11q19 0 36 4.5t35 15.5q14 11 35 34.5t51 61.5q29 41 35 41q4 0 46 -51q32 -35 58 -59.5t43 -31.5q14 -5 29 -9t31 -4q28 0 49 8.5t35 23.5t21.5 35t7.5 43q1 42 -36.5 92.5t-111.5 107.5zM739 1919q0 5 1.5 10.5t3.5 16.5
q11 32 33 58.5t51 43.5q54 33 129 33q32 0 63.5 -7.5t58.5 -18.5q75 -37 87 -100v1q5 -15 6.5 -31t1.5 -34q0 -27 -6 -53.5t-18 -49.5t-33 -38t-44 -28q-3 -2 -13 -10t-15 -13l-41 -36v-2q-11 -17 -21 -29.5t-30 -12.5q-26 0 -42 15t-27 38l-2 4l-2 4q-5 14 -6.5 27t-1.5 24
q0 41 29 67q3 3 19 13.5t33 21.5q13 8 23 17.5t10 15.5q0 4 -3 10t-7 12q-13 23 -38 23q-47 0 -94 -59q-105 0 -105 67z" />
    <glyph glyph-name=".notdef.116" unicode="&#x1eaa;" horiz-adv-x="1212" 
d="M227 1372q58 121 318 121q98 0 182 -27q113 -32 145 -100q72 -141 150 -588q76 -422 76 -616q0 -88 -19 -101q-14 -26 -84 -45q-57 -14 -98 -14q-98 0 -166 59q-63 103 -78 201q-8 72 -26 213q-15 60 -68 60q-22 0 -49 -15.5t-25 -38.5q-6 -86 -22 -256
q-12 -125 -60 -164q-67 -57 -170 -57q-135 0 -196 80q-21 18 -21 139q0 234 58 572q67 395 153 577zM412 954q0 -49 36.5 -80.5t86.5 -31.5q49 0 86.5 31.5t37.5 80.5q0 50 -37.5 81.5t-86.5 31.5q-50 0 -86.5 -31.5t-36.5 -81.5zM713 1850q-98 78 -170 80q-43 -1 -94 -28
t-102 -75q-49 -45 -80 -88.5t-38 -75.5q0 -24 8 -46.5t23 -39.5t37.5 -28t51.5 -11q19 0 36 4.5t35 15.5q14 11 35 34.5t51 61.5q29 41 35 41q4 0 46 -51q32 -35 58 -59.5t43 -31.5q14 -5 29 -9t31 -4q28 0 49 8.5t35 23.5t21.5 35t7.5 43q1 42 -36.5 92.5t-111.5 107.5z
M507 2046q-19 20 -41 20q-8 -3 -18.5 -7.5t-20.5 -13.5q-3 -8 -9 -15.5l-14 -17.5q-21 -23 -44.5 -33.5t-47.5 -10.5q-38 0 -60 27.5t-22 65.5q0 37 19.5 78.5t57.5 86.5q13 12 31.5 24.5t41.5 23.5h-1q23 13 42 18.5t38 5.5q41 0 71.5 -8.5t50.5 -22.5q1 -1 5.5 -7.5
t12.5 -17.5q5 -5 10 -11.5t10 -14.5q8 -11 20.5 -16t31.5 -7q21 0 42 28l13.5 18l13.5 18h-1q2 2 5.5 6t6.5 8q34 26 68 26q23 0 42 -8.5t33 -23.5t21.5 -34t7.5 -40q0 -23 -7.5 -43.5t-20.5 -41.5q-43 -62 -82 -95q-59 -42 -145 -45q-31 -2 -57.5 5.5t-46.5 21.5
q-8 6 -22 18t-35 35z" />
    <glyph glyph-name=".notdef.057" unicode="&#x1eab;" horiz-adv-x="1214" 
d="M109 1233q124 123 415 123q289 0 406 -139q84 -50 119 -314q22 -166 22 -358q0 -320 -53 -441q-19 -98 -156 -98q-108 0 -123 64q-98 -43 -217 -43q-252 0 -397 131q-102 133 -102 309q0 147 88 229q118 111 272 111q96 0 270 -64q78 0 78 88q0 58 -37 108t-90 69
q-67 22 -135 22q-66 0 -156 -41t-116 -41q-41 0 -88 31q-52 72 -52 137q0 68 52 117zM350 430q0 -49 29 -68q16 -10 72 -16q59 -6 104 10q57 21 57 76q0 90 -145 111q-53 8 -85 -25t-32 -88zM731 1735q-98 78 -170 80q-43 -1 -94 -28t-102 -75q-49 -45 -80 -88.5t-38 -75.5
q0 -24 8 -46.5t23 -39.5t37.5 -28t51.5 -11q19 0 36 4.5t35 15.5q14 11 35 34.5t51 61.5q29 41 35 41q4 0 46 -51q32 -35 58 -59.5t43 -31.5q14 -5 29 -9t31 -4q28 0 49 8.5t35 23.5t21.5 35t7.5 43q1 42 -36.5 92.5t-111.5 107.5zM525 1932q-19 20 -41 20q-8 -3 -18.5 -7.5
t-20.5 -13.5q-3 -8 -9 -15.5l-14 -17.5q-21 -23 -44.5 -33.5t-47.5 -10.5q-38 0 -60 27.5t-22 65.5q0 37 19.5 78.5t57.5 86.5q13 12 31.5 24.5t41.5 23.5h-1q23 13 42 18.5t38 5.5q41 0 71.5 -8.5t50.5 -22.5q1 -1 5.5 -7.5t12.5 -17.5q5 -5 10 -11.5t10 -14.5
q8 -11 20.5 -16t31.5 -7q21 0 42 28l13.5 18l13.5 18h-1q2 2 5.5 6t6.5 8q34 26 68 26q23 0 42 -8.5t33 -23.5t21.5 -34t7.5 -40q0 -23 -7.5 -43.5t-20.5 -41.5q-43 -62 -82 -95q-59 -42 -145 -45q-31 -2 -57.5 5.5t-46.5 21.5q-8 6 -22 18t-35 35z" />
    <glyph glyph-name=".notdef.117" unicode="&#x1eac;" horiz-adv-x="1212" 
d="M227 1372q58 121 318 121q98 0 182 -27q113 -32 145 -100q72 -141 150 -588q76 -422 76 -616q0 -88 -19 -101q-14 -26 -84 -45q-57 -14 -98 -14q-98 0 -166 59q-63 103 -78 201q-8 72 -26 213q-15 60 -68 60q-22 0 -49 -15.5t-25 -38.5q-6 -86 -22 -256
q-12 -125 -60 -164q-67 -57 -170 -57q-135 0 -196 80q-21 18 -21 139q0 234 58 572q67 395 153 577zM412 954q0 -49 36.5 -80.5t86.5 -31.5q49 0 86.5 31.5t37.5 80.5q0 50 -37.5 81.5t-86.5 31.5q-50 0 -86.5 -31.5t-36.5 -81.5zM713 1850q74 -57 111.5 -107.5t36.5 -92.5
q0 -23 -7.5 -43t-21.5 -35t-35 -23.5t-49 -8.5q-16 0 -31 4t-29 9q-17 7 -43 31.5t-58 59.5q-42 51 -46 51q-6 0 -35 -41q-30 -38 -51 -61.5t-35 -34.5q-18 -11 -35 -15.5t-36 -4.5q-29 0 -51.5 11t-37.5 28t-23 39.5t-8 46.5q7 32 38 75.5t80 88.5q51 48 102 75t94 28
q72 -2 170 -80zM505 -67q29 13 63 13q87 0 139 -95q16 -26 16 -62q0 -76 -75 -124q-33 -21 -75 -21q-65 0 -109.5 45t-44.5 112q0 98 86 132z" />
    <glyph glyph-name=".notdef.056" unicode="&#x1ead;" horiz-adv-x="1214" 
d="M109 1233q124 123 415 123q289 0 406 -139q84 -50 119 -314q22 -166 22 -358q0 -320 -53 -441q-19 -98 -156 -98q-108 0 -123 64q-98 -43 -217 -43q-252 0 -397 131q-102 133 -102 309q0 147 88 229q118 111 272 111q96 0 270 -64q78 0 78 88q0 58 -37 108t-90 69
q-67 22 -135 22q-66 0 -156 -41t-116 -41q-41 0 -88 31q-52 72 -52 137q0 68 52 117zM350 430q0 -49 29 -68q16 -10 72 -16q59 -6 104 10q57 21 57 76q0 90 -145 111q-53 8 -85 -25t-32 -88zM731 1735q74 -57 111.5 -107.5t36.5 -92.5q0 -23 -7.5 -43t-21.5 -35t-35 -23.5
t-49 -8.5q-16 0 -31 4t-29 9q-17 7 -43 31.5t-58 59.5q-42 51 -46 51q-6 0 -35 -41q-30 -38 -51 -61.5t-35 -34.5q-18 -11 -35 -15.5t-36 -4.5q-29 0 -51.5 11t-37.5 28t-23 39.5t-8 46.5q7 32 38 75.5t80 88.5q51 48 102 75t94 28q72 -2 170 -80zM505 -67q29 13 63 13
q87 0 139 -95q16 -26 16 -62q0 -76 -75 -124q-33 -21 -75 -21q-65 0 -109.5 45t-44.5 112q0 98 86 132z" />
    <glyph glyph-name=".notdef.120" unicode="&#x1eae;" horiz-adv-x="1212" 
d="M227 1372q58 121 318 121q98 0 182 -27q113 -32 145 -100q72 -141 150 -588q76 -422 76 -616q0 -88 -19 -101q-14 -26 -84 -45q-57 -14 -98 -14q-98 0 -166 59q-63 103 -78 201q-8 72 -26 213q-15 60 -68 60q-22 0 -49 -15.5t-25 -38.5q-6 -86 -22 -256
q-12 -125 -60 -164q-67 -57 -170 -57q-135 0 -196 80q-21 18 -21 139q0 234 58 572q67 395 153 577zM412 954q0 -49 36.5 -80.5t86.5 -31.5q49 0 86.5 31.5t37.5 80.5q0 50 -37.5 81.5t-86.5 31.5q-50 0 -86.5 -31.5t-36.5 -81.5zM355 1614q25 -18 52.5 -30t54.5 -19.5
t51.5 -11t42.5 -3.5q21 0 47 3.5t53.5 11.5t55.5 22t54 35q24 20 42.5 43.5t31 46.5t20.5 44t11 36q0 22 -8 42.5t-23 36t-37.5 25.5t-52.5 10q-19 0 -36 -4t-35 -14q-7 -5 -12 -13.5t-10.5 -20.5t-14 -27.5t-23.5 -33.5q-8 -9 -17.5 -17t-17.5 -13.5t-14 -8.5t-7 -3l-7.5 3
t-18.5 9t-23.5 15t-23.5 20q-16 16 -27 31.5t-20 28.5t-16.5 22t-16.5 12q-14 5 -29 8.5t-31 3.5q-56 1 -85 -29t-29 -71q0 -19 4.5 -41t17.5 -46.5t36.5 -50.5t60.5 -52zM860 2186q15 -54 -177 -153q-128 -61 -243 -78q-74 0 -108.5 20.5t-34.5 100.5q24 63 136 125
q143 82 295 98q77 6 107 -27t25 -86z" />
    <glyph glyph-name=".notdef.053" unicode="&#x1eaf;" horiz-adv-x="1214" 
d="M109 1233q124 123 415 123q289 0 406 -139q84 -50 119 -314q22 -166 22 -358q0 -320 -53 -441q-19 -98 -156 -98q-108 0 -123 64q-98 -43 -217 -43q-252 0 -397 131q-102 133 -102 309q0 147 88 229q118 111 272 111q96 0 270 -64q78 0 78 88q0 58 -37 108t-90 69
q-67 22 -135 22q-66 0 -156 -41t-116 -41q-41 0 -88 31q-52 72 -52 137q0 68 52 117zM350 430q0 -49 29 -68q16 -10 72 -16q59 -6 104 10q57 21 57 76q0 90 -145 111q-53 8 -85 -25t-32 -88zM364 1487q25 -18 52.5 -30t54.5 -19.5t51.5 -11t42.5 -3.5q21 0 47 3.5t53.5 11.5
t55.5 22t54 35q24 20 42.5 43.5t31 46.5t20.5 44t11 36q0 22 -8 42.5t-23 36t-37.5 25.5t-52.5 10q-19 0 -36 -4t-35 -14q-7 -5 -12 -13.5t-10.5 -20.5t-14 -27.5t-23.5 -33.5q-8 -9 -17.5 -17t-17.5 -13.5t-14 -8.5t-7 -3l-7.5 3t-18.5 9t-23.5 15t-23.5 20
q-16 16 -27 31.5t-20 28.5t-16.5 22t-16.5 12q-14 5 -29 8.5t-31 3.5q-56 1 -85 -29t-29 -71q0 -19 4.5 -41t17.5 -46.5t36.5 -50.5t60.5 -52zM857 2056q15 -54 -177 -153q-128 -61 -243 -78q-74 0 -108.5 20.5t-34.5 100.5q24 63 136 125q143 82 295 98q77 6 107 -27
t25 -86z" />
    <glyph glyph-name=".notdef.119" unicode="&#x1eb0;" horiz-adv-x="1212" 
d="M227 1372q58 121 318 121q98 0 182 -27q113 -32 145 -100q72 -141 150 -588q76 -422 76 -616q0 -88 -19 -101q-14 -26 -84 -45q-57 -14 -98 -14q-98 0 -166 59q-63 103 -78 201q-8 72 -26 213q-15 60 -68 60q-22 0 -49 -15.5t-25 -38.5q-6 -86 -22 -256
q-12 -125 -60 -164q-67 -57 -170 -57q-135 0 -196 80q-21 18 -21 139q0 234 58 572q67 395 153 577zM412 954q0 -49 36.5 -80.5t86.5 -31.5q49 0 86.5 31.5t37.5 80.5q0 50 -37.5 81.5t-86.5 31.5q-50 0 -86.5 -31.5t-36.5 -81.5zM355 1614q-37 26 -60.5 52t-36.5 50.5
t-17.5 46.5t-4.5 41q0 41 29 71t85 29q16 0 31 -3.5t29 -8.5q9 -3 16.5 -12t16.5 -22t20 -28.5t27 -31.5q11 -11 23.5 -20t23.5 -15t18.5 -9l7.5 -3q1 0 7 3t14 8.5t17.5 13.5t17.5 17q15 18 23.5 33.5t14 27.5t10.5 20.5t12 13.5q18 10 35 14t36 4q30 0 52.5 -10
t37.5 -25.5t23 -36t8 -42.5q-3 -15 -11 -36t-20.5 -44t-31 -46.5t-42.5 -43.5q-26 -21 -54 -35t-55.5 -22t-53.5 -11.5t-47 -3.5q-18 0 -42.5 3.5t-51.5 11t-54.5 19.5t-52.5 30zM273 2185q-5 53 25 86t107 27q152 -16 295 -98q112 -62 136 -125q0 -80 -34.5 -100.5
t-108.5 -20.5q-115 17 -243 78q-192 99 -177 153z" />
    <glyph glyph-name=".notdef.054" unicode="&#x1eb1;" horiz-adv-x="1214" 
d="M109 1233q124 123 415 123q289 0 406 -139q84 -50 119 -314q22 -166 22 -358q0 -320 -53 -441q-19 -98 -156 -98q-108 0 -123 64q-98 -43 -217 -43q-252 0 -397 131q-102 133 -102 309q0 147 88 229q118 111 272 111q96 0 270 -64q78 0 78 88q0 58 -37 108t-90 69
q-67 22 -135 22q-66 0 -156 -41t-116 -41q-41 0 -88 31q-52 72 -52 137q0 68 52 117zM350 430q0 -49 29 -68q16 -10 72 -16q59 -6 104 10q57 21 57 76q0 90 -145 111q-53 8 -85 -25t-32 -88zM364 1487q-37 26 -60.5 52t-36.5 50.5t-17.5 46.5t-4.5 41q0 41 29 71t85 29
q16 0 31 -3.5t29 -8.5q9 -3 16.5 -12t16.5 -22t20 -28.5t27 -31.5q11 -11 23.5 -20t23.5 -15t18.5 -9l7.5 -3q1 0 7 3t14 8.5t17.5 13.5t17.5 17q15 18 23.5 33.5t14 27.5t10.5 20.5t12 13.5q18 10 35 14t36 4q30 0 52.5 -10t37.5 -25.5t23 -36t8 -42.5q-3 -15 -11 -36
t-20.5 -44t-31 -46.5t-42.5 -43.5q-26 -21 -54 -35t-55.5 -22t-53.5 -11.5t-47 -3.5q-18 0 -42.5 3.5t-51.5 11t-54.5 19.5t-52.5 30zM273 2056q-5 53 25 86t107 27q152 -16 295 -98q112 -62 136 -125q0 -80 -34.5 -100.5t-108.5 -20.5q-115 17 -243 78q-192 99 -177 153z
" />
    <glyph glyph-name=".notdef.121" unicode="&#x1eb2;" horiz-adv-x="1212" 
d="M227 1372q58 121 318 121q98 0 182 -27q113 -32 145 -100q72 -141 150 -588q76 -422 76 -616q0 -88 -19 -101q-14 -26 -84 -45q-57 -14 -98 -14q-98 0 -166 59q-63 103 -78 201q-8 72 -26 213q-15 60 -68 60q-22 0 -49 -15.5t-25 -38.5q-6 -86 -22 -256
q-12 -125 -60 -164q-67 -57 -170 -57q-135 0 -196 80q-21 18 -21 139q0 234 58 572q67 395 153 577zM412 954q0 -49 36.5 -80.5t86.5 -31.5q49 0 86.5 31.5t37.5 80.5q0 50 -37.5 81.5t-86.5 31.5q-50 0 -86.5 -31.5t-36.5 -81.5zM355 1614q25 -18 52.5 -30t54.5 -19.5
t51.5 -11t42.5 -3.5q21 0 47 3.5t53.5 11.5t55.5 22t54 35q24 20 42.5 43.5t31 46.5t20.5 44t11 36q0 22 -8 42.5t-23 36t-37.5 25.5t-52.5 10q-19 0 -36 -4t-35 -14q-7 -5 -12 -13.5t-10.5 -20.5t-14 -27.5t-23.5 -33.5q-8 -9 -17.5 -17t-17.5 -13.5t-14 -8.5t-7 -3l-7.5 3
t-18.5 9t-23.5 15t-23.5 20q-16 16 -27 31.5t-20 28.5t-16.5 22t-16.5 12q-14 5 -29 8.5t-31 3.5q-56 1 -85 -29t-29 -71q0 -19 4.5 -41t17.5 -46.5t36.5 -50.5t60.5 -52zM353 2205q0 5 1.5 10.5t3.5 16.5q11 32 33 58.5t51 43.5q54 33 129 33q32 0 63.5 -7.5t58.5 -18.5
q75 -37 87 -100v1q5 -15 6.5 -31t1.5 -34q0 -27 -6 -53.5t-18 -49.5t-33 -38t-44 -28q-3 -2 -13 -10t-15 -13l-41 -36v-2q-11 -17 -21 -29.5t-30 -12.5q-26 0 -42 15t-27 38l-2 4l-2 4q-5 14 -6.5 27t-1.5 24q0 41 29 67q3 3 19 13.5t33 21.5q13 8 23 17.5t10 15.5
q0 4 -3 10t-7 12q-13 23 -38 23q-47 0 -94 -59q-105 0 -105 67z" />
    <glyph glyph-name=".notdef.052" unicode="&#x1eb3;" horiz-adv-x="1214" 
d="M109 1233q124 123 415 123q289 0 406 -139q84 -50 119 -314q22 -166 22 -358q0 -320 -53 -441q-19 -98 -156 -98q-108 0 -123 64q-98 -43 -217 -43q-252 0 -397 131q-102 133 -102 309q0 147 88 229q118 111 272 111q96 0 270 -64q78 0 78 88q0 58 -37 108t-90 69
q-67 22 -135 22q-66 0 -156 -41t-116 -41q-41 0 -88 31q-52 72 -52 137q0 68 52 117zM350 430q0 -49 29 -68q16 -10 72 -16q59 -6 104 10q57 21 57 76q0 90 -145 111q-53 8 -85 -25t-32 -88zM364 1487q25 -18 52.5 -30t54.5 -19.5t51.5 -11t42.5 -3.5q21 0 47 3.5t53.5 11.5
t55.5 22t54 35q24 20 42.5 43.5t31 46.5t20.5 44t11 36q0 22 -8 42.5t-23 36t-37.5 25.5t-52.5 10q-19 0 -36 -4t-35 -14q-7 -5 -12 -13.5t-10.5 -20.5t-14 -27.5t-23.5 -33.5q-8 -9 -17.5 -17t-17.5 -13.5t-14 -8.5t-7 -3l-7.5 3t-18.5 9t-23.5 15t-23.5 20
q-16 16 -27 31.5t-20 28.5t-16.5 22t-16.5 12q-14 5 -29 8.5t-31 3.5q-56 1 -85 -29t-29 -71q0 -19 4.5 -41t17.5 -46.5t36.5 -50.5t60.5 -52zM353 2078q0 5 1.5 10.5t3.5 16.5q11 32 33 58.5t51 43.5q54 33 129 33q32 0 63.5 -7.5t58.5 -18.5q75 -37 87 -100v1
q5 -15 6.5 -31t1.5 -34q0 -27 -6 -53.5t-18 -49.5t-33 -38t-44 -28q-3 -2 -13 -10t-15 -13l-41 -36v-2q-11 -17 -21 -29.5t-30 -12.5q-26 0 -42 15t-27 38l-2 4l-2 4q-5 14 -6.5 27t-1.5 24q0 41 29 67q3 3 19 13.5t33 21.5q13 8 23 17.5t10 15.5q0 4 -3 10t-7 12
q-13 23 -38 23q-47 0 -94 -59q-105 0 -105 67z" />
    <glyph glyph-name=".notdef.122" unicode="&#x1eb4;" horiz-adv-x="1212" 
d="M227 1372q58 121 318 121q98 0 182 -27q113 -32 145 -100q72 -141 150 -588q76 -422 76 -616q0 -88 -19 -101q-14 -26 -84 -45q-57 -14 -98 -14q-98 0 -166 59q-63 103 -78 201q-8 72 -26 213q-15 60 -68 60q-22 0 -49 -15.5t-25 -38.5q-6 -86 -22 -256
q-12 -125 -60 -164q-67 -57 -170 -57q-135 0 -196 80q-21 18 -21 139q0 234 58 572q67 395 153 577zM412 954q0 -49 36.5 -80.5t86.5 -31.5q49 0 86.5 31.5t37.5 80.5q0 50 -37.5 81.5t-86.5 31.5q-50 0 -86.5 -31.5t-36.5 -81.5zM355 1614q25 -18 52.5 -30t54.5 -19.5
t51.5 -11t42.5 -3.5q21 0 47 3.5t53.5 11.5t55.5 22t54 35q24 20 42.5 43.5t31 46.5t20.5 44t11 36q0 22 -8 42.5t-23 36t-37.5 25.5t-52.5 10q-19 0 -36 -4t-35 -14q-7 -5 -12 -13.5t-10.5 -20.5t-14 -27.5t-23.5 -33.5q-8 -9 -17.5 -17t-17.5 -13.5t-14 -8.5t-7 -3l-7.5 3
t-18.5 9t-23.5 15t-23.5 20q-16 16 -27 31.5t-20 28.5t-16.5 22t-16.5 12q-14 5 -29 8.5t-31 3.5q-56 1 -85 -29t-29 -71q0 -19 4.5 -41t17.5 -46.5t36.5 -50.5t60.5 -52zM492 2025q-19 20 -41 20q-8 -3 -18.5 -7.5t-20.5 -13.5q-3 -8 -9 -15.5l-14 -17.5
q-21 -23 -44.5 -33.5t-47.5 -10.5q-38 0 -60 27.5t-22 65.5q0 37 19.5 78.5t57.5 86.5q13 12 31.5 24.5t41.5 23.5h-1q23 13 42 18.5t38 5.5q41 0 71.5 -8.5t50.5 -22.5q1 -1 5.5 -7.5t12.5 -17.5q5 -5 10 -11.5t10 -14.5q8 -11 20.5 -16t31.5 -7q21 0 42 28l13.5 18
l13.5 18h-1q2 2 5.5 6t6.5 8q34 26 68 26q23 0 42 -8.5t33 -23.5t21.5 -34t7.5 -40q0 -23 -7.5 -43.5t-20.5 -41.5q-43 -62 -82 -95q-59 -42 -145 -45q-31 -2 -57.5 5.5t-46.5 21.5q-8 6 -22 18t-35 35z" />
    <glyph glyph-name=".notdef.051" unicode="&#x1eb5;" horiz-adv-x="1214" 
d="M109 1233q124 123 415 123q289 0 406 -139q84 -50 119 -314q22 -166 22 -358q0 -320 -53 -441q-19 -98 -156 -98q-108 0 -123 64q-98 -43 -217 -43q-252 0 -397 131q-102 133 -102 309q0 147 88 229q118 111 272 111q96 0 270 -64q78 0 78 88q0 58 -37 108t-90 69
q-67 22 -135 22q-66 0 -156 -41t-116 -41q-41 0 -88 31q-52 72 -52 137q0 68 52 117zM350 430q0 -49 29 -68q16 -10 72 -16q59 -6 104 10q57 21 57 76q0 90 -145 111q-53 8 -85 -25t-32 -88zM364 1487q25 -18 52.5 -30t54.5 -19.5t51.5 -11t42.5 -3.5q21 0 47 3.5t53.5 11.5
t55.5 22t54 35q24 20 42.5 43.5t31 46.5t20.5 44t11 36q0 22 -8 42.5t-23 36t-37.5 25.5t-52.5 10q-19 0 -36 -4t-35 -14q-7 -5 -12 -13.5t-10.5 -20.5t-14 -27.5t-23.5 -33.5q-8 -9 -17.5 -17t-17.5 -13.5t-14 -8.5t-7 -3l-7.5 3t-18.5 9t-23.5 15t-23.5 20
q-16 16 -27 31.5t-20 28.5t-16.5 22t-16.5 12q-14 5 -29 8.5t-31 3.5q-56 1 -85 -29t-29 -71q0 -19 4.5 -41t17.5 -46.5t36.5 -50.5t60.5 -52zM492 1898q-19 20 -41 20q-8 -3 -18.5 -7.5t-20.5 -13.5q-3 -8 -9 -15.5l-14 -17.5q-21 -23 -44.5 -33.5t-47.5 -10.5
q-38 0 -60 27.5t-22 65.5q0 37 19.5 78.5t57.5 86.5q13 12 31.5 24.5t41.5 23.5h-1q23 13 42 18.5t38 5.5q41 0 71.5 -8.5t50.5 -22.5q1 -1 5.5 -7.5t12.5 -17.5q5 -5 10 -11.5t10 -14.5q8 -11 20.5 -16t31.5 -7q21 0 42 28l13.5 18l13.5 18h-1q2 2 5.5 6t6.5 8q34 26 68 26
q23 0 42 -8.5t33 -23.5t21.5 -34t7.5 -40q0 -23 -7.5 -43.5t-20.5 -41.5q-43 -62 -82 -95q-59 -42 -145 -45q-31 -2 -57.5 5.5t-46.5 21.5q-8 6 -22 18t-35 35z" />
    <glyph glyph-name=".notdef.123" unicode="&#x1eb6;" horiz-adv-x="1212" 
d="M227 1372q58 121 318 121q98 0 182 -27q113 -32 145 -100q72 -141 150 -588q76 -422 76 -616q0 -88 -19 -101q-14 -26 -84 -45q-57 -14 -98 -14q-98 0 -166 59q-63 103 -78 201q-8 72 -26 213q-15 60 -68 60q-22 0 -49 -15.5t-25 -38.5q-6 -86 -22 -256
q-12 -125 -60 -164q-67 -57 -170 -57q-135 0 -196 80q-21 18 -21 139q0 234 58 572q67 395 153 577zM412 954q0 -49 36.5 -80.5t86.5 -31.5q49 0 86.5 31.5t37.5 80.5q0 50 -37.5 81.5t-86.5 31.5q-50 0 -86.5 -31.5t-36.5 -81.5zM355 1614q-37 26 -60.5 52t-36.5 50.5
t-17.5 46.5t-4.5 41q0 41 29 71t85 29q16 0 31 -3.5t29 -8.5q9 -3 16.5 -12t16.5 -22t20 -28.5t27 -31.5q11 -11 23.5 -20t23.5 -15t18.5 -9l7.5 -3q1 0 7 3t14 8.5t17.5 13.5t17.5 17q15 18 23.5 33.5t14 27.5t10.5 20.5t12 13.5q18 10 35 14t36 4q30 0 52.5 -10
t37.5 -25.5t23 -36t8 -42.5q-3 -15 -11 -36t-20.5 -44t-31 -46.5t-42.5 -43.5q-26 -21 -54 -35t-55.5 -22t-53.5 -11.5t-47 -3.5q-18 0 -42.5 3.5t-51.5 11t-54.5 19.5t-52.5 30zM505 -67q29 13 63 13q87 0 139 -95q16 -26 16 -62q0 -76 -75 -124q-33 -21 -75 -21
q-65 0 -109.5 45t-44.5 112q0 98 86 132z" />
    <glyph glyph-name=".notdef.050" unicode="&#x1eb7;" horiz-adv-x="1214" 
d="M109 1233q124 123 415 123q289 0 406 -139q84 -50 119 -314q22 -166 22 -358q0 -320 -53 -441q-19 -98 -156 -98q-108 0 -123 64q-98 -43 -217 -43q-252 0 -397 131q-102 133 -102 309q0 147 88 229q118 111 272 111q96 0 270 -64q78 0 78 88q0 58 -37 108t-90 69
q-67 22 -135 22q-66 0 -156 -41t-116 -41q-41 0 -88 31q-52 72 -52 137q0 68 52 117zM350 430q0 -49 29 -68q16 -10 72 -16q59 -6 104 10q57 21 57 76q0 90 -145 111q-53 8 -85 -25t-32 -88zM364 1487q-37 26 -60.5 52t-36.5 50.5t-17.5 46.5t-4.5 41q0 41 29 71t85 29
q16 0 31 -3.5t29 -8.5q9 -3 16.5 -12t16.5 -22t20 -28.5t27 -31.5q11 -11 23.5 -20t23.5 -15t18.5 -9l7.5 -3q1 0 7 3t14 8.5t17.5 13.5t17.5 17q15 18 23.5 33.5t14 27.5t10.5 20.5t12 13.5q18 10 35 14t36 4q30 0 52.5 -10t37.5 -25.5t23 -36t8 -42.5q-3 -15 -11 -36
t-20.5 -44t-31 -46.5t-42.5 -43.5q-26 -21 -54 -35t-55.5 -22t-53.5 -11.5t-47 -3.5q-18 0 -42.5 3.5t-51.5 11t-54.5 19.5t-52.5 30zM505 -67q29 13 63 13q87 0 139 -95q16 -26 16 -62q0 -76 -75 -124q-33 -21 -75 -21q-65 0 -109.5 45t-44.5 112q0 98 86 132z" />
    <glyph glyph-name=".notdef.128" unicode="&#x1eb8;" horiz-adv-x="1157" 
d="M145 1372q80 109 383 109q224 0 400 -74q65 -84 65 -160q0 -61 -47 -98q-14 -10 -41 -10q-31 0 -103.5 13t-109.5 13q-78 0 -135 -35q-65 -40 -65 -114q0 -66 45 -90q41 -31 186 -39q160 -10 192 -21q52 -32 52 -116q0 -64 -45 -91q-33 -6 -86 -6h-54q-73 2 -55 2
q-154 0 -197 -67q11 -242 471 -232q78 -22 78 -139q0 -115 -100 -162q-111 -51 -358 -51q-404 0 -504 180q-78 140 -78 568q0 475 106 620zM449 -67q29 13 63 13q87 0 139 -95q16 -26 16 -62q0 -76 -75 -124q-33 -21 -75 -21q-65 0 -109.5 45t-44.5 112q0 98 86 132z" />
    <glyph glyph-name=".notdef.045" unicode="&#x1eb9;" 
d="M598 1276q82 6 86 6q344 0 344 -408q-47 -278 -289 -278q-43 0 -128 17.5t-124 17.5q-14 0 -20 -4q-35 -21 -35 -60q0 -35 25.5 -64.5t60.5 -39.5q160 -43 195 -43q88 0 172 53q37 16 73 16q62 0 99 -41.5t30 -103.5q-10 -119 -55 -175t-178 -112q-90 -37 -184 -37
q-70 0 -201 31q-176 66 -195 76q-63 35 -135 117q-125 145 -125 397q0 61 19 150q84 405 375 471q116 12 190 14zM492 958q0 -36 32.5 -57.5t71.5 -21.5q37 0 69.5 21.5t32.5 57.5q0 37 -32.5 58.5t-69.5 21.5q-39 0 -71.5 -21.5t-32.5 -58.5zM519 -69q29 13 63 13
q87 0 139 -95q16 -26 16 -62q0 -76 -75 -124q-33 -21 -75 -21q-65 0 -109.5 45t-44.5 112q0 98 86 132z" />
    <glyph glyph-name=".notdef.126" unicode="&#x1eba;" horiz-adv-x="1157" 
d="M145 1372q80 109 383 109q224 0 400 -74q65 -84 65 -160q0 -61 -47 -98q-14 -10 -41 -10q-31 0 -103.5 13t-109.5 13q-78 0 -135 -35q-65 -40 -65 -114q0 -66 45 -90q41 -31 186 -39q160 -10 192 -21q52 -32 52 -116q0 -64 -45 -91q-33 -6 -86 -6h-54q-73 2 -55 2
q-154 0 -197 -67q11 -242 471 -232q78 -22 78 -139q0 -115 -100 -162q-111 -51 -358 -51q-404 0 -504 180q-78 140 -78 568q0 475 106 620zM346 1840q0 5 1.5 10.5t3.5 16.5q11 32 33 58.5t51 43.5q54 33 129 33q32 0 63.5 -7.5t58.5 -18.5q75 -37 87 -100v1q5 -15 6.5 -31
t1.5 -34q0 -27 -6 -53.5t-18 -49.5t-33 -38t-44 -28q-3 -2 -13 -10t-15 -13l-41 -36v-2q-11 -17 -21 -29.5t-30 -12.5q-26 0 -42 15t-27 38l-2 4l-2 4q-5 14 -6.5 27t-1.5 24q0 41 29 67q3 3 19 13.5t33 21.5q13 8 23 17.5t10 15.5q0 4 -3 10t-7 12q-13 23 -38 23
q-47 0 -94 -59q-105 0 -105 67z" />
    <glyph glyph-name=".notdef.047" unicode="&#x1ebb;" 
d="M598 1276q-74 -2 -190 -14q-291 -66 -375 -471q-19 -89 -19 -150q0 -252 125 -397q72 -82 135 -117q19 -10 195 -76q131 -31 201 -31q94 0 184 37q133 56 178 112t55 175q7 62 -30 103.5t-99 41.5q-36 0 -73 -16q-84 -53 -172 -53q-35 0 -195 43q-35 10 -60.5 39.5
t-25.5 64.5q0 39 35 60q6 4 20 4q39 0 124 -17.5t128 -17.5q242 0 289 278q0 408 -344 408q-4 0 -86 -6zM492 958q0 37 32.5 58.5t71.5 21.5q37 0 69.5 -21.5t32.5 -58.5q0 -36 -32.5 -57.5t-69.5 -21.5q-39 0 -71.5 21.5t-32.5 57.5zM387 1647q0 5 1.5 10.5t3.5 16.5
q11 32 33 58.5t51 43.5q54 33 129 33q32 0 63.5 -7.5t58.5 -18.5q75 -37 87 -100v1q5 -15 6.5 -31t1.5 -34q0 -27 -6 -53.5t-18 -49.5t-33 -38t-44 -28q-3 -2 -13 -10t-15 -13l-41 -36v-2q-11 -17 -21 -29.5t-30 -12.5q-26 0 -42 15t-27 38l-2 4l-2 4q-5 14 -6.5 27t-1.5 24
q0 41 29 67q3 3 19 13.5t33 21.5q13 8 23 17.5t10 15.5q0 4 -3 10t-7 12q-13 23 -38 23q-47 0 -94 -59q-105 0 -105 67z" />
    <glyph glyph-name=".notdef.127" unicode="&#x1ebc;" horiz-adv-x="1157" 
d="M145 1372q80 109 383 109q224 0 400 -74q65 -84 65 -160q0 -61 -47 -98q-14 -10 -41 -10q-31 0 -103.5 13t-109.5 13q-78 0 -135 -35q-65 -40 -65 -114q0 -66 45 -90q41 -31 186 -39q160 -10 192 -21q52 -32 52 -116q0 -64 -45 -91q-33 -6 -86 -6h-54q-73 2 -55 2
q-154 0 -197 -67q11 -242 471 -232q78 -22 78 -139q0 -115 -100 -162q-111 -51 -358 -51q-404 0 -504 180q-78 140 -78 568q0 475 106 620zM489 1620q-19 20 -41 20q-8 -3 -18.5 -7.5t-20.5 -13.5q-3 -8 -9 -15.5l-14 -17.5q-21 -23 -44.5 -33.5t-47.5 -10.5q-38 0 -60 27.5
t-22 65.5q0 37 19.5 78.5t57.5 86.5q13 12 31.5 24.5t41.5 23.5h-1q23 13 42 18.5t38 5.5q41 0 71.5 -8.5t50.5 -22.5q1 -1 5.5 -7.5t12.5 -17.5q5 -5 10 -11.5t10 -14.5q8 -11 20.5 -16t31.5 -7q21 0 42 28l13.5 18l13.5 18h-1q2 2 5.5 6t6.5 8q34 26 68 26q23 0 42 -8.5
t33 -23.5t21.5 -34t7.5 -40q0 -23 -7.5 -43.5t-20.5 -41.5q-43 -62 -82 -95q-59 -42 -145 -45q-31 -2 -57.5 5.5t-46.5 21.5q-8 6 -22 18t-35 35z" />
    <glyph glyph-name=".notdef.046" unicode="&#x1ebd;" 
d="M598 1276q-74 -2 -190 -14q-291 -66 -375 -471q-19 -89 -19 -150q0 -252 125 -397q72 -82 135 -117q19 -10 195 -76q131 -31 201 -31q94 0 184 37q133 56 178 112t55 175q7 62 -30 103.5t-99 41.5q-36 0 -73 -16q-84 -53 -172 -53q-35 0 -195 43q-35 10 -60.5 39.5
t-25.5 64.5q0 39 35 60q6 4 20 4q39 0 124 -17.5t128 -17.5q242 0 289 278q0 408 -344 408q-4 0 -86 -6zM492 958q0 37 32.5 58.5t71.5 21.5q37 0 69.5 -21.5t32.5 -58.5q0 -36 -32.5 -57.5t-69.5 -21.5q-39 0 -71.5 21.5t-32.5 57.5zM519 1421q-19 20 -41 20
q-8 -3 -18.5 -7.5t-20.5 -13.5q-3 -8 -9 -15.5l-14 -17.5q-21 -23 -44.5 -33.5t-47.5 -10.5q-38 0 -60 27.5t-22 65.5q0 37 19.5 78.5t57.5 86.5q13 12 31.5 24.5t41.5 23.5h-1q23 13 42 18.5t38 5.5q41 0 71.5 -8.5t50.5 -22.5q1 -1 5.5 -7.5t12.5 -17.5q5 -5 10 -11.5
t10 -14.5q8 -11 20.5 -16t31.5 -7q21 0 42 28l13.5 18l13.5 18h-1q2 2 5.5 6t6.5 8q34 26 68 26q23 0 42 -8.5t33 -23.5t21.5 -34t7.5 -40q0 -23 -7.5 -43.5t-20.5 -41.5q-43 -62 -82 -95q-59 -42 -145 -45q-31 -2 -57.5 5.5t-46.5 21.5q-8 6 -22 18t-35 35z" />
    <glyph glyph-name=".notdef.131" unicode="&#x1ebe;" horiz-adv-x="1157" 
d="M145 1372q80 109 383 109q224 0 400 -74q65 -84 65 -160q0 -61 -47 -98q-14 -10 -41 -10q-31 0 -103.5 13t-109.5 13q-78 0 -135 -35q-65 -40 -65 -114q0 -66 45 -90q41 -31 186 -39q160 -10 192 -21q52 -32 52 -116q0 -64 -45 -91q-33 -6 -86 -6h-54q-73 2 -55 2
q-154 0 -197 -67q11 -242 471 -232q78 -22 78 -139q0 -115 -100 -162q-111 -51 -358 -51q-404 0 -504 180q-78 140 -78 568q0 475 106 620zM713 1851q-98 78 -170 80q-43 -1 -94 -28t-102 -75q-49 -45 -80 -88.5t-38 -75.5q0 -24 8 -46.5t23 -39.5t37.5 -28t51.5 -11
q19 0 36 4.5t35 15.5q14 11 35 34.5t51 61.5q29 41 35 41q4 0 46 -51q32 -35 58 -59.5t43 -31.5q14 -5 29 -9t31 -4q28 0 49 8.5t35 23.5t21.5 35t7.5 43q1 42 -36.5 92.5t-111.5 107.5zM1384 2005q15 -54 -177 -153q-128 -61 -243 -78q-74 0 -108.5 20.5t-34.5 100.5
q24 63 136 125q143 82 295 98q77 6 107 -27t25 -86z" />
    <glyph glyph-name=".notdef.042" unicode="&#x1ebf;" 
d="M598 1276q-74 -2 -190 -14q-291 -66 -375 -471q-19 -89 -19 -150q0 -252 125 -397q72 -82 135 -117q19 -10 195 -76q131 -31 201 -31q94 0 184 37q133 56 178 112t55 175q7 62 -30 103.5t-99 41.5q-36 0 -73 -16q-84 -53 -172 -53q-35 0 -195 43q-35 10 -60.5 39.5
t-25.5 64.5q0 39 35 60q6 4 20 4q39 0 124 -17.5t128 -17.5q242 0 289 278q0 408 -344 408q-4 0 -86 -6zM492 958q0 37 32.5 58.5t71.5 21.5q37 0 69.5 -21.5t32.5 -58.5q0 -36 -32.5 -57.5t-69.5 -21.5q-39 0 -71.5 21.5t-32.5 57.5zM731 1660q-98 78 -170 80
q-43 -1 -94 -28t-102 -75q-49 -45 -80 -88.5t-38 -75.5q0 -24 8 -46.5t23 -39.5t37.5 -28t51.5 -11q19 0 36 4.5t35 15.5q14 11 35 34.5t51 61.5q29 41 35 41q4 0 46 -51q32 -35 58 -59.5t43 -31.5q14 -5 29 -9t31 -4q28 0 49 8.5t35 23.5t21.5 35t7.5 43q1 42 -36.5 92.5
t-111.5 107.5zM1385 1825q15 -54 -177 -153q-128 -61 -243 -78q-74 0 -108.5 20.5t-34.5 100.5q24 63 136 125q143 82 295 98q77 6 107 -27t25 -86z" />
    <glyph glyph-name=".notdef.130" unicode="&#x1ec0;" horiz-adv-x="1157" 
d="M145 1372q80 109 383 109q224 0 400 -74q65 -84 65 -160q0 -61 -47 -98q-14 -10 -41 -10q-31 0 -103.5 13t-109.5 13q-78 0 -135 -35q-65 -40 -65 -114q0 -66 45 -90q41 -31 186 -39q160 -10 192 -21q52 -32 52 -116q0 -64 -45 -91q-33 -6 -86 -6h-54q-73 2 -55 2
q-154 0 -197 -67q11 -242 471 -232q78 -22 78 -139q0 -115 -100 -162q-111 -51 -358 -51q-404 0 -504 180q-78 140 -78 568q0 475 106 620zM713 1851q74 -57 111.5 -107.5t36.5 -92.5q0 -23 -7.5 -43t-21.5 -35t-35 -23.5t-49 -8.5q-16 0 -31 4t-29 9q-17 7 -43 31.5
t-58 59.5q-42 51 -46 51q-6 0 -35 -41q-30 -38 -51 -61.5t-35 -34.5q-18 -11 -35 -15.5t-36 -4.5q-29 0 -51.5 11t-37.5 28t-23 39.5t-8 46.5q7 32 38 75.5t80 88.5q51 48 102 75t94 28q72 -2 170 -80zM663 2004q-5 53 25 86t107 27q152 -16 295 -98q112 -62 136 -125
q0 -80 -34.5 -100.5t-108.5 -20.5q-115 17 -243 78q-192 99 -177 153z" />
    <glyph glyph-name=".notdef.043" unicode="&#x1ec1;" 
d="M598 1276q82 6 86 6q344 0 344 -408q-47 -278 -289 -278q-43 0 -128 17.5t-124 17.5q-14 0 -20 -4q-35 -21 -35 -60q0 -35 25.5 -64.5t60.5 -39.5q160 -43 195 -43q88 0 172 53q37 16 73 16q62 0 99 -41.5t30 -103.5q-10 -119 -55 -175t-178 -112q-90 -37 -184 -37
q-70 0 -201 31q-176 66 -195 76q-63 35 -135 117q-125 145 -125 397q0 61 19 150q84 405 375 471q116 12 190 14zM492 958q0 -36 32.5 -57.5t71.5 -21.5q37 0 69.5 21.5t32.5 57.5q0 37 -32.5 58.5t-69.5 21.5q-39 0 -71.5 -21.5t-32.5 -58.5zM731 1660q74 -57 111.5 -107.5
t36.5 -92.5q0 -23 -7.5 -43t-21.5 -35t-35 -23.5t-49 -8.5q-16 0 -31 4t-29 9q-17 7 -43 31.5t-58 59.5q-42 51 -46 51q-6 0 -35 -41q-30 -38 -51 -61.5t-35 -34.5q-18 -11 -35 -15.5t-36 -4.5q-29 0 -51.5 11t-37.5 28t-23 39.5t-8 46.5q7 32 38 75.5t80 88.5q51 48 102 75
t94 28q72 -2 170 -80zM682 1816q-5 53 25 86t107 27q152 -16 295 -98q112 -62 136 -125q0 -80 -34.5 -100.5t-108.5 -20.5q-115 17 -243 78q-192 99 -177 153z" />
    <glyph glyph-name=".notdef.132" unicode="&#x1ec2;" horiz-adv-x="1157" 
d="M145 1372q80 109 383 109q224 0 400 -74q65 -84 65 -160q0 -61 -47 -98q-14 -10 -41 -10q-31 0 -103.5 13t-109.5 13q-78 0 -135 -35q-65 -40 -65 -114q0 -66 45 -90q41 -31 186 -39q160 -10 192 -21q52 -32 52 -116q0 -64 -45 -91q-33 -6 -86 -6h-54q-73 2 -55 2
q-154 0 -197 -67q11 -242 471 -232q78 -22 78 -139q0 -115 -100 -162q-111 -51 -358 -51q-404 0 -504 180q-78 140 -78 568q0 475 106 620zM713 1851q-98 78 -170 80q-43 -1 -94 -28t-102 -75q-49 -45 -80 -88.5t-38 -75.5q0 -24 8 -46.5t23 -39.5t37.5 -28t51.5 -11
q19 0 36 4.5t35 15.5q14 11 35 34.5t51 61.5q29 41 35 41q4 0 46 -51q32 -35 58 -59.5t43 -31.5q14 -5 29 -9t31 -4q28 0 49 8.5t35 23.5t21.5 35t7.5 43q1 42 -36.5 92.5t-111.5 107.5zM722 2033q0 5 1.5 10.5t3.5 16.5q11 32 33 58.5t51 43.5q54 33 129 33q32 0 63.5 -7.5
t58.5 -18.5q75 -37 87 -100v1q5 -15 6.5 -31t1.5 -34q0 -27 -6 -53.5t-18 -49.5t-33 -38t-44 -28q-3 -2 -13 -10t-15 -13l-41 -36v-2q-11 -17 -21 -29.5t-30 -12.5q-26 0 -42 15t-27 38l-2 4l-2 4q-5 14 -6.5 27t-1.5 24q0 41 29 67q3 3 19 13.5t33 21.5q13 8 23 17.5
t10 15.5q0 4 -3 10t-7 12q-13 23 -38 23q-47 0 -94 -59q-105 0 -105 67z" />
    <glyph glyph-name=".notdef.041" unicode="&#x1ec3;" 
d="M598 1276q-74 -2 -190 -14q-291 -66 -375 -471q-19 -89 -19 -150q0 -252 125 -397q72 -82 135 -117q19 -10 195 -76q131 -31 201 -31q94 0 184 37q133 56 178 112t55 175q7 62 -30 103.5t-99 41.5q-36 0 -73 -16q-84 -53 -172 -53q-35 0 -195 43q-35 10 -60.5 39.5
t-25.5 64.5q0 39 35 60q6 4 20 4q39 0 124 -17.5t128 -17.5q242 0 289 278q0 408 -344 408q-4 0 -86 -6zM492 958q0 37 32.5 58.5t71.5 21.5q37 0 69.5 -21.5t32.5 -58.5q0 -36 -32.5 -57.5t-69.5 -21.5q-39 0 -71.5 21.5t-32.5 57.5zM731 1660q-98 78 -170 80
q-43 -1 -94 -28t-102 -75q-49 -45 -80 -88.5t-38 -75.5q0 -24 8 -46.5t23 -39.5t37.5 -28t51.5 -11q19 0 36 4.5t35 15.5q14 11 35 34.5t51 61.5q29 41 35 41q4 0 46 -51q32 -35 58 -59.5t43 -31.5q14 -5 29 -9t31 -4q28 0 49 8.5t35 23.5t21.5 35t7.5 43q1 42 -36.5 92.5
t-111.5 107.5zM739 1844q0 5 1.5 10.5t3.5 16.5q11 32 33 58.5t51 43.5q54 33 129 33q32 0 63.5 -7.5t58.5 -18.5q75 -37 87 -100v1q5 -15 6.5 -31t1.5 -34q0 -27 -6 -53.5t-18 -49.5t-33 -38t-44 -28q-3 -2 -13 -10t-15 -13l-41 -36v-2q-11 -17 -21 -29.5t-30 -12.5
q-26 0 -42 15t-27 38l-2 4l-2 4q-5 14 -6.5 27t-1.5 24q0 41 29 67q3 3 19 13.5t33 21.5q13 8 23 17.5t10 15.5q0 4 -3 10t-7 12q-13 23 -38 23q-47 0 -94 -59q-105 0 -105 67z" />
    <glyph glyph-name=".notdef.106" unicode="&#x1ec4;" horiz-adv-x="1157" 
d="M145 1372q80 109 383 109q224 0 400 -74q65 -84 65 -160q0 -61 -47 -98q-14 -10 -41 -10q-31 0 -103.5 13t-109.5 13q-78 0 -135 -35q-65 -40 -65 -114q0 -66 45 -90q41 -31 186 -39q160 -10 192 -21q52 -32 52 -116q0 -64 -45 -91q-33 -6 -86 -6h-54q-73 2 -55 2
q-154 0 -197 -67q11 -242 471 -232q78 -22 78 -139q0 -115 -100 -162q-111 -51 -358 -51q-404 0 -504 180q-78 140 -78 568q0 475 106 620zM713 1851q-98 78 -170 80q-43 -1 -94 -28t-102 -75q-49 -45 -80 -88.5t-38 -75.5q0 -24 8 -46.5t23 -39.5t37.5 -28t51.5 -11
q19 0 36 4.5t35 15.5q14 11 35 34.5t51 61.5q29 41 35 41q4 0 46 -51q32 -35 58 -59.5t43 -31.5q14 -5 29 -9t31 -4q28 0 49 8.5t35 23.5t21.5 35t7.5 43q1 42 -36.5 92.5t-111.5 107.5zM507 2046q-19 20 -41 20q-8 -3 -18.5 -7.5t-20.5 -13.5q-3 -8 -9 -15.5l-14 -17.5
q-21 -23 -44.5 -33.5t-47.5 -10.5q-38 0 -60 27.5t-22 65.5q0 37 19.5 78.5t57.5 86.5q13 12 31.5 24.5t41.5 23.5h-1q23 13 42 18.5t38 5.5q41 0 71.5 -8.5t50.5 -22.5q1 -1 5.5 -7.5t12.5 -17.5q5 -5 10 -11.5t10 -14.5q8 -11 20.5 -16t31.5 -7q21 0 42 28l13.5 18
l13.5 18h-1q2 2 5.5 6t6.5 8q34 26 68 26q23 0 42 -8.5t33 -23.5t21.5 -34t7.5 -40q0 -23 -7.5 -43.5t-20.5 -41.5q-43 -62 -82 -95q-59 -42 -145 -45q-31 -2 -57.5 5.5t-46.5 21.5q-8 6 -22 18t-35 35z" />
    <glyph glyph-name=".notdef.040" unicode="&#x1ec5;" 
d="M598 1276q-74 -2 -190 -14q-291 -66 -375 -471q-19 -89 -19 -150q0 -252 125 -397q72 -82 135 -117q19 -10 195 -76q131 -31 201 -31q94 0 184 37q133 56 178 112t55 175q7 62 -30 103.5t-99 41.5q-36 0 -73 -16q-84 -53 -172 -53q-35 0 -195 43q-35 10 -60.5 39.5
t-25.5 64.5q0 39 35 60q6 4 20 4q39 0 124 -17.5t128 -17.5q242 0 289 278q0 408 -344 408q-4 0 -86 -6zM492 958q0 37 32.5 58.5t71.5 21.5q37 0 69.5 -21.5t32.5 -58.5q0 -36 -32.5 -57.5t-69.5 -21.5q-39 0 -71.5 21.5t-32.5 57.5zM731 1660q-98 78 -170 80
q-43 -1 -94 -28t-102 -75q-49 -45 -80 -88.5t-38 -75.5q0 -24 8 -46.5t23 -39.5t37.5 -28t51.5 -11q19 0 36 4.5t35 15.5q14 11 35 34.5t51 61.5q29 41 35 41q4 0 46 -51q32 -35 58 -59.5t43 -31.5q14 -5 29 -9t31 -4q28 0 49 8.5t35 23.5t21.5 35t7.5 43q1 42 -36.5 92.5
t-111.5 107.5zM528 1857q-19 20 -41 20q-8 -3 -18.5 -7.5t-20.5 -13.5q-3 -8 -9 -15.5l-14 -17.5q-21 -23 -44.5 -33.5t-47.5 -10.5q-38 0 -60 27.5t-22 65.5q0 37 19.5 78.5t57.5 86.5q13 12 31.5 24.5t41.5 23.5h-1q23 13 42 18.5t38 5.5q41 0 71.5 -8.5t50.5 -22.5
q1 -1 5.5 -7.5t12.5 -17.5q5 -5 10 -11.5t10 -14.5q8 -11 20.5 -16t31.5 -7q21 0 42 28l13.5 18l13.5 18h-1q2 2 5.5 6t6.5 8q34 26 68 26q23 0 42 -8.5t33 -23.5t21.5 -34t7.5 -40q0 -23 -7.5 -43.5t-20.5 -41.5q-43 -62 -82 -95q-59 -42 -145 -45q-31 -2 -57.5 5.5
t-46.5 21.5q-8 6 -22 18t-35 35z" />
    <glyph glyph-name=".notdef.105" unicode="&#x1ec6;" horiz-adv-x="1157" 
d="M145 1372q80 109 383 109q224 0 400 -74q65 -84 65 -160q0 -61 -47 -98q-14 -10 -41 -10q-31 0 -103.5 13t-109.5 13q-78 0 -135 -35q-65 -40 -65 -114q0 -66 45 -90q41 -31 186 -39q160 -10 192 -21q52 -32 52 -116q0 -64 -45 -91q-33 -6 -86 -6h-54q-73 2 -55 2
q-154 0 -197 -67q11 -242 471 -232q78 -22 78 -139q0 -115 -100 -162q-111 -51 -358 -51q-404 0 -504 180q-78 140 -78 568q0 475 106 620zM713 1851q74 -57 111.5 -107.5t36.5 -92.5q0 -23 -7.5 -43t-21.5 -35t-35 -23.5t-49 -8.5q-16 0 -31 4t-29 9q-17 7 -43 31.5
t-58 59.5q-42 51 -46 51q-6 0 -35 -41q-30 -38 -51 -61.5t-35 -34.5q-18 -11 -35 -15.5t-36 -4.5q-29 0 -51.5 11t-37.5 28t-23 39.5t-8 46.5q7 32 38 75.5t80 88.5q51 48 102 75t94 28q72 -2 170 -80zM449 -67q29 13 63 13q87 0 139 -95q16 -26 16 -62q0 -76 -75 -124
q-33 -21 -75 -21q-65 0 -109.5 45t-44.5 112q0 98 86 132z" />
    <glyph glyph-name=".notdef.039" unicode="&#x1ec7;" 
d="M598 1276q82 6 86 6q344 0 344 -408q-47 -278 -289 -278q-43 0 -128 17.5t-124 17.5q-14 0 -20 -4q-35 -21 -35 -60q0 -35 25.5 -64.5t60.5 -39.5q160 -43 195 -43q88 0 172 53q37 16 73 16q62 0 99 -41.5t30 -103.5q-10 -119 -55 -175t-178 -112q-90 -37 -184 -37
q-70 0 -201 31q-176 66 -195 76q-63 35 -135 117q-125 145 -125 397q0 61 19 150q84 405 375 471q116 12 190 14zM492 958q0 -36 32.5 -57.5t71.5 -21.5q37 0 69.5 21.5t32.5 57.5q0 37 -32.5 58.5t-69.5 21.5q-39 0 -71.5 -21.5t-32.5 -58.5zM731 1660q74 -57 111.5 -107.5
t36.5 -92.5q0 -23 -7.5 -43t-21.5 -35t-35 -23.5t-49 -8.5q-16 0 -31 4t-29 9q-17 7 -43 31.5t-58 59.5q-42 51 -46 51q-6 0 -35 -41q-30 -38 -51 -61.5t-35 -34.5q-18 -11 -35 -15.5t-36 -4.5q-29 0 -51.5 11t-37.5 28t-23 39.5t-8 46.5q7 32 38 75.5t80 88.5q51 48 102 75
t94 28q72 -2 170 -80zM519 -69q29 13 63 13q87 0 139 -95q16 -26 16 -62q0 -76 -75 -124q-33 -21 -75 -21q-65 0 -109.5 45t-44.5 112q0 98 86 132z" />
    <glyph glyph-name=".notdef.102" unicode="&#x1ec8;" horiz-adv-x="618" 
d="M57 1403q37 67 181 67q155 0 198 -75q33 -60 33 -690q0 -558 -27 -644q-28 -67 -198 -67q-156 0 -183 61q-45 103 -45 729q0 564 41 619zM23 1837q0 5 1.5 10.5t3.5 16.5q11 32 33 58.5t51 43.5q54 33 129 33q32 0 63.5 -7.5t58.5 -18.5q75 -37 87 -100v1q5 -15 6.5 -31
t1.5 -34q0 -27 -6 -53.5t-18 -49.5t-33 -38t-44 -28q-3 -2 -13 -10t-15 -13l-41 -36v-2q-11 -17 -21 -29.5t-30 -12.5q-26 0 -42 15t-27 38l-2 4l-2 4q-5 14 -6.5 27t-1.5 24q0 41 29 67q3 3 19 13.5t33 21.5q13 8 23 17.5t10 15.5q0 4 -3 10t-7 12q-13 23 -38 23
q-47 0 -94 -59q-105 0 -105 67z" />
    <glyph glyph-name=".notdef.036" unicode="&#x1ec9;" horiz-adv-x="610" 
d="M57 870q37 68 181 68q155 0 198 -76q33 -59 33 -407q0 -308 -27 -394q-28 -67 -198 -67q-156 0 -183 61q-45 103 -45 447q0 313 41 368zM23 1351q0 5 1.5 10.5t3.5 16.5q11 32 33 58.5t51 43.5q54 33 129 33q32 0 63.5 -7.5t58.5 -18.5q75 -37 87 -100v1q5 -15 6.5 -31
t1.5 -34q0 -27 -6 -53.5t-18 -49.5t-33 -38t-44 -28q-3 -2 -13 -10t-15 -13l-41 -36v-2q-11 -17 -21 -29.5t-30 -12.5q-26 0 -42 15t-27 38l-2 4l-2 4q-5 14 -6.5 27t-1.5 24q0 41 29 67q3 3 19 13.5t33 21.5q13 8 23 17.5t10 15.5q0 4 -3 10t-7 12q-13 23 -38 23
q-47 0 -94 -59q-105 0 -105 67z" />
    <glyph glyph-name=".notdef.100" unicode="&#x1eca;" horiz-adv-x="618" 
d="M57 1403q37 67 181 67q155 0 198 -75q33 -60 33 -690q0 -558 -27 -644q-28 -67 -198 -67q-156 0 -183 61q-45 103 -45 729q0 564 41 619zM185 -67q29 13 63 13q87 0 139 -95q16 -26 16 -62q0 -76 -75 -124q-33 -21 -75 -21q-65 0 -109.5 45t-44.5 112q0 98 86 132z" />
    <glyph glyph-name=".notdef.034" unicode="&#x1ecb;" horiz-adv-x="610" 
d="M57 870q37 68 181 68q155 0 198 -76q33 -59 33 -407q0 -308 -27 -394q-28 -67 -198 -67q-156 0 -183 61q-45 103 -45 447q0 313 41 368zM12 1276q15 223 262 219q95 -2 140 -42t67 -132q8 -33 8 -64q0 -108 -72.5 -169.5t-183.5 -61.5q-98 0 -162.5 76t-58.5 174z
M185 -67q29 13 63 13q87 0 139 -95q16 -26 16 -62q0 -76 -75 -124q-33 -21 -75 -21q-65 0 -109.5 45t-44.5 112q0 98 86 132z" />
    <glyph glyph-name=".notdef.095" unicode="&#x1ecc;" horiz-adv-x="1202" 
d="M383 1487q338 0 504 -203q135 -170 184 -532q4 -289 -33 -416q-43 -146 -182 -264q-190 -64 -334 -64q-153 0 -280 70q-113 127 -159 251t-46 296q0 92 12 209q62 266 107 376q88 215 227 277zM412 705q-9 -140 153 -140q101 0 137 72q29 53 29 164q0 76 -67.5 123
t-145.5 41q-37 -4 -74 -115q-30 -90 -32 -145zM462 -67q29 13 63 13q87 0 139 -95q16 -26 16 -62q0 -76 -75 -124q-33 -21 -75 -21q-65 0 -109.5 45t-44.5 112q0 98 86 132z" />
    <glyph glyph-name=".notdef.029" unicode="&#x1ecd;" 
d="M377 1278q323 0 485 -156q152 -147 203 -477q4 -252 -31 -356q-41 -123 -184 -228q-191 -55 -332 -55q-153 0 -282 60q-113 112 -159 214.5t-46 258.5q0 77 12 178q63 233 107 325q86 183 227 236zM379 598q-6 -121 153 -121q166 0 166 203q0 70 -75 111q-66 34 -138 30
q-36 -2 -73 -96q-31 -78 -33 -127zM462 -67q29 13 63 13q87 0 139 -95q16 -26 16 -62q0 -76 -75 -124q-33 -21 -75 -21q-65 0 -109.5 45t-44.5 112q0 98 86 132z" />
    <glyph glyph-name=".notdef.097" unicode="&#x1ece;" horiz-adv-x="1202" 
d="M383 1487q-139 -62 -227 -277q-45 -110 -107 -376q-12 -117 -12 -209q0 -172 46 -296t159 -251q127 -70 280 -70q144 0 334 64q139 118 182 264q37 127 33 416q-49 362 -184 532q-166 203 -504 203zM412 705q2 55 32 145q37 111 74 115q78 6 145.5 -41t67.5 -123
q0 -111 -29 -164q-36 -72 -137 -72q-162 0 -153 140zM346 1840q0 5 1.5 10.5t3.5 16.5q11 32 33 58.5t51 43.5q54 33 129 33q32 0 63.5 -7.5t58.5 -18.5q75 -37 87 -100v1q5 -15 6.5 -31t1.5 -34q0 -27 -6 -53.5t-18 -49.5t-33 -38t-44 -28q-3 -2 -13 -10t-15 -13l-41 -36
v-2q-11 -17 -21 -29.5t-30 -12.5q-26 0 -42 15t-27 38l-2 4l-2 4q-5 14 -6.5 27t-1.5 24q0 41 29 67q3 3 19 13.5t33 21.5q13 8 23 17.5t10 15.5q0 4 -3 10t-7 12q-13 23 -38 23q-47 0 -94 -59q-105 0 -105 67z" />
    <glyph glyph-name=".notdef.031" unicode="&#x1ecf;" 
d="M377 1278q-141 -53 -227 -236q-44 -92 -107 -325q-12 -101 -12 -178q0 -156 46 -258.5t159 -214.5q129 -60 282 -60q141 0 332 55q143 105 184 228q35 104 31 356q-51 330 -203 477q-162 156 -485 156zM379 598q2 49 33 127q37 94 73 96q72 4 138 -30q75 -41 75 -111
q0 -203 -166 -203q-159 0 -153 121zM343 1639q0 5 1.5 10.5t3.5 16.5q11 32 33 58.5t51 43.5q54 33 129 33q32 0 63.5 -7.5t58.5 -18.5q75 -37 87 -100v1q5 -15 6.5 -31t1.5 -34q0 -27 -6 -53.5t-18 -49.5t-33 -38t-44 -28q-3 -2 -13 -10t-15 -13l-41 -36v-2
q-11 -17 -21 -29.5t-30 -12.5q-26 0 -42 15t-27 38l-2 4l-2 4q-5 14 -6.5 27t-1.5 24q0 41 29 67q3 3 19 13.5t33 21.5q13 8 23 17.5t10 15.5q0 4 -3 10t-7 12q-13 23 -38 23q-47 0 -94 -59q-105 0 -105 67z" />
    <glyph glyph-name=".notdef.092" unicode="&#x1ed0;" horiz-adv-x="1202" 
d="M383 1487q-139 -62 -227 -277q-45 -110 -107 -376q-12 -117 -12 -209q0 -172 46 -296t159 -251q127 -70 280 -70q144 0 334 64q139 118 182 264q37 127 33 416q-49 362 -184 532q-166 203 -504 203zM412 705q2 55 32 145q37 111 74 115q78 6 145.5 -41t67.5 -123
q0 -111 -29 -164q-36 -72 -137 -72q-162 0 -153 140zM713 1851q-98 78 -170 80q-43 -1 -94 -28t-102 -75q-49 -45 -80 -88.5t-38 -75.5q0 -24 8 -46.5t23 -39.5t37.5 -28t51.5 -11q19 0 36 4.5t35 15.5q14 11 35 34.5t51 61.5q29 41 35 41q4 0 46 -51q32 -35 58 -59.5
t43 -31.5q14 -5 29 -9t31 -4q28 0 49 8.5t35 23.5t21.5 35t7.5 43q1 42 -36.5 92.5t-111.5 107.5zM1386 2005q15 -54 -177 -153q-128 -61 -243 -78q-74 0 -108.5 20.5t-34.5 100.5q24 63 136 125q143 82 295 98q77 6 107 -27t25 -86z" />
    <glyph glyph-name=".notdef.026" unicode="&#x1ed1;" 
d="M377 1278q-141 -53 -227 -236q-44 -92 -107 -325q-12 -101 -12 -178q0 -156 46 -258.5t159 -214.5q129 -60 282 -60q141 0 332 55q143 105 184 228q35 104 31 356q-51 330 -203 477q-162 156 -485 156zM379 598q2 49 33 127q37 94 73 96q72 4 138 -30q75 -41 75 -111
q0 -203 -166 -203q-159 0 -153 121zM731 1663q-98 78 -170 80q-43 -1 -94 -28t-102 -75q-49 -45 -80 -88.5t-38 -75.5q0 -24 8 -46.5t23 -39.5t37.5 -28t51.5 -11q19 0 36 4.5t35 15.5q14 11 35 34.5t51 61.5q29 41 35 41q4 0 46 -51q32 -35 58 -59.5t43 -31.5q14 -5 29 -9
t31 -4q28 0 49 8.5t35 23.5t21.5 35t7.5 43q1 42 -36.5 92.5t-111.5 107.5zM1385 1828q15 -54 -177 -153q-128 -61 -243 -78q-74 0 -108.5 20.5t-34.5 100.5q24 63 136 125q143 82 295 98q77 6 107 -27t25 -86z" />
    <glyph glyph-name=".notdef.093" unicode="&#x1ed2;" horiz-adv-x="1202" 
d="M383 1487q338 0 504 -203q135 -170 184 -532q4 -289 -33 -416q-43 -146 -182 -264q-190 -64 -334 -64q-153 0 -280 70q-113 127 -159 251t-46 296q0 92 12 209q62 266 107 376q88 215 227 277zM412 705q-9 -140 153 -140q101 0 137 72q29 53 29 164q0 76 -67.5 123
t-145.5 41q-37 -4 -74 -115q-30 -90 -32 -145zM713 1851q74 -57 111.5 -107.5t36.5 -92.5q0 -23 -7.5 -43t-21.5 -35t-35 -23.5t-49 -8.5q-16 0 -31 4t-29 9q-17 7 -43 31.5t-58 59.5q-42 51 -46 51q-6 0 -35 -41q-30 -38 -51 -61.5t-35 -34.5q-18 -11 -35 -15.5t-36 -4.5
q-29 0 -51.5 11t-37.5 28t-23 39.5t-8 46.5q7 32 38 75.5t80 88.5q51 48 102 75t94 28q72 -2 170 -80zM663 2004q-5 53 25 86t107 27q152 -16 295 -98q112 -62 136 -125q0 -80 -34.5 -100.5t-108.5 -20.5q-115 17 -243 78q-192 99 -177 153z" />
    <glyph glyph-name=".notdef.027" unicode="&#x1ed3;" 
d="M377 1278q323 0 485 -156q152 -147 203 -477q4 -252 -31 -356q-41 -123 -184 -228q-191 -55 -332 -55q-153 0 -282 60q-113 112 -159 214.5t-46 258.5q0 77 12 178q63 233 107 325q86 183 227 236zM379 598q-6 -121 153 -121q166 0 166 203q0 70 -75 111q-66 34 -138 30
q-36 -2 -73 -96q-31 -78 -33 -127zM731 1663q74 -57 111.5 -107.5t36.5 -92.5q0 -23 -7.5 -43t-21.5 -35t-35 -23.5t-49 -8.5q-16 0 -31 4t-29 9q-17 7 -43 31.5t-58 59.5q-42 51 -46 51q-6 0 -35 -41q-30 -38 -51 -61.5t-35 -34.5q-18 -11 -35 -15.5t-36 -4.5
q-29 0 -51.5 11t-37.5 28t-23 39.5t-8 46.5q7 32 38 75.5t80 88.5q51 48 102 75t94 28q72 -2 170 -80zM682 1818q-5 53 25 86t107 27q152 -16 295 -98q112 -62 136 -125q0 -80 -34.5 -100.5t-108.5 -20.5q-115 17 -243 78q-192 99 -177 153z" />
    <glyph glyph-name=".notdef.091" unicode="&#x1ed4;" horiz-adv-x="1202" 
d="M383 1487q-139 -62 -227 -277q-45 -110 -107 -376q-12 -117 -12 -209q0 -172 46 -296t159 -251q127 -70 280 -70q144 0 334 64q139 118 182 264q37 127 33 416q-49 362 -184 532q-166 203 -504 203zM412 705q2 55 32 145q37 111 74 115q78 6 145.5 -41t67.5 -123
q0 -111 -29 -164q-36 -72 -137 -72q-162 0 -153 140zM713 1851q-98 78 -170 80q-43 -1 -94 -28t-102 -75q-49 -45 -80 -88.5t-38 -75.5q0 -24 8 -46.5t23 -39.5t37.5 -28t51.5 -11q19 0 36 4.5t35 15.5q14 11 35 34.5t51 61.5q29 41 35 41q4 0 46 -51q32 -35 58 -59.5
t43 -31.5q14 -5 29 -9t31 -4q28 0 49 8.5t35 23.5t21.5 35t7.5 43q1 42 -36.5 92.5t-111.5 107.5zM722 2033q0 5 1.5 10.5t3.5 16.5q11 32 33 58.5t51 43.5q54 33 129 33q32 0 63.5 -7.5t58.5 -18.5q75 -37 87 -100v1q5 -15 6.5 -31t1.5 -34q0 -27 -6 -53.5t-18 -49.5
t-33 -38t-44 -28q-3 -2 -13 -10t-15 -13l-41 -36v-2q-11 -17 -21 -29.5t-30 -12.5q-26 0 -42 15t-27 38l-2 4l-2 4q-5 14 -6.5 27t-1.5 24q0 41 29 67q3 3 19 13.5t33 21.5q13 8 23 17.5t10 15.5q0 4 -3 10t-7 12q-13 23 -38 23q-47 0 -94 -59q-105 0 -105 67z" />
    <glyph glyph-name=".notdef.025" unicode="&#x1ed5;" 
d="M377 1278q-141 -53 -227 -236q-44 -92 -107 -325q-12 -101 -12 -178q0 -156 46 -258.5t159 -214.5q129 -60 282 -60q141 0 332 55q143 105 184 228q35 104 31 356q-51 330 -203 477q-162 156 -485 156zM379 598q2 49 33 127q37 94 73 96q72 4 138 -30q75 -41 75 -111
q0 -203 -166 -203q-159 0 -153 121zM730 1664q-98 78 -170 80q-43 -1 -94 -28t-102 -75q-49 -45 -80 -88.5t-38 -75.5q0 -24 8 -46.5t23 -39.5t37.5 -28t51.5 -11q19 0 36 4.5t35 15.5q14 11 35 34.5t51 61.5q29 41 35 41q4 0 46 -51q32 -35 58 -59.5t43 -31.5q14 -5 29 -9
t31 -4q28 0 49 8.5t35 23.5t21.5 35t7.5 43q1 42 -36.5 92.5t-111.5 107.5zM739 1847q0 5 1.5 10.5t3.5 16.5q11 32 33 58.5t51 43.5q54 33 129 33q32 0 63.5 -7.5t58.5 -18.5q75 -37 87 -100v1q5 -15 6.5 -31t1.5 -34q0 -27 -6 -53.5t-18 -49.5t-33 -38t-44 -28
q-3 -2 -13 -10t-15 -13l-41 -36v-2q-11 -17 -21 -29.5t-30 -12.5q-26 0 -42 15t-27 38l-2 4l-2 4q-5 14 -6.5 27t-1.5 24q0 41 29 67q3 3 19 13.5t33 21.5q13 8 23 17.5t10 15.5q0 4 -3 10t-7 12q-13 23 -38 23q-47 0 -94 -59q-105 0 -105 67z" />
    <glyph glyph-name=".notdef.090" unicode="&#x1ed6;" horiz-adv-x="1202" 
d="M383 1487q-139 -62 -227 -277q-45 -110 -107 -376q-12 -117 -12 -209q0 -172 46 -296t159 -251q127 -70 280 -70q144 0 334 64q139 118 182 264q37 127 33 416q-49 362 -184 532q-166 203 -504 203zM412 705q2 55 32 145q37 111 74 115q78 6 145.5 -41t67.5 -123
q0 -111 -29 -164q-36 -72 -137 -72q-162 0 -153 140zM713 1851q-98 78 -170 80q-43 -1 -94 -28t-102 -75q-49 -45 -80 -88.5t-38 -75.5q0 -24 8 -46.5t23 -39.5t37.5 -28t51.5 -11q19 0 36 4.5t35 15.5q14 11 35 34.5t51 61.5q29 41 35 41q4 0 46 -51q32 -35 58 -59.5
t43 -31.5q14 -5 29 -9t31 -4q28 0 49 8.5t35 23.5t21.5 35t7.5 43q1 42 -36.5 92.5t-111.5 107.5zM507 2046q-19 20 -41 20q-8 -3 -18.5 -7.5t-20.5 -13.5q-3 -8 -9 -15.5l-14 -17.5q-21 -23 -44.5 -33.5t-47.5 -10.5q-38 0 -60 27.5t-22 65.5q0 37 19.5 78.5t57.5 86.5
q13 12 31.5 24.5t41.5 23.5h-1q23 13 42 18.5t38 5.5q41 0 71.5 -8.5t50.5 -22.5q1 -1 5.5 -7.5t12.5 -17.5q5 -5 10 -11.5t10 -14.5q8 -11 20.5 -16t31.5 -7q21 0 42 28l13.5 18l13.5 18h-1q2 2 5.5 6t6.5 8q34 26 68 26q23 0 42 -8.5t33 -23.5t21.5 -34t7.5 -40
q0 -23 -7.5 -43.5t-20.5 -41.5q-43 -62 -82 -95q-59 -42 -145 -45q-31 -2 -57.5 5.5t-46.5 21.5q-8 6 -22 18t-35 35z" />
    <glyph glyph-name=".notdef.024" unicode="&#x1ed7;" 
d="M377 1278q-141 -53 -227 -236q-44 -92 -107 -325q-12 -101 -12 -178q0 -156 46 -258.5t159 -214.5q129 -60 282 -60q141 0 332 55q143 105 184 228q35 104 31 356q-51 330 -203 477q-162 156 -485 156zM379 598q2 49 33 127q37 94 73 96q72 4 138 -30q75 -41 75 -111
q0 -203 -166 -203q-159 0 -153 121zM731 1663q-98 78 -170 80q-43 -1 -94 -28t-102 -75q-49 -45 -80 -88.5t-38 -75.5q0 -24 8 -46.5t23 -39.5t37.5 -28t51.5 -11q19 0 36 4.5t35 15.5q14 11 35 34.5t51 61.5q29 41 35 41q4 0 46 -51q32 -35 58 -59.5t43 -31.5q14 -5 29 -9
t31 -4q28 0 49 8.5t35 23.5t21.5 35t7.5 43q1 42 -36.5 92.5t-111.5 107.5zM525 1859q-19 20 -41 20q-8 -3 -18.5 -7.5t-20.5 -13.5q-3 -8 -9 -15.5l-14 -17.5q-21 -23 -44.5 -33.5t-47.5 -10.5q-38 0 -60 27.5t-22 65.5q0 37 19.5 78.5t57.5 86.5q13 12 31.5 24.5
t41.5 23.5h-1q23 13 42 18.5t38 5.5q41 0 71.5 -8.5t50.5 -22.5q1 -1 5.5 -7.5t12.5 -17.5q5 -5 10 -11.5t10 -14.5q8 -11 20.5 -16t31.5 -7q21 0 42 28l13.5 18l13.5 18h-1q2 2 5.5 6t6.5 8q34 26 68 26q23 0 42 -8.5t33 -23.5t21.5 -34t7.5 -40q0 -23 -7.5 -43.5
t-20.5 -41.5q-43 -62 -82 -95q-59 -42 -145 -45q-31 -2 -57.5 5.5t-46.5 21.5q-8 6 -22 18t-35 35z" />
    <glyph glyph-name=".notdef.089" unicode="&#x1ed8;" horiz-adv-x="1202" 
d="M383 1487q338 0 504 -203q135 -170 184 -532q4 -289 -33 -416q-43 -146 -182 -264q-190 -64 -334 -64q-153 0 -280 70q-113 127 -159 251t-46 296q0 92 12 209q62 266 107 376q88 215 227 277zM412 705q-9 -140 153 -140q101 0 137 72q29 53 29 164q0 76 -67.5 123
t-145.5 41q-37 -4 -74 -115q-30 -90 -32 -145zM713 1851q74 -57 111.5 -107.5t36.5 -92.5q0 -23 -7.5 -43t-21.5 -35t-35 -23.5t-49 -8.5q-16 0 -31 4t-29 9q-17 7 -43 31.5t-58 59.5q-42 51 -46 51q-6 0 -35 -41q-30 -38 -51 -61.5t-35 -34.5q-18 -11 -35 -15.5t-36 -4.5
q-29 0 -51.5 11t-37.5 28t-23 39.5t-8 46.5q7 32 38 75.5t80 88.5q51 48 102 75t94 28q72 -2 170 -80zM462 -67q29 13 63 13q87 0 139 -95q16 -26 16 -62q0 -76 -75 -124q-33 -21 -75 -21q-65 0 -109.5 45t-44.5 112q0 98 86 132z" />
    <glyph glyph-name=".notdef.023" unicode="&#x1ed9;" 
d="M377 1278q323 0 485 -156q152 -147 203 -477q4 -252 -31 -356q-41 -123 -184 -228q-191 -55 -332 -55q-153 0 -282 60q-113 112 -159 214.5t-46 258.5q0 77 12 178q63 233 107 325q86 183 227 236zM379 598q-6 -121 153 -121q166 0 166 203q0 70 -75 111q-66 34 -138 30
q-36 -2 -73 -96q-31 -78 -33 -127zM731 1663q74 -57 111.5 -107.5t36.5 -92.5q0 -23 -7.5 -43t-21.5 -35t-35 -23.5t-49 -8.5q-16 0 -31 4t-29 9q-17 7 -43 31.5t-58 59.5q-42 51 -46 51q-6 0 -35 -41q-30 -38 -51 -61.5t-35 -34.5q-18 -11 -35 -15.5t-36 -4.5
q-29 0 -51.5 11t-37.5 28t-23 39.5t-8 46.5q7 32 38 75.5t80 88.5q51 48 102 75t94 28q72 -2 170 -80zM462 -67q29 13 63 13q87 0 139 -95q16 -26 16 -62q0 -76 -75 -124q-33 -21 -75 -21q-65 0 -109.5 45t-44.5 112q0 98 86 132z" />
    <glyph glyph-name=".notdef.075" unicode="&#x1eda;" horiz-adv-x="1197" 
d="M383 1487q-139 -62 -227 -277q-45 -110 -107 -376q-12 -117 -12 -209q0 -172 46 -296t159 -251q127 -70 280 -70q144 0 334 64q139 118 182 264q37 127 33 416q-49 362 -184 532q-166 203 -504 203zM412 705q2 55 32 145q37 111 74 115q78 6 145.5 -41t67.5 -123
q0 -111 -29 -164q-36 -72 -137 -72q-162 0 -153 140zM833 1723q-46 -8 -79.5 -50.5t-43.5 -90.5q3 -119 146 -143q6 5 -21 -27q-17 -31 -55.5 -44.5t-111.5 -30.5q-48 -26 -39.5 -50.5t56.5 -36.5q130 -23 228 63q113 104 133 214q13 70 -25.5 125t-110.5 71q-40 7 -77 0z
M727 1769q15 -54 -177 -153q-128 -61 -243 -78q-74 0 -108.5 20.5t-34.5 100.5q24 63 136 125q143 82 295 98q77 6 107 -27t25 -86z" />
    <glyph glyph-name=".notdef.009" unicode="&#x1edb;" horiz-adv-x="1201" 
d="M377 1278q-141 -53 -227 -236q-44 -92 -107 -325q-12 -101 -12 -178q0 -156 46 -258.5t159 -214.5q129 -60 282 -60q141 0 332 55q143 105 184 228q35 104 31 356q-51 330 -203 477q-162 156 -485 156zM379 598q2 49 33 127q37 94 73 96q72 4 138 -30q75 -41 75 -111
q0 -203 -166 -203q-159 0 -153 121zM797 1544q-45 -7 -78.5 -48.5t-42.5 -90.5q3 -116 144 -140q7 5 -21 -27q-18 -29 -55.5 -43t-109.5 -31q-47 -26 -38 -50t55 -35q127 -23 225 62q111 103 131 211q13 68 -25.5 123t-108.5 69q-39 8 -76 0zM821 1705q15 -54 -177 -153
q-128 -61 -243 -78q-74 0 -108.5 20.5t-34.5 100.5q24 63 136 125q143 82 295 98q77 6 107 -27t25 -86z" />
    <glyph glyph-name=".notdef.076" unicode="&#x1edc;" horiz-adv-x="1197" 
d="M383 1487q338 0 504 -203q135 -170 184 -532q4 -289 -33 -416q-43 -146 -182 -264q-190 -64 -334 -64q-153 0 -280 70q-113 127 -159 251t-46 296q0 92 12 209q62 266 107 376q88 215 227 277zM412 705q-9 -140 153 -140q101 0 137 72q29 53 29 164q0 76 -67.5 123
t-145.5 41q-37 -4 -74 -115q-30 -90 -32 -145zM833 1723q37 7 77 0q72 -16 110.5 -71t25.5 -125q-20 -110 -133 -214q-98 -86 -228 -63q-48 12 -56.5 36.5t39.5 50.5q73 17 111.5 30.5t55.5 44.5q27 32 21 27q-143 24 -146 143q10 48 43.5 90.5t79.5 50.5zM93 1769
q-5 53 25 86t107 27q152 -16 295 -98q112 -62 136 -125q0 -80 -34.5 -100.5t-108.5 -20.5q-115 17 -243 78q-192 99 -177 153z" />
    <glyph glyph-name=".notdef.010" unicode="&#x1edd;" horiz-adv-x="1201" 
d="M377 1278q323 0 485 -156q152 -147 203 -477q4 -252 -31 -356q-41 -123 -184 -228q-191 -55 -332 -55q-153 0 -282 60q-113 112 -159 214.5t-46 258.5q0 77 12 178q63 233 107 325q86 183 227 236zM379 598q-6 -121 153 -121q166 0 166 203q0 70 -75 111q-66 34 -138 30
q-36 -2 -73 -96q-31 -78 -33 -127zM797 1544q37 8 76 0q70 -14 108.5 -69t25.5 -123q-20 -108 -131 -211q-98 -85 -225 -62q-46 11 -55 35t38 50q72 17 109.5 31t55.5 43q28 32 21 27q-141 24 -144 140q9 49 42.5 90.5t78.5 48.5zM59 1567q-5 53 25 86t107 27
q152 -16 295 -98q112 -62 136 -125q0 -80 -34.5 -100.5t-108.5 -20.5q-115 17 -243 78q-192 99 -177 153z" />
    <glyph glyph-name=".notdef.074" unicode="&#x1ede;" horiz-adv-x="1197" 
d="M383 1487q-139 -62 -227 -277q-45 -110 -107 -376q-12 -117 -12 -209q0 -172 46 -296t159 -251q127 -70 280 -70q144 0 334 64q139 118 182 264q37 127 33 416q-49 362 -184 532q-166 203 -504 203zM412 705q2 55 32 145q37 111 74 115q78 6 145.5 -41t67.5 -123
q0 -111 -29 -164q-36 -72 -137 -72q-162 0 -153 140zM833 1723q-46 -8 -79.5 -50.5t-43.5 -90.5q3 -119 146 -143q6 5 -21 -27q-17 -31 -55.5 -44.5t-111.5 -30.5q-48 -26 -39.5 -50.5t56.5 -36.5q130 -23 228 63q113 104 133 214q13 70 -25.5 125t-110.5 71q-40 7 -77 0z
M322 1864q0 5 1.5 10.5t3.5 16.5q11 32 33 58.5t51 43.5q54 33 129 33q32 0 63.5 -7.5t58.5 -18.5q75 -37 87 -100v1q5 -15 6.5 -31t1.5 -34q0 -27 -6 -53.5t-18 -49.5t-33 -38t-44 -28q-3 -2 -13 -10t-15 -13l-41 -36v-2q-11 -17 -21 -29.5t-30 -12.5q-26 0 -42 15t-27 38
l-2 4l-2 4q-5 14 -6.5 27t-1.5 24q0 41 29 67q3 3 19 13.5t33 21.5q13 8 23 17.5t10 15.5q0 4 -3 10t-7 12q-13 23 -38 23q-47 0 -94 -59q-105 0 -105 67z" />
    <glyph glyph-name=".notdef.008" unicode="&#x1edf;" horiz-adv-x="1201" 
d="M377 1278q-141 -53 -227 -236q-44 -92 -107 -325q-12 -101 -12 -178q0 -156 46 -258.5t159 -214.5q129 -60 282 -60q141 0 332 55q143 105 184 228q35 104 31 356q-51 330 -203 477q-162 156 -485 156zM379 598q2 49 33 127q37 94 73 96q72 4 138 -30q75 -41 75 -111
q0 -203 -166 -203q-159 0 -153 121zM842 1500q-45 -7 -78.5 -48.5t-42.5 -90.5q3 -116 144 -140q7 5 -21 -27q-18 -29 -55.5 -43t-109.5 -31q-47 -26 -38 -50t55 -35q127 -23 225 62q111 103 131 211q13 68 -25.5 123t-108.5 69q-39 8 -76 0zM320 1627q0 5 1.5 10.5
t3.5 16.5q11 32 33 58.5t51 43.5q54 33 129 33q32 0 63.5 -7.5t58.5 -18.5q75 -37 87 -100v1q5 -15 6.5 -31t1.5 -34q0 -27 -6 -53.5t-18 -49.5t-33 -38t-44 -28q-3 -2 -13 -10t-15 -13l-41 -36v-2q-11 -17 -21 -29.5t-30 -12.5q-26 0 -42 15t-27 38l-2 4l-2 4
q-5 14 -6.5 27t-1.5 24q0 41 29 67q3 3 19 13.5t33 21.5q13 8 23 17.5t10 15.5q0 4 -3 10t-7 12q-13 23 -38 23q-47 0 -94 -59q-105 0 -105 67z" />
    <glyph glyph-name=".notdef.073" unicode="&#x1ee0;" horiz-adv-x="1197" 
d="M383 1487q-139 -62 -227 -277q-45 -110 -107 -376q-12 -117 -12 -209q0 -172 46 -296t159 -251q127 -70 280 -70q144 0 334 64q139 118 182 264q37 127 33 416q-49 362 -184 532q-166 203 -504 203zM412 705q2 55 32 145q37 111 74 115q78 6 145.5 -41t67.5 -123
q0 -111 -29 -164q-36 -72 -137 -72q-162 0 -153 140zM833 1723q-46 -8 -79.5 -50.5t-43.5 -90.5q3 -119 146 -143q6 5 -21 -27q-17 -31 -55.5 -44.5t-111.5 -30.5q-48 -26 -39.5 -50.5t56.5 -36.5q130 -23 228 63q113 104 133 214q13 70 -25.5 125t-110.5 71q-40 7 -77 0z
M485 1806q-19 20 -41 20q-8 -3 -18.5 -7.5t-20.5 -13.5q-3 -8 -9 -15.5l-14 -17.5q-21 -23 -44.5 -33.5t-47.5 -10.5q-38 0 -60 27.5t-22 65.5q0 37 19.5 78.5t57.5 86.5q13 12 31.5 24.5t41.5 23.5h-1q23 13 42 18.5t38 5.5q41 0 71.5 -8.5t50.5 -22.5q1 -1 5.5 -7.5
t12.5 -17.5q5 -5 10 -11.5t10 -14.5q8 -11 20.5 -16t31.5 -7q21 0 42 28l13.5 18l13.5 18h-1q2 2 5.5 6t6.5 8q34 26 68 26q23 0 42 -8.5t33 -23.5t21.5 -34t7.5 -40q0 -23 -7.5 -43.5t-20.5 -41.5q-43 -62 -82 -95q-59 -42 -145 -45q-31 -2 -57.5 5.5t-46.5 21.5
q-8 6 -22 18t-35 35z" />
    <glyph glyph-name=".notdef.007" unicode="&#x1ee1;" horiz-adv-x="1201" 
d="M377 1278q-141 -53 -227 -236q-44 -92 -107 -325q-12 -101 -12 -178q0 -156 46 -258.5t159 -214.5q129 -60 282 -60q141 0 332 55q143 105 184 228q35 104 31 356q-51 330 -203 477q-162 156 -485 156zM379 598q2 49 33 127q37 94 73 96q72 4 138 -30q75 -41 75 -111
q0 -203 -166 -203q-159 0 -153 121zM819 1502q-45 -7 -78.5 -48.5t-42.5 -90.5q3 -116 144 -140q7 5 -21 -27q-18 -29 -55.5 -43t-109.5 -31q-47 -26 -38 -50t55 -35q127 -23 225 62q111 103 131 211q13 68 -25.5 123t-108.5 69q-39 8 -76 0zM471 1635q-19 20 -41 20
q-8 -3 -18.5 -7.5t-20.5 -13.5q-3 -8 -9 -15.5l-14 -17.5q-21 -23 -44.5 -33.5t-47.5 -10.5q-38 0 -60 27.5t-22 65.5q0 37 19.5 78.5t57.5 86.5q13 12 31.5 24.5t41.5 23.5h-1q23 13 42 18.5t38 5.5q41 0 71.5 -8.5t50.5 -22.5q1 -1 5.5 -7.5t12.5 -17.5q5 -5 10 -11.5
t10 -14.5q8 -11 20.5 -16t31.5 -7q21 0 42 28l13.5 18l13.5 18h-1q2 2 5.5 6t6.5 8q34 26 68 26q23 0 42 -8.5t33 -23.5t21.5 -34t7.5 -40q0 -23 -7.5 -43.5t-20.5 -41.5q-43 -62 -82 -95q-59 -42 -145 -45q-31 -2 -57.5 5.5t-46.5 21.5q-8 6 -22 18t-35 35z" />
    <glyph glyph-name=".notdef.072" unicode="&#x1ee2;" horiz-adv-x="1197" 
d="M383 1487q338 0 504 -203q135 -170 184 -532q4 -289 -33 -416q-43 -146 -182 -264q-190 -64 -334 -64q-153 0 -280 70q-113 127 -159 251t-46 296q0 92 12 209q62 266 107 376q88 215 227 277zM412 705q-9 -140 153 -140q101 0 137 72q29 53 29 164q0 76 -67.5 123
t-145.5 41q-37 -4 -74 -115q-30 -90 -32 -145zM833 1723q37 7 77 0q72 -16 110.5 -71t25.5 -125q-20 -110 -133 -214q-98 -86 -228 -63q-48 12 -56.5 36.5t39.5 50.5q73 17 111.5 30.5t55.5 44.5q27 32 21 27q-143 24 -146 143q10 48 43.5 90.5t79.5 50.5zM462 -67
q29 13 63 13q87 0 139 -95q16 -26 16 -62q0 -76 -75 -124q-33 -21 -75 -21q-65 0 -109.5 45t-44.5 112q0 98 86 132z" />
    <glyph glyph-name=".notdef.006" unicode="&#x1ee3;" horiz-adv-x="1201" 
d="M377 1278q323 0 485 -156q152 -147 203 -477q4 -252 -31 -356q-41 -123 -184 -228q-191 -55 -332 -55q-153 0 -282 60q-113 112 -159 214.5t-46 258.5q0 77 12 178q63 233 107 325q86 183 227 236zM379 598q-6 -121 153 -121q166 0 166 203q0 70 -75 111q-66 34 -138 30
q-36 -2 -73 -96q-31 -78 -33 -127zM797 1544q37 8 76 0q70 -14 108.5 -69t25.5 -123q-20 -108 -131 -211q-98 -85 -225 -62q-46 11 -55 35t38 50q72 17 109.5 31t55.5 43q28 32 21 27q-141 24 -144 140q9 49 42.5 90.5t78.5 48.5zM462 -67q29 13 63 13q87 0 139 -95
q16 -26 16 -62q0 -76 -75 -124q-33 -21 -75 -21q-65 0 -109.5 45t-44.5 112q0 98 86 132z" />
    <glyph glyph-name=".notdef.084" unicode="&#x1ee4;" horiz-adv-x="1239" 
d="M514 1343q-12 -133 -35 -292q-26 -187 -26 -279q0 -188 110 -192q111 -5 111 204q0 103 -27 285q-31 211 -35 268q-6 76 64 117q57 33 137 33q88 0 156 -41q75 -45 94 -127q33 -152 33 -352q0 -211 -47 -465q-62 -342 -170 -406q-52 -94 -324 -94q-291 0 -330 100
q-125 107 -182 375q-43 197 -43 428q0 203 41 402q20 94 92 139t166 45q72 0 135 -27q82 -34 82 -98q0 -6 -2 -23zM491 -67q29 13 63 13q87 0 139 -95q16 -26 16 -62q0 -76 -75 -124q-33 -21 -75 -21q-65 0 -109.5 45t-44.5 112q0 98 86 132z" />
    <glyph glyph-name=".notdef.018" unicode="&#x1ee5;" horiz-adv-x="1235" 
d="M514 1153q-12 -113 -35 -252q-26 -160 -26 -239q0 -162 110 -166q111 -4 111 176q0 88 -27 246q-31 184 -35 229q-6 67 68 102q57 27 133 27q84 0 152 -33q79 -39 98 -110q33 -132 33 -304q0 -184 -47 -403q-64 -291 -170 -346q-52 -80 -324 -80q-289 0 -330 86
q-123 88 -182 317q-43 170 -43 373q0 176 41 346q18 80 94 121q68 37 164 37q70 0 131 -20q86 -31 86 -86q0 -7 -2 -21zM491 -67q29 13 63 13q87 0 139 -95q16 -26 16 -62q0 -76 -75 -124q-33 -21 -75 -21q-65 0 -109.5 45t-44.5 112q0 98 86 132z" />
    <glyph glyph-name=".notdef.086" unicode="&#x1ee6;" horiz-adv-x="1239" 
d="M514 1343q-12 -133 -35 -292q-26 -187 -26 -279q0 -188 110 -192q111 -5 111 204q0 103 -27 285q-31 211 -35 268q-6 76 64 117q57 33 137 33q88 0 156 -41q75 -45 94 -127q33 -152 33 -352q0 -211 -47 -465q-62 -342 -170 -406q-52 -94 -324 -94q-291 0 -330 100
q-125 107 -182 375q-43 197 -43 428q0 203 41 402q20 94 92 139t166 45q72 0 135 -27q82 -34 82 -98q0 -6 -2 -23zM346 1840q0 5 1.5 10.5t3.5 16.5q11 32 33 58.5t51 43.5q54 33 129 33q32 0 63.5 -7.5t58.5 -18.5q75 -37 87 -100v1q5 -15 6.5 -31t1.5 -34q0 -27 -6 -53.5
t-18 -49.5t-33 -38t-44 -28q-3 -2 -13 -10t-15 -13l-41 -36v-2q-11 -17 -21 -29.5t-30 -12.5q-26 0 -42 15t-27 38l-2 4l-2 4q-5 14 -6.5 27t-1.5 24q0 41 29 67q3 3 19 13.5t33 21.5q13 8 23 17.5t10 15.5q0 4 -3 10t-7 12q-13 23 -38 23q-47 0 -94 -59q-105 0 -105 67z
" />
    <glyph glyph-name=".notdef.020" unicode="&#x1ee7;" horiz-adv-x="1235" 
d="M514 1153q-12 -113 -35 -252q-26 -160 -26 -239q0 -162 110 -166q111 -4 111 176q0 88 -27 246q-31 184 -35 229q-6 67 68 102q57 27 133 27q84 0 152 -33q79 -39 98 -110q33 -132 33 -304q0 -184 -47 -403q-64 -291 -170 -346q-52 -80 -324 -80q-289 0 -330 86
q-123 88 -182 317q-43 170 -43 373q0 176 41 346q18 80 94 121q68 37 164 37q70 0 131 -20q86 -31 86 -86q0 -7 -2 -21zM346 1617q0 5 1.5 10.5t3.5 16.5q11 32 33 58.5t51 43.5q54 33 129 33q32 0 63.5 -7.5t58.5 -18.5q75 -37 87 -100v1q5 -15 6.5 -31t1.5 -34
q0 -27 -6 -53.5t-18 -49.5t-33 -38t-44 -28q-3 -2 -13 -10t-15 -13l-41 -36v-2q-11 -17 -21 -29.5t-30 -12.5q-26 0 -42 15t-27 38l-2 4l-2 4q-5 14 -6.5 27t-1.5 24q0 41 29 67q3 3 19 13.5t33 21.5q13 8 23 17.5t10 15.5q0 4 -3 10t-7 12q-13 23 -38 23q-47 0 -94 -59
q-105 0 -105 67z" />
    <glyph glyph-name=".notdef.081" unicode="&#x1ee8;" horiz-adv-x="1233" 
d="M514 1343q-12 -133 -35 -292q-26 -187 -26 -279q0 -188 110 -192q111 -5 111 204q0 103 -27 285q-31 211 -35 268q-6 76 64 117q57 33 137 33q88 0 156 -41q75 -45 94 -127q33 -152 33 -352q0 -211 -47 -465q-62 -342 -170 -406q-52 -94 -324 -94q-291 0 -330 100
q-125 107 -182 375q-43 197 -43 428q0 203 41 402q20 94 92 139t166 45q72 0 135 -27q82 -34 82 -98q0 -6 -2 -23zM1078 1723q37 7 77 0q72 -16 110.5 -71t25.5 -125q-20 -110 -133 -214q-98 -86 -228 -63q-48 12 -56.5 36.5t39.5 50.5q73 17 111.5 30.5t55.5 44.5
q27 32 21 27q-143 24 -146 143q10 48 43.5 90.5t79.5 50.5zM863 1772q15 -54 -177 -153q-128 -61 -243 -78q-74 0 -108.5 20.5t-34.5 100.5q24 63 136 125q143 82 295 98q77 6 107 -27t25 -86z" />
    <glyph glyph-name=".notdef.015" unicode="&#x1ee9;" horiz-adv-x="1218" 
d="M514 1153q-12 -113 -35 -252q-26 -160 -26 -239q0 -162 110 -166q111 -4 111 176q0 88 -27 246q-31 184 -35 229q-6 67 68 102q57 27 133 27q84 0 152 -33q79 -39 98 -110q33 -132 33 -304q0 -184 -47 -403q-64 -291 -170 -346q-52 -80 -324 -80q-289 0 -330 86
q-123 88 -182 317q-43 170 -43 373q0 176 41 346q18 80 94 121q68 37 164 37q70 0 131 -20q86 -31 86 -86q0 -7 -2 -21zM1030 1547q37 8 76 0q70 -14 108.5 -69t25.5 -123q-20 -108 -131 -211q-98 -85 -225 -62q-46 11 -55 35t38 50q72 17 109.5 31t55.5 43q28 32 21 27
q-141 24 -144 140q9 49 42.5 90.5t78.5 48.5zM865 1572q15 -54 -177 -153q-128 -61 -243 -78q-74 0 -108.5 20.5t-34.5 100.5q24 63 136 125q143 82 295 98q77 6 107 -27t25 -86z" />
    <glyph glyph-name=".notdef.082" unicode="&#x1eea;" horiz-adv-x="1233" 
d="M514 1343q-12 -133 -35 -292q-26 -187 -26 -279q0 -188 110 -192q111 -5 111 204q0 103 -27 285q-31 211 -35 268q-6 76 64 117q57 33 137 33q88 0 156 -41q75 -45 94 -127q33 -152 33 -352q0 -211 -47 -465q-62 -342 -170 -406q-52 -94 -324 -94q-291 0 -330 100
q-125 107 -182 375q-43 197 -43 428q0 203 41 402q20 94 92 139t166 45q72 0 135 -27q82 -34 82 -98q0 -6 -2 -23zM1078 1723q37 7 77 0q72 -16 110.5 -71t25.5 -125q-20 -110 -133 -214q-98 -86 -228 -63q-48 12 -56.5 36.5t39.5 50.5q73 17 111.5 30.5t55.5 44.5
q27 32 21 27q-143 24 -146 143q10 48 43.5 90.5t79.5 50.5zM251 1769q-5 53 25 86t107 27q152 -16 295 -98q112 -62 136 -125q0 -80 -34.5 -100.5t-108.5 -20.5q-115 17 -243 78q-192 99 -177 153z" />
    <glyph glyph-name=".notdef.016" unicode="&#x1eeb;" horiz-adv-x="1218" 
d="M514 1153q-12 -113 -35 -252q-26 -160 -26 -239q0 -162 110 -166q111 -4 111 176q0 88 -27 246q-31 184 -35 229q-6 67 68 102q57 27 133 27q84 0 152 -33q79 -39 98 -110q33 -132 33 -304q0 -184 -47 -403q-64 -291 -170 -346q-52 -80 -324 -80q-289 0 -330 86
q-123 88 -182 317q-43 170 -43 373q0 176 41 346q18 80 94 121q68 37 164 37q70 0 131 -20q86 -31 86 -86q0 -7 -2 -21zM1030 1547q37 8 76 0q70 -14 108.5 -69t25.5 -123q-20 -108 -131 -211q-98 -85 -225 -62q-46 11 -55 35t38 50q72 17 109.5 31t55.5 43q28 32 21 27
q-141 24 -144 140q9 49 42.5 90.5t78.5 48.5zM248 1575q-5 53 25 86t107 27q152 -16 295 -98q112 -62 136 -125q0 -80 -34.5 -100.5t-108.5 -20.5q-115 17 -243 78q-192 99 -177 153z" />
    <glyph glyph-name=".notdef.080" unicode="&#x1eec;" horiz-adv-x="1233" 
d="M514 1343q-12 -133 -35 -292q-26 -187 -26 -279q0 -188 110 -192q111 -5 111 204q0 103 -27 285q-31 211 -35 268q-6 76 64 117q57 33 137 33q88 0 156 -41q75 -45 94 -127q33 -152 33 -352q0 -211 -47 -465q-62 -342 -170 -406q-52 -94 -324 -94q-291 0 -330 100
q-125 107 -182 375q-43 197 -43 428q0 203 41 402q20 94 92 139t166 45q72 0 135 -27q82 -34 82 -98q0 -6 -2 -23zM1078 1723q37 7 77 0q72 -16 110.5 -71t25.5 -125q-20 -110 -133 -214q-98 -86 -228 -63q-48 12 -56.5 36.5t39.5 50.5q73 17 111.5 30.5t55.5 44.5
q27 32 21 27q-143 24 -146 143q10 48 43.5 90.5t79.5 50.5zM346 1840q0 5 1.5 10.5t3.5 16.5q11 32 33 58.5t51 43.5q54 33 129 33q32 0 63.5 -7.5t58.5 -18.5q75 -37 87 -100v1q5 -15 6.5 -31t1.5 -34q0 -27 -6 -53.5t-18 -49.5t-33 -38t-44 -28q-3 -2 -13 -10t-15 -13
l-41 -36v-2q-11 -17 -21 -29.5t-30 -12.5q-26 0 -42 15t-27 38l-2 4l-2 4q-5 14 -6.5 27t-1.5 24q0 41 29 67q3 3 19 13.5t33 21.5q13 8 23 17.5t10 15.5q0 4 -3 10t-7 12q-13 23 -38 23q-47 0 -94 -59q-105 0 -105 67z" />
    <glyph glyph-name=".notdef.014" unicode="&#x1eed;" horiz-adv-x="1218" 
d="M514 1153q-12 -113 -35 -252q-26 -160 -26 -239q0 -162 110 -166q111 -4 111 176q0 88 -27 246q-31 184 -35 229q-6 67 68 102q57 27 133 27q84 0 152 -33q79 -39 98 -110q33 -132 33 -304q0 -184 -47 -403q-64 -291 -170 -346q-52 -80 -324 -80q-289 0 -330 86
q-123 88 -182 317q-43 170 -43 373q0 176 41 346q18 80 94 121q68 37 164 37q70 0 131 -20q86 -31 86 -86q0 -7 -2 -21zM1030 1547q37 8 76 0q70 -14 108.5 -69t25.5 -123q-20 -108 -131 -211q-98 -85 -225 -62q-46 11 -55 35t38 50q72 17 109.5 31t55.5 43q28 32 21 27
q-141 24 -144 140q9 49 42.5 90.5t78.5 48.5zM346 1617q0 5 1.5 10.5t3.5 16.5q11 32 33 58.5t51 43.5q54 33 129 33q32 0 63.5 -7.5t58.5 -18.5q75 -37 87 -100v1q5 -15 6.5 -31t1.5 -34q0 -27 -6 -53.5t-18 -49.5t-33 -38t-44 -28q-3 -2 -13 -10t-15 -13l-41 -36v-2
q-11 -17 -21 -29.5t-30 -12.5q-26 0 -42 15t-27 38l-2 4l-2 4q-5 14 -6.5 27t-1.5 24q0 41 29 67q3 3 19 13.5t33 21.5q13 8 23 17.5t10 15.5q0 4 -3 10t-7 12q-13 23 -38 23q-47 0 -94 -59q-105 0 -105 67z" />
    <glyph glyph-name=".notdef.079" unicode="&#x1eee;" horiz-adv-x="1233" 
d="M514 1343q-12 -133 -35 -292q-26 -187 -26 -279q0 -188 110 -192q111 -5 111 204q0 103 -27 285q-31 211 -35 268q-6 76 64 117q57 33 137 33q88 0 156 -41q75 -45 94 -127q33 -152 33 -352q0 -211 -47 -465q-62 -342 -170 -406q-52 -94 -324 -94q-291 0 -330 100
q-125 107 -182 375q-43 197 -43 428q0 203 41 402q20 94 92 139t166 45q72 0 135 -27q82 -34 82 -98q0 -6 -2 -23zM1078 1723q37 7 77 0q72 -16 110.5 -71t25.5 -125q-20 -110 -133 -214q-98 -86 -228 -63q-48 12 -56.5 36.5t39.5 50.5q73 17 111.5 30.5t55.5 44.5
q27 32 21 27q-143 24 -146 143q10 48 43.5 90.5t79.5 50.5zM510 1620q-19 20 -41 20q-8 -3 -18.5 -7.5t-20.5 -13.5q-3 -8 -9 -15.5l-14 -17.5q-21 -23 -44.5 -33.5t-47.5 -10.5q-38 0 -60 27.5t-22 65.5q0 37 19.5 78.5t57.5 86.5q13 12 31.5 24.5t41.5 23.5h-1
q23 13 42 18.5t38 5.5q41 0 71.5 -8.5t50.5 -22.5q1 -1 5.5 -7.5t12.5 -17.5q5 -5 10 -11.5t10 -14.5q8 -11 20.5 -16t31.5 -7q21 0 42 28l13.5 18l13.5 18h-1q2 2 5.5 6t6.5 8q34 26 68 26q23 0 42 -8.5t33 -23.5t21.5 -34t7.5 -40q0 -23 -7.5 -43.5t-20.5 -41.5
q-43 -62 -82 -95q-59 -42 -145 -45q-31 -2 -57.5 5.5t-46.5 21.5q-8 6 -22 18t-35 35z" />
    <glyph glyph-name=".notdef.013" unicode="&#x1eef;" horiz-adv-x="1218" 
d="M514 1153q-12 -113 -35 -252q-26 -160 -26 -239q0 -162 110 -166q111 -4 111 176q0 88 -27 246q-31 184 -35 229q-6 67 68 102q57 27 133 27q84 0 152 -33q79 -39 98 -110q33 -132 33 -304q0 -184 -47 -403q-64 -291 -170 -346q-52 -80 -324 -80q-289 0 -330 86
q-123 88 -182 317q-43 170 -43 373q0 176 41 346q18 80 94 121q68 37 164 37q70 0 131 -20q86 -31 86 -86q0 -7 -2 -21zM1030 1547q37 8 76 0q70 -14 108.5 -69t25.5 -123q-20 -108 -131 -211q-98 -85 -225 -62q-46 11 -55 35t38 50q72 17 109.5 31t55.5 43q28 32 21 27
q-141 24 -144 140q9 49 42.5 90.5t78.5 48.5zM490 1424q-19 20 -41 20q-8 -3 -18.5 -7.5t-20.5 -13.5q-3 -8 -9 -15.5l-14 -17.5q-21 -23 -44.5 -33.5t-47.5 -10.5q-38 0 -60 27.5t-22 65.5q0 37 19.5 78.5t57.5 86.5q13 12 31.5 24.5t41.5 23.5h-1q23 13 42 18.5t38 5.5
q41 0 71.5 -8.5t50.5 -22.5q1 -1 5.5 -7.5t12.5 -17.5q5 -5 10 -11.5t10 -14.5q8 -11 20.5 -16t31.5 -7q21 0 42 28l13.5 18l13.5 18h-1q2 2 5.5 6t6.5 8q34 26 68 26q23 0 42 -8.5t33 -23.5t21.5 -34t7.5 -40q0 -23 -7.5 -43.5t-20.5 -41.5q-43 -62 -82 -95
q-59 -42 -145 -45q-31 -2 -57.5 5.5t-46.5 21.5q-8 6 -22 18t-35 35z" />
    <glyph glyph-name=".notdef.078" unicode="&#x1ef0;" horiz-adv-x="1233" 
d="M514 1343q-12 -133 -35 -292q-26 -187 -26 -279q0 -188 110 -192q111 -5 111 204q0 103 -27 285q-31 211 -35 268q-6 76 64 117q57 33 137 33q88 0 156 -41q75 -45 94 -127q33 -152 33 -352q0 -211 -47 -465q-62 -342 -170 -406q-52 -94 -324 -94q-291 0 -330 100
q-125 107 -182 375q-43 197 -43 428q0 203 41 402q20 94 92 139t166 45q72 0 135 -27q82 -34 82 -98q0 -6 -2 -23zM1078 1723q37 7 77 0q72 -16 110.5 -71t25.5 -125q-20 -110 -133 -214q-98 -86 -228 -63q-48 12 -56.5 36.5t39.5 50.5q73 17 111.5 30.5t55.5 44.5
q27 32 21 27q-143 24 -146 143q10 48 43.5 90.5t79.5 50.5zM491 -67q29 13 63 13q87 0 139 -95q16 -26 16 -62q0 -76 -75 -124q-33 -21 -75 -21q-65 0 -109.5 45t-44.5 112q0 98 86 132z" />
    <glyph glyph-name=".notdef.012" unicode="&#x1ef1;" horiz-adv-x="1218" 
d="M514 1153q-12 -113 -35 -252q-26 -160 -26 -239q0 -162 110 -166q111 -4 111 176q0 88 -27 246q-31 184 -35 229q-6 67 68 102q57 27 133 27q84 0 152 -33q79 -39 98 -110q33 -132 33 -304q0 -184 -47 -403q-64 -291 -170 -346q-52 -80 -324 -80q-289 0 -330 86
q-123 88 -182 317q-43 170 -43 373q0 176 41 346q18 80 94 121q68 37 164 37q70 0 131 -20q86 -31 86 -86q0 -7 -2 -21zM1030 1547q37 8 76 0q70 -14 108.5 -69t25.5 -123q-20 -108 -131 -211q-98 -85 -225 -62q-46 11 -55 35t38 50q72 17 109.5 31t55.5 43q28 32 21 27
q-141 24 -144 140q9 49 42.5 90.5t78.5 48.5zM491 -67q29 13 63 13q87 0 139 -95q16 -26 16 -62q0 -76 -75 -124q-33 -21 -75 -21q-65 0 -109.5 45t-44.5 112q0 98 86 132z" />
    <glyph glyph-name=".notdef.071" unicode="&#x1ef2;" horiz-adv-x="1174" 
d="M43 1372q0 51 90 86q72 29 133 29q90 0 105 -53q26 -35 49 -121q26 -99 41 -127q31 -62 90 -60q123 7 168 301q14 58 131 58q74 0 141 -29q84 -37 84 -102q-33 -336 -67 -441q-68 -202 -250 -245q-10 -23 -10 -70q0 -70 19 -209t19 -209q0 -51 -6 -78q-20 -94 -211 -94
q-67 0 -143 21q-102 26 -107 73q-4 68 17 238q22 182 22 238q0 59 -14 86q-190 69 -256 280q-45 143 -45 428zM247 1768q-5 53 25 86t107 27q152 -16 295 -98q112 -62 136 -125q0 -80 -34.5 -100.5t-108.5 -20.5q-115 17 -243 78q-192 99 -177 153z" />
    <glyph glyph-name=".notdef.005" unicode="&#x1ef3;" horiz-adv-x="1178" 
d="M4 1159q0 64 100 98q76 25 154 25q158 0 168 -76q16 -112 33 -198q22 -119 92 -134q74 0 98 125q10 68 35 203q21 72 180 72q80 0 142 -29q84 -37 79 -106q-6 -115 -69 -275q-51 -129 -170 -360q-70 -135 -211 -404q-176 -319 -324 -311q-133 6 -202 76q-46 45 -46 84
q0 94 177 354q125 184 125 207q0 8 -9 12q-184 68 -280 299q-72 172 -72 338zM241 1566q-5 53 25 86t107 27q152 -16 295 -98q112 -62 136 -125q0 -80 -34.5 -100.5t-108.5 -20.5q-115 17 -243 78q-192 99 -177 153z" />
    <glyph glyph-name=".notdef.067" unicode="&#x1ef4;" horiz-adv-x="1174" 
d="M43 1372q0 51 90 86q72 29 133 29q90 0 105 -53q26 -35 49 -121q26 -99 41 -127q31 -62 90 -60q123 7 168 301q14 58 131 58q74 0 141 -29q84 -37 84 -102q-33 -336 -67 -441q-68 -202 -250 -245q-10 -23 -10 -70q0 -70 19 -209t19 -209q0 -51 -6 -78q-20 -94 -211 -94
q-67 0 -143 21q-102 26 -107 73q-4 68 17 238q22 182 22 238q0 59 -14 86q-190 69 -256 280q-45 143 -45 428zM504 -67q29 13 63 13q87 0 139 -95q16 -26 16 -62q0 -76 -75 -124q-33 -21 -75 -21q-65 0 -109.5 45t-44.5 112q0 98 86 132z" />
    <glyph glyph-name=".notdef.001" unicode="&#x1ef5;" horiz-adv-x="1178" 
d="M4 1159q0 64 100 98q76 25 154 25q158 0 168 -76q16 -112 33 -198q22 -119 92 -134q74 0 98 125q10 68 35 203q21 72 180 72q80 0 142 -29q84 -37 79 -106q-6 -115 -69 -275q-51 -129 -170 -360q-70 -135 -211 -404q-176 -319 -324 -311q-133 6 -202 76q-46 45 -46 84
q0 94 177 354q125 184 125 207q0 8 -9 12q-184 68 -280 299q-72 172 -72 338zM782 77q29 13 63 13q87 0 139 -95q16 -26 16 -62q0 -76 -75 -124q-33 -21 -75 -21q-65 0 -109.5 45t-44.5 112q0 98 86 132z" />
    <glyph glyph-name=".notdef.069" unicode="&#x1ef6;" horiz-adv-x="1174" 
d="M43 1372q0 51 90 86q72 29 133 29q90 0 105 -53q26 -35 49 -121q26 -99 41 -127q31 -62 90 -60q123 7 168 301q14 58 131 58q74 0 141 -29q84 -37 84 -102q-33 -336 -67 -441q-68 -202 -250 -245q-10 -23 -10 -70q0 -70 19 -209t19 -209q0 -51 -6 -78q-20 -94 -211 -94
q-67 0 -143 21q-102 26 -107 73q-4 68 17 238q22 182 22 238q0 59 -14 86q-190 69 -256 280q-45 143 -45 428zM339 1839q0 5 1.5 10.5t3.5 16.5q11 32 33 58.5t51 43.5q54 33 129 33q32 0 63.5 -7.5t58.5 -18.5q75 -37 87 -100v1q5 -15 6.5 -31t1.5 -34q0 -27 -6 -53.5
t-18 -49.5t-33 -38t-44 -28q-3 -2 -13 -10t-15 -13l-41 -36v-2q-11 -17 -21 -29.5t-30 -12.5q-26 0 -42 15t-27 38l-2 4l-2 4q-5 14 -6.5 27t-1.5 24q0 41 29 67q3 3 19 13.5t33 21.5q13 8 23 17.5t10 15.5q0 4 -3 10t-7 12q-13 23 -38 23q-47 0 -94 -59q-105 0 -105 67z
" />
    <glyph glyph-name=".notdef.003" unicode="&#x1ef7;" horiz-adv-x="1178" 
d="M4 1159q0 64 100 98q76 25 154 25q158 0 168 -76q16 -112 33 -198q22 -119 92 -134q74 0 98 125q10 68 35 203q21 72 180 72q80 0 142 -29q84 -37 79 -106q-6 -115 -69 -275q-51 -129 -170 -360q-70 -135 -211 -404q-176 -319 -324 -311q-133 6 -202 76q-46 45 -46 84
q0 94 177 354q125 184 125 207q0 8 -9 12q-184 68 -280 299q-72 172 -72 338zM347 1626q0 5 1.5 10.5t3.5 16.5q11 32 33 58.5t51 43.5q54 33 129 33q32 0 63.5 -7.5t58.5 -18.5q75 -37 87 -100v1q5 -15 6.5 -31t1.5 -34q0 -27 -6 -53.5t-18 -49.5t-33 -38t-44 -28
q-3 -2 -13 -10t-15 -13l-41 -36v-2q-11 -17 -21 -29.5t-30 -12.5q-26 0 -42 15t-27 38l-2 4l-2 4q-5 14 -6.5 27t-1.5 24q0 41 29 67q3 3 19 13.5t33 21.5q13 8 23 17.5t10 15.5q0 4 -3 10t-7 12q-13 23 -38 23q-47 0 -94 -59q-105 0 -105 67z" />
    <glyph glyph-name=".notdef.068" unicode="&#x1ef8;" horiz-adv-x="1174" 
d="M43 1372q0 51 90 86q72 29 133 29q90 0 105 -53q26 -35 49 -121q26 -99 41 -127q31 -62 90 -60q123 7 168 301q14 58 131 58q74 0 141 -29q84 -37 84 -102q-33 -336 -67 -441q-68 -202 -250 -245q-10 -23 -10 -70q0 -70 19 -209t19 -209q0 -51 -6 -78q-20 -94 -211 -94
q-67 0 -143 21q-102 26 -107 73q-4 68 17 238q22 182 22 238q0 59 -14 86q-190 69 -256 280q-45 143 -45 428zM495 1618q-19 20 -41 20q-8 -3 -18.5 -7.5t-20.5 -13.5q-3 -8 -9 -15.5l-14 -17.5q-21 -23 -44.5 -33.5t-47.5 -10.5q-38 0 -60 27.5t-22 65.5q0 37 19.5 78.5
t57.5 86.5q13 12 31.5 24.5t41.5 23.5h-1q23 13 42 18.5t38 5.5q41 0 71.5 -8.5t50.5 -22.5q1 -1 5.5 -7.5t12.5 -17.5q5 -5 10 -11.5t10 -14.5q8 -11 20.5 -16t31.5 -7q21 0 42 28l13.5 18l13.5 18h-1q2 2 5.5 6t6.5 8q34 26 68 26q23 0 42 -8.5t33 -23.5t21.5 -34t7.5 -40
q0 -23 -7.5 -43.5t-20.5 -41.5q-43 -62 -82 -95q-59 -42 -145 -45q-31 -2 -57.5 5.5t-46.5 21.5q-8 6 -22 18t-35 35z" />
    <glyph glyph-name=".notdef.002" unicode="&#x1ef9;" horiz-adv-x="1178" 
d="M4 1159q0 64 100 98q76 25 154 25q158 0 168 -76q16 -112 33 -198q22 -119 92 -134q74 0 98 125q10 68 35 203q21 72 180 72q80 0 142 -29q84 -37 79 -106q-6 -115 -69 -275q-51 -129 -170 -360q-70 -135 -211 -404q-176 -319 -324 -311q-133 6 -202 76q-46 45 -46 84
q0 94 177 354q125 184 125 207q0 8 -9 12q-184 68 -280 299q-72 172 -72 338zM519 1421q-19 20 -41 20q-8 -3 -18.5 -7.5t-20.5 -13.5q-3 -8 -9 -15.5l-14 -17.5q-21 -23 -44.5 -33.5t-47.5 -10.5q-38 0 -60 27.5t-22 65.5q0 37 19.5 78.5t57.5 86.5q13 12 31.5 24.5
t41.5 23.5h-1q23 13 42 18.5t38 5.5q41 0 71.5 -8.5t50.5 -22.5q1 -1 5.5 -7.5t12.5 -17.5q5 -5 10 -11.5t10 -14.5q8 -11 20.5 -16t31.5 -7q21 0 42 28l13.5 18l13.5 18h-1q2 2 5.5 6t6.5 8q34 26 68 26q23 0 42 -8.5t33 -23.5t21.5 -34t7.5 -40q0 -23 -7.5 -43.5
t-20.5 -41.5q-43 -62 -82 -95q-59 -42 -145 -45q-31 -2 -57.5 5.5t-46.5 21.5q-8 6 -22 18t-35 35z" />
    <glyph glyph-name="quotedblleft" unicode="&#x201c;" horiz-adv-x="1178" 
d="M918 1532q61 -23 96 -89.5t35 -135.5q0 -162 -148 -228q-2 -6 -2 -12q0 -16 24.5 -72.5t24.5 -85.5q0 -20 -13 -41.5t-32 -21.5q-67 0 -190 149q-139 170 -137 324q0 98 68.5 164.5t168.5 66.5q56 0 105 -18zM295 1550q137 0 199 -106q37 -64 37 -137q0 -162 -148 -228
q-4 -6 -4 -12q0 -16 24.5 -72.5t24.5 -85.5q0 -37 -31 -59q-4 -4 -12 -4q-69 0 -192 149q-140 170 -138 324q3 98 72.5 164.5t167.5 66.5z" />
    <glyph glyph-name="quotedblright" unicode="&#x201d;" horiz-adv-x="1178" 
d="M184 1532q49 18 105 18q100 0 168.5 -66.5t68.5 -164.5q2 -154 -137 -324q-123 -149 -190 -149q-19 0 -32 21.5t-13 41.5q0 29 24.5 85.5t24.5 72.5q0 6 -2 12q-148 66 -148 228q0 69 35 135.5t96 89.5zM807 1550q98 0 167.5 -66.5t72.5 -164.5q2 -154 -138 -324
q-123 -149 -192 -149q-8 0 -12 4q-31 22 -31 59q0 29 24.5 85.5t24.5 72.5q0 6 -4 12q-148 66 -148 228q0 73 37 137q62 106 199 106z" />
    <glyph glyph-name="ellipsis" unicode="&#x2026;" horiz-adv-x="1583" 
d="M300 -16q-143 0 -143 145q0 141 143 141q142 0 142 -141q0 -145 -142 -145zM792 -16q-143 0 -143 145q0 141 143 141q141 0 141 -141q0 -145 -141 -145zM1283 -16q-143 0 -143 145q0 141 143 141q142 0 142 -141q0 -145 -142 -145z" />
    <glyph glyph-name="trademark" unicode="&#x2122;" horiz-adv-x="1257" 
d="M31 1468q104 19 225 19t256 -19q37 -16 37 -100q0 -78 -31 -92q-18 -25 -49 -25q-16 0 -46 9.5t-42 9.5q-27 0 -27 -39q0 -66 16.5 -197t16.5 -196q0 -56 -12 -66q-39 -31 -113 -31q-72 0 -90 41q-10 11 -10 60q0 65 19.5 194t19.5 193q0 20 -4 22q-7 17 -25 17
q-10 -2 -66 -15q-110 -24 -110 111q0 84 35 104zM584 786q-29 78 -29 349q0 213 23 286q4 64 94 64q96 0 98 -70q18 -47 21 -47q14 -25 38 -27q35 2 60 78q4 58 92 58q80 0 92 -62q25 -115 25 -330q0 -192 -25 -288q-12 -49 -88 -49q-61 0 -82 43q-6 12 -6 45q0 32 7 95.5
t7 96.5q0 49 -18 51q-2 0 -18.5 -40t-49.5 -40q-28 0 -41.5 40t-19.5 40q-25 -6 -25 -61q0 -35 10.5 -102.5t10.5 -102.5q0 -16 -2 -22q-25 -43 -90 -43q-66 0 -84 38z" />
    <glyph glyph-name="NULL" horiz-adv-x="0" 
 />
  </font>
</defs>
</svg>
