<svg xmlns="http://www.w3.org/2000/svg">
<defs>
<font id="UTMEdwardianB" horiz-adv-x="796" >
  <font-face 
    font-family="UTMEdwardianB"
    font-weight="700"
    font-stretch="normal"
    units-per-em="2048"
    panose-1="2 4 6 3 5 5 6 2 2 4"
    ascent="1638"
    descent="-410"
    x-height="545"
    cap-height="1346"
    bbox="-792 -780 4956 2067"
    underline-thickness="109"
    underline-position="-359"
    unicode-range="U+0020-2026"
  />
<missing-glyph horiz-adv-x="5040" 
d="M3358 2049h11q43 -12 43 -56q0 -12 -34 -61h-40q0 29 28 59l2 9q-4 11 -5 11h-7q-1 0 -3 -19h-44q6 57 49 57zM2027 2024l35 -38q0 -19 -45 -35h-22l-55 11l-13 -15l-36 32q12 34 50 34h12l42 -11h1q6 0 31 22zM472 1984h152v-68h-94v-67h89v-67h-89v-126l-8 -8h-60v328z
M1159 1984h49l10 -8v-75h30v-60h-30v-185l-10 -8h-59v193h-25v60h25v75zM1624 1984h50l7 -8v-91h-8q23 24 58 24h2q64 0 90 -75l2 -39v-147h-66v119q0 76 -35 76h-7q-36 0 -36 -82v-113h-65v328zM2200 1984h60l8 -8v-223q9 -47 37 -47q38 6 38 55v215l8 8h60v-220
q0 -87 -69 -115q-17 -9 -39 -9q-52 0 -89 58q-14 25 -14 58v228zM2438 1984h170v-68h-56v-268h-67v268h-55v60zM2621 1984h81q11 -6 86 -251h-10l80 251h86v-336h-68v242h11l-74 -242h-50q-10 0 -65 186l-18 56h10v-242h-69v336zM3760 1984h66v-336h-56l-8 8v13l3 2v-2
q-21 -29 -74 -29q-73 0 -107 95l-5 39v3q0 96 97 129l24 3q40 0 68 -32h-8v107zM2060 1932h45l6 -10v-53h-45v-221h-62v8q-12 -16 -53 -16q-95 15 -95 101v160h65v-108q0 -77 22 -82l16 -5h5q20 0 32 32l3 26v137h53v22zM3490 1932v-63h-31v-221h-61v25h10q-15 -33 -62 -33
q-74 0 -93 82l-3 29v150h66v-124q0 -49 17 -65l18 -6h7q35 0 35 65v130h34q-3 0 -3 25l6 6h60zM765 1909q73 0 110 -80q9 -19 12 -55q0 -90 -95 -131l-34 -3q-68 0 -108 76q-12 23 -12 53v10q0 96 106 130h21zM1018 1909h3q81 0 90 -105v-156h-65v123q0 72 -35 72h-5
q-37 0 -37 -72v-123h-66v253h60v-11q19 19 55 19zM1473 1909h7q78 0 114 -97h-74q-16 31 -37 31h-16q-47 -12 -47 -57l-3 -15q11 -65 54 -65h9q18 0 43 27h39l2 3h13l-3 4l1 1l3 -3l6 9l6 -22q-35 -85 -117 -85t-117 98l-4 36v3q0 87 80 123q17 9 41 9zM3147 1909h3

<glyph glyph-name=".notdef" horiz-adv-x="5040" 
d="M3358 2049h11q43 -12 43 -56q0 -12 -34 -61h-40q0 29 28 59l2 9q-4 11 -5 11h-7q-1 0 -3 -19h-44q6 57 49 57zM2027 2024l35 -38q0 -19 -45 -35h-22l-55 11l-13 -15l-36 32q12 34 50 34h12l42 -11h1q6 0 31 22zM472 1984h152v-68h-94v-67h89v-67h-89v-126l-8 -8h-60v328z
M1159 1984h49l10 -8v-75h30v-60h-30v-185l-10 -8h-59v193h-25v60h25v75zM1624 1984h50l7 -8v-91h-8q23 24 58 24h2q64 0 90 -75l2 -39v-147h-66v119q0 76 -35 76h-7q-36 0 -36 -82v-113h-65v328zM2200 1984h60l8 -8v-223q9 -47 37 -47q38 6 38 55v215l8 8h60v-220
q0 -87 -69 -115q-17 -9 -39 -9q-52 0 -89 58q-14 25 -14 58v228zM2438 1984h170v-68h-56v-268h-67v268h-55v60zM2621 1984h81q11 -6 86 -251h-10l80 251h86v-336h-68v242h11l-74 -242h-50q-10 0 -65 186l-18 56h10v-242h-69v336zM3760 1984h66v-336h-56l-8 8v13l3 2v-2
q-21 -29 -74 -29q-73 0 -107 95l-5 39v3q0 96 97 129l24 3q40 0 68 -32h-8v107zM2060 1932h45l6 -10v-53h-45v-221h-62v8q-12 -16 -53 -16q-95 15 -95 101v160h65v-108q0 -77 22 -82l16 -5h5q20 0 32 32l3 26v137h53v22zM3490 1932v-63h-31v-221h-61v25h10q-15 -33 -62 -33
q-74 0 -93 82l-3 29v150h66v-124q0 -49 17 -65l18 -6h7q35 0 35 65v130h34q-3 0 -3 25l6 6h60zM765 1909q73 0 110 -80q9 -19 12 -55q0 -90 -95 -131l-34 -3q-68 0 -108 76q-12 23 -12 53v10q0 96 106 130h21zM1018 1909h3q81 0 90 -105v-156h-65v123q0 72 -35 72h-5
q-37 0 -37 -72v-123h-66v253h60v-11q19 19 55 19zM1473 1909h7q78 0 114 -97h-74q-16 31 -37 31h-16q-47 -12 -47 -57l-3 -15q11 -65 54 -65h9q18 0 43 27h39l2 3h13l-3 4l1 1l3 -3l6 9l6 -22q-35 -85 -117 -85t-117 98l-4 36v3q0 87 80 123q17 9 41 9zM3147 1909h3
q55 0 77 -64v-18h-66q0 16 -9 16h-4q-8 0 -12 -9v-13q0 -7 65 -32q33 -21 33 -62q0 -60 -66 -84l-25 -3q-83 13 -83 91h68q0 -21 21 -25h3q13 0 17 19q0 20 -65 41q-37 29 -37 62q0 69 80 81zM4210 1909q61 0 84 -67q7 -18 7 -65v-129h-66v116q0 79 -33 79h-11
q-27 0 -33 -50v-145h-66v5h-7l7 7v241h61v-8q14 16 57 16zM4438 1909h6q44 0 62 -24v-3l-3 3l4 16h60v-212q0 -99 -90 -136l-34 -4h-8q-75 0 -113 88h72q24 -22 41 -23h13q18 0 37 20q14 12 20 46h9q-32 -40 -77 -40q-62 0 -103 73q-10 19 -14 64q0 90 91 129zM3851 1901h67
v-140q6 -55 33 -55h7q39 0 39 89v106h65v-253h-60l-5 18h-1l2 -2v7l3 2v-2h10q0 -22 -63 -31h-4q-65 0 -91 79l-2 85v97zM704 1771q9 -65 56 -65h6q53 13 53 61v15q-12 61 -52 61h-5q-51 0 -58 -72zM3644 1774q12 -68 54 -68h5q51 0 59 71q0 47 -46 66h-20q-31 0 -49 -53z
M4388 1774q8 -68 58 -68h4q53 11 53 68q0 58 -53 69h-12q-50 -14 -50 -58v-11zM3928 1624h66v-65h-66v65zM1061 1406q50 -12 50 -53v-4q0 -18 -35 -64h-39q0 30 31 62v6q0 10 -2 11h-8q-5 -2 -5 -19h-42v10q0 34 37 48zM3356 1343q97 0 147 -107h-73q-37 42 -76 42
q-50 0 -80 -65q-10 -21 -10 -46q0 -76 76 -106l16 -1q32 0 71 39h74q-48 -105 -147 -105q-98 0 -148 116q-10 31 -10 62q0 98 92 155q32 16 68 16zM3671 1343q61 0 109 -49q47 -52 47 -117v-20q0 -90 -94 -149q-35 -14 -67 -14q-94 0 -145 104q-13 34 -13 61v18
q0 100 101 154q31 12 62 12zM2268 1341h3l47 -11h2q8 0 29 15l22 -44q-21 -23 -42 -23h-4l-52 10l-25 -9l-23 42q21 20 43 20zM716 1338h26q123 0 136 -29q25 -26 25 -63q-11 -61 -30 -61v0q47 -23 47 -68v-18q0 -65 -74 -92l-56 -5h-74v336zM2550 1338h67v-221
q6 -57 38 -57q23 0 37 35l3 30v203l6 10h54l8 -9v-172q0 -120 -42 -136q-25 -27 -69 -27q-60 0 -98 80l-4 54v210zM2805 1338h66q9 0 127 -237h-8v237h62l6 -10v-326h-70q-31 51 -125 238h9v-238h-67v336zM3101 1338h68v-336h-68v336zM3859 1338h15q160 0 180 -42
q23 -11 48 -77l4 -36v-10l3 -2q0 -96 -85 -153q-37 -16 -103 -16h-62v336zM4143 1338h165v-68h-103v-67h101v-65h-101v-69l1 -2h102v-65h-171v326zM3577 1175v-10q0 -74 74 -104l17 -1q62 0 89 82l3 20v15q0 59 -58 91q-10 7 -35 10q-59 0 -88 -79zM784 1270v-59h2
q47 0 47 24l3 14q-9 21 -22 21h-30zM3926 1270v-202l2 -3v2q91 0 108 72l2 15v29q0 33 -31 66q-23 21 -72 21h-9zM1047 1263h6q42 0 64 -26v18h63v-253h-63v20q-25 -28 -73 -28q-81 0 -108 101l-5 36q0 91 89 129zM1321 1263h3q81 0 90 -106v-155h-65v132q0 63 -35 63h-10
q-27 0 -32 -58v-137h-66v253h61v-10q17 18 54 18zM1549 1263h6q50 0 64 -22v14h61v-223q0 -97 -110 -130h-17q-79 0 -117 90h72q26 -25 40 -25h14q46 0 53 50q-18 -23 -65 -23q-65 0 -108 85l-7 44v16q0 81 89 121zM1918 1263h3q48 0 66 -37h-7q32 37 73 37h4q62 0 86 -59
q8 -25 8 -45v-157h-66v142q0 42 -19 51l-10 2h-14q-25 0 -29 -61v-134h-66v140q0 55 -36 55h-8q-25 0 -29 -53v-142h-68v253h64v-21h-11q6 23 59 29zM2288 1263q53 0 69 -25v17h61v-253h-61v20q-25 -28 -71 -28q-80 0 -109 96l-6 41q0 92 90 129zM999 1117q0 -45 55 -57h3
q39 0 55 42l3 15v22q-11 58 -50 58h-14q-35 0 -52 -53v-27zM1501 1128q0 -46 39 -64l16 -4h4q41 0 56 53v23q-10 61 -51 61h-12q-43 0 -52 -69zM2239 1131v-14q14 -57 50 -57h13q52 11 52 60v11q0 43 -34 62l-15 4h-8q-58 -7 -58 -66zM784 1146v-78v-1q70 0 70 41
q0 31 -41 38h-29zM2973 761l32 -36l-58 -62q-25 17 -35 33zM1533 732l90 -58q0 -17 -26 -50l-97 60q20 45 33 48zM2857 697h42l62 -68h-69l-17 21l-19 -21h-69q61 68 70 68zM3425 697h48l63 -68h-69l-24 26h10q0 -2 -22 -26h-69zM621 689h62q12 -6 52 -141l31 -99
q-2 -2 23 89l49 151h67v-6l-113 -330h-56zM1159 689h65v-62h-65v62zM1354 689h56l10 -8v-328h-66v336zM2320 689h53l7 -8v-75h31v-60h-31v-193h-67v193h-26v60h26v75zM2425 689h66v-98h-9q23 23 58 23h3q63 0 88 -75l3 -38v-148h-66v119q0 77 -32 77h-10q-35 0 -35 -83v-113
h-66v336zM2664 689h66v-62h-66v62zM3031 689h51l10 -8v-75h29v-60h-29v-193h-68v193h-27v60h27v75zM3234 689h66v-336h-66v336zM3957 689h66v-336h-66v336zM4316 689h65v-62h-65v62zM1562 614h5q89 0 117 -106l3 -23v-11q0 -85 -89 -124l-37 -5q-83 0 -119 101l-4 32
q0 99 98 134zM1818 614h4q58 0 85 -64q7 -25 7 -81v-116h-68v150q-6 46 -30 46h-10q-31 0 -35 -53v-143h-68v253h63v-9q15 17 52 17zM2053 614h4q50 0 68 -39h-9v31h63v-210q0 -104 -94 -139l-29 -3h-6q-78 0 -115 89h63l38 -20l13 -3h13q44 0 51 47q-19 -22 -63 -22
q-67 0 -105 79q-11 24 -12 61q0 87 91 127zM2873 614h2q88 0 118 -108l2 -25l-2 -31h-171q13 -37 38 -37l14 -3q24 0 44 22h68v-7q-37 -80 -115 -80q-83 0 -118 101l-1 28v8q0 50 33 90q36 42 88 42zM3436 614h5q45 0 74 -39h-9v31h61v-253h-61v31h9q-35 -39 -81 -39
q-77 0 -108 93l-5 36v14q0 88 89 124zM3718 614h7q94 0 114 -134l-2 -1v-13q0 -66 -68 -109q-24 -12 -51 -12q-38 0 -57 20v-84l-8 -8h-60v333h63v-15q20 23 62 23zM4158 614q48 0 68 -25v17h63v-253h-63v19q-24 -27 -70 -27q-99 0 -115 136q0 86 76 124q17 9 41 9zM925 606
h61v-140q3 -56 35 -56h5q37 0 37 83v113h66v-253h-61v24h9q0 -22 -62 -32h-4q-61 0 -89 72q-4 35 -4 99v82zM1159 606h65v-253h-65v253zM2664 606h66v-253h-66v253zM4316 606h65v-253h-65v253zM1506 488v-16q12 -62 52 -62h4q52 0 59 72q-12 67 -52 67h-10q-53 -14 -53 -61z
M2001 472q14 -62 52 -62h11q42 0 52 71v1q-12 67 -52 67h-14q-33 0 -49 -53v-24zM2821 510h106v-2q-15 41 -52 41h-7q-30 0 -47 -39zM3387 474q12 -64 54 -64h5q46 0 58 59v12q-9 68 -50 68h-15q-50 -13 -50 -59zM3656 478q11 -68 54 -68h3q44 0 58 56v22q0 41 -44 61h-20
q-41 0 -51 -68v-3zM4109 472q9 -62 59 -62q37 0 54 44l2 15v16q0 52 -46 64h-17q-36 0 -52 -56v-21zM3416 325h65v-60h-65v60zM4137 325h65v-60h-65v60zM2740 137h4q41 0 50 -54v-2q0 -17 -25 -42l-11 -20h-40q0 30 29 62l2 1v1l-2 15h-10q-1 0 -2 -19h-44q6 58 49 58z
M1553 124l60 -68l-35 -26l-59 59zM354 83h12q78 -50 89 -64l-24 -44q-98 55 -98 65zM3497 85l94 -63l-21 -44q-18 0 -103 58q16 38 30 49zM4592 76l20 -43l-102 -58l-25 47l107 67v-13zM1204 57h65v-22l2 -2h17v-44h-17l-2 -2v-282h-60v18q-23 -27 -74 -27q-78 0 -109 109
l-3 26q0 104 107 135h15q37 0 59 -22v43l-2 2h-47v44h49v24zM1483 49h48l63 -69h-68l-19 22l-19 -22h-68zM2644 49h37q16 0 74 -69h-69l-19 22q-12 -13 -12 -22h-72v9zM51 41h172v-68h-56v-268h-61l-7 8v246l2 3v1l-2 3l2 3l-2 2l2 3v-1h-56v58zM702 41h58v-76l2 -3l-2 -3
v-2l2 -3l-2 -3v-2l2 -2v-3l-2 -3v1h-7q17 24 56 24h3q58 0 84 -61q7 -18 7 -43v-157h-66v131q0 64 -33 64h-8q-36 0 -36 -82v-113h-66v327zM1297 41h58l8 -9v-54h-66v63zM1987 41h66v-179l58 96h77l-81 -122l90 -124v-7h-82q-12 25 -62 98v-98h-66v336zM2285 41v-88
q13 13 46 13q62 0 87 -59q10 -20 10 -78v-124h-68v137q0 58 -34 58h-11q-24 0 -30 -51v-144h-67v318l-1 3v3l1 2l-1 3l2 7h66zM2458 41h65v-63h-65v63zM3148 41h65v-94q16 19 61 19h3q81 0 112 -98l5 -37q0 -76 -67 -123q-32 -12 -53 -12q-45 0 -65 25v-16h-61v336zM4275 41
h66v-99h-9q23 24 58 24h3q66 0 89 -78l2 -41v-142h-66v115q0 78 -26 78l-10 2h-11q-30 0 -30 -76v-119h-66v336zM336 -34h10v-66h-12q-35 0 -35 -53v-142h-67v253h61v-2q6 10 43 10zM571 -34q77 0 93 -91v-170h-65v140q-6 55 -34 55h-6q-38 0 -38 -80v-115h-66v253h64v-8
q14 16 52 16zM1511 -34q78 0 112 -98l5 -39q-2 -28 -14 -28h-160q14 -39 53 -39q21 0 45 21h69q-37 -87 -117 -87q-88 0 -120 109v37q0 83 94 121zM2663 -34h6q83 0 114 -101l3 -26v-21l-4 -17h-167q15 -39 44 -39h12q17 0 38 21h72q-38 -87 -114 -87q-90 0 -122 106l-2 29
q0 95 96 132zM2922 -34h4q59 0 85 -64q7 -25 7 -82v-115h-68v142q0 45 -29 53h-10q-31 0 -36 -53v-142h-68v253h64v-8q14 16 51 16zM3515 -34h6q44 0 74 -40h-9v32h61v-253h-61v31h9q-34 -40 -82 -40q-77 0 -108 94l-4 37v12q0 84 80 120q13 7 34 7zM3788 -34h4q68 0 89 -82
l3 -84v-95h-68v142q0 45 -32 53h-8q-31 0 -35 -48v-147h-68v253h63v-9q15 17 52 17zM4140 -34h1q80 0 111 -97l4 -40q0 -90 -88 -130l-27 -3q-46 0 -62 20v-92h-66v334h61v-15q19 23 66 23zM4721 -34h5q38 0 63 -31q23 31 69 31h6q62 0 86 -70l6 -51v-140h-66v126
q0 69 -32 69h-7q-28 0 -34 -46v-141l-8 -8h-59v144q0 40 -26 51h-15q-33 0 -33 -73v-122h-65v253h61v-6q11 14 49 14zM359 -42h60l8 -9v-236l-8 -8h-60v253zM1297 -42h66v-253h-66v253zM1649 -42h66v-140q4 -56 36 -56h4q37 0 37 77v119h66v-253h-61v24h8q-12 -33 -65 -33
q-57 0 -86 66q-5 13 -5 35v161zM2458 -42h65v-253h-65v253zM4515 -42h65v-253h-65v253zM1091 -169q0 -51 46 -69h10q48 0 59 62v10q0 51 -49 66h-15q-32 0 -51 -53v-16zM1452 -139h106q-15 39 -44 39h-7q-38 0 -55 -40v1zM2614 -139h105q-17 39 -45 39h-7q-40 0 -53 -39z
M3210 -158v-11q9 -69 54 -69h4q58 7 58 67v5q0 43 -35 62l-15 4h-12q-54 -13 -54 -58zM3466 -173q13 -65 55 -65h11q35 0 52 56v13q-8 69 -49 69h-17q-41 0 -52 -69v-4zM4076 -158v-22q0 -44 53 -58h8q44 0 54 72q-12 66 -51 66h-14q-50 -15 -50 -58z" />
    <glyph glyph-name=".null" horiz-adv-x="0" 
 />
    <glyph glyph-name="nonmarkingreturn" horiz-adv-x="571" 
 />
    <glyph glyph-name="space" unicode=" " horiz-adv-x="362" 
 />
    <glyph glyph-name="exclam" unicode="!" horiz-adv-x="733" 
d="M1054 1083q0 -45 -41 -104q-20 -29 -76.5 -99.5t-148.5 -177.5q-105 -127 -178.5 -233.5t-108.5 -181.5q-4 -8 -11 -14.5t-13 -6.5q-11 2 -11 13q0 4 2 8t6 10q35 53 97.5 191.5t154.5 365.5q39 98 70 163.5t53 96.5q45 64 113 64q41 0 66.5 -27t25.5 -68zM509 160
q0 -60 -55 -121q-53 -62 -109 -62q-61 0 -61 68q0 61 53 125q53 63 111 63q61 0 61 -73z" />
    <glyph glyph-name="quotedbl" unicode="&#x22;" horiz-adv-x="1097" 
d="M1278 1260q0 -27 -17 -64q-10 -20 -37.5 -70.5t-70.5 -124.5q-27 -47 -48.5 -92t-37.5 -82q0 -4 -6 -4h-17q-10 0 -6 8q12 43 28.5 124t37.5 188q16 92 39.5 131t68.5 39q66 0 66 -53zM1057 1260q0 -29 -17 -62q-8 -16 -33.5 -65.5t-72.5 -131.5q-58 -92 -86 -174
q0 -4 -6 -4h-19q-6 0 -6 6l4 17l19 80l18 84l25 133q16 92 40.5 131t67.5 39q66 0 66 -53z" />
    <glyph glyph-name="numbersign" unicode="#" horiz-adv-x="1097" 
d="M1402 784q15 0 4 -10q-55 -59 -73 -123q0 -4 -6 -4h-250l-17 -33v2l-39 -67l-51 -96h230q14 0 4 -11q-47 -47 -76 -127q0 -4 -6 -4h-225q-17 -30 -34.5 -65t-37.5 -76l-57 -119q0 -4 -7 -4h-51q-12 0 -6 10q23 37 58.5 97.5t88.5 156.5h-249l-119 -250q0 -4 -6 -4h-60
q-12 0 -6 11q60 96 92.5 153.5t48.5 89.5h-268q-4 0 -6 3t2 8q49 51 68 127q0 4 6 4h278q23 36 48.5 86.5t54.5 107.5h-252q-4 0 -6 3t2 7q24 33 41.5 64t27.5 59q0 4 7 4h260q59 154 86 226q0 4 6 4q10 -2 21.5 -3t25.5 -1l37 4q14 0 4 -10q-35 -50 -68 -102t-67 -118h233
q31 66 50.5 121.5t29.5 102.5q0 4 8 4q31 -6 41 -6q4 0 39 6q12 0 8 -8l-22 -37l-88 -152l-17 -31h260zM1024 647h-234l-111 -194h250z" />
    <glyph glyph-name="dollar" unicode="$" horiz-adv-x="1097" 
d="M1357 866q0 -82 -70.5 -135t-179.5 -53q-59 0 -99 28.5t-40 71.5q0 41 43 94q37 52 80 52q14 0 14 -15q0 -8 -22 -20q-35 -15 -59.5 -47.5t-24.5 -67.5q0 -22 20.5 -38.5t49.5 -16.5q65 0 129 57q65 66 65 121q0 94 -143 94q-115 0 -205 -57q-84 -57 -84 -141
q0 -37 37 -86.5t115 -108.5q45 -35 75.5 -62.5t44.5 -48.5q31 -41 31 -92q0 -174 -188 -276q-152 -78 -312 -78h-37l-167 -297q-17 -23 -25 -23q-21 0 -21 19q0 8 11 24l166 281q-240 45 -240 213q0 98 102 176q107 82 228 82q16 0 16 -12q0 -10 -6 -12.5t-16 -4.5
q-70 -10 -140 -75q-73 -68 -73 -172q0 -166 202 -166q136 0 232 63v-2q98 64 98 156q0 86 -158 194q-49 37 -81.5 65t-52 51.5t-28 47t-8.5 51.5q0 131 142 226q143 96 329 96h27l133 244q21 26 31 26q18 0 18 -16q0 -6 -12 -31l-129 -227q182 -31 182 -152z" />
    <glyph glyph-name="percent" unicode="%" horiz-adv-x="1013" 
d="M1222 465q0 -47 -25.5 -102.5t-72.5 -108.5q-101 -111 -191 -111q-127 0 -127 131q0 99 107 191q110 98 217 98q92 0 92 -98zM990 862q0 -2 -2 -4l-4 -4zM1156 1026q0 -8 -28 -39q-35 -39 -94.5 -129t-139.5 -237q-80 -142 -151.5 -276t-135.5 -267q-4 -4 -8 -4
q-41 12 -76 12q-63 0 -124 -20q-5 -3 -8 1.5t1 8.5q174 243 321.5 437t270.5 341q-4 -2 2 4t33 39l-2 -2l-39 -29l-49 -28l-59 -33h2q-41 -27 -74 -53.5t-57 -61.5q-56 -74 -117.5 -118t-120.5 -44q-55 0 -91 36t-36 95q0 97 109 189q53 47 108 70.5t109 23.5q96 0 96 -98
q0 -33 -12 -72q30 29 75 63.5t99 65.5q106 64 164 123q14 14 20 14q12 0 12 -12zM1177 494q0 43 -33 43q-66 0 -156 -121q-92 -123 -92 -207q0 -41 37 -41q68 0 156 117q88 114 88 209zM753 870q0 45 -35 45q-61 0 -160 -122q-43 -56 -67.5 -108t-24.5 -93q0 -39 35 -39
q72 0 160 113q92 116 92 204z" />
    <glyph glyph-name="ampersand" unicode="&#x26;" horiz-adv-x="1501" 
d="M1844 328q0 -82 -37.5 -159t-117.5 -146q-154 -140 -338 -140q-162 0 -271 115q-4 -4 -12 -4q-80 -21 -162 -21q-215 0 -374 123q-154 125 -154 299q0 92 52 178t138 158q60 45 157 89t224 85q60 19 103 33t71 27q74 122 199 229q60 53 107 78.5t77 25.5q43 0 43 -34
q0 -47 -114 -146q-115 -90 -287 -184q-27 -45 -44 -87t-32 -89q39 6 74 6q145 0 236 -90q96 -90 96 -228q0 -145 -97.5 -262.5t-263.5 -177.5q43 -47 102.5 -70.5t125.5 -23.5q178 0 323 131q148 135 148 287q0 28 -17 94q6 10 15 10q10 0 20 -34.5t10 -71.5zM1519 1260
q0 10 -11 10q-49 0 -159 -94q-94 -82 -164 -183q59 29 114.5 66t106.5 74q113 88 113 127zM1414 481q0 54 -20.5 101t-56 80.5t-84 53t-105.5 19.5q-18 0 -38.5 -2t-45.5 -8q-29 -102 -43 -193.5t-14 -162.5q0 -111 28 -203q86 24 139.5 82.5t51.5 122.5q0 37 33 37
q34 0 34 -31q0 -70 -79 -139q-78 -72 -170 -105q10 -22 19 -41.5t20 -34.5q139 62 235 185q96 120 96 239zM1019 709l-12 -7q0 7 4 15zM960 395q0 144 47 307q-54 -22 -98 -59t-78 -80q-33 -49 -51.5 -101t-18.5 -106q0 -90 55.5 -145t147.5 -55q12 0 17 -1t15 1
q-36 110 -36 239zM1087 901q2 6 10 19l10 -9zM1021 748q33 86 66 153l-31 -18q-492 -271 -492 -594q0 -121 86 -203q90 -78 224 -78q79 0 176 33q-23 37 -43 86q-41 -6 -56 -6q-59 0 -105 19.5t-87 56.5q-80 73 -80 184q0 57 24.5 111.5t69.5 102.5t108.5 88t139.5 65z" />
    <glyph glyph-name="quotesingle" unicode="'" horiz-adv-x="733" 
d="M985 1260q0 -29 -17 -62q-8 -16 -33.5 -65.5t-72.5 -131.5q-58 -92 -86 -174q0 -4 -6 -4h-19q-6 0 -6 6l4 17l19 80l18 84l25 133q16 92 40.5 131t67.5 39q66 0 66 -53z" />
    <glyph glyph-name="parenleft" unicode="(" horiz-adv-x="1040" 
d="M1804 1434q0 -15 -49 -21q-256 -37 -545 -309q-209 -207 -344 -475q-59 -129 -93 -258t-34 -246q0 -174 101 -252l-2 2q10 -6 10 -14q0 -13 -15 -13q-32 0 -108 72q-125 127 -125 369q0 313 201 612q202 301 506 438q94 41 235 74q139 33 246 33q16 0 16 -12z" />
    <glyph glyph-name="parenright" unicode=")" horiz-adv-x="1040" 
d="M1041 1004q0 -158 -51 -311.5t-152 -303.5q-98 -143 -226 -256t-277 -182q-43 -21 -102.5 -37t-131.5 -33q-69 -16 -131.5 -24.5t-114.5 -8.5q-18 0 -18 13q0 14 49 20q60 13 129.5 39.5t141 66.5t142 91t132.5 110q213 207 342 476q129 266 129 505q0 164 -98 252l2 -2
q-11 2 -11 15q0 12 17 12q29 0 102 -74q62 -65 94.5 -156.5t32.5 -211.5z" />
    <glyph glyph-name="asterisk" unicode="*" horiz-adv-x="1097" 
d="M1157 1260q0 -31 -45 -58l2 2q-64 -45 -96 -92q0 -2 -4 -2h-11q-6 0 -6 8q12 60 23.5 96.5t22.5 56t25.5 27t35.5 7.5q53 0 53 -45zM1218 1096q0 -60 -45 -60q-16 0 -41 19q-49 37 -84 37q-8 0 -16 -2l-14 -3q-7 0 -7 7v12q0 4 5 4q84 47 147 47q55 0 55 -61zM987 1106
q-4 -4 -8 0q-111 98 -111 162q0 49 62 49q59 0 59 -45q0 -17 -8 -33q0 -4 -1 -7t-1 -7q-2 -8 -2 -15q0 -36 22 -94q0 -6 -2 -6zM1140 932q0 -49 -57 -49q-18 0 -32.5 7t-18.5 23q-2 7 -3 20t-1 38q0 57 -29 104q-6 10 6 10l13 5l22 -19l45 -39q25 -22 40 -49t15 -51z
M985 1087q0 -6 -4 -6q-68 -32 -133 -32q-70 0 -70 63q0 62 47 62q10 0 37 -21q31 -29 59.5 -40t57.5 -9q6 0 6 -6v-11zM997 1081q6 0 6 -8q-22 -108 -45.5 -149t-60.5 -41q-56 0 -56 49q0 29 56 59q47 25 82 88q4 4 6 4z" />
    <glyph glyph-name="plus" unicode="+" horiz-adv-x="1194" 
d="M889 613h233q6 0 -2 -21l-21 -55q-8 -20 -14 -20h-213l-36 -209q-1 -6 -23 -14l-59 -22q-21 -8 -20 -2l43 247h-243q-6 0 2 20l21 55q8 21 14 21h222l36 208q2 7 23 15l59 21q22 8 21 2z" />
    <glyph glyph-name="comma" unicode="," horiz-adv-x="526" 
d="M397 184q0 -65 -55.5 -144t-139.5 -134q-94 -64 -117 -64q-12 0 -14 11q0 10 12.5 17t34.5 17q49 23 84 55.5t35 55.5q0 2 -8 2q-4 -2 -13 -2q-57 0 -57 70q0 55 57 120q62 68 115 68q66 0 66 -72z" />
    <glyph glyph-name="hyphen" unicode="-" horiz-adv-x="745" 
d="M741 295q0 -21 -91 -51q-90 -31 -131 -31q-28 0 -102 18q-49 13 -72 13q-39 0 -82 -19q-4 -4 -12 0q-4 0 -4 6q0 15 84 50q80 30 121 30q16 0 38.5 -4t55.5 -12q70 -16 92 -16q33 0 70 16h-2q14 8 24 8q4 0 9 -4z" />
    <glyph glyph-name="hyphen" unicode="&#x2010;" horiz-adv-x="745" 
d="M741 295q0 -21 -91 -51q-90 -31 -131 -31q-28 0 -102 18q-49 13 -72 13q-39 0 -82 -19q-4 -4 -12 0q-4 0 -4 6q0 15 84 50q80 30 121 30q16 0 38.5 -4t55.5 -12q70 -16 92 -16q33 0 70 16h-2q14 8 24 8q4 0 9 -4z" />
    <glyph glyph-name="period" unicode="." horiz-adv-x="526" 
d="M430 168q0 -59 -60 -119q-59 -59 -120 -59q-70 0 -70 67q0 29 15.5 58.5t43.5 62.5q58 64 121 64q70 0 70 -74z" />
    <glyph glyph-name="slash" unicode="/" horiz-adv-x="1220" 
d="M1531 1481q10 0 6 -11l-1063 -1673q0 -2 -6 -2h-37q-12 0 -6 10l1063 1674q0 2 6 2h37z" />
    <glyph glyph-name="zero" unicode="0" horiz-adv-x="1097" 
d="M1409 752q0 -250 -273 -510q-274 -262 -528 -262q-143 0 -242 98q-94 94 -94 246q0 284 350 555q266 206 473 206q133 0 224 -96q90 -96 90 -237zM1267 860q0 90 -46 144.5t-124 54.5q-92 0 -195.5 -75t-213.5 -216q-56 -74 -103 -151.5t-82 -155.5q-71 -156 -71 -262
q0 -86 45 -139.5t121 -53.5q182 0 397 266q123 158 195 316q77 166 77 272z" />
    <glyph glyph-name="one" unicode="1" horiz-adv-x="1097" 
d="M1318 1028q0 -8 -219 -344q-139 -213 -222 -389t-116 -320q0 -4 -8 -4q-78 17 -139 17q-62 0 -105 -19q-12 -4 -8 8q37 84 86 168t115 168q61 84 166.5 208t257.5 292q20 25 32.5 36t19.5 19.5t15.5 18.5t22.5 31l-31 -31q-96 -96 -206.5 -196.5t-209.5 -174.5
q-34 -27 -71 -51.5t-74 -44.5h2q-76 -45 -98 -45q-19 0 -19 16q0 10 13.5 18.5t29.5 16.5q133 53 315.5 199.5t411.5 388.5q25 24 29 24q10 0 10 -10z" />
    <glyph glyph-name="two" unicode="2" horiz-adv-x="1097" 
d="M1380 840q0 -82 -32.5 -153t-104.5 -128q-68 -55 -185.5 -112.5t-271.5 -110.5q-96 -35 -176 -67.5t-133 -63.5q-33 -21 -60.5 -40.5t-54.5 -41.5q43 29 81 39t85 10q53 0 209 -35q160 -37 213 -37q80 0 140.5 57.5t78.5 149.5q0 17 12 17q13 0 13 -13q0 -86 -90 -202
q-117 -146 -287 -146q-43 0 -121 18.5t-195 53.5q-96 28 -133 28q-102 0 -106 -77q-4 -29 -19 -29q-18 0 -18 18q0 45 66 113q61 72 127 115q34 22 101.5 60t172.5 91q254 129 388 274.5t134 286.5q0 134 -151 134q-86 0 -179.5 -44t-197.5 -131q-105 -86 -155 -164.5
t-50 -148.5q0 -51 35 -83t88 -32q110 0 231 93q125 92 181 221q12 14 18 14q12 0 12 -10q0 -51 -106 -166q-164 -176 -330 -176q-84 0 -136 49t-52 127q0 98 66.5 188.5t185.5 163.5q102 60 203.5 92.5t193.5 32.5q141 0 225 -64.5t84 -170.5z" />
    <glyph glyph-name="three" unicode="3" horiz-adv-x="1097" 
d="M1333 909q0 -102 -107.5 -173.5t-332.5 -119.5q256 -28 256 -217q0 -170 -186 -299q-189 -120 -443 -120q-121 0 -192.5 53t-71.5 141q0 49 23.5 91t64.5 72t99.5 47t125.5 17q95 0 95 -20q0 -12 -13 -12q-8 0 -12 2q-4 0 -7 1t-7 1q-11 2 -20 2h-17q-53 0 -99.5 -16.5
t-80 -46t-53 -69.5t-19.5 -85q0 -70 47 -112t125 -42q176 0 317 131q138 133 138 301q0 72 -40 114t-112 52q-59 -14 -110.5 -22.5t-86.5 -8.5q-22 0 -22 17q0 6 15.5 12t40 12t55 9.5t61.5 3.5h21.5t23.5 -2q70 14 133.5 45.5t112.5 79.5q106 96 106 200q0 125 -137 125
q-123 0 -250 -90q-125 -86 -125 -174q0 -74 99 -74q135 0 288 174q8 9 15 9q10 -7 10 -13q0 -18 -76 -90q-123 -106 -242 -106q-65 0 -104 32.5t-39 85.5q0 107 129 191q129 80 301 80q133 0 218 -52.5t85 -136.5z" />
    <glyph glyph-name="four" unicode="4" horiz-adv-x="1097" 
d="M1615 1153q0 -31 -35 -31q-16 0 -31 6q-14 5 -29.5 8t-29.5 3q-119 0 -281 -103q-53 -35 -99 -65.5t-75 -59.5q-34 -30 -110 -104t-180 -182q-43 -43 -91.5 -88t-95.5 -85t-89 -73t-73 -51q54 12 114.5 17t133.5 5q23 0 45.5 -1t50.5 -3h19q12 16 38.5 49t63.5 78
l211 266q58 72 100 128.5t64 88.5q10 17 20.5 27t20.5 6q4 0 4 -6q0 -14 -24 -49q-107 -182 -191 -332.5t-143 -261.5q73 -6 82 -6q90 0 148.5 42t58.5 107q0 13 -2.5 23t-6.5 20q-4 9 -6 19q0 10 10 16q31 0 31 -88q0 -84 -90 -141q-90 -56 -221 -56h-31
q-45 -92 -72.5 -167.5t-37.5 -133.5q0 -6 -9 -6q-77 15 -141 15q-41 0 -90 -13q-4 -2 -7 1t-1 8q22 59 67 137t113 172q-47 4 -99.5 6t-105.5 2q-41 0 -89 -2t-97 -6q-84 -53 -139 -53q-23 0 -23 16q0 29 145 57q119 62 222 150q53 47 132 130t189 202q377 415 647 415
q115 0 115 -53z" />
    <glyph glyph-name="five" unicode="5" horiz-adv-x="1097" 
d="M1375 1110q0 -41 -14 -76t-49 -65q-33 -29 -68 -44.5t-74 -15.5q-22 0 -54 7.5t-68 17.5q-43 12 -79 20.5t-52 8.5q-41 0 -64 -29q-6 -8 -33 -72q-24 -57 -46.5 -103t-47.5 -87q33 14 72 20t82 6q155 0 264 -84q104 -82 104 -200q0 -174 -204 -301q-201 -127 -467 -127
q-125 0 -203 57t-78 147q0 54 27.5 99t76.5 80q107 67 273 67q92 0 92 -18l-2 -4q-6 -6 -12 -6q-9 0 -15 2h2q-10 2 -21 2h-22q-133 0 -217 -72q-88 -70 -88 -174q0 -70 50.5 -112t134.5 -42q172 0 329 152q160 149 160 315q0 84 -57.5 138.5t-147.5 54.5q-39 0 -84 -12.5
t-80 -28.5l-10 -13l-33 -45q-53 -77 -98 -77q-20 0 -20 22q0 49 141 129v-2q29 41 57.5 92t55.5 115q51 123 51 201q0 4 -4 20q-2 6 -2 13.5v11.5q0 18 14 18q22 0 22 -43q0 -33 -10 -80q55 90 137 90q52 0 162 -39q37 -14 66.5 -20t48.5 -6q33 0 55.5 21.5t22.5 50.5
q0 10 -6 20q-2 2 -2 12q0 19 16 19t16 -31z" />
    <glyph glyph-name="six" unicode="6" horiz-adv-x="1097" 
d="M1335 1151q0 -18 -65 -25q-74 -8 -170 -70.5t-217 -185.5q-105 -108 -183.5 -215.5t-128.5 -218.5q105 146 227 221.5t238 75.5q117 0 187.5 -65.5t70.5 -169.5q0 -187 -204 -348q-207 -164 -431 -164q-145 0 -231 75.5t-86 204.5q0 183 150.5 368t443.5 367
q256 164 383 164q16 0 16 -14zM1135 580q0 127 -115 127q-66 0 -143.5 -40t-161.5 -116q-97 -94 -152 -192.5t-55 -186.5q0 -72 33.5 -115t91.5 -43q145 0 325 199q177 199 177 367z" />
    <glyph glyph-name="seven" unicode="7" horiz-adv-x="1097" 
d="M1372 1102q0 -62 -69.5 -165t-211.5 -257q-379 -410 -401 -696q0 -7 -8 -7q-33 9 -65 12t-60 3q-51 0 -111 -17q-8 -4 -8 7q51 323 530 694q181 141 238 194q14 15 19.5 17t6.5 3t4 5t15 25q-61 -54 -133 -54q-43 0 -112.5 18.5t-170.5 53.5q-82 29 -125 29q-22 0 -36 -6
q-60 -164 -107 -164q-25 0 -25 24q0 21 29 59t80 91q10 26 15 51t5 37t-2 18v13q0 20 17 20q18 0 18 -27q0 -18 -2 -35.5t-10 -39.5q63 57 143 57q60 0 156 -31q57 -20 95 -30.5t54 -14.5q17 -4 34.5 -5t31.5 -1q131 0 131 92q0 8 -2 17v10q0 18 18 18q19 0 19 -18z" />
    <glyph glyph-name="eight" unicode="8" horiz-adv-x="1097" 
d="M1420 932q0 -189 -419 -293l8 -8l8 -8q86 -97 109 -131q26 -46 26 -111q0 -154 -160 -279q-159 -122 -356 -122q-149 0 -250 65q-96 68 -96 174q0 76 46 143.5t134 120.5q23 15 51.5 27t57.5 22l207 66l8 4q-96 94 -96 191q0 127 139 223q69 49 149 71.5t176 22.5
q117 0 187.5 -49t70.5 -129zM1320 961q0 124 -170 124q-55 0 -104 -18t-85 -50t-56.5 -76t-20.5 -93q0 -72 84 -172q12 -8 18 -17q158 60 246 139t88 163zM980 301q0 59 -28 111q-27 45 -119 149l-19 21q-176 -52 -295 -164q-114 -115 -114 -238q0 -80 64.5 -128t168.5 -48
q137 0 238 88q104 88 104 209z" />
    <glyph glyph-name="nine" unicode="9" horiz-adv-x="1097" 
d="M1353 815q0 -373 -546 -741q-54 -35 -120.5 -72t-131.5 -68q-64 -28 -111 -44.5t-76 -16.5q-16 0 -16 16q0 19 41 23q166 6 410 256q51 53 106 122.5t109 149.5q34 58 67 113t53 98q-38 -53 -87.5 -105t-108.5 -95q-152 -109 -279 -109q-112 0 -185 64.5t-73 168.5
q0 183 205 349t436 166q140 0 223.5 -75t83.5 -200zM1196 895q0 170 -133 170q-148 0 -324 -201q-172 -202 -172 -372q0 -123 109 -123q159 0 340 180q180 184 180 346z" />
    <glyph glyph-name="colon" unicode=":" horiz-adv-x="526" 
d="M598 473q0 -57 -62 -119q-59 -59 -118 -59q-72 0 -72 67q0 31 16.5 60t44.5 61q58 64 119 64q72 0 72 -74zM432 168q0 -62 -62 -119q-59 -59 -118 -59q-72 0 -72 67q0 54 61 121q58 64 119 64q72 0 72 -74z" />
    <glyph glyph-name="semicolon" unicode=";" horiz-adv-x="526" 
d="M591 489q0 -59 -59 -124q-27 -31 -56.5 -48.5t-54.5 -17.5q-65 0 -65 74q0 59 57 129q57 67 113 67q65 0 65 -80zM399 184q0 -32 -15.5 -69t-42 -74t-62.5 -73t-77 -62q-94 -64 -117 -64q-10 0 -12 11q0 14 45 34q49 23 85 55.5t36 55.5q0 2 -8 2q-4 -2 -13 -2
q-59 0 -59 70q0 55 59 120q58 68 113 68q68 0 68 -72z" />
    <glyph glyph-name="less" unicode="&#x3c;" horiz-adv-x="1071" 
d="M1253 283q0 -11 -8 -7l-877 377q-4 0 -4 6v43q0 7 4 7l877 376q8 5 8 -6v-43q0 -6 -4 -6l-815 -350l815 -348q4 0 4 -6v-43z" />
    <glyph glyph-name="equal" unicode="=" horiz-adv-x="942" 
d="M935 305q0 -12 -84 -55q-102 -53 -168 -53q-61 0 -164 22q-82 17 -110 17q-84 0 -139 -37q-7 -6 -19 0q-4 0 -4 6t25.5 21.5t72.5 37.5q54 27 102 41t87 14q47 0 131 -18q102 -22 133 -22q67 0 115 32v-2q6 6 12 6q10 0 10 -10zM1020 559q0 -13 -84 -56
q-102 -53 -168 -53q-61 0 -164 23q-82 16 -110 16q-84 0 -140 -37q-6 -6 -18 0q-4 0 -4 6t25.5 21.5t72.5 38.5q53 26 101.5 40.5t87.5 14.5q47 0 131 -18q102 -23 133 -23q67 0 114 33v-2q7 6 13 6q10 0 10 -10z" />
    <glyph glyph-name="greater" unicode="&#x3e;" horiz-adv-x="1071" 
d="M1349 659q0 -6 -4 -6l-877 -377q-8 -4 -8 7v43q0 6 4 6l813 348l-813 350q-4 0 -4 6v43q0 11 8 6l877 -376q4 0 4 -7v-43z" />
    <glyph glyph-name="question" unicode="?" horiz-adv-x="921" 
d="M1300 891q0 -103 -76 -174.5t-256 -130.5q-397 -137 -397 -271q0 -43 45 -43q41 0 76.5 29t74.5 86v-2q15 25 27 25l4 -2q2 -5 4 -6t2 -5q0 -18 -59 -80q-66 -67 -125 -67q-74 0 -74 65q0 56 49 105q25 22 84.5 66t155.5 110q143 100 224 196.5t81 182.5q0 72 -43 112.5
t-123 53.5q8 -35 8 -64q0 -92 -36.5 -178t-104.5 -164q-139 -157 -301 -157q-74 0 -121 46t-47 124q0 77 45 150t125 138q84 62 181.5 96.5t199.5 34.5h16q-41 111 -157 111q-33 0 -76 -16l2 2q-4 -4 -14 -4q-13 0 -13 10q0 8 35 19t68 11q137 0 182 -133q72 -8 130 -31.5
t105 -60.5q99 -80 99 -184zM669 158q0 -60 -57 -121q-27 -27 -55.5 -44.5t-55.5 -17.5q-63 0 -63 68q0 57 55 123q55 63 110 63q66 0 66 -71zM958 1081q0 33 -11 62h-10q-82 0 -168 -37t-172 -113q-174 -149 -174 -291q0 -102 115 -102q141 0 280 160q140 158 140 321z" />
    <glyph glyph-name="at" unicode="@" horiz-adv-x="1517" 
d="M1695 670q0 -111 -50 -204t-147 -167q-61 -45 -124.5 -69.5t-122.5 -24.5q-64 0 -104 39t-40 102v16.5t2 16.5q-120 -174 -223 -174q-35 0 -64.5 14t-52 40t-36 59.5t-13.5 72.5q0 62 39 127.5t115 126.5q74 60 155.5 94.5t151.5 34.5q90 0 90 -74q0 -10 4 -6
q0 -2 -4 -10q25 41 45 84q2 0 4 1t4 1q33 -6 76 -6t117 6q10 0 6 -8l-135 -221q-152 -248 -152 -275q0 -26 37 -26q66 0 150 45q104 63 168.5 168.5t64.5 222.5q0 78 -30.5 145.5t-96.5 118.5q-127 109 -315 109q-250 0 -451 -220q-203 -219 -203 -487q0 -166 144 -291
q145 -121 348 -121q160 0 250 54v-2q8 8 20 8q13 0 13 -13q-2 -16 -29 -30.5t-72 -26.5q-96 -24 -192 -24q-125 0 -227.5 37.5t-188.5 117.5q-172 156 -172 385q0 262 223 455q226 194 522 194q220 0 359 -116q137 -115 137 -299zM1245 698q0 47 -41 47q-72 0 -207 -182
q-66 -92 -99.5 -160.5t-33.5 -119.5q0 -45 39 -45q40 0 93.5 50t116.5 144q60 96 96 165t36 101z" />
    <glyph glyph-name="A" unicode="A" horiz-adv-x="2121" 
d="M2993 1206q0 -30 -32 -30q-9 0 -54 12q-10 0 -20 3t-25 7q-86 25 -149 29q-70 -25 -129.5 -69t-104.5 -103q-47 -60 -101 -169.5t-120 -264.5q-57 -136 -126.5 -244.5t-149.5 -175.5q-154 -133 -408 -199q62 -8 110 -11t79 -3q145 0 258 69q55 35 115.5 98.5t115.5 143.5
q18 29 29 29q12 0 12 -13q0 -24 -109 -147q-53 -59 -100 -102t-94 -66q-86 -43 -225 -43q-60 0 -126.5 7t-144.5 22q-78 -19 -137 -19q-76 0 -76 35t64 35q51 0 153 -23q148 43 230 127q39 41 112.5 150.5t184.5 286.5h-322l-72 -78q-507 -545 -954 -545q-98 0 -175 27.5
t-138 83.5q-119 110 -119 290q0 228 195 441q194 213 444 262q86 155 254 258q166 100 338 100q108 0 171.5 -56t63.5 -153q0 -61 -47 -145q-43 -86 -43 -119q0 -29 23.5 -49.5t58.5 -20.5q47 0 102.5 40t90.5 96q18 24 28 24q15 0 15 -14q0 -23 -62 -86q-90 -90 -178 -90
q-65 0 -109.5 47t-44.5 117q0 57 72 194q25 45 25 78q0 45 -47 74.5t-123 29.5t-155 -25.5t-157 -68.5q-73 -47 -133.5 -103.5t-103.5 -121.5q16 2 36.5 3t30.5 1q154 0 245 -90t91 -242q0 -14 1 -18t-1 -14q60 40 98 88.5t64 105.5q4 8 9 14.5t10 6.5q14 0 14 -17
q0 -39 -66 -117q-34 -41 -67 -71.5t-68 -52.5q-39 -191 -203 -343q-163 -151 -346 -151q-53 0 -99 19.5t-80 53t-52.5 80t-18.5 99.5q0 123 89 242q90 122 217 182q0 88 34 170q-104 -35 -192 -102.5t-166 -168.5q-158 -211 -158 -419q0 -156 89.5 -246t244.5 -90
q256 0 527 233q55 47 142 135t208 222h-193q-10 0 -4 10l14 18q0 2 5 2h206l13 13q317 317 605 474.5t529 161.5q35 7 63.5 10t47.5 3q151 0 151 -64zM2684 1227l-55 -4q14 4 26.5 8t26.5 8zM2045 608q148 250 294.5 404.5t289.5 210.5q-195 -23 -375 -140
q-104 -69 -232 -186t-288 -289h311zM1275 764q0 131 -71.5 201.5t-200.5 70.5q-27 0 -51.5 -2t-49.5 -8q-45 -86 -45 -168q107 43 176 43q17 0 17 -14q0 -15 -35 -19q-45 -8 -83 -18t-73 -23q9 -96 70 -153.5t162 -57.5q76 0 168 48q16 59 16 100zM1261 629l-15 -6l7 14z
M1040 330q69 59 120.5 133t85.5 160q-40 -17 -79 -25t-80 -8q-113 0 -176.5 53t-79.5 170q-60 -31 -108 -75t-89 -97q-37 -53 -57.5 -110.5t-20.5 -112.5q0 -94 60.5 -155.5t152.5 -61.5q129 0 271 129z" />
    <glyph glyph-name="B" unicode="B" horiz-adv-x="1994" 
d="M1636 940q-29 -49 -58.5 -106.5t-58.5 -128.5q17 16 80 16q47 0 100 -12q99 41 155 114.5t56 171.5q0 103 -80 181q-53 -48 -101 -106t-93 -130zM2488 1049q0 -140 -31 -140q-12 0 -12 17v2q0 2 1 2t1 2v9t2 11v-2q4 29 7 52.5t3 46.5q0 127 -72.5 202.5t-193.5 75.5
q-72 0 -147.5 -25.5t-157.5 -80.5q78 -50 121 -115.5t43 -142.5q0 -103 -75 -172.5t-216 -94.5q121 -22 191.5 -102t70.5 -199q0 -174 -154 -307q-153 -135 -348 -135q-190 0 -190 178q0 141 106 268q107 131 217 131q66 0 107 -40.5t41 -104.5q0 -45 -19 -100
q-22 -54 -39 -54q-12 0 -12 13q0 2 1 3t5 9h-2q21 33 29 64.5t8 62.5q0 51 -32.5 85t-84.5 34q-100 0 -196 -121q-96 -119 -96 -248q0 -147 139 -147q129 0 235 141q107 143 107 313q0 203 -144 244q-61 -12 -122 -12q-64 0 -66 16q-14 -33 -27.5 -65.5t-27.5 -69.5
q-72 -182 -162 -285q-90 -106 -246 -182q-244 -125 -477 -125q-158 0 -250 81t-92 216q0 61 23.5 123.5t64.5 118.5q-2 10 -2 20v21q0 309 322 557q323 250 725 250q141 0 262 -26t225 -83q188 117 342 117q135 0 215 -83t80 -224zM1806 1198q-2 0 -6 4q2 0 6 4v-8z
M1267 602q127 197 261.5 349.5t271.5 250.5q-156 115 -404 115q-155 0 -313 -59.5t-305 -165.5q-141 -105 -232.5 -231t-130.5 -261q88 70 185 100q63 125 202 226q68 47 137.5 73.5t129.5 26.5q176 0 176 -176q0 -211 -211 -420q-109 -104 -212.5 -156.5t-211.5 -52.5
q-109 0 -186.5 65.5t-102.5 174.5q-61 -96 -61 -205q0 -119 83 -192.5t220 -73.5q100 0 190 38t176 111q35 31 65 62.5t52 64.5q27 35 81 119t140 217zM1214 848q0 147 -139 147q-86 0 -182.5 -72.5t-182.5 -201.5h23q35 0 62.5 -11.5t56.5 -33.5q55 -43 55 -92
q0 -17 -17 -17q-8 0 -12 15q-10 47 -52 78.5t-99 31.5h-19t-18 -2q-62 -110 -62 -184q0 -105 80 -100q23 0 23 -15q0 -16 -31 -16q-57 0 -97 50t-40 122q0 28 4 54t16 61q-98 -37 -180 -109q-6 -47 -6 -72q0 -108 58.5 -169.5t160.5 -61.5q193 0 397 201q201 204 201 397z
" />
    <glyph glyph-name="C" unicode="C" horiz-adv-x="1599" 
d="M1902 1219q0 -31 -21.5 -67t-68.5 -79q60 -108 60 -219q0 -35 -23 -35q-14 0 -14 27q0 49 -13.5 101t-35.5 102q-91 -70 -194 -127.5t-226 -106.5q-248 -98 -457 -115q-88 -127 -135 -247.5t-47 -225.5q0 -114 67.5 -180.5t184.5 -66.5q10 0 11 -1.5t9 1.5
q-29 40 -47 90.5t-18 101.5q0 254 235 457q203 182 381 182q168 0 168 -182q0 -111 -67.5 -236t-184.5 -231q-80 -72 -181.5 -123t-209.5 -80q63 -41 139 -41q66 0 140.5 28.5t146.5 82.5q18 14 29 14q10 -6 10 -12q0 -11 -62 -54q-129 -86 -270 -86q-102 0 -182 62
q-17 -2 -33 -2h-27q-170 0 -280 112q-111 113 -111 287q0 180 109 359q-164 30 -246 102t-82 193q0 182 201 315q196 129 479 129q141 0 282.5 -42t272.5 -118q47 10 90 14.5t84 4.5q137 0 137 -88zM1874 1214q0 64 -101 64q-26 0 -60 -5t-75 -18q51 -34 91 -73t69 -86
q35 32 55.5 62t20.5 56zM1773 1065l-4 4l4 4v-8zM1372 848q127 49 225 105.5t172 115.5q-37 53 -84 96t-96 76q-90 -31 -180 -84t-181 -119q-86 -69 -162.5 -146t-136.5 -159q97 10 208.5 39t234.5 76zM1548 1266q-12 4 -16 8q4 0 16 4v-12zM706 737q142 193 347.5 329
t478.5 208q-224 102 -476 102q-256 0 -454 -121q-193 -118 -193 -278q0 -92 81 -155.5t216 -84.5zM1675 653q0 58 -33 91.5t-86 33.5q-164 0 -362 -227q-193 -229 -193 -428q0 -82 45 -137q117 22 230.5 93t212.5 187q94 111 140 208t46 179z" />
    <glyph glyph-name="D" unicode="D" horiz-adv-x="1830" 
d="M2561 1012q0 -146 -36 -146q-13 0 -13 13q0 8 4 12l-2 -2q8 31 11.5 60.5t3.5 58.5q0 129 -72 206.5t-197 77.5q-209 0 -422 -213q113 -180 113 -389q0 -325 -254 -540q-256 -211 -651 -211q-80 0 -169 8t-181 24q-74 -16 -149 -24t-146 -8q-289 0 -289 71
q0 41 61.5 68.5t149.5 27.5q55 0 137 -14t180 -43l119 -33q78 31 144.5 70t111.5 82q47 47 118 139t163 232q237 350 483 559q-156 211 -455 211q-190 0 -389 -99q-94 -45 -181 -114.5t-157 -147.5q-94 -117 -149 -237.5t-55 -227.5q0 -104 60 -166.5t163 -62.5
q198 0 391 188q45 45 84 98.5t66.5 107.5t44 104.5t16.5 93.5q0 141 -117 141q-133 0 -289 -172q-151 -174 -151 -326q0 -112 88 -112h10q10 -6 10 -12q0 -15 -28 -15q-33 0 -60.5 14.5t-49 40t-34 60.5t-12.5 74q0 161 170 317q86 82 171 122t169 40q72 0 113 -47t41 -129
q0 -217 -211 -418q-207 -201 -432 -201q-142 0 -232 96q-47 48 -67.5 108t-20.5 134q0 301 307 541q156 123 329 182t366 59q170 0 300 -54t220 -169q254 203 452 203q142 0 221.5 -84t79.5 -227zM829 0l-27 -6v12zM1865 815q0 133 -55 236q-41 -54 -77 -104t-65 -103
q-28 -51 -72 -145.5t-102 -225.5q-84 -190 -241 -301q-154 -104 -424 -172q4 0 7 -2t7 -2q86 -25 240 -25q309 0 504 201q131 135 204.5 305t73.5 338zM659 -20l-41 6l41 6v-12zM384 -31q60 0 119.5 4t114.5 13q-287 43 -352 43q-119 0 -119 -23q0 -37 237 -37z" />
    <glyph glyph-name="E" unicode="E" horiz-adv-x="1916" 
d="M2242 1151q0 -72 -125 -72q-49 0 -149 17.5t-258 56.5l-49 12q-166 -114 -166 -241q0 -60 41 -82q22 0 45.5 1t44.5 1q115 0 115 -29q0 -22 -43 -22q-41 0 -82 6t-86 16q-60 -8 -121.5 -23.5t-120.5 -43.5q-21 -130 -131 -234q-113 -106 -258 -139q-29 -66 -29 -144
q0 -170 203 -231q-39 82 -39 162q0 217 209 375q256 188 516 188q256 0 256 -211q0 -96 -47 -184t-146 -178q-227 -203 -565 -203q-45 0 -108 6q92 -98 254 -98q127 0 229 55q2 0 14 4h4q11 -6 11 -14q0 -11 -29 -24t-68 -25q-90 -25 -161 -25q-187 0 -306 135
q-190 39 -304.5 131t-114.5 234v20t2 19q-176 34 -273.5 136.5t-97.5 254.5q0 110 56.5 210.5t154.5 174.5q213 157 526 157q84 0 211 -19t291 -56q74 28 157 44.5t175 16.5q71 0 137 -10t117 -29q108 -41 108 -96zM2210 1149q0 39 -74 65q-80 31 -180 31q-140 0 -252 -59
l26 -6l41 -11q242 -61 348 -61q91 0 91 41zM1980 524q0 74 -53 119t-145 45q-222 0 -457 -194q-234 -199 -234 -379q0 -29 11.5 -66t23.5 -61q25 -4 48.5 -5t41.5 -1q273 0 518 174q246 178 246 368zM1515 1198q-8 0 -16 4l16 8v-12zM1349 999q0 119 150 203
q-225 49 -381 49q-309 0 -528 -157q-218 -156 -218 -379q0 -131 83 -214t233 -104q39 154 190.5 261.5t382.5 150.5q0 131 -85 209t-226 80q-16 0 -16 12q0 18 26 18q72 0 132.5 -24.5t107.5 -65.5q43 -45 67.5 -101t26.5 -122q41 6 86 12.5t94 10.5q-125 45 -125 161z
M1257 741q-117 -57 -214 -149t-138 -184q135 34 230.5 125.5t121.5 207.5z" />
    <glyph glyph-name="F" unicode="F" horiz-adv-x="1536" 
d="M2693 1126q0 -63 -125 -104q-115 -39 -299 -39q-92 0 -201.5 17.5t-236.5 52.5q-72 -54 -128.5 -136.5t-101.5 -199.5l-18 -47q-4 -8 -6 -12.5t-7 -14.5q23 -4 39.5 -4h26.5q20 0 31 2q53 145 155 145q76 0 76 -57q0 -80 -147 -113q-21 -98 -77 -159.5t-128 -61.5
q-21 0 -21 17q0 6 25 18q27 12 55.5 60.5t53.5 119.5h-29q-14 0 -70 6q-41 -96 -80 -176t-77 -133q-37 -53 -82 -98t-99 -82q-127 -82 -284 -127q-164 -47 -322 -47q-98 0 -177 26.5t-135.5 74.5t-87 117t-30.5 153q0 86 36 167.5t101 153.5q133 154 340 209
q96 141 229.5 241.5t303.5 147.5q-72 84 -219 84q-111 0 -225.5 -61.5t-223.5 -182.5q-4 -4 -12 -9t-13 -5q-10 2 -10 12q0 19 92 105q176 170 394 170q159 0 249 -103q54 15 105 20t106 5q103 0 242 -26.5t313 -80.5q86 35 183.5 54.5t201.5 19.5q66 0 123.5 -9t99.5 -24.5
t66.5 -38t24.5 -47.5zM2662 1126q0 31 -84 58q-90 28 -197 28q-98 0 -186 -14t-158 -39l62 -18q121 -35 226.5 -53.5t182.5 -18.5q154 0 154 57zM1863 727q0 27 -26 27q-58 0 -80 -103q106 27 106 76zM1253 1079q0 19 -2 40.5t-8 45.5q-156 -2 -287 -74.5t-244 -226.5
q29 4 55.5 6t49.5 2q110 0 183 -39.5t108 -125.5q145 200 145 372zM1806 1059q-6 0 -14 4q8 4 12 8zM1392 659q78 117 179.5 220.5t220.5 183.5q-101 29 -164.5 45t-89.5 22q-74 17 -141.5 26t-123.5 11q27 -82 27 -163q0 -224 -172 -402q2 -6 2 -22q0 -185 -145 -338
q-146 -154 -320 -154q-108 0 -175.5 64.5t-67.5 171.5q0 79 43 151t120 131v17q0 71 37 157q-78 -41 -139 -95t-113 -124q-102 -149 -102 -301q0 -123 89 -198.5t241 -75.5q127 0 262 70.5t237 189.5q41 45 108.5 140t166.5 243q-66 -4 -111 -29t-63 -78q-11 -18 -19 -18
q-14 0 -14 14q0 45 56.5 92t170.5 49zM1085 674q-2 0 -2 2l4 4zM759 461q164 0 324 215q-55 160 -244 160q-82 0 -168 -33q-22 -43 -36.5 -88t-18.5 -86q107 57 207 57q25 0 51.5 -8t48 -20.5t35.5 -28t14 -29.5t-12 -14q-4 0 -24 24q-25 43 -103 43q-88 0 -207 -94
q39 -98 133 -98zM1110 584l-11 -11v15zM964 266q129 142 135 307q-157 -149 -323 -149q-60 0 -105 29.5t-69 83.5q-113 -115 -113 -230q0 -86 51.5 -137t132.5 -51q156 0 291 147z" />
    <glyph glyph-name="G" unicode="G" horiz-adv-x="1538" 
d="M1892 911q0 -32 -53.5 -94.5t-163.5 -161.5l-31 -28q-59 -80 -82 -148q-22 -59 -61 -260q-62 -299 -293 -479q-230 -174 -574 -174q-120 0 -214.5 28.5t-168.5 86.5q-143 112 -143 309q0 225 199 397q100 88 212.5 136t243.5 57v16q0 10 7 57q-181 11 -270 83.5
t-89 201.5q0 207 215 365q221 153 510 153q252 0 422 -125q47 15 90 23t80 8q98 0 98 -80q0 -84 -110 -190q6 -31 6 -64q0 -67 -15 -137q-16 -74 -34 -74q-11 2 -11 14l2 13q31 69 31 166q0 10 -1 27.5t-3 33.5q-80 -70 -172 -135.5t-190 -118.5q-99 -53 -194 -91t-173 -54
q-14 -23 -26.5 -50.5t-22.5 -50.5q113 -22 177.5 -102t68.5 -199q41 11 90 40.5t110 78.5q68 53 133.5 118.5t131.5 141.5h-3q175 289 246 289q25 0 25 -27zM1798 1276q0 55 -74 55q-47 0 -123 -35q45 -41 70.5 -84t38.5 -88q88 93 88 152zM1685 1096v4l2 2zM1335 854
q110 61 197 123.5t153 122.5q-10 41 -47 100q-19 31 -33 51.5t-29 30.5q-88 -51 -169.5 -114.5t-161.5 -141.5q-160 -154 -263 -319q72 16 160 53t193 94zM1533 1317l-12 6l14 4zM774 684q86 408 747 639q-149 84 -307 84q-295 0 -528 -154q-230 -151 -230 -346
q0 -98 87 -158.5t231 -64.5zM1126 260v6h6zM1099 264q4 0 10.5 1t16.5 1q4 101 -57.5 175.5t-165.5 99.5q-15 -52 -15 -95q0 -81 50.5 -132.5t132.5 -51.5q4 0 11 1t17 1zM1603 590l-59 -66l51 74zM1345 240q53 77 102.5 148t96.5 136q-123 -125 -217.5 -195.5t-167.5 -86.5
q-25 -211 -172 -359q-76 -76 -159 -114.5t-179 -38.5q-58 0 -105 18.5t-82 51t-54 78.5t-19 102q0 129 108 237q111 111 240 111q37 0 75.5 -19.5t38.5 -38.5q0 -12 -10 -14q-2 0 -8 2t-14 8q-27 27 -74 27q-100 0 -199 -117q-100 -113 -100 -229q0 -86 57.5 -138.5
t149.5 -52.5q170 0 311 146q141 141 164 334q-31 -7 -55 -7q-125 0 -209 87t-99 231q-219 -33 -395 -228q-176 -192 -176 -407q0 -68 26.5 -124t73.5 -96t115 -61.5t148 -21.5q106 0 201 30.5t173 96.5q168 133 414 504z" />
    <glyph glyph-name="H" unicode="H" horiz-adv-x="2086" 
d="M3032 1110q0 -143 -166 -262q-106 -72 -137 -72q-12 0 -14 10q0 17 29 27q102 47 165.5 125t63.5 160q0 78 -50 127t-132 49q-70 0 -141.5 -27.5t-141.5 -81.5q-43 -35 -81 -74.5t-62 -80.5q-29 -45 -70 -132t-100 -221q-142 -325 -291 -475q-72 -69 -158 -115.5
t-198 -74.5q112 -12 178 -12q123 0 202 36q41 21 86.5 54.5t85.5 79.5q35 40 68 81t55 78q9 19 21 19q14 0 14 -15q0 -22 -102 -143q-49 -59 -102.5 -105.5t-98.5 -68.5q-43 -23 -103.5 -36t-129.5 -13q-97 0 -258 24q-89 -16 -134 -16q-71 0 -71 35t65 35q25 0 129 -19
q4 0 10.5 -2t12.5 -2q63 16 119.5 49t93.5 78q41 49 100.5 147.5t136.5 251.5q0 2 2 7q3 4 5 10t8 16h-320q-90 -180 -176 -278q-88 -101 -235 -181q-136 -75 -267 -114t-258 -39q-194 0 -317 110q-123 107 -123 287q0 80 27.5 163t74.5 161q50 78 122.5 148.5t158.5 125.5
q39 189 233 344q193 156 404 156q102 0 163.5 -57.5t61.5 -151.5q0 -66 -55 -178q-23 -56 -23 -76q0 -70 80 -70q45 0 105 43q32 23 51.5 46.5t34.5 52.5q16 28 26 28q15 0 15 -14q0 -25 -60 -90q-41 -47 -87 -71.5t-91 -24.5q-63 0 -108.5 47t-45.5 116q0 54 64 191
q10 22 16.5 42.5t6.5 33.5q0 43 -45.5 71.5t-110.5 28.5q-193 0 -371 -135q-170 -133 -225 -313q174 96 330 96q151 0 242 -89t91 -239q0 -59 -22 -137h108l9 10l20 37q129 199 251 331t226 193q105 58 129 58q11 -6 11 -15q0 -4 -9.5 -11t-19.5 -13q-107 -58 -186 -172h2
q-37 -56 -86.5 -151t-110.5 -236l-14 -31h323q174 332 369 500q244 213 473 213q102 0 165.5 -54.5t63.5 -142.5zM1279 768q0 119 -72.5 188.5t-201.5 69.5q-90 0 -179 -37t-173 -106q2 -35 9 -76t23 -70q23 25 54.5 45.5t66.5 40.5q37 19 64.5 30t46.5 11q16 0 16 -14
q0 -12 -26 -16q-111 -39 -205 -125q73 -78 180 -78q178 0 326 194q8 9 16 9q14 0 14 -15q0 -18 -55 -76q-147 -141 -307 -141q-125 0 -195 86q-125 -127 -125 -276q0 -97 59.5 -157t151.5 -60q60 0 122.5 26.5t122.5 74.5t114.5 115.5t97.5 149.5h-139q-11 0 -4 10l12 21
q0 2 4 2h143q39 94 39 174zM1298 561q-33 -86 -85.5 -153.5t-127.5 -126.5q-152 -119 -312 -119q-55 0 -101 18.5t-80 52t-52.5 79.5t-18.5 100q0 151 140 301q-39 71 -39 143q-64 -53 -112 -115.5t-85 -138.5q-80 -153 -80 -291q0 -151 90.5 -240t247.5 -89q88 0 176 31.5
t166 88.5q103 74 164 152q29 37 74 101.5t104 162.5q4 10 12.5 21.5t14.5 21.5h-96z" />
    <glyph glyph-name="I" unicode="I" horiz-adv-x="1492" 
d="M2229 1329q0 -47 -272 -129l2 2q-59 -47 -113.5 -108.5t-101.5 -135.5q-41 -73 -92 -180.5t-103 -242.5q125 8 224 92q98 88 108 211q0 12 15 12q14 0 14 -16q0 -123 -117 -222q-57 -47 -120.5 -73.5t-135.5 -30.5q-65 -156 -161.5 -265.5t-219.5 -172.5
q-106 -52 -250 -86q-71 -17 -140 -26t-130 -9q-186 0 -309 104q-119 101 -119 271q0 206 195 374q194 170 432 170q147 0 232 -74.5t85 -205.5q0 -189 -147 -348q-142 -156 -318 -156q-108 0 -175.5 67.5t-67.5 174.5q0 67 32.5 130.5t91.5 116.5q66 54 135.5 82.5
t147.5 28.5q25 0 50.5 -8t46 -22.5t33.5 -31t13 -30.5q-6 -10 -12 -10q-8 0 -18 16q-35 53 -109 53q-117 0 -231 -114q-113 -117 -113 -234q0 -84 50 -134t134 -50q78 0 152 35.5t139 109.5q135 144 135 326q0 112 -69.5 176.5t-190.5 64.5q-209 0 -391 -182
q-182 -178 -182 -389q0 -61 24.5 -112.5t67.5 -87t103.5 -56t132.5 -20.5q362 0 682 493l40 62q-178 75 -178 256q0 180 189 280q59 29 168.5 57.5t271.5 57.5q47 6 82 14t53 13l21 6l-2 -2q92 65 157.5 95t106.5 30q22 0 22 -17zM1924 1192l-28 -8l22 18zM1353 565
q248 393 543 619q-123 -31 -213.5 -60.5t-145.5 -52.5q-149 -72 -231 -154.5t-82 -171.5q0 -127 129 -180z" />
    <glyph glyph-name="J" unicode="J" horiz-adv-x="1622" 
d="M2406 1397q0 -37 -113 -82q-49 -21 -116.5 -38t-133.5 -28q-78 -65 -150.5 -144t-131.5 -173q-60 -92 -117 -208t-111 -257h21q131 0 230.5 58.5t129.5 156.5q10 35 25 35l4 -2q4 -8 4 -13q0 -38 -41 -98q-41 -55 -86 -88q-119 -78 -272 -78h-25l-14 -41l-45 -110l-9 -25
q60 -106 60 -207q0 -215 -178 -352q-86 -65 -199 -102t-244 -37q-77 0 -150 15t-138 44q-31 -4 -59.5 -6t-49.5 -2q-199 0 -313.5 88t-114.5 242q0 233 248 399v-2q252 166 600 166q229 0 395 -102l45 73q-102 45 -155.5 116t-53.5 171q0 113 71 211t198 158q75 39 151 55
q76 14 313 49q39 4 79 13.5t87 21.5l25 14q16 10 33.5 20.5t34.5 18.5h-3q148 92 236 92q33 0 33 -22zM2033 1262l6 -11q-10 -4 -21.5 -9t-27.5 -9q2 0 4 2zM1367 504q291 497 623 729q-27 -10 -61.5 -21.5t-79.5 -25.5q-287 -90 -428 -225q-148 -142 -148 -295
q0 -117 94 -162zM1482 57q0 68 -41 168q-53 -123 -125.5 -221t-165.5 -166q-94 -71 -211.5 -122.5t-277.5 -86.5q125 -37 231 -37q256 0 422 132q168 131 168 333zM1302 373q-2 0 -3 1t-3 1l4 6zM941 -117q93 94 183 216t172 276q-154 100 -363 100q-311 0 -538 -178
q-226 -178 -226 -420q0 -110 80 -171.5t228 -61.5q34 0 71 6q-73 41 -120.5 111.5t-47.5 142.5q0 86 58.5 163.5t150.5 118.5q68 29 103 29l8 -4q4 0 4 -6q0 -17 -21 -17q-98 -18 -170 -108q-69 -94 -69 -197q0 -155 143 -225q82 20 172 76.5t182 148.5z" />
    <glyph glyph-name="K" unicode="K" horiz-adv-x="2072" 
d="M3088 1104q0 -143 -172 -260q-103 -64 -142 -64q-16 0 -16 15q0 10 22 20q119 45 186.5 122t67.5 165q0 78 -56 126t-148 48q-111 0 -205 -62q-49 -30 -105.5 -81.5t-117.5 -122.5q-158 -185 -263 -254q-55 -35 -119.5 -61.5t-146.5 -43.5q53 -37 87 -92t34 -125
q0 -28 -13.5 -99t-35.5 -165q-17 -72 -17 -121q0 -100 105 -100q55 0 104 43q9 8 15 8q12 0 12 -14q0 -23 -53 -47q-51 -23 -92 -23q-95 0 -168 86q-72 84 -72 201q0 73 45 209q39 118 39 166q0 36 -27 69q-47 -6 -90 -6q-71 0 -71 29q0 24 51 24t106 -20q43 10 84 27.5
t72 37.5q33 25 91 83.5t124 131.5q153 166 314 258.5t313 92.5q120 0 189 -53.5t69 -147.5zM2057 1210q0 -4 -8 -11t-18 -13q-96 -58 -176 -154q-72 -96 -158 -293q-61 -141 -110.5 -239.5t-90.5 -151.5q-71 -104 -223 -209q-141 -94 -290.5 -143t-303.5 -49
q-98 0 -175 27.5t-138 82.5q-121 107 -121 285q0 82 27.5 165t78 160.5t121 148.5t156.5 126q39 195 231 348q193 154 406 154q102 0 163.5 -57.5t61.5 -149.5q0 -31 -14 -78t-39 -100q-10 -25 -17.5 -44.5t-7.5 -31.5q0 -29 21.5 -49.5t56.5 -20.5q25 0 52.5 11.5t54 31
t49 46t37.5 55.5q14 26 26 26q15 0 15 -14q0 -22 -58 -88q-92 -98 -180 -98q-63 0 -108.5 48t-45.5 118q0 49 41 137q46 92 46 125q0 45 -44.5 73.5t-113.5 28.5q-191 0 -369 -137q-170 -129 -225 -313q162 94 332 94q75 0 136.5 -23.5t104.5 -66.5t66.5 -103.5t23.5 -134.5
q0 -209 -178 -389q-176 -180 -385 -180q-53 0 -97 19.5t-78 53t-52.5 79.5t-18.5 100q0 147 142 301q-21 32 -30 69t-11 78q-131 -119 -204 -265t-73 -290q0 -149 89.5 -237t242.5 -88q234 0 428 188q39 39 72 77t61 79q29 38 78 115t121 194q125 198 244.5 332.5
t232.5 197.5q105 62 129 62q14 0 14 -15zM1279 776q0 111 -74.5 179.5t-199.5 68.5q-86 0 -176 -36t-176 -101q2 -45 10 -86t22 -68q49 47 121 88h-2q76 43 113 43q14 0 14 -14q0 -4 -6 -7t-10 -7q-60 -23 -115 -54.5t-96 -72.5q67 -78 180 -78q156 0 295 153q18 19 27 19
q10 -6 10 -15q0 -8 -29 -40q-145 -146 -307 -146q-123 0 -197 86q-127 -137 -127 -278q0 -48 16.5 -86.5t45 -68.5t67.5 -46t84 -16q170 0 340 192q170 199 170 391z" />
    <glyph glyph-name="L" unicode="L" horiz-adv-x="1574" 
d="M2138 1257q0 -69 -131 -233q-64 -80 -138.5 -159t-156.5 -152q-10 -23 -18.5 -51.5t-18.5 -51.5q-80 -223 -227 -354q-74 -66 -167 -113t-220 -80l139 -38q350 -101 469 -101q92 0 158 45q24 11 30 11q13 0 13 -15q0 -14 -52 -41q-81 -37 -176.5 -59.5t-195.5 -22.5
q-121 0 -248 29q-29 6 -72 17.5t-94 26.5t-106.5 32.5t-108.5 34.5q-88 -15 -164 -22t-137 -7q-340 0 -340 104q0 49 96 78q94 31 226 31q43 0 101 -7t124.5 -18.5t140.5 -28t148 -34.5q77 28 159 117.5t168 224.5q-71 -55 -134.5 -96t-117.5 -64q-59 -27 -119.5 -40
t-125.5 -13q-185 0 -299 112q-60 54 -86.5 127.5t-26.5 165.5q0 265 258 492q256 231 549 231q135 0 214 -70.5t79 -191.5q0 -199 -195 -422q-196 -219 -373 -219q-47 0 -87 17.5t-68.5 49t-46 73.5t-17.5 92q0 161 156 311q78 76 160 111.5t166 35.5q65 0 104 -36.5
t39 -96.5q0 -35 -14.5 -70.5t-28.5 -35.5q-12 0 -12 12q0 10 6 23q6 16 12 35.5t6 33.5q0 45 -28.5 72.5t-73.5 27.5q-137 0 -279 -159q-139 -158 -139 -314q0 -69 40 -110t107 -41q82 0 169 54t180 155q86 104 135 205.5t49 195.5q0 103 -68.5 167.5t-177.5 64.5
q-250 0 -491 -246q-236 -248 -236 -512q0 -141 86 -225t234 -84q127 0 231 51q57 26 133 76.5t176 126.5q15 22 30 50.5t28 51.5q73 135 142 243.5t126 180.5q59 72 121.5 133t132.5 109v-3q78 54 123 54q51 0 51 -54zM2105 1260q0 20 -20 20q-70 0 -174 -147
q-49 -70 -92.5 -156t-77.5 -182l-9 -23q72 66 134.5 134.5t119.5 142.5q119 153 119 211zM784 -8l-26 8q8 2 14 3t14 1zM526 -16q51 0 109.5 4t122.5 12l-201 66q-135 36 -234 36q-112 0 -112 -45q0 -73 315 -73z" />
    <glyph glyph-name="M" unicode="M" horiz-adv-x="2451" 
d="M2946 1266q0 -9 -16 -19h2q-119 -71 -186 -174q-31 -47 -71 -138t-87 -216q-62 -166 -135.5 -297t-157.5 -217q-78 -80 -170 -133.5t-211 -81.5q57 -6 99 -8t77 -2q199 0 320 116q98 94 176 211h-2q10 17 24 17q11 -7 11 -13q0 -10 -9 -24l-14 -17q-139 -192 -244 -256
q-108 -67 -262 -67q-41 0 -105.5 6t-154.5 16q-55 -12 -112 -12q-68 0 -68 29q0 28 57 28q15 0 46.5 -3t78.5 -11q66 16 120 48t89 79q39 49 110.5 172t176.5 324q110 208 231 356.5t250 234.5q43 29 79 46.5t48 17.5q10 -6 10 -12zM3417 997q0 -47 -12 -96q-16 -51 -29 -51
q-14 0 -14 14q0 6 4 10l-2 -2q23 62 23 117q0 131 -107 219q-106 88 -266 88q-217 0 -428 -168q-105 -81 -228.5 -223.5t-261.5 -335.5q-94 -135 -170.5 -233t-126.5 -150q-49 -49 -111.5 -93t-131.5 -79q-74 -39 -101 -39q-14 0 -14 13q0 10 16 20v-2q76 72 130.5 213
t89.5 336q26 162 52.5 280.5t51.5 184.5q45 110 137 231q-33 -28 -58.5 -61t-51.5 -74q-35 -53 -74 -129t-82 -174q-59 -135 -110.5 -236.5t-98.5 -170.5q-92 -134 -217 -238q-276 -221 -555 -221q-186 0 -307 108q-119 107 -119 279q0 84 27.5 167t77 161.5t119 148.5
t155.5 127q20 102 77.5 187t153.5 163q195 156 402 156q102 0 164.5 -57.5t62.5 -151.5q0 -31 -15.5 -79t-41.5 -101q-11 -25 -18 -44.5t-7 -31.5q0 -70 82 -70q23 0 50.5 11.5t54 32t50 45t38.5 53.5q16 28 26 28q15 0 15 -14q0 -12 -16.5 -35.5t-45.5 -54.5
q-41 -47 -88 -71.5t-90 -24.5q-66 0 -111 48t-45 117q0 29 16.5 74t49.5 115q22 49 22 76q0 43 -44 72.5t-107 29.5q-92 0 -187.5 -37t-185.5 -102q-84 -68 -141.5 -146.5t-81.5 -167.5q88 48 169 72.5t161 24.5q151 0 241 -89t90 -239q0 -102 -43 -198.5t-135 -188.5
q-174 -182 -375 -182q-53 0 -99 18.5t-80 51t-52.5 76.5t-18.5 97q0 158 142 310q-21 32 -31 69t-12 74q-277 -250 -277 -553q0 -147 89 -234t243 -87q232 0 449 182q69 57 129.5 123.5t113.5 140.5q54 74 116 178.5t136 245.5q90 174 171 287.5t147 167.5q67 51 88 51
q12 0 12 -13q0 -4 -14 -18q-56 -33 -82 -119q-15 -47 -28 -120.5t-26 -182.5q-43 -391 -116 -573q-62 -162 -201 -277q53 29 104.5 68t94.5 86q55 59 133 161.5t166 231.5q133 193 261 346.5t232 237.5q111 90 222.5 132t228.5 42q170 0 289 -103q116 -104 116 -258z
M1277 774q0 109 -76.5 178.5t-197.5 69.5q-90 0 -178 -37t-174 -104q2 -39 10 -79t24 -69q29 25 57.5 45.5t61.5 40.5q76 43 113 43q12 0 12 -12q0 -10 -16 -14q-66 -29 -119 -61t-92 -66q69 -76 178 -76q80 0 159.5 43t149.5 115q12 16 23 16q10 -6 10 -12q0 -19 -55 -68
q-136 -123 -289 -123q-119 0 -197 84q-127 -133 -127 -282q0 -93 57.5 -154.5t145.5 -61.5q86 0 173 50.5t173 142.5q80 96 127 195.5t47 195.5z" />
    <glyph glyph-name="N" unicode="N" horiz-adv-x="1970" 
d="M3321 995q0 -53 -25 -116q-10 -29 -22 -48.5t-23 -19.5q-12 0 -12 12q0 2 2 6q2 5 3 7l3 6q41 55 41 141q0 133 -106 227q-103 93 -260 93q-117 0 -227.5 -50.5t-213.5 -144.5q-53 -51 -101 -105.5t-83 -105.5q-35 -47 -99.5 -159.5t-162.5 -293.5q-156 -282 -297 -415
q-72 -72 -102 -72q-19 0 -19 20q0 23 37 33q41 10 65.5 63.5t24.5 131.5q0 63 -12 186q-19 162 -19 260q0 187 43 301q19 45 48.5 92.5t76.5 100.5q-37 -35 -74.5 -77t-68.5 -89q-47 -64 -104.5 -165t-124.5 -232q-95 -191 -195 -306q-94 -114 -231 -196
q-207 -129 -406 -129q-194 0 -313 110q-117 105 -117 291q0 80 27.5 161t77 158t119 146.5t155.5 124.5q16 98 73.5 183t155.5 163q199 156 408 156q102 0 164.5 -58.5t62.5 -150.5q0 -66 -55 -178q-25 -53 -25 -76q0 -70 82 -70q21 0 47.5 12.5t53 34t51 49t43.5 58.5
q4 6 8 11t12 5q15 0 15 -14q0 -23 -60 -88q-41 -47 -87 -72.5t-89 -25.5q-65 0 -110.5 48t-45.5 118q0 51 64 188q10 22 16 42.5t6 33.5q0 43 -45 71.5t-114 28.5q-92 0 -186.5 -37t-184.5 -102q-84 -68 -140.5 -145.5t-82.5 -165.5q174 96 336 96q147 0 233 -85t86 -231
q0 -211 -178 -391q-180 -180 -389 -180q-101 0 -164 70q-66 71 -66 166q0 155 140 307q-19 32 -29 70t-12 75q-62 -53 -110 -116.5t-87 -137.5q-37 -74 -57.5 -147.5t-20.5 -139.5q0 -157 88 -244t246 -87q238 0 449 188q90 78 145 164q27 35 91.5 138.5t168.5 273.5
q201 319 356 444q76 61 87 61q6 0 12 -10q0 -10 -10 -26q-56 -97 -58 -201q0 -27 -2 -52.5t-2 -52.5l-2 -311q-2 -88 -11 -161.5t-26 -131.5q-24 -88 -88 -188q31 35 56.5 73.5t52.5 79.5q39 62 94 166.5t133 253.5q340 670 786 670q175 0 291 -104q119 -107 119 -265z
M1269 778q0 111 -71.5 179.5t-192.5 68.5q-88 0 -177 -37t-178 -104q3 -37 10 -79t23 -69q25 23 53.5 42.5t65.5 41.5q80 43 115 43q14 0 14 -12t-31 -21q-61 -22 -110 -54t-88 -66q34 -37 78.5 -57.5t99.5 -20.5q35 0 73.5 10t77.5 28.5t74 43t62 55.5q18 18 28 18
q10 -6 10 -12q0 -20 -61 -69q-127 -105 -266 -105q-123 0 -199 88q-61 -72 -94 -142.5t-33 -137.5q0 -43 14.5 -81t40 -65.5t59.5 -44t73 -16.5q86 0 176 49t176 141q84 94 131 192.5t47 192.5z" />
    <glyph glyph-name="O" unicode="O" horiz-adv-x="1669" 
d="M1925 1128q0 -59 -27 -131q18 -65 18 -116q0 -174 -96 -341t-274 -321q-164 -135 -321 -205.5t-304 -70.5q-96 0 -171 29.5t-136 88.5q-119 123 -119 306q0 186 117 376q59 93 137 175.5t178 154.5q78 53 177.5 103.5t195.5 85.5q104 36 198.5 54.5t176.5 18.5
q114 0 182 -55t68 -152zM1896 1118q0 86 -56.5 134t-152.5 48q-111 0 -225.5 -41.5t-237.5 -128.5q-117 -77 -212 -179.5t-175 -227.5q-164 -252 -164 -483q0 -60 18.5 -108t52.5 -83t79 -54.5t100 -19.5q246 0 526 287q138 137 223 276.5t123 292.5q-16 -20 -40.5 -43.5
t-53.5 -52.5q-78 -76 -108 -76q-13 0 -15 11q0 4 6.5 12t20.5 16q59 35 112.5 92.5t92.5 110.5q0 10 1 17.5t1 13.5q0 8 2 14v8q0 99 -52.5 155t-140.5 56q-225 0 -479 -247q-258 -250 -258 -461q0 -58 36 -93.5t89 -35.5q139 0 324 202q182 205 182 365q0 100 -82 96
q-20 0 -20 13q0 18 32 18q62 0 102 -49t40 -127q0 -178 -195 -367q-98 -92 -191.5 -138t-189.5 -46q-74 0 -120 49t-46 133q0 117 67.5 239t192.5 238q129 119 259 180.5t259 61.5q175 0 258 -162q15 43 15 84z" />
    <glyph glyph-name="P" unicode="P" horiz-adv-x="1574" 
d="M2486 1047q0 -50 -8.5 -95t-22.5 -45q-12 0 -12 15v6t2 8q0 4 1 6t1 6q12 51 12 99q0 127 -72.5 202.5t-193.5 75.5q-78 0 -154.5 -25.5t-154.5 -80.5q92 -54 133 -119.5t41 -145.5q0 -139 -117 -239q-59 -53 -129 -78t-147 -25q-29 0 -55.5 4.5t-49 11.5t-36 15
t-13.5 16q0 15 12 15q4 0 6 -2q2 0 4.5 -1t4.5 -1q43 -21 96 -21q108 0 192 103q86 100 86 235q0 103 -82 187q-112 -103 -200 -242q-43 -70 -86 -167t-90 -222q-35 -92 -78 -165t-90 -126q-45 -47 -116 -95t-148 -87q-242 -113 -449 -113q-158 0 -250 80t-92 213
q0 125 86 242q-2 8 -2 18v20q0 314 319 560q162 129 340.5 191t376.5 62q152 0 276 -25.5t222 -80.5q184 119 348 119q131 0 210 -84t79 -225zM1806 1196q-2 0 -6 4q2 0 6 4v-8zM1247 573q129 203 267 360t286 267q-78 53 -177.5 82t-222.5 29q-213 0 -413.5 -93.5
t-356.5 -263.5q-82 -90 -138 -183t-83 -179q45 35 94.5 62.5t98.5 43.5q37 68 89 124.5t113 103.5q66 47 133.5 71.5t131.5 24.5q82 0 129 -46t47 -124q0 -209 -211 -422q-109 -106 -212.5 -159.5t-207.5 -53.5q-115 0 -192.5 62.5t-100.5 173.5q-61 -103 -61 -197
q0 -123 84 -195.5t229 -72.5q84 0 170 36.5t166 98.5q39 33 71.5 66.5t57.5 64.5q16 22 69.5 103t139.5 216zM1212 850q0 65 -37 103t-96 38q-92 0 -192.5 -72.5t-178.5 -201.5h4q39 0 74 -11.5t61.5 -30t42 -44t15.5 -51.5q0 -15 -12 -15q-15 0 -15 15q-12 53 -52 81.5
t-112 28.5h-24q-31 -59 -47.5 -105t-16.5 -87q0 -97 82 -97q23 0 23 -14t-27 -14q-63 0 -103 50t-40 122q0 55 24 117q-49 -19 -94 -45.5t-90 -67.5q-6 -43 -6 -66q0 -110 59.5 -173.5t161.5 -63.5q197 0 397 200q199 205 199 404z" />
    <glyph glyph-name="Q" unicode="Q" horiz-adv-x="1898" 
d="M2113 897q0 -160 -93 -313.5t-259 -276.5q-90 -65 -217 -124.5t-273 -102.5q197 -78 323 -114t187 -36q82 0 148 35q2 2 10 2q10 -6 10 -12q0 -33 -125 -61q-59 -13 -114.5 -20t-110.5 -7q-65 0 -145 13.5t-144 29.5q-30 8 -106 37.5t-168 68.5q-127 -24 -244 -24
q-139 0 -222 28.5t-83 75.5q0 99 272 99q93 0 213.5 -27t259.5 -74q134 49 252.5 136t210.5 192q113 141 173.5 288.5t60.5 293.5q0 145 -76 224t-211 79q-283 0 -551 -256q-268 -258 -268 -525q0 -116 59.5 -178.5t167.5 -62.5q199 0 391 180q189 184 189 377
q0 137 -117 137q-125 0 -272 -160q-146 -162 -146 -301q0 -110 92 -110q15 0 15 -13q0 -14 -27 -14q-31 0 -57.5 14.5t-48 39t-33.5 57t-12 67.5q0 74 42 150.5t117 148.5q78 76 161 114t161 38q72 0 115 -47.5t43 -126.5q0 -205 -195 -396q-195 -186 -412 -186
q-149 0 -238 88t-89 238q0 282 290 516q302 239 621 239q215 0 342 -121q131 -120 131 -317zM1005 29q-12 2 -22 8q6 0 11 1t11 3v-12zM794 25q105 0 189 12q-256 98 -373 98q-92 0 -92 -37q0 -73 276 -73z" />
    <glyph glyph-name="R" unicode="R" horiz-adv-x="1884" 
d="M2488 1042q0 -141 -35 -141q-10 2 -10 14v8t2 9q0 2 1 4t1 4q12 51 12 100q0 129 -72.5 206t-195.5 77q-152 0 -305 -109q88 -53 128 -120.5t40 -153.5q0 -113 -79 -185.5t-243 -101.5q133 -75 133 -200q0 -66 -30 -191q-17 -72 -26 -119t-9 -69q0 -121 98 -121
q86 0 139 76q11 14 19 14t14 -10q0 -31 -67 -72h2q-64 -39 -117 -39q-96 0 -166 84q-72 84 -72 195q0 32 11.5 86.5t31.5 124.5q17 55 26 97t9 62q0 47 -33 74q-34 -4 -63 -6t-45 -2q-76 0 -76 29q0 22 63 22q50 0 121 -18q97 32 155 114t58 193q0 121 -78 194
q-53 -51 -100 -108t-90 -123q-86 -135 -172 -362q-82 -209 -166 -310q-86 -104 -244 -182q-245 -129 -479 -129q-162 0 -255 80t-93 217q0 59 23.5 121.5t64.5 120.5q-2 10 -2 22v25q0 305 326 551q325 249 725 249q135 0 254.5 -26.5t228.5 -83.5q92 57 177 87t163 30
q139 0 218 -81t79 -227zM1808 1192q-2 0 -6 4q2 0 6 4v-8zM1290 635q115 174 245 317.5t267 243.5q-156 115 -397 115q-326 0 -621 -217q-283 -209 -369 -498q47 35 95.5 60.5t91.5 39.5q35 70 85 125.5t117 102.5q142 98 267 98q82 0 129 -47t47 -125q0 -207 -217 -426
q-207 -205 -416 -205q-240 0 -291 240q-63 -105 -63 -203q0 -121 83 -194.5t222 -73.5q192 0 354 137q68 59 121 133q27 37 89.5 130t160.5 247zM1214 848q0 63 -38 103t-97 40q-94 0 -184.5 -66.5t-182.5 -207.5h21q30 0 61 -13.5t58 -31.5q26 -23 41.5 -46.5t15.5 -45.5
q0 -15 -12 -15q-7 0 -19 25q-39 106 -145 100l-41 -2q-62 -110 -62 -188q0 -99 82 -99q21 -4 21 -12q0 -16 -23 -16q-63 0 -105 50t-42 128q0 51 22 108q-88 -32 -182 -110q-4 -23 -6 -43.5t-2 -34.5q0 -102 59.5 -161.5t161.5 -59.5q98 0 195.5 49t195.5 147
q207 211 207 402z" />
    <glyph glyph-name="S" unicode="S" horiz-adv-x="1527" 
d="M2042 1300q0 -45 -99 -143q-47 -47 -106.5 -93t-122.5 -87q-14 -57 -26.5 -121.5t-26.5 -142.5q-23 -111 -54.5 -201t-72.5 -150q-41 -61 -104.5 -121.5t-151.5 -117.5q-267 -170 -555 -170q-170 0 -285 84q-49 -96 -49 -168q0 -86 61 -137q15 -11 15 -21q0 -14 -17 -14
q-32 0 -65 61q-29 58 -29 109q0 70 57 188q-145 121 -145 332q0 74 21.5 151.5t61.5 153.5t96.5 144.5t123.5 128.5q62 51 130.5 91t141.5 72q146 64 271 64q129 0 205.5 -74t76.5 -196q0 -21 -3 -42.5t-7 -50.5l33 17l27 16l69 41l27 12l-2 -2l18 15q45 96 94.5 168.5
t108.5 126.5q135 120 231 120q52 0 52 -43zM2009 1296q0 17 -19 17q-20 0 -43.5 -12.5t-50.5 -32.5q-114 -88 -172 -248q55 37 104.5 76t90.5 80q90 90 90 120zM1353 776l-16 -10l6 18zM1126 416q76 78 129 164t82 186q-237 -141 -398 -248.5t-247 -183.5q39 -74 127 -74
q145 0 307 156zM1364 920q0 110 -65.5 173.5t-176.5 63.5q-72 0 -144.5 -25.5t-154.5 -76.5q-76 -47 -149.5 -121t-133.5 -148q-77 -114 -124.5 -235t-47.5 -227q0 -148 68 -228q31 47 82 104.5t117 121.5q-39 57 -39 141q0 168 162 328q165 159 337 159q158 0 158 -139
q0 -39 -16 -39q-8 0 -11.5 3t-3.5 18l2 4v6q3 49 -29 82t-89 33q-135 0 -287 -170q-150 -170 -150 -324q0 -14 2.5 -30.5t8.5 -33.5q92 84 266 200t405 251q9 33 11 59.5t2 49.5zM1536 883l-29 -19l-131 -73q-57 -216 -229 -390q-86 -86 -168 -128t-166 -42q-98 0 -160 68
q-61 -59 -110.5 -113.5t-83.5 -113.5q45 -41 107 -63.5t134 -22.5q184 0 377 145q72 53 128 116.5t103 135.5q50 72 95 171t92 222q26 74 43 109z" />
    <glyph glyph-name="T" unicode="T" horiz-adv-x="1778" 
d="M978 449q-46 -131 -46 -224q0 -114 66 -180t179 -66h20q-29 39 -46 90q-19 52 -19 102q0 251 230 453q194 180 369 180q163 0 163 -180q0 -110 -67 -234q-66 -126 -178 -230q-75 -69 -175 -122q-104 -54 -204 -80q61 -41 134 -41q68 0 136 29q73 28 143 82q19 13 27 13
q10 0 10 -11q0 -12 -59 -53q-126 -87 -262 -87q-100 0 -176 61q-19 -1 -58 -1q-165 0 -272 112t-107 285q0 177 105 356l22 28q133 187 337 327q46 32 114 71q-79 20 -155.5 48.5t-155.5 38.5q-58 7 -99 7q20 -77 20 -155q0 -114 -37 -213q-39 -100 -110 -193l-26 -29
q-136 -146 -280 -146q-119 0 -157 108q-25 82 -3 163.5t59 153.5q84 139 199 239q116 97 267 150q-65 86 -189 86q-102 0 -205 -66q-106 -68 -189 -182q-8 -12 -17 -12q-10 0 -10 12q0 27 97 128q76 74 160 112q81 36 166 36q138 0 213 -104q49 15 90 20q42 5 90 5
q80 0 207 -29q49 -11 180 -47q71 -21 109 -32q51 20 119 40l61 12q95 19 199 19q56 0 119 -9q56 -10 97 -25q39 -15 64 -37q24 -24 24 -48q0 -65 -121 -102q-112 -39 -287 -39q-87 0 -200 19q-67 10 -158 34q-48 -33 -85 -62q-89 -73 -158 -144q-75 -76 -133 -158
q-42 -70 -82 -137t-69 -142zM935 1144q0 41 -10 77q-126 2 -255 -82q-129 -83 -209 -217l-32 -60q-46 -98 -48 -175q0 -42 9 -68q27 -95 114 -95q97 0 172.5 82.5t131.5 162.5q63 105 97 195q30 92 30 180zM1889 1265q-28 -5 -73 -19l-48 -13q-43 -17 -80 -33l4 -1
q122 -39 226 -56q90 -19 173 -19q63 0 107 15q42 17 42 44q0 31 -81 56q-87 31 -189 31q-44 0 -81 -5zM1851 648q0 56 -30 90q-33 34 -85 34q-160 0 -350 -226q-187 -229 -187 -425q0 -81 44 -137q114 22 223 93q115 75 205 187q88 105 136 206q44 91 44 178z" />
    <glyph glyph-name="U" unicode="U" horiz-adv-x="1990" 
d="M2489 1190q-677 -930 -677 -1188q0 -65 44 -106t113 -41q137 0 234 102q18 18 26 18q15 0 15 -14q0 -10 -68 -65q-96 -72 -215 -72q-121 0 -201 80q-80 86 -80 205q0 69 30 164.5t81 195.5q-96 -131 -175 -225t-138 -152q-78 -72 -144.5 -107.5t-132.5 -35.5
q-94 0 -157 67q-66 66 -66 162q0 101 45 182q43 84 211 297q76 99 128 173.5t81 127.5q57 103 57 191q0 94 -67.5 146.5t-184.5 52.5q-309 0 -587 -273q-281 -276 -281 -569q0 -107 59.5 -168.5t161.5 -61.5q111 0 216.5 71t201.5 202q59 86 91 169t32 150q0 66 -31 105
t-82 39q-125 0 -264 -168q-141 -164 -141 -307q0 -107 80 -107h8q4 2 12 2q10 -6 10 -14q0 -17 -32 -17q-64 0 -102 49.5t-38 127.5q0 71 39 152t111 155q76 76 151.5 116.5t151.5 40.5q160 0 160 -178q0 -100 -49.5 -204.5t-141.5 -208.5q-92 -99 -189.5 -153t-191.5 -54
q-133 0 -223 96q-86 94 -86 240q0 141 77 277t224 263q152 125 315.5 191.5t329.5 66.5q86 0 157 -25.5t121 -73.5t77.5 -115.5t27.5 -149.5q0 -109 -51 -205q-49 -100 -211 -305q-74 -98 -125 -167t-80 -118q-49 -84 -49 -133q0 -104 102 -104q82 0 211 110.5t281 300.5
q119 158 260 364t285 437q2 2 8 2q27 -8 48.5 -11t37.5 -3q82 0 143 18z" />
    <glyph glyph-name="V" unicode="V" horiz-adv-x="1607" 
d="M3146 1403q0 -43 -52 -43q-2 0 -5 1t-7 1h-11t-16 2h3q-31 4 -55.5 6t-45.5 2q-143 0 -298.5 -54t-307.5 -157q-76 -53 -145.5 -108.5t-126.5 -112.5q-107 -106 -476 -524q-280 -318 -596 -486l-18 -10l-18 -10q-9 -4 -11 -4q-2 -2 -4 -2q-14 0 -14 14q0 8 16 25
q76 86 148.5 214t138.5 302q135 344 135 573q0 293 -221 293q-254 0 -508 -278q-256 -285 -256 -555q0 -113 65.5 -183.5t170.5 -70.5q204 0 385 217q90 110 135 209.5t45 195.5q0 156 -137 156q-140 0 -271 -174q-141 -189 -141 -334q0 -107 96 -111q2 2 6 2q15 0 15 -14
q0 -16 -27 -16q-72 0 -114 53t-42 141q0 164 158 322q154 162 318 162q170 0 170 -187q0 -198 -191 -426q-192 -229 -418 -229q-131 0 -223 92q-90 92 -90 233q0 312 303 578q283 250 551 250q180 0 305 -119q64 -61 94.5 -132t30.5 -157q0 -209 -149 -471
q-68 -117 -165.5 -240.5t-215.5 -242.5q178 113 272 201q64 63 187.5 199t297.5 335q138 158 290.5 287t326.5 231q354 205 604 205q109 0 109 -51z" />
    <glyph glyph-name="W" unicode="W" horiz-adv-x="2062" 
d="M3672 1427q0 -41 -49 -41q-17 0 -36.5 2.5t-47.5 6.5q-25 4 -45.5 6t-32.5 2q-199 0 -420 -111q-203 -100 -348 -223q-72 -61 -183.5 -176t-252.5 -272q-97 -105 -188 -200t-173 -175t-152.5 -142.5t-125.5 -103.5q-54 -41 -97 -65.5t-59 -24.5q-12 0 -12 10q0 8 18 21
q62 45 124.5 158.5t127.5 279.5q70 186 131.5 327.5t108.5 221.5q41 65 96 137t127 143q-31 -26 -58.5 -53t-54.5 -57q-41 -43 -129 -146.5t-221 -267.5q-184 -223 -361.5 -387t-355.5 -268q-143 -84 -161 -84q-11 2 -11 12q0 2 6.5 9t14.5 16q88 81 180 214.5t180 315.5
q182 371 182 586q0 127 -62 196.5t-175 69.5q-250 0 -508 -281q-254 -280 -254 -555q0 -114 64.5 -184t171.5 -70q174 0 333 160q48 47 92 108.5t72 121.5q64 133 64 235q0 158 -133 158q-129 0 -271 -176q-141 -172 -141 -334q0 -111 92 -111h8q17 0 17 -14q0 -16 -27 -16
q-70 0 -113 56t-43 142q0 166 156 322q158 157 322 157q166 0 166 -188q0 -53 -17.5 -114.5t-50.5 -127.5q-31 -63 -75 -125.5t-97 -115.5q-170 -170 -359 -170q-145 0 -232 95t-87 251q0 289 285 547q133 122 284 190q156 72 281 72q178 0 305 -119q127 -121 127 -291
q0 -100 -47 -221t-133 -248q-78 -117 -192.5 -239.5t-252.5 -237.5q291 170 725 678q136 160 232 266.5t149 159.5q60 59 121.5 107t128.5 89l25 15l10 4q12 0 12 -12q0 -9 -10 -19q-49 -51 -103.5 -150.5t-105.5 -234.5q-78 -213 -146.5 -368.5t-121.5 -239.5
q-41 -66 -99.5 -136.5t-132.5 -138.5q25 19 48.5 39.5t44.5 36.5q41 41 106.5 110.5t147.5 162.5q133 153 235 264.5t158 169.5q59 59 121.5 116.5t128.5 110.5q512 404 915 404q119 0 119 -48z" />
    <glyph glyph-name="X" unicode="X" horiz-adv-x="2117" 
d="M2650 1171q0 -16 -6.5 -34.5t-15.5 -35t-18.5 -27.5t-17.5 -11q-14 0 -14 16q0 2 5 8.5t11 16.5q10 14 16.5 33.5t6.5 38.5q0 53 -44 91t-110 38q-145 0 -355 -140.5t-484 -421.5q-54 -159 -85.5 -260.5t-46.5 -148.5q-24 -92 -24 -168q0 -82 45 -132t119 -50
q151 0 344 209q188 210 188 382q0 72 -41 114t-112 42q-78 0 -185 -69q-53 -35 -99 -77t-81 -89q-16 -23 -25 -23q-14 0 -14 14q0 17 34 55t93 87q72 63 145.5 99t139.5 36q92 0 152.5 -55.5t60.5 -141.5q0 -213 -207 -415q-105 -101 -209 -151t-215 -50q-72 0 -129 22.5
t-97 63.5t-62.5 98.5t-22.5 126.5q0 45 12 106.5t35 139.5q-123 -148 -232.5 -253t-208.5 -173q-200 -145 -389 -145q-67 0 -125.5 20t-99.5 56t-64.5 86.5t-23.5 109.5q0 100 61.5 193.5t167.5 154.5q-4 16 -5 34.5t-1 35.5q0 260 289 499q289 240 604 240
q78 0 146.5 -25.5t117.5 -66.5q107 -90 107 -236q0 -51 -10.5 -108.5t-30.5 -126.5q131 147 240.5 252.5t205 173t177 99.5t155.5 32q47 0 89 -14.5t74 -39t50.5 -59.5t18.5 -76zM1519 1139q0 196 -215 196q-72 0 -155 -25.5t-175 -76.5q-88 -53 -166.5 -117.5
t-140.5 -136.5q-76 -96 -119 -194.5t-49 -192.5q33 10 58.5 13t48.5 3q24 0 24 -12q0 -14 -24 -16q-23 -2 -53.5 -8.5t-53.5 -12.5q25 -213 236 -213q200 0 389 209q188 201 188 381q0 141 -133 141q-137 0 -293 -168q-151 -164 -151 -313q0 -94 82 -100q18 0 18 -15
q0 -14 -20 -14q-60 0 -101 48t-41 122q0 78 44 159t120 154q82 76 166 116t166 40q174 0 174 -166q0 -84 -40 -175t-116 -185q-104 -129 -222 -197t-241 -68q-227 0 -292 211q-93 -53 -149 -140t-56 -177q0 -96 66.5 -159.5t168.5 -63.5q232 0 588 301q55 47 132 117.5
t175 168.5q78 201 120 347.5t42 218.5z" />
    <glyph glyph-name="Y" unicode="Y" horiz-adv-x="1845" 
d="M2349 1094q0 -13 -23 -31q-88 -72 -169 -164t-146 -192q-60 -105 -137.5 -268t-163.5 -367q28 -54 44.5 -108t16.5 -107q0 -105 -53 -204t-148 -169q-26 -19 -55 -35t-63 -33q-74 -30 -105 -30q-14 0 -14 12t31 18q159 33 268 164q108 121 108 277q0 88 -47 180
q-59 -133 -132 -233.5t-161 -168.5q-65 -47 -148 -91t-165 -72q-180 -64 -340 -64q-96 0 -174 23.5t-132 67.5t-84 105.5t-30 139.5q0 195 172 342q86 74 199 126t258 81q10 41 25.5 73.5t31.5 65.5q21 31 56.5 78t89.5 111q170 204 233 315q66 115 66 209q0 205 -269 205
q-305 0 -602 -267q-297 -268 -297 -536q0 -107 69 -171.5t179 -64.5q199 0 400 199q204 205 204 391q0 64 -37.5 103.5t-97.5 39.5q-145 0 -301 -172q-160 -165 -160 -315q0 -86 93 -94q14 0 14 -10q0 -15 -19 -15q-63 0 -99 47t-36 125q0 178 156 320q158 145 348 145
q78 0 123 -47t45 -125q0 -213 -250 -444q-98 -88 -193.5 -132t-197.5 -44q-66 0 -121 24.5t-95 68.5t-61.5 104.5t-21.5 131.5q0 187 120 350.5t341 280.5q268 137 506 137q88 0 160.5 -24.5t124 -70.5t79 -110.5t27.5 -144.5q0 -59 -17.5 -117.5t-48.5 -115.5
q-30 -60 -92.5 -145t-148.5 -185q-23 -29 -52.5 -65.5t-72.5 -92.5q215 0 354 -63q47 49 139 161.5t234 294.5q106 138 250 275q73 72 121.5 104.5t68.5 32.5q25 0 25 -20zM1765 510q-27 -33 -51.5 -65.5t-46.5 -63.5q-27 -33 -57.5 -69t-71.5 -83q22 -12 36 -22q5 4 8 11
t5 11q20 41 37.5 69t40.5 62l24 33zM1179 27q103 0 309 196q-131 60 -350 60q-57 -90 -57 -148q0 -108 98 -108zM1187 -330q86 86 179.5 214t193.5 298q-8 8 -19.5 13.5t-25.5 13.5q-209 -211 -354 -211q-94 0 -153.5 61.5t-59.5 153.5q1 26 4 43q-127 -39 -222.5 -95.5
t-166.5 -129.5q-146 -156 -146 -344q0 -117 82 -181.5t232 -64.5q221 0 456 229z" />
    <glyph glyph-name="Z" unicode="Z" horiz-adv-x="1486" 
d="M2113 1221q0 -68 -131 -179q-131 -112 -232 -139l-20 -37q-10 -16 -24.5 -45.5t-34.5 -72.5q-56 -121 -119.5 -210t-126.5 -141q-60 -43 -165.5 -87t-242.5 -83q68 -8 129.5 -33.5t110.5 -68.5q55 -47 86 -110.5t35 -135.5q37 -49 57.5 -104.5t20.5 -118.5
q0 -92 -47.5 -175t-139.5 -155q-24 -18 -55 -36.5t-64 -34.5q-69 -35 -96 -35q-16 0 -16 14q0 8 22 18q45 9 117 52q72 39 117 84q131 129 131 274q0 84 -47 170q-17 -123 -76 -211t-174 -164q-244 -157 -588 -157q-205 0 -342 100q-131 100 -131 256q0 201 195 334
q196 129 503 129q226 0 426 -92q-53 151 -237 184q-51 -23 -106.5 -35t-114.5 -12q-37 0 -37 20q0 21 48 35t111 14h95q59 23 116.5 60t104.5 84q53 51 166.5 177t294.5 337q-224 0 -238 242q-6 112 -47 155t-139 43q-248 0 -512 -233q-262 -232 -262 -453
q0 -102 76.5 -165.5t199.5 -63.5q182 0 371 166q188 163 188 323q0 53 -39 94t-92 41q-135 0 -299 -145q-164 -141 -164 -260q0 -51 49 -72q23 -12 23 -20l-2 -4q-6 -7 -10 -7q-39 0 -72 46q-35 43 -35 92q0 151 150 274q73 60 157 93.5t172 33.5q191 0 191 -168
q0 -84 -52.5 -171t-150.5 -173q-94 -80 -192.5 -125t-194.5 -45q-78 0 -142.5 24.5t-110.5 67.5t-71.5 103.5t-25.5 132.5q0 90 34.5 171t104.5 161q141 157 383 247q92 35 176 52.5t158 17.5q328 0 338 -289q4 -80 18 -112q23 -43 86 -50q80 89 140.5 148t93.5 88
q135 106 184 106q39 0 39 -36zM2082 1214q0 13 -12 13q-53 0 -145 -92q-43 -43 -81 -89.5t-73 -105.5q94 43 199 133q53 47 82.5 83t29.5 58zM1202 -14q-152 92 -375 92q-271 0 -475 -146q-203 -145 -203 -333q0 -119 102 -193q107 -76 262 -76q107 0 265 76q77 39 143 88
t125 109q156 159 156 354v29z" />
    <glyph glyph-name="bracketleft" unicode="[" horiz-adv-x="940" 
d="M1438 1430q0 -15 -23 -19q-6 -2 -22.5 -2h-38.5q-15 0 -28 -1t-32 -1l-860 -1522q125 0 125 -14q0 -23 -51 -23h-107q-28 2 -52 2h-40h-80q-10 0 -6 9l895 1579q0 4 6 4h60h49.5t70.5 2q39 2 59.5 2h24.5h19q31 0 31 -16z" />
    <glyph glyph-name="backslash" unicode="\" horiz-adv-x="712" 
d="M1246 1047q0 -89 -57.5 -169.5t-173.5 -152.5q-224 -143 -523 -156l-164 -286q-57 -95 -97 -169.5t-66 -129.5q-4 -4 -9 -4q-34 10 -73 10q-25 0 -51.5 -3t-55.5 -7q-10 0 -6 8q59 110 143 256.5t195 341.5q-139 22 -219 90.5t-80 165.5q0 141 154 245q153 105 360 105
q158 0 272 -70q93 52 162.5 75.5t122.5 23.5q72 0 119 -49.5t47 -124.5zM904 328q0 -21 -147 -205q-117 -146 -228 -146q-65 0 -110 39t-45 97q0 32 28 96q33 57 33 82q0 4 1 2t-1 2q-31 -12 -51 -12q-43 0 -43 26q0 23 35 23q24 0 55 -8q29 16 66.5 54t78.5 87
q31 37 65 59.5t62 22.5q84 0 84 -90q0 -29 -10 -55.5t-26.5 -49t-38 -36t-44.5 -13.5q-67 0 -67 70q0 61 70 92q38 14 38 27q0 16 -22 16q-41 0 -96 -68q-37 -45 -70 -76.5t-55 -48.5q121 -39 121 -116q0 -13 -5.5 -33.5t-11.5 -42.5q0 -2 -1 -4t-1 -4q-16 -60 -16 -74
q0 -27 28 -27q19 0 48.5 22.5t67.5 62.5t80 94.5t85 117.5q14 27 31 27q12 0 12 -10zM1170 1094q0 102 -94 102q-106 0 -238 -123q21 -24 31 -53t10 -66q0 -22 -8 -53t-24 -61q-17 -33 -33.5 -51.5t-32.5 -14.5q-8 4 -2 10l6 11q70 69 70 153q0 68 -33 107
q-53 -51 -123 -162q-47 -72 -90 -138.5t-86 -138.5l-18 -22q243 12 452 174q213 166 213 326zM777 1104l-8 4l8 4v-8zM320 604q211 359 449 504q-68 43 -176 43q-84 0 -161 -29.5t-149 -85.5q-65 -59 -101 -123.5t-36 -134.5q0 -147 174 -174z" />
    <glyph glyph-name="bracketright" unicode="]" horiz-adv-x="940" 
d="M459 -145q0 -5 -7 -5q-14 3 -29.5 3h-31.5h-60.5t-64.5 -3q-27 -2 -50.5 -2h-29.5h-20q-31 0 -31 17q0 14 23 18q8 2 24 2h41q12 0 25.5 1t31.5 1l861 1520h-15q-10 2 -19 2h-16l-47 -2q-28 0 -28 14q0 25 49 25h55t62 -2q18 0 45.5 -1t37.5 -1h42.5t35.5 2q11 0 6 -8z
" />
    <glyph glyph-name="asciicircum" unicode="^" horiz-adv-x="722" 
d="M755 354l-60 -104v2l-76 -135q-39 -68 -62.5 -113t-39.5 -74q145 -24 224 -93.5t79 -162.5q0 -139 -158 -249q-161 -109 -360 -109q-158 0 -266 66q-92 -54 -162 -79.5t-123 -25.5q-78 0 -125 48t-47 126q0 90 60.5 173t170.5 155q111 74 242 114.5t272 49.5l111 202
q-131 -168 -240 -168q-57 0 -96 41t-39 101q0 67 70 182v-2l76 131l28 51l35 60q4 4 8 4q35 -8 93 -8q22 0 46.5 2t47.5 6q4 2 7 -2t1 -8l-152 -256q-57 -97 -91 -161.5t-34 -80.5q0 -25 27 -25q131 0 436 529q4 4 8 4q35 -8 78 -8q23 0 51.5 2t63.5 6q10 0 6 -10zM683 -262
q0 137 -178 172q-60 -98 -113 -177t-106 -141q-48 -53 -103 -102t-117 -90q68 -43 164 -43q168 0 310 119q143 118 143 262zM310 -82q-223 -8 -438 -174t-215 -340q0 -45 25.5 -73.5t66.5 -28.5q100 0 240 129q-43 45 -43 120q0 23 8 52.5t22 58.5q33 70 54 70q12 0 12 -11
q0 -4 -2 -7l-6 -9q-64 -76 -64 -149q0 -62 35 -107q47 49 119.5 159.5t173.5 291.5z" />
    <glyph glyph-name="underscore" unicode="_" horiz-adv-x="692" 
d="M1249 1087q0 -90 -60.5 -173t-170.5 -154q-111 -74 -242 -116t-272 -48q-17 -29 -26 -45t-16.5 -29.5t-17.5 -29t-26 -46.5q40 48 86.5 75.5t85.5 27.5q36 0 67 -14.5t53.5 -39t36 -58.5t13.5 -70q0 -131 -154 -261q-154 -129 -299 -129q-86 0 -143.5 53.5t-57.5 135.5
q0 59 47 158l9 14q10 16 27.5 50t43.5 79l82 141q-141 23 -222 92.5t-81 163.5q0 144 156 248q155 111 362 111q158 0 260 -68q90 49 163 78t124 29q78 0 125 -48.5t47 -126.5zM1171 1133q0 47 -25.5 75.5t-66.5 28.5q-104 0 -240 -129q43 -51 43 -121q0 -49 -30 -113
q-35 -67 -58 -67q-12 0 -12 10q0 8 8 17q68 61 68 151q0 64 -35 105q-47 -50 -121 -163.5t-172 -287.5l-12 -21q225 13 436 175q217 170 217 340zM774 1135l-10 6l10 6v-12zM596 991q49 53 92 90t76 60q-66 41 -160 41q-166 0 -311 -117q-140 -117 -140 -262
q0 -146 176 -176q17 26 34.5 55t33.5 55l31 45h-2q32 47 74 100.5t96 108.5zM616 475q0 47 -45 47q-39 0 -92 -48t-113 -138q-63 -94 -99 -168t-36 -109q0 -22 14.5 -38.5t34.5 -16.5q68 0 201 189q135 186 135 282z" />
    <glyph glyph-name="grave" unicode="`" 
d="M1669 1055q0 -181 -234 -322q-112 -71 -244 -111t-280 -49l-108 -192q-29 -47 -73 -120t-100 -171q-20 -33 -20 -49q0 -29 35 -29q49 0 126 79t171 220q8 11 16 19t17 8q10 -6 10 -12q0 -19 -148 -203q-123 -146 -219 -146q-59 0 -96 41t-37 103q0 16 6 35
q-123 -179 -225 -179q-70 0 -119 54.5t-49 132.5q0 65 38 127.5t116 128.5q155 129 303 129q94 0 94 -78q0 -6 2 -6q-2 0 -2 -4q20 35 36.5 65.5t37.5 65.5q-136 20 -215.5 91t-79.5 165q0 67 41 129.5t112 116.5q160 106 357 106q176 0 274 -72q88 52 158.5 75.5
t132.5 23.5q72 0 119 -49.5t47 -122.5zM1589 1108q0 41 -26.5 67.5t-67.5 26.5q-113 0 -236 -123q39 -47 39 -118q0 -50 -33 -113q-16 -33 -31.5 -50.5t-31.5 -13.5q-4 0 -4 7q0 8 8 16q68 72 68 149q0 64 -31 105q-131 -141 -307 -447l-11 -14q115 2 225.5 44t219.5 122
q219 164 219 342zM1200 1110l-8 4l8 6v-10zM972 932q48 51 104 98t116 84q-72 47 -176 47q-164 0 -310 -117q-139 -116 -139 -258q0 -139 170 -176q68 105 125 184.5t110 137.5zM622 469q0 49 -43 49q-65 0 -205 -186q-133 -182 -133 -277q0 -45 41 -45t91.5 48t111.5 139
q66 100 101.5 170.5t35.5 101.5zM1156 763q-5 -9 -10 -9h-521q-6 0 -1 9l13 24q4 10 10 10h521q5 0 1 -10z" />
    <glyph glyph-name="a" unicode="a" 
d="M985 328q0 -19 -148 -205q-120 -146 -217 -146q-59 0 -98 41t-39 101q0 8 1 16t3 19q-57 -86 -114.5 -131.5t-110.5 -45.5q-35 0 -64.5 14.5t-52 40t-36 59.5t-13.5 73q0 127 154 256q75 57 156 93t151 36q90 0 90 -74q0 -12 -2 -16l49 84q2 2 6 2q35 -8 76 -8q16 0 45 2
t70 6q10 0 6 -10l-133 -222q-154 -256 -154 -272q0 -29 35 -29q98 0 299 299h-2q14 27 31 27q12 0 12 -10zM620 471q0 47 -41 47q-71 0 -207 -182q-133 -182 -133 -279q0 -47 39 -47q82 0 209 195q133 207 133 266z" />
    <glyph glyph-name="b" unicode="b" horiz-adv-x="692" 
d="M419 444q41 41 88.5 73t81.5 32q70 0 120 -53.5t50 -128.5q0 -125 -151 -261q-78 -63 -152 -96t-149 -33q-88 0 -144.5 53.5t-56.5 135.5q0 88 115 280l364 619q2 2 8 2q41 -14 91 -14q34 0 92 10q12 0 8 -10zM614 473q0 49 -43 49q-41 0 -91 -48t-116 -138
q-61 -92 -98 -165t-37 -110q0 -57 51 -57q33 0 83 48t116 138q63 91 99 163.5t36 119.5z" />
    <glyph glyph-name="c" unicode="c" horiz-adv-x="575" 
d="M763 328q0 -27 -139 -185q-151 -166 -295 -166q-47 0 -88 15.5t-70.5 42t-47 63.5t-17.5 80q0 127 147 248q72 59 148 91t149 32q101 0 101 -115q0 -35 -10.5 -67.5t-32.5 -65.5q-41 -59 -92 -59q-68 0 -68 67q0 90 115 127q45 15 45 41q0 43 -43 43q-31 0 -82 -49
t-107 -121q-55 -80 -86.5 -148.5t-31.5 -113.5q0 -78 98 -78q80 0 176 83t188 218q9 11 17 19t16 8q10 0 10 -10z" />
    <glyph glyph-name="d" unicode="d" horiz-adv-x="794" 
d="M805 385l-105 -176v2l-59 -105q-33 -53 -33 -67q0 -27 35 -27q96 0 297 299h-2q14 27 30 27q13 0 13 -10q0 -21 -148 -205q-116 -146 -217 -146q-57 0 -95 40t-38 102v17t4 20q-121 -179 -223 -179q-70 0 -119 54.5t-49 132.5q0 65 38 127.5t116 128.5q155 129 305 129
q92 0 92 -80q0 -6 2 -4q-2 -2 -2 -6l367 612q2 2 8 2q37 -10 75 -10q15 0 44.5 4t72.5 12q12 0 8 -10zM620 469q0 49 -41 49q-69 0 -204 -184q-134 -178 -134 -279q0 -45 39 -45q41 0 92.5 48t110.5 139q66 100 101.5 170.5t35.5 101.5z" />
    <glyph glyph-name="e" unicode="e" horiz-adv-x="581" 
d="M772 328q0 -4 -14.5 -26.5t-37.5 -51.5q-22 -31 -43.5 -56.5t-38.5 -46.5q-165 -170 -305 -170q-98 0 -162.5 57.5t-64.5 143.5q0 129 145 248q148 123 301 123q54 0 88.5 -25.5t34.5 -64.5q0 -135 -368 -215q-23 -41 -36 -82t-13 -76q0 -80 90 -80q182 0 383 305h-2
q14 27 30 27q13 0 13 -10zM571 500q0 24 -29 24q-43 0 -97 -61.5t-126 -190.5q57 17 101 40.5t73 52.5q78 77 78 135z" />
    <glyph glyph-name="f" unicode="f" horiz-adv-x="356" 
d="M1037 1143q0 -129 -154 -295q-71 -78 -165.5 -154t-207.5 -141h138q10 0 6 -8l-8 -15q0 -4 -6 -4h-158q-51 -92 -101.5 -180t-101.5 -180q-104 -189 -215 -326t-215 -219q-190 -143 -358 -143q-41 0 -76 13t-35 30q0 18 20 18q11 0 25 -8h-2q45 -23 100 -23
q66 0 124.5 33t117.5 97q45 51 84 120q20 33 70.5 122t132.5 241l221 405h-105q-10 0 -6 9l9 14q0 4 6 4h110l43 74q109 186 225.5 319t239.5 207q113 68 174 68q68 0 68 -78zM1006 1163q0 31 -27 31q-129 0 -382 -463q-25 -45 -41.5 -76.5t-38.5 -68.5q145 84 311 276
q178 209 178 301z" />
    <glyph glyph-name="g" unicode="g" 
d="M981 328q0 -11 -29.5 -49.5t-82.5 -100.5q-131 -145 -307 -211q-56 -92 -106 -171t-85 -126q-33 -43 -75 -88t-89 -90q-53 -47 -108.5 -85t-116.5 -69q-127 -61 -215 -61q-72 0 -119 52.5t-47 131.5q0 185 244 324q65 39 198 80t310 78l73 137q-82 -103 -163 -103
q-72 0 -121 55.5t-49 133.5t49 149.5t143 135.5q74 47 142.5 72.5t127.5 25.5q86 0 86 -76q0 -12 -2 -18l52 88q2 2 8 2q35 -8 71 -8q23 0 50.5 2t62.5 6q10 0 6 -10l-110 -181q-23 -39 -58 -99t-78 -138l-63 -115q104 41 190 116t166 189q25 31 35 31t10 -10zM617 471
q0 47 -43 47q-68 0 -205 -186q-135 -182 -135 -281q0 -41 41 -41q43 0 98 54.5t121 154.5q59 92 91 156.5t32 95.5zM338 -86q-143 -29 -256.5 -80t-206.5 -123q-190 -147 -190 -305q0 -104 92 -104q115 0 230 118q55 60 127.5 163.5t158.5 254.5z" />
    <glyph glyph-name="h" unicode="h" horiz-adv-x="753" 
d="M943 328q0 -19 -148 -205q-121 -146 -217 -146q-31 0 -57.5 12.5t-46 33t-31.5 47t-12 55.5q0 47 20 86q15 27 48.5 81t92.5 142q31 45 31 62q0 24 -24 24q-76 0 -205 -164q-129 -161 -219 -374q-4 -5 -8 -5q-17 5 -35.5 8t-42.5 3q-21 0 -47.5 -3t-61.5 -8q-6 0 -6 9
l182 329l123 213l311 541q5 4 9 4q43 -12 82 -12q16 0 44.5 4t69.5 12q4 2 7 -2t1 -8l-73 -123q-25 -37 -61 -94t-83 -135l-182 -301q117 135 207 135q61 0 102 -43t41 -107q0 -22 -19.5 -65t-53.5 -101l-50 -79l-43 -66h2q-22 -33 -22 -47q0 -29 33 -29q100 0 301 299h-2
q14 27 30 27q13 0 13 -10z" />
    <glyph glyph-name="i" unicode="i" horiz-adv-x="391" 
d="M644 815q0 -31 -15.5 -59.5t-43.5 -61.5q-62 -61 -123 -61q-68 0 -68 69q0 29 17.5 60t44.5 59q28 29 61 46.5t62 17.5q65 0 65 -70zM581 328q0 -13 -37 -63t-109 -142q-121 -146 -221 -146q-57 0 -95 42t-38 102q0 78 66 184l145 246q2 2 8 2q37 -10 86 -10q23 0 48.5 3
t56.5 7q10 0 6 -10l-238 -406q-49 -80 -49 -96q0 -29 33 -29q96 0 297 299h-2q14 27 30 27q13 0 13 -10z" />
    <glyph glyph-name="j" unicode="j" horiz-adv-x="393" 
d="M640 809q0 -31 -16.5 -60.5t-45.5 -62.5q-59 -61 -121 -61q-67 0 -67 69q0 60 59 119q64 64 123 64q68 0 68 -68zM580 328q0 -31 -108 -150q-66 -74 -147 -128t-165 -83q-67 -117 -113 -194.5t-77 -118.5q-29 -37 -69 -80t-87 -86q-53 -47 -112.5 -87t-118.5 -69
q-123 -63 -211 -63q-70 0 -117 53t-47 133q0 244 375 389q53 21 145 45.5t221 53.5l113 202q53 95 111.5 197t115.5 201q2 2 9 2q30 -8 71 -8q29 0 57.5 2t57.5 6q10 0 6 -10l-106 -181q-35 -59 -69 -116.5t-69 -120.5q-22 -41 -34.5 -65.5t-28.5 -47.5q201 88 358 307
q21 27 27 27q12 0 12 -10zM-65 -86q-141 -33 -254 -84t-192 -111q-93 -73 -145 -155t-52 -160q0 -109 92 -109q55 0 113.5 33t113.5 88q54 60 124.5 165.5t156.5 258.5z" />
    <glyph glyph-name="k" unicode="k" horiz-adv-x="712" 
d="M542 649q-132 -217 -229 -385t-150 -280q-4 -4 -9 -4q-36 10 -75 10q-25 0 -50.5 -3t-54.5 -7q-10 0 -6 8q53 94 137 245.5t205 362.5l277 473q6 6 8 4q37 -14 82 -14q47 0 114 18q4 2 7.5 -2t1.5 -8zM902 328q0 -23 -145 -205q-123 -146 -230 -146q-65 0 -110 39t-45 97
q0 34 30 96q33 57 33 82q0 4 1 1t-1 1q-27 -10 -55 -10q-41 0 -41 26q0 23 35 23q22 0 57 -8q55 32 145 141q31 37 65 59.5t62 22.5q84 0 84 -90q0 -29 -10 -55.5t-27.5 -49t-39 -36t-44.5 -13.5q-65 0 -65 70q0 59 68 92q38 14 38 27q0 16 -22 16q-31 0 -74 -43
q-16 -19 -31.5 -36t-31.5 -36q-45 -51 -82 -78q121 -41 121 -114q0 -25 -19 -86q-18 -60 -18 -74q0 -27 30 -27q19 0 48.5 22.5t67.5 62.5t80 94.5t83 117.5q14 27 31 27q12 0 12 -10z" />
    <glyph glyph-name="l" unicode="l" horiz-adv-x="380" 
d="M237 119q-39 -60 -39 -80q0 -27 33 -27q98 0 299 299h-2q20 31 39 23q4 0 4 -6q0 -13 -37 -63t-109 -142q-121 -146 -217 -146q-57 0 -97 42t-40 100q0 49 27 102q16 33 49 92.5t82 137.5l92 155l274 465q2 2 8 2q43 -12 84 -12q29 0 103 12q10 0 6 -10z" />
    <glyph glyph-name="m" unicode="m" horiz-adv-x="1312" 
d="M1494 328q0 -21 -149 -205q-117 -146 -215 -146q-31 0 -57.5 12.5t-46 33t-32 47t-12.5 55.5q0 43 21 82q16 39 145 233q27 47 27 56q0 24 -25 24q-37 0 -85 -37t-104.5 -106.5t-118.5 -168.5t-128 -222q-4 -4 -8 -4q-45 10 -86 10q-21 0 -47.5 -3t-61.5 -7q-12 0 -6 10
l74 119q94 155 151.5 258.5t57.5 119.5q0 23 -25 23q-65 0 -196 -154q-127 -155 -238 -372q-4 -4 -8 -4q-27 8 -84 8q-23 0 -50.5 -2t-58.5 -6q-12 0 -6 10l227 385v-2q54 90 54 117q0 22 -23 22q-55 0 -198 -215v2q-11 -16 -23 -16q-10 2 -10 12q0 18 106 149
q80 103 152 103q53 0 90 -39t37 -94q0 -37 -15 -74q156 207 273 207q53 0 90 -39t37 -96q0 -23 -10 -58q141 193 256 193q59 0 100 -43t41 -105q0 -43 -19 -82q-8 -16 -31.5 -52t-60.5 -93q-37 -59 -56 -91t-19 -42q0 -29 32 -29q101 0 301 299h-2q15 27 31 27q12 0 12 -10z
" />
    <glyph glyph-name="n" unicode="n" horiz-adv-x="925" 
d="M1109 328q0 -27 -145 -205q-121 -146 -221 -146q-60 0 -103 44.5t-43 103.5q0 61 72 164q59 92 91 143t32 62q0 26 -29 26q-88 0 -250 -229q-34 -47 -79.5 -125t-102.5 -184q-4 -5 -8 -5q-37 11 -84 11q-25 0 -53.5 -3t-59.5 -8q-12 0 -6 11l131 219q150 248 150 282
q0 25 -23 25q-51 0 -198 -215q-11 -14 -21 -14q-10 2 -10 12q0 16 104 149q80 103 152 103q53 0 91 -39t38 -94q0 -39 -12 -72q8 12 16 23.5t16 21.5q47 68 111.5 114t114.5 46q63 0 102 -43t39 -109q0 -55 -31 -112v2l-6 -8q-6 -11 -20.5 -31.5t-38.5 -54.5
q-17 -25 -32 -49.5t-28.5 -46t-21.5 -37t-8 -19.5q0 -29 36 -29q97 0 299 299h-2q13 27 31 27q10 0 10 -10z" />
    <glyph glyph-name="o" unicode="o" horiz-adv-x="618" 
d="M809 328q0 -11 -17.5 -34.5t-48.5 -55.5q-41 -45 -79 -70t-72 -25q-29 0 -54 13q-135 -179 -260 -179q-78 0 -130 54.5t-52 136.5q0 131 154 254q155 127 309 127q106 0 106 -98q0 -58 -26.5 -124.5t-85.5 -148.5q10 -4 17 -7t18 -3q77 0 180 143h-2q14 27 30 27
q13 0 13 -10zM641 446q0 72 -66 72q-76 0 -203 -180q-133 -193 -133 -275q0 -53 60 -53q98 0 219 162q-33 35 -33 84q0 59 41 119q41 59 86 59q4 0 13.5 -3t13.5 -5q2 8 2 20z" />
    <glyph glyph-name="p" unicode="p" horiz-adv-x="679" 
d="M750 362q0 -129 -156 -258q-155 -127 -309 -127q-86 0 -86 78q0 11 -3 8.5t-5 -6.5l8 17q-100 -176 -200.5 -351.5t-198.5 -349.5q-4 -4 -8 -4q-47 13 -88 13q-21 0 -78 -7l-21 -2q-12 0 -6 11l432 720v-2q103 179 204 354t202 351q4 4 8 4q31 -10 76 -10q16 0 39.5 3
t58.5 7q10 0 6 -8l-205 -354q88 100 164 100q70 0 118 -55.5t48 -131.5zM609 471q0 47 -43 47q-35 0 -84 -45t-105 -121q-73 -108 -112 -182t-39 -111q0 -49 39 -49q82 0 237 230q107 159 107 231z" />
    <glyph glyph-name="q" unicode="q" horiz-adv-x="751" 
d="M893 535q-66 -109 -126.5 -209.5t-113.5 -194.5l-438 -754q-2 -2 -8 -2q-41 13 -82 13t-103 -13q-4 -2 -7 2.5t-1 8.5l414 694q-90 -98 -164 -98q-72 0 -119 53t-47 131q0 133 154 256q155 127 307 127q88 0 88 -74q0 -12 -2 -18l49 86q2 2 8 2q25 -4 46.5 -6t39.5 -2
q8 0 31.5 2t66.5 6zM620 471q0 47 -43 47q-65 0 -205 -186q-65 -92 -100 -162t-35 -117q0 -45 41 -45t95.5 53.5t119.5 153.5q60 92 93.5 157.5t33.5 98.5z" />
    <glyph glyph-name="r" unicode="r" horiz-adv-x="677" 
d="M863 328q0 -11 -17 -36.5t-58 -66.5q-78 -84 -146 -84q-53 0 -81.5 31t-32.5 98q-109 -108 -197 -288q-4 -5 -8 -5q-37 11 -90 11q-31 0 -56.5 -3t-48.5 -8q-4 -2 -7 2.5t-1 8.5l139 233q68 115 106 183.5t38 84.5q0 25 -25 25q-55 0 -199 -215q-10 -14 -18 -14
q-10 2 -10 12q0 25 104 149q84 103 152 103q57 0 90 -38t33 -99q0 -68 -37 -144l2 2l35 39q12 47 33.5 90t50 77t61.5 53.5t66 19.5q47 0 47 -41q0 -23 -43 -62.5t-119 -95.5l-72 -55q-2 -6 -2 -14.5v-14.5q0 -41 24.5 -69.5t63.5 -28.5q82 0 185 143h-2q14 27 28 27
q12 0 12 -10z" />
    <glyph glyph-name="s" unicode="s" horiz-adv-x="471" 
d="M540 698q0 -32 -118 -149l-13 -12q2 -41 19.5 -94.5t52.5 -110.5q37 -66 37 -113q0 -102 -98 -170q-95 -69 -236 -69q-170 0 -170 147q0 78 51 145q53 70 115 70q8 0 13 -1t11 -3l187 209q4 76 38 131t77 55q34 0 34 -35zM227 326q27 -29 27 -58q0 -90 -117 -102
q-88 -12 -88 -70q0 -30 25.5 -54t60.5 -24q98 0 186 175q39 79 55 264l9 47z" />
    <glyph glyph-name="t" unicode="t" horiz-adv-x="403" 
d="M624 553q10 0 6 -8l-8 -15q0 -4 -7 -4h-124q-60 -102 -126.5 -213.5t-125.5 -214.5q-27 -41 -27 -59q0 -29 31 -29q108 0 311 301h-2q20 31 39 23q4 0 4 -6q0 -23 -150 -205q-120 -146 -215 -146q-63 0 -105 42t-42 104q0 31 17.5 79t56.5 109l127 215h-88q-11 0 -7 9
l9 14q0 4 6 4h94l117 192q4 5 8 3q29 -15 76 -15q18 0 45.5 3t62.5 12q4 2 7.5 -2.5t0.5 -8.5l-108 -184h117z" />
    <glyph glyph-name="u" unicode="u" horiz-adv-x="765" 
d="M954 328q0 -19 -148 -205q-120 -146 -217 -146q-59 0 -99 43t-40 103q0 10 2 22.5t6 24.5q-147 -193 -260 -193q-55 0 -94 41t-39 101q0 69 70 182l77 131v-2l7 12q4 9 11 20t11 19l12 21l-2 -2l23 41q4 4 8 4q21 -4 44.5 -6t47.5 -2q23 0 47.5 2t49.5 6q4 2 7 -2t1 -8
l-152 -259q-57 -98 -92 -161.5t-35 -77.5q0 -25 29 -25q135 0 434 529q4 4 8 4q27 -8 84 -8q23 0 49.5 2t57.5 6q10 0 6 -10l-119 -195q-84 -137 -126 -211t-42 -90q0 -27 33 -27q98 0 299 299h-2q14 27 31 27q12 0 12 -10z" />
    <glyph glyph-name="v" unicode="v" horiz-adv-x="608" 
d="M798 328q0 -25 -71 -97q-41 -41 -81 -65.5t-75 -24.5q-45 0 -80 37q-45 -57 -80 -96t-65.5 -61.5t-60.5 -33t-60 -10.5q-70 0 -115 43t-45 105q0 47 14 78q11 22 34.5 62t57.5 100q17 26 39.5 60t51.5 87l18 31q2 2 6 2q23 -4 44.5 -6t43.5 -2q10 0 36 2t67 6q10 0 6 -10
l-185 -306q-98 -163 -98 -182q0 -35 49 -35q84 0 226 189q-9 20 -16 45.5t-7 54.5q0 94 49 172q58 84 117 84q47 0 47 -47q0 -41 -49 -139q-27 -49 -52.5 -89t-58.5 -81q29 -33 68 -33q47 0 91 37t91 106q15 27 31 27q12 0 12 -10z" />
    <glyph glyph-name="w" unicode="w" horiz-adv-x="999" 
d="M1183 328q0 -11 -19.5 -36.5t-49.5 -60.5q-35 -43 -76 -66.5t-82 -23.5q-43 0 -78 37q-45 -57 -81 -96t-66.5 -61.5t-59 -33t-59.5 -10.5q-64 0 -111 42t-47 102v20.5t4 22.5q-133 -187 -256 -187q-59 0 -98 40t-39 98q0 47 12 78q8 16 27.5 52t54.5 93v-2l115 205
q4 4 8 4q31 -8 82 -8q16 0 43 2t66 6q10 0 6 -10l-170 -287q-107 -185 -107 -211q0 -25 27 -25q65 0 165.5 118t229.5 343q10 16 20.5 33.5t18.5 34.5q4 4 8 4q23 -4 45.5 -6t42.5 -2q15 0 40.5 2t64.5 6q10 0 6 -10l-187 -306q-96 -157 -96 -182q0 -35 49 -35
q43 0 97.5 48.5t126.5 140.5q-23 41 -23 102q0 92 51 170q56 84 117 84q47 0 47 -47q0 -43 -51 -135q-25 -47 -51.5 -90t-57.5 -84q29 -33 66 -33q90 0 186 143h-2q15 27 31 27q10 0 10 -10z" />
    <glyph glyph-name="x" unicode="x" horiz-adv-x="880" 
d="M1066 328q0 -27 -120 -168q-158 -183 -306 -183q-59 0 -101 24t-77 71q-164 -95 -256 -95q-98 0 -98 111q0 37 11.5 72t31.5 61.5t45 42t53 15.5q78 0 78 -68q0 -90 -127 -125q-49 -16 -49 -41q0 -37 39 -37q70 0 190 170q119 172 119 256q0 78 -69 78
q-54 0 -116.5 -54.5t-127.5 -156.5q-12 -16 -23 -16q-12 0 -12 12q0 10 68 100q118 148 229 148q100 0 149 -92q74 51 137.5 73.5t123.5 22.5q100 0 100 -113q0 -37 -11.5 -72.5t-31 -62.5t-44 -43t-50.5 -16q-68 0 -68 63q0 96 117 133q43 15 43 43q0 37 -39 37
q-33 0 -84 -48t-111 -130q-55 -78 -86.5 -142.5t-31.5 -105.5q0 -35 29.5 -58.5t70.5 -23.5q90 0 211 111q80 80 156 194q16 23 30 23q8 0 8 -10z" />
    <glyph glyph-name="y" unicode="y" horiz-adv-x="768" 
d="M955 328q0 -6 -2 -11l-14 -20q-168 -254 -395 -330q-56 -92 -106 -169t-85 -128q-33 -45 -74 -88t-90 -90q-53 -47 -108.5 -85t-118.5 -69q-127 -61 -215 -61q-72 0 -120 52.5t-48 131.5q0 185 244 324q65 39 198 80t310 78l110 204q-133 -170 -241 -170q-58 0 -97 42
t-39 102q0 29 18.5 74t53.5 104q16 31 38.5 66.5t39.5 64.5q10 21 25.5 48.5t33.5 62.5q4 4 8 4q21 -4 44.5 -6t52.5 -2q22 0 45.5 2t46.5 6q4 2 7 -2t1 -8l-151 -259q-58 -98 -91.5 -161.5t-33.5 -77.5q0 -25 26 -25q135 0 436 529q5 4 9 4q30 -8 82 -8q22 0 49.5 2t60.5 6
q10 0 6 -10l-110 -181l-138 -237l-61 -113q207 90 352 307h-2q15 27 31 27q12 0 12 -10zM316 -86q-143 -29 -256.5 -80t-206.5 -123q-190 -147 -190 -305q0 -104 92 -104q115 0 230 118q55 60 127.5 163.5t158.5 254.5z" />
    <glyph glyph-name="z" unicode="z" horiz-adv-x="589" 
d="M777 328q0 -15 -31.5 -55t-87.5 -99q-104 -108 -192 -158q28 -51 28 -133q0 -241 -284 -422q-56 -34 -117 -64t-129 -59q-129 -51 -213 -51q-74 0 -122 49.5t-48 124.5q0 84 48 150.5t142 122.5q93 49 369 151q131 45 211 92q2 13 3 23t1 23q0 81 -78 88
q-59 -62 -104 -95.5t-68 -33.5q-32 0 -32 30q0 39 61 76q57 35 131 45l242 236q-33 -17 -70 -17q-35 0 -80 27q-35 22 -57 22q-49 0 -121 -102q-8 -14 -16 -14q-13 0 -13 12q0 14 84 119q35 43 60.5 70.5t45 43t37 21.5t38.5 6q45 0 110 -61q37 -33 60 -33l16 2l8 8l41 43
q57 62 84 62q21 0 21 -21q0 -29 -38 -58.5t-104 -60.5l-311 -305q92 -8 151 -94q170 108 283 272h-2q14 27 33 27q10 0 10 -10zM357 -47l-12 -6q0 6 4 14zM91 -473q197 209 254 420q-31 -19 -74 -38.5t-96 -43.5q-148 -66 -254.5 -124t-165.5 -106q-117 -98 -117 -215
q0 -110 113 -110q141 0 340 217z" />
    <glyph glyph-name="braceleft" unicode="{" horiz-adv-x="681" 
d="M752 362q0 -129 -155 -258q-78 -63 -155 -95t-157 -32q-83 0 -83 78v17q-66 -117 -124.5 -203t-113.5 -139q-59 -66 -138 -119t-182 -103l134 -32l190 -51q197 -54 285 -54q176 0 293 97q120 98 120 239q0 43 -16 80t-44 64.5t-65.5 44t-82.5 16.5q-105 0 -187 -78
q-78 -82 -78 -180q0 -66 42 -110t108 -44q149 0 190 135q11 17 17 17q12 0 12 -12q0 -52 -70 -109q-71 -61 -172 -61q-104 0 -170.5 54t-66.5 140q0 107 108 191q54 43 116 62.5t134 19.5q113 0 182.5 -63.5t69.5 -162.5q0 -174 -160 -309q-78 -61 -171 -97t-191 -36
q-53 0 -99.5 8t-87.5 25q-43 16 -111.5 52t-156.5 89q-26 16 -53 27.5t-55 21.5q-156 -70 -269 -70q-98 0 -98 46q0 32 58.5 51.5t144.5 19.5q35 0 66.5 -2t62.5 -10q207 135 428 524l434 756q4 4 8 4q35 -10 80 -10q14 0 37.5 3t58.5 7q11 0 6 -8l-206 -359q86 105 168 105
q32 0 63 -15.5t53.5 -41t35.5 -59.5t13 -71zM609 471q0 47 -41 47q-35 0 -85 -45t-103 -121q-152 -217 -152 -293q0 -49 37 -49q84 0 238 230q106 155 106 231zM-440 -496q-6 2 -18 2l14 11zM-659 -551q107 0 201 57q-61 7 -104 7q-68 0 -117 -14.5t-49 -30.5q0 -19 69 -19z
" />
    <glyph glyph-name="bar" unicode="|" horiz-adv-x="747" 
d="M775 354l-60 -104v2l-78 -137l-102 -185q143 -24 223 -93.5t80 -162.5q0 -139 -158 -249q-161 -109 -360 -109q-158 0 -266 66q-183 -105 -285 -105q-74 0 -121 49t-47 125q0 90 60.5 173t170.5 155q111 74 242 114.5t272 49.5q17 30 25 44.5t14.5 26t14.5 26.5t26 46
q-86 -109 -168 -109q-71 0 -120.5 55.5t-49.5 133.5t49.5 149.5t143.5 135.5q72 47 140.5 72.5t127.5 25.5q86 0 86 -76q0 -12 -2 -18l51 88q2 2 9 2q34 -8 69 -8q29 0 57.5 2t57.5 6q10 0 6 -10zM611 471q0 47 -43 47q-68 0 -203 -184q-135 -182 -135 -281q0 -43 41 -43
q43 0 97 54.5t120 154.5q59 92 91 156.5t32 95.5zM697 -262q0 139 -176 172q-111 -184 -219.5 -312t-219.5 -202q66 -39 164 -39q166 0 307 119q144 118 144 262zM332 -82q-223 -8 -438 -174t-215 -340q0 -45 25.5 -73.5t66.5 -28.5q100 0 240 129q-43 45 -43 120
q0 43 28 111q35 70 56 70q12 0 12 -11q0 -4 -2 -7l-6 -9q-64 -76 -64 -149q0 -62 35 -107q47 49 119.5 159.5t173.5 291.5z" />
    <glyph glyph-name="braceright" unicode="}" horiz-adv-x="753" 
d="M1160 -350q0 -170 -158 -295q-153 -129 -358 -129q-57 0 -104.5 7t-88.5 24q-45 18 -111.5 56t-158.5 95q-22 17 -51 29t-62 22q-163 -69 -270 -69q-92 0 -92 41q0 32 56.5 52.5t144.5 20.5q22 0 56 -3t77 -7q92 74 190 221h-2q41 62 95.5 155t125.5 226q0 2 2.5 4t4.5 6
q-103 -124 -189 -124q-72 0 -119 53t-47 131q0 133 154 256q156 127 307 127q86 0 86 -76q0 -12 -2 -20l51 90q2 2 8 2q27 -4 49.5 -6t38.5 -2q15 0 38.5 2t58.5 6q14 0 4 -10q-53 -78 -136 -228.5t-198 -374.5q-90 -174 -201 -284q-51 -54 -113.5 -94.5t-136.5 -77.5
q33 -6 84.5 -21.5t116.5 -36.5l135 -39q33 -10 50.5 -15t21.5 -9q66 -17 119 -26t94 -9q170 0 287 94q121 97 121 232q0 45 -16.5 83t-44.5 66.5t-67.5 45t-84.5 16.5q-101 0 -183 -78q-80 -78 -80 -180q0 -68 44 -110t114 -42q137 0 180 127q11 16 15 16q12 0 12 -12
q0 -29 -19.5 -56.5t-54.5 -51.5q-35 -27 -76 -40.5t-81 -13.5q-111 0 -177.5 54.5t-66.5 140.5q0 55 26.5 101t79.5 89q109 82 254 82q109 0 178.5 -66.5t69.5 -166.5zM626 473q0 47 -43 47q-35 0 -87.5 -48t-119.5 -138q-62 -88 -98.5 -161t-36.5 -120q0 -45 40 -45
q41 0 96.5 53.5t121.5 153.5q59 92 93 158.5t34 99.5zM25 -530l-20 4l16 8zM-200 -588q107 0 205 62q-29 4 -53.5 4h-46.5q-168 0 -168 -47q0 -19 63 -19z" />
    <glyph glyph-name="asciitilde" unicode="~" horiz-adv-x="757" 
d="M1254 1047q0 -183 -229 -324q-223 -143 -524 -156q-23 -35 -30 -49t-13.5 -24.5t-14.5 -24.5t-31 -49q113 129 205 129q60 0 101 -43t41 -107q0 -34 -40 -110t-126 -201h2q-23 -33 -23 -45q0 -31 35 -31q98 0 299 299q12 27 29 27q12 0 12 -10q0 -19 -147 -205
q-115 -146 -218 -146q-59 0 -103 44.5t-44 103.5q0 70 90 203q100 153 100 166q0 26 -26 26q-76 0 -205 -164q-63 -80 -119.5 -173t-103.5 -201q-4 -5 -8 -5q-31 11 -74 11q-4 0 -33 -2t-57 -6q-4 0 -10.5 -1.5t-12.5 -1.5q-10 0 -6 9l346 598q-139 20 -220 89.5t-81 166.5
q0 69 41 131.5t111 113.5q75 52 166.5 78.5t191.5 26.5q88 0 156.5 -16.5t120.5 -51.5q86 47 158.5 72t125.5 25q76 0 122 -47.5t46 -124.5zM1178 1094q0 100 -100 100q-104 0 -229 -123q39 -47 39 -121q0 -49 -33 -112q-17 -33 -33 -50.5t-33 -13.5q-4 0 -4 6t12 19
q64 69 64 153q0 60 -31 101q-16 -17 -46 -58t-64 -94q-66 -104 -116 -178t-79 -117l-10 -14q125 6 234.5 49t211.5 121q217 168 217 332zM783 1104l-8 4l8 4v-8zM328 602q103 174 215.5 301t231.5 205q-64 41 -170 41q-170 0 -311 -117q-140 -117 -140 -258q0 -145 174 -172
z" />
    <glyph glyph-name="dieresis" unicode="&#xa8;" horiz-adv-x="1024" 
 />
    <glyph glyph-name="copyright" unicode="&#xa9;" horiz-adv-x="1599" 
d="M1810 700q0 -305 -228 -532q-225 -225 -528 -225q-135 0 -248 46t-205 136q-184 184 -184 453q0 307 227 532q230 223 537 223q264 0 446 -184q90 -92 136.5 -202.5t46.5 -246.5zM1771 696q0 254 -174 428q-170 172 -437 172q-276 0 -493 -215q-211 -213 -211 -499
q0 -258 172 -430q86 -86 192.5 -129t235.5 -43q287 0 500 213q215 215 215 503zM1541 893q0 -53 -21.5 -97t-66.5 -87q-94 -82 -200 -82q-48 0 -81.5 22.5t-33.5 57.5q0 16 12 16q4 0 4 -2q4 -8 4 -10q7 -45 60 -45q35 0 77 25.5t83 70.5q43 47 66.5 91t23.5 85q0 76 -82 76
q-158 0 -369 -217q-209 -215 -209 -375q0 -78 46 -122t128 -44q189 0 379 270q25 31 31 31q12 0 12 -12q0 -35 -108 -150q-158 -170 -320 -170q-129 0 -213 82q-43 43 -64.5 92.5t-21.5 110.5q0 55 24.5 113.5t66.5 115t99.5 106.5t124.5 91q99 53 192 80.5t177 27.5
t132 -41.5t48 -109.5z" />
    <glyph glyph-name="registered" unicode="&#xae;" horiz-adv-x="1599" 
d="M1810 700q0 -305 -228 -532q-225 -225 -528 -225q-135 0 -248 46t-205 136q-184 184 -184 453q0 307 227 532q230 223 537 223q264 0 446 -184q90 -92 136.5 -202.5t46.5 -246.5zM1771 696q0 254 -174 428q-170 172 -437 172q-276 0 -493 -215q-211 -213 -211 -499
q0 -258 172 -430q86 -86 192.5 -129t235.5 -43q287 0 500 213q215 215 215 503zM1404 971q-106 -92 -194 -297q12 6 34 6q41 0 78 -12q125 47 125 188q0 68 -43 115zM1599 1061q0 -10 -29 -10q-31 2 -61.5 -11.5t-65.5 -38.5q107 -71 107 -170q0 -69 -48.5 -114t-150.5 -62
q80 -47 80 -123q0 -47 -19 -116q-20 -82 -20 -117q0 -70 55 -70q23 0 43.5 12.5t38.5 30.5q4 2 8 6.5t6 4.5l4 -2q3 -5 5 -7t2 -6q-2 -16 -45 -41q-35 -20 -68 -20q-63 0 -107.5 50t-44.5 122q0 22 8.5 56t20.5 75q8 33 14.5 58.5t6.5 35.5q0 12 -6.5 23.5t-12.5 21.5
q-6 0 -15 -1t-16 -1q-10 -2 -19 -2h-13q-45 0 -54 12l-14 -39q-86 -249 -215 -327q-104 -62 -211 -62q-78 0 -132 43t-54 107q0 43 25.5 69.5t66.5 26.5q70 0 70 -63q0 -29 -21.5 -51.5t-54.5 -22.5q-60 0 -60 59q0 11 2 17q-6 -17 -6 -35q0 -51 48.5 -88t113.5 -37
q72 0 121 68q24 34 65 111t95 200q90 198 340 358q-82 60 -195 60q-156 0 -301 -117q-141 -119 -141 -250q0 -104 114 -104q43 0 86 16q13 4 21 4q12 0 12 -8q0 -4 -12 -10.5t-30.5 -11.5t-40 -9t-40.5 -4q-162 0 -162 143q0 154 142 265q141 114 332 114q65 0 126.5 -16
t122.5 -47q45 26 86 41.5t76 15.5q21 0 21 -12z" />
    <glyph glyph-name="acute" unicode="&#xb4;" horiz-adv-x="1024" 
 />
    <glyph glyph-name="paragraph" unicode="&#xb6;" horiz-adv-x="1826" 
d="M2451 1040q0 -28 -3 -58t-9 -52.5t-12.5 -36.5t-12.5 -14q-14 0 -14 14q0 6 2 10v-2q0 2 1 4t1 6q16 50 16 127q0 117 -73.5 189.5t-192.5 72.5q-78 0 -160 -35.5t-155 -101.5q-74 -67 -155 -191t-157 -298q-53 -117 -101 -207t-87 -143q-39 -52 -90 -101t-119 -96
q-242 -168 -549 -168q-162 0 -255 80t-93 217q0 29 8 69t23 81q16 40 34.5 67t30.5 27q10 -6 10 -15q0 -8 -10 -20h2q-69 -109 -69 -209q0 -123 85 -195.5t226 -72.5q225 0 420 200q31 31 59.5 64t52.5 72q27 38 84.5 126.5t147.5 229.5q209 330 434 502q-53 22 -104.5 35.5
t-92.5 13.5q-176 0 -315 -152q-63 -75 -100 -164.5t-37 -187.5q0 -117 88 -117q27 0 49 8l10 -4q4 0 4 -6q0 -16 -36.5 -28.5t-79.5 -12.5q-138 0 -234 88q-100 88 -100 211q0 174 190 291q189 119 467 119q170 0 320 -72q166 127 354 127q66 0 120 -21.5t94 -59.5t61.5 -92
t21.5 -118z" />
    <glyph glyph-name="onequarter" unicode="&#xbc;" horiz-adv-x="1652" 
d="M1820 690q0 -20 -30 -20q-11 0 -31 4q-8 2 -20.5 3t-10.5 3q-82 -4 -180 -68q-100 -63 -289 -245q-59 -56 -104 -95t-86 -65q75 12 108 12l86 -2q6 0 10 2q91 107 169.5 200t127.5 156q9 11 17 17t16 2t4 -10q-2 -2 -4 -9q-4 -4 -7 -10l-7 -14q-72 -125 -120 -208
t-73 -132q11 -2 22 -3t21 -1q54 0 88.5 23.5t34.5 58.5q0 6 -4 22q-4 13 -4 19q0 12 12 12q21 0 21 -51q0 -123 -213 -127q-29 -55 -45.5 -99.5t-20.5 -78.5q0 -6 -6 -6q-33 4 -57.5 7t-42.5 3q-13 0 -28 -3t-38 -7q-4 -3 -7 0.5t-1 7.5q14 57 107 182q-15 0 -24 1t-19 1
q-23 2 -39.5 2h-26.5h-37.5t-46.5 -2q-8 0 -13 -1t-14 -1q-24 -12 -49.5 -20.5t-44.5 -8.5q-20 0 -20 15q0 6 28 16q7 4 16 6t19 6l25 9l8 2q47 22 110.5 70t137.5 126q90 92 160.5 155.5t123.5 100.5q109 76 209 76q82 0 82 -33zM1083 1147q0 -4 -2 -7t-6 -10l2 3
q-4 -7 -7 -11t-8 -10l-55 -80q-117 -160 -183.5 -287t-86.5 -223q0 -4 -8 -4q-56 12 -97 12t-79 -18q-13 -4 -9 8q27 55 62 109.5t76 109.5q36 47 93.5 109.5t135.5 144.5q-35 -30 -70 -58t-69 -56q-154 -117 -201 -117q-14 0 -16 8q0 16 20 21q86 34 204 122t259 232
q14 14 33 14q12 0 12 -12zM1431 1155q0 -4 -10 -18.5t-25 -30.5q-43 -53 -118.5 -175t-180.5 -304v2q-104 -180 -200.5 -361.5t-190.5 -363.5q-6 -6 -8 -4q-31 14 -72 14q-63 0 -131 -27q-4 -2 -6 2.5t2 8.5q219 319 426 607t406 550l6 6l37 49q41 57 55 57l4 -2q2 -4 4 -5
t2 -5z" />
    <glyph glyph-name="onehalf" unicode="&#xbd;" horiz-adv-x="1652" 
d="M1726 502q0 -51 -22.5 -94t-73.5 -81t-131 -73t-193 -70q-57 -16 -99 -32.5t-69 -30.5q-36 -19 -71 -47q73 37 141 37q29 0 106 -19q89 -18 134 -18q94 0 127 116q6 13 12 15q14 0 14 -15q-4 -81 -80 -143q-77 -67 -159 -67q-29 0 -77 10t-120 30q-59 17 -80 17
q-59 0 -70 -53q-6 -11 -14 -11q-14 0 -14 17q0 16 12 35.5t35 42.5q29 28 92.5 67t161.5 88q311 154 311 322q0 73 -82 73q-106 0 -225 -100q-125 -100 -125 -182q0 -64 64 -64q63 0 139 54q74 55 108 120q6 23 19 23q12 0 12 -12q0 -15 -19.5 -42.5t-50.5 -60.5
q-102 -104 -204 -104q-58 0 -93.5 30.5t-35.5 77.5q0 103 131 195q65 43 138 67.5t144 24.5q95 0 151 -39t56 -104zM1036 1147q0 -4 -2 -7t-6 -10l2 3q-4 -7 -7 -11t-8 -10l-53 -80q-119 -160 -185.5 -287t-86.5 -223q0 -4 -8 -4q-56 12 -97 12t-79 -18q-13 -4 -9 8
q27 55 62 109.5t76 109.5q36 47 93.5 109.5t135.5 144.5q-35 -30 -70 -58t-69 -56q-150 -117 -201 -117q-14 0 -16 8q0 16 20 21q86 34 204 122t259 232q14 14 33 14q12 0 12 -12zM1384 1155q0 -4 -10 -18.5t-25 -30.5q-43 -53 -118.5 -175t-180.5 -304v2
q-104 -180 -200.5 -361.5t-190.5 -363.5q-6 -6 -8 -4q-16 8 -34.5 11t-37.5 3q-63 0 -129 -27q-4 -2 -7 2.5t1 8.5q219 319 426 607t406 550l6 6l37 49q41 57 55 57l4 -2q2 -4 4 -5t2 -5z" />
    <glyph glyph-name="threequarters" unicode="&#xbe;" horiz-adv-x="1652" 
d="M1869 690q0 -20 -29 -20q-14 0 -22 4q-8 2 -17.5 4t-17.5 2q-84 0 -184 -68q-54 -32 -124.5 -92.5t-162.5 -152.5q-57 -54 -103 -92.5t-87 -67.5q38 6 63 9t43 3l86 -2q8 0 12 2l297 359q17 20 31 20q4 0 4 -6q0 -10 -20 -39l2 2q-72 -125 -119 -210t-74 -134
q10 -2 21.5 -3t21.5 -1q51 0 87 23.5t36 58.5q0 6 -4 22q-4 13 -4 19q0 12 12 12q23 0 23 -49q0 -125 -215 -129q-29 -51 -44.5 -95t-23.5 -85q0 -4 -4 -4q-31 4 -55.5 7t-44.5 3q-21 0 -68 -10q-2 -3 -5 0.5t-1 7.5q10 35 35.5 79t72.5 103q-14 0 -23 1t-20 1
q-22 2 -38.5 2h-26.5h-41.5t-48.5 -2q-6 0 -10.5 -1t-10.5 -1q-26 -12 -52 -20.5t-44 -8.5q-20 0 -20 15q0 10 16 15t45 13q20 4 33 11q22 10 52 30.5t63.5 47t68.5 57t66 61.5q86 92 158.5 155.5t125.5 100.5q113 76 209 76q80 0 80 -33zM1144 1079q0 -55 -73.5 -102
t-196.5 -72q153 -18 153 -131q0 -104 -120 -176q-117 -74 -279 -74q-76 0 -123 33t-47 86q0 29 15.5 54.5t41 44t60.5 29.5t73 11q78 0 74 -22q0 -6 -6 -6h-10t-12 2l-17 4q-67 0 -113.5 -36t-46.5 -89q0 -86 101 -86q104 0 186 76q82 77 82 174q0 80 -78 92
q-37 -8 -69.5 -11t-59.5 -3q-20 0 -20 14t24 14l37 4q17 2 42.5 3t41.5 1q43 13 81 32.5t65.5 45t44 54t16.5 57.5q0 67 -70 67q-71 0 -149 -53q-78 -49 -78 -96q0 -43 53 -43q41 0 91.5 29.5t78.5 70.5q6 6 11.5 9.5t13.5 -1.5q4 0 4 -6q0 -16 -51 -61q-78 -68 -150 -68
q-94 0 -94 78q0 66 82 117q82 49 192 49q86 0 142.5 -33t56.5 -82zM1482 1155q0 -4 -10 -18.5t-25 -30.5q-45 -57 -121.5 -182t-175.5 -295q-98 -170 -200.5 -360.5t-190.5 -364.5q-6 -6 -8 -4q-37 14 -76 14q-29 0 -61.5 -6t-67.5 -21q-4 -2 -7 2.5t1 8.5q219 319 426 607
t405 550l68 84q23 28 33 28l4 -2q2 -4 4 -5t2 -5z" />
    <glyph glyph-name="Agrave" unicode="&#xc0;" horiz-adv-x="2121" 
d="M2672 1393q0 -13 -12 -13q-23 0 -91 86q-51 68 -86 183q0 4 5 8l108 59l8 -8q-12 -53 -12 -94q0 -117 68 -203l8 -8q0 -2 1 -3t1 -3t2 -4zM2996 1203q0 -30 -32 -30q-9 0 -54 12q-10 0 -20 3t-25 7q-86 25 -149 29q-70 -25 -129.5 -69t-104.5 -103q-47 -60 -101 -169.5
t-120 -264.5q-57 -136 -126.5 -244.5t-149.5 -175.5q-154 -133 -408 -199q62 -8 110 -11t79 -3q145 0 258 69q55 35 115.5 98.5t115.5 143.5q18 29 29 29q12 0 12 -13q0 -24 -109 -147q-53 -59 -100 -102t-94 -66q-86 -43 -225 -43q-60 0 -126.5 7t-144.5 22
q-78 -19 -137 -19q-76 0 -76 35t64 35q51 0 153 -23q148 43 230 127q39 41 112.5 150.5t184.5 286.5h-322l-72 -78q-507 -545 -954 -545q-98 0 -175 27.5t-138 83.5q-119 110 -119 290q0 228 195 441q194 213 444 262q86 155 254 258q166 100 338 100q108 0 171.5 -56
t63.5 -153q0 -61 -47 -145q-43 -86 -43 -119q0 -29 23.5 -49.5t58.5 -20.5q47 0 102.5 40t90.5 96q18 24 28 24q15 0 15 -14q0 -23 -62 -86q-90 -90 -178 -90q-65 0 -109.5 47t-44.5 117q0 57 72 194q25 45 25 78q0 45 -47 74.5t-123 29.5t-155 -25.5t-157 -68.5
q-73 -47 -133.5 -103.5t-103.5 -121.5q16 2 36.5 3t30.5 1q154 0 245 -90t91 -242v-32q60 40 98 88.5t64 105.5q4 8 9 14.5t10 6.5q14 0 14 -17q0 -39 -66 -117q-34 -41 -67 -71.5t-68 -52.5q-39 -191 -203 -343q-163 -151 -346 -151q-53 0 -99 19.5t-80 53t-52.5 80
t-18.5 99.5q0 123 89 242q90 122 217 182q0 88 34 170q-104 -35 -192 -102.5t-166 -168.5q-158 -211 -158 -419q0 -156 89.5 -246t244.5 -90q256 0 527 233q55 47 142 135t208 222h-193q-15 -3 -4 10l14 18q0 2 5 2h206l13 13q317 317 605 474.5t529 161.5q35 7 63.5 10
t47.5 3q151 0 151 -64zM2045 608q148 250 294.5 404.5t289.5 210.5q-195 -23 -375 -140q-104 -69 -232 -186t-288 -289h311zM1275 764q0 131 -71.5 201.5t-200.5 70.5q-27 0 -51.5 -2t-49.5 -8q-45 -86 -45 -168q107 43 176 43q17 0 17 -14q0 -15 -35 -19q-45 -8 -83 -18
t-73 -23q9 -96 70 -153.5t162 -57.5q76 0 168 48q16 59 16 100zM1246 623zM1040 330q69 59 120.5 133t85.5 160q-40 -17 -79 -25t-80 -8q-113 0 -176.5 53t-79.5 170q-60 -31 -108 -75t-89 -97q-37 -53 -57.5 -110.5t-20.5 -112.5q0 -94 60.5 -155.5t152.5 -61.5
q129 0 271 129z" />
    <glyph glyph-name="Aacute" unicode="&#xc1;" horiz-adv-x="2121" 
d="M3075 1634q4 -4 -2 -10q-88 -55 -160.5 -96t-132.5 -68q-59 -24 -94 -38.5t-45 -12.5q-6 2 -2 10q2 2 8 7.5t17 11.5q252 141 352 278q4 10 10 0zM2996 1203q0 -30 -32 -30q-9 0 -54 12q-10 0 -20 3t-25 7q-86 25 -149 29q-70 -25 -129.5 -69t-104.5 -103
q-47 -60 -101 -169.5t-120 -264.5q-57 -136 -126.5 -244.5t-149.5 -175.5q-154 -133 -408 -199q62 -8 110 -11t79 -3q145 0 258 69q55 35 115.5 98.5t115.5 143.5q18 29 29 29q12 0 12 -13q0 -24 -109 -147q-53 -59 -100 -102t-94 -66q-86 -43 -225 -43q-60 0 -126.5 7
t-144.5 22q-78 -19 -137 -19q-76 0 -76 35t64 35q51 0 153 -23q148 43 230 127q39 41 112.5 150.5t184.5 286.5h-322l-72 -78q-507 -545 -954 -545q-98 0 -175 27.5t-138 83.5q-119 110 -119 290q0 228 195 441q194 213 444 262q86 155 254 258q166 100 338 100
q108 0 171.5 -56t63.5 -153q0 -61 -47 -145q-43 -86 -43 -119q0 -29 23.5 -49.5t58.5 -20.5q47 0 102.5 40t90.5 96q18 24 28 24q15 0 15 -14q0 -23 -62 -86q-90 -90 -178 -90q-65 0 -109.5 47t-44.5 117q0 57 72 194q25 45 25 78q0 45 -47 74.5t-123 29.5t-155 -25.5
t-157 -68.5q-73 -47 -133.5 -103.5t-103.5 -121.5q16 2 36.5 3t30.5 1q154 0 245 -90t91 -242v-32q60 40 98 88.5t64 105.5q4 8 9 14.5t10 6.5q14 0 14 -17q0 -39 -66 -117q-34 -41 -67 -71.5t-68 -52.5q-39 -191 -203 -343q-163 -151 -346 -151q-53 0 -99 19.5t-80 53
t-52.5 80t-18.5 99.5q0 123 89 242q90 122 217 182q0 88 34 170q-104 -35 -192 -102.5t-166 -168.5q-158 -211 -158 -419q0 -156 89.5 -246t244.5 -90q256 0 527 233q55 47 142 135t208 222h-193q-15 -3 -4 10l14 18q0 2 5 2h206l13 13q317 317 605 474.5t529 161.5
q35 7 63.5 10t47.5 3q151 0 151 -64zM2045 608q148 250 294.5 404.5t289.5 210.5q-195 -23 -375 -140q-104 -69 -232 -186t-288 -289h311zM1275 764q0 131 -71.5 201.5t-200.5 70.5q-27 0 -51.5 -2t-49.5 -8q-45 -86 -45 -168q107 43 176 43q17 0 17 -14q0 -15 -35 -19
q-45 -8 -83 -18t-73 -23q9 -96 70 -153.5t162 -57.5q76 0 168 48q16 59 16 100zM1246 623zM1040 330q69 59 120.5 133t85.5 160q-40 -17 -79 -25t-80 -8q-113 0 -176.5 53t-79.5 170q-60 -31 -108 -75t-89 -97q-37 -53 -57.5 -110.5t-20.5 -112.5q0 -94 60.5 -155.5
t152.5 -61.5q129 0 271 129z" />
    <glyph glyph-name="Acircumflex" unicode="&#xc2;" horiz-adv-x="2121" 
d="M2850 1690q0 -31 -6 -104t-17 -185q0 -4 -1 -7t-1 -8q0 -12 -8 -12q-9 0 -10 10q-4 41 -12.5 75t-22.5 69q-23 -17 -62.5 -38.5t-93.5 -47.5q-118 -58 -149 -56q-6 0 -6 7q0 6 10 12q129 72 221 142.5t148 146.5zM2995 1203q0 -30 -32 -30q-9 0 -54 12q-10 0 -20 3t-25 7
q-86 25 -149 29q-70 -25 -129.5 -69t-104.5 -103q-47 -60 -101 -169.5t-120 -264.5q-57 -136 -126.5 -244.5t-149.5 -175.5q-154 -133 -408 -199q62 -8 110 -11t79 -3q145 0 258 69q55 35 115.5 98.5t115.5 143.5q18 29 29 29q12 0 12 -13q0 -24 -109 -147
q-53 -59 -100 -102t-94 -66q-86 -43 -225 -43q-60 0 -126.5 7t-144.5 22q-78 -19 -137 -19q-76 0 -76 35t64 35q51 0 153 -23q148 43 230 127q39 41 112.5 150.5t184.5 286.5h-322l-72 -78q-507 -545 -954 -545q-98 0 -175 27.5t-138 83.5q-119 110 -119 290q0 228 195 441
q194 213 444 262q86 155 254 258q166 100 338 100q108 0 171.5 -56t63.5 -153q0 -61 -47 -145q-43 -86 -43 -119q0 -29 23.5 -49.5t58.5 -20.5q47 0 102.5 40t90.5 96q18 24 28 24q15 0 15 -14q0 -23 -62 -86q-90 -90 -178 -90q-65 0 -109.5 47t-44.5 117q0 57 72 194
q25 45 25 78q0 45 -47 74.5t-123 29.5t-155 -25.5t-157 -68.5q-73 -47 -133.5 -103.5t-103.5 -121.5q16 2 36.5 3t30.5 1q154 0 245 -90t91 -242v-32q60 40 98 88.5t64 105.5q4 8 9 14.5t10 6.5q14 0 14 -17q0 -39 -66 -117q-34 -41 -67 -71.5t-68 -52.5q-39 -191 -203 -343
q-163 -151 -346 -151q-53 0 -99 19.5t-80 53t-52.5 80t-18.5 99.5q0 123 89 242q90 122 217 182q0 88 34 170q-104 -35 -192 -102.5t-166 -168.5q-158 -211 -158 -419q0 -156 89.5 -246t244.5 -90q256 0 527 233q55 47 142 135t208 222h-193q-15 -3 -4 10l14 18q0 2 5 2h206
l13 13q317 317 605 474.5t529 161.5q35 7 63.5 10t47.5 3q151 0 151 -64zM2044 608q148 250 294.5 404.5t289.5 210.5q-195 -23 -375 -140q-104 -69 -232 -186t-288 -289h311zM1274 764q0 131 -71.5 201.5t-200.5 70.5q-27 0 -51.5 -2t-49.5 -8q-45 -86 -45 -168
q107 43 176 43q17 0 17 -14q0 -15 -35 -19q-45 -8 -83 -18t-73 -23q9 -96 70 -153.5t162 -57.5q76 0 168 48q16 59 16 100zM1245 623zM1039 330q69 59 120.5 133t85.5 160q-40 -17 -79 -25t-80 -8q-113 0 -176.5 53t-79.5 170q-60 -31 -108 -75t-89 -97
q-37 -53 -57.5 -110.5t-20.5 -112.5q0 -94 60.5 -155.5t152.5 -61.5q129 0 271 129z" />
    <glyph glyph-name="Atilde" unicode="&#xc3;" horiz-adv-x="2121" 
d="M2957 1554q0 -8 -78 -51q-70 -39 -125 -39q-39 0 -119 25q-59 18 -86 18q-53 0 -117 -28q-8 -4 -14 0q-4 0 -4 6q0 20 84 55q78 33 119 33q36 0 114 -19q90 -22 115 -22q27 0 50.5 8t39.5 19q6 6 10 6q11 0 11 -11zM2996 1203q0 -30 -32 -30q-9 0 -54 12q-10 0 -20 3
t-25 7q-86 25 -149 29q-70 -25 -129.5 -69t-104.5 -103q-47 -60 -101 -169.5t-120 -264.5q-57 -136 -126.5 -244.5t-149.5 -175.5q-154 -133 -408 -199q62 -8 110 -11t79 -3q145 0 258 69q55 35 115.5 98.5t115.5 143.5q18 29 29 29q12 0 12 -13q0 -24 -109 -147
q-53 -59 -100 -102t-94 -66q-86 -43 -225 -43q-60 0 -126.5 7t-144.5 22q-78 -19 -137 -19q-76 0 -76 35t64 35q51 0 153 -23q148 43 230 127q39 41 112.5 150.5t184.5 286.5h-322l-72 -78q-507 -545 -954 -545q-98 0 -175 27.5t-138 83.5q-119 110 -119 290q0 228 195 441
q194 213 444 262q86 155 254 258q166 100 338 100q108 0 171.5 -56t63.5 -153q0 -61 -47 -145q-43 -86 -43 -119q0 -29 23.5 -49.5t58.5 -20.5q47 0 102.5 40t90.5 96q18 24 28 24q15 0 15 -14q0 -23 -62 -86q-90 -90 -178 -90q-65 0 -109.5 47t-44.5 117q0 57 72 194
q25 45 25 78q0 45 -47 74.5t-123 29.5t-155 -25.5t-157 -68.5q-73 -47 -133.5 -103.5t-103.5 -121.5q16 2 36.5 3t30.5 1q154 0 245 -90t91 -242v-32q60 40 98 88.5t64 105.5q4 8 9 14.5t10 6.5q14 0 14 -17q0 -39 -66 -117q-34 -41 -67 -71.5t-68 -52.5q-39 -191 -203 -343
q-163 -151 -346 -151q-53 0 -99 19.5t-80 53t-52.5 80t-18.5 99.5q0 123 89 242q90 122 217 182q0 88 34 170q-104 -35 -192 -102.5t-166 -168.5q-158 -211 -158 -419q0 -156 89.5 -246t244.5 -90q256 0 527 233q55 47 142 135t208 222h-193q-15 -3 -4 10l14 18q0 2 5 2h206
l13 13q317 317 605 474.5t529 161.5q35 7 63.5 10t47.5 3q151 0 151 -64zM2045 608q148 250 294.5 404.5t289.5 210.5q-195 -23 -375 -140q-104 -69 -232 -186t-288 -289h311zM1275 764q0 131 -71.5 201.5t-200.5 70.5q-27 0 -51.5 -2t-49.5 -8q-45 -86 -45 -168
q107 43 176 43q17 0 17 -14q0 -15 -35 -19q-45 -8 -83 -18t-73 -23q9 -96 70 -153.5t162 -57.5q76 0 168 48q16 59 16 100zM1246 623zM1040 330q69 59 120.5 133t85.5 160q-40 -17 -79 -25t-80 -8q-113 0 -176.5 53t-79.5 170q-60 -31 -108 -75t-89 -97
q-37 -53 -57.5 -110.5t-20.5 -112.5q0 -94 60.5 -155.5t152.5 -61.5q129 0 271 129z" />
    <glyph glyph-name="Egrave" unicode="&#xc8;" horiz-adv-x="1916" 
d="M1991 1393q0 -13 -13 -13q-22 0 -90 86q-51 68 -86 183q0 4 4 8l109 59q4 2 7 -1t1 -7q-12 -53 -12 -94q0 -117 67 -203l9 -8q0 -2 1 -3t1 -3t2 -4zM2242 1151q0 -72 -125 -72q-49 0 -149 17.5t-258 56.5l-49 12q-166 -114 -166 -241q0 -60 41 -82q22 0 45.5 1t44.5 1
q115 0 115 -29q0 -22 -43 -22q-41 0 -82 6t-86 16q-60 -8 -121.5 -23.5t-120.5 -43.5q-21 -130 -131 -234q-113 -106 -258 -139q-29 -66 -29 -144q0 -170 203 -231q-39 82 -39 162q0 217 209 375q256 188 516 188q256 0 256 -211q0 -96 -47 -184t-146 -178
q-227 -203 -565 -203q-45 0 -108 6q92 -98 254 -98q127 0 229 55q2 0 14 4h4q11 -6 11 -14q0 -11 -29 -24t-68 -25q-90 -25 -161 -25q-187 0 -306 135q-190 39 -304.5 131t-114.5 234q-2 10 2 39q-176 34 -273.5 136.5t-97.5 254.5q0 110 56.5 210.5t154.5 174.5
q213 157 526 157q84 0 211 -19t291 -56q74 28 157 44.5t175 16.5q71 0 137 -10t117 -29q108 -41 108 -96zM2210 1149q0 39 -74 65q-80 31 -180 31q-140 0 -252 -59l26 -6l41 -11q242 -61 348 -61q91 0 91 41zM1980 524q0 74 -53 119t-145 45q-222 0 -457 -194
q-234 -199 -234 -379q0 -29 11.5 -66t23.5 -61q25 -4 48.5 -5t41.5 -1q273 0 518 174q246 178 246 368zM1349 999q0 119 150 203q-225 49 -381 49q-309 0 -528 -157q-218 -156 -218 -379q0 -131 83 -214t233 -104q39 154 190.5 261.5t382.5 150.5q0 131 -85 209t-226 80
q-16 0 -16 12q0 18 26 18q72 0 132.5 -24.5t107.5 -65.5q43 -45 67.5 -101t26.5 -122q41 6 86 12.5t94 10.5q-125 45 -125 161zM1257 741q-117 -57 -214 -149t-138 -184q135 34 230.5 125.5t121.5 207.5z" />
    <glyph glyph-name="Eacute" unicode="&#xc9;" horiz-adv-x="1916" 
d="M2345 1634q4 -4 -2 -10q-174 -113 -293 -164q-57 -24 -92 -38.5t-45 -12.5t-2 10q2 2 8 7.5t16 11.5q125 71 213 140t138 138q4 10 10 0zM2242 1151q0 -72 -125 -72q-49 0 -149 17.5t-258 56.5l-49 12q-166 -114 -166 -241q0 -60 41 -82q22 0 45.5 1t44.5 1
q115 0 115 -29q0 -22 -43 -22q-41 0 -82 6t-86 16q-60 -8 -121.5 -23.5t-120.5 -43.5q-21 -130 -131 -234q-113 -106 -258 -139q-29 -66 -29 -144q0 -170 203 -231q-39 82 -39 162q0 217 209 375q256 188 516 188q256 0 256 -211q0 -96 -47 -184t-146 -178
q-227 -203 -565 -203q-45 0 -108 6q92 -98 254 -98q127 0 229 55q2 0 14 4h4q11 -6 11 -14q0 -11 -29 -24t-68 -25q-90 -25 -161 -25q-187 0 -306 135q-190 39 -304.5 131t-114.5 234q-2 10 2 39q-176 34 -273.5 136.5t-97.5 254.5q0 110 56.5 210.5t154.5 174.5
q213 157 526 157q84 0 211 -19t291 -56q74 28 157 44.5t175 16.5q71 0 137 -10t117 -29q108 -41 108 -96zM2210 1149q0 39 -74 65q-80 31 -180 31q-140 0 -252 -59l26 -6l41 -11q242 -61 348 -61q91 0 91 41zM1980 524q0 74 -53 119t-145 45q-222 0 -457 -194
q-234 -199 -234 -379q0 -29 11.5 -66t23.5 -61q25 -4 48.5 -5t41.5 -1q273 0 518 174q246 178 246 368zM1349 999q0 119 150 203q-225 49 -381 49q-309 0 -528 -157q-218 -156 -218 -379q0 -131 83 -214t233 -104q39 154 190.5 261.5t382.5 150.5q0 131 -85 209t-226 80
q-16 0 -16 12q0 18 26 18q72 0 132.5 -24.5t107.5 -65.5q43 -45 67.5 -101t26.5 -122q41 6 86 12.5t94 10.5q-125 45 -125 161zM1257 741q-117 -57 -214 -149t-138 -184q135 34 230.5 125.5t121.5 207.5z" />
    <glyph glyph-name="Ecircumflex" unicode="&#xca;" horiz-adv-x="1916" 
d="M2242 1151q0 -72 -125 -72q-49 0 -149 17.5t-258 56.5l-49 12q-166 -114 -166 -241q0 -60 41 -82q22 0 45.5 1t44.5 1q115 0 115 -29q0 -22 -43 -22q-41 0 -82 6t-86 16q-60 -8 -121.5 -23.5t-120.5 -43.5q-21 -130 -131 -234q-113 -106 -258 -139q-29 -66 -29 -144
q0 -170 203 -231q-39 82 -39 162q0 217 209 375q256 188 516 188q256 0 256 -211q0 -96 -47 -184t-146 -178q-227 -203 -565 -203q-45 0 -108 6q92 -98 254 -98q127 0 229 55q2 0 14 4h4q11 -6 11 -14q0 -11 -29 -24t-68 -25q-90 -25 -161 -25q-187 0 -306 135
q-190 39 -304.5 131t-114.5 234q-2 10 2 39q-176 34 -273.5 136.5t-97.5 254.5q0 110 56.5 210.5t154.5 174.5q213 157 526 157q84 0 211 -19t291 -56q74 28 157 44.5t175 16.5q71 0 137 -10t117 -29q108 -41 108 -96zM2210 1149q0 39 -74 65q-80 31 -180 31
q-140 0 -252 -59l26 -6l41 -11q242 -61 348 -61q91 0 91 41zM1980 524q0 74 -53 119t-145 45q-222 0 -457 -194q-234 -199 -234 -379q0 -29 11.5 -66t23.5 -61q25 -4 48.5 -5t41.5 -1q273 0 518 174q246 178 246 368zM1349 999q0 119 150 203q-225 49 -381 49
q-309 0 -528 -157q-218 -156 -218 -379q0 -131 83 -214t233 -104q39 154 190.5 261.5t382.5 150.5q0 131 -85 209t-226 80q-16 0 -16 12q0 18 26 18q72 0 132.5 -24.5t107.5 -65.5q43 -45 67.5 -101t26.5 -122q41 6 86 12.5t94 10.5q-125 45 -125 161zM1257 741
q-117 -57 -214 -149t-138 -184q135 34 230.5 125.5t121.5 207.5zM2144 1690q0 -31 -6 -104t-16 -185q0 -4 -1 -7t-1 -8q0 -12 -9 -12l-4 2l-2 2q-4 4 -4 6q-4 41 -12 75t-23 69q-22 -17 -62 -38.5t-93 -47.5q-119 -58 -150 -56q-6 0 -6 7q0 6 10 12q129 72 221.5 142.5
t147.5 146.5z" />
    <glyph glyph-name="Igrave" unicode="&#xcc;" horiz-adv-x="1492" 
d="M1988 1393q0 -13 -13 -13q-22 0 -90 86q-51 68 -86 183q0 4 4 8l109 59q4 2 7 -1t1 -7q-12 -53 -12 -94q0 -117 67 -203l9 -8q0 -2 1 -3t1 -3t2 -4zM2229 1329q0 -47 -272 -129q-57 -45 -111.5 -106.5t-101.5 -135.5q-41 -73 -92 -180.5t-103 -242.5q125 8 224 92
q98 88 108 211q0 12 15 12q14 0 14 -16q0 -123 -117 -222q-57 -47 -120.5 -73.5t-135.5 -30.5q-65 -156 -161.5 -265.5t-219.5 -172.5q-106 -52 -250 -86q-71 -17 -140 -26t-130 -9q-186 0 -309 104q-119 101 -119 271q0 206 195 374q194 170 432 170q147 0 232 -74.5
t85 -205.5q0 -189 -147 -348q-142 -156 -318 -156q-108 0 -175.5 67.5t-67.5 174.5q0 67 32.5 130.5t91.5 116.5q66 54 135.5 82.5t147.5 28.5q25 0 50.5 -8t46 -22.5t33.5 -31t13 -30.5q-6 -10 -12 -10q-8 0 -18 16q-35 53 -109 53q-117 0 -231 -114q-113 -117 -113 -234
q0 -84 50 -134t134 -50q78 0 152 35.5t139 109.5q135 144 135 326q0 112 -69.5 176.5t-190.5 64.5q-209 0 -391 -182q-182 -178 -182 -389q0 -61 24.5 -112.5t67.5 -87t103.5 -56t132.5 -20.5q362 0 682 493l40 62q-178 75 -178 256q0 180 189 280q59 29 168.5 57.5
t271.5 57.5q47 6 82 14t53 13l21 6q90 63 155.5 93t106.5 30q22 0 22 -17zM1353 565q248 393 543 619q-123 -31 -213.5 -60.5t-145.5 -52.5q-149 -72 -231 -154.5t-82 -171.5q0 -127 129 -180z" />
    <glyph glyph-name="Iacute" unicode="&#xcd;" horiz-adv-x="1492" 
d="M2438 1634q4 -4 -2 -10q-88 -55 -160.5 -96t-132.5 -68q-59 -24 -94 -38.5t-45 -12.5t-2 10q2 2 8 7.5t17 11.5q252 141 352 278q4 10 10 0zM2229 1329q0 -47 -272 -129q-57 -45 -111.5 -106.5t-101.5 -135.5q-41 -73 -92 -180.5t-103 -242.5q125 8 224 92q98 88 108 211
q0 12 15 12q14 0 14 -16q0 -123 -117 -222q-57 -47 -120.5 -73.5t-135.5 -30.5q-65 -156 -161.5 -265.5t-219.5 -172.5q-106 -52 -250 -86q-71 -17 -140 -26t-130 -9q-186 0 -309 104q-119 101 -119 271q0 206 195 374q194 170 432 170q147 0 232 -74.5t85 -205.5
q0 -189 -147 -348q-142 -156 -318 -156q-108 0 -175.5 67.5t-67.5 174.5q0 67 32.5 130.5t91.5 116.5q66 54 135.5 82.5t147.5 28.5q25 0 50.5 -8t46 -22.5t33.5 -31t13 -30.5q-6 -10 -12 -10q-8 0 -18 16q-35 53 -109 53q-117 0 -231 -114q-113 -117 -113 -234
q0 -84 50 -134t134 -50q78 0 152 35.5t139 109.5q135 144 135 326q0 112 -69.5 176.5t-190.5 64.5q-209 0 -391 -182q-182 -178 -182 -389q0 -61 24.5 -112.5t67.5 -87t103.5 -56t132.5 -20.5q362 0 682 493l40 62q-178 75 -178 256q0 180 189 280q59 29 168.5 57.5
t271.5 57.5q47 6 82 14t53 13l21 6q90 63 155.5 93t106.5 30q22 0 22 -17zM1353 565q248 393 543 619q-123 -31 -213.5 -60.5t-145.5 -52.5q-149 -72 -231 -154.5t-82 -171.5q0 -127 129 -180z" />
    <glyph glyph-name="Eth" unicode="&#xd0;" horiz-adv-x="1830" 
d="M2561 1012q0 -146 -36 -146q-13 0 -13 13q0 6 2 10q8 31 11.5 60.5t3.5 58.5q0 129 -72 206.5t-197 77.5q-209 0 -422 -213q113 -180 113 -389q0 -325 -256 -540q-256 -211 -649 -211q-80 0 -169 8t-181 24q-74 -16 -149 -24t-146 -8q-289 0 -289 71q0 41 61.5 68.5
t149.5 27.5q55 0 137 -14t180 -43l119 -33q76 31 140.5 71t109.5 85q59 66 287 367l16 22h-106q-11 0 -4 10l12 21q0 2 4 2h119q110 154 222 283t220 221q-156 211 -455 211q-198 0 -391 -99q-198 -98 -336 -262q-204 -246 -204 -465q0 -104 60 -166.5t163 -62.5
q198 0 391 188q45 47 84 98.5t68 106.5q59 115 59 199q0 141 -117 141q-131 0 -289 -174q-151 -174 -151 -324q0 -112 88 -112h8q12 0 12 -12q0 -15 -28 -15q-33 0 -60.5 14.5t-49 40t-34 60.5t-12.5 74q0 161 170 317q86 82 171 122t169 40q72 0 113 -47t41 -129
q0 -217 -211 -418q-207 -201 -432 -201q-142 0 -232 96q-47 48 -67.5 108t-20.5 134q0 301 307 541q156 123 329 182t366 59q170 0 300 -54t220 -169q252 203 452 203q142 0 221.5 -84t79.5 -227zM1865 813q0 141 -55 238q-64 -72 -129.5 -187.5t-134.5 -269.5h196
q15 0 4 -10l-18 -21l-4 -2h-195q-94 -248 -252 -368q-151 -117 -448 -193q4 0 7 -2t7 -2q86 -25 240 -25q309 0 504 201q131 135 204.5 304t73.5 337zM384 -31q60 0 119.5 4t114.5 13q-287 43 -352 43q-119 0 -119 -23q0 -37 237 -37z" />
    <glyph glyph-name="Ograve" unicode="&#xd2;" horiz-adv-x="1669" 
d="M1798 1393q0 -13 -13 -13q-24 0 -92 86q-51 70 -84 183q0 4 4 8l107 59q4 2 7 -1t1 -7q-12 -53 -12 -94q0 -117 69 -203l8 -8q0 -2 1 -3t1 -3t3 -4zM1925 1128q0 -59 -27 -131q18 -65 18 -116q0 -174 -96 -341t-274 -321q-164 -135 -321 -205.5t-304 -70.5
q-96 0 -171 29.5t-136 88.5q-119 123 -119 306q0 186 117 376q59 93 137 175.5t178 154.5q78 53 177.5 103.5t195.5 85.5q104 36 198.5 54.5t176.5 18.5q114 0 182 -55t68 -152zM1896 1118q0 86 -56.5 134t-152.5 48q-111 0 -225.5 -41.5t-237.5 -128.5
q-117 -77 -212 -179.5t-175 -227.5q-164 -252 -164 -483q0 -60 18.5 -108t52.5 -83t79 -54.5t100 -19.5q246 0 526 287q138 137 223 276.5t123 292.5q-16 -20 -40.5 -43.5t-53.5 -52.5q-78 -76 -108 -76q-13 0 -15 11q0 4 6.5 12t20.5 16q59 35 112.5 92.5t92.5 110.5
q0 10 1 17.5t1 13.5q0 8 2 14v8q0 99 -52.5 155t-140.5 56q-225 0 -479 -247q-258 -250 -258 -461q0 -58 36 -93.5t89 -35.5q139 0 324 202q182 205 182 365q0 100 -82 96q-20 0 -20 13q0 18 32 18q62 0 102 -49t40 -127q0 -178 -195 -367q-98 -92 -191.5 -138t-189.5 -46
q-74 0 -120 49t-46 133q0 117 67.5 239t192.5 238q129 119 259 180.5t259 61.5q175 0 258 -162q15 43 15 84z" />
    <glyph glyph-name="Oacute" unicode="&#xd3;" horiz-adv-x="1669" 
d="M2068 1634q4 -4 -2 -10q-174 -113 -293 -164q-57 -24 -92 -38.5t-45 -12.5q-11 2 -2 10q2 2 8 7.5t16 11.5q125 71 213 140t137 138q5 10 11 0zM1924 1128q0 -59 -26 -131q18 -65 18 -116q0 -174 -96 -341t-274 -321q-164 -135 -321 -205.5t-304 -70.5q-96 0 -171 29.5
t-136 88.5q-117 119 -117 306q0 190 115 376q59 93 137 175.5t178 154.5q78 53 177.5 103.5t195.5 85.5q104 36 198.5 54.5t176.5 18.5q114 0 181.5 -55t67.5 -152zM1896 1118q0 86 -56.5 134t-152.5 48q-217 0 -461 -170q-117 -77 -213 -179.5t-176 -227.5
q-164 -256 -164 -483q0 -60 18.5 -108t52.5 -83t79 -54.5t100 -19.5q246 0 528 287q136 137 221 276.5t123 292.5q-16 -20 -39.5 -43.5l-52.5 -52.5q-82 -76 -110 -76q-13 0 -15 11q0 4 6.5 12t20.5 16q59 35 112.5 92.5t92.5 110.5q0 10 1 17.5t1 13.5q0 8 2 14v8
q0 99 -52.5 155t-140.5 56q-110 0 -230 -61.5t-249 -185.5q-129 -125 -193.5 -239t-64.5 -222q0 -58 36 -93.5t89 -35.5q141 0 324 202q92 103 137 195t45 170q0 100 -82 96q-21 0 -21 13q0 18 33 18q62 0 102 -49t40 -127q0 -178 -195 -367q-98 -92 -191.5 -138t-189.5 -46
q-74 0 -120 49t-46 133q0 117 67.5 239t192.5 238q129 119 260 180.5t258 61.5q174 0 258 -162q15 43 15 84z" />
    <glyph glyph-name="Ocircumflex" unicode="&#xd4;" horiz-adv-x="1665" 
d="M1845 1597q-4 -45 -7.5 -95t-3.5 -101v-15q0 -12 -10 -12q-8 0 -8 15q-8 41 -16.5 75.5t-18.5 63.5q-26 -19 -65 -39.5t-93 -46.5q-118 -58 -149 -56q-6 0 -6 7q0 6 10 12q129 72 221 142.5t148 146.5q4 4 7 2t3 -6zM1920 1128q0 -59 -26 -131q18 -65 18 -118
q0 -172 -96 -339t-274 -321q-74 -59 -156 -110.5t-163 -88t-160 -57t-146 -20.5q-186 0 -305 118q-117 121 -117 304q0 186 115 378q59 93 137 175.5t178 154.5q78 53 176.5 103.5t194.5 85.5q104 36 198.5 54.5t176.5 18.5q114 0 181.5 -55t67.5 -152zM1892 1120
q0 84 -56.5 132t-152.5 48q-219 0 -467 -170q-117 -77 -212 -179.5t-175 -227.5q-164 -256 -164 -483q0 -117 69.5 -191t182.5 -74q246 0 530 285q271 270 346 574q-16 -21 -39.5 -45.5t-56.5 -53.5q-78 -76 -108 -76q-13 0 -15 11q0 4 6.5 12t20.5 16q61 39 112.5 90.5
t92.5 112.5v-4q2 14 3 28.5t1 28.5q0 99 -52.5 155t-140.5 56q-225 0 -479 -247q-258 -250 -258 -461q0 -54 36 -91.5t87 -37.5q143 0 326 202q182 205 182 365q0 98 -80 96q-21 0 -21 13q0 18 33 18q62 0 100.5 -50t38.5 -128q0 -176 -194 -365q-98 -92 -191.5 -138
t-189.5 -46q-74 0 -120 49t-46 133q0 117 67.5 239t192.5 238q129 119 259 180.5t259 61.5q174 0 258 -162q15 43 15 86z" />
    <glyph glyph-name="Otilde" unicode="&#xd5;" horiz-adv-x="1669" 
d="M2060 1554q0 -8 -78 -51q-70 -39 -125 -39q-39 0 -119 25q-59 18 -86 18q-53 0 -117 -28q-8 -4 -14 0q-4 0 -4 6q0 20 84 55q78 33 121 33q35 0 112 -19q90 -22 115 -22q27 0 50.5 8t39.5 19q6 6 10 6q11 0 11 -11zM1924 1128q0 -59 -26 -131q18 -65 18 -116
q0 -174 -96 -341t-274 -321q-164 -135 -321 -205.5t-304 -70.5q-96 0 -171 29.5t-136 88.5q-117 119 -117 306q0 190 115 376q59 93 137 175.5t178 154.5q78 53 177.5 103.5t195.5 85.5q104 36 198.5 54.5t176.5 18.5q114 0 181.5 -55t67.5 -152zM1896 1118q0 86 -56.5 134
t-152.5 48q-217 0 -461 -170q-117 -77 -213 -179.5t-176 -227.5q-164 -256 -164 -483q0 -60 18.5 -108t52.5 -83t79 -54.5t100 -19.5q246 0 528 287q136 137 221 276.5t123 292.5q-16 -20 -39.5 -43.5l-52.5 -52.5q-82 -76 -110 -76q-13 0 -15 11q0 4 6.5 12t20.5 16
q59 35 112.5 92.5t92.5 110.5q0 10 1 17.5t1 13.5q0 8 2 14v8q0 99 -52.5 155t-140.5 56q-110 0 -230 -61.5t-249 -185.5q-129 -125 -193.5 -239t-64.5 -222q0 -58 36 -93.5t89 -35.5q141 0 324 202q92 103 137 195t45 170q0 100 -82 96q-21 0 -21 13q0 18 33 18
q62 0 102 -49t40 -127q0 -178 -195 -367q-98 -92 -191.5 -138t-189.5 -46q-74 0 -120 49t-46 133q0 117 67.5 239t192.5 238q129 119 260 180.5t258 61.5q174 0 258 -162q15 43 15 84z" />
    <glyph glyph-name="Ugrave" unicode="&#xd9;" horiz-adv-x="1990" 
d="M2074 1393q0 -13 -13 -13q-22 0 -90 86q-51 68 -86 183q0 4 4 8l109 59q4 2 7 -1t1 -7q-12 -53 -12 -94q0 -117 67 -203l9 -8q0 -2 1 -3t1 -3t2 -4zM2489 1190q-677 -930 -677 -1188q0 -65 44 -106t113 -41q137 0 234 102q18 18 26 18q15 0 15 -14q0 -10 -68 -65
q-96 -72 -215 -72q-121 0 -201 80q-80 86 -80 205q0 69 30 164.5t81 195.5q-96 -131 -175 -225t-138 -152q-78 -72 -144.5 -107.5t-132.5 -35.5q-94 0 -157 67q-66 66 -66 162q0 101 45 182q43 84 211 297q76 99 128 173.5t81 127.5q57 103 57 191q0 94 -67.5 146.5
t-184.5 52.5q-309 0 -587 -273q-281 -276 -281 -569q0 -107 59.5 -168.5t161.5 -61.5q111 0 216.5 71t201.5 202q59 86 91 169t32 150q0 66 -31 105t-82 39q-125 0 -264 -168q-141 -164 -141 -307q0 -107 80 -107h8q4 2 12 2q10 -6 10 -14q0 -17 -32 -17q-64 0 -102 49.5
t-38 127.5q0 71 39 152t111 155q76 76 151.5 116.5t151.5 40.5q160 0 160 -178q0 -100 -49.5 -204.5t-141.5 -208.5q-92 -99 -189.5 -153t-191.5 -54q-133 0 -223 96q-86 94 -86 240q0 141 77 277t224 263q152 125 315.5 191.5t329.5 66.5q86 0 157 -25.5t121 -73.5
t77.5 -115.5t27.5 -149.5q0 -109 -51 -205q-49 -100 -211 -305q-74 -98 -125 -167t-80 -118q-49 -84 -49 -133q0 -104 102 -104q82 0 211 110.5t281 300.5q119 158 260 364t285 437q2 2 8 2q27 -8 48.5 -11t37.5 -3q82 0 143 18z" />
    <glyph glyph-name="Uacute" unicode="&#xda;" horiz-adv-x="1990" 
d="M2428 1634q4 -4 -2 -10q-88 -55 -161 -96t-132 -68q-59 -24 -93 -38.5t-44 -12.5t-2 10q2 2 8 7.5t16 11.5q250 141 351 278q4 10 10 0zM2489 1190q-677 -930 -677 -1188q0 -65 44 -106t113 -41q137 0 234 102q18 18 26 18q15 0 15 -14q0 -10 -68 -65q-96 -72 -215 -72
q-121 0 -201 80q-80 86 -80 205q0 69 30 164.5t81 195.5q-96 -131 -175 -225t-138 -152q-78 -72 -144.5 -107.5t-132.5 -35.5q-94 0 -157 67q-66 66 -66 162q0 101 45 182q43 84 211 297q76 99 128 173.5t81 127.5q57 103 57 191q0 94 -67.5 146.5t-184.5 52.5
q-309 0 -587 -273q-281 -276 -281 -569q0 -107 59.5 -168.5t161.5 -61.5q111 0 216.5 71t201.5 202q59 86 91 169t32 150q0 66 -31 105t-82 39q-125 0 -264 -168q-141 -164 -141 -307q0 -107 80 -107h8q4 2 12 2q10 -6 10 -14q0 -17 -32 -17q-64 0 -102 49.5t-38 127.5
q0 71 39 152t111 155q76 76 151.5 116.5t151.5 40.5q160 0 160 -178q0 -100 -49.5 -204.5t-141.5 -208.5q-92 -99 -189.5 -153t-191.5 -54q-133 0 -223 96q-86 94 -86 240q0 141 77 277t224 263q152 125 315.5 191.5t329.5 66.5q86 0 157 -25.5t121 -73.5t77.5 -115.5
t27.5 -149.5q0 -109 -51 -205q-49 -100 -211 -305q-74 -98 -125 -167t-80 -118q-49 -84 -49 -133q0 -104 102 -104q82 0 211 110.5t281 300.5q119 158 260 364t285 437q2 2 8 2q27 -8 48.5 -11t37.5 -3q82 0 143 18z" />
    <glyph glyph-name="Yacute" unicode="&#xdd;" horiz-adv-x="1845" 
d="M2349 1094q0 -13 -23 -31q-88 -72 -169 -164t-146 -192q-60 -105 -137.5 -268t-163.5 -367q28 -54 44.5 -108t16.5 -107q0 -105 -53 -204t-148 -169q-26 -19 -55 -35t-63 -33q-74 -30 -105 -30q-14 0 -14 12t31 18q159 33 268 164q108 121 108 277q0 88 -47 180
q-59 -133 -132 -233.5t-161 -168.5q-65 -47 -148 -91t-165 -72q-180 -64 -340 -64q-96 0 -174 23.5t-132 67.5t-84 105.5t-30 139.5q0 195 172 342q86 74 199 126t258 81q10 41 25.5 73.5t31.5 65.5q21 31 56.5 78t89.5 111q170 204 233 315q66 115 66 209q0 205 -269 205
q-305 0 -602 -267q-297 -268 -297 -536q0 -107 69 -171.5t179 -64.5q199 0 400 199q204 205 204 391q0 64 -37.5 103.5t-97.5 39.5q-145 0 -301 -172q-160 -165 -160 -315q0 -86 93 -94q14 0 14 -10q0 -15 -19 -15q-63 0 -99 47t-36 125q0 178 156 320q158 145 348 145
q78 0 123 -47t45 -125q0 -213 -250 -444q-98 -88 -193.5 -132t-197.5 -44q-66 0 -121 24.5t-95 68.5t-61.5 104.5t-21.5 131.5q0 187 120 350.5t341 280.5q268 137 506 137q88 0 160.5 -24.5t124 -70.5t79 -110.5t27.5 -144.5q0 -59 -17.5 -117.5t-48.5 -115.5
q-30 -60 -92.5 -145t-148.5 -185q-23 -29 -52.5 -65.5t-72.5 -92.5q215 0 354 -63q47 49 139 161.5t234 294.5q106 138 250 275q73 72 121.5 104.5t68.5 32.5q25 0 25 -20zM1765 510q-27 -33 -51.5 -65.5t-46.5 -63.5q-27 -33 -57.5 -69t-71.5 -83q22 -12 36 -22q5 4 8 11
t5 11q20 41 37.5 69t40.5 62l24 33zM1179 27q103 0 309 196q-131 60 -350 60q-57 -90 -57 -148q0 -108 98 -108zM1187 -330q86 86 179.5 214t193.5 298q-8 8 -19.5 13.5t-25.5 13.5q-209 -211 -354 -211q-94 0 -153.5 61.5t-59.5 153.5q1 26 4 43q-127 -39 -222.5 -95.5
t-166.5 -129.5q-146 -156 -146 -344q0 -117 82 -181.5t232 -64.5q221 0 456 229zM2428 1634q4 -4 -2 -10q-89 -55 -161.5 -96t-131.5 -68q-60 -24 -93.5 -38.5t-44.5 -12.5q-10 2 -2 10q2 2 8.5 7.5t16.5 11.5q250 141 350 278q4 10 10 0z" />
    <glyph glyph-name="agrave" unicode="&#xe0;" 
d="M717 647q-7 -6 -11 -6q-24 0 -86 80q-24 35 -44.5 78t-37.5 96q0 4 4 8l103 55q8 5 8 -8q-4 -24 -7 -46.5t-3 -43.5q0 -108 65 -190q11 -11 11 -19zM985 328q0 -19 -148 -205q-120 -146 -217 -146q-59 0 -98 41t-39 101q0 8 1 16t3 19q-57 -86 -114.5 -131.5
t-110.5 -45.5q-35 0 -64.5 14.5t-52 40t-36 59.5t-13.5 73q0 127 154 256q75 57 156 93t151 36q90 0 90 -74q0 -12 -2 -16l49 84q2 2 6 2q35 -8 76 -8q16 0 45 2t70 6q10 0 6 -10l-133 -222q-154 -256 -154 -272q0 -29 35 -29q98 0 299 299h-2q14 27 31 27q12 0 12 -10z
M620 471q0 47 -41 47q-71 0 -207 -182q-133 -182 -133 -279q0 -47 39 -47q82 0 209 195q133 207 133 266z" />
    <glyph glyph-name="aacute" unicode="&#xe1;" 
d="M997 864q4 -4 -2 -10q-78 -51 -127 -81t-70 -40q-36 -20 -83.5 -40.5t-94.5 -37.5l-18 -6q-8 -4 -14 0q-5 0 -5 6q0 7 11 13q243 133 348 272q4 10 10 0zM985 328q0 -19 -148 -205q-120 -146 -217 -146q-59 0 -98 41t-39 101q0 8 1 16t3 19q-57 -86 -114.5 -131.5
t-110.5 -45.5q-35 0 -64.5 14.5t-52 40t-36 59.5t-13.5 73q0 127 154 256q75 57 156 93t151 36q90 0 90 -74q0 -12 -2 -16l49 84q2 2 8 2q33 -8 74 -8q16 0 45 2t70 6q10 0 6 -10l-133 -222q-154 -256 -154 -272q0 -29 35 -29q98 0 299 299h-2q14 27 31 27q12 0 12 -10z
M620 471q0 47 -41 47q-71 0 -207 -182q-133 -182 -133 -279q0 -47 39 -47q82 0 209 195q133 207 133 266z" />
    <glyph glyph-name="acircumflex" unicode="&#xe2;" 
d="M870 725l-4 -63v-13q0 -12 -8 -12l-4 2q-6 2 -6 12q-7 41 -15 74t-18 55q-23 -16 -63 -36.5t-87 -45.5q-116 -53 -139 -51q-4 0 -5 5t3 7l6 5q4 4 11.5 8t17.5 12q219 129 317 254q4 4 7.5 3t3.5 -5zM985 328q0 -19 -148 -205q-120 -146 -217 -146q-59 0 -98 41t-39 101
q0 8 1 16t3 19q-57 -86 -114.5 -131.5t-110.5 -45.5q-35 0 -64.5 14.5t-52 40t-36 59.5t-13.5 73q0 127 154 256q75 57 156 93t151 36q90 0 90 -74q0 -12 -2 -16l49 84q2 2 6 2q35 -8 76 -8q16 0 45 2t70 6q10 0 6 -10l-133 -222q-154 -256 -154 -272q0 -29 35 -29
q98 0 299 299h-2q14 27 31 27q12 0 12 -10zM620 471q0 47 -41 47q-71 0 -207 -182q-133 -182 -133 -279q0 -47 39 -47q82 0 209 195q133 207 133 266z" />
    <glyph glyph-name="atilde" unicode="&#xe3;" 
d="M1022 770q0 -2 -35 -25q-103 -59 -158 -59q-35 0 -115 23q-55 16 -77 16q-64 0 -111 -27q-8 -4 -14 0q-4 0 -4 7q0 18 77 53q35 12 66 21t49 9q31 0 109 -18q82 -18 106 -18q47 0 88 26h4l4 2q11 0 11 -10zM985 328q0 -19 -148 -205q-120 -146 -217 -146q-59 0 -98 41
t-39 101q0 8 1 16t3 19q-57 -86 -114.5 -131.5t-110.5 -45.5q-35 0 -64.5 14.5t-52 40t-36 59.5t-13.5 73q0 127 154 256q75 57 156 93t151 36q90 0 90 -74q0 -12 -2 -16l49 84q2 2 8 2q33 -8 74 -8q16 0 45 2t70 6q10 0 6 -10l-133 -222q-154 -256 -154 -272q0 -29 35 -29
q98 0 299 299h-2q14 27 31 27q12 0 12 -10zM620 471q0 47 -41 47q-71 0 -207 -182q-133 -182 -133 -279q0 -47 39 -47q82 0 209 195q133 207 133 266z" />
    <glyph glyph-name="egrave" unicode="&#xe8;" horiz-adv-x="581" 
d="M634 647q-6 -6 -10 -6q-26 0 -88 80q-24 35 -44.5 78t-35.5 96q0 4 4 8l101 55q8 5 8 -8q-4 -24 -7 -46.5t-3 -43.5q0 -110 67 -190q10 -11 10 -19zM772 328q0 -4 -14.5 -26.5t-37.5 -51.5q-22 -31 -43.5 -56.5t-38.5 -46.5q-165 -170 -305 -170q-98 0 -162.5 57.5
t-64.5 143.5q0 129 145 248q148 123 301 123q54 0 88.5 -25.5t34.5 -64.5q0 -135 -368 -215q-23 -41 -36 -82t-13 -76q0 -80 90 -80q182 0 383 305h-2q14 27 30 27q13 0 13 -10zM571 500q0 24 -29 24q-43 0 -97 -61.5t-126 -190.5q57 17 101 40.5t73 52.5q78 77 78 135z" />
    <glyph glyph-name="eacute" unicode="&#xe9;" horiz-adv-x="581" 
d="M970 864q4 -4 -2 -10q-78 -51 -127 -81t-69 -40q-37 -20 -84 -40.5t-95 -37.5l-18 -6q-8 -4 -14 0q-4 0 -4 6q0 7 10 13q248 137 348 272q4 10 10 0zM772 328q0 -4 -14.5 -26.5t-37.5 -51.5q-20 -31 -41.5 -56.5t-40.5 -46.5q-165 -170 -303 -170q-100 0 -164.5 57.5
t-64.5 143.5q0 127 145 248q150 123 301 123q54 0 89.5 -25.5t35.5 -64.5q0 -135 -368 -215q-51 -86 -51 -158q0 -80 92 -80q180 0 381 305h-2q14 27 30 27q13 0 13 -10zM571 500q0 24 -29 24q-41 0 -95 -61.5t-126 -190.5q55 17 100 40.5t74 52.5q37 38 56.5 71t19.5 64z
" />
    <glyph glyph-name="ecircumflex" unicode="&#xea;" horiz-adv-x="581" 
d="M741 725l-6 -63v-13q0 -12 -8 -12l-5 2q-6 2 -6 12q-6 41 -14 74t-18 55q-23 -16 -62 -36.5t-88 -45.5q-55 -26 -89 -39.5t-50 -11.5q-4 0 -5 5t3 7q2 0 8 5q4 4 11 8t18 12q110 66 189 129.5t128 124.5q4 4 7 3t3 -5zM772 328q0 -4 -14.5 -26.5t-37.5 -51.5
q-22 -31 -43.5 -56.5t-38.5 -46.5q-165 -170 -305 -170q-98 0 -162.5 57.5t-64.5 143.5q0 129 145 248q148 123 301 123q54 0 88.5 -25.5t34.5 -64.5q0 -135 -368 -215q-23 -41 -36 -82t-13 -76q0 -80 90 -80q182 0 383 305h-2q14 27 30 27q13 0 13 -10zM571 500
q0 24 -29 24q-43 0 -97 -61.5t-126 -190.5q57 17 101 40.5t73 52.5q78 77 78 135z" />
    <glyph glyph-name="igrave" unicode="&#xec;" horiz-adv-x="391" 
d="M491 647q-6 -6 -11 -6q-28 0 -86 80q-24 35 -44.5 78t-37.5 96q0 4 5 8l102 55q6 7 6 -8q-4 -24 -6 -46.5t-2 -43.5q0 -112 65 -190q11 -11 11 -19zM581 328q0 -21 -148 -205q-116 -146 -219 -146q-57 0 -96 42t-39 102q0 74 68 184l145 246q2 2 8 2q37 -10 86 -10
q23 0 48.5 3t56.5 7q10 0 6 -10l-240 -406q-47 -82 -47 -96q0 -29 33 -29q96 0 297 299h-2q14 27 30 27q13 0 13 -10z" />
    <glyph glyph-name="iacute" unicode="&#xed;" horiz-adv-x="391" 
d="M826 864q3 -2 1.5 -5t-1.5 -5q-77 -51 -127.5 -81t-68.5 -40q-37 -20 -84 -40.5t-94 -37.5l-19 -6q-8 -4 -14 0q-4 0 -4 6q0 7 10 13q244 133 348 272q4 10 10 0zM581 328q0 -13 -37 -63t-109 -142q-121 -146 -221 -146q-55 0 -94 42t-39 102q0 72 66 184l147 246
q2 2 8 2q35 -10 84 -10q23 0 49.5 3t55.5 7q10 0 6 -10l-238 -406q-49 -80 -49 -96q0 -29 33 -29q96 0 297 299h-2q14 27 30 27q13 0 13 -10z" />
    <glyph glyph-name="ograve" unicode="&#xf2;" horiz-adv-x="618" 
d="M641 647q-6 -6 -10 -6q-27 0 -89 80q-49 67 -79 174q0 4 4 8l100 55q8 5 8 -8q-4 -24 -7 -46.5t-3 -43.5q0 -110 68 -190q10 -11 10 -19zM809 328q0 -11 -17.5 -34.5t-48.5 -55.5q-41 -45 -79 -70t-72 -25q-29 0 -54 13q-135 -179 -260 -179q-78 0 -130 54.5t-52 136.5
q0 131 154 254q155 127 309 127q106 0 106 -98q0 -58 -26.5 -124.5t-85.5 -148.5q10 -4 17 -7t18 -3q77 0 180 143h-2q14 27 30 27q13 0 13 -10zM641 446q0 72 -66 72q-76 0 -203 -180q-133 -193 -133 -275q0 -53 60 -53q98 0 219 162q-33 35 -33 84q0 59 41 119
q41 59 86 59q4 0 13.5 -3t13.5 -5q2 8 2 20z" />
    <glyph glyph-name="oacute" unicode="&#xf3;" horiz-adv-x="618" 
d="M1014 864q4 -4 -3 -10q-77 -51 -126.5 -81t-69.5 -40q-37 -20 -84 -40.5t-94 -37.5l-19 -6q-8 -4 -14 0q-4 0 -4 6q0 7 10 13q244 133 348 272q4 10 10 0zM809 328q0 -11 -17.5 -34.5t-48.5 -55.5q-39 -45 -78 -70t-73 -25q-29 0 -54 13q-135 -179 -260 -179
q-78 0 -130 54.5t-52 136.5q0 127 154 254q157 127 309 127q108 0 108 -98q0 -113 -114 -273q10 -4 17 -7t18 -3q79 0 180 143h-2q14 27 30 27q13 0 13 -10zM641 446q0 72 -66 72q-76 0 -203 -180q-133 -193 -133 -275q0 -53 60 -53q96 0 221 162q-33 35 -33 84q0 59 41 119
q39 59 84 59q4 0 13.5 -3t13.5 -5q2 8 2 20z" />
    <glyph glyph-name="ocircumflex" unicode="&#xf4;" horiz-adv-x="618" 
d="M762 725l-7 -63v-13q0 -12 -8 -12l-4 2q-6 2 -6 12q-6 41 -14.5 74t-18.5 55q-22 -16 -61 -36.5t-88 -45.5q-56 -26 -89.5 -39.5t-50.5 -11.5q-4 0 -5 5t3 7q2 0 9 5q4 4 11 8t17 12q111 66 190 129.5t128 124.5q4 4 7 3t3 -5zM809 328q0 -11 -17.5 -34.5t-48.5 -55.5
q-41 -45 -79 -70t-72 -25q-29 0 -54 13q-135 -179 -260 -179q-78 0 -130 54.5t-52 136.5q0 131 154 254q155 127 309 127q106 0 106 -98q0 -58 -26.5 -124.5t-85.5 -148.5q10 -4 17 -7t18 -3q77 0 180 143h-2q14 27 30 27q13 0 13 -10zM641 446q0 72 -66 72q-76 0 -203 -180
q-133 -193 -133 -275q0 -53 60 -53q98 0 219 162q-33 35 -33 84q0 59 41 119q41 59 86 59q4 0 13.5 -3t13.5 -5q2 8 2 20z" />
    <glyph glyph-name="otilde" unicode="&#xf5;" horiz-adv-x="618" 
d="M909 770q0 -2 -35 -25q-100 -59 -157 -59q-33 0 -113 23q-59 16 -80 16q-59 0 -111 -27q-8 -4 -14 0q-4 0 -4 7q0 18 80 53q33 12 63.5 21t49.5 9q34 0 108 -18q82 -18 109 -18q45 0 86 26h4l4 2q10 0 10 -10zM809 328q0 -11 -17.5 -34.5t-48.5 -55.5q-41 -45 -79 -70
t-72 -25q-29 0 -54 13q-135 -179 -260 -179q-78 0 -130 54.5t-52 136.5q0 127 154 254q155 127 309 127q108 0 108 -98q0 -113 -114 -273q10 -4 17 -7t18 -3q77 0 180 143h-2q14 27 30 27q13 0 13 -10zM641 446q0 72 -66 72q-76 0 -203 -180q-133 -193 -133 -275
q0 -53 60 -53q98 0 219 162q-31 37 -31 84q0 59 39 119q41 59 86 59q4 0 13.5 -3t13.5 -5q2 8 2 20z" />
    <glyph glyph-name="divide" unicode="&#xf7;" horiz-adv-x="1706" 
 />
    <glyph glyph-name="glyph218" unicode="&#xf9;" horiz-adv-x="765" 
d="M724 647q-6 -6 -10 -6q-24 0 -86 80q-24 35 -44.5 78t-37.5 96q0 4 4 8l103 55q8 5 8 -8q-4 -24 -7 -46.5t-3 -43.5q0 -108 65 -190q11 -11 11 -19zM954 328q0 -19 -148 -205q-120 -146 -217 -146q-59 0 -99 43t-40 103q0 10 2 22.5t6 24.5q-147 -193 -260 -193
q-55 0 -94 41t-39 101q0 69 70 182l77 131v-2l7 12q4 9 11 20t11 19l12 21l-2 -2l23 41q4 4 8 4q21 -4 44.5 -6t47.5 -2q23 0 47.5 2t49.5 6q4 2 7 -2t1 -8l-152 -259q-57 -98 -92 -161.5t-35 -77.5q0 -25 29 -25q135 0 434 529q4 4 8 4q27 -8 84 -8q23 0 49.5 2t57.5 6
q10 0 6 -10l-119 -195q-84 -137 -126 -211t-42 -90q0 -27 33 -27q98 0 299 299h-2q14 27 31 27q12 0 12 -10z" />
    <glyph glyph-name="glyph219" unicode="&#xfa;" horiz-adv-x="765" 
d="M1015 864q4 -4 -2 -10q-78 -51 -127 -81t-69 -40q-37 -20 -84 -40.5t-95 -37.5l-18 -6q-8 -4 -14 0q-4 0 -4 6q0 7 10 13q244 133 348 272q4 10 10 0zM954 328q0 -19 -148 -205q-120 -146 -217 -146q-57 0 -98 43t-41 103q0 10 2 22.5t6 24.5q-147 -193 -260 -193
q-55 0 -94 41t-39 101q0 69 70 182l77 131v-2l7 12q4 9 11 20t11 19l12 21l-2 -2l23 41q4 4 8 4q21 -4 44.5 -6t47.5 -2q23 0 47.5 2t49.5 6q4 2 7 -2t1 -8l-152 -259q-57 -98 -92 -161.5t-35 -77.5q0 -25 29 -25q135 0 434 529q4 4 8 4q31 -8 84 -8q23 0 49.5 2t59.5 6
q6 0 6 -10l-121 -195q-84 -137 -126 -211t-42 -90q0 -27 33 -27q98 0 299 299h-2q14 27 31 27q12 0 12 -10z" />
    <glyph glyph-name="glyph236" unicode="&#xfd;" horiz-adv-x="768" 
d="M1027 864q4 -4 -2 -10q-78 -51 -127 -81t-70 -40q-37 -20 -84 -40.5t-94 -37.5l-18 -6q-9 -4 -15 0q-4 0 -4 6q0 7 10 13q248 137 349 272q4 10 10 0zM955 328q0 -6 -2 -11l-14 -20q-168 -254 -395 -330q-56 -92 -106 -169t-85 -128q-33 -45 -74 -88t-90 -90
q-53 -47 -108.5 -85t-118.5 -69q-123 -61 -215 -61q-72 0 -120 52.5t-48 131.5q0 185 244 324q65 39 198 80t310 78l110 204q-133 -170 -241 -170q-58 0 -96 42t-38 102q0 57 70 178q16 31 38.5 66.5t39.5 64.5q12 21 26.5 48.5t32.5 62.5q4 4 8 4q21 -4 44.5 -6t52.5 -2
q51 0 92 8q4 2 7 -2t1 -8l-151 -259q-58 -98 -91.5 -161.5t-33.5 -77.5q0 -25 28 -25q133 0 434 529q5 4 9 4q30 -8 82 -8q22 0 49.5 2t60.5 6q10 0 6 -10l-110 -181l-138 -237l-61 -113q205 90 354 307h-2q13 27 29 27q12 0 12 -10zM316 -86q-143 -29 -256.5 -80
t-206.5 -123q-190 -147 -190 -305q0 -104 92 -104q115 0 230 118q116 119 286 418z" />
    <glyph glyph-name="Abreve" unicode="&#x102;" horiz-adv-x="2121" 
d="M2995 1203q0 -30 -32 -30q-9 0 -54 12q-10 0 -20 3t-25 7q-86 25 -149 29q-70 -25 -129.5 -69t-104.5 -103q-47 -60 -101 -169.5t-120 -264.5q-57 -136 -126.5 -244.5t-149.5 -175.5q-154 -133 -408 -199q62 -8 110 -11t79 -3q145 0 258 69q55 35 115.5 98.5t115.5 143.5
q18 29 29 29q12 0 12 -13q0 -24 -109 -147q-53 -59 -100 -102t-94 -66q-86 -43 -225 -43q-60 0 -126.5 7t-144.5 22q-78 -19 -137 -19q-76 0 -76 35t64 35q51 0 153 -23q148 43 230 127q39 41 112.5 150.5t184.5 286.5h-322l-72 -78q-507 -545 -954 -545q-98 0 -175 27.5
t-138 83.5q-119 110 -119 290q0 228 195 441q194 213 444 262q86 155 254 258q166 100 338 100q108 0 171.5 -56t63.5 -153q0 -61 -47 -145q-43 -86 -43 -119q0 -29 23.5 -49.5t58.5 -20.5q47 0 102.5 40t90.5 96q18 24 28 24q15 0 15 -14q0 -23 -62 -86q-90 -90 -178 -90
q-65 0 -109.5 47t-44.5 117q0 57 72 194q25 45 25 78q0 45 -47 74.5t-123 29.5t-155 -25.5t-157 -68.5q-73 -47 -133.5 -103.5t-103.5 -121.5q16 2 36.5 3t30.5 1q154 0 245 -90t91 -242v-32q60 40 98 88.5t64 105.5q4 8 9 14.5t10 6.5q14 0 14 -17q0 -39 -66 -117
q-34 -41 -67 -71.5t-68 -52.5q-39 -191 -203 -343q-163 -151 -346 -151q-53 0 -99 19.5t-80 53t-52.5 80t-18.5 99.5q0 123 89 242q90 122 217 182q0 88 34 170q-104 -35 -192 -102.5t-166 -168.5q-158 -211 -158 -419q0 -156 89.5 -246t244.5 -90q256 0 527 233
q55 47 142 135t208 222h-193q-15 -3 -4 10l14 18q0 2 5 2h206l13 13q317 317 605 474.5t529 161.5q35 7 63.5 10t47.5 3q151 0 151 -64zM2044 608q148 250 294.5 404.5t289.5 210.5q-195 -23 -375 -140q-104 -69 -232 -186t-288 -289h311zM1274 764q0 131 -71.5 201.5
t-200.5 70.5q-27 0 -51.5 -2t-49.5 -8q-45 -86 -45 -168q107 43 176 43q17 0 17 -14q0 -15 -35 -19q-45 -8 -83 -18t-73 -23q9 -96 70 -153.5t162 -57.5q76 0 168 48q16 59 16 100zM1245 623zM1039 330q69 59 120.5 133t85.5 160q-40 -17 -79 -25t-80 -8q-113 0 -176.5 53
t-79.5 170q-60 -31 -108 -75t-89 -97q-37 -53 -57.5 -110.5t-20.5 -112.5q0 -94 60.5 -155.5t152.5 -61.5q129 0 271 129zM2972 1542q-4 -13 -41 -57q-117 -133 -269 -133q-166 0 -133 129q19 73 38 73q9 0 4 -19l-3 -12q-17 -81 130 -81q173 0 247 96q15 16 21 16l4 -2
q3 -4 2 -10z" />
    <glyph glyph-name="abreve" unicode="&#x103;" 
d="M985 328q0 -19 -148 -205q-120 -146 -217 -146q-59 0 -98 41t-39 101q0 8 1 16t3 19q-57 -86 -114.5 -131.5t-110.5 -45.5q-35 0 -64.5 14.5t-52 40t-36 59.5t-13.5 73q0 127 154 256q75 57 156 93t151 36q90 0 90 -74q0 -12 -2 -16l49 84q2 2 6 2q35 -8 76 -8q16 0 45 2
t70 6q10 0 6 -10l-133 -222q-154 -256 -154 -272q0 -29 35 -29q98 0 299 299h-2q14 27 31 27q12 0 12 -10zM620 471q0 47 -41 47q-71 0 -207 -182q-133 -182 -133 -279q0 -47 39 -47q82 0 209 195q133 207 133 266zM1004 818q-4 -13 -41 -57q-117 -133 -269 -133
q-166 0 -133 129q19 73 38 73q9 0 4 -19l-3 -12q-17 -81 130 -81q173 0 247 96q15 16 21 16l4 -2q3 -4 2 -10z" />
    <glyph glyph-name="Ccaron" unicode="&#x10c;" horiz-adv-x="1274" 
 />
    <glyph glyph-name="ccaron" unicode="&#x10d;" horiz-adv-x="922" 
 />
    <glyph glyph-name="Dslash" unicode="&#x110;" horiz-adv-x="1830" 
d="M2561 1012q0 -146 -36 -146q-13 0 -13 13q0 6 2 10q8 31 11.5 60.5t3.5 58.5q0 129 -72 206.5t-197 77.5q-209 0 -422 -213q113 -180 113 -389q0 -325 -256 -540q-256 -211 -649 -211q-80 0 -169 8t-181 24q-74 -16 -149 -24t-146 -8q-289 0 -289 71q0 41 61.5 68.5
t149.5 27.5q55 0 137 -14t180 -43l119 -33q76 31 140.5 71t109.5 85q59 66 287 367l16 22h-106q-11 0 -4 10l12 21q0 2 4 2h119q110 154 222 283t220 221q-156 211 -455 211q-198 0 -391 -99q-198 -98 -336 -262q-204 -246 -204 -465q0 -104 60 -166.5t163 -62.5
q198 0 391 188q45 47 84 98.5t68 106.5q59 115 59 199q0 141 -117 141q-131 0 -289 -174q-151 -174 -151 -324q0 -112 88 -112h8q12 0 12 -12q0 -15 -28 -15q-33 0 -60.5 14.5t-49 40t-34 60.5t-12.5 74q0 161 170 317q86 82 171 122t169 40q72 0 113 -47t41 -129
q0 -217 -211 -418q-207 -201 -432 -201q-142 0 -232 96q-47 48 -67.5 108t-20.5 134q0 301 307 541q156 123 329 182t366 59q170 0 300 -54t220 -169q252 203 452 203q142 0 221.5 -84t79.5 -227zM1865 813q0 141 -55 238q-64 -72 -129.5 -187.5t-134.5 -269.5h196
q15 0 4 -10l-18 -21l-4 -2h-195q-94 -248 -252 -368q-151 -117 -448 -193q4 0 7 -2t7 -2q86 -25 240 -25q309 0 504 201q131 135 204.5 304t73.5 337zM384 -31q60 0 119.5 4t114.5 13q-287 43 -352 43q-119 0 -119 -23q0 -37 237 -37z" />
    <glyph glyph-name="dcroat" unicode="&#x111;" horiz-adv-x="794" 
d="M805 385l-105 -176v2l-59 -105q-33 -53 -33 -67q0 -27 35 -27q96 0 297 299h-2q14 27 30 27q13 0 13 -10q0 -21 -148 -205q-116 -146 -217 -146q-57 0 -95 40t-38 102v17t4 20q-121 -179 -223 -179q-70 0 -119 54.5t-49 132.5q0 65 38 127.5t116 128.5q155 129 305 129
q92 0 92 -80q0 -6 2 -4q-2 -2 -2 -6l367 612q2 2 8 2q37 -10 75 -10q15 0 44.5 4t72.5 12q12 0 8 -10zM620 469q0 49 -41 49q-69 0 -204 -184q-134 -178 -134 -279q0 -45 39 -45q41 0 92.5 48t110.5 139q66 100 101.5 170.5t35.5 101.5zM1216 763q-6 -9 -13 -9h-667
q-8 0 -2 9l16 24q6 10 14 10h667q7 0 1 -10z" />
    <glyph glyph-name="Itilde" unicode="&#x128;" horiz-adv-x="1492" 
d="M2229 1329q0 -47 -272 -129q-57 -45 -111.5 -106.5t-101.5 -135.5q-41 -73 -92 -180.5t-103 -242.5q125 8 224 92q98 88 108 211q0 12 15 12q14 0 14 -16q0 -123 -117 -222q-57 -47 -120.5 -73.5t-135.5 -30.5q-65 -156 -161.5 -265.5t-219.5 -172.5q-106 -52 -250 -86
q-71 -17 -140 -26t-130 -9q-186 0 -309 104q-119 101 -119 271q0 206 195 374q194 170 432 170q147 0 232 -74.5t85 -205.5q0 -189 -147 -348q-142 -156 -318 -156q-108 0 -175.5 67.5t-67.5 174.5q0 67 32.5 130.5t91.5 116.5q66 54 135.5 82.5t147.5 28.5q25 0 50.5 -8
t46 -22.5t33.5 -31t13 -30.5q-6 -10 -12 -10q-8 0 -18 16q-35 53 -109 53q-117 0 -231 -114q-113 -117 -113 -234q0 -84 50 -134t134 -50q78 0 152 35.5t139 109.5q135 144 135 326q0 112 -69.5 176.5t-190.5 64.5q-209 0 -391 -182q-182 -178 -182 -389q0 -61 24.5 -112.5
t67.5 -87t103.5 -56t132.5 -20.5q362 0 682 493l40 62q-178 75 -178 256q0 180 189 280q59 29 168.5 57.5t271.5 57.5q47 6 82 14t53 13l21 6q90 63 155.5 93t106.5 30q22 0 22 -17zM1353 565q248 393 543 619q-123 -31 -213.5 -60.5t-145.5 -52.5q-149 -72 -231 -154.5
t-82 -171.5q0 -127 129 -180zM2365 1554q0 -8 -78 -51q-70 -39 -125 -39q-39 0 -119 25q-59 18 -86 18q-53 0 -117 -28q-8 -4 -14 0q-4 0 -4 6q0 20 84 55q78 33 119 33q36 0 114 -19q90 -22 115 -22q27 0 50.5 8t39.5 19q6 6 10 6q11 0 11 -11z" />
    <glyph glyph-name="itilde" unicode="&#x129;" horiz-adv-x="391" 
d="M581 328q0 -21 -148 -205q-116 -146 -219 -146q-57 0 -95 42t-38 102q0 78 66 184l145 246q2 2 8 2q37 -10 86 -10q23 0 48.5 3t56.5 7q10 0 6 -10l-240 -406q-47 -82 -47 -96q0 -29 33 -29q96 0 297 299h-2q14 27 30 27q13 0 13 -10zM786 770q0 -2 -35 -25
q-102 -59 -157 -59q-35 0 -115 23q-55 16 -78 16q-63 0 -111 -27q-8 -4 -14 0q-4 0 -4 7q0 18 78 53q35 12 65.5 21t48.5 9q31 0 109 -18q82 -18 107 -18q47 0 88 26h4l4 2q10 0 10 -10z" />
    <glyph glyph-name="Utilde" unicode="&#x168;" horiz-adv-x="1990" 
d="M2489 1190q-677 -930 -677 -1188q0 -65 44 -106t113 -41q137 0 234 102q18 18 26 18q15 0 15 -14q0 -10 -68 -65q-96 -72 -215 -72q-121 0 -201 80q-80 86 -80 205q0 69 30 164.5t81 195.5q-96 -131 -175 -225t-138 -152q-78 -72 -144.5 -107.5t-132.5 -35.5
q-94 0 -157 67q-66 66 -66 162q0 101 45 182q43 84 211 297q76 99 128 173.5t81 127.5q57 103 57 191q0 94 -67.5 146.5t-184.5 52.5q-309 0 -587 -273q-281 -276 -281 -569q0 -107 59.5 -168.5t161.5 -61.5q111 0 216.5 71t201.5 202q59 86 91 169t32 150q0 66 -31 105
t-82 39q-125 0 -264 -168q-141 -164 -141 -307q0 -107 80 -107h8q4 2 12 2q10 -6 10 -14q0 -17 -32 -17q-64 0 -102 49.5t-38 127.5q0 71 39 152t111 155q76 76 151.5 116.5t151.5 40.5q160 0 160 -178q0 -100 -49.5 -204.5t-141.5 -208.5q-92 -99 -189.5 -153t-191.5 -54
q-133 0 -223 96q-86 94 -86 240q0 141 77 277t224 263q152 125 315.5 191.5t329.5 66.5q86 0 157 -25.5t121 -73.5t77.5 -115.5t27.5 -149.5q0 -109 -51 -205q-49 -100 -211 -305q-74 -98 -125 -167t-80 -118q-49 -84 -49 -133q0 -104 102 -104q82 0 211 110.5t281 300.5
q119 158 260 364t285 437q2 2 8 2q27 -8 48.5 -11t37.5 -3q82 0 143 18zM2388 1554q0 -8 -77 -51q-70 -39 -125 -39q-39 0 -119 25q-60 18 -86 18q-53 0 -117 -28q-8 -4 -14 0q-4 0 -4 6q0 20 84 55q77 33 120 33q35 0 113 -19q90 -22 115 -22q26 0 50 8t40 19q6 6 10 6
q10 0 10 -11z" />
    <glyph glyph-name="utilde" unicode="&#x169;" horiz-adv-x="765" 
d="M954 328q0 -19 -148 -205q-120 -146 -217 -146q-59 0 -99 43t-40 103q0 10 2 22.5t6 24.5q-147 -193 -260 -193q-55 0 -94 41t-39 101q0 69 70 182l77 131v-2l7 12q4 9 11 20t11 19l12 21l-2 -2l23 41q4 4 8 4q21 -4 44.5 -6t47.5 -2q23 0 47.5 2t49.5 6q4 2 7 -2t1 -8
l-152 -259q-57 -98 -92 -161.5t-35 -77.5q0 -25 29 -25q135 0 434 529q4 4 8 4q27 -8 84 -8q23 0 49.5 2t57.5 6q10 0 6 -10l-119 -195q-84 -137 -126 -211t-42 -90q0 -27 33 -27q98 0 299 299h-2q14 27 31 27q12 0 12 -10zM909 770q0 -2 -35 -25q-100 -59 -158 -59
q-33 0 -112 23q-60 16 -80 16q-60 0 -111 -27q-8 -4 -14 0q-4 0 -4 7q0 18 80 53q32 12 63 21t49 9q35 0 109 -18q82 -18 108 -18q45 0 86 26h4l5 2q10 0 10 -10z" />
    <glyph glyph-name="Ohorn" unicode="&#x1a0;" horiz-adv-x="1669" 
d="M1925 1128q0 -59 -27 -131q18 -65 18 -116q0 -174 -96 -341t-274 -321q-164 -135 -321 -205.5t-304 -70.5q-96 0 -171 29.5t-136 88.5q-119 123 -119 306q0 186 117 376q59 93 137 175.5t178 154.5q78 53 177.5 103.5t195.5 85.5q104 36 198.5 54.5t176.5 18.5
q114 0 182 -55t68 -152zM1896 1118q0 86 -56.5 134t-152.5 48q-111 0 -225.5 -41.5t-237.5 -128.5q-117 -77 -212 -179.5t-175 -227.5q-164 -252 -164 -483q0 -60 18.5 -108t52.5 -83t79 -54.5t100 -19.5q246 0 526 287q138 137 223 276.5t123 292.5q-16 -20 -40.5 -43.5
t-53.5 -52.5q-78 -76 -108 -76q-13 0 -15 11q0 4 6.5 12t20.5 16q59 35 112.5 92.5t92.5 110.5q0 10 1 17.5t1 13.5q0 8 2 14v8q0 99 -52.5 155t-140.5 56q-225 0 -479 -247q-258 -250 -258 -461q0 -58 36 -93.5t89 -35.5q139 0 324 202q182 205 182 365q0 100 -82 96
q-20 0 -20 13q0 18 32 18q62 0 102 -49t40 -127q0 -178 -195 -367q-98 -92 -191.5 -138t-189.5 -46q-74 0 -120 49t-46 133q0 117 67.5 239t192.5 238q129 119 259 180.5t259 61.5q175 0 258 -162q15 43 15 84zM2196 1397q0 -65 -55.5 -144t-139.5 -134q-94 -64 -117 -64
q-12 0 -14 11q0 10 12.5 17t34.5 17q49 23 84 55.5t35 55.5q0 2 -8 2q-4 -2 -13 -2q-57 0 -57 70q0 55 57 120q62 68 115 68q66 0 66 -72z" />
    <glyph glyph-name="ohorn" unicode="&#x1a1;" horiz-adv-x="618" 
d="M641 446q0 72 -66 72q-75 0 -202 -180q-133 -193 -133 -275q0 -53 59 -53q98 0 219 162q-33 35 -33 84q0 59 41 119q41 59 86 59q4 0 13.5 -3t13.5 -5q2 8 2 20zM662 407q-6 -39 -23 -80q-27 -67 -86 -149l17.5 -7t17.5 -3q78 0 180 143h-2q14 27 31 27q12 0 12 -10
q0 -11 -17.5 -34.5t-48.5 -55.5q-41 -45 -78.5 -70t-72.5 -25q-29 0 -53 13q-136 -179 -260 -179q-78 0 -130.5 54.5t-52.5 136.5q0 131 154 254q156 127 309 127q107 0 107 -98q0 -8 -1 -16q28 15 50 35q28 26 28 44q0 2 -7 2q-3 -2 -10 -2q-46 0 -46 57q0 44 46 96
q50 55 92 55q53 0 53 -58q0 -52 -44.5 -115.5t-112.5 -108.5q-30 -21 -52 -33z" />
    <glyph glyph-name="Uhorn" unicode="&#x1af;" horiz-adv-x="1990" 
d="M2489 1190q-677 -930 -677 -1188q0 -65 44 -106t113 -41q137 0 234 102q18 18 26 18q15 0 15 -14q0 -10 -68 -65q-96 -72 -215 -72q-121 0 -201 80q-80 86 -80 205q0 69 30 164.5t81 195.5q-96 -131 -175 -225t-138 -152q-78 -72 -144.5 -107.5t-132.5 -35.5
q-94 0 -157 67q-66 66 -66 162q0 101 45 182q43 84 211 297q76 99 128 173.5t81 127.5q57 103 57 191q0 94 -67.5 146.5t-184.5 52.5q-309 0 -587 -273q-281 -276 -281 -569q0 -107 59.5 -168.5t161.5 -61.5q111 0 216.5 71t201.5 202q59 86 91 169t32 150q0 66 -31 105
t-82 39q-125 0 -264 -168q-141 -164 -141 -307q0 -107 80 -107h8q4 2 12 2q10 -6 10 -14q0 -17 -32 -17q-64 0 -102 49.5t-38 127.5q0 71 39 152t111 155q76 76 151.5 116.5t151.5 40.5q160 0 160 -178q0 -100 -49.5 -204.5t-141.5 -208.5q-92 -99 -189.5 -153t-191.5 -54
q-133 0 -223 96q-86 94 -86 240q0 141 77 277t224 263q152 125 315.5 191.5t329.5 66.5q86 0 157 -25.5t121 -73.5t77.5 -115.5t27.5 -149.5q0 -109 -51 -205q-49 -100 -211 -305q-74 -98 -125 -167t-80 -118q-49 -84 -49 -133q0 -104 102 -104q82 0 211 110.5t281 300.5
q119 158 260 364t285 437q2 2 8 2q27 -8 48.5 -11t37.5 -3q82 0 143 18zM2712 1397q0 -65 -55.5 -144t-139.5 -134q-94 -64 -117 -64q-12 0 -14 11q0 10 12.5 17t34.5 17q49 23 84 55.5t35 55.5q0 2 -8 2q-4 -2 -13 -2q-57 0 -57 70q0 55 57 120q62 68 115 68q66 0 66 -72z
" />
    <glyph glyph-name="uhorn" unicode="&#x1b0;" horiz-adv-x="765" 
d="M781 392l-32 -52q-84 -137 -126 -211t-42 -90q0 -27 32 -27q99 0 299 299h-2q15 27 31 27q12 0 12 -10q0 -19 -147 -205q-121 -146 -217 -146q-60 0 -99.5 43t-39.5 103q0 10 2 22.5t6 24.5q-148 -193 -260 -193q-56 0 -94.5 41t-38.5 101q0 69 69 182l78 131v-2l6 12
q4 9 11.5 20t11.5 19l12 21l-2 -2l22 41q5 4 9 4q20 -4 43.5 -6t48.5 -2q22 0 46.5 2t49.5 6q4 2 7 -2t1 -8l-151 -259q-58 -98 -92.5 -161.5t-34.5 -77.5q0 -25 28 -25q136 0 435 529q4 4 8 4q26 -8 84 -8q22 0 49 2q22 2 48 5q-3 11 -3 27q0 44 46 96q50 55 92 55
q53 0 53 -58q0 -52 -44.5 -115.5t-112.5 -108.5q-75 -51 -94 -51q-5 0 -8 3zM862 527l-68 -112q9 4 22 10q39 19 67.5 45t28.5 44q0 2 -7 2q-3 -2 -10 -2q-22 0 -33 13z" />
    <glyph glyph-name="uni1EA0" unicode="&#x1ea0;" horiz-adv-x="2121" 
d="M1222 -222q0 -63 -59 -129q-58 -66 -117 -66q-68 0 -68 72q0 68 60 129q61 68 121 68q63 0 63 -74zM2996 1203q0 -30 -32 -30q-9 0 -54 12q-10 0 -20 3t-25 7q-86 25 -149 29q-70 -25 -129.5 -69t-104.5 -103q-47 -60 -101 -169.5t-120 -264.5q-57 -136 -126.5 -244.5
t-149.5 -175.5q-154 -133 -408 -199q62 -8 110 -11t79 -3q145 0 258 69q55 35 115.5 98.5t115.5 143.5q18 29 29 29q12 0 12 -13q0 -24 -109 -147q-53 -59 -100 -102t-94 -66q-86 -43 -225 -43q-60 0 -126.5 7t-144.5 22q-78 -19 -137 -19q-76 0 -76 35t64 35q51 0 153 -23
q148 43 230 127q39 41 112.5 150.5t184.5 286.5h-322l-72 -78q-507 -545 -954 -545q-98 0 -175 27.5t-138 83.5q-119 110 -119 290q0 228 195 441q194 213 444 262q86 155 254 258q166 100 338 100q108 0 171.5 -56t63.5 -153q0 -61 -47 -145q-43 -86 -43 -119
q0 -29 23.5 -49.5t58.5 -20.5q47 0 102.5 40t90.5 96q18 24 28 24q15 0 15 -14q0 -23 -62 -86q-90 -90 -178 -90q-65 0 -109.5 47t-44.5 117q0 57 72 194q25 45 25 78q0 45 -47 74.5t-123 29.5t-155 -25.5t-157 -68.5q-73 -47 -133.5 -103.5t-103.5 -121.5q16 2 36.5 3
t30.5 1q154 0 245 -90t91 -242v-32q60 40 98 88.5t64 105.5q4 8 9 14.5t10 6.5q14 0 14 -17q0 -39 -66 -117q-34 -41 -67 -71.5t-68 -52.5q-39 -191 -203 -343q-163 -151 -346 -151q-53 0 -99 19.5t-80 53t-52.5 80t-18.5 99.5q0 123 89 242q90 122 217 182q0 88 34 170
q-104 -35 -192 -102.5t-166 -168.5q-158 -211 -158 -419q0 -156 89.5 -246t244.5 -90q256 0 527 233q55 47 142 135t208 222h-193q-15 -3 -4 10l14 18q0 2 5 2h206l13 13q317 317 605 474.5t529 161.5q35 7 63.5 10t47.5 3q151 0 151 -64zM2045 608q148 250 294.5 404.5
t289.5 210.5q-195 -23 -375 -140q-104 -69 -232 -186t-288 -289h311zM1275 764q0 131 -71.5 201.5t-200.5 70.5q-27 0 -51.5 -2t-49.5 -8q-45 -86 -45 -168q107 43 176 43q17 0 17 -14q0 -15 -35 -19q-45 -8 -83 -18t-73 -23q9 -96 70 -153.5t162 -57.5q76 0 168 48
q16 59 16 100zM1246 623zM1040 330q69 59 120.5 133t85.5 160q-40 -17 -79 -25t-80 -8q-113 0 -176.5 53t-79.5 170q-60 -31 -108 -75t-89 -97q-37 -53 -57.5 -110.5t-20.5 -112.5q0 -94 60.5 -155.5t152.5 -61.5q129 0 271 129z" />
    <glyph glyph-name="uni1EA1" unicode="&#x1ea1;" 
d="M444 -162q0 -50 -48 -108q-44 -55 -96 -55q-54 0 -54 60q0 29 12 55t35 53q26 29 49 42.5t49 13.5q53 0 53 -61zM985 328q0 -19 -148 -205q-120 -146 -217 -146q-59 0 -98 41t-39 101q0 8 1 16t3 19q-57 -86 -114.5 -131.5t-110.5 -45.5q-35 0 -64.5 14.5t-52 40
t-36 59.5t-13.5 73q0 127 154 256q75 57 156 93t151 36q90 0 90 -74q0 -12 -2 -16l49 84q2 2 6 2q35 -8 76 -8q16 0 45 2t70 6q10 0 6 -10l-133 -222q-154 -256 -154 -272q0 -29 35 -29q98 0 299 299h-2q14 27 31 27q12 0 12 -10zM620 471q0 47 -41 47q-71 0 -207 -182
q-133 -182 -133 -279q0 -47 39 -47q82 0 209 195q133 207 133 266z" />
    <glyph glyph-name="uni1EA2" unicode="&#x1ea2;" horiz-adv-x="2121" 
d="M2886 1591q0 -46 -35.5 -78.5t-117.5 -60.5q-173 -59 -173 -118q0 -16 11 -16q29 0 59 47q8 14 25 14q9 -5 9 -9q0 -7 -26 -35q-32 -34 -65 -34q-42 0 -42 33q0 25 22.5 46.5t107.5 79.5q135 92 135 169q0 63 -55 70q3 -12 3 -25q0 -81 -64.5 -154t-141.5 -73
q-39 0 -62 23t-23 57q0 71 78.5 131t173.5 60q-15 42 -60 42q-13 0 -27 -5q-5 -3 -12 -3q-14 0 -14 8q0 7 19 12.5t35 5.5q71 0 90 -61q60 -6 105 -42.5t45 -83.5zM2715 1676q0 15 -4 25q-65 0 -141 -65t-76 -129q0 -42 43 -42q57 0 117.5 69t60.5 142zM2996 1203
q0 -30 -32 -30q-9 0 -54 12q-10 0 -20 3t-25 7q-86 25 -149 29q-70 -25 -129.5 -69t-104.5 -103q-47 -60 -101 -169.5t-120 -264.5q-57 -136 -126.5 -244.5t-149.5 -175.5q-154 -133 -408 -199q62 -8 110 -11t79 -3q145 0 258 69q55 35 115.5 98.5t115.5 143.5q18 29 29 29
q12 0 12 -13q0 -24 -109 -147q-53 -59 -100 -102t-94 -66q-86 -43 -225 -43q-60 0 -126.5 7t-144.5 22q-78 -19 -137 -19q-76 0 -76 35t64 35q51 0 153 -23q148 43 230 127q39 41 112.5 150.5t184.5 286.5h-322l-72 -78q-507 -545 -954 -545q-98 0 -175 27.5t-138 83.5
q-119 110 -119 290q0 228 195 441q194 213 444 262q86 155 254 258q166 100 338 100q108 0 171.5 -56t63.5 -153q0 -61 -47 -145q-43 -86 -43 -119q0 -29 23.5 -49.5t58.5 -20.5q47 0 102.5 40t90.5 96q18 24 28 24q15 0 15 -14q0 -23 -62 -86q-90 -90 -178 -90
q-65 0 -109.5 47t-44.5 117q0 57 72 194q25 45 25 78q0 45 -47 74.5t-123 29.5t-155 -25.5t-157 -68.5q-73 -47 -133.5 -103.5t-103.5 -121.5q16 2 36.5 3t30.5 1q154 0 245 -90t91 -242v-32q60 40 98 88.5t64 105.5q4 8 9 14.5t10 6.5q14 0 14 -17q0 -39 -66 -117
q-34 -41 -67 -71.5t-68 -52.5q-39 -191 -203 -343q-163 -151 -346 -151q-53 0 -99 19.5t-80 53t-52.5 80t-18.5 99.5q0 123 89 242q90 122 217 182q0 88 34 170q-104 -35 -192 -102.5t-166 -168.5q-158 -211 -158 -419q0 -156 89.5 -246t244.5 -90q256 0 527 233
q55 47 142 135t208 222h-193q-15 -3 -4 10l14 18q0 2 5 2h206l13 13q317 317 605 474.5t529 161.5q35 7 63.5 10t47.5 3q151 0 151 -64zM2045 608q148 250 294.5 404.5t289.5 210.5q-195 -23 -375 -140q-104 -69 -232 -186t-288 -289h311zM1275 764q0 131 -71.5 201.5
t-200.5 70.5q-27 0 -51.5 -2t-49.5 -8q-45 -86 -45 -168q107 43 176 43q17 0 17 -14q0 -15 -35 -19q-45 -8 -83 -18t-73 -23q9 -96 70 -153.5t162 -57.5q76 0 168 48q16 59 16 100zM1246 623zM1040 330q69 59 120.5 133t85.5 160q-40 -17 -79 -25t-80 -8q-113 0 -176.5 53
t-79.5 170q-60 -31 -108 -75t-89 -97q-37 -53 -57.5 -110.5t-20.5 -112.5q0 -94 60.5 -155.5t152.5 -61.5q129 0 271 129z" />
    <glyph glyph-name="uni1EA3" unicode="&#x1ea3;" 
d="M985 328q0 -19 -148 -205q-120 -146 -217 -146q-59 0 -98 41t-39 101q0 8 1 16t3 19q-57 -86 -114.5 -131.5t-110.5 -45.5q-35 0 -64.5 14.5t-52 40t-36 59.5t-13.5 73q0 127 154 256q75 57 156 93t151 36q90 0 90 -74q0 -12 -2 -16l49 84q2 2 6 2q35 -8 76 -8q16 0 45 2
t70 6q10 0 6 -10l-133 -222q-154 -256 -154 -272q0 -29 35 -29q98 0 299 299h-2q14 27 31 27q12 0 12 -10zM620 471q0 47 -41 47q-71 0 -207 -182q-133 -182 -133 -279q0 -47 39 -47q82 0 209 195q133 207 133 266zM923 825q0 -37 -29 -64t-97 -50q-142 -48 -142 -97
q0 -13 9 -13q24 0 49 39q6 11 20 11q8 -4 8 -7q0 -6 -22 -29q-26 -28 -53 -28q-35 0 -35 27q0 21 18.5 38.5t88.5 65.5q111 75 111 139q0 51 -45 57q2 -10 2 -20q0 -67 -53 -127t-116 -60q-32 0 -51 19t-19 47q0 58 64.5 107.5t142.5 49.5q-12 34 -49 34q-11 0 -22 -4
q-4 -2 -10 -2q-12 0 -12 6t16 10.5t29 4.5q58 0 74 -50q49 -5 86 -35t37 -69zM783 895q0 13 -4 21q-53 0 -115.5 -53.5t-62.5 -106.5q0 -34 35 -34q47 0 97 56.5t50 116.5z" />
    <glyph glyph-name="uni1EA4" unicode="&#x1ea4;" horiz-adv-x="2121" 
d="M3322 1779q4 -4 -2 -10q-88 -55 -160.5 -96t-132.5 -68q-59 -24 -94 -38.5t-45 -12.5q-6 2 -2 10q2 2 8 7.5t17 11.5q252 141 352 278q4 10 10 0zM2996 1203q0 -30 -32 -30q-9 0 -54 12q-10 0 -20 3t-25 7q-86 25 -149 29q-70 -25 -129.5 -69t-104.5 -103
q-47 -60 -101 -169.5t-120 -264.5q-57 -136 -126.5 -244.5t-149.5 -175.5q-154 -133 -408 -199q62 -8 110 -11t79 -3q145 0 258 69q55 35 115.5 98.5t115.5 143.5q18 29 29 29q12 0 12 -13q0 -24 -109 -147q-53 -59 -100 -102t-94 -66q-86 -43 -225 -43q-60 0 -126.5 7
t-144.5 22q-78 -19 -137 -19q-76 0 -76 35t64 35q51 0 153 -23q148 43 230 127q39 41 112.5 150.5t184.5 286.5h-322l-72 -78q-507 -545 -954 -545q-98 0 -175 27.5t-138 83.5q-119 110 -119 290q0 228 195 441q194 213 444 262q86 155 254 258q166 100 338 100
q108 0 171.5 -56t63.5 -153q0 -61 -47 -145q-43 -86 -43 -119q0 -29 23.5 -49.5t58.5 -20.5q47 0 102.5 40t90.5 96q18 24 28 24q15 0 15 -14q0 -23 -62 -86q-90 -90 -178 -90q-65 0 -109.5 47t-44.5 117q0 57 72 194q25 45 25 78q0 45 -47 74.5t-123 29.5t-155 -25.5
t-157 -68.5q-73 -47 -133.5 -103.5t-103.5 -121.5q16 2 36.5 3t30.5 1q154 0 245 -90t91 -242v-32q60 40 98 88.5t64 105.5q4 8 9 14.5t10 6.5q14 0 14 -17q0 -39 -66 -117q-34 -41 -67 -71.5t-68 -52.5q-39 -191 -203 -343q-163 -151 -346 -151q-53 0 -99 19.5t-80 53
t-52.5 80t-18.5 99.5q0 123 89 242q90 122 217 182q0 88 34 170q-104 -35 -192 -102.5t-166 -168.5q-158 -211 -158 -419q0 -156 89.5 -246t244.5 -90q256 0 527 233q55 47 142 135t208 222h-193q-15 -3 -4 10l14 18q0 2 5 2h206l13 13q317 317 605 474.5t529 161.5
q35 7 63.5 10t47.5 3q151 0 151 -64zM2045 608q148 250 294.5 404.5t289.5 210.5q-195 -23 -375 -140q-104 -69 -232 -186t-288 -289h311zM1275 764q0 131 -71.5 201.5t-200.5 70.5q-27 0 -51.5 -2t-49.5 -8q-45 -86 -45 -168q107 43 176 43q17 0 17 -14q0 -15 -35 -19
q-45 -8 -83 -18t-73 -23q9 -96 70 -153.5t162 -57.5q76 0 168 48q16 59 16 100zM1246 623zM1040 330q69 59 120.5 133t85.5 160q-40 -17 -79 -25t-80 -8q-113 0 -176.5 53t-79.5 170q-60 -31 -108 -75t-89 -97q-37 -53 -57.5 -110.5t-20.5 -112.5q0 -94 60.5 -155.5
t152.5 -61.5q129 0 271 129zM2850 1690q0 -31 -6 -104t-17 -185q0 -4 -1 -7t-1 -8q0 -12 -8 -12q-9 0 -10 10q-4 41 -12.5 75t-22.5 69q-23 -17 -62.5 -38.5t-93.5 -47.5q-118 -58 -149 -56q-6 0 -6 7q0 6 10 12q129 72 221 142.5t148 146.5z" />
    <glyph glyph-name="uni1EA5" unicode="&#x1ea5;" 
d="M1315 996q4 -4 -2 -10q-78 -51 -127 -81t-70 -40q-36 -20 -83.5 -40.5t-94.5 -37.5l-18 -6q-8 -4 -14 0q-5 0 -5 6q0 7 11 13q243 133 348 272q4 10 10 0zM985 328q0 -19 -148 -205q-120 -146 -217 -146q-59 0 -98 41t-39 101q0 8 1 16t3 19q-57 -86 -114.5 -131.5
t-110.5 -45.5q-35 0 -64.5 14.5t-52 40t-36 59.5t-13.5 73q0 127 154 256q75 57 156 93t151 36q90 0 90 -74q0 -12 -2 -16l49 84q2 2 8 2q33 -8 74 -8q16 0 45 2t70 6q10 0 6 -10l-133 -222q-154 -256 -154 -272q0 -29 35 -29q98 0 299 299h-2q14 27 31 27q12 0 12 -10z
M620 471q0 47 -41 47q-71 0 -207 -182q-133 -182 -133 -279q0 -47 39 -47q82 0 209 195q133 207 133 266zM870 725l-4 -63v-13q0 -12 -8 -12l-4 2q-6 2 -6 12q-7 41 -15 74t-18 55q-23 -16 -63 -36.5t-87 -45.5q-116 -53 -139 -51q-4 0 -5 5t3 7l6 5q4 4 11.5 8t17.5 12
q219 129 317 254q4 4 7.5 3t3.5 -5z" />
    <glyph glyph-name="uni1EA6" unicode="&#x1ea6;" horiz-adv-x="2121" 
d="M2681 1640q0 -13 -12 -13q-23 0 -91 86q-51 68 -86 183q0 4 5 8l108 59l8 -8q-12 -53 -12 -94q0 -117 68 -203l8 -8q0 -2 1 -3t1 -3t2 -4zM2996 1203q0 -30 -32 -30q-9 0 -54 12q-10 0 -20 3t-25 7q-86 25 -149 29q-70 -25 -129.5 -69t-104.5 -103q-47 -60 -101 -169.5
t-120 -264.5q-57 -136 -126.5 -244.5t-149.5 -175.5q-154 -133 -408 -199q62 -8 110 -11t79 -3q145 0 258 69q55 35 115.5 98.5t115.5 143.5q18 29 29 29q12 0 12 -13q0 -24 -109 -147q-53 -59 -100 -102t-94 -66q-86 -43 -225 -43q-60 0 -126.5 7t-144.5 22
q-78 -19 -137 -19q-76 0 -76 35t64 35q51 0 153 -23q148 43 230 127q39 41 112.5 150.5t184.5 286.5h-322l-72 -78q-507 -545 -954 -545q-98 0 -175 27.5t-138 83.5q-119 110 -119 290q0 228 195 441q194 213 444 262q86 155 254 258q166 100 338 100q108 0 171.5 -56
t63.5 -153q0 -61 -47 -145q-43 -86 -43 -119q0 -29 23.5 -49.5t58.5 -20.5q47 0 102.5 40t90.5 96q18 24 28 24q15 0 15 -14q0 -23 -62 -86q-90 -90 -178 -90q-65 0 -109.5 47t-44.5 117q0 57 72 194q25 45 25 78q0 45 -47 74.5t-123 29.5t-155 -25.5t-157 -68.5
q-73 -47 -133.5 -103.5t-103.5 -121.5q16 2 36.5 3t30.5 1q154 0 245 -90t91 -242v-32q60 40 98 88.5t64 105.5q4 8 9 14.5t10 6.5q14 0 14 -17q0 -39 -66 -117q-34 -41 -67 -71.5t-68 -52.5q-39 -191 -203 -343q-163 -151 -346 -151q-53 0 -99 19.5t-80 53t-52.5 80
t-18.5 99.5q0 123 89 242q90 122 217 182q0 88 34 170q-104 -35 -192 -102.5t-166 -168.5q-158 -211 -158 -419q0 -156 89.5 -246t244.5 -90q256 0 527 233q55 47 142 135t208 222h-193q-15 -3 -4 10l14 18q0 2 5 2h206l13 13q317 317 605 474.5t529 161.5q35 7 63.5 10
t47.5 3q151 0 151 -64zM2045 608q148 250 294.5 404.5t289.5 210.5q-195 -23 -375 -140q-104 -69 -232 -186t-288 -289h311zM1275 764q0 131 -71.5 201.5t-200.5 70.5q-27 0 -51.5 -2t-49.5 -8q-45 -86 -45 -168q107 43 176 43q17 0 17 -14q0 -15 -35 -19q-45 -8 -83 -18
t-73 -23q9 -96 70 -153.5t162 -57.5q76 0 168 48q16 59 16 100zM1246 623zM1040 330q69 59 120.5 133t85.5 160q-40 -17 -79 -25t-80 -8q-113 0 -176.5 53t-79.5 170q-60 -31 -108 -75t-89 -97q-37 -53 -57.5 -110.5t-20.5 -112.5q0 -94 60.5 -155.5t152.5 -61.5
q129 0 271 129zM2850 1690q0 -31 -6 -104t-17 -185q0 -4 -1 -7t-1 -8q0 -12 -8 -12q-9 0 -10 10q-4 41 -12.5 75t-22.5 69q-23 -17 -62.5 -38.5t-93.5 -47.5q-118 -58 -149 -56q-6 0 -6 7q0 6 10 12q129 72 221 142.5t148 146.5z" />
    <glyph glyph-name="uni1EA7" unicode="&#x1ea7;" 
d="M735 852q-7 -6 -11 -6q-24 0 -86 80q-24 35 -44.5 78t-37.5 96q0 4 4 8l103 55q8 5 8 -8q-4 -24 -7 -46.5t-3 -43.5q0 -108 65 -190q11 -11 11 -19zM985 328q0 -19 -148 -205q-120 -146 -217 -146q-59 0 -98 41t-39 101q0 8 1 16t3 19q-57 -86 -114.5 -131.5
t-110.5 -45.5q-35 0 -64.5 14.5t-52 40t-36 59.5t-13.5 73q0 127 154 256q75 57 156 93t151 36q90 0 90 -74q0 -12 -2 -16l49 84q2 2 6 2q35 -8 76 -8q16 0 45 2t70 6q10 0 6 -10l-133 -222q-154 -256 -154 -272q0 -29 35 -29q98 0 299 299h-2q14 27 31 27q12 0 12 -10z
M620 471q0 47 -41 47q-71 0 -207 -182q-133 -182 -133 -279q0 -47 39 -47q82 0 209 195q133 207 133 266zM870 725l-4 -63v-13q0 -12 -8 -12l-4 2q-6 2 -6 12q-7 41 -15 74t-18 55q-23 -16 -63 -36.5t-87 -45.5q-116 -53 -139 -51q-4 0 -5 5t3 7l6 5q4 4 11.5 8t17.5 12
q219 129 317 254q4 4 7.5 3t3.5 -5z" />
    <glyph glyph-name="uni1EA8" unicode="&#x1ea8;" horiz-adv-x="2121" 
d="M3257 1880q0 -46 -35.5 -78.5t-117.5 -60.5q-173 -59 -173 -118q0 -16 11 -16q29 0 59 47q8 14 25 14q9 -5 9 -9q0 -7 -26 -35q-32 -34 -65 -34q-42 0 -42 33q0 25 22.5 46.5t107.5 79.5q135 92 135 169q0 63 -55 70q3 -12 3 -25q0 -81 -64.5 -154t-141.5 -73
q-39 0 -62 23t-23 57q0 71 78.5 131t173.5 60q-15 42 -60 42q-13 0 -27 -5q-5 -3 -12 -3q-14 0 -14 8q0 7 19 12.5t35 5.5q71 0 90 -61q60 -6 105 -42.5t45 -83.5zM3086 1965q0 15 -4 25q-65 0 -141 -65t-76 -129q0 -42 43 -42q57 0 117.5 69t60.5 142zM2996 1203
q0 -30 -32 -30q-9 0 -54 12q-10 0 -20 3t-25 7q-86 25 -149 29q-70 -25 -129.5 -69t-104.5 -103q-47 -60 -101 -169.5t-120 -264.5q-57 -136 -126.5 -244.5t-149.5 -175.5q-154 -133 -408 -199q62 -8 110 -11t79 -3q145 0 258 69q55 35 115.5 98.5t115.5 143.5q18 29 29 29
q12 0 12 -13q0 -24 -109 -147q-53 -59 -100 -102t-94 -66q-86 -43 -225 -43q-60 0 -126.5 7t-144.5 22q-78 -19 -137 -19q-76 0 -76 35t64 35q51 0 153 -23q148 43 230 127q39 41 112.5 150.5t184.5 286.5h-322l-72 -78q-507 -545 -954 -545q-98 0 -175 27.5t-138 83.5
q-119 110 -119 290q0 228 195 441q194 213 444 262q86 155 254 258q166 100 338 100q108 0 171.5 -56t63.5 -153q0 -61 -47 -145q-43 -86 -43 -119q0 -29 23.5 -49.5t58.5 -20.5q47 0 102.5 40t90.5 96q18 24 28 24q15 0 15 -14q0 -23 -62 -86q-90 -90 -178 -90
q-65 0 -109.5 47t-44.5 117q0 57 72 194q25 45 25 78q0 45 -47 74.5t-123 29.5t-155 -25.5t-157 -68.5q-73 -47 -133.5 -103.5t-103.5 -121.5q16 2 36.5 3t30.5 1q154 0 245 -90t91 -242v-32q60 40 98 88.5t64 105.5q4 8 9 14.5t10 6.5q14 0 14 -17q0 -39 -66 -117
q-34 -41 -67 -71.5t-68 -52.5q-39 -191 -203 -343q-163 -151 -346 -151q-53 0 -99 19.5t-80 53t-52.5 80t-18.5 99.5q0 123 89 242q90 122 217 182q0 88 34 170q-104 -35 -192 -102.5t-166 -168.5q-158 -211 -158 -419q0 -156 89.5 -246t244.5 -90q256 0 527 233
q55 47 142 135t208 222h-193q-15 -3 -4 10l14 18q0 2 5 2h206l13 13q317 317 605 474.5t529 161.5q35 7 63.5 10t47.5 3q151 0 151 -64zM2045 608q148 250 294.5 404.5t289.5 210.5q-195 -23 -375 -140q-104 -69 -232 -186t-288 -289h311zM1275 764q0 131 -71.5 201.5
t-200.5 70.5q-27 0 -51.5 -2t-49.5 -8q-45 -86 -45 -168q107 43 176 43q17 0 17 -14q0 -15 -35 -19q-45 -8 -83 -18t-73 -23q9 -96 70 -153.5t162 -57.5q76 0 168 48q16 59 16 100zM1246 623zM1040 330q69 59 120.5 133t85.5 160q-40 -17 -79 -25t-80 -8q-113 0 -176.5 53
t-79.5 170q-60 -31 -108 -75t-89 -97q-37 -53 -57.5 -110.5t-20.5 -112.5q0 -94 60.5 -155.5t152.5 -61.5q129 0 271 129zM2850 1690q0 -31 -6 -104t-17 -185q0 -4 -1 -7t-1 -8q0 -12 -8 -12q-9 0 -10 10q-4 41 -12.5 75t-22.5 69q-23 -17 -62.5 -38.5t-93.5 -47.5
q-118 -58 -149 -56q-6 0 -6 7q0 6 10 12q129 72 221 142.5t148 146.5z" />
    <glyph glyph-name="uni1EA9" unicode="&#x1ea9;" 
d="M985 328q0 -19 -148 -205q-120 -146 -217 -146q-59 0 -98 41t-39 101q0 8 1 16t3 19q-57 -86 -114.5 -131.5t-110.5 -45.5q-35 0 -64.5 14.5t-52 40t-36 59.5t-13.5 73q0 127 154 256q75 57 156 93t151 36q90 0 90 -74q0 -12 -2 -16l49 84q2 2 6 2q35 -8 76 -8q16 0 45 2
t70 6q10 0 6 -10l-133 -222q-154 -256 -154 -272q0 -29 35 -29q98 0 299 299h-2q14 27 31 27q12 0 12 -10zM620 471q0 47 -41 47q-71 0 -207 -182q-133 -182 -133 -279q0 -47 39 -47q82 0 209 195q133 207 133 266zM1220 1070q0 -37 -29 -64t-97 -50q-142 -48 -142 -97
q0 -13 9 -13q24 0 49 39q6 11 20 11q8 -4 8 -7q0 -6 -22 -29q-26 -28 -53 -28q-35 0 -35 27q0 21 18.5 38.5t88.5 65.5q111 75 111 139q0 51 -45 57q2 -10 2 -20q0 -67 -53 -127t-116 -60q-32 0 -51 19t-19 47q0 58 64.5 107.5t142.5 49.5q-12 34 -49 34q-11 0 -22 -4
q-4 -2 -10 -2q-12 0 -12 6t16 10.5t29 4.5q58 0 74 -50q49 -5 86 -35t37 -69zM1080 1140q0 13 -4 21q-53 0 -115.5 -53.5t-62.5 -106.5q0 -34 35 -34q47 0 97 56.5t50 116.5zM870 725l-4 -63v-13q0 -12 -8 -12l-4 2q-6 2 -6 12q-7 41 -15 74t-18 55q-23 -16 -63 -36.5
t-87 -45.5q-116 -53 -139 -51q-4 0 -5 5t3 7l6 5q4 4 11.5 8t17.5 12q219 129 317 254q4 4 7.5 3t3.5 -5z" />
    <glyph glyph-name="uni1EAA" unicode="&#x1eaa;" horiz-adv-x="2121" 
d="M3169 1804q0 -8 -78 -51q-70 -39 -125 -39q-39 0 -119 25q-59 18 -86 18q-53 0 -117 -28q-8 -4 -14 0q-4 0 -4 6q0 20 84 55q78 33 119 33q36 0 114 -19q90 -22 115 -22q27 0 50.5 8t39.5 19q6 6 10 6q11 0 11 -11zM2996 1203q0 -30 -32 -30q-9 0 -54 12q-10 0 -20 3
t-25 7q-86 25 -149 29q-70 -25 -129.5 -69t-104.5 -103q-47 -60 -101 -169.5t-120 -264.5q-57 -136 -126.5 -244.5t-149.5 -175.5q-154 -133 -408 -199q62 -8 110 -11t79 -3q145 0 258 69q55 35 115.5 98.5t115.5 143.5q18 29 29 29q12 0 12 -13q0 -24 -109 -147
q-53 -59 -100 -102t-94 -66q-86 -43 -225 -43q-60 0 -126.5 7t-144.5 22q-78 -19 -137 -19q-76 0 -76 35t64 35q51 0 153 -23q148 43 230 127q39 41 112.5 150.5t184.5 286.5h-322l-72 -78q-507 -545 -954 -545q-98 0 -175 27.5t-138 83.5q-119 110 -119 290q0 228 195 441
q194 213 444 262q86 155 254 258q166 100 338 100q108 0 171.5 -56t63.5 -153q0 -61 -47 -145q-43 -86 -43 -119q0 -29 23.5 -49.5t58.5 -20.5q47 0 102.5 40t90.5 96q18 24 28 24q15 0 15 -14q0 -23 -62 -86q-90 -90 -178 -90q-65 0 -109.5 47t-44.5 117q0 57 72 194
q25 45 25 78q0 45 -47 74.5t-123 29.5t-155 -25.5t-157 -68.5q-73 -47 -133.5 -103.5t-103.5 -121.5q16 2 36.5 3t30.5 1q154 0 245 -90t91 -242v-32q60 40 98 88.5t64 105.5q4 8 9 14.5t10 6.5q14 0 14 -17q0 -39 -66 -117q-34 -41 -67 -71.5t-68 -52.5q-39 -191 -203 -343
q-163 -151 -346 -151q-53 0 -99 19.5t-80 53t-52.5 80t-18.5 99.5q0 123 89 242q90 122 217 182q0 88 34 170q-104 -35 -192 -102.5t-166 -168.5q-158 -211 -158 -419q0 -156 89.5 -246t244.5 -90q256 0 527 233q55 47 142 135t208 222h-193q-15 -3 -4 10l14 18q0 2 5 2h206
l13 13q317 317 605 474.5t529 161.5q35 7 63.5 10t47.5 3q151 0 151 -64zM2045 608q148 250 294.5 404.5t289.5 210.5q-195 -23 -375 -140q-104 -69 -232 -186t-288 -289h311zM1275 764q0 131 -71.5 201.5t-200.5 70.5q-27 0 -51.5 -2t-49.5 -8q-45 -86 -45 -168
q107 43 176 43q17 0 17 -14q0 -15 -35 -19q-45 -8 -83 -18t-73 -23q9 -96 70 -153.5t162 -57.5q76 0 168 48q16 59 16 100zM1246 623zM1040 330q69 59 120.5 133t85.5 160q-40 -17 -79 -25t-80 -8q-113 0 -176.5 53t-79.5 170q-60 -31 -108 -75t-89 -97
q-37 -53 -57.5 -110.5t-20.5 -112.5q0 -94 60.5 -155.5t152.5 -61.5q129 0 271 129zM2850 1690q0 -31 -6 -104t-17 -185q0 -4 -1 -7t-1 -8q0 -12 -8 -12q-9 0 -10 10q-4 41 -12.5 75t-22.5 69q-23 -17 -62.5 -38.5t-93.5 -47.5q-118 -58 -149 -56q-6 0 -6 7q0 6 10 12
q129 72 221 142.5t148 146.5z" />
    <glyph glyph-name="uni1EAB" unicode="&#x1eab;" 
d="M1219 1033q0 -2 -35 -25q-103 -59 -158 -59q-35 0 -115 23q-55 16 -77 16q-64 0 -111 -27q-8 -4 -14 0q-4 0 -4 7q0 18 77 53q35 12 66 21t49 9q31 0 109 -18q82 -18 106 -18q47 0 88 26h4l4 2q11 0 11 -10zM985 328q0 -19 -148 -205q-120 -146 -217 -146q-59 0 -98 41
t-39 101q0 8 1 16t3 19q-57 -86 -114.5 -131.5t-110.5 -45.5q-35 0 -64.5 14.5t-52 40t-36 59.5t-13.5 73q0 127 154 256q75 57 156 93t151 36q90 0 90 -74q0 -12 -2 -16l49 84q2 2 8 2q33 -8 74 -8q16 0 45 2t70 6q10 0 6 -10l-133 -222q-154 -256 -154 -272q0 -29 35 -29
q98 0 299 299h-2q14 27 31 27q12 0 12 -10zM620 471q0 47 -41 47q-71 0 -207 -182q-133 -182 -133 -279q0 -47 39 -47q82 0 209 195q133 207 133 266zM870 725l-4 -63v-13q0 -12 -8 -12l-4 2q-6 2 -6 12q-7 41 -15 74t-18 55q-23 -16 -63 -36.5t-87 -45.5q-116 -53 -139 -51
q-4 0 -5 5t3 7l6 5q4 4 11.5 8t17.5 12q219 129 317 254q4 4 7.5 3t3.5 -5z" />
    <glyph glyph-name="uni1EAC" unicode="&#x1eac;" horiz-adv-x="2121" 
d="M1222 -222q0 -63 -59 -129q-58 -66 -117 -66q-68 0 -68 72q0 68 60 129q61 68 121 68q63 0 63 -74zM2996 1203q0 -30 -32 -30q-9 0 -54 12q-10 0 -20 3t-25 7q-86 25 -149 29q-70 -25 -129.5 -69t-104.5 -103q-47 -60 -101 -169.5t-120 -264.5q-57 -136 -126.5 -244.5
t-149.5 -175.5q-154 -133 -408 -199q62 -8 110 -11t79 -3q145 0 258 69q55 35 115.5 98.5t115.5 143.5q18 29 29 29q12 0 12 -13q0 -24 -109 -147q-53 -59 -100 -102t-94 -66q-86 -43 -225 -43q-60 0 -126.5 7t-144.5 22q-78 -19 -137 -19q-76 0 -76 35t64 35q51 0 153 -23
q148 43 230 127q39 41 112.5 150.5t184.5 286.5h-322l-72 -78q-507 -545 -954 -545q-98 0 -175 27.5t-138 83.5q-119 110 -119 290q0 228 195 441q194 213 444 262q86 155 254 258q166 100 338 100q108 0 171.5 -56t63.5 -153q0 -61 -47 -145q-43 -86 -43 -119
q0 -29 23.5 -49.5t58.5 -20.5q47 0 102.5 40t90.5 96q18 24 28 24q15 0 15 -14q0 -23 -62 -86q-90 -90 -178 -90q-65 0 -109.5 47t-44.5 117q0 57 72 194q25 45 25 78q0 45 -47 74.5t-123 29.5t-155 -25.5t-157 -68.5q-73 -47 -133.5 -103.5t-103.5 -121.5q16 2 36.5 3
t30.5 1q154 0 245 -90t91 -242v-32q60 40 98 88.5t64 105.5q4 8 9 14.5t10 6.5q14 0 14 -17q0 -39 -66 -117q-34 -41 -67 -71.5t-68 -52.5q-39 -191 -203 -343q-163 -151 -346 -151q-53 0 -99 19.5t-80 53t-52.5 80t-18.5 99.5q0 123 89 242q90 122 217 182q0 88 34 170
q-104 -35 -192 -102.5t-166 -168.5q-158 -211 -158 -419q0 -156 89.5 -246t244.5 -90q256 0 527 233q55 47 142 135t208 222h-193q-15 -3 -4 10l14 18q0 2 5 2h206l13 13q317 317 605 474.5t529 161.5q35 7 63.5 10t47.5 3q151 0 151 -64zM2045 608q148 250 294.5 404.5
t289.5 210.5q-195 -23 -375 -140q-104 -69 -232 -186t-288 -289h311zM1275 764q0 131 -71.5 201.5t-200.5 70.5q-27 0 -51.5 -2t-49.5 -8q-45 -86 -45 -168q107 43 176 43q17 0 17 -14q0 -15 -35 -19q-45 -8 -83 -18t-73 -23q9 -96 70 -153.5t162 -57.5q76 0 168 48
q16 59 16 100zM1246 623zM1040 330q69 59 120.5 133t85.5 160q-40 -17 -79 -25t-80 -8q-113 0 -176.5 53t-79.5 170q-60 -31 -108 -75t-89 -97q-37 -53 -57.5 -110.5t-20.5 -112.5q0 -94 60.5 -155.5t152.5 -61.5q129 0 271 129zM2850 1690q0 -31 -6 -104t-17 -185
q0 -4 -1 -7t-1 -8q0 -12 -8 -12q-9 0 -10 10q-4 41 -12.5 75t-22.5 69q-23 -17 -62.5 -38.5t-93.5 -47.5q-118 -58 -149 -56q-6 0 -6 7q0 6 10 12q129 72 221 142.5t148 146.5z" />
    <glyph glyph-name="uni1EAD" unicode="&#x1ead;" 
d="M444 -162q0 -50 -48 -108q-44 -55 -96 -55q-54 0 -54 60q0 29 12 55t35 53q26 29 49 42.5t49 13.5q53 0 53 -61zM985 328q0 -19 -148 -205q-120 -146 -217 -146q-59 0 -98 41t-39 101q0 8 1 16t3 19q-57 -86 -114.5 -131.5t-110.5 -45.5q-35 0 -64.5 14.5t-52 40
t-36 59.5t-13.5 73q0 127 154 256q75 57 156 93t151 36q90 0 90 -74q0 -12 -2 -16l49 84q2 2 6 2q35 -8 76 -8q16 0 45 2t70 6q10 0 6 -10l-133 -222q-154 -256 -154 -272q0 -29 35 -29q98 0 299 299h-2q14 27 31 27q12 0 12 -10zM620 471q0 47 -41 47q-71 0 -207 -182
q-133 -182 -133 -279q0 -47 39 -47q82 0 209 195q133 207 133 266zM870 725l-4 -63v-13q0 -12 -8 -12l-4 2q-6 2 -6 12q-7 41 -15 74t-18 55q-23 -16 -63 -36.5t-87 -45.5q-116 -53 -139 -51q-4 0 -5 5t3 7l6 5q4 4 11.5 8t17.5 12q219 129 317 254q4 4 7.5 3t3.5 -5z" />
    <glyph glyph-name="uni1EAE" unicode="&#x1eae;" horiz-adv-x="2121" 
d="M3168 1734q4 -4 -2 -10q-88 -55 -160.5 -96t-132.5 -68q-59 -24 -94 -38.5t-45 -12.5q-6 2 -2 10q2 2 8 7.5t17 11.5q252 141 352 278q4 10 10 0zM2996 1203q0 -30 -32 -30q-9 0 -54 12q-10 0 -20 3t-25 7q-86 25 -149 29q-70 -25 -129.5 -69t-104.5 -103
q-47 -60 -101 -169.5t-120 -264.5q-57 -136 -126.5 -244.5t-149.5 -175.5q-154 -133 -408 -199q62 -8 110 -11t79 -3q145 0 258 69q55 35 115.5 98.5t115.5 143.5q18 29 29 29q12 0 12 -13q0 -24 -109 -147q-53 -59 -100 -102t-94 -66q-86 -43 -225 -43q-60 0 -126.5 7
t-144.5 22q-78 -19 -137 -19q-76 0 -76 35t64 35q51 0 153 -23q148 43 230 127q39 41 112.5 150.5t184.5 286.5h-322l-72 -78q-507 -545 -954 -545q-98 0 -175 27.5t-138 83.5q-119 110 -119 290q0 228 195 441q194 213 444 262q86 155 254 258q166 100 338 100
q108 0 171.5 -56t63.5 -153q0 -61 -47 -145q-43 -86 -43 -119q0 -29 23.5 -49.5t58.5 -20.5q47 0 102.5 40t90.5 96q18 24 28 24q15 0 15 -14q0 -23 -62 -86q-90 -90 -178 -90q-65 0 -109.5 47t-44.5 117q0 57 72 194q25 45 25 78q0 45 -47 74.5t-123 29.5t-155 -25.5
t-157 -68.5q-73 -47 -133.5 -103.5t-103.5 -121.5q16 2 36.5 3t30.5 1q154 0 245 -90t91 -242v-32q60 40 98 88.5t64 105.5q4 8 9 14.5t10 6.5q14 0 14 -17q0 -39 -66 -117q-34 -41 -67 -71.5t-68 -52.5q-39 -191 -203 -343q-163 -151 -346 -151q-53 0 -99 19.5t-80 53
t-52.5 80t-18.5 99.5q0 123 89 242q90 122 217 182q0 88 34 170q-104 -35 -192 -102.5t-166 -168.5q-158 -211 -158 -419q0 -156 89.5 -246t244.5 -90q256 0 527 233q55 47 142 135t208 222h-193q-15 -3 -4 10l14 18q0 2 5 2h206l13 13q317 317 605 474.5t529 161.5
q35 7 63.5 10t47.5 3q151 0 151 -64zM2045 608q148 250 294.5 404.5t289.5 210.5q-195 -23 -375 -140q-104 -69 -232 -186t-288 -289h311zM1275 764q0 131 -71.5 201.5t-200.5 70.5q-27 0 -51.5 -2t-49.5 -8q-45 -86 -45 -168q107 43 176 43q17 0 17 -14q0 -15 -35 -19
q-45 -8 -83 -18t-73 -23q9 -96 70 -153.5t162 -57.5q76 0 168 48q16 59 16 100zM1246 623zM1040 330q69 59 120.5 133t85.5 160q-40 -17 -79 -25t-80 -8q-113 0 -176.5 53t-79.5 170q-60 -31 -108 -75t-89 -97q-37 -53 -57.5 -110.5t-20.5 -112.5q0 -94 60.5 -155.5
t152.5 -61.5q129 0 271 129zM2972 1542q-4 -13 -41 -57q-117 -133 -269 -133q-166 0 -133 129q19 73 38 73q9 0 4 -19l-3 -12q-17 -81 130 -81q173 0 247 96q15 16 21 16l4 -2q3 -4 2 -10z" />
    <glyph glyph-name="uni1EAF" unicode="&#x1eaf;" 
d="M1169 996q4 -4 -2 -10q-78 -51 -127 -81t-70 -40q-36 -20 -83.5 -40.5t-94.5 -37.5l-18 -6q-8 -4 -14 0q-5 0 -5 6q0 7 11 13q243 133 348 272q4 10 10 0zM985 328q0 -19 -148 -205q-120 -146 -217 -146q-59 0 -98 41t-39 101q0 8 1 16t3 19q-57 -86 -114.5 -131.5
t-110.5 -45.5q-35 0 -64.5 14.5t-52 40t-36 59.5t-13.5 73q0 127 154 256q75 57 156 93t151 36q90 0 90 -74q0 -12 -2 -16l49 84q2 2 8 2q33 -8 74 -8q16 0 45 2t70 6q10 0 6 -10l-133 -222q-154 -256 -154 -272q0 -29 35 -29q98 0 299 299h-2q14 27 31 27q12 0 12 -10z
M620 471q0 47 -41 47q-71 0 -207 -182q-133 -182 -133 -279q0 -47 39 -47q82 0 209 195q133 207 133 266zM1004 818q-4 -13 -41 -57q-117 -133 -269 -133q-166 0 -133 129q19 73 38 73q9 0 4 -19l-3 -12q-17 -81 130 -81q173 0 247 96q15 16 21 16l4 -2q3 -4 2 -10z" />
    <glyph glyph-name="uni1EB0" unicode="&#x1eb0;" horiz-adv-x="2121" 
d="M2765 1528q0 -13 -12 -13q-23 0 -91 86q-51 68 -86 183q0 4 5 8l108 59l8 -8q-12 -53 -12 -94q0 -117 68 -203l8 -8q0 -2 1 -3t1 -3t2 -4zM2996 1203q0 -30 -32 -30q-9 0 -54 12q-10 0 -20 3t-25 7q-86 25 -149 29q-70 -25 -129.5 -69t-104.5 -103q-47 -60 -101 -169.5
t-120 -264.5q-57 -136 -126.5 -244.5t-149.5 -175.5q-154 -133 -408 -199q62 -8 110 -11t79 -3q145 0 258 69q55 35 115.5 98.5t115.5 143.5q18 29 29 29q12 0 12 -13q0 -24 -109 -147q-53 -59 -100 -102t-94 -66q-86 -43 -225 -43q-60 0 -126.5 7t-144.5 22
q-78 -19 -137 -19q-76 0 -76 35t64 35q51 0 153 -23q148 43 230 127q39 41 112.5 150.5t184.5 286.5h-322l-72 -78q-507 -545 -954 -545q-98 0 -175 27.5t-138 83.5q-119 110 -119 290q0 228 195 441q194 213 444 262q86 155 254 258q166 100 338 100q108 0 171.5 -56
t63.5 -153q0 -61 -47 -145q-43 -86 -43 -119q0 -29 23.5 -49.5t58.5 -20.5q47 0 102.5 40t90.5 96q18 24 28 24q15 0 15 -14q0 -23 -62 -86q-90 -90 -178 -90q-65 0 -109.5 47t-44.5 117q0 57 72 194q25 45 25 78q0 45 -47 74.5t-123 29.5t-155 -25.5t-157 -68.5
q-73 -47 -133.5 -103.5t-103.5 -121.5q16 2 36.5 3t30.5 1q154 0 245 -90t91 -242v-32q60 40 98 88.5t64 105.5q4 8 9 14.5t10 6.5q14 0 14 -17q0 -39 -66 -117q-34 -41 -67 -71.5t-68 -52.5q-39 -191 -203 -343q-163 -151 -346 -151q-53 0 -99 19.5t-80 53t-52.5 80
t-18.5 99.5q0 123 89 242q90 122 217 182q0 88 34 170q-104 -35 -192 -102.5t-166 -168.5q-158 -211 -158 -419q0 -156 89.5 -246t244.5 -90q256 0 527 233q55 47 142 135t208 222h-193q-15 -3 -4 10l14 18q0 2 5 2h206l13 13q317 317 605 474.5t529 161.5q35 7 63.5 10
t47.5 3q151 0 151 -64zM2045 608q148 250 294.5 404.5t289.5 210.5q-195 -23 -375 -140q-104 -69 -232 -186t-288 -289h311zM1275 764q0 131 -71.5 201.5t-200.5 70.5q-27 0 -51.5 -2t-49.5 -8q-45 -86 -45 -168q107 43 176 43q17 0 17 -14q0 -15 -35 -19q-45 -8 -83 -18
t-73 -23q9 -96 70 -153.5t162 -57.5q76 0 168 48q16 59 16 100zM1246 623zM1040 330q69 59 120.5 133t85.5 160q-40 -17 -79 -25t-80 -8q-113 0 -176.5 53t-79.5 170q-60 -31 -108 -75t-89 -97q-37 -53 -57.5 -110.5t-20.5 -112.5q0 -94 60.5 -155.5t152.5 -61.5
q129 0 271 129zM2972 1542q-4 -13 -41 -57q-117 -133 -269 -133q-166 0 -133 129q19 73 38 73q9 0 4 -19l-3 -12q-17 -81 130 -81q173 0 247 96q15 16 21 16l4 -2q3 -4 2 -10z" />
    <glyph glyph-name="uni1EB1" unicode="&#x1eb1;" 
d="M748 796q-7 -6 -11 -6q-24 0 -86 80q-24 35 -44.5 78t-37.5 96q0 4 4 8l103 55q8 5 8 -8q-4 -24 -7 -46.5t-3 -43.5q0 -108 65 -190q11 -11 11 -19zM985 328q0 -19 -148 -205q-120 -146 -217 -146q-59 0 -98 41t-39 101q0 8 1 16t3 19q-57 -86 -114.5 -131.5
t-110.5 -45.5q-35 0 -64.5 14.5t-52 40t-36 59.5t-13.5 73q0 127 154 256q75 57 156 93t151 36q90 0 90 -74q0 -12 -2 -16l49 84q2 2 6 2q35 -8 76 -8q16 0 45 2t70 6q10 0 6 -10l-133 -222q-154 -256 -154 -272q0 -29 35 -29q98 0 299 299h-2q14 27 31 27q12 0 12 -10z
M620 471q0 47 -41 47q-71 0 -207 -182q-133 -182 -133 -279q0 -47 39 -47q82 0 209 195q133 207 133 266zM1004 818q-4 -13 -41 -57q-117 -133 -269 -133q-166 0 -133 129q19 73 38 73q9 0 4 -19l-3 -12q-17 -81 130 -81q173 0 247 96q15 16 21 16l4 -2q3 -4 2 -10z" />
    <glyph glyph-name="uni1EB2" unicode="&#x1eb2;" horiz-adv-x="2121" 
d="M3103 1796q0 -46 -35.5 -78.5t-117.5 -60.5q-173 -59 -173 -118q0 -16 11 -16q29 0 59 47q8 14 25 14q9 -5 9 -9q0 -7 -26 -35q-32 -34 -65 -34q-42 0 -42 33q0 25 22.5 46.5t107.5 79.5q135 92 135 169q0 63 -55 70q3 -12 3 -25q0 -81 -64.5 -154t-141.5 -73
q-39 0 -62 23t-23 57q0 71 78.5 131t173.5 60q-15 42 -60 42q-13 0 -27 -5q-5 -3 -12 -3q-14 0 -14 8q0 7 19 12.5t35 5.5q71 0 90 -61q60 -6 105 -42.5t45 -83.5zM2932 1881q0 15 -4 25q-65 0 -141 -65t-76 -129q0 -42 43 -42q57 0 117.5 69t60.5 142zM2996 1203
q0 -30 -32 -30q-9 0 -54 12q-10 0 -20 3t-25 7q-86 25 -149 29q-70 -25 -129.5 -69t-104.5 -103q-47 -60 -101 -169.5t-120 -264.5q-57 -136 -126.5 -244.5t-149.5 -175.5q-154 -133 -408 -199q62 -8 110 -11t79 -3q145 0 258 69q55 35 115.5 98.5t115.5 143.5q18 29 29 29
q12 0 12 -13q0 -24 -109 -147q-53 -59 -100 -102t-94 -66q-86 -43 -225 -43q-60 0 -126.5 7t-144.5 22q-78 -19 -137 -19q-76 0 -76 35t64 35q51 0 153 -23q148 43 230 127q39 41 112.5 150.5t184.5 286.5h-322l-72 -78q-507 -545 -954 -545q-98 0 -175 27.5t-138 83.5
q-119 110 -119 290q0 228 195 441q194 213 444 262q86 155 254 258q166 100 338 100q108 0 171.5 -56t63.5 -153q0 -61 -47 -145q-43 -86 -43 -119q0 -29 23.5 -49.5t58.5 -20.5q47 0 102.5 40t90.5 96q18 24 28 24q15 0 15 -14q0 -23 -62 -86q-90 -90 -178 -90
q-65 0 -109.5 47t-44.5 117q0 57 72 194q25 45 25 78q0 45 -47 74.5t-123 29.5t-155 -25.5t-157 -68.5q-73 -47 -133.5 -103.5t-103.5 -121.5q16 2 36.5 3t30.5 1q154 0 245 -90t91 -242v-32q60 40 98 88.5t64 105.5q4 8 9 14.5t10 6.5q14 0 14 -17q0 -39 -66 -117
q-34 -41 -67 -71.5t-68 -52.5q-39 -191 -203 -343q-163 -151 -346 -151q-53 0 -99 19.5t-80 53t-52.5 80t-18.5 99.5q0 123 89 242q90 122 217 182q0 88 34 170q-104 -35 -192 -102.5t-166 -168.5q-158 -211 -158 -419q0 -156 89.5 -246t244.5 -90q256 0 527 233
q55 47 142 135t208 222h-193q-15 -3 -4 10l14 18q0 2 5 2h206l13 13q317 317 605 474.5t529 161.5q35 7 63.5 10t47.5 3q151 0 151 -64zM2045 608q148 250 294.5 404.5t289.5 210.5q-195 -23 -375 -140q-104 -69 -232 -186t-288 -289h311zM1275 764q0 131 -71.5 201.5
t-200.5 70.5q-27 0 -51.5 -2t-49.5 -8q-45 -86 -45 -168q107 43 176 43q17 0 17 -14q0 -15 -35 -19q-45 -8 -83 -18t-73 -23q9 -96 70 -153.5t162 -57.5q76 0 168 48q16 59 16 100zM1246 623zM1040 330q69 59 120.5 133t85.5 160q-40 -17 -79 -25t-80 -8q-113 0 -176.5 53
t-79.5 170q-60 -31 -108 -75t-89 -97q-37 -53 -57.5 -110.5t-20.5 -112.5q0 -94 60.5 -155.5t152.5 -61.5q129 0 271 129zM2972 1542q-4 -13 -41 -57q-117 -133 -269 -133q-166 0 -133 129q19 73 38 73q9 0 4 -19l-3 -12q-17 -81 130 -81q173 0 247 96q15 16 21 16l4 -2
q3 -4 2 -10z" />
    <glyph glyph-name="uni1EB3" unicode="&#x1eb3;" 
d="M985 328q0 -19 -148 -205q-120 -146 -217 -146q-59 0 -98 41t-39 101q0 8 1 16t3 19q-57 -86 -114.5 -131.5t-110.5 -45.5q-35 0 -64.5 14.5t-52 40t-36 59.5t-13.5 73q0 127 154 256q75 57 156 93t151 36q90 0 90 -74q0 -12 -2 -16l49 84q2 2 6 2q35 -8 76 -8q16 0 45 2
t70 6q10 0 6 -10l-133 -222q-154 -256 -154 -272q0 -29 35 -29q98 0 299 299h-2q14 27 31 27q12 0 12 -10zM620 471q0 47 -41 47q-71 0 -207 -182q-133 -182 -133 -279q0 -47 39 -47q82 0 209 195q133 207 133 266zM1062 1027q0 -37 -29 -64t-97 -50q-142 -48 -142 -97
q0 -13 9 -13q24 0 49 39q6 11 20 11q8 -4 8 -7q0 -6 -22 -29q-26 -28 -53 -28q-35 0 -35 27q0 21 18.5 38.5t88.5 65.5q111 75 111 139q0 51 -45 57q2 -10 2 -20q0 -67 -53 -127t-116 -60q-32 0 -51 19t-19 47q0 58 64.5 107.5t142.5 49.5q-12 34 -49 34q-11 0 -22 -4
q-4 -2 -10 -2q-12 0 -12 6t16 10.5t29 4.5q58 0 74 -50q49 -5 86 -35t37 -69zM922 1097q0 13 -4 21q-53 0 -115.5 -53.5t-62.5 -106.5q0 -34 35 -34q47 0 97 56.5t50 116.5zM1004 818q-4 -13 -41 -57q-117 -133 -269 -133q-166 0 -133 129q19 73 38 73q9 0 4 -19l-3 -12
q-17 -81 130 -81q173 0 247 96q15 16 21 16l4 -2q3 -4 2 -10z" />
    <glyph glyph-name="uni1EB4" unicode="&#x1eb4;" horiz-adv-x="2121" 
d="M3134 1692q0 -8 -78 -51q-70 -39 -125 -39q-39 0 -119 25q-59 18 -86 18q-53 0 -117 -28q-8 -4 -14 0q-4 0 -4 6q0 20 84 55q78 33 119 33q36 0 114 -19q90 -22 115 -22q27 0 50.5 8t39.5 19q6 6 10 6q11 0 11 -11zM2996 1203q0 -30 -32 -30q-9 0 -54 12q-10 0 -20 3
t-25 7q-86 25 -149 29q-70 -25 -129.5 -69t-104.5 -103q-47 -60 -101 -169.5t-120 -264.5q-57 -136 -126.5 -244.5t-149.5 -175.5q-154 -133 -408 -199q62 -8 110 -11t79 -3q145 0 258 69q55 35 115.5 98.5t115.5 143.5q18 29 29 29q12 0 12 -13q0 -24 -109 -147
q-53 -59 -100 -102t-94 -66q-86 -43 -225 -43q-60 0 -126.5 7t-144.5 22q-78 -19 -137 -19q-76 0 -76 35t64 35q51 0 153 -23q148 43 230 127q39 41 112.5 150.5t184.5 286.5h-322l-72 -78q-507 -545 -954 -545q-98 0 -175 27.5t-138 83.5q-119 110 -119 290q0 228 195 441
q194 213 444 262q86 155 254 258q166 100 338 100q108 0 171.5 -56t63.5 -153q0 -61 -47 -145q-43 -86 -43 -119q0 -29 23.5 -49.5t58.5 -20.5q47 0 102.5 40t90.5 96q18 24 28 24q15 0 15 -14q0 -23 -62 -86q-90 -90 -178 -90q-65 0 -109.5 47t-44.5 117q0 57 72 194
q25 45 25 78q0 45 -47 74.5t-123 29.5t-155 -25.5t-157 -68.5q-73 -47 -133.5 -103.5t-103.5 -121.5q16 2 36.5 3t30.5 1q154 0 245 -90t91 -242v-32q60 40 98 88.5t64 105.5q4 8 9 14.5t10 6.5q14 0 14 -17q0 -39 -66 -117q-34 -41 -67 -71.5t-68 -52.5q-39 -191 -203 -343
q-163 -151 -346 -151q-53 0 -99 19.5t-80 53t-52.5 80t-18.5 99.5q0 123 89 242q90 122 217 182q0 88 34 170q-104 -35 -192 -102.5t-166 -168.5q-158 -211 -158 -419q0 -156 89.5 -246t244.5 -90q256 0 527 233q55 47 142 135t208 222h-193q-15 -3 -4 10l14 18q0 2 5 2h206
l13 13q317 317 605 474.5t529 161.5q35 7 63.5 10t47.5 3q151 0 151 -64zM2045 608q148 250 294.5 404.5t289.5 210.5q-195 -23 -375 -140q-104 -69 -232 -186t-288 -289h311zM1275 764q0 131 -71.5 201.5t-200.5 70.5q-27 0 -51.5 -2t-49.5 -8q-45 -86 -45 -168
q107 43 176 43q17 0 17 -14q0 -15 -35 -19q-45 -8 -83 -18t-73 -23q9 -96 70 -153.5t162 -57.5q76 0 168 48q16 59 16 100zM1246 623zM1040 330q69 59 120.5 133t85.5 160q-40 -17 -79 -25t-80 -8q-113 0 -176.5 53t-79.5 170q-60 -31 -108 -75t-89 -97
q-37 -53 -57.5 -110.5t-20.5 -112.5q0 -94 60.5 -155.5t152.5 -61.5q129 0 271 129zM2972 1542q-4 -13 -41 -57q-117 -133 -269 -133q-166 0 -133 129q19 73 38 73q9 0 4 -19l-3 -12q-17 -81 130 -81q173 0 247 96q15 16 21 16l4 -2q3 -4 2 -10z" />
    <glyph glyph-name="uni1EB5" unicode="&#x1eb5;" 
d="M1176 947q0 -2 -35 -25q-103 -59 -158 -59q-35 0 -115 23q-55 16 -77 16q-64 0 -111 -27q-8 -4 -14 0q-4 0 -4 7q0 18 77 53q35 12 66 21t49 9q31 0 109 -18q82 -18 106 -18q47 0 88 26h4l4 2q11 0 11 -10zM985 328q0 -19 -148 -205q-120 -146 -217 -146q-59 0 -98 41
t-39 101q0 8 1 16t3 19q-57 -86 -114.5 -131.5t-110.5 -45.5q-35 0 -64.5 14.5t-52 40t-36 59.5t-13.5 73q0 127 154 256q75 57 156 93t151 36q90 0 90 -74q0 -12 -2 -16l49 84q2 2 8 2q33 -8 74 -8q16 0 45 2t70 6q10 0 6 -10l-133 -222q-154 -256 -154 -272q0 -29 35 -29
q98 0 299 299h-2q14 27 31 27q12 0 12 -10zM620 471q0 47 -41 47q-71 0 -207 -182q-133 -182 -133 -279q0 -47 39 -47q82 0 209 195q133 207 133 266zM1004 818q-4 -13 -41 -57q-117 -133 -269 -133q-166 0 -133 129q19 73 38 73q9 0 4 -19l-3 -12q-17 -81 130 -81
q173 0 247 96q15 16 21 16l4 -2q3 -4 2 -10z" />
    <glyph glyph-name="uni1EB6" unicode="&#x1eb6;" horiz-adv-x="2121" 
d="M1222 -222q0 -63 -59 -129q-58 -66 -117 -66q-68 0 -68 72q0 68 60 129q61 68 121 68q63 0 63 -74zM2996 1203q0 -30 -32 -30q-9 0 -54 12q-10 0 -20 3t-25 7q-86 25 -149 29q-70 -25 -129.5 -69t-104.5 -103q-47 -60 -101 -169.5t-120 -264.5q-57 -136 -126.5 -244.5
t-149.5 -175.5q-154 -133 -408 -199q62 -8 110 -11t79 -3q145 0 258 69q55 35 115.5 98.5t115.5 143.5q18 29 29 29q12 0 12 -13q0 -24 -109 -147q-53 -59 -100 -102t-94 -66q-86 -43 -225 -43q-60 0 -126.5 7t-144.5 22q-78 -19 -137 -19q-76 0 -76 35t64 35q51 0 153 -23
q148 43 230 127q39 41 112.5 150.5t184.5 286.5h-322l-72 -78q-507 -545 -954 -545q-98 0 -175 27.5t-138 83.5q-119 110 -119 290q0 228 195 441q194 213 444 262q86 155 254 258q166 100 338 100q108 0 171.5 -56t63.5 -153q0 -61 -47 -145q-43 -86 -43 -119
q0 -29 23.5 -49.5t58.5 -20.5q47 0 102.5 40t90.5 96q18 24 28 24q15 0 15 -14q0 -23 -62 -86q-90 -90 -178 -90q-65 0 -109.5 47t-44.5 117q0 57 72 194q25 45 25 78q0 45 -47 74.5t-123 29.5t-155 -25.5t-157 -68.5q-73 -47 -133.5 -103.5t-103.5 -121.5q16 2 36.5 3
t30.5 1q154 0 245 -90t91 -242v-32q60 40 98 88.5t64 105.5q4 8 9 14.5t10 6.5q14 0 14 -17q0 -39 -66 -117q-34 -41 -67 -71.5t-68 -52.5q-39 -191 -203 -343q-163 -151 -346 -151q-53 0 -99 19.5t-80 53t-52.5 80t-18.5 99.5q0 123 89 242q90 122 217 182q0 88 34 170
q-104 -35 -192 -102.5t-166 -168.5q-158 -211 -158 -419q0 -156 89.5 -246t244.5 -90q256 0 527 233q55 47 142 135t208 222h-193q-15 -3 -4 10l14 18q0 2 5 2h206l13 13q317 317 605 474.5t529 161.5q35 7 63.5 10t47.5 3q151 0 151 -64zM2045 608q148 250 294.5 404.5
t289.5 210.5q-195 -23 -375 -140q-104 -69 -232 -186t-288 -289h311zM1275 764q0 131 -71.5 201.5t-200.5 70.5q-27 0 -51.5 -2t-49.5 -8q-45 -86 -45 -168q107 43 176 43q17 0 17 -14q0 -15 -35 -19q-45 -8 -83 -18t-73 -23q9 -96 70 -153.5t162 -57.5q76 0 168 48
q16 59 16 100zM1246 623zM1040 330q69 59 120.5 133t85.5 160q-40 -17 -79 -25t-80 -8q-113 0 -176.5 53t-79.5 170q-60 -31 -108 -75t-89 -97q-37 -53 -57.5 -110.5t-20.5 -112.5q0 -94 60.5 -155.5t152.5 -61.5q129 0 271 129zM2972 1542q-4 -13 -41 -57
q-117 -133 -269 -133q-166 0 -133 129q19 73 38 73q9 0 4 -19l-3 -12q-17 -81 130 -81q173 0 247 96q15 16 21 16l4 -2q3 -4 2 -10z" />
    <glyph glyph-name="uni1EB7" unicode="&#x1eb7;" 
d="M444 -162q0 -50 -48 -108q-44 -55 -96 -55q-54 0 -54 60q0 29 12 55t35 53q26 29 49 42.5t49 13.5q53 0 53 -61zM985 328q0 -19 -148 -205q-120 -146 -217 -146q-59 0 -98 41t-39 101q0 8 1 16t3 19q-57 -86 -114.5 -131.5t-110.5 -45.5q-35 0 -64.5 14.5t-52 40
t-36 59.5t-13.5 73q0 127 154 256q75 57 156 93t151 36q90 0 90 -74q0 -12 -2 -16l49 84q2 2 6 2q35 -8 76 -8q16 0 45 2t70 6q10 0 6 -10l-133 -222q-154 -256 -154 -272q0 -29 35 -29q98 0 299 299h-2q14 27 31 27q12 0 12 -10zM620 471q0 47 -41 47q-71 0 -207 -182
q-133 -182 -133 -279q0 -47 39 -47q82 0 209 195q133 207 133 266zM1004 818q-4 -13 -41 -57q-117 -133 -269 -133q-166 0 -133 129q19 73 38 73q9 0 4 -19l-3 -12q-17 -81 130 -81q173 0 247 96q15 16 21 16l4 -2q3 -4 2 -10z" />
    <glyph glyph-name="uni1EB8" unicode="&#x1eb8;" horiz-adv-x="1916" 
d="M2242 1151q0 -72 -125 -72q-49 0 -149 17.5t-258 56.5l-49 12q-166 -114 -166 -241q0 -60 41 -82q22 0 45.5 1t44.5 1q115 0 115 -29q0 -22 -43 -22q-41 0 -82 6t-86 16q-60 -8 -121.5 -23.5t-120.5 -43.5q-21 -130 -131 -234q-113 -106 -258 -139q-29 -66 -29 -144
q0 -170 203 -231q-39 82 -39 162q0 217 209 375q256 188 516 188q256 0 256 -211q0 -96 -47 -184t-146 -178q-227 -203 -565 -203q-45 0 -108 6q92 -98 254 -98q127 0 229 55q2 0 14 4h4q11 -6 11 -14q0 -11 -29 -24t-68 -25q-90 -25 -161 -25q-187 0 -306 135
q-190 39 -304.5 131t-114.5 234q-2 10 2 39q-176 34 -273.5 136.5t-97.5 254.5q0 110 56.5 210.5t154.5 174.5q213 157 526 157q84 0 211 -19t291 -56q74 28 157 44.5t175 16.5q71 0 137 -10t117 -29q108 -41 108 -96zM2210 1149q0 39 -74 65q-80 31 -180 31
q-140 0 -252 -59l26 -6l41 -11q242 -61 348 -61q91 0 91 41zM1980 524q0 74 -53 119t-145 45q-222 0 -457 -194q-234 -199 -234 -379q0 -29 11.5 -66t23.5 -61q25 -4 48.5 -5t41.5 -1q273 0 518 174q246 178 246 368zM1349 999q0 119 150 203q-225 49 -381 49
q-309 0 -528 -157q-218 -156 -218 -379q0 -131 83 -214t233 -104q39 154 190.5 261.5t382.5 150.5q0 131 -85 209t-226 80q-16 0 -16 12q0 18 26 18q72 0 132.5 -24.5t107.5 -65.5q43 -45 67.5 -101t26.5 -122q41 6 86 12.5t94 10.5q-125 45 -125 161zM1257 741
q-117 -57 -214 -149t-138 -184q135 34 230.5 125.5t121.5 207.5zM1081 -222q0 -63 -59 -129q-58 -66 -117 -66q-68 0 -68 72q0 68 60 129q61 68 121 68q63 0 63 -74z" />
    <glyph glyph-name="uni1EB9" unicode="&#x1eb9;" horiz-adv-x="581" 
d="M772 328q0 -4 -14.5 -26.5t-37.5 -51.5q-22 -31 -43.5 -56.5t-38.5 -46.5q-165 -170 -305 -170q-98 0 -162.5 57.5t-64.5 143.5q0 129 145 248q148 123 301 123q54 0 88.5 -25.5t34.5 -64.5q0 -135 -368 -215q-23 -41 -36 -82t-13 -76q0 -80 90 -80q182 0 383 305h-2
q14 27 30 27q13 0 13 -10zM571 500q0 24 -29 24q-43 0 -97 -61.5t-126 -190.5q57 17 101 40.5t73 52.5q78 77 78 135zM364 -162q0 -50 -48 -108q-45 -55 -96 -55q-55 0 -55 60q0 29 12 55t36 53q26 29 49 42.5t49 13.5q53 0 53 -61z" />
    <glyph glyph-name="uni1EBA" unicode="&#x1eba;" horiz-adv-x="1916" 
d="M2242 1151q0 -72 -125 -72q-49 0 -149 17.5t-258 56.5l-49 12q-166 -114 -166 -241q0 -60 41 -82q22 0 45.5 1t44.5 1q115 0 115 -29q0 -22 -43 -22q-41 0 -82 6t-86 16q-60 -8 -121.5 -23.5t-120.5 -43.5q-21 -130 -131 -234q-113 -106 -258 -139q-29 -66 -29 -144
q0 -170 203 -231q-39 82 -39 162q0 217 209 375q256 188 516 188q256 0 256 -211q0 -96 -47 -184t-146 -178q-227 -203 -565 -203q-45 0 -108 6q92 -98 254 -98q127 0 229 55q2 0 14 4h4q11 -6 11 -14q0 -11 -29 -24t-68 -25q-90 -25 -161 -25q-187 0 -306 135
q-190 39 -304.5 131t-114.5 234q-2 10 2 39q-176 34 -273.5 136.5t-97.5 254.5q0 110 56.5 210.5t154.5 174.5q213 157 526 157q84 0 211 -19t291 -56q74 28 157 44.5t175 16.5q71 0 137 -10t117 -29q108 -41 108 -96zM2210 1149q0 39 -74 65q-80 31 -180 31
q-140 0 -252 -59l26 -6l41 -11q242 -61 348 -61q91 0 91 41zM1980 524q0 74 -53 119t-145 45q-222 0 -457 -194q-234 -199 -234 -379q0 -29 11.5 -66t23.5 -61q25 -4 48.5 -5t41.5 -1q273 0 518 174q246 178 246 368zM1349 999q0 119 150 203q-225 49 -381 49
q-309 0 -528 -157q-218 -156 -218 -379q0 -131 83 -214t233 -104q39 154 190.5 261.5t382.5 150.5q0 131 -85 209t-226 80q-16 0 -16 12q0 18 26 18q72 0 132.5 -24.5t107.5 -65.5q43 -45 67.5 -101t26.5 -122q41 6 86 12.5t94 10.5q-125 45 -125 161zM1257 741
q-117 -57 -214 -149t-138 -184q135 34 230.5 125.5t121.5 207.5zM2238 1638q0 -46 -35.5 -78.5t-117.5 -60.5q-173 -59 -173 -118q0 -16 11 -16q29 0 59 47q8 14 25 14q9 -5 9 -9q0 -7 -26 -35q-32 -34 -65 -34q-42 0 -42 33q0 25 22.5 46.5t107.5 79.5q135 92 135 169
q0 63 -55 70q3 -12 3 -25q0 -81 -64.5 -154t-141.5 -73q-39 0 -62 23t-23 57q0 71 78.5 131t173.5 60q-15 42 -60 42q-13 0 -27 -5q-5 -3 -12 -3q-14 0 -14 8q0 7 19 12.5t35 5.5q71 0 90 -61q60 -6 105 -42.5t45 -83.5zM2067 1723q0 15 -4 25q-65 0 -141 -65t-76 -129
q0 -42 43 -42q57 0 117.5 69t60.5 142z" />
    <glyph glyph-name="uni1EBB" unicode="&#x1ebb;" horiz-adv-x="581" 
d="M772 328q0 -4 -14.5 -26.5t-37.5 -51.5q-22 -31 -43.5 -56.5t-38.5 -46.5q-165 -170 -305 -170q-98 0 -162.5 57.5t-64.5 143.5q0 129 145 248q148 123 301 123q54 0 88.5 -25.5t34.5 -64.5q0 -135 -368 -215q-23 -41 -36 -82t-13 -76q0 -80 90 -80q182 0 383 305h-2
q14 27 30 27q13 0 13 -10zM571 500q0 24 -29 24q-43 0 -97 -61.5t-126 -190.5q57 17 101 40.5t73 52.5q78 77 78 135zM801 825q0 -37 -29 -64t-97 -50q-142 -48 -142 -97q0 -13 9 -13q24 0 48 39q7 11 21 11q7 -4 7 -7q0 -6 -21 -29q-26 -28 -53 -28q-35 0 -35 27
q0 21 18.5 38.5t88.5 65.5q111 75 111 139q0 51 -45 57q2 -10 2 -20q0 -67 -53 -127t-116 -60q-32 0 -51 19t-19 47q0 58 64.5 107.5t142.5 49.5q-12 34 -49 34q-11 0 -22 -4q-5 -2 -10 -2q-12 0 -12 6t15.5 10.5t29.5 4.5q58 0 74 -50q49 -5 86 -35t37 -69zM660 895
q0 13 -3 21q-53 0 -115.5 -53.5t-62.5 -106.5q0 -34 35 -34q47 0 96.5 56.5t49.5 116.5z" />
    <glyph glyph-name="uni1EBC" unicode="&#x1ebc;" horiz-adv-x="1916" 
d="M2242 1151q0 -72 -125 -72q-49 0 -149 17.5t-258 56.5l-49 12q-166 -114 -166 -241q0 -60 41 -82q22 0 45.5 1t44.5 1q115 0 115 -29q0 -22 -43 -22q-41 0 -82 6t-86 16q-60 -8 -121.5 -23.5t-120.5 -43.5q-21 -130 -131 -234q-113 -106 -258 -139q-29 -66 -29 -144
q0 -170 203 -231q-39 82 -39 162q0 217 209 375q256 188 516 188q256 0 256 -211q0 -96 -47 -184t-146 -178q-227 -203 -565 -203q-45 0 -108 6q92 -98 254 -98q127 0 229 55q2 0 14 4h4q11 -6 11 -14q0 -11 -29 -24t-68 -25q-90 -25 -161 -25q-187 0 -306 135
q-190 39 -304.5 131t-114.5 234q-2 10 2 39q-176 34 -273.5 136.5t-97.5 254.5q0 110 56.5 210.5t154.5 174.5q213 157 526 157q84 0 211 -19t291 -56q74 28 157 44.5t175 16.5q71 0 137 -10t117 -29q108 -41 108 -96zM2210 1149q0 39 -74 65q-80 31 -180 31
q-140 0 -252 -59l26 -6l41 -11q242 -61 348 -61q91 0 91 41zM1980 524q0 74 -53 119t-145 45q-222 0 -457 -194q-234 -199 -234 -379q0 -29 11.5 -66t23.5 -61q25 -4 48.5 -5t41.5 -1q273 0 518 174q246 178 246 368zM1349 999q0 119 150 203q-225 49 -381 49
q-309 0 -528 -157q-218 -156 -218 -379q0 -131 83 -214t233 -104q39 154 190.5 261.5t382.5 150.5q0 131 -85 209t-226 80q-16 0 -16 12q0 18 26 18q72 0 132.5 -24.5t107.5 -65.5q43 -45 67.5 -101t26.5 -122q41 6 86 12.5t94 10.5q-125 45 -125 161zM1257 741
q-117 -57 -214 -149t-138 -184q135 34 230.5 125.5t121.5 207.5zM2366 1554q0 -8 -78 -51q-70 -39 -125 -39q-39 0 -119 25q-59 18 -86 18q-53 0 -117 -28q-8 -4 -14 0q-4 0 -4 6q0 20 84 55q78 33 119 33q36 0 114 -19q90 -22 115 -22q27 0 50.5 8t39.5 19q6 6 10 6
q11 0 11 -11z" />
    <glyph glyph-name="uni1EBD" unicode="&#x1ebd;" horiz-adv-x="581" 
d="M772 328q0 -4 -14.5 -26.5t-37.5 -51.5q-22 -31 -43.5 -56.5t-38.5 -46.5q-165 -170 -305 -170q-98 0 -162.5 57.5t-64.5 143.5q0 129 145 248q148 123 301 123q54 0 88.5 -25.5t34.5 -64.5q0 -135 -368 -215q-23 -41 -36 -82t-13 -76q0 -80 90 -80q182 0 383 305h-2
q14 27 30 27q13 0 13 -10zM571 500q0 24 -29 24q-43 0 -97 -61.5t-126 -190.5q57 17 101 40.5t73 52.5q78 77 78 135zM927 770q0 -2 -34 -25q-103 -59 -158 -59q-35 0 -115 23q-55 16 -78 16q-63 0 -110 -27q-8 -4 -14 0q-5 0 -5 7q0 18 78 53q35 12 65.5 21t49.5 9
q31 0 108 -18q82 -18 107 -18q47 0 88 26h4l4 2q10 0 10 -10z" />
    <glyph glyph-name="uni1EBE" unicode="&#x1ebe;" horiz-adv-x="1916" 
d="M2622 1777q4 -4 -2 -10q-174 -113 -293 -164q-57 -24 -92 -38.5t-45 -12.5t-2 10q2 2 8 7.5t16 11.5q125 71 213 140t138 138q4 10 10 0zM2242 1151q0 -72 -125 -72q-49 0 -149 17.5t-258 56.5l-49 12q-166 -114 -166 -241q0 -60 41 -82q22 0 45.5 1t44.5 1
q115 0 115 -29q0 -22 -43 -22q-41 0 -82 6t-86 16q-60 -8 -121.5 -23.5t-120.5 -43.5q-21 -130 -131 -234q-113 -106 -258 -139q-29 -66 -29 -144q0 -170 203 -231q-39 82 -39 162q0 217 209 375q256 188 516 188q256 0 256 -211q0 -96 -47 -184t-146 -178
q-227 -203 -565 -203q-45 0 -108 6q92 -98 254 -98q127 0 229 55q2 0 14 4h4q11 -6 11 -14q0 -11 -29 -24t-68 -25q-90 -25 -161 -25q-187 0 -306 135q-190 39 -304.5 131t-114.5 234q-2 10 2 39q-176 34 -273.5 136.5t-97.5 254.5q0 110 56.5 210.5t154.5 174.5
q213 157 526 157q84 0 211 -19t291 -56q74 28 157 44.5t175 16.5q71 0 137 -10t117 -29q108 -41 108 -96zM2210 1149q0 39 -74 65q-80 31 -180 31q-140 0 -252 -59l26 -6l41 -11q242 -61 348 -61q91 0 91 41zM1980 524q0 74 -53 119t-145 45q-222 0 -457 -194
q-234 -199 -234 -379q0 -29 11.5 -66t23.5 -61q25 -4 48.5 -5t41.5 -1q273 0 518 174q246 178 246 368zM1349 999q0 119 150 203q-225 49 -381 49q-309 0 -528 -157q-218 -156 -218 -379q0 -131 83 -214t233 -104q39 154 190.5 261.5t382.5 150.5q0 131 -85 209t-226 80
q-16 0 -16 12q0 18 26 18q72 0 132.5 -24.5t107.5 -65.5q43 -45 67.5 -101t26.5 -122q41 6 86 12.5t94 10.5q-125 45 -125 161zM1257 741q-117 -57 -214 -149t-138 -184q135 34 230.5 125.5t121.5 207.5zM2144 1690q0 -31 -6 -104t-16 -185q0 -4 -1 -7t-1 -8q0 -12 -9 -12
l-4 2l-2 2q-4 4 -4 6q-4 41 -12 75t-23 69q-22 -17 -62 -38.5t-93 -47.5q-119 -58 -150 -56q-6 0 -6 7q0 6 10 12q129 72 221.5 142.5t147.5 146.5z" />
    <glyph glyph-name="uni1EBF" unicode="&#x1ebf;" horiz-adv-x="581" 
d="M1205 1025q4 -4 -2 -10q-78 -51 -127 -81t-69 -40q-37 -20 -84 -40.5t-95 -37.5l-18 -6q-8 -4 -14 0q-4 0 -4 6q0 7 10 13q248 137 348 272q4 10 10 0zM772 328q0 -4 -14.5 -26.5t-37.5 -51.5q-20 -31 -41.5 -56.5t-40.5 -46.5q-165 -170 -303 -170q-100 0 -164.5 57.5
t-64.5 143.5q0 127 145 248q150 123 301 123q54 0 89.5 -25.5t35.5 -64.5q0 -135 -368 -215q-51 -86 -51 -158q0 -80 92 -80q180 0 381 305h-2q14 27 30 27q13 0 13 -10zM571 500q0 24 -29 24q-41 0 -95 -61.5t-126 -190.5q55 17 100 40.5t74 52.5q37 38 56.5 71t19.5 64z
M741 725l-6 -63v-13q0 -12 -8 -12l-5 2q-6 2 -6 12q-6 41 -14 74t-18 55q-23 -16 -62 -36.5t-88 -45.5q-55 -26 -89 -39.5t-50 -11.5q-4 0 -5 5t3 7q2 0 8 5q4 4 11 8t18 12q110 66 189 129.5t128 124.5q4 4 7 3t3 -5z" />
    <glyph glyph-name="uni1EC0" unicode="&#x1ec0;" horiz-adv-x="1916" 
d="M1968 1613q0 -13 -13 -13q-22 0 -90 86q-51 68 -86 183q0 4 4 8l109 59q4 2 7 -1t1 -7q-12 -53 -12 -94q0 -117 67 -203l9 -8q0 -2 1 -3t1 -3t2 -4zM2242 1151q0 -72 -125 -72q-49 0 -149 17.5t-258 56.5l-49 12q-166 -114 -166 -241q0 -60 41 -82q22 0 45.5 1t44.5 1
q115 0 115 -29q0 -22 -43 -22q-41 0 -82 6t-86 16q-60 -8 -121.5 -23.5t-120.5 -43.5q-21 -130 -131 -234q-113 -106 -258 -139q-29 -66 -29 -144q0 -170 203 -231q-39 82 -39 162q0 217 209 375q256 188 516 188q256 0 256 -211q0 -96 -47 -184t-146 -178
q-227 -203 -565 -203q-45 0 -108 6q92 -98 254 -98q127 0 229 55q2 0 14 4h4q11 -6 11 -14q0 -11 -29 -24t-68 -25q-90 -25 -161 -25q-187 0 -306 135q-190 39 -304.5 131t-114.5 234q-2 10 2 39q-176 34 -273.5 136.5t-97.5 254.5q0 110 56.5 210.5t154.5 174.5
q213 157 526 157q84 0 211 -19t291 -56q74 28 157 44.5t175 16.5q71 0 137 -10t117 -29q108 -41 108 -96zM2210 1149q0 39 -74 65q-80 31 -180 31q-140 0 -252 -59l26 -6l41 -11q242 -61 348 -61q91 0 91 41zM1980 524q0 74 -53 119t-145 45q-222 0 -457 -194
q-234 -199 -234 -379q0 -29 11.5 -66t23.5 -61q25 -4 48.5 -5t41.5 -1q273 0 518 174q246 178 246 368zM1349 999q0 119 150 203q-225 49 -381 49q-309 0 -528 -157q-218 -156 -218 -379q0 -131 83 -214t233 -104q39 154 190.5 261.5t382.5 150.5q0 131 -85 209t-226 80
q-16 0 -16 12q0 18 26 18q72 0 132.5 -24.5t107.5 -65.5q43 -45 67.5 -101t26.5 -122q41 6 86 12.5t94 10.5q-125 45 -125 161zM1257 741q-117 -57 -214 -149t-138 -184q135 34 230.5 125.5t121.5 207.5zM2144 1690q0 -31 -6 -104t-16 -185q0 -4 -1 -7t-1 -8q0 -12 -9 -12
l-4 2l-2 2q-4 4 -4 6q-4 41 -12 75t-23 69q-22 -17 -62 -38.5t-93 -47.5q-119 -58 -150 -56q-6 0 -6 7q0 6 10 12q129 72 221.5 142.5t147.5 146.5z" />
    <glyph glyph-name="uni1EC1" unicode="&#x1ec1;" horiz-adv-x="581" 
d="M621 876q-6 -6 -10 -6q-26 0 -88 80q-24 35 -44.5 78t-35.5 96q0 4 4 8l101 55q8 5 8 -8q-4 -24 -7 -46.5t-3 -43.5q0 -110 67 -190q10 -11 10 -19zM772 328q0 -4 -14.5 -26.5t-37.5 -51.5q-22 -31 -43.5 -56.5t-38.5 -46.5q-165 -170 -305 -170q-98 0 -162.5 57.5
t-64.5 143.5q0 129 145 248q148 123 301 123q54 0 88.5 -25.5t34.5 -64.5q0 -135 -368 -215q-23 -41 -36 -82t-13 -76q0 -80 90 -80q182 0 383 305h-2q14 27 30 27q13 0 13 -10zM571 500q0 24 -29 24q-43 0 -97 -61.5t-126 -190.5q57 17 101 40.5t73 52.5q78 77 78 135z
M741 725l-6 -63v-13q0 -12 -8 -12l-5 2q-6 2 -6 12q-6 41 -14 74t-18 55q-23 -16 -62 -36.5t-88 -45.5q-55 -26 -89 -39.5t-50 -11.5q-4 0 -5 5t3 7q2 0 8 5q4 4 11 8t18 12q110 66 189 129.5t128 124.5q4 4 7 3t3 -5z" />
    </font>
</defs>
</svg>
